%TF.GenerationSoftware,KiCad,Pcbnew,(6.0.9)*%
%TF.CreationDate,2022-12-14T14:47:06-05:00*%
%TF.ProjectId,Coaster_PCB_CDR,436f6173-7465-4725-9f50-43425f434452,rev?*%
%TF.SameCoordinates,Original*%
%TF.FileFunction,Soldermask,Top*%
%TF.FilePolarity,Negative*%
%FSLAX46Y46*%
G04 Gerber Fmt 4.6, Leading zero omitted, Abs format (unit mm)*
G04 Created by KiCad (PCBNEW (6.0.9)) date 2022-12-14 14:47:06*
%MOMM*%
%LPD*%
G01*
G04 APERTURE LIST*
G04 Aperture macros list*
%AMRoundRect*
0 Rectangle with rounded corners*
0 $1 Rounding radius*
0 $2 $3 $4 $5 $6 $7 $8 $9 X,Y pos of 4 corners*
0 Add a 4 corners polygon primitive as box body*
4,1,4,$2,$3,$4,$5,$6,$7,$8,$9,$2,$3,0*
0 Add four circle primitives for the rounded corners*
1,1,$1+$1,$2,$3*
1,1,$1+$1,$4,$5*
1,1,$1+$1,$6,$7*
1,1,$1+$1,$8,$9*
0 Add four rect primitives between the rounded corners*
20,1,$1+$1,$2,$3,$4,$5,0*
20,1,$1+$1,$4,$5,$6,$7,0*
20,1,$1+$1,$6,$7,$8,$9,0*
20,1,$1+$1,$8,$9,$2,$3,0*%
G04 Aperture macros list end*
%ADD10R,1.700000X1.700000*%
%ADD11O,1.700000X1.700000*%
%ADD12C,6.000000*%
%ADD13R,2.794000X2.794000*%
%ADD14C,2.794000*%
%ADD15C,0.900000*%
%ADD16C,8.600000*%
%ADD17R,1.800000X1.800000*%
%ADD18C,1.800000*%
%ADD19R,2.000000X2.000000*%
%ADD20O,2.000000X2.000000*%
%ADD21C,2.000000*%
%ADD22R,1.905000X2.000000*%
%ADD23O,1.905000X2.000000*%
%ADD24RoundRect,1.500000X1.500000X-1.500000X1.500000X1.500000X-1.500000X1.500000X-1.500000X-1.500000X0*%
%ADD25C,1.400000*%
%ADD26O,1.400000X1.400000*%
%ADD27R,3.500000X1.700000*%
G04 APERTURE END LIST*
D10*
%TO.C,J17*%
X167500000Y-75460000D03*
D11*
X167500000Y-78000000D03*
%TD*%
D10*
%TO.C,J16*%
X87025000Y-75750000D03*
D11*
X87025000Y-78290000D03*
%TD*%
D12*
%TO.C,J11*%
X95500000Y-131750000D03*
%TD*%
D10*
%TO.C,RF1*%
X152525000Y-86950000D03*
D11*
X152525000Y-89490000D03*
X152525000Y-92030000D03*
X152525000Y-94570000D03*
%TD*%
D12*
%TO.C,J15*%
X158250000Y-67250000D03*
%TD*%
D13*
%TO.C,SW1*%
X119000000Y-143051000D03*
D14*
X119000000Y-147750000D03*
X119000000Y-152449000D03*
%TD*%
D10*
%TO.C,J13*%
X155250000Y-78225000D03*
D11*
X157790000Y-78225000D03*
%TD*%
D15*
%TO.C,H3*%
X172030419Y-147469581D03*
X169750000Y-146525000D03*
D16*
X169750000Y-149750000D03*
D15*
X166525000Y-149750000D03*
X172030419Y-152030419D03*
X167469581Y-147469581D03*
X169750000Y-152975000D03*
X172975000Y-149750000D03*
X167469581Y-152030419D03*
%TD*%
D10*
%TO.C,J9*%
X86975000Y-111490000D03*
D11*
X86975000Y-108950000D03*
X86975000Y-106410000D03*
X86975000Y-103870000D03*
X86975000Y-101330000D03*
X86975000Y-98790000D03*
X86975000Y-96250000D03*
X86975000Y-93710000D03*
%TD*%
D17*
%TO.C,D3*%
X157750000Y-151025000D03*
D18*
X157750000Y-148485000D03*
%TD*%
D19*
%TO.C,D1*%
X131555000Y-142695354D03*
D20*
X131555000Y-147775354D03*
%TD*%
D16*
%TO.C,H1*%
X83750000Y-64250000D03*
D15*
X81469581Y-66530419D03*
X86030419Y-66530419D03*
X86975000Y-64250000D03*
X81469581Y-61969581D03*
X86030419Y-61969581D03*
X83750000Y-61025000D03*
X80525000Y-64250000D03*
X83750000Y-67475000D03*
%TD*%
D12*
%TO.C,J14*%
X158750000Y-131750000D03*
%TD*%
%TO.C,J12*%
X99250000Y-103000000D03*
%TD*%
D10*
%TO.C,J8*%
X105175000Y-66725000D03*
D11*
X107715000Y-66725000D03*
X110255000Y-66725000D03*
X112795000Y-66725000D03*
X115335000Y-66725000D03*
X117875000Y-66725000D03*
X120415000Y-66725000D03*
X122955000Y-66725000D03*
X125495000Y-66725000D03*
X128035000Y-66725000D03*
X130575000Y-66725000D03*
X133115000Y-66725000D03*
X135655000Y-66725000D03*
X138195000Y-66725000D03*
X140735000Y-66725000D03*
X143275000Y-66725000D03*
X145815000Y-66725000D03*
X148355000Y-66725000D03*
%TD*%
D19*
%TO.C,C1*%
X142750000Y-142632323D03*
D21*
X142750000Y-147632323D03*
%TD*%
D12*
%TO.C,J5*%
X96500000Y-67250000D03*
%TD*%
D22*
%TO.C,U2*%
X124460000Y-125222500D03*
D23*
X127000000Y-125222500D03*
X129540000Y-125222500D03*
%TD*%
D10*
%TO.C,J2*%
X167725000Y-109075000D03*
D11*
X167725000Y-106535000D03*
X167725000Y-103995000D03*
X167725000Y-101455000D03*
X167725000Y-98915000D03*
X167725000Y-96375000D03*
%TD*%
D10*
%TO.C,J4*%
X145250000Y-78252500D03*
D11*
X147790000Y-78252500D03*
%TD*%
D15*
%TO.C,H2*%
X167469581Y-61969581D03*
X166525000Y-64250000D03*
D16*
X169750000Y-64250000D03*
D15*
X169750000Y-61025000D03*
X169750000Y-67475000D03*
X172030419Y-61969581D03*
X167469581Y-66530419D03*
X172030419Y-66530419D03*
X172975000Y-64250000D03*
%TD*%
D24*
%TO.C,J1*%
X101500000Y-150100000D03*
D12*
X101500000Y-142900000D03*
%TD*%
D10*
%TO.C,J6*%
X94225000Y-144750000D03*
D11*
X94225000Y-142210000D03*
%TD*%
D25*
%TO.C,R1*%
X159250000Y-142750000D03*
D26*
X151630000Y-142750000D03*
%TD*%
D10*
%TO.C,LB1*%
X101725000Y-118620000D03*
D11*
X101725000Y-116080000D03*
X101725000Y-113540000D03*
X101725000Y-111000000D03*
%TD*%
D15*
%TO.C,H4*%
X87225000Y-149750000D03*
X80775000Y-149750000D03*
X84000000Y-146525000D03*
X81719581Y-147469581D03*
X81719581Y-152030419D03*
D16*
X84000000Y-149750000D03*
D15*
X86280419Y-152030419D03*
X86280419Y-147469581D03*
X84000000Y-152975000D03*
%TD*%
D10*
%TO.C,LF1*%
X101725000Y-94800000D03*
D11*
X101725000Y-92260000D03*
X101725000Y-89720000D03*
X101725000Y-87180000D03*
%TD*%
D12*
%TO.C,J7*%
X119250000Y-134027500D03*
%TD*%
%TO.C,J3*%
X133750000Y-134027500D03*
%TD*%
%TO.C,J10*%
X155000000Y-102750000D03*
%TD*%
D10*
%TO.C,RB1*%
X152525000Y-110750000D03*
D11*
X152525000Y-113290000D03*
X152525000Y-115830000D03*
X152525000Y-118370000D03*
%TD*%
D27*
%TO.C,U1*%
X116960000Y-78647500D03*
D11*
X117860000Y-78647500D03*
X117860000Y-81187500D03*
D27*
X116960000Y-81187500D03*
D10*
X117860000Y-83727500D03*
D27*
X116960000Y-83727500D03*
D11*
X117860000Y-86267500D03*
D27*
X116960000Y-86267500D03*
D11*
X117860000Y-88807500D03*
D27*
X116960000Y-88807500D03*
X116960000Y-91347500D03*
D11*
X117860000Y-91347500D03*
D27*
X116960000Y-93887500D03*
D11*
X117860000Y-93887500D03*
D10*
X117860000Y-96427500D03*
D27*
X116960000Y-96427500D03*
X116960000Y-98967500D03*
D11*
X117860000Y-98967500D03*
X117860000Y-101507500D03*
D27*
X116960000Y-101507500D03*
X116960000Y-104047500D03*
D11*
X117860000Y-104047500D03*
X117860000Y-106587500D03*
D27*
X116960000Y-106587500D03*
D10*
X117860000Y-109127500D03*
D27*
X116960000Y-109127500D03*
D11*
X117860000Y-111667500D03*
D27*
X116960000Y-111667500D03*
X116960000Y-114207500D03*
D11*
X117860000Y-114207500D03*
X117860000Y-116747500D03*
D27*
X116960000Y-116747500D03*
X116960000Y-119287500D03*
D11*
X117860000Y-119287500D03*
D10*
X117860000Y-121827500D03*
D27*
X116960000Y-121827500D03*
D11*
X117860000Y-124367500D03*
D27*
X116960000Y-124367500D03*
D11*
X117860000Y-126907500D03*
D27*
X116960000Y-126907500D03*
D11*
X135640000Y-126907500D03*
D27*
X136540000Y-126907500D03*
D11*
X135640000Y-124367500D03*
D27*
X136540000Y-124367500D03*
X136540000Y-121827500D03*
D10*
X135640000Y-121827500D03*
D27*
X136540000Y-119287500D03*
D11*
X135640000Y-119287500D03*
D27*
X136540000Y-116747500D03*
D11*
X135640000Y-116747500D03*
X135640000Y-114207500D03*
D27*
X136540000Y-114207500D03*
D11*
X135640000Y-111667500D03*
D27*
X136540000Y-111667500D03*
D10*
X135640000Y-109127500D03*
D27*
X136540000Y-109127500D03*
X136540000Y-106587500D03*
D11*
X135640000Y-106587500D03*
X135640000Y-104047500D03*
D27*
X136540000Y-104047500D03*
D11*
X135640000Y-101507500D03*
D27*
X136540000Y-101507500D03*
D11*
X135640000Y-98967500D03*
D27*
X136540000Y-98967500D03*
X136540000Y-96427500D03*
D10*
X135640000Y-96427500D03*
D11*
X135640000Y-93887500D03*
D27*
X136540000Y-93887500D03*
X136540000Y-91347500D03*
D11*
X135640000Y-91347500D03*
D27*
X136540000Y-88807500D03*
D11*
X135640000Y-88807500D03*
D27*
X136540000Y-86267500D03*
D11*
X135640000Y-86267500D03*
D10*
X135640000Y-83727500D03*
D27*
X136540000Y-83727500D03*
D11*
X135640000Y-81187500D03*
D27*
X136540000Y-81187500D03*
X136540000Y-78647500D03*
D11*
X135640000Y-78647500D03*
%TD*%
M02*
