%TF.GenerationSoftware,KiCad,Pcbnew,(6.0.9)*%
%TF.CreationDate,2022-12-20T23:19:35-05:00*%
%TF.ProjectId,Coaster_PCB_CDR,436f6173-7465-4725-9f50-43425f434452,rev?*%
%TF.SameCoordinates,Original*%
%TF.FileFunction,Legend,Bot*%
%TF.FilePolarity,Positive*%
%FSLAX46Y46*%
G04 Gerber Fmt 4.6, Leading zero omitted, Abs format (unit mm)*
G04 Created by KiCad (PCBNEW (6.0.9)) date 2022-12-20 23:19:35*
%MOMM*%
%LPD*%
G01*
G04 APERTURE LIST*
%ADD10C,0.200000*%
%ADD11C,0.250000*%
G04 APERTURE END LIST*
D10*
X153000000Y-155500000D02*
X127500000Y-155500000D01*
X127500000Y-155500000D02*
X127500000Y-153500000D01*
X127500000Y-153500000D02*
X153000000Y-153500000D01*
X153000000Y-153500000D02*
X153000000Y-155500000D01*
D11*
X150226190Y-153952380D02*
X150035714Y-153952380D01*
X149940476Y-154000000D01*
X149845238Y-154095238D01*
X149797619Y-154285714D01*
X149797619Y-154619047D01*
X149845238Y-154809523D01*
X149940476Y-154904761D01*
X150035714Y-154952380D01*
X150226190Y-154952380D01*
X150321428Y-154904761D01*
X150416666Y-154809523D01*
X150464285Y-154619047D01*
X150464285Y-154285714D01*
X150416666Y-154095238D01*
X150321428Y-154000000D01*
X150226190Y-153952380D01*
X149369047Y-154952380D02*
X149369047Y-154285714D01*
X149369047Y-154380952D02*
X149321428Y-154333333D01*
X149226190Y-154285714D01*
X149083333Y-154285714D01*
X148988095Y-154333333D01*
X148940476Y-154428571D01*
X148940476Y-154952380D01*
X148940476Y-154428571D02*
X148892857Y-154333333D01*
X148797619Y-154285714D01*
X148654761Y-154285714D01*
X148559523Y-154333333D01*
X148511904Y-154428571D01*
X148511904Y-154952380D01*
X147607142Y-154952380D02*
X147607142Y-154428571D01*
X147654761Y-154333333D01*
X147750000Y-154285714D01*
X147940476Y-154285714D01*
X148035714Y-154333333D01*
X147607142Y-154904761D02*
X147702380Y-154952380D01*
X147940476Y-154952380D01*
X148035714Y-154904761D01*
X148083333Y-154809523D01*
X148083333Y-154714285D01*
X148035714Y-154619047D01*
X147940476Y-154571428D01*
X147702380Y-154571428D01*
X147607142Y-154523809D01*
X147130952Y-154952380D02*
X147130952Y-154285714D01*
X147130952Y-154476190D02*
X147083333Y-154380952D01*
X147035714Y-154333333D01*
X146940476Y-154285714D01*
X146845238Y-154285714D01*
X145797619Y-154666666D02*
X145321428Y-154666666D01*
X145892857Y-154952380D02*
X145559523Y-153952380D01*
X145226190Y-154952380D01*
X144892857Y-154952380D02*
X144892857Y-154285714D01*
X144892857Y-154476190D02*
X144845238Y-154380952D01*
X144797619Y-154333333D01*
X144702380Y-154285714D01*
X144607142Y-154285714D01*
X143892857Y-154904761D02*
X143988095Y-154952380D01*
X144178571Y-154952380D01*
X144273809Y-154904761D01*
X144321428Y-154809523D01*
X144321428Y-154428571D01*
X144273809Y-154333333D01*
X144178571Y-154285714D01*
X143988095Y-154285714D01*
X143892857Y-154333333D01*
X143845238Y-154428571D01*
X143845238Y-154523809D01*
X144321428Y-154619047D01*
X143416666Y-154952380D02*
X143416666Y-154285714D01*
X143416666Y-153952380D02*
X143464285Y-154000000D01*
X143416666Y-154047619D01*
X143369047Y-154000000D01*
X143416666Y-153952380D01*
X143416666Y-154047619D01*
X142511904Y-154285714D02*
X142511904Y-155285714D01*
X142511904Y-154904761D02*
X142607142Y-154952380D01*
X142797619Y-154952380D01*
X142892857Y-154904761D01*
X142940476Y-154857142D01*
X142988095Y-154761904D01*
X142988095Y-154476190D01*
X142940476Y-154380952D01*
X142892857Y-154333333D01*
X142797619Y-154285714D01*
X142607142Y-154285714D01*
X142511904Y-154333333D01*
X141607142Y-154952380D02*
X141607142Y-154428571D01*
X141654761Y-154333333D01*
X141750000Y-154285714D01*
X141940476Y-154285714D01*
X142035714Y-154333333D01*
X141607142Y-154904761D02*
X141702380Y-154952380D01*
X141940476Y-154952380D01*
X142035714Y-154904761D01*
X142083333Y-154809523D01*
X142083333Y-154714285D01*
X142035714Y-154619047D01*
X141940476Y-154571428D01*
X141702380Y-154571428D01*
X141607142Y-154523809D01*
X141273809Y-154285714D02*
X140892857Y-154285714D01*
X141130952Y-153952380D02*
X141130952Y-154809523D01*
X141083333Y-154904761D01*
X140988095Y-154952380D01*
X140892857Y-154952380D01*
X139845238Y-154904761D02*
X139702380Y-154952380D01*
X139464285Y-154952380D01*
X139369047Y-154904761D01*
X139321428Y-154857142D01*
X139273809Y-154761904D01*
X139273809Y-154666666D01*
X139321428Y-154571428D01*
X139369047Y-154523809D01*
X139464285Y-154476190D01*
X139654761Y-154428571D01*
X139750000Y-154380952D01*
X139797619Y-154333333D01*
X139845238Y-154238095D01*
X139845238Y-154142857D01*
X139797619Y-154047619D01*
X139750000Y-154000000D01*
X139654761Y-153952380D01*
X139416666Y-153952380D01*
X139273809Y-154000000D01*
X138845238Y-154952380D02*
X138845238Y-153952380D01*
X138607142Y-153952380D01*
X138464285Y-154000000D01*
X138369047Y-154095238D01*
X138321428Y-154190476D01*
X138273809Y-154380952D01*
X138273809Y-154523809D01*
X138321428Y-154714285D01*
X138369047Y-154809523D01*
X138464285Y-154904761D01*
X138607142Y-154952380D01*
X138845238Y-154952380D01*
X137845238Y-154952380D02*
X137845238Y-153952380D01*
X137464285Y-153952380D01*
X137369047Y-154000000D01*
X137321428Y-154047619D01*
X137273809Y-154142857D01*
X137273809Y-154285714D01*
X137321428Y-154380952D01*
X137369047Y-154428571D01*
X137464285Y-154476190D01*
X137845238Y-154476190D01*
X136892857Y-154047619D02*
X136845238Y-154000000D01*
X136750000Y-153952380D01*
X136511904Y-153952380D01*
X136416666Y-154000000D01*
X136369047Y-154047619D01*
X136321428Y-154142857D01*
X136321428Y-154238095D01*
X136369047Y-154380952D01*
X136940476Y-154952380D01*
X136321428Y-154952380D01*
X135988095Y-153952380D02*
X135369047Y-153952380D01*
X135702380Y-154333333D01*
X135559523Y-154333333D01*
X135464285Y-154380952D01*
X135416666Y-154428571D01*
X135369047Y-154523809D01*
X135369047Y-154761904D01*
X135416666Y-154857142D01*
X135464285Y-154904761D01*
X135559523Y-154952380D01*
X135845238Y-154952380D01*
X135940476Y-154904761D01*
X135988095Y-154857142D01*
X134321428Y-153952380D02*
X133750000Y-153952380D01*
X134035714Y-154952380D02*
X134035714Y-153952380D01*
X133035714Y-154904761D02*
X133130952Y-154952380D01*
X133321428Y-154952380D01*
X133416666Y-154904761D01*
X133464285Y-154809523D01*
X133464285Y-154428571D01*
X133416666Y-154333333D01*
X133321428Y-154285714D01*
X133130952Y-154285714D01*
X133035714Y-154333333D01*
X132988095Y-154428571D01*
X132988095Y-154523809D01*
X133464285Y-154619047D01*
X132130952Y-154952380D02*
X132130952Y-154428571D01*
X132178571Y-154333333D01*
X132273809Y-154285714D01*
X132464285Y-154285714D01*
X132559523Y-154333333D01*
X132130952Y-154904761D02*
X132226190Y-154952380D01*
X132464285Y-154952380D01*
X132559523Y-154904761D01*
X132607142Y-154809523D01*
X132607142Y-154714285D01*
X132559523Y-154619047D01*
X132464285Y-154571428D01*
X132226190Y-154571428D01*
X132130952Y-154523809D01*
X131654761Y-154952380D02*
X131654761Y-154285714D01*
X131654761Y-154380952D02*
X131607142Y-154333333D01*
X131511904Y-154285714D01*
X131369047Y-154285714D01*
X131273809Y-154333333D01*
X131226190Y-154428571D01*
X131226190Y-154952380D01*
X131226190Y-154428571D02*
X131178571Y-154333333D01*
X131083333Y-154285714D01*
X130940476Y-154285714D01*
X130845238Y-154333333D01*
X130797619Y-154428571D01*
X130797619Y-154952380D01*
X129083333Y-153952380D02*
X129559523Y-153952380D01*
X129607142Y-154428571D01*
X129559523Y-154380952D01*
X129464285Y-154333333D01*
X129226190Y-154333333D01*
X129130952Y-154380952D01*
X129083333Y-154428571D01*
X129035714Y-154523809D01*
X129035714Y-154761904D01*
X129083333Y-154857142D01*
X129130952Y-154904761D01*
X129226190Y-154952380D01*
X129464285Y-154952380D01*
X129559523Y-154904761D01*
X129607142Y-154857142D01*
%TO.C,Qat*%
G36*
X159496088Y-124980018D02*
G01*
X159597181Y-125001120D01*
X159991295Y-125124774D01*
X160340019Y-125294775D01*
X160620014Y-125492055D01*
X160807940Y-125697547D01*
X160880456Y-125892180D01*
X160814222Y-126056889D01*
X160751694Y-126099227D01*
X160590073Y-126091195D01*
X160451747Y-125952247D01*
X160401368Y-125888501D01*
X160219169Y-125742881D01*
X159974980Y-125602096D01*
X159889627Y-125562158D01*
X159641123Y-125473824D01*
X159386111Y-125444857D01*
X159045074Y-125463395D01*
X158781701Y-125478462D01*
X158561731Y-125470896D01*
X158460255Y-125440187D01*
X158435558Y-125380735D01*
X158473961Y-125230469D01*
X158633832Y-125099886D01*
X158880555Y-125004364D01*
X159179512Y-124959282D01*
X159496088Y-124980018D01*
G37*
G36*
X167201011Y-131586402D02*
G01*
X167121999Y-132314299D01*
X167001525Y-133029672D01*
X166833840Y-133784910D01*
X166723211Y-134200282D01*
X166403350Y-135132686D01*
X166007580Y-135997363D01*
X165547533Y-136779811D01*
X165034840Y-137465528D01*
X164481134Y-138040011D01*
X163898045Y-138488758D01*
X163297208Y-138797266D01*
X162690252Y-138951033D01*
X162517802Y-138962961D01*
X162175585Y-138946316D01*
X161858650Y-138886748D01*
X161614903Y-138795021D01*
X161492248Y-138681896D01*
X161386501Y-138595442D01*
X161171532Y-138559333D01*
X161130457Y-138560048D01*
X160924845Y-138610717D01*
X160803354Y-138766723D01*
X160656298Y-138944033D01*
X160372108Y-139076422D01*
X159995079Y-139130388D01*
X159556250Y-139105246D01*
X159086663Y-139000313D01*
X158617358Y-138814904D01*
X158537933Y-138776179D01*
X158312697Y-138676172D01*
X158108050Y-138612713D01*
X157876521Y-138577572D01*
X157570640Y-138562521D01*
X157142935Y-138559333D01*
X157020506Y-138559467D01*
X156634585Y-138564244D01*
X156369946Y-138580582D01*
X156188329Y-138614846D01*
X156051478Y-138673402D01*
X155921134Y-138762615D01*
X155728570Y-138885432D01*
X155273504Y-139069621D01*
X154732333Y-139183223D01*
X154633923Y-139192738D01*
X154214317Y-139195133D01*
X153692950Y-139156995D01*
X153116301Y-139084879D01*
X152530847Y-138985337D01*
X151983065Y-138864924D01*
X151519434Y-138730192D01*
X150964773Y-138500957D01*
X150187624Y-138035910D01*
X149495783Y-137444404D01*
X148901609Y-136744495D01*
X148417464Y-135954239D01*
X148055708Y-135091692D01*
X147828701Y-134174912D01*
X147756186Y-133310000D01*
X148305775Y-133310000D01*
X148305991Y-133333710D01*
X148319652Y-133798989D01*
X148357095Y-134165990D01*
X148428630Y-134502304D01*
X148544566Y-134875521D01*
X148829905Y-135578094D01*
X149302831Y-136386763D01*
X149890387Y-137071317D01*
X150594656Y-137633681D01*
X151417722Y-138075777D01*
X152361667Y-138399528D01*
X152419245Y-138414265D01*
X152906071Y-138511031D01*
X153443795Y-138578193D01*
X153989251Y-138614006D01*
X154499271Y-138616726D01*
X154930688Y-138584607D01*
X155240333Y-138515904D01*
X155291985Y-138495616D01*
X155650152Y-138282700D01*
X155879300Y-138002333D01*
X155960000Y-137677157D01*
X155911517Y-137430432D01*
X155716999Y-137161034D01*
X155389277Y-136950168D01*
X154945095Y-136805009D01*
X154401197Y-136732732D01*
X153774328Y-136740512D01*
X153263600Y-136753631D01*
X152364079Y-136649742D01*
X151506365Y-136387197D01*
X150708384Y-135972290D01*
X149988061Y-135411312D01*
X149851390Y-135275891D01*
X149556290Y-134932500D01*
X149296995Y-134565613D01*
X149094818Y-134210703D01*
X148971074Y-133903244D01*
X148947075Y-133678711D01*
X148990612Y-133578767D01*
X149104088Y-133498763D01*
X149218902Y-133510988D01*
X149271333Y-133625835D01*
X149297499Y-133807293D01*
X149444954Y-134156660D01*
X149700597Y-134543129D01*
X150039479Y-134938791D01*
X150436649Y-135315737D01*
X150867159Y-135646061D01*
X151306058Y-135901853D01*
X151478873Y-135982213D01*
X151841984Y-136126818D01*
X152211649Y-136232282D01*
X152628531Y-136306763D01*
X153133294Y-136358418D01*
X153766601Y-136395402D01*
X154436498Y-136441308D01*
X154990769Y-136518545D01*
X155423595Y-136632041D01*
X155758508Y-136788037D01*
X156019042Y-136992775D01*
X156148194Y-137134572D01*
X156267165Y-137349280D01*
X156298667Y-137608025D01*
X156301787Y-137770914D01*
X156338509Y-137897651D01*
X156453484Y-137958381D01*
X156691484Y-137997492D01*
X156772091Y-138007700D01*
X157114660Y-138038807D01*
X157421934Y-138051333D01*
X157759566Y-138051333D01*
X157428364Y-137691500D01*
X157227693Y-137461378D01*
X156916886Y-137058189D01*
X156639817Y-136644962D01*
X156416783Y-136255298D01*
X156268078Y-135922797D01*
X156214000Y-135681061D01*
X156229972Y-135586414D01*
X156308586Y-135553837D01*
X156436096Y-135644870D01*
X156593695Y-135843934D01*
X156762579Y-136135454D01*
X156928541Y-136430888D01*
X157303831Y-136961860D01*
X157748320Y-137462236D01*
X158229190Y-137900278D01*
X158713623Y-138244249D01*
X159168801Y-138462411D01*
X159389491Y-138515589D01*
X159683228Y-138549723D01*
X159971743Y-138555400D01*
X160201266Y-138531873D01*
X160318030Y-138478393D01*
X160323837Y-138467134D01*
X160313588Y-138295906D01*
X160189698Y-138000327D01*
X159952033Y-137580122D01*
X159600457Y-137035021D01*
X159518963Y-136912868D01*
X159177409Y-136371912D01*
X158944834Y-135946601D01*
X158822854Y-135640175D01*
X158813085Y-135455877D01*
X158867635Y-135367649D01*
X158983067Y-135357423D01*
X159125434Y-135499389D01*
X159284685Y-135786500D01*
X159356514Y-135931394D01*
X159533953Y-136253882D01*
X159755508Y-136629033D01*
X159989391Y-137002022D01*
X160151741Y-137252697D01*
X160346187Y-137554236D01*
X160494804Y-137786238D01*
X160574333Y-137912503D01*
X160581905Y-137924386D01*
X160670527Y-137998476D01*
X160830084Y-138020201D01*
X161107680Y-137997026D01*
X161223275Y-137981610D01*
X161451234Y-137929508D01*
X161587788Y-137839120D01*
X161690185Y-137679211D01*
X161742667Y-137580371D01*
X161882640Y-137328507D01*
X162067215Y-137004591D01*
X162270509Y-136654333D01*
X162391785Y-136442772D01*
X162583091Y-136090314D01*
X162736500Y-135784724D01*
X162826846Y-135574833D01*
X162847784Y-135520935D01*
X162963135Y-135340634D01*
X163092433Y-135251995D01*
X163197794Y-135270088D01*
X163241333Y-135409978D01*
X163239241Y-135433815D01*
X163181609Y-135620602D01*
X163057334Y-135912063D01*
X162882957Y-136274872D01*
X162675023Y-136675701D01*
X162450074Y-137081225D01*
X162224653Y-137458118D01*
X162175505Y-137537400D01*
X161985891Y-137876705D01*
X161908663Y-138109782D01*
X161947408Y-138256838D01*
X162105711Y-138338085D01*
X162387159Y-138373732D01*
X162805877Y-138345923D01*
X163343208Y-138162606D01*
X163891058Y-137812796D01*
X164451531Y-137295393D01*
X164858759Y-136822410D01*
X165432264Y-135969505D01*
X165897943Y-135007417D01*
X166257530Y-133930528D01*
X166512757Y-132733224D01*
X166665357Y-131409888D01*
X166717065Y-129954905D01*
X166706310Y-129229956D01*
X166622295Y-127980969D01*
X166450504Y-126833342D01*
X166185591Y-125755790D01*
X165822211Y-124717026D01*
X165732262Y-124488670D01*
X165653925Y-124247568D01*
X165624230Y-124037693D01*
X165635845Y-123792896D01*
X165681437Y-123447026D01*
X165698443Y-123322157D01*
X165749938Y-122878998D01*
X165798013Y-122382136D01*
X165834102Y-121917394D01*
X165850376Y-121583434D01*
X165843769Y-121169746D01*
X165793325Y-120894730D01*
X165695193Y-120742082D01*
X165545521Y-120695494D01*
X165419649Y-120718518D01*
X165153746Y-120817950D01*
X164828123Y-120974923D01*
X164489354Y-121166391D01*
X164184009Y-121369303D01*
X163814352Y-121641295D01*
X164057009Y-121789260D01*
X164260562Y-121933427D01*
X164415036Y-122076944D01*
X164441037Y-122109511D01*
X164481370Y-122209834D01*
X164382654Y-122273360D01*
X164250100Y-122283560D01*
X164055618Y-122216110D01*
X163351621Y-121834790D01*
X162558271Y-121559688D01*
X161771737Y-121447566D01*
X161000893Y-121498670D01*
X160254617Y-121713244D01*
X159541783Y-122091533D01*
X159322549Y-122227867D01*
X159103684Y-122343536D01*
X158971966Y-122388000D01*
X158881840Y-122378213D01*
X158807716Y-122301888D01*
X158877330Y-122158484D01*
X159087899Y-121958318D01*
X159425179Y-121687272D01*
X159110756Y-121433517D01*
X159006393Y-121354047D01*
X158695316Y-121153559D01*
X158354235Y-120972171D01*
X158025503Y-120829137D01*
X157751475Y-120743711D01*
X157574505Y-120735147D01*
X157561086Y-120739785D01*
X157446106Y-120828879D01*
X157374326Y-121006116D01*
X157343465Y-121290927D01*
X157351242Y-121702745D01*
X157395376Y-122261000D01*
X157432187Y-122638985D01*
X157486222Y-123189954D01*
X157524911Y-123608816D01*
X157547071Y-123919025D01*
X157551517Y-124144039D01*
X157537065Y-124307310D01*
X157502531Y-124432295D01*
X157446732Y-124542448D01*
X157368482Y-124661225D01*
X157266599Y-124812080D01*
X157142674Y-124992784D01*
X156694447Y-125543822D01*
X156180638Y-126052879D01*
X155643218Y-126481208D01*
X155124154Y-126790062D01*
X154503280Y-127085791D01*
X154544244Y-127449223D01*
X154570229Y-127578868D01*
X154664262Y-127877817D01*
X154805980Y-128242662D01*
X154976271Y-128621540D01*
X155139380Y-128968806D01*
X155284257Y-129317113D01*
X155352759Y-129556935D01*
X155350436Y-129709548D01*
X155282841Y-129796226D01*
X155263143Y-129804982D01*
X155106843Y-129781370D01*
X154895520Y-129660968D01*
X154672327Y-129473271D01*
X154480421Y-129247776D01*
X154461961Y-129220546D01*
X154266830Y-128885781D01*
X154071531Y-128482041D01*
X153907486Y-128079244D01*
X153806117Y-127747310D01*
X153747033Y-127476287D01*
X153192519Y-127740717D01*
X153271023Y-128175858D01*
X153307664Y-128324122D01*
X153419833Y-128651474D01*
X153578211Y-129037535D01*
X153761029Y-129426736D01*
X153808213Y-129520922D01*
X154027130Y-129986152D01*
X154156634Y-130327272D01*
X154199832Y-130559078D01*
X154159831Y-130696371D01*
X154039739Y-130753948D01*
X153851048Y-130720861D01*
X153597420Y-130554331D01*
X153326316Y-130272673D01*
X153059779Y-129899310D01*
X152819852Y-129457667D01*
X152773916Y-129357660D01*
X152624926Y-129005803D01*
X152507502Y-128687971D01*
X152443818Y-128462833D01*
X152432140Y-128403207D01*
X152385478Y-128219377D01*
X152348040Y-128145333D01*
X152342941Y-128146024D01*
X152235275Y-128189458D01*
X152051066Y-128279711D01*
X151958910Y-128329946D01*
X151849522Y-128424845D01*
X151814843Y-128565276D01*
X151829469Y-128812292D01*
X151831600Y-128831807D01*
X151904707Y-129141485D01*
X152053586Y-129547293D01*
X152262866Y-130006867D01*
X152465101Y-130434739D01*
X152602410Y-130786091D01*
X152650930Y-131020989D01*
X152613164Y-131152410D01*
X152491613Y-131193333D01*
X152377492Y-131174233D01*
X152123314Y-131024613D01*
X151857250Y-130747033D01*
X151597494Y-130366257D01*
X151362240Y-129907047D01*
X151169685Y-129394167D01*
X151095781Y-129173358D01*
X151018700Y-128981616D01*
X150970371Y-128908147D01*
X150859617Y-128955958D01*
X150650968Y-129099770D01*
X150380128Y-129314182D01*
X150077106Y-129573446D01*
X149771912Y-129851810D01*
X149494555Y-130123525D01*
X149275046Y-130362840D01*
X149180416Y-130478677D01*
X148777151Y-131086952D01*
X148503564Y-131741504D01*
X148349743Y-132472474D01*
X148305775Y-133310000D01*
X147756186Y-133310000D01*
X147748804Y-133221955D01*
X147767067Y-132801507D01*
X147924227Y-131930300D01*
X148232342Y-131089499D01*
X148679309Y-130308126D01*
X149253025Y-129615201D01*
X149519709Y-129357586D01*
X149853705Y-129068943D01*
X150223652Y-128789054D01*
X150649543Y-128505453D01*
X151151376Y-128205675D01*
X151749147Y-127877255D01*
X152462851Y-127507728D01*
X153312485Y-127084629D01*
X153326791Y-127077600D01*
X154037561Y-126725204D01*
X154615382Y-126428746D01*
X155080716Y-126173557D01*
X155454029Y-125944968D01*
X155755786Y-125728311D01*
X156006450Y-125508916D01*
X156226487Y-125272115D01*
X156436360Y-125003239D01*
X156656535Y-124687618D01*
X157076014Y-124066237D01*
X156968261Y-123332952D01*
X156940937Y-123117269D01*
X156898348Y-122645396D01*
X156867863Y-122127031D01*
X156854754Y-121640736D01*
X156849000Y-120681805D01*
X157136492Y-120424417D01*
X157164335Y-120399681D01*
X157360836Y-120251575D01*
X157541366Y-120199914D01*
X157792135Y-120217490D01*
X157985214Y-120256899D01*
X158442578Y-120421023D01*
X158948472Y-120680225D01*
X159459495Y-121013778D01*
X159511612Y-121051717D01*
X159723465Y-121197750D01*
X159864470Y-121258542D01*
X159989727Y-121246941D01*
X160154333Y-121175795D01*
X160381704Y-121083592D01*
X160942845Y-120948031D01*
X161566036Y-120897448D01*
X162190269Y-120938941D01*
X162194947Y-120939639D01*
X162553124Y-121004163D01*
X162886213Y-121082682D01*
X163122667Y-121158358D01*
X163189070Y-121185724D01*
X163336885Y-121231247D01*
X163463599Y-121217216D01*
X163621078Y-121129191D01*
X163861189Y-120952729D01*
X164258993Y-120678437D01*
X164768483Y-120404468D01*
X165235295Y-120241092D01*
X165638046Y-120195240D01*
X165955357Y-120273843D01*
X166041964Y-120327146D01*
X166190626Y-120477457D01*
X166289946Y-120695489D01*
X166345570Y-121006114D01*
X166363146Y-121434204D01*
X166348319Y-122004628D01*
X166321695Y-122467211D01*
X166285279Y-122918945D01*
X166244016Y-123304900D01*
X166202708Y-123573333D01*
X166169808Y-123744881D01*
X166150455Y-123945627D01*
X166172718Y-124136475D01*
X166245000Y-124372588D01*
X166375701Y-124709129D01*
X166612120Y-125350088D01*
X166903897Y-126376424D01*
X167105156Y-127459564D01*
X167221271Y-128631276D01*
X167257616Y-129923333D01*
X167257133Y-129954905D01*
X167244311Y-130793596D01*
X167201011Y-131586402D01*
G37*
G36*
X164859918Y-125006678D02*
G01*
X165069827Y-125129698D01*
X165146333Y-125311500D01*
X165134883Y-125393025D01*
X165070602Y-125444758D01*
X164914787Y-125460144D01*
X164628907Y-125449456D01*
X164146359Y-125476028D01*
X163671887Y-125637843D01*
X163291711Y-125934990D01*
X163152734Y-126071888D01*
X163043732Y-126100618D01*
X162902667Y-126029495D01*
X162878113Y-126011183D01*
X162828403Y-125878858D01*
X162906312Y-125708377D01*
X163086163Y-125519168D01*
X163342281Y-125330657D01*
X163648989Y-125162272D01*
X163980609Y-125033439D01*
X164311465Y-124963587D01*
X164546018Y-124954698D01*
X164859918Y-125006678D01*
G37*
G36*
X162725325Y-127012425D02*
G01*
X162533196Y-127211027D01*
X162292491Y-127364602D01*
X162222149Y-127398974D01*
X162025426Y-127548502D01*
X161987100Y-127723542D01*
X162098439Y-127950457D01*
X162146771Y-128010734D01*
X162397868Y-128167648D01*
X162723471Y-128187544D01*
X163099905Y-128067651D01*
X163120135Y-128057869D01*
X163372286Y-127941956D01*
X163510332Y-127903057D01*
X163568245Y-127940051D01*
X163580000Y-128051819D01*
X163578498Y-128071573D01*
X163475457Y-128228992D01*
X163220167Y-128394989D01*
X162803240Y-128530001D01*
X162380032Y-128509334D01*
X161986451Y-128325431D01*
X161941266Y-128293394D01*
X161792615Y-128202955D01*
X161699196Y-128209555D01*
X161593946Y-128310675D01*
X161482272Y-128405392D01*
X161175621Y-128520258D01*
X160803521Y-128523244D01*
X160410693Y-128410574D01*
X160270170Y-128342952D01*
X160081450Y-128207296D01*
X160024000Y-128065427D01*
X160024081Y-128047443D01*
X160038368Y-127937239D01*
X160101014Y-127903965D01*
X160246044Y-127947891D01*
X160507481Y-128069290D01*
X160523520Y-128076970D01*
X160887925Y-128193126D01*
X161193841Y-128159556D01*
X161465487Y-127973846D01*
X161495160Y-127942842D01*
X161619706Y-127727822D01*
X161578478Y-127542531D01*
X161372641Y-127394237D01*
X161290618Y-127349840D01*
X161096687Y-127176682D01*
X160956558Y-126961222D01*
X160900658Y-126766329D01*
X161397080Y-126766329D01*
X161421708Y-126860876D01*
X161585007Y-126949648D01*
X161860773Y-126994318D01*
X162142754Y-126965709D01*
X162351626Y-126863589D01*
X162384201Y-126807185D01*
X162326020Y-126716487D01*
X162149396Y-126649844D01*
X161886667Y-126623926D01*
X161723391Y-126633415D01*
X161508667Y-126684889D01*
X161397080Y-126766329D01*
X160900658Y-126766329D01*
X160896675Y-126752441D01*
X160943481Y-126599319D01*
X160960193Y-126586971D01*
X161125224Y-126540252D01*
X161401729Y-126509090D01*
X161743043Y-126493653D01*
X162102499Y-126494111D01*
X162433432Y-126510630D01*
X162689176Y-126543381D01*
X162823064Y-126592531D01*
X162853418Y-126640853D01*
X162841399Y-126807185D01*
X162841270Y-126808974D01*
X162725325Y-127012425D01*
G37*
G36*
X95492878Y-124980018D02*
G01*
X95593971Y-125001120D01*
X95988085Y-125124774D01*
X96336809Y-125294775D01*
X96616804Y-125492055D01*
X96804730Y-125697547D01*
X96877246Y-125892180D01*
X96811012Y-126056889D01*
X96748484Y-126099227D01*
X96586863Y-126091195D01*
X96448537Y-125952247D01*
X96398158Y-125888501D01*
X96215959Y-125742881D01*
X95971770Y-125602096D01*
X95886417Y-125562158D01*
X95637913Y-125473824D01*
X95382901Y-125444857D01*
X95041864Y-125463395D01*
X94778491Y-125478462D01*
X94558521Y-125470896D01*
X94457045Y-125440187D01*
X94432348Y-125380735D01*
X94470751Y-125230469D01*
X94630622Y-125099886D01*
X94877345Y-125004364D01*
X95176302Y-124959282D01*
X95492878Y-124980018D01*
G37*
G36*
X100856708Y-125006678D02*
G01*
X101066617Y-125129698D01*
X101143123Y-125311500D01*
X101131673Y-125393025D01*
X101067392Y-125444758D01*
X100911577Y-125460144D01*
X100625697Y-125449456D01*
X100143149Y-125476028D01*
X99668677Y-125637843D01*
X99288501Y-125934990D01*
X99149524Y-126071888D01*
X99040522Y-126100618D01*
X98899457Y-126029495D01*
X98874903Y-126011183D01*
X98825193Y-125878858D01*
X98903102Y-125708377D01*
X99082953Y-125519168D01*
X99339071Y-125330657D01*
X99645779Y-125162272D01*
X99977399Y-125033439D01*
X100308255Y-124963587D01*
X100542808Y-124954698D01*
X100856708Y-125006678D01*
G37*
G36*
X103197801Y-131586402D02*
G01*
X103118789Y-132314299D01*
X102998315Y-133029672D01*
X102830630Y-133784910D01*
X102720001Y-134200282D01*
X102400140Y-135132686D01*
X102004370Y-135997363D01*
X101544323Y-136779811D01*
X101031630Y-137465528D01*
X100477924Y-138040011D01*
X99894835Y-138488758D01*
X99293998Y-138797266D01*
X98687042Y-138951033D01*
X98514592Y-138962961D01*
X98172375Y-138946316D01*
X97855440Y-138886748D01*
X97611693Y-138795021D01*
X97489038Y-138681896D01*
X97383291Y-138595442D01*
X97168322Y-138559333D01*
X97127247Y-138560048D01*
X96921635Y-138610717D01*
X96800144Y-138766723D01*
X96653088Y-138944033D01*
X96368898Y-139076422D01*
X95991869Y-139130388D01*
X95553040Y-139105246D01*
X95083453Y-139000313D01*
X94614148Y-138814904D01*
X94534723Y-138776179D01*
X94309487Y-138676172D01*
X94104840Y-138612713D01*
X93873311Y-138577572D01*
X93567430Y-138562521D01*
X93139725Y-138559333D01*
X93017296Y-138559467D01*
X92631375Y-138564244D01*
X92366736Y-138580582D01*
X92185119Y-138614846D01*
X92048268Y-138673402D01*
X91917924Y-138762615D01*
X91725360Y-138885432D01*
X91270294Y-139069621D01*
X90729123Y-139183223D01*
X90630713Y-139192738D01*
X90211107Y-139195133D01*
X89689740Y-139156995D01*
X89113091Y-139084879D01*
X88527637Y-138985337D01*
X87979855Y-138864924D01*
X87516224Y-138730192D01*
X86961563Y-138500957D01*
X86184414Y-138035910D01*
X85492573Y-137444404D01*
X84898399Y-136744495D01*
X84414254Y-135954239D01*
X84052498Y-135091692D01*
X83825491Y-134174912D01*
X83752976Y-133310000D01*
X84302565Y-133310000D01*
X84302781Y-133333710D01*
X84316442Y-133798989D01*
X84353885Y-134165990D01*
X84425420Y-134502304D01*
X84541356Y-134875521D01*
X84826695Y-135578094D01*
X85299621Y-136386763D01*
X85887177Y-137071317D01*
X86591446Y-137633681D01*
X87414512Y-138075777D01*
X88358457Y-138399528D01*
X88416035Y-138414265D01*
X88902861Y-138511031D01*
X89440585Y-138578193D01*
X89986041Y-138614006D01*
X90496061Y-138616726D01*
X90927478Y-138584607D01*
X91237123Y-138515904D01*
X91288775Y-138495616D01*
X91646942Y-138282700D01*
X91876090Y-138002333D01*
X91956790Y-137677157D01*
X91908307Y-137430432D01*
X91713789Y-137161034D01*
X91386067Y-136950168D01*
X90941885Y-136805009D01*
X90397987Y-136732732D01*
X89771118Y-136740512D01*
X89260390Y-136753631D01*
X88360869Y-136649742D01*
X87503155Y-136387197D01*
X86705174Y-135972290D01*
X85984851Y-135411312D01*
X85848180Y-135275891D01*
X85553080Y-134932500D01*
X85293785Y-134565613D01*
X85091608Y-134210703D01*
X84967864Y-133903244D01*
X84943865Y-133678711D01*
X84987402Y-133578767D01*
X85100878Y-133498763D01*
X85215692Y-133510988D01*
X85268123Y-133625835D01*
X85294289Y-133807293D01*
X85441744Y-134156660D01*
X85697387Y-134543129D01*
X86036269Y-134938791D01*
X86433439Y-135315737D01*
X86863949Y-135646061D01*
X87302848Y-135901853D01*
X87475663Y-135982213D01*
X87838774Y-136126818D01*
X88208439Y-136232282D01*
X88625321Y-136306763D01*
X89130084Y-136358418D01*
X89763391Y-136395402D01*
X90433288Y-136441308D01*
X90987559Y-136518545D01*
X91420385Y-136632041D01*
X91755298Y-136788037D01*
X92015832Y-136992775D01*
X92144984Y-137134572D01*
X92263955Y-137349280D01*
X92295457Y-137608025D01*
X92298577Y-137770914D01*
X92335299Y-137897651D01*
X92450274Y-137958381D01*
X92688274Y-137997492D01*
X92768881Y-138007700D01*
X93111450Y-138038807D01*
X93418724Y-138051333D01*
X93756356Y-138051333D01*
X93425154Y-137691500D01*
X93224483Y-137461378D01*
X92913676Y-137058189D01*
X92636607Y-136644962D01*
X92413573Y-136255298D01*
X92264868Y-135922797D01*
X92210790Y-135681061D01*
X92226762Y-135586414D01*
X92305376Y-135553837D01*
X92432886Y-135644870D01*
X92590485Y-135843934D01*
X92759369Y-136135454D01*
X92925331Y-136430888D01*
X93300621Y-136961860D01*
X93745110Y-137462236D01*
X94225980Y-137900278D01*
X94710413Y-138244249D01*
X95165591Y-138462411D01*
X95386281Y-138515589D01*
X95680018Y-138549723D01*
X95968533Y-138555400D01*
X96198056Y-138531873D01*
X96314820Y-138478393D01*
X96320627Y-138467134D01*
X96310378Y-138295906D01*
X96186488Y-138000327D01*
X95948823Y-137580122D01*
X95597247Y-137035021D01*
X95515753Y-136912868D01*
X95174199Y-136371912D01*
X94941624Y-135946601D01*
X94819644Y-135640175D01*
X94809875Y-135455877D01*
X94864425Y-135367649D01*
X94979857Y-135357423D01*
X95122224Y-135499389D01*
X95281475Y-135786500D01*
X95353304Y-135931394D01*
X95530743Y-136253882D01*
X95752298Y-136629033D01*
X95986181Y-137002022D01*
X96148531Y-137252697D01*
X96342977Y-137554236D01*
X96491594Y-137786238D01*
X96571123Y-137912503D01*
X96578695Y-137924386D01*
X96667317Y-137998476D01*
X96826874Y-138020201D01*
X97104470Y-137997026D01*
X97220065Y-137981610D01*
X97448024Y-137929508D01*
X97584578Y-137839120D01*
X97686975Y-137679211D01*
X97739457Y-137580371D01*
X97879430Y-137328507D01*
X98064005Y-137004591D01*
X98267299Y-136654333D01*
X98388575Y-136442772D01*
X98579881Y-136090314D01*
X98733290Y-135784724D01*
X98823636Y-135574833D01*
X98844574Y-135520935D01*
X98959925Y-135340634D01*
X99089223Y-135251995D01*
X99194584Y-135270088D01*
X99238123Y-135409978D01*
X99236031Y-135433815D01*
X99178399Y-135620602D01*
X99054124Y-135912063D01*
X98879747Y-136274872D01*
X98671813Y-136675701D01*
X98446864Y-137081225D01*
X98221443Y-137458118D01*
X98172295Y-137537400D01*
X97982681Y-137876705D01*
X97905453Y-138109782D01*
X97944198Y-138256838D01*
X98102501Y-138338085D01*
X98383949Y-138373732D01*
X98802667Y-138345923D01*
X99339998Y-138162606D01*
X99887848Y-137812796D01*
X100448321Y-137295393D01*
X100855549Y-136822410D01*
X101429054Y-135969505D01*
X101894733Y-135007417D01*
X102254320Y-133930528D01*
X102509547Y-132733224D01*
X102662147Y-131409888D01*
X102713855Y-129954905D01*
X102703100Y-129229956D01*
X102619085Y-127980969D01*
X102447294Y-126833342D01*
X102182381Y-125755790D01*
X101819001Y-124717026D01*
X101729052Y-124488670D01*
X101650715Y-124247568D01*
X101621020Y-124037693D01*
X101632635Y-123792896D01*
X101678227Y-123447026D01*
X101695233Y-123322157D01*
X101746728Y-122878998D01*
X101794803Y-122382136D01*
X101830892Y-121917394D01*
X101847166Y-121583434D01*
X101840559Y-121169746D01*
X101790115Y-120894730D01*
X101691983Y-120742082D01*
X101542311Y-120695494D01*
X101416439Y-120718518D01*
X101150536Y-120817950D01*
X100824913Y-120974923D01*
X100486144Y-121166391D01*
X100180799Y-121369303D01*
X99811142Y-121641295D01*
X100053799Y-121789260D01*
X100257352Y-121933427D01*
X100411826Y-122076944D01*
X100437827Y-122109511D01*
X100478160Y-122209834D01*
X100379444Y-122273360D01*
X100246890Y-122283560D01*
X100052408Y-122216110D01*
X99348411Y-121834790D01*
X98555061Y-121559688D01*
X97768527Y-121447566D01*
X96997683Y-121498670D01*
X96251407Y-121713244D01*
X95538573Y-122091533D01*
X95319339Y-122227867D01*
X95100474Y-122343536D01*
X94968756Y-122388000D01*
X94878630Y-122378213D01*
X94804506Y-122301888D01*
X94874120Y-122158484D01*
X95084689Y-121958318D01*
X95421969Y-121687272D01*
X95107546Y-121433517D01*
X95003183Y-121354047D01*
X94692106Y-121153559D01*
X94351025Y-120972171D01*
X94022293Y-120829137D01*
X93748265Y-120743711D01*
X93571295Y-120735147D01*
X93557876Y-120739785D01*
X93442896Y-120828879D01*
X93371116Y-121006116D01*
X93340255Y-121290927D01*
X93348032Y-121702745D01*
X93392166Y-122261000D01*
X93428977Y-122638985D01*
X93483012Y-123189954D01*
X93521701Y-123608816D01*
X93543861Y-123919025D01*
X93548307Y-124144039D01*
X93533855Y-124307310D01*
X93499321Y-124432295D01*
X93443522Y-124542448D01*
X93365272Y-124661225D01*
X93263389Y-124812080D01*
X93139464Y-124992784D01*
X92691237Y-125543822D01*
X92177428Y-126052879D01*
X91640008Y-126481208D01*
X91120944Y-126790062D01*
X90500070Y-127085791D01*
X90541034Y-127449223D01*
X90567019Y-127578868D01*
X90661052Y-127877817D01*
X90802770Y-128242662D01*
X90973061Y-128621540D01*
X91136170Y-128968806D01*
X91281047Y-129317113D01*
X91349549Y-129556935D01*
X91347226Y-129709548D01*
X91279631Y-129796226D01*
X91259933Y-129804982D01*
X91103633Y-129781370D01*
X90892310Y-129660968D01*
X90669117Y-129473271D01*
X90477211Y-129247776D01*
X90458751Y-129220546D01*
X90263620Y-128885781D01*
X90068321Y-128482041D01*
X89904276Y-128079244D01*
X89802907Y-127747310D01*
X89743823Y-127476287D01*
X89189309Y-127740717D01*
X89267813Y-128175858D01*
X89304454Y-128324122D01*
X89416623Y-128651474D01*
X89575001Y-129037535D01*
X89757819Y-129426736D01*
X89805003Y-129520922D01*
X90023920Y-129986152D01*
X90153424Y-130327272D01*
X90196622Y-130559078D01*
X90156621Y-130696371D01*
X90036529Y-130753948D01*
X89847838Y-130720861D01*
X89594210Y-130554331D01*
X89323106Y-130272673D01*
X89056569Y-129899310D01*
X88816642Y-129457667D01*
X88770706Y-129357660D01*
X88621716Y-129005803D01*
X88504292Y-128687971D01*
X88440608Y-128462833D01*
X88428930Y-128403207D01*
X88382268Y-128219377D01*
X88344830Y-128145333D01*
X88339731Y-128146024D01*
X88232065Y-128189458D01*
X88047856Y-128279711D01*
X87955700Y-128329946D01*
X87846312Y-128424845D01*
X87811633Y-128565276D01*
X87826259Y-128812292D01*
X87828390Y-128831807D01*
X87901497Y-129141485D01*
X88050376Y-129547293D01*
X88259656Y-130006867D01*
X88461891Y-130434739D01*
X88599200Y-130786091D01*
X88647720Y-131020989D01*
X88609954Y-131152410D01*
X88488403Y-131193333D01*
X88374282Y-131174233D01*
X88120104Y-131024613D01*
X87854040Y-130747033D01*
X87594284Y-130366257D01*
X87359030Y-129907047D01*
X87166475Y-129394167D01*
X87092571Y-129173358D01*
X87015490Y-128981616D01*
X86967161Y-128908147D01*
X86856407Y-128955958D01*
X86647758Y-129099770D01*
X86376918Y-129314182D01*
X86073896Y-129573446D01*
X85768702Y-129851810D01*
X85491345Y-130123525D01*
X85271836Y-130362840D01*
X85177206Y-130478677D01*
X84773941Y-131086952D01*
X84500354Y-131741504D01*
X84346533Y-132472474D01*
X84302565Y-133310000D01*
X83752976Y-133310000D01*
X83745594Y-133221955D01*
X83763857Y-132801507D01*
X83921017Y-131930300D01*
X84229132Y-131089499D01*
X84676099Y-130308126D01*
X85249815Y-129615201D01*
X85516499Y-129357586D01*
X85850495Y-129068943D01*
X86220442Y-128789054D01*
X86646333Y-128505453D01*
X87148166Y-128205675D01*
X87745937Y-127877255D01*
X88459641Y-127507728D01*
X89309275Y-127084629D01*
X89323581Y-127077600D01*
X90034351Y-126725204D01*
X90612172Y-126428746D01*
X91077506Y-126173557D01*
X91450819Y-125944968D01*
X91752576Y-125728311D01*
X92003240Y-125508916D01*
X92223277Y-125272115D01*
X92433150Y-125003239D01*
X92653325Y-124687618D01*
X93072804Y-124066237D01*
X92965051Y-123332952D01*
X92937727Y-123117269D01*
X92895138Y-122645396D01*
X92864653Y-122127031D01*
X92851544Y-121640736D01*
X92845790Y-120681805D01*
X93133282Y-120424417D01*
X93161125Y-120399681D01*
X93357626Y-120251575D01*
X93538156Y-120199914D01*
X93788925Y-120217490D01*
X93982004Y-120256899D01*
X94439368Y-120421023D01*
X94945262Y-120680225D01*
X95456285Y-121013778D01*
X95508402Y-121051717D01*
X95720255Y-121197750D01*
X95861260Y-121258542D01*
X95986517Y-121246941D01*
X96151123Y-121175795D01*
X96378494Y-121083592D01*
X96939635Y-120948031D01*
X97562826Y-120897448D01*
X98187059Y-120938941D01*
X98191737Y-120939639D01*
X98549914Y-121004163D01*
X98883003Y-121082682D01*
X99119457Y-121158358D01*
X99185860Y-121185724D01*
X99333675Y-121231247D01*
X99460389Y-121217216D01*
X99617868Y-121129191D01*
X99857979Y-120952729D01*
X100255783Y-120678437D01*
X100765273Y-120404468D01*
X101232085Y-120241092D01*
X101634836Y-120195240D01*
X101952147Y-120273843D01*
X102038754Y-120327146D01*
X102187416Y-120477457D01*
X102286736Y-120695489D01*
X102342360Y-121006114D01*
X102359936Y-121434204D01*
X102345109Y-122004628D01*
X102318485Y-122467211D01*
X102282069Y-122918945D01*
X102240806Y-123304900D01*
X102199498Y-123573333D01*
X102166598Y-123744881D01*
X102147245Y-123945627D01*
X102169508Y-124136475D01*
X102241790Y-124372588D01*
X102372491Y-124709129D01*
X102608910Y-125350088D01*
X102900687Y-126376424D01*
X103101946Y-127459564D01*
X103218061Y-128631276D01*
X103254406Y-129923333D01*
X103253923Y-129954905D01*
X103241101Y-130793596D01*
X103197801Y-131586402D01*
G37*
G36*
X98722115Y-127012425D02*
G01*
X98529986Y-127211027D01*
X98289281Y-127364602D01*
X98218939Y-127398974D01*
X98022216Y-127548502D01*
X97983890Y-127723542D01*
X98095229Y-127950457D01*
X98143561Y-128010734D01*
X98394658Y-128167648D01*
X98720261Y-128187544D01*
X99096695Y-128067651D01*
X99116925Y-128057869D01*
X99369076Y-127941956D01*
X99507122Y-127903057D01*
X99565035Y-127940051D01*
X99576790Y-128051819D01*
X99575288Y-128071573D01*
X99472247Y-128228992D01*
X99216957Y-128394989D01*
X98800030Y-128530001D01*
X98376822Y-128509334D01*
X97983241Y-128325431D01*
X97938056Y-128293394D01*
X97789405Y-128202955D01*
X97695986Y-128209555D01*
X97590736Y-128310675D01*
X97479062Y-128405392D01*
X97172411Y-128520258D01*
X96800311Y-128523244D01*
X96407483Y-128410574D01*
X96266960Y-128342952D01*
X96078240Y-128207296D01*
X96020790Y-128065427D01*
X96020871Y-128047443D01*
X96035158Y-127937239D01*
X96097804Y-127903965D01*
X96242834Y-127947891D01*
X96504271Y-128069290D01*
X96520310Y-128076970D01*
X96884715Y-128193126D01*
X97190631Y-128159556D01*
X97462277Y-127973846D01*
X97491950Y-127942842D01*
X97616496Y-127727822D01*
X97575268Y-127542531D01*
X97369431Y-127394237D01*
X97287408Y-127349840D01*
X97093477Y-127176682D01*
X96953348Y-126961222D01*
X96897448Y-126766329D01*
X97393870Y-126766329D01*
X97418498Y-126860876D01*
X97581797Y-126949648D01*
X97857563Y-126994318D01*
X98139544Y-126965709D01*
X98348416Y-126863589D01*
X98380991Y-126807185D01*
X98322810Y-126716487D01*
X98146186Y-126649844D01*
X97883457Y-126623926D01*
X97720181Y-126633415D01*
X97505457Y-126684889D01*
X97393870Y-126766329D01*
X96897448Y-126766329D01*
X96893465Y-126752441D01*
X96940271Y-126599319D01*
X96956983Y-126586971D01*
X97122014Y-126540252D01*
X97398519Y-126509090D01*
X97739833Y-126493653D01*
X98099289Y-126494111D01*
X98430222Y-126510630D01*
X98685966Y-126543381D01*
X98819854Y-126592531D01*
X98850208Y-126640853D01*
X98838189Y-126807185D01*
X98838060Y-126808974D01*
X98722115Y-127012425D01*
G37*
%TD*%
M02*
