%TF.GenerationSoftware,KiCad,Pcbnew,(6.0.9)*%
%TF.CreationDate,2022-12-13T14:47:18-05:00*%
%TF.ProjectId,Coaster_PCB_CDR,436f6173-7465-4725-9f50-43425f434452,rev?*%
%TF.SameCoordinates,Original*%
%TF.FileFunction,Legend,Top*%
%TF.FilePolarity,Positive*%
%FSLAX46Y46*%
G04 Gerber Fmt 4.6, Leading zero omitted, Abs format (unit mm)*
G04 Created by KiCad (PCBNEW (6.0.9)) date 2022-12-13 14:47:18*
%MOMM*%
%LPD*%
G01*
G04 APERTURE LIST*
%ADD10C,0.150000*%
%ADD11C,0.175000*%
%ADD12C,0.250000*%
%ADD13C,0.120000*%
%ADD14C,0.100000*%
G04 APERTURE END LIST*
D10*
X143043722Y-64390592D02*
X142962910Y-64417529D01*
X142882097Y-64498341D01*
X142828223Y-64606091D01*
X142828223Y-64713841D01*
X142855160Y-64794653D01*
X142935972Y-64929340D01*
X143016784Y-65010152D01*
X143151471Y-65090964D01*
X143232284Y-65117902D01*
X143340033Y-65117902D01*
X143447783Y-65064027D01*
X143501658Y-65010152D01*
X143555532Y-64902402D01*
X143555532Y-64848528D01*
X143366971Y-64659966D01*
X143259221Y-64767715D01*
X143851844Y-64659966D02*
X143286158Y-64094280D01*
X143501658Y-63878781D01*
X143582470Y-63851844D01*
X143636345Y-63851844D01*
X143717157Y-63878781D01*
X143797969Y-63959593D01*
X143824906Y-64040406D01*
X143824906Y-64094280D01*
X143797969Y-64175093D01*
X143582470Y-64390592D01*
X143878781Y-63609407D02*
X143878781Y-63555532D01*
X143905719Y-63474720D01*
X144040406Y-63340033D01*
X144121218Y-63313096D01*
X144175093Y-63313096D01*
X144255905Y-63340033D01*
X144309780Y-63393908D01*
X144363654Y-63501658D01*
X144363654Y-64148155D01*
X144713841Y-63797969D01*
X144633028Y-62747410D02*
X144525279Y-62855160D01*
X144498341Y-62935972D01*
X144498341Y-62989847D01*
X144525279Y-63124534D01*
X144606091Y-63259221D01*
X144821590Y-63474720D01*
X144902402Y-63501658D01*
X144956277Y-63501658D01*
X145037089Y-63474720D01*
X145144839Y-63366971D01*
X145171776Y-63286158D01*
X145171776Y-63232284D01*
X145144839Y-63151471D01*
X145010152Y-63016784D01*
X144929340Y-62989847D01*
X144875465Y-62989847D01*
X144794653Y-63016784D01*
X144686903Y-63124534D01*
X144659966Y-63205346D01*
X144659966Y-63259221D01*
X144686903Y-63340033D01*
X138293722Y-64390592D02*
X138212910Y-64417529D01*
X138132097Y-64498341D01*
X138078223Y-64606091D01*
X138078223Y-64713841D01*
X138105160Y-64794653D01*
X138185972Y-64929340D01*
X138266784Y-65010152D01*
X138401471Y-65090964D01*
X138482284Y-65117902D01*
X138590033Y-65117902D01*
X138697783Y-65064027D01*
X138751658Y-65010152D01*
X138805532Y-64902402D01*
X138805532Y-64848528D01*
X138616971Y-64659966D01*
X138509221Y-64767715D01*
X139101844Y-64659966D02*
X138536158Y-64094280D01*
X138751658Y-63878781D01*
X138832470Y-63851844D01*
X138886345Y-63851844D01*
X138967157Y-63878781D01*
X139047969Y-63959593D01*
X139074906Y-64040406D01*
X139074906Y-64094280D01*
X139047969Y-64175093D01*
X138832470Y-64390592D01*
X139963841Y-63797969D02*
X139640592Y-64121218D01*
X139802216Y-63959593D02*
X139236531Y-63393908D01*
X139263468Y-63528595D01*
X139263468Y-63636345D01*
X139236531Y-63717157D01*
X139586717Y-63043722D02*
X139963841Y-62666598D01*
X140287089Y-63474720D01*
D11*
X147466666Y-80150000D02*
X147400000Y-80116666D01*
X147300000Y-80116666D01*
X147200000Y-80150000D01*
X147133333Y-80216666D01*
X147100000Y-80283333D01*
X147066666Y-80416666D01*
X147066666Y-80516666D01*
X147100000Y-80650000D01*
X147133333Y-80716666D01*
X147200000Y-80783333D01*
X147300000Y-80816666D01*
X147366666Y-80816666D01*
X147466666Y-80783333D01*
X147500000Y-80750000D01*
X147500000Y-80516666D01*
X147366666Y-80516666D01*
X147800000Y-80816666D02*
X147800000Y-80116666D01*
X148200000Y-80816666D01*
X148200000Y-80116666D01*
X148533333Y-80816666D02*
X148533333Y-80116666D01*
X148700000Y-80116666D01*
X148800000Y-80150000D01*
X148866666Y-80216666D01*
X148900000Y-80283333D01*
X148933333Y-80416666D01*
X148933333Y-80516666D01*
X148900000Y-80650000D01*
X148866666Y-80716666D01*
X148800000Y-80783333D01*
X148700000Y-80816666D01*
X148533333Y-80816666D01*
D10*
X105063096Y-64371218D02*
X104982284Y-64398155D01*
X104901471Y-64478967D01*
X104847597Y-64586717D01*
X104847597Y-64694467D01*
X104874534Y-64775279D01*
X104955346Y-64909966D01*
X105036158Y-64990778D01*
X105170845Y-65071590D01*
X105251658Y-65098528D01*
X105359407Y-65098528D01*
X105467157Y-65044653D01*
X105521032Y-64990778D01*
X105574906Y-64883028D01*
X105574906Y-64829154D01*
X105386345Y-64640592D01*
X105278595Y-64748341D01*
X105871218Y-64640592D02*
X105305532Y-64074906D01*
X105521032Y-63859407D01*
X105601844Y-63832470D01*
X105655719Y-63832470D01*
X105736531Y-63859407D01*
X105817343Y-63940219D01*
X105844280Y-64021032D01*
X105844280Y-64074906D01*
X105817343Y-64155719D01*
X105601844Y-64371218D01*
X105978967Y-63401471D02*
X106032842Y-63347597D01*
X106113654Y-63320659D01*
X106167529Y-63320659D01*
X106248341Y-63347597D01*
X106383028Y-63428409D01*
X106517715Y-63563096D01*
X106598528Y-63697783D01*
X106625465Y-63778595D01*
X106625465Y-63832470D01*
X106598528Y-63913282D01*
X106544653Y-63967157D01*
X106463841Y-63994094D01*
X106409966Y-63994094D01*
X106329154Y-63967157D01*
X106194467Y-63886345D01*
X106059780Y-63751658D01*
X105978967Y-63616971D01*
X105952030Y-63536158D01*
X105952030Y-63482284D01*
X105978967Y-63401471D01*
X133043722Y-64390592D02*
X132962910Y-64417529D01*
X132882097Y-64498341D01*
X132828223Y-64606091D01*
X132828223Y-64713841D01*
X132855160Y-64794653D01*
X132935972Y-64929340D01*
X133016784Y-65010152D01*
X133151471Y-65090964D01*
X133232284Y-65117902D01*
X133340033Y-65117902D01*
X133447783Y-65064027D01*
X133501658Y-65010152D01*
X133555532Y-64902402D01*
X133555532Y-64848528D01*
X133366971Y-64659966D01*
X133259221Y-64767715D01*
X133851844Y-64659966D02*
X133286158Y-64094280D01*
X133501658Y-63878781D01*
X133582470Y-63851844D01*
X133636345Y-63851844D01*
X133717157Y-63878781D01*
X133797969Y-63959593D01*
X133824906Y-64040406D01*
X133824906Y-64094280D01*
X133797969Y-64175093D01*
X133582470Y-64390592D01*
X134713841Y-63797969D02*
X134390592Y-64121218D01*
X134552216Y-63959593D02*
X133986531Y-63393908D01*
X134013468Y-63528595D01*
X134013468Y-63636345D01*
X133986531Y-63717157D01*
X134659966Y-62720473D02*
X134390592Y-62989847D01*
X134633028Y-63286158D01*
X134633028Y-63232284D01*
X134659966Y-63151471D01*
X134794653Y-63016784D01*
X134875465Y-62989847D01*
X134929340Y-62989847D01*
X135010152Y-63016784D01*
X135144839Y-63151471D01*
X135171776Y-63232284D01*
X135171776Y-63286158D01*
X135144839Y-63366971D01*
X135010152Y-63501658D01*
X134929340Y-63528595D01*
X134875465Y-63528595D01*
D12*
X129273809Y-153952380D02*
X129464285Y-153952380D01*
X129559523Y-154000000D01*
X129654761Y-154095238D01*
X129702380Y-154285714D01*
X129702380Y-154619047D01*
X129654761Y-154809523D01*
X129559523Y-154904761D01*
X129464285Y-154952380D01*
X129273809Y-154952380D01*
X129178571Y-154904761D01*
X129083333Y-154809523D01*
X129035714Y-154619047D01*
X129035714Y-154285714D01*
X129083333Y-154095238D01*
X129178571Y-154000000D01*
X129273809Y-153952380D01*
X130130952Y-154952380D02*
X130130952Y-154285714D01*
X130130952Y-154380952D02*
X130178571Y-154333333D01*
X130273809Y-154285714D01*
X130416666Y-154285714D01*
X130511904Y-154333333D01*
X130559523Y-154428571D01*
X130559523Y-154952380D01*
X130559523Y-154428571D02*
X130607142Y-154333333D01*
X130702380Y-154285714D01*
X130845238Y-154285714D01*
X130940476Y-154333333D01*
X130988095Y-154428571D01*
X130988095Y-154952380D01*
X131892857Y-154952380D02*
X131892857Y-154428571D01*
X131845238Y-154333333D01*
X131750000Y-154285714D01*
X131559523Y-154285714D01*
X131464285Y-154333333D01*
X131892857Y-154904761D02*
X131797619Y-154952380D01*
X131559523Y-154952380D01*
X131464285Y-154904761D01*
X131416666Y-154809523D01*
X131416666Y-154714285D01*
X131464285Y-154619047D01*
X131559523Y-154571428D01*
X131797619Y-154571428D01*
X131892857Y-154523809D01*
X132369047Y-154952380D02*
X132369047Y-154285714D01*
X132369047Y-154476190D02*
X132416666Y-154380952D01*
X132464285Y-154333333D01*
X132559523Y-154285714D01*
X132654761Y-154285714D01*
X133702380Y-154666666D02*
X134178571Y-154666666D01*
X133607142Y-154952380D02*
X133940476Y-153952380D01*
X134273809Y-154952380D01*
X134607142Y-154952380D02*
X134607142Y-154285714D01*
X134607142Y-154476190D02*
X134654761Y-154380952D01*
X134702380Y-154333333D01*
X134797619Y-154285714D01*
X134892857Y-154285714D01*
X135607142Y-154904761D02*
X135511904Y-154952380D01*
X135321428Y-154952380D01*
X135226190Y-154904761D01*
X135178571Y-154809523D01*
X135178571Y-154428571D01*
X135226190Y-154333333D01*
X135321428Y-154285714D01*
X135511904Y-154285714D01*
X135607142Y-154333333D01*
X135654761Y-154428571D01*
X135654761Y-154523809D01*
X135178571Y-154619047D01*
X136083333Y-154952380D02*
X136083333Y-154285714D01*
X136083333Y-153952380D02*
X136035714Y-154000000D01*
X136083333Y-154047619D01*
X136130952Y-154000000D01*
X136083333Y-153952380D01*
X136083333Y-154047619D01*
X136988095Y-154285714D02*
X136988095Y-155285714D01*
X136988095Y-154904761D02*
X136892857Y-154952380D01*
X136702380Y-154952380D01*
X136607142Y-154904761D01*
X136559523Y-154857142D01*
X136511904Y-154761904D01*
X136511904Y-154476190D01*
X136559523Y-154380952D01*
X136607142Y-154333333D01*
X136702380Y-154285714D01*
X136892857Y-154285714D01*
X136988095Y-154333333D01*
X137892857Y-154952380D02*
X137892857Y-154428571D01*
X137845238Y-154333333D01*
X137750000Y-154285714D01*
X137559523Y-154285714D01*
X137464285Y-154333333D01*
X137892857Y-154904761D02*
X137797619Y-154952380D01*
X137559523Y-154952380D01*
X137464285Y-154904761D01*
X137416666Y-154809523D01*
X137416666Y-154714285D01*
X137464285Y-154619047D01*
X137559523Y-154571428D01*
X137797619Y-154571428D01*
X137892857Y-154523809D01*
X138226190Y-154285714D02*
X138607142Y-154285714D01*
X138369047Y-153952380D02*
X138369047Y-154809523D01*
X138416666Y-154904761D01*
X138511904Y-154952380D01*
X138607142Y-154952380D01*
X139654761Y-154904761D02*
X139797619Y-154952380D01*
X140035714Y-154952380D01*
X140130952Y-154904761D01*
X140178571Y-154857142D01*
X140226190Y-154761904D01*
X140226190Y-154666666D01*
X140178571Y-154571428D01*
X140130952Y-154523809D01*
X140035714Y-154476190D01*
X139845238Y-154428571D01*
X139750000Y-154380952D01*
X139702380Y-154333333D01*
X139654761Y-154238095D01*
X139654761Y-154142857D01*
X139702380Y-154047619D01*
X139750000Y-154000000D01*
X139845238Y-153952380D01*
X140083333Y-153952380D01*
X140226190Y-154000000D01*
X140654761Y-154952380D02*
X140654761Y-153952380D01*
X140892857Y-153952380D01*
X141035714Y-154000000D01*
X141130952Y-154095238D01*
X141178571Y-154190476D01*
X141226190Y-154380952D01*
X141226190Y-154523809D01*
X141178571Y-154714285D01*
X141130952Y-154809523D01*
X141035714Y-154904761D01*
X140892857Y-154952380D01*
X140654761Y-154952380D01*
X141654761Y-154952380D02*
X141654761Y-153952380D01*
X142035714Y-153952380D01*
X142130952Y-154000000D01*
X142178571Y-154047619D01*
X142226190Y-154142857D01*
X142226190Y-154285714D01*
X142178571Y-154380952D01*
X142130952Y-154428571D01*
X142035714Y-154476190D01*
X141654761Y-154476190D01*
X142607142Y-154047619D02*
X142654761Y-154000000D01*
X142750000Y-153952380D01*
X142988095Y-153952380D01*
X143083333Y-154000000D01*
X143130952Y-154047619D01*
X143178571Y-154142857D01*
X143178571Y-154238095D01*
X143130952Y-154380952D01*
X142559523Y-154952380D01*
X143178571Y-154952380D01*
X143511904Y-153952380D02*
X144130952Y-153952380D01*
X143797619Y-154333333D01*
X143940476Y-154333333D01*
X144035714Y-154380952D01*
X144083333Y-154428571D01*
X144130952Y-154523809D01*
X144130952Y-154761904D01*
X144083333Y-154857142D01*
X144035714Y-154904761D01*
X143940476Y-154952380D01*
X143654761Y-154952380D01*
X143559523Y-154904761D01*
X143511904Y-154857142D01*
X145178571Y-153952380D02*
X145750000Y-153952380D01*
X145464285Y-154952380D02*
X145464285Y-153952380D01*
X146464285Y-154904761D02*
X146369047Y-154952380D01*
X146178571Y-154952380D01*
X146083333Y-154904761D01*
X146035714Y-154809523D01*
X146035714Y-154428571D01*
X146083333Y-154333333D01*
X146178571Y-154285714D01*
X146369047Y-154285714D01*
X146464285Y-154333333D01*
X146511904Y-154428571D01*
X146511904Y-154523809D01*
X146035714Y-154619047D01*
X147369047Y-154952380D02*
X147369047Y-154428571D01*
X147321428Y-154333333D01*
X147226190Y-154285714D01*
X147035714Y-154285714D01*
X146940476Y-154333333D01*
X147369047Y-154904761D02*
X147273809Y-154952380D01*
X147035714Y-154952380D01*
X146940476Y-154904761D01*
X146892857Y-154809523D01*
X146892857Y-154714285D01*
X146940476Y-154619047D01*
X147035714Y-154571428D01*
X147273809Y-154571428D01*
X147369047Y-154523809D01*
X147845238Y-154952380D02*
X147845238Y-154285714D01*
X147845238Y-154380952D02*
X147892857Y-154333333D01*
X147988095Y-154285714D01*
X148130952Y-154285714D01*
X148226190Y-154333333D01*
X148273809Y-154428571D01*
X148273809Y-154952380D01*
X148273809Y-154428571D02*
X148321428Y-154333333D01*
X148416666Y-154285714D01*
X148559523Y-154285714D01*
X148654761Y-154333333D01*
X148702380Y-154428571D01*
X148702380Y-154952380D01*
X150416666Y-153952380D02*
X149940476Y-153952380D01*
X149892857Y-154428571D01*
X149940476Y-154380952D01*
X150035714Y-154333333D01*
X150273809Y-154333333D01*
X150369047Y-154380952D01*
X150416666Y-154428571D01*
X150464285Y-154523809D01*
X150464285Y-154761904D01*
X150416666Y-154857142D01*
X150369047Y-154904761D01*
X150273809Y-154952380D01*
X150035714Y-154952380D01*
X149940476Y-154904761D01*
X149892857Y-154857142D01*
D10*
X130293722Y-64390592D02*
X130212910Y-64417529D01*
X130132097Y-64498341D01*
X130078223Y-64606091D01*
X130078223Y-64713841D01*
X130105160Y-64794653D01*
X130185972Y-64929340D01*
X130266784Y-65010152D01*
X130401471Y-65090964D01*
X130482284Y-65117902D01*
X130590033Y-65117902D01*
X130697783Y-65064027D01*
X130751658Y-65010152D01*
X130805532Y-64902402D01*
X130805532Y-64848528D01*
X130616971Y-64659966D01*
X130509221Y-64767715D01*
X131101844Y-64659966D02*
X130536158Y-64094280D01*
X130751658Y-63878781D01*
X130832470Y-63851844D01*
X130886345Y-63851844D01*
X130967157Y-63878781D01*
X131047969Y-63959593D01*
X131074906Y-64040406D01*
X131074906Y-64094280D01*
X131047969Y-64175093D01*
X130832470Y-64390592D01*
X131963841Y-63797969D02*
X131640592Y-64121218D01*
X131802216Y-63959593D02*
X131236531Y-63393908D01*
X131263468Y-63528595D01*
X131263468Y-63636345D01*
X131236531Y-63717157D01*
X132071590Y-62935972D02*
X132448714Y-63313096D01*
X131721404Y-62855160D02*
X131990778Y-63393908D01*
X132340964Y-63043722D01*
X117563096Y-64371218D02*
X117482284Y-64398155D01*
X117401471Y-64478967D01*
X117347597Y-64586717D01*
X117347597Y-64694467D01*
X117374534Y-64775279D01*
X117455346Y-64909966D01*
X117536158Y-64990778D01*
X117670845Y-65071590D01*
X117751658Y-65098528D01*
X117859407Y-65098528D01*
X117967157Y-65044653D01*
X118021032Y-64990778D01*
X118074906Y-64883028D01*
X118074906Y-64829154D01*
X117886345Y-64640592D01*
X117778595Y-64748341D01*
X118371218Y-64640592D02*
X117805532Y-64074906D01*
X118021032Y-63859407D01*
X118101844Y-63832470D01*
X118155719Y-63832470D01*
X118236531Y-63859407D01*
X118317343Y-63940219D01*
X118344280Y-64021032D01*
X118344280Y-64074906D01*
X118317343Y-64155719D01*
X118101844Y-64371218D01*
X118640592Y-63239847D02*
X118371218Y-63509221D01*
X118613654Y-63805532D01*
X118613654Y-63751658D01*
X118640592Y-63670845D01*
X118775279Y-63536158D01*
X118856091Y-63509221D01*
X118909966Y-63509221D01*
X118990778Y-63536158D01*
X119125465Y-63670845D01*
X119152402Y-63751658D01*
X119152402Y-63805532D01*
X119125465Y-63886345D01*
X118990778Y-64021032D01*
X118909966Y-64047969D01*
X118856091Y-64047969D01*
X107563096Y-64371218D02*
X107482284Y-64398155D01*
X107401471Y-64478967D01*
X107347597Y-64586717D01*
X107347597Y-64694467D01*
X107374534Y-64775279D01*
X107455346Y-64909966D01*
X107536158Y-64990778D01*
X107670845Y-65071590D01*
X107751658Y-65098528D01*
X107859407Y-65098528D01*
X107967157Y-65044653D01*
X108021032Y-64990778D01*
X108074906Y-64883028D01*
X108074906Y-64829154D01*
X107886345Y-64640592D01*
X107778595Y-64748341D01*
X108371218Y-64640592D02*
X107805532Y-64074906D01*
X108021032Y-63859407D01*
X108101844Y-63832470D01*
X108155719Y-63832470D01*
X108236531Y-63859407D01*
X108317343Y-63940219D01*
X108344280Y-64021032D01*
X108344280Y-64074906D01*
X108317343Y-64155719D01*
X108101844Y-64371218D01*
X109233215Y-63778595D02*
X108909966Y-64101844D01*
X109071590Y-63940219D02*
X108505905Y-63374534D01*
X108532842Y-63509221D01*
X108532842Y-63616971D01*
X108505905Y-63697783D01*
X148043722Y-64390592D02*
X147962910Y-64417529D01*
X147882097Y-64498341D01*
X147828223Y-64606091D01*
X147828223Y-64713841D01*
X147855160Y-64794653D01*
X147935972Y-64929340D01*
X148016784Y-65010152D01*
X148151471Y-65090964D01*
X148232284Y-65117902D01*
X148340033Y-65117902D01*
X148447783Y-65064027D01*
X148501658Y-65010152D01*
X148555532Y-64902402D01*
X148555532Y-64848528D01*
X148366971Y-64659966D01*
X148259221Y-64767715D01*
X148851844Y-64659966D02*
X148286158Y-64094280D01*
X148501658Y-63878781D01*
X148582470Y-63851844D01*
X148636345Y-63851844D01*
X148717157Y-63878781D01*
X148797969Y-63959593D01*
X148824906Y-64040406D01*
X148824906Y-64094280D01*
X148797969Y-64175093D01*
X148582470Y-64390592D01*
X148878781Y-63609407D02*
X148878781Y-63555532D01*
X148905719Y-63474720D01*
X149040406Y-63340033D01*
X149121218Y-63313096D01*
X149175093Y-63313096D01*
X149255905Y-63340033D01*
X149309780Y-63393908D01*
X149363654Y-63501658D01*
X149363654Y-64148155D01*
X149713841Y-63797969D01*
X149713841Y-63151471D02*
X149633028Y-63178409D01*
X149579154Y-63178409D01*
X149498341Y-63151471D01*
X149471404Y-63124534D01*
X149444467Y-63043722D01*
X149444467Y-62989847D01*
X149471404Y-62909035D01*
X149579154Y-62801285D01*
X149659966Y-62774348D01*
X149713841Y-62774348D01*
X149794653Y-62801285D01*
X149821590Y-62828223D01*
X149848528Y-62909035D01*
X149848528Y-62962910D01*
X149821590Y-63043722D01*
X149713841Y-63151471D01*
X149686903Y-63232284D01*
X149686903Y-63286158D01*
X149713841Y-63366971D01*
X149821590Y-63474720D01*
X149902402Y-63501658D01*
X149956277Y-63501658D01*
X150037089Y-63474720D01*
X150144839Y-63366971D01*
X150171776Y-63286158D01*
X150171776Y-63232284D01*
X150144839Y-63151471D01*
X150037089Y-63043722D01*
X149956277Y-63016784D01*
X149902402Y-63016784D01*
X149821590Y-63043722D01*
X120313096Y-64371218D02*
X120232284Y-64398155D01*
X120151471Y-64478967D01*
X120097597Y-64586717D01*
X120097597Y-64694467D01*
X120124534Y-64775279D01*
X120205346Y-64909966D01*
X120286158Y-64990778D01*
X120420845Y-65071590D01*
X120501658Y-65098528D01*
X120609407Y-65098528D01*
X120717157Y-65044653D01*
X120771032Y-64990778D01*
X120824906Y-64883028D01*
X120824906Y-64829154D01*
X120636345Y-64640592D01*
X120528595Y-64748341D01*
X121121218Y-64640592D02*
X120555532Y-64074906D01*
X120771032Y-63859407D01*
X120851844Y-63832470D01*
X120905719Y-63832470D01*
X120986531Y-63859407D01*
X121067343Y-63940219D01*
X121094280Y-64021032D01*
X121094280Y-64074906D01*
X121067343Y-64155719D01*
X120851844Y-64371218D01*
X121363654Y-63266784D02*
X121255905Y-63374534D01*
X121228967Y-63455346D01*
X121228967Y-63509221D01*
X121255905Y-63643908D01*
X121336717Y-63778595D01*
X121552216Y-63994094D01*
X121633028Y-64021032D01*
X121686903Y-64021032D01*
X121767715Y-63994094D01*
X121875465Y-63886345D01*
X121902402Y-63805532D01*
X121902402Y-63751658D01*
X121875465Y-63670845D01*
X121740778Y-63536158D01*
X121659966Y-63509221D01*
X121606091Y-63509221D01*
X121525279Y-63536158D01*
X121417529Y-63643908D01*
X121390592Y-63724720D01*
X121390592Y-63778595D01*
X121417529Y-63859407D01*
X125313096Y-64371218D02*
X125232284Y-64398155D01*
X125151471Y-64478967D01*
X125097597Y-64586717D01*
X125097597Y-64694467D01*
X125124534Y-64775279D01*
X125205346Y-64909966D01*
X125286158Y-64990778D01*
X125420845Y-65071590D01*
X125501658Y-65098528D01*
X125609407Y-65098528D01*
X125717157Y-65044653D01*
X125771032Y-64990778D01*
X125824906Y-64883028D01*
X125824906Y-64829154D01*
X125636345Y-64640592D01*
X125528595Y-64748341D01*
X126121218Y-64640592D02*
X125555532Y-64074906D01*
X125771032Y-63859407D01*
X125851844Y-63832470D01*
X125905719Y-63832470D01*
X125986531Y-63859407D01*
X126067343Y-63940219D01*
X126094280Y-64021032D01*
X126094280Y-64074906D01*
X126067343Y-64155719D01*
X125851844Y-64371218D01*
X126444467Y-63670845D02*
X126363654Y-63697783D01*
X126309780Y-63697783D01*
X126228967Y-63670845D01*
X126202030Y-63643908D01*
X126175093Y-63563096D01*
X126175093Y-63509221D01*
X126202030Y-63428409D01*
X126309780Y-63320659D01*
X126390592Y-63293722D01*
X126444467Y-63293722D01*
X126525279Y-63320659D01*
X126552216Y-63347597D01*
X126579154Y-63428409D01*
X126579154Y-63482284D01*
X126552216Y-63563096D01*
X126444467Y-63670845D01*
X126417529Y-63751658D01*
X126417529Y-63805532D01*
X126444467Y-63886345D01*
X126552216Y-63994094D01*
X126633028Y-64021032D01*
X126686903Y-64021032D01*
X126767715Y-63994094D01*
X126875465Y-63886345D01*
X126902402Y-63805532D01*
X126902402Y-63751658D01*
X126875465Y-63670845D01*
X126767715Y-63563096D01*
X126686903Y-63536158D01*
X126633028Y-63536158D01*
X126552216Y-63563096D01*
D11*
X157466666Y-80150000D02*
X157400000Y-80116666D01*
X157300000Y-80116666D01*
X157200000Y-80150000D01*
X157133333Y-80216666D01*
X157100000Y-80283333D01*
X157066666Y-80416666D01*
X157066666Y-80516666D01*
X157100000Y-80650000D01*
X157133333Y-80716666D01*
X157200000Y-80783333D01*
X157300000Y-80816666D01*
X157366666Y-80816666D01*
X157466666Y-80783333D01*
X157500000Y-80750000D01*
X157500000Y-80516666D01*
X157366666Y-80516666D01*
X157800000Y-80816666D02*
X157800000Y-80116666D01*
X158200000Y-80816666D01*
X158200000Y-80116666D01*
X158533333Y-80816666D02*
X158533333Y-80116666D01*
X158700000Y-80116666D01*
X158800000Y-80150000D01*
X158866666Y-80216666D01*
X158900000Y-80283333D01*
X158933333Y-80416666D01*
X158933333Y-80516666D01*
X158900000Y-80650000D01*
X158866666Y-80716666D01*
X158800000Y-80783333D01*
X158700000Y-80816666D01*
X158533333Y-80816666D01*
D10*
X127813096Y-64371218D02*
X127732284Y-64398155D01*
X127651471Y-64478967D01*
X127597597Y-64586717D01*
X127597597Y-64694467D01*
X127624534Y-64775279D01*
X127705346Y-64909966D01*
X127786158Y-64990778D01*
X127920845Y-65071590D01*
X128001658Y-65098528D01*
X128109407Y-65098528D01*
X128217157Y-65044653D01*
X128271032Y-64990778D01*
X128324906Y-64883028D01*
X128324906Y-64829154D01*
X128136345Y-64640592D01*
X128028595Y-64748341D01*
X128621218Y-64640592D02*
X128055532Y-64074906D01*
X128271032Y-63859407D01*
X128351844Y-63832470D01*
X128405719Y-63832470D01*
X128486531Y-63859407D01*
X128567343Y-63940219D01*
X128594280Y-64021032D01*
X128594280Y-64074906D01*
X128567343Y-64155719D01*
X128351844Y-64371218D01*
X129213841Y-64047969D02*
X129321590Y-63940219D01*
X129348528Y-63859407D01*
X129348528Y-63805532D01*
X129321590Y-63670845D01*
X129240778Y-63536158D01*
X129025279Y-63320659D01*
X128944467Y-63293722D01*
X128890592Y-63293722D01*
X128809780Y-63320659D01*
X128702030Y-63428409D01*
X128675093Y-63509221D01*
X128675093Y-63563096D01*
X128702030Y-63643908D01*
X128836717Y-63778595D01*
X128917529Y-63805532D01*
X128971404Y-63805532D01*
X129052216Y-63778595D01*
X129159966Y-63670845D01*
X129186903Y-63590033D01*
X129186903Y-63536158D01*
X129159966Y-63455346D01*
X110063096Y-64371218D02*
X109982284Y-64398155D01*
X109901471Y-64478967D01*
X109847597Y-64586717D01*
X109847597Y-64694467D01*
X109874534Y-64775279D01*
X109955346Y-64909966D01*
X110036158Y-64990778D01*
X110170845Y-65071590D01*
X110251658Y-65098528D01*
X110359407Y-65098528D01*
X110467157Y-65044653D01*
X110521032Y-64990778D01*
X110574906Y-64883028D01*
X110574906Y-64829154D01*
X110386345Y-64640592D01*
X110278595Y-64748341D01*
X110871218Y-64640592D02*
X110305532Y-64074906D01*
X110521032Y-63859407D01*
X110601844Y-63832470D01*
X110655719Y-63832470D01*
X110736531Y-63859407D01*
X110817343Y-63940219D01*
X110844280Y-64021032D01*
X110844280Y-64074906D01*
X110817343Y-64155719D01*
X110601844Y-64371218D01*
X110898155Y-63590033D02*
X110898155Y-63536158D01*
X110925093Y-63455346D01*
X111059780Y-63320659D01*
X111140592Y-63293722D01*
X111194467Y-63293722D01*
X111275279Y-63320659D01*
X111329154Y-63374534D01*
X111383028Y-63482284D01*
X111383028Y-64128781D01*
X111733215Y-63778595D01*
X140543722Y-64390592D02*
X140462910Y-64417529D01*
X140382097Y-64498341D01*
X140328223Y-64606091D01*
X140328223Y-64713841D01*
X140355160Y-64794653D01*
X140435972Y-64929340D01*
X140516784Y-65010152D01*
X140651471Y-65090964D01*
X140732284Y-65117902D01*
X140840033Y-65117902D01*
X140947783Y-65064027D01*
X141001658Y-65010152D01*
X141055532Y-64902402D01*
X141055532Y-64848528D01*
X140866971Y-64659966D01*
X140759221Y-64767715D01*
X141351844Y-64659966D02*
X140786158Y-64094280D01*
X141001658Y-63878781D01*
X141082470Y-63851844D01*
X141136345Y-63851844D01*
X141217157Y-63878781D01*
X141297969Y-63959593D01*
X141324906Y-64040406D01*
X141324906Y-64094280D01*
X141297969Y-64175093D01*
X141082470Y-64390592D01*
X141378781Y-63609407D02*
X141378781Y-63555532D01*
X141405719Y-63474720D01*
X141540406Y-63340033D01*
X141621218Y-63313096D01*
X141675093Y-63313096D01*
X141755905Y-63340033D01*
X141809780Y-63393908D01*
X141863654Y-63501658D01*
X141863654Y-64148155D01*
X142213841Y-63797969D01*
X141917529Y-63070659D02*
X141917529Y-63016784D01*
X141944467Y-62935972D01*
X142079154Y-62801285D01*
X142159966Y-62774348D01*
X142213841Y-62774348D01*
X142294653Y-62801285D01*
X142348528Y-62855160D01*
X142402402Y-62962910D01*
X142402402Y-63609407D01*
X142752589Y-63259221D01*
X115063096Y-64371218D02*
X114982284Y-64398155D01*
X114901471Y-64478967D01*
X114847597Y-64586717D01*
X114847597Y-64694467D01*
X114874534Y-64775279D01*
X114955346Y-64909966D01*
X115036158Y-64990778D01*
X115170845Y-65071590D01*
X115251658Y-65098528D01*
X115359407Y-65098528D01*
X115467157Y-65044653D01*
X115521032Y-64990778D01*
X115574906Y-64883028D01*
X115574906Y-64829154D01*
X115386345Y-64640592D01*
X115278595Y-64748341D01*
X115871218Y-64640592D02*
X115305532Y-64074906D01*
X115521032Y-63859407D01*
X115601844Y-63832470D01*
X115655719Y-63832470D01*
X115736531Y-63859407D01*
X115817343Y-63940219D01*
X115844280Y-64021032D01*
X115844280Y-64074906D01*
X115817343Y-64155719D01*
X115601844Y-64371218D01*
X116302216Y-63455346D02*
X116679340Y-63832470D01*
X115952030Y-63374534D02*
X116221404Y-63913282D01*
X116571590Y-63563096D01*
X145543722Y-64390592D02*
X145462910Y-64417529D01*
X145382097Y-64498341D01*
X145328223Y-64606091D01*
X145328223Y-64713841D01*
X145355160Y-64794653D01*
X145435972Y-64929340D01*
X145516784Y-65010152D01*
X145651471Y-65090964D01*
X145732284Y-65117902D01*
X145840033Y-65117902D01*
X145947783Y-65064027D01*
X146001658Y-65010152D01*
X146055532Y-64902402D01*
X146055532Y-64848528D01*
X145866971Y-64659966D01*
X145759221Y-64767715D01*
X146351844Y-64659966D02*
X145786158Y-64094280D01*
X146001658Y-63878781D01*
X146082470Y-63851844D01*
X146136345Y-63851844D01*
X146217157Y-63878781D01*
X146297969Y-63959593D01*
X146324906Y-64040406D01*
X146324906Y-64094280D01*
X146297969Y-64175093D01*
X146082470Y-64390592D01*
X146378781Y-63609407D02*
X146378781Y-63555532D01*
X146405719Y-63474720D01*
X146540406Y-63340033D01*
X146621218Y-63313096D01*
X146675093Y-63313096D01*
X146755905Y-63340033D01*
X146809780Y-63393908D01*
X146863654Y-63501658D01*
X146863654Y-64148155D01*
X147213841Y-63797969D01*
X146836717Y-63043722D02*
X147213841Y-62666598D01*
X147537089Y-63474720D01*
X135543722Y-64390592D02*
X135462910Y-64417529D01*
X135382097Y-64498341D01*
X135328223Y-64606091D01*
X135328223Y-64713841D01*
X135355160Y-64794653D01*
X135435972Y-64929340D01*
X135516784Y-65010152D01*
X135651471Y-65090964D01*
X135732284Y-65117902D01*
X135840033Y-65117902D01*
X135947783Y-65064027D01*
X136001658Y-65010152D01*
X136055532Y-64902402D01*
X136055532Y-64848528D01*
X135866971Y-64659966D01*
X135759221Y-64767715D01*
X136351844Y-64659966D02*
X135786158Y-64094280D01*
X136001658Y-63878781D01*
X136082470Y-63851844D01*
X136136345Y-63851844D01*
X136217157Y-63878781D01*
X136297969Y-63959593D01*
X136324906Y-64040406D01*
X136324906Y-64094280D01*
X136297969Y-64175093D01*
X136082470Y-64390592D01*
X137213841Y-63797969D02*
X136890592Y-64121218D01*
X137052216Y-63959593D02*
X136486531Y-63393908D01*
X136513468Y-63528595D01*
X136513468Y-63636345D01*
X136486531Y-63717157D01*
X137133028Y-62747410D02*
X137025279Y-62855160D01*
X136998341Y-62935972D01*
X136998341Y-62989847D01*
X137025279Y-63124534D01*
X137106091Y-63259221D01*
X137321590Y-63474720D01*
X137402402Y-63501658D01*
X137456277Y-63501658D01*
X137537089Y-63474720D01*
X137644839Y-63366971D01*
X137671776Y-63286158D01*
X137671776Y-63232284D01*
X137644839Y-63151471D01*
X137510152Y-63016784D01*
X137429340Y-62989847D01*
X137375465Y-62989847D01*
X137294653Y-63016784D01*
X137186903Y-63124534D01*
X137159966Y-63205346D01*
X137159966Y-63259221D01*
X137186903Y-63340033D01*
X112563096Y-64371218D02*
X112482284Y-64398155D01*
X112401471Y-64478967D01*
X112347597Y-64586717D01*
X112347597Y-64694467D01*
X112374534Y-64775279D01*
X112455346Y-64909966D01*
X112536158Y-64990778D01*
X112670845Y-65071590D01*
X112751658Y-65098528D01*
X112859407Y-65098528D01*
X112967157Y-65044653D01*
X113021032Y-64990778D01*
X113074906Y-64883028D01*
X113074906Y-64829154D01*
X112886345Y-64640592D01*
X112778595Y-64748341D01*
X113371218Y-64640592D02*
X112805532Y-64074906D01*
X113021032Y-63859407D01*
X113101844Y-63832470D01*
X113155719Y-63832470D01*
X113236531Y-63859407D01*
X113317343Y-63940219D01*
X113344280Y-64021032D01*
X113344280Y-64074906D01*
X113317343Y-64155719D01*
X113101844Y-64371218D01*
X113317343Y-63563096D02*
X113667529Y-63212910D01*
X113694467Y-63616971D01*
X113775279Y-63536158D01*
X113856091Y-63509221D01*
X113909966Y-63509221D01*
X113990778Y-63536158D01*
X114125465Y-63670845D01*
X114152402Y-63751658D01*
X114152402Y-63805532D01*
X114125465Y-63886345D01*
X113963841Y-64047969D01*
X113883028Y-64074906D01*
X113829154Y-64074906D01*
X122563096Y-64371218D02*
X122482284Y-64398155D01*
X122401471Y-64478967D01*
X122347597Y-64586717D01*
X122347597Y-64694467D01*
X122374534Y-64775279D01*
X122455346Y-64909966D01*
X122536158Y-64990778D01*
X122670845Y-65071590D01*
X122751658Y-65098528D01*
X122859407Y-65098528D01*
X122967157Y-65044653D01*
X123021032Y-64990778D01*
X123074906Y-64883028D01*
X123074906Y-64829154D01*
X122886345Y-64640592D01*
X122778595Y-64748341D01*
X123371218Y-64640592D02*
X122805532Y-64074906D01*
X123021032Y-63859407D01*
X123101844Y-63832470D01*
X123155719Y-63832470D01*
X123236531Y-63859407D01*
X123317343Y-63940219D01*
X123344280Y-64021032D01*
X123344280Y-64074906D01*
X123317343Y-64155719D01*
X123101844Y-64371218D01*
X123317343Y-63563096D02*
X123694467Y-63185972D01*
X124017715Y-63994094D01*
%TO.C,J11*%
X99988095Y-131250000D02*
X99892857Y-131202380D01*
X99750000Y-131202380D01*
X99607142Y-131250000D01*
X99511904Y-131345238D01*
X99464285Y-131440476D01*
X99416666Y-131630952D01*
X99416666Y-131773809D01*
X99464285Y-131964285D01*
X99511904Y-132059523D01*
X99607142Y-132154761D01*
X99750000Y-132202380D01*
X99845238Y-132202380D01*
X99988095Y-132154761D01*
X100035714Y-132107142D01*
X100035714Y-131773809D01*
X99845238Y-131773809D01*
X100464285Y-132202380D02*
X100464285Y-131202380D01*
X101035714Y-132202380D01*
X101035714Y-131202380D01*
X101511904Y-132202380D02*
X101511904Y-131202380D01*
X101750000Y-131202380D01*
X101892857Y-131250000D01*
X101988095Y-131345238D01*
X102035714Y-131440476D01*
X102083333Y-131630952D01*
X102083333Y-131773809D01*
X102035714Y-131964285D01*
X101988095Y-132059523D01*
X101892857Y-132154761D01*
X101750000Y-132202380D01*
X101511904Y-132202380D01*
%TO.C,RF1*%
X147179761Y-84632380D02*
X146846428Y-84156190D01*
X146608333Y-84632380D02*
X146608333Y-83632380D01*
X146989285Y-83632380D01*
X147084523Y-83680000D01*
X147132142Y-83727619D01*
X147179761Y-83822857D01*
X147179761Y-83965714D01*
X147132142Y-84060952D01*
X147084523Y-84108571D01*
X146989285Y-84156190D01*
X146608333Y-84156190D01*
X147941666Y-84108571D02*
X147608333Y-84108571D01*
X147608333Y-84632380D02*
X147608333Y-83632380D01*
X148084523Y-83632380D01*
X148989285Y-84632380D02*
X148417857Y-84632380D01*
X148703571Y-84632380D02*
X148703571Y-83632380D01*
X148608333Y-83775238D01*
X148513095Y-83870476D01*
X148417857Y-83918095D01*
X145702380Y-93845238D02*
X144702380Y-93845238D01*
X144702380Y-93607142D01*
X144750000Y-93464285D01*
X144845238Y-93369047D01*
X144940476Y-93321428D01*
X145130952Y-93273809D01*
X145273809Y-93273809D01*
X145464285Y-93321428D01*
X145559523Y-93369047D01*
X145654761Y-93464285D01*
X145702380Y-93607142D01*
X145702380Y-93845238D01*
X145702380Y-92273809D02*
X145226190Y-92607142D01*
X145702380Y-92845238D02*
X144702380Y-92845238D01*
X144702380Y-92464285D01*
X144750000Y-92369047D01*
X144797619Y-92321428D01*
X144892857Y-92273809D01*
X145035714Y-92273809D01*
X145130952Y-92321428D01*
X145178571Y-92369047D01*
X145226190Y-92464285D01*
X145226190Y-92845238D01*
X144702380Y-91988095D02*
X145702380Y-91654761D01*
X144702380Y-91321428D01*
X145130952Y-90845238D02*
X145083333Y-90940476D01*
X145035714Y-90988095D01*
X144940476Y-91035714D01*
X144892857Y-91035714D01*
X144797619Y-90988095D01*
X144750000Y-90940476D01*
X144702380Y-90845238D01*
X144702380Y-90654761D01*
X144750000Y-90559523D01*
X144797619Y-90511904D01*
X144892857Y-90464285D01*
X144940476Y-90464285D01*
X145035714Y-90511904D01*
X145083333Y-90559523D01*
X145130952Y-90654761D01*
X145130952Y-90845238D01*
X145178571Y-90940476D01*
X145226190Y-90988095D01*
X145321428Y-91035714D01*
X145511904Y-91035714D01*
X145607142Y-90988095D01*
X145654761Y-90940476D01*
X145702380Y-90845238D01*
X145702380Y-90654761D01*
X145654761Y-90559523D01*
X145607142Y-90511904D01*
X145511904Y-90464285D01*
X145321428Y-90464285D01*
X145226190Y-90511904D01*
X145178571Y-90559523D01*
X145130952Y-90654761D01*
X145130952Y-89892857D02*
X145083333Y-89988095D01*
X145035714Y-90035714D01*
X144940476Y-90083333D01*
X144892857Y-90083333D01*
X144797619Y-90035714D01*
X144750000Y-89988095D01*
X144702380Y-89892857D01*
X144702380Y-89702380D01*
X144750000Y-89607142D01*
X144797619Y-89559523D01*
X144892857Y-89511904D01*
X144940476Y-89511904D01*
X145035714Y-89559523D01*
X145083333Y-89607142D01*
X145130952Y-89702380D01*
X145130952Y-89892857D01*
X145178571Y-89988095D01*
X145226190Y-90035714D01*
X145321428Y-90083333D01*
X145511904Y-90083333D01*
X145607142Y-90035714D01*
X145654761Y-89988095D01*
X145702380Y-89892857D01*
X145702380Y-89702380D01*
X145654761Y-89607142D01*
X145607142Y-89559523D01*
X145511904Y-89511904D01*
X145321428Y-89511904D01*
X145226190Y-89559523D01*
X145178571Y-89607142D01*
X145130952Y-89702380D01*
X144702380Y-89178571D02*
X144702380Y-88511904D01*
X145702380Y-88940476D01*
X145702380Y-87607142D02*
X145702380Y-88178571D01*
X145702380Y-87892857D02*
X144702380Y-87892857D01*
X144845238Y-87988095D01*
X144940476Y-88083333D01*
X144988095Y-88178571D01*
%TO.C,J15*%
X157488095Y-62500000D02*
X157392857Y-62452380D01*
X157250000Y-62452380D01*
X157107142Y-62500000D01*
X157011904Y-62595238D01*
X156964285Y-62690476D01*
X156916666Y-62880952D01*
X156916666Y-63023809D01*
X156964285Y-63214285D01*
X157011904Y-63309523D01*
X157107142Y-63404761D01*
X157250000Y-63452380D01*
X157345238Y-63452380D01*
X157488095Y-63404761D01*
X157535714Y-63357142D01*
X157535714Y-63023809D01*
X157345238Y-63023809D01*
X157964285Y-63452380D02*
X157964285Y-62452380D01*
X158535714Y-63452380D01*
X158535714Y-62452380D01*
X159011904Y-63452380D02*
X159011904Y-62452380D01*
X159250000Y-62452380D01*
X159392857Y-62500000D01*
X159488095Y-62595238D01*
X159535714Y-62690476D01*
X159583333Y-62880952D01*
X159583333Y-63023809D01*
X159535714Y-63214285D01*
X159488095Y-63309523D01*
X159392857Y-63404761D01*
X159250000Y-63452380D01*
X159011904Y-63452380D01*
%TO.C,SW1*%
X113952380Y-151110523D02*
X114952380Y-150777190D01*
X113952380Y-150443857D01*
X114952380Y-150110523D02*
X114285714Y-150110523D01*
X113952380Y-150110523D02*
X114000000Y-150158142D01*
X114047619Y-150110523D01*
X114000000Y-150062904D01*
X113952380Y-150110523D01*
X114047619Y-150110523D01*
X114285714Y-149634333D02*
X114952380Y-149634333D01*
X114380952Y-149634333D02*
X114333333Y-149586714D01*
X114285714Y-149491476D01*
X114285714Y-149348619D01*
X114333333Y-149253380D01*
X114428571Y-149205761D01*
X114952380Y-149205761D01*
X115047619Y-148967666D02*
X115047619Y-148205761D01*
X114904761Y-148015285D02*
X114952380Y-147872428D01*
X114952380Y-147634333D01*
X114904761Y-147539095D01*
X114857142Y-147491476D01*
X114761904Y-147443857D01*
X114666666Y-147443857D01*
X114571428Y-147491476D01*
X114523809Y-147539095D01*
X114476190Y-147634333D01*
X114428571Y-147824809D01*
X114380952Y-147920047D01*
X114333333Y-147967666D01*
X114238095Y-148015285D01*
X114142857Y-148015285D01*
X114047619Y-147967666D01*
X114000000Y-147920047D01*
X113952380Y-147824809D01*
X113952380Y-147586714D01*
X114000000Y-147443857D01*
X114285714Y-147110523D02*
X114952380Y-146920047D01*
X114476190Y-146729571D01*
X114952380Y-146539095D01*
X114285714Y-146348619D01*
X114952380Y-145967666D02*
X114285714Y-145967666D01*
X113952380Y-145967666D02*
X114000000Y-146015285D01*
X114047619Y-145967666D01*
X114000000Y-145920047D01*
X113952380Y-145967666D01*
X114047619Y-145967666D01*
X114285714Y-145634333D02*
X114285714Y-145253380D01*
X113952380Y-145491476D02*
X114809523Y-145491476D01*
X114904761Y-145443857D01*
X114952380Y-145348619D01*
X114952380Y-145253380D01*
X114904761Y-144491476D02*
X114952380Y-144586714D01*
X114952380Y-144777190D01*
X114904761Y-144872428D01*
X114857142Y-144920047D01*
X114761904Y-144967666D01*
X114476190Y-144967666D01*
X114380952Y-144920047D01*
X114333333Y-144872428D01*
X114285714Y-144777190D01*
X114285714Y-144586714D01*
X114333333Y-144491476D01*
X114952380Y-144062904D02*
X113952380Y-144062904D01*
X114952380Y-143634333D02*
X114428571Y-143634333D01*
X114333333Y-143681952D01*
X114285714Y-143777190D01*
X114285714Y-143920047D01*
X114333333Y-144015285D01*
X114380952Y-144062904D01*
%TO.C,J13*%
X153309523Y-75702380D02*
X153928571Y-75702380D01*
X153595238Y-76083333D01*
X153738095Y-76083333D01*
X153833333Y-76130952D01*
X153880952Y-76178571D01*
X153928571Y-76273809D01*
X153928571Y-76511904D01*
X153880952Y-76607142D01*
X153833333Y-76654761D01*
X153738095Y-76702380D01*
X153452380Y-76702380D01*
X153357142Y-76654761D01*
X153309523Y-76607142D01*
X154261904Y-76035714D02*
X154500000Y-76702380D01*
X154738095Y-76035714D01*
X155023809Y-75702380D02*
X155642857Y-75702380D01*
X155309523Y-76083333D01*
X155452380Y-76083333D01*
X155547619Y-76130952D01*
X155595238Y-76178571D01*
X155642857Y-76273809D01*
X155642857Y-76511904D01*
X155595238Y-76607142D01*
X155547619Y-76654761D01*
X155452380Y-76702380D01*
X155166666Y-76702380D01*
X155071428Y-76654761D01*
X155023809Y-76607142D01*
%TO.C,J9*%
X93928571Y-106630952D02*
X93976190Y-106488095D01*
X94023809Y-106440476D01*
X94119047Y-106392857D01*
X94261904Y-106392857D01*
X94357142Y-106440476D01*
X94404761Y-106488095D01*
X94452380Y-106583333D01*
X94452380Y-106964285D01*
X93452380Y-106964285D01*
X93452380Y-106630952D01*
X93500000Y-106535714D01*
X93547619Y-106488095D01*
X93642857Y-106440476D01*
X93738095Y-106440476D01*
X93833333Y-106488095D01*
X93880952Y-106535714D01*
X93928571Y-106630952D01*
X93928571Y-106964285D01*
X94452380Y-105821428D02*
X94404761Y-105916666D01*
X94309523Y-105964285D01*
X93452380Y-105964285D01*
X93785714Y-105011904D02*
X94452380Y-105011904D01*
X93785714Y-105440476D02*
X94309523Y-105440476D01*
X94404761Y-105392857D01*
X94452380Y-105297619D01*
X94452380Y-105154761D01*
X94404761Y-105059523D01*
X94357142Y-105011904D01*
X94404761Y-104154761D02*
X94452380Y-104250000D01*
X94452380Y-104440476D01*
X94404761Y-104535714D01*
X94309523Y-104583333D01*
X93928571Y-104583333D01*
X93833333Y-104535714D01*
X93785714Y-104440476D01*
X93785714Y-104250000D01*
X93833333Y-104154761D01*
X93928571Y-104107142D01*
X94023809Y-104107142D01*
X94119047Y-104583333D01*
X93785714Y-103821428D02*
X93785714Y-103440476D01*
X94452380Y-103678571D02*
X93595238Y-103678571D01*
X93500000Y-103630952D01*
X93452380Y-103535714D01*
X93452380Y-103440476D01*
X94452380Y-103107142D02*
X93785714Y-103107142D01*
X93976190Y-103107142D02*
X93880952Y-103059523D01*
X93833333Y-103011904D01*
X93785714Y-102916666D01*
X93785714Y-102821428D01*
X93785714Y-102059523D02*
X94452380Y-102059523D01*
X93785714Y-102488095D02*
X94309523Y-102488095D01*
X94404761Y-102440476D01*
X94452380Y-102345238D01*
X94452380Y-102202380D01*
X94404761Y-102107142D01*
X94357142Y-102059523D01*
X94452380Y-101583333D02*
X93785714Y-101583333D01*
X93452380Y-101583333D02*
X93500000Y-101630952D01*
X93547619Y-101583333D01*
X93500000Y-101535714D01*
X93452380Y-101583333D01*
X93547619Y-101583333D01*
X93785714Y-101250000D02*
X93785714Y-100869047D01*
X93452380Y-101107142D02*
X94309523Y-101107142D01*
X94404761Y-101059523D01*
X94452380Y-100964285D01*
X94452380Y-100869047D01*
X94547619Y-100773809D02*
X94547619Y-100011904D01*
X94452380Y-99297619D02*
X94452380Y-99773809D01*
X93452380Y-99773809D01*
X93928571Y-98964285D02*
X93928571Y-98630952D01*
X94452380Y-98488095D02*
X94452380Y-98964285D01*
X93452380Y-98964285D01*
X93452380Y-98488095D01*
%TO.C,Z1*%
X153190476Y-139202380D02*
X153857142Y-139202380D01*
X153190476Y-140202380D01*
X153857142Y-140202380D01*
X154761904Y-140202380D02*
X154190476Y-140202380D01*
X154476190Y-140202380D02*
X154476190Y-139202380D01*
X154380952Y-139345238D01*
X154285714Y-139440476D01*
X154190476Y-139488095D01*
%TO.C,D3*%
X157107142Y-153452380D02*
X156630952Y-153452380D01*
X156630952Y-152452380D01*
X157440476Y-152928571D02*
X157773809Y-152928571D01*
X157916666Y-153452380D02*
X157440476Y-153452380D01*
X157440476Y-152452380D01*
X157916666Y-152452380D01*
X158345238Y-153452380D02*
X158345238Y-152452380D01*
X158583333Y-152452380D01*
X158726190Y-152500000D01*
X158821428Y-152595238D01*
X158869047Y-152690476D01*
X158916666Y-152880952D01*
X158916666Y-153023809D01*
X158869047Y-153214285D01*
X158821428Y-153309523D01*
X158726190Y-153404761D01*
X158583333Y-153452380D01*
X158345238Y-153452380D01*
%TO.C,D1*%
X145027380Y-145988095D02*
X144027380Y-145988095D01*
X144027380Y-145750000D01*
X144075000Y-145607142D01*
X144170238Y-145511904D01*
X144265476Y-145464285D01*
X144455952Y-145416666D01*
X144598809Y-145416666D01*
X144789285Y-145464285D01*
X144884523Y-145511904D01*
X144979761Y-145607142D01*
X145027380Y-145750000D01*
X145027380Y-145988095D01*
X145027380Y-144464285D02*
X145027380Y-145035714D01*
X145027380Y-144750000D02*
X144027380Y-144750000D01*
X144170238Y-144845238D01*
X144265476Y-144940476D01*
X144313095Y-145035714D01*
X129507380Y-149044877D02*
X128507380Y-149044877D01*
X128507380Y-148806782D01*
X128555000Y-148663925D01*
X128650238Y-148568687D01*
X128745476Y-148521068D01*
X128935952Y-148473449D01*
X129078809Y-148473449D01*
X129269285Y-148521068D01*
X129364523Y-148568687D01*
X129459761Y-148663925D01*
X129507380Y-148806782D01*
X129507380Y-149044877D01*
X129602619Y-148282973D02*
X129602619Y-147521068D01*
X129459761Y-147330592D02*
X129507380Y-147187734D01*
X129507380Y-146949639D01*
X129459761Y-146854401D01*
X129412142Y-146806782D01*
X129316904Y-146759163D01*
X129221666Y-146759163D01*
X129126428Y-146806782D01*
X129078809Y-146854401D01*
X129031190Y-146949639D01*
X128983571Y-147140115D01*
X128935952Y-147235354D01*
X128888333Y-147282973D01*
X128793095Y-147330592D01*
X128697857Y-147330592D01*
X128602619Y-147282973D01*
X128555000Y-147235354D01*
X128507380Y-147140115D01*
X128507380Y-146902020D01*
X128555000Y-146759163D01*
X129459761Y-145902020D02*
X129507380Y-145997258D01*
X129507380Y-146187734D01*
X129459761Y-146282973D01*
X129412142Y-146330592D01*
X129316904Y-146378211D01*
X129031190Y-146378211D01*
X128935952Y-146330592D01*
X128888333Y-146282973D01*
X128840714Y-146187734D01*
X128840714Y-145997258D01*
X128888333Y-145902020D01*
X129507380Y-145473449D02*
X128507380Y-145473449D01*
X129507380Y-145044877D02*
X128983571Y-145044877D01*
X128888333Y-145092496D01*
X128840714Y-145187734D01*
X128840714Y-145330592D01*
X128888333Y-145425830D01*
X128935952Y-145473449D01*
X129507380Y-144425830D02*
X129459761Y-144521068D01*
X129412142Y-144568687D01*
X129316904Y-144616306D01*
X129031190Y-144616306D01*
X128935952Y-144568687D01*
X128888333Y-144521068D01*
X128840714Y-144425830D01*
X128840714Y-144282973D01*
X128888333Y-144187734D01*
X128935952Y-144140115D01*
X129031190Y-144092496D01*
X129316904Y-144092496D01*
X129412142Y-144140115D01*
X129459761Y-144187734D01*
X129507380Y-144282973D01*
X129507380Y-144425830D01*
X128840714Y-143806782D02*
X128840714Y-143425830D01*
X128507380Y-143663925D02*
X129364523Y-143663925D01*
X129459761Y-143616306D01*
X129507380Y-143521068D01*
X129507380Y-143425830D01*
X128840714Y-143235354D02*
X128840714Y-142854401D01*
X128507380Y-143092496D02*
X129364523Y-143092496D01*
X129459761Y-143044877D01*
X129507380Y-142949639D01*
X129507380Y-142854401D01*
X129507380Y-142521068D02*
X128507380Y-142521068D01*
X129126428Y-142425830D02*
X129507380Y-142140115D01*
X128840714Y-142140115D02*
X129221666Y-142521068D01*
X128840714Y-141806782D02*
X129507380Y-141568687D01*
X128840714Y-141330592D02*
X129507380Y-141568687D01*
X129745476Y-141663925D01*
X129793095Y-141711544D01*
X129840714Y-141806782D01*
%TO.C,J14*%
X152738095Y-131250000D02*
X152642857Y-131202380D01*
X152500000Y-131202380D01*
X152357142Y-131250000D01*
X152261904Y-131345238D01*
X152214285Y-131440476D01*
X152166666Y-131630952D01*
X152166666Y-131773809D01*
X152214285Y-131964285D01*
X152261904Y-132059523D01*
X152357142Y-132154761D01*
X152500000Y-132202380D01*
X152595238Y-132202380D01*
X152738095Y-132154761D01*
X152785714Y-132107142D01*
X152785714Y-131773809D01*
X152595238Y-131773809D01*
X153214285Y-132202380D02*
X153214285Y-131202380D01*
X153785714Y-132202380D01*
X153785714Y-131202380D01*
X154261904Y-132202380D02*
X154261904Y-131202380D01*
X154500000Y-131202380D01*
X154642857Y-131250000D01*
X154738095Y-131345238D01*
X154785714Y-131440476D01*
X154833333Y-131630952D01*
X154833333Y-131773809D01*
X154785714Y-131964285D01*
X154738095Y-132059523D01*
X154642857Y-132154761D01*
X154500000Y-132202380D01*
X154261904Y-132202380D01*
%TO.C,J12*%
X97238095Y-102500000D02*
X97142857Y-102452380D01*
X97000000Y-102452380D01*
X96857142Y-102500000D01*
X96761904Y-102595238D01*
X96714285Y-102690476D01*
X96666666Y-102880952D01*
X96666666Y-103023809D01*
X96714285Y-103214285D01*
X96761904Y-103309523D01*
X96857142Y-103404761D01*
X97000000Y-103452380D01*
X97095238Y-103452380D01*
X97238095Y-103404761D01*
X97285714Y-103357142D01*
X97285714Y-103023809D01*
X97095238Y-103023809D01*
X97714285Y-103452380D02*
X97714285Y-102452380D01*
X98285714Y-103452380D01*
X98285714Y-102452380D01*
X98761904Y-103452380D02*
X98761904Y-102452380D01*
X99000000Y-102452380D01*
X99142857Y-102500000D01*
X99238095Y-102595238D01*
X99285714Y-102690476D01*
X99333333Y-102880952D01*
X99333333Y-103023809D01*
X99285714Y-103214285D01*
X99238095Y-103309523D01*
X99142857Y-103404761D01*
X99000000Y-103452380D01*
X98761904Y-103452380D01*
%TO.C,J8*%
X127095238Y-68750000D02*
X127000000Y-68702380D01*
X126857142Y-68702380D01*
X126714285Y-68750000D01*
X126619047Y-68845238D01*
X126571428Y-68940476D01*
X126523809Y-69130952D01*
X126523809Y-69273809D01*
X126571428Y-69464285D01*
X126619047Y-69559523D01*
X126714285Y-69654761D01*
X126857142Y-69702380D01*
X126952380Y-69702380D01*
X127095238Y-69654761D01*
X127142857Y-69607142D01*
X127142857Y-69273809D01*
X126952380Y-69273809D01*
X127571428Y-69702380D02*
X127571428Y-68702380D01*
X127952380Y-68702380D01*
X128047619Y-68750000D01*
X128095238Y-68797619D01*
X128142857Y-68892857D01*
X128142857Y-69035714D01*
X128095238Y-69130952D01*
X128047619Y-69178571D01*
X127952380Y-69226190D01*
X127571428Y-69226190D01*
X128571428Y-69702380D02*
X128571428Y-68702380D01*
X129238095Y-68702380D02*
X129428571Y-68702380D01*
X129523809Y-68750000D01*
X129619047Y-68845238D01*
X129666666Y-69035714D01*
X129666666Y-69369047D01*
X129619047Y-69559523D01*
X129523809Y-69654761D01*
X129428571Y-69702380D01*
X129238095Y-69702380D01*
X129142857Y-69654761D01*
X129047619Y-69559523D01*
X129000000Y-69369047D01*
X129000000Y-69035714D01*
X129047619Y-68845238D01*
X129142857Y-68750000D01*
X129238095Y-68702380D01*
X130047619Y-69654761D02*
X130142857Y-69702380D01*
X130333333Y-69702380D01*
X130428571Y-69654761D01*
X130476190Y-69559523D01*
X130476190Y-69511904D01*
X130428571Y-69416666D01*
X130333333Y-69369047D01*
X130190476Y-69369047D01*
X130095238Y-69321428D01*
X130047619Y-69226190D01*
X130047619Y-69178571D01*
X130095238Y-69083333D01*
X130190476Y-69035714D01*
X130333333Y-69035714D01*
X130428571Y-69083333D01*
%TO.C,C1*%
X142583333Y-151857142D02*
X142535714Y-151904761D01*
X142392857Y-151952380D01*
X142297619Y-151952380D01*
X142154761Y-151904761D01*
X142059523Y-151809523D01*
X142011904Y-151714285D01*
X141964285Y-151523809D01*
X141964285Y-151380952D01*
X142011904Y-151190476D01*
X142059523Y-151095238D01*
X142154761Y-151000000D01*
X142297619Y-150952380D01*
X142392857Y-150952380D01*
X142535714Y-151000000D01*
X142583333Y-151047619D01*
X143535714Y-151952380D02*
X142964285Y-151952380D01*
X143250000Y-151952380D02*
X143250000Y-150952380D01*
X143154761Y-151095238D01*
X143059523Y-151190476D01*
X142964285Y-151238095D01*
%TO.C,J5*%
X95488095Y-62500000D02*
X95392857Y-62452380D01*
X95250000Y-62452380D01*
X95107142Y-62500000D01*
X95011904Y-62595238D01*
X94964285Y-62690476D01*
X94916666Y-62880952D01*
X94916666Y-63023809D01*
X94964285Y-63214285D01*
X95011904Y-63309523D01*
X95107142Y-63404761D01*
X95250000Y-63452380D01*
X95345238Y-63452380D01*
X95488095Y-63404761D01*
X95535714Y-63357142D01*
X95535714Y-63023809D01*
X95345238Y-63023809D01*
X95964285Y-63452380D02*
X95964285Y-62452380D01*
X96535714Y-63452380D01*
X96535714Y-62452380D01*
X97011904Y-63452380D02*
X97011904Y-62452380D01*
X97250000Y-62452380D01*
X97392857Y-62500000D01*
X97488095Y-62595238D01*
X97535714Y-62690476D01*
X97583333Y-62880952D01*
X97583333Y-63023809D01*
X97535714Y-63214285D01*
X97488095Y-63309523D01*
X97392857Y-63404761D01*
X97250000Y-63452380D01*
X97011904Y-63452380D01*
%TO.C,U2*%
X126238095Y-122202380D02*
X126238095Y-123011904D01*
X126285714Y-123107142D01*
X126333333Y-123154761D01*
X126428571Y-123202380D01*
X126619047Y-123202380D01*
X126714285Y-123154761D01*
X126761904Y-123107142D01*
X126809523Y-123011904D01*
X126809523Y-122202380D01*
X127238095Y-122297619D02*
X127285714Y-122250000D01*
X127380952Y-122202380D01*
X127619047Y-122202380D01*
X127714285Y-122250000D01*
X127761904Y-122297619D01*
X127809523Y-122392857D01*
X127809523Y-122488095D01*
X127761904Y-122630952D01*
X127190476Y-123202380D01*
X127809523Y-123202380D01*
X120357142Y-126952380D02*
X120690476Y-127952380D01*
X121023809Y-126952380D01*
X121500000Y-127952380D02*
X121404761Y-127904761D01*
X121357142Y-127857142D01*
X121309523Y-127761904D01*
X121309523Y-127476190D01*
X121357142Y-127380952D01*
X121404761Y-127333333D01*
X121500000Y-127285714D01*
X121642857Y-127285714D01*
X121738095Y-127333333D01*
X121785714Y-127380952D01*
X121833333Y-127476190D01*
X121833333Y-127761904D01*
X121785714Y-127857142D01*
X121738095Y-127904761D01*
X121642857Y-127952380D01*
X121500000Y-127952380D01*
X122404761Y-127952380D02*
X122309523Y-127904761D01*
X122261904Y-127809523D01*
X122261904Y-126952380D01*
X122642857Y-127285714D02*
X123023809Y-127285714D01*
X122785714Y-126952380D02*
X122785714Y-127809523D01*
X122833333Y-127904761D01*
X122928571Y-127952380D01*
X123023809Y-127952380D01*
X123785714Y-127952380D02*
X123785714Y-127428571D01*
X123738095Y-127333333D01*
X123642857Y-127285714D01*
X123452380Y-127285714D01*
X123357142Y-127333333D01*
X123785714Y-127904761D02*
X123690476Y-127952380D01*
X123452380Y-127952380D01*
X123357142Y-127904761D01*
X123309523Y-127809523D01*
X123309523Y-127714285D01*
X123357142Y-127619047D01*
X123452380Y-127571428D01*
X123690476Y-127571428D01*
X123785714Y-127523809D01*
X124690476Y-127285714D02*
X124690476Y-128095238D01*
X124642857Y-128190476D01*
X124595238Y-128238095D01*
X124500000Y-128285714D01*
X124357142Y-128285714D01*
X124261904Y-128238095D01*
X124690476Y-127904761D02*
X124595238Y-127952380D01*
X124404761Y-127952380D01*
X124309523Y-127904761D01*
X124261904Y-127857142D01*
X124214285Y-127761904D01*
X124214285Y-127476190D01*
X124261904Y-127380952D01*
X124309523Y-127333333D01*
X124404761Y-127285714D01*
X124595238Y-127285714D01*
X124690476Y-127333333D01*
X125547619Y-127904761D02*
X125452380Y-127952380D01*
X125261904Y-127952380D01*
X125166666Y-127904761D01*
X125119047Y-127809523D01*
X125119047Y-127428571D01*
X125166666Y-127333333D01*
X125261904Y-127285714D01*
X125452380Y-127285714D01*
X125547619Y-127333333D01*
X125595238Y-127428571D01*
X125595238Y-127523809D01*
X125119047Y-127619047D01*
X127357142Y-127952380D02*
X127023809Y-127476190D01*
X126785714Y-127952380D02*
X126785714Y-126952380D01*
X127166666Y-126952380D01*
X127261904Y-127000000D01*
X127309523Y-127047619D01*
X127357142Y-127142857D01*
X127357142Y-127285714D01*
X127309523Y-127380952D01*
X127261904Y-127428571D01*
X127166666Y-127476190D01*
X126785714Y-127476190D01*
X128166666Y-127904761D02*
X128071428Y-127952380D01*
X127880952Y-127952380D01*
X127785714Y-127904761D01*
X127738095Y-127809523D01*
X127738095Y-127428571D01*
X127785714Y-127333333D01*
X127880952Y-127285714D01*
X128071428Y-127285714D01*
X128166666Y-127333333D01*
X128214285Y-127428571D01*
X128214285Y-127523809D01*
X127738095Y-127619047D01*
X129071428Y-127285714D02*
X129071428Y-128095238D01*
X129023809Y-128190476D01*
X128976190Y-128238095D01*
X128880952Y-128285714D01*
X128738095Y-128285714D01*
X128642857Y-128238095D01*
X129071428Y-127904761D02*
X128976190Y-127952380D01*
X128785714Y-127952380D01*
X128690476Y-127904761D01*
X128642857Y-127857142D01*
X128595238Y-127761904D01*
X128595238Y-127476190D01*
X128642857Y-127380952D01*
X128690476Y-127333333D01*
X128785714Y-127285714D01*
X128976190Y-127285714D01*
X129071428Y-127333333D01*
X129976190Y-127285714D02*
X129976190Y-127952380D01*
X129547619Y-127285714D02*
X129547619Y-127809523D01*
X129595238Y-127904761D01*
X129690476Y-127952380D01*
X129833333Y-127952380D01*
X129928571Y-127904761D01*
X129976190Y-127857142D01*
X130595238Y-127952380D02*
X130500000Y-127904761D01*
X130452380Y-127809523D01*
X130452380Y-126952380D01*
X131404761Y-127952380D02*
X131404761Y-127428571D01*
X131357142Y-127333333D01*
X131261904Y-127285714D01*
X131071428Y-127285714D01*
X130976190Y-127333333D01*
X131404761Y-127904761D02*
X131309523Y-127952380D01*
X131071428Y-127952380D01*
X130976190Y-127904761D01*
X130928571Y-127809523D01*
X130928571Y-127714285D01*
X130976190Y-127619047D01*
X131071428Y-127571428D01*
X131309523Y-127571428D01*
X131404761Y-127523809D01*
X131738095Y-127285714D02*
X132119047Y-127285714D01*
X131880952Y-126952380D02*
X131880952Y-127809523D01*
X131928571Y-127904761D01*
X132023809Y-127952380D01*
X132119047Y-127952380D01*
X132595238Y-127952380D02*
X132500000Y-127904761D01*
X132452380Y-127857142D01*
X132404761Y-127761904D01*
X132404761Y-127476190D01*
X132452380Y-127380952D01*
X132500000Y-127333333D01*
X132595238Y-127285714D01*
X132738095Y-127285714D01*
X132833333Y-127333333D01*
X132880952Y-127380952D01*
X132928571Y-127476190D01*
X132928571Y-127761904D01*
X132880952Y-127857142D01*
X132833333Y-127904761D01*
X132738095Y-127952380D01*
X132595238Y-127952380D01*
X133357142Y-127952380D02*
X133357142Y-127285714D01*
X133357142Y-127476190D02*
X133404761Y-127380952D01*
X133452380Y-127333333D01*
X133547619Y-127285714D01*
X133642857Y-127285714D01*
%TO.C,J2*%
X160177380Y-109432142D02*
X159177380Y-109432142D01*
X159653571Y-109432142D02*
X159653571Y-108860714D01*
X160177380Y-108860714D02*
X159177380Y-108860714D01*
X160082142Y-107813095D02*
X160129761Y-107860714D01*
X160177380Y-108003571D01*
X160177380Y-108098809D01*
X160129761Y-108241666D01*
X160034523Y-108336904D01*
X159939285Y-108384523D01*
X159748809Y-108432142D01*
X159605952Y-108432142D01*
X159415476Y-108384523D01*
X159320238Y-108336904D01*
X159225000Y-108241666D01*
X159177380Y-108098809D01*
X159177380Y-108003571D01*
X159225000Y-107860714D01*
X159272619Y-107813095D01*
X159796428Y-107384523D02*
X159796428Y-106622619D01*
X159177380Y-105955952D02*
X159177380Y-105860714D01*
X159225000Y-105765476D01*
X159272619Y-105717857D01*
X159367857Y-105670238D01*
X159558333Y-105622619D01*
X159796428Y-105622619D01*
X159986904Y-105670238D01*
X160082142Y-105717857D01*
X160129761Y-105765476D01*
X160177380Y-105860714D01*
X160177380Y-105955952D01*
X160129761Y-106051190D01*
X160082142Y-106098809D01*
X159986904Y-106146428D01*
X159796428Y-106194047D01*
X159558333Y-106194047D01*
X159367857Y-106146428D01*
X159272619Y-106098809D01*
X159225000Y-106051190D01*
X159177380Y-105955952D01*
X159177380Y-104717857D02*
X159177380Y-105194047D01*
X159653571Y-105241666D01*
X159605952Y-105194047D01*
X159558333Y-105098809D01*
X159558333Y-104860714D01*
X159605952Y-104765476D01*
X159653571Y-104717857D01*
X159748809Y-104670238D01*
X159986904Y-104670238D01*
X160082142Y-104717857D01*
X160129761Y-104765476D01*
X160177380Y-104860714D01*
X160177380Y-105098809D01*
X160129761Y-105194047D01*
X160082142Y-105241666D01*
%TO.C,J4*%
X143797619Y-75928571D02*
X143940476Y-75976190D01*
X143988095Y-76023809D01*
X144035714Y-76119047D01*
X144035714Y-76261904D01*
X143988095Y-76357142D01*
X143940476Y-76404761D01*
X143845238Y-76452380D01*
X143464285Y-76452380D01*
X143464285Y-75452380D01*
X143797619Y-75452380D01*
X143892857Y-75500000D01*
X143940476Y-75547619D01*
X143988095Y-75642857D01*
X143988095Y-75738095D01*
X143940476Y-75833333D01*
X143892857Y-75880952D01*
X143797619Y-75928571D01*
X143464285Y-75928571D01*
X144892857Y-76452380D02*
X144892857Y-75928571D01*
X144845238Y-75833333D01*
X144750000Y-75785714D01*
X144559523Y-75785714D01*
X144464285Y-75833333D01*
X144892857Y-76404761D02*
X144797619Y-76452380D01*
X144559523Y-76452380D01*
X144464285Y-76404761D01*
X144416666Y-76309523D01*
X144416666Y-76214285D01*
X144464285Y-76119047D01*
X144559523Y-76071428D01*
X144797619Y-76071428D01*
X144892857Y-76023809D01*
X145226190Y-75785714D02*
X145607142Y-75785714D01*
X145369047Y-75452380D02*
X145369047Y-76309523D01*
X145416666Y-76404761D01*
X145511904Y-76452380D01*
X145607142Y-76452380D01*
X145797619Y-75785714D02*
X146178571Y-75785714D01*
X145940476Y-75452380D02*
X145940476Y-76309523D01*
X145988095Y-76404761D01*
X146083333Y-76452380D01*
X146178571Y-76452380D01*
%TO.C,J1*%
X100726190Y-137202380D02*
X101059523Y-138202380D01*
X101392857Y-137202380D01*
X101726190Y-138202380D02*
X101726190Y-137535714D01*
X101726190Y-137202380D02*
X101678571Y-137250000D01*
X101726190Y-137297619D01*
X101773809Y-137250000D01*
X101726190Y-137202380D01*
X101726190Y-137297619D01*
X102202380Y-137535714D02*
X102202380Y-138202380D01*
X102202380Y-137630952D02*
X102250000Y-137583333D01*
X102345238Y-137535714D01*
X102488095Y-137535714D01*
X102583333Y-137583333D01*
X102630952Y-137678571D01*
X102630952Y-138202380D01*
%TO.C,J6*%
X93201190Y-139642380D02*
X93534523Y-140642380D01*
X93867857Y-139642380D01*
X94201190Y-140642380D02*
X94201190Y-139975714D01*
X94201190Y-139642380D02*
X94153571Y-139690000D01*
X94201190Y-139737619D01*
X94248809Y-139690000D01*
X94201190Y-139642380D01*
X94201190Y-139737619D01*
X94677380Y-139975714D02*
X94677380Y-140642380D01*
X94677380Y-140070952D02*
X94725000Y-140023333D01*
X94820238Y-139975714D01*
X94963095Y-139975714D01*
X95058333Y-140023333D01*
X95105952Y-140118571D01*
X95105952Y-140642380D01*
%TO.C,R1*%
X155273333Y-145122380D02*
X154940000Y-144646190D01*
X154701904Y-145122380D02*
X154701904Y-144122380D01*
X155082857Y-144122380D01*
X155178095Y-144170000D01*
X155225714Y-144217619D01*
X155273333Y-144312857D01*
X155273333Y-144455714D01*
X155225714Y-144550952D01*
X155178095Y-144598571D01*
X155082857Y-144646190D01*
X154701904Y-144646190D01*
X156225714Y-145122380D02*
X155654285Y-145122380D01*
X155940000Y-145122380D02*
X155940000Y-144122380D01*
X155844761Y-144265238D01*
X155749523Y-144360476D01*
X155654285Y-144408095D01*
%TO.C,LB1*%
X105058333Y-108452380D02*
X104582142Y-108452380D01*
X104582142Y-107452380D01*
X105725000Y-107928571D02*
X105867857Y-107976190D01*
X105915476Y-108023809D01*
X105963095Y-108119047D01*
X105963095Y-108261904D01*
X105915476Y-108357142D01*
X105867857Y-108404761D01*
X105772619Y-108452380D01*
X105391666Y-108452380D01*
X105391666Y-107452380D01*
X105725000Y-107452380D01*
X105820238Y-107500000D01*
X105867857Y-107547619D01*
X105915476Y-107642857D01*
X105915476Y-107738095D01*
X105867857Y-107833333D01*
X105820238Y-107880952D01*
X105725000Y-107928571D01*
X105391666Y-107928571D01*
X106915476Y-108452380D02*
X106344047Y-108452380D01*
X106629761Y-108452380D02*
X106629761Y-107452380D01*
X106534523Y-107595238D01*
X106439285Y-107690476D01*
X106344047Y-107738095D01*
X103452380Y-118095238D02*
X102452380Y-118095238D01*
X102452380Y-117857142D01*
X102500000Y-117714285D01*
X102595238Y-117619047D01*
X102690476Y-117571428D01*
X102880952Y-117523809D01*
X103023809Y-117523809D01*
X103214285Y-117571428D01*
X103309523Y-117619047D01*
X103404761Y-117714285D01*
X103452380Y-117857142D01*
X103452380Y-118095238D01*
X103452380Y-116523809D02*
X102976190Y-116857142D01*
X103452380Y-117095238D02*
X102452380Y-117095238D01*
X102452380Y-116714285D01*
X102500000Y-116619047D01*
X102547619Y-116571428D01*
X102642857Y-116523809D01*
X102785714Y-116523809D01*
X102880952Y-116571428D01*
X102928571Y-116619047D01*
X102976190Y-116714285D01*
X102976190Y-117095238D01*
X102452380Y-116238095D02*
X103452380Y-115904761D01*
X102452380Y-115571428D01*
X102880952Y-115095238D02*
X102833333Y-115190476D01*
X102785714Y-115238095D01*
X102690476Y-115285714D01*
X102642857Y-115285714D01*
X102547619Y-115238095D01*
X102500000Y-115190476D01*
X102452380Y-115095238D01*
X102452380Y-114904761D01*
X102500000Y-114809523D01*
X102547619Y-114761904D01*
X102642857Y-114714285D01*
X102690476Y-114714285D01*
X102785714Y-114761904D01*
X102833333Y-114809523D01*
X102880952Y-114904761D01*
X102880952Y-115095238D01*
X102928571Y-115190476D01*
X102976190Y-115238095D01*
X103071428Y-115285714D01*
X103261904Y-115285714D01*
X103357142Y-115238095D01*
X103404761Y-115190476D01*
X103452380Y-115095238D01*
X103452380Y-114904761D01*
X103404761Y-114809523D01*
X103357142Y-114761904D01*
X103261904Y-114714285D01*
X103071428Y-114714285D01*
X102976190Y-114761904D01*
X102928571Y-114809523D01*
X102880952Y-114904761D01*
X102880952Y-114142857D02*
X102833333Y-114238095D01*
X102785714Y-114285714D01*
X102690476Y-114333333D01*
X102642857Y-114333333D01*
X102547619Y-114285714D01*
X102500000Y-114238095D01*
X102452380Y-114142857D01*
X102452380Y-113952380D01*
X102500000Y-113857142D01*
X102547619Y-113809523D01*
X102642857Y-113761904D01*
X102690476Y-113761904D01*
X102785714Y-113809523D01*
X102833333Y-113857142D01*
X102880952Y-113952380D01*
X102880952Y-114142857D01*
X102928571Y-114238095D01*
X102976190Y-114285714D01*
X103071428Y-114333333D01*
X103261904Y-114333333D01*
X103357142Y-114285714D01*
X103404761Y-114238095D01*
X103452380Y-114142857D01*
X103452380Y-113952380D01*
X103404761Y-113857142D01*
X103357142Y-113809523D01*
X103261904Y-113761904D01*
X103071428Y-113761904D01*
X102976190Y-113809523D01*
X102928571Y-113857142D01*
X102880952Y-113952380D01*
X102452380Y-113428571D02*
X102452380Y-112761904D01*
X103452380Y-113190476D01*
X103452380Y-111857142D02*
X103452380Y-112428571D01*
X103452380Y-112142857D02*
X102452380Y-112142857D01*
X102595238Y-112238095D01*
X102690476Y-112333333D01*
X102738095Y-112428571D01*
%TO.C,LF1*%
X105129761Y-84452380D02*
X104653571Y-84452380D01*
X104653571Y-83452380D01*
X105796428Y-83928571D02*
X105463095Y-83928571D01*
X105463095Y-84452380D02*
X105463095Y-83452380D01*
X105939285Y-83452380D01*
X106844047Y-84452380D02*
X106272619Y-84452380D01*
X106558333Y-84452380D02*
X106558333Y-83452380D01*
X106463095Y-83595238D01*
X106367857Y-83690476D01*
X106272619Y-83738095D01*
X103452380Y-94095238D02*
X102452380Y-94095238D01*
X102452380Y-93857142D01*
X102500000Y-93714285D01*
X102595238Y-93619047D01*
X102690476Y-93571428D01*
X102880952Y-93523809D01*
X103023809Y-93523809D01*
X103214285Y-93571428D01*
X103309523Y-93619047D01*
X103404761Y-93714285D01*
X103452380Y-93857142D01*
X103452380Y-94095238D01*
X103452380Y-92523809D02*
X102976190Y-92857142D01*
X103452380Y-93095238D02*
X102452380Y-93095238D01*
X102452380Y-92714285D01*
X102500000Y-92619047D01*
X102547619Y-92571428D01*
X102642857Y-92523809D01*
X102785714Y-92523809D01*
X102880952Y-92571428D01*
X102928571Y-92619047D01*
X102976190Y-92714285D01*
X102976190Y-93095238D01*
X102452380Y-92238095D02*
X103452380Y-91904761D01*
X102452380Y-91571428D01*
X102880952Y-91095238D02*
X102833333Y-91190476D01*
X102785714Y-91238095D01*
X102690476Y-91285714D01*
X102642857Y-91285714D01*
X102547619Y-91238095D01*
X102500000Y-91190476D01*
X102452380Y-91095238D01*
X102452380Y-90904761D01*
X102500000Y-90809523D01*
X102547619Y-90761904D01*
X102642857Y-90714285D01*
X102690476Y-90714285D01*
X102785714Y-90761904D01*
X102833333Y-90809523D01*
X102880952Y-90904761D01*
X102880952Y-91095238D01*
X102928571Y-91190476D01*
X102976190Y-91238095D01*
X103071428Y-91285714D01*
X103261904Y-91285714D01*
X103357142Y-91238095D01*
X103404761Y-91190476D01*
X103452380Y-91095238D01*
X103452380Y-90904761D01*
X103404761Y-90809523D01*
X103357142Y-90761904D01*
X103261904Y-90714285D01*
X103071428Y-90714285D01*
X102976190Y-90761904D01*
X102928571Y-90809523D01*
X102880952Y-90904761D01*
X102880952Y-90142857D02*
X102833333Y-90238095D01*
X102785714Y-90285714D01*
X102690476Y-90333333D01*
X102642857Y-90333333D01*
X102547619Y-90285714D01*
X102500000Y-90238095D01*
X102452380Y-90142857D01*
X102452380Y-89952380D01*
X102500000Y-89857142D01*
X102547619Y-89809523D01*
X102642857Y-89761904D01*
X102690476Y-89761904D01*
X102785714Y-89809523D01*
X102833333Y-89857142D01*
X102880952Y-89952380D01*
X102880952Y-90142857D01*
X102928571Y-90238095D01*
X102976190Y-90285714D01*
X103071428Y-90333333D01*
X103261904Y-90333333D01*
X103357142Y-90285714D01*
X103404761Y-90238095D01*
X103452380Y-90142857D01*
X103452380Y-89952380D01*
X103404761Y-89857142D01*
X103357142Y-89809523D01*
X103261904Y-89761904D01*
X103071428Y-89761904D01*
X102976190Y-89809523D01*
X102928571Y-89857142D01*
X102880952Y-89952380D01*
X102452380Y-89428571D02*
X102452380Y-88761904D01*
X103452380Y-89190476D01*
X103452380Y-87857142D02*
X103452380Y-88428571D01*
X103452380Y-88142857D02*
X102452380Y-88142857D01*
X102595238Y-88238095D01*
X102690476Y-88333333D01*
X102738095Y-88428571D01*
%TO.C,J3*%
X125880952Y-134452380D02*
X125309523Y-134452380D01*
X125595238Y-134452380D02*
X125595238Y-133452380D01*
X125500000Y-133595238D01*
X125404761Y-133690476D01*
X125309523Y-133738095D01*
X126500000Y-133452380D02*
X126595238Y-133452380D01*
X126690476Y-133500000D01*
X126738095Y-133547619D01*
X126785714Y-133642857D01*
X126833333Y-133833333D01*
X126833333Y-134071428D01*
X126785714Y-134261904D01*
X126738095Y-134357142D01*
X126690476Y-134404761D01*
X126595238Y-134452380D01*
X126500000Y-134452380D01*
X126404761Y-134404761D01*
X126357142Y-134357142D01*
X126309523Y-134261904D01*
X126261904Y-134071428D01*
X126261904Y-133833333D01*
X126309523Y-133642857D01*
X126357142Y-133547619D01*
X126404761Y-133500000D01*
X126500000Y-133452380D01*
X127119047Y-133452380D02*
X127452380Y-134452380D01*
X127785714Y-133452380D01*
%TO.C,J10*%
X154738095Y-102250000D02*
X154642857Y-102202380D01*
X154500000Y-102202380D01*
X154357142Y-102250000D01*
X154261904Y-102345238D01*
X154214285Y-102440476D01*
X154166666Y-102630952D01*
X154166666Y-102773809D01*
X154214285Y-102964285D01*
X154261904Y-103059523D01*
X154357142Y-103154761D01*
X154500000Y-103202380D01*
X154595238Y-103202380D01*
X154738095Y-103154761D01*
X154785714Y-103107142D01*
X154785714Y-102773809D01*
X154595238Y-102773809D01*
X155214285Y-103202380D02*
X155214285Y-102202380D01*
X155785714Y-103202380D01*
X155785714Y-102202380D01*
X156261904Y-103202380D02*
X156261904Y-102202380D01*
X156500000Y-102202380D01*
X156642857Y-102250000D01*
X156738095Y-102345238D01*
X156785714Y-102440476D01*
X156833333Y-102630952D01*
X156833333Y-102773809D01*
X156785714Y-102964285D01*
X156738095Y-103059523D01*
X156642857Y-103154761D01*
X156500000Y-103202380D01*
X156261904Y-103202380D01*
%TO.C,RB1*%
X147108333Y-108432380D02*
X146775000Y-107956190D01*
X146536904Y-108432380D02*
X146536904Y-107432380D01*
X146917857Y-107432380D01*
X147013095Y-107480000D01*
X147060714Y-107527619D01*
X147108333Y-107622857D01*
X147108333Y-107765714D01*
X147060714Y-107860952D01*
X147013095Y-107908571D01*
X146917857Y-107956190D01*
X146536904Y-107956190D01*
X147870238Y-107908571D02*
X148013095Y-107956190D01*
X148060714Y-108003809D01*
X148108333Y-108099047D01*
X148108333Y-108241904D01*
X148060714Y-108337142D01*
X148013095Y-108384761D01*
X147917857Y-108432380D01*
X147536904Y-108432380D01*
X147536904Y-107432380D01*
X147870238Y-107432380D01*
X147965476Y-107480000D01*
X148013095Y-107527619D01*
X148060714Y-107622857D01*
X148060714Y-107718095D01*
X148013095Y-107813333D01*
X147965476Y-107860952D01*
X147870238Y-107908571D01*
X147536904Y-107908571D01*
X149060714Y-108432380D02*
X148489285Y-108432380D01*
X148775000Y-108432380D02*
X148775000Y-107432380D01*
X148679761Y-107575238D01*
X148584523Y-107670476D01*
X148489285Y-107718095D01*
X145702380Y-117845238D02*
X144702380Y-117845238D01*
X144702380Y-117607142D01*
X144750000Y-117464285D01*
X144845238Y-117369047D01*
X144940476Y-117321428D01*
X145130952Y-117273809D01*
X145273809Y-117273809D01*
X145464285Y-117321428D01*
X145559523Y-117369047D01*
X145654761Y-117464285D01*
X145702380Y-117607142D01*
X145702380Y-117845238D01*
X145702380Y-116273809D02*
X145226190Y-116607142D01*
X145702380Y-116845238D02*
X144702380Y-116845238D01*
X144702380Y-116464285D01*
X144750000Y-116369047D01*
X144797619Y-116321428D01*
X144892857Y-116273809D01*
X145035714Y-116273809D01*
X145130952Y-116321428D01*
X145178571Y-116369047D01*
X145226190Y-116464285D01*
X145226190Y-116845238D01*
X144702380Y-115988095D02*
X145702380Y-115654761D01*
X144702380Y-115321428D01*
X145130952Y-114845238D02*
X145083333Y-114940476D01*
X145035714Y-114988095D01*
X144940476Y-115035714D01*
X144892857Y-115035714D01*
X144797619Y-114988095D01*
X144750000Y-114940476D01*
X144702380Y-114845238D01*
X144702380Y-114654761D01*
X144750000Y-114559523D01*
X144797619Y-114511904D01*
X144892857Y-114464285D01*
X144940476Y-114464285D01*
X145035714Y-114511904D01*
X145083333Y-114559523D01*
X145130952Y-114654761D01*
X145130952Y-114845238D01*
X145178571Y-114940476D01*
X145226190Y-114988095D01*
X145321428Y-115035714D01*
X145511904Y-115035714D01*
X145607142Y-114988095D01*
X145654761Y-114940476D01*
X145702380Y-114845238D01*
X145702380Y-114654761D01*
X145654761Y-114559523D01*
X145607142Y-114511904D01*
X145511904Y-114464285D01*
X145321428Y-114464285D01*
X145226190Y-114511904D01*
X145178571Y-114559523D01*
X145130952Y-114654761D01*
X145130952Y-113892857D02*
X145083333Y-113988095D01*
X145035714Y-114035714D01*
X144940476Y-114083333D01*
X144892857Y-114083333D01*
X144797619Y-114035714D01*
X144750000Y-113988095D01*
X144702380Y-113892857D01*
X144702380Y-113702380D01*
X144750000Y-113607142D01*
X144797619Y-113559523D01*
X144892857Y-113511904D01*
X144940476Y-113511904D01*
X145035714Y-113559523D01*
X145083333Y-113607142D01*
X145130952Y-113702380D01*
X145130952Y-113892857D01*
X145178571Y-113988095D01*
X145226190Y-114035714D01*
X145321428Y-114083333D01*
X145511904Y-114083333D01*
X145607142Y-114035714D01*
X145654761Y-113988095D01*
X145702380Y-113892857D01*
X145702380Y-113702380D01*
X145654761Y-113607142D01*
X145607142Y-113559523D01*
X145511904Y-113511904D01*
X145321428Y-113511904D01*
X145226190Y-113559523D01*
X145178571Y-113607142D01*
X145130952Y-113702380D01*
X144702380Y-113178571D02*
X144702380Y-112511904D01*
X145702380Y-112940476D01*
X145702380Y-111607142D02*
X145702380Y-112178571D01*
X145702380Y-111892857D02*
X144702380Y-111892857D01*
X144845238Y-111988095D01*
X144940476Y-112083333D01*
X144988095Y-112178571D01*
%TO.C,U1*%
X125988095Y-104479880D02*
X125988095Y-105289404D01*
X126035714Y-105384642D01*
X126083333Y-105432261D01*
X126178571Y-105479880D01*
X126369047Y-105479880D01*
X126464285Y-105432261D01*
X126511904Y-105384642D01*
X126559523Y-105289404D01*
X126559523Y-104479880D01*
X127559523Y-105479880D02*
X126988095Y-105479880D01*
X127273809Y-105479880D02*
X127273809Y-104479880D01*
X127178571Y-104622738D01*
X127083333Y-104717976D01*
X126988095Y-104765595D01*
X138847722Y-127298092D02*
X138766910Y-127325029D01*
X138686097Y-127405841D01*
X138632223Y-127513591D01*
X138632223Y-127621341D01*
X138659160Y-127702153D01*
X138739972Y-127836840D01*
X138820784Y-127917652D01*
X138955471Y-127998464D01*
X139036284Y-128025402D01*
X139144033Y-128025402D01*
X139251783Y-127971527D01*
X139305658Y-127917652D01*
X139359532Y-127809902D01*
X139359532Y-127756028D01*
X139170971Y-127567466D01*
X139063221Y-127675215D01*
X139655844Y-127567466D02*
X139090158Y-127001780D01*
X139305658Y-126786281D01*
X139386470Y-126759344D01*
X139440345Y-126759344D01*
X139521157Y-126786281D01*
X139601969Y-126867093D01*
X139628906Y-126947906D01*
X139628906Y-127001780D01*
X139601969Y-127082593D01*
X139386470Y-127298092D01*
X140517841Y-126705469D02*
X140194592Y-127028718D01*
X140356216Y-126867093D02*
X139790531Y-126301408D01*
X139817468Y-126436095D01*
X139817468Y-126543845D01*
X139790531Y-126624657D01*
X140437028Y-125654910D02*
X140329279Y-125762660D01*
X140302341Y-125843472D01*
X140302341Y-125897347D01*
X140329279Y-126032034D01*
X140410091Y-126166721D01*
X140625590Y-126382220D01*
X140706402Y-126409158D01*
X140760277Y-126409158D01*
X140841089Y-126382220D01*
X140948839Y-126274471D01*
X140975776Y-126193658D01*
X140975776Y-126139784D01*
X140948839Y-126058971D01*
X140814152Y-125924284D01*
X140733340Y-125897347D01*
X140679465Y-125897347D01*
X140598653Y-125924284D01*
X140490903Y-126032034D01*
X140463966Y-126112846D01*
X140463966Y-126166721D01*
X140490903Y-126247533D01*
X113236158Y-109275655D02*
X113155346Y-109302593D01*
X113074534Y-109383405D01*
X113020659Y-109491154D01*
X113020659Y-109598904D01*
X113047597Y-109679716D01*
X113128409Y-109814403D01*
X113209221Y-109895215D01*
X113343908Y-109976028D01*
X113424720Y-110002965D01*
X113532470Y-110002965D01*
X113640219Y-109949090D01*
X113694094Y-109895215D01*
X113747969Y-109787466D01*
X113747969Y-109733591D01*
X113559407Y-109545029D01*
X113451658Y-109652779D01*
X114044280Y-109545029D02*
X113478595Y-108979344D01*
X114367529Y-109221780D01*
X113801844Y-108656095D01*
X114636903Y-108952406D02*
X114071218Y-108386721D01*
X114205905Y-108252034D01*
X114313654Y-108198159D01*
X114421404Y-108198159D01*
X114502216Y-108225097D01*
X114636903Y-108305909D01*
X114717715Y-108386721D01*
X114798528Y-108521408D01*
X114825465Y-108602220D01*
X114825465Y-108709970D01*
X114771590Y-108817719D01*
X114636903Y-108952406D01*
X113263096Y-104168718D02*
X113182284Y-104195655D01*
X113101471Y-104276467D01*
X113047597Y-104384217D01*
X113047597Y-104491967D01*
X113074534Y-104572779D01*
X113155346Y-104707466D01*
X113236158Y-104788278D01*
X113370845Y-104869090D01*
X113451658Y-104896028D01*
X113559407Y-104896028D01*
X113667157Y-104842153D01*
X113721032Y-104788278D01*
X113774906Y-104680528D01*
X113774906Y-104626654D01*
X113586345Y-104438092D01*
X113478595Y-104545841D01*
X114071218Y-104438092D02*
X113505532Y-103872406D01*
X113721032Y-103656907D01*
X113801844Y-103629970D01*
X113855719Y-103629970D01*
X113936531Y-103656907D01*
X114017343Y-103737719D01*
X114044280Y-103818532D01*
X114044280Y-103872406D01*
X114017343Y-103953219D01*
X113801844Y-104168718D01*
X114394467Y-103468345D02*
X114313654Y-103495283D01*
X114259780Y-103495283D01*
X114178967Y-103468345D01*
X114152030Y-103441408D01*
X114125093Y-103360596D01*
X114125093Y-103306721D01*
X114152030Y-103225909D01*
X114259780Y-103118159D01*
X114340592Y-103091222D01*
X114394467Y-103091222D01*
X114475279Y-103118159D01*
X114502216Y-103145097D01*
X114529154Y-103225909D01*
X114529154Y-103279784D01*
X114502216Y-103360596D01*
X114394467Y-103468345D01*
X114367529Y-103549158D01*
X114367529Y-103603032D01*
X114394467Y-103683845D01*
X114502216Y-103791594D01*
X114583028Y-103818532D01*
X114636903Y-103818532D01*
X114717715Y-103791594D01*
X114825465Y-103683845D01*
X114852402Y-103603032D01*
X114852402Y-103549158D01*
X114825465Y-103468345D01*
X114717715Y-103360596D01*
X114636903Y-103333658D01*
X114583028Y-103333658D01*
X114502216Y-103360596D01*
X138847722Y-106978092D02*
X138766910Y-107005029D01*
X138686097Y-107085841D01*
X138632223Y-107193591D01*
X138632223Y-107301341D01*
X138659160Y-107382153D01*
X138739972Y-107516840D01*
X138820784Y-107597652D01*
X138955471Y-107678464D01*
X139036284Y-107705402D01*
X139144033Y-107705402D01*
X139251783Y-107651527D01*
X139305658Y-107597652D01*
X139359532Y-107489902D01*
X139359532Y-107436028D01*
X139170971Y-107247466D01*
X139063221Y-107355215D01*
X139655844Y-107247466D02*
X139090158Y-106681780D01*
X139305658Y-106466281D01*
X139386470Y-106439344D01*
X139440345Y-106439344D01*
X139521157Y-106466281D01*
X139601969Y-106547093D01*
X139628906Y-106627906D01*
X139628906Y-106681780D01*
X139601969Y-106762593D01*
X139386470Y-106978092D01*
X139682781Y-106196907D02*
X139682781Y-106143032D01*
X139709719Y-106062220D01*
X139844406Y-105927533D01*
X139925218Y-105900596D01*
X139979093Y-105900596D01*
X140059905Y-105927533D01*
X140113780Y-105981408D01*
X140167654Y-106089158D01*
X140167654Y-106735655D01*
X140517841Y-106385469D01*
X140221529Y-105658159D02*
X140221529Y-105604284D01*
X140248467Y-105523472D01*
X140383154Y-105388785D01*
X140463966Y-105361848D01*
X140517841Y-105361848D01*
X140598653Y-105388785D01*
X140652528Y-105442660D01*
X140706402Y-105550410D01*
X140706402Y-106196907D01*
X141056589Y-105846721D01*
X138836158Y-83875655D02*
X138755346Y-83902593D01*
X138674534Y-83983405D01*
X138620659Y-84091154D01*
X138620659Y-84198904D01*
X138647597Y-84279716D01*
X138728409Y-84414403D01*
X138809221Y-84495215D01*
X138943908Y-84576028D01*
X139024720Y-84602965D01*
X139132470Y-84602965D01*
X139240219Y-84549090D01*
X139294094Y-84495215D01*
X139347969Y-84387466D01*
X139347969Y-84333591D01*
X139159407Y-84145029D01*
X139051658Y-84252779D01*
X139644280Y-84145029D02*
X139078595Y-83579344D01*
X139967529Y-83821780D01*
X139401844Y-83256095D01*
X140236903Y-83552406D02*
X139671218Y-82986721D01*
X139805905Y-82852034D01*
X139913654Y-82798159D01*
X140021404Y-82798159D01*
X140102216Y-82825097D01*
X140236903Y-82905909D01*
X140317715Y-82986721D01*
X140398528Y-83121408D01*
X140425465Y-83202220D01*
X140425465Y-83309970D01*
X140371590Y-83417719D01*
X140236903Y-83552406D01*
X113236158Y-83875655D02*
X113155346Y-83902593D01*
X113074534Y-83983405D01*
X113020659Y-84091154D01*
X113020659Y-84198904D01*
X113047597Y-84279716D01*
X113128409Y-84414403D01*
X113209221Y-84495215D01*
X113343908Y-84576028D01*
X113424720Y-84602965D01*
X113532470Y-84602965D01*
X113640219Y-84549090D01*
X113694094Y-84495215D01*
X113747969Y-84387466D01*
X113747969Y-84333591D01*
X113559407Y-84145029D01*
X113451658Y-84252779D01*
X114044280Y-84145029D02*
X113478595Y-83579344D01*
X114367529Y-83821780D01*
X113801844Y-83256095D01*
X114636903Y-83552406D02*
X114071218Y-82986721D01*
X114205905Y-82852034D01*
X114313654Y-82798159D01*
X114421404Y-82798159D01*
X114502216Y-82825097D01*
X114636903Y-82905909D01*
X114717715Y-82986721D01*
X114798528Y-83121408D01*
X114825465Y-83202220D01*
X114825465Y-83309970D01*
X114771590Y-83417719D01*
X114636903Y-83552406D01*
X139588375Y-104720935D02*
X139130439Y-104640122D01*
X139265126Y-105044183D02*
X138699441Y-104478498D01*
X138914940Y-104262999D01*
X138995752Y-104236061D01*
X139049627Y-104236061D01*
X139130439Y-104262999D01*
X139211251Y-104343811D01*
X139238189Y-104424623D01*
X139238189Y-104478498D01*
X139211251Y-104559310D01*
X138995752Y-104774809D01*
X139265126Y-103912812D02*
X139723062Y-104370748D01*
X139803874Y-104397686D01*
X139857749Y-104397686D01*
X139938561Y-104370748D01*
X140046311Y-104262999D01*
X140073248Y-104182187D01*
X140073248Y-104128312D01*
X140046311Y-104047499D01*
X139588375Y-103589564D01*
X140423435Y-103885875D02*
X139857749Y-103320190D01*
X140746683Y-103562626D01*
X140180998Y-102996941D01*
X113263096Y-99088718D02*
X113182284Y-99115655D01*
X113101471Y-99196467D01*
X113047597Y-99304217D01*
X113047597Y-99411967D01*
X113074534Y-99492779D01*
X113155346Y-99627466D01*
X113236158Y-99708278D01*
X113370845Y-99789090D01*
X113451658Y-99816028D01*
X113559407Y-99816028D01*
X113667157Y-99762153D01*
X113721032Y-99708278D01*
X113774906Y-99600528D01*
X113774906Y-99546654D01*
X113586345Y-99358092D01*
X113478595Y-99465841D01*
X114071218Y-99358092D02*
X113505532Y-98792406D01*
X113721032Y-98576907D01*
X113801844Y-98549970D01*
X113855719Y-98549970D01*
X113936531Y-98576907D01*
X114017343Y-98657719D01*
X114044280Y-98738532D01*
X114044280Y-98792406D01*
X114017343Y-98873219D01*
X113801844Y-99088718D01*
X114313654Y-97984284D02*
X114205905Y-98092034D01*
X114178967Y-98172846D01*
X114178967Y-98226721D01*
X114205905Y-98361408D01*
X114286717Y-98496095D01*
X114502216Y-98711594D01*
X114583028Y-98738532D01*
X114636903Y-98738532D01*
X114717715Y-98711594D01*
X114825465Y-98603845D01*
X114852402Y-98523032D01*
X114852402Y-98469158D01*
X114825465Y-98388345D01*
X114690778Y-98253658D01*
X114609966Y-98226721D01*
X114556091Y-98226721D01*
X114475279Y-98253658D01*
X114367529Y-98361408D01*
X114340592Y-98442220D01*
X114340592Y-98496095D01*
X114367529Y-98576907D01*
X113263096Y-94008718D02*
X113182284Y-94035655D01*
X113101471Y-94116467D01*
X113047597Y-94224217D01*
X113047597Y-94331967D01*
X113074534Y-94412779D01*
X113155346Y-94547466D01*
X113236158Y-94628278D01*
X113370845Y-94709090D01*
X113451658Y-94736028D01*
X113559407Y-94736028D01*
X113667157Y-94682153D01*
X113721032Y-94628278D01*
X113774906Y-94520528D01*
X113774906Y-94466654D01*
X113586345Y-94278092D01*
X113478595Y-94385841D01*
X114071218Y-94278092D02*
X113505532Y-93712406D01*
X113721032Y-93496907D01*
X113801844Y-93469970D01*
X113855719Y-93469970D01*
X113936531Y-93496907D01*
X114017343Y-93577719D01*
X114044280Y-93658532D01*
X114044280Y-93712406D01*
X114017343Y-93793219D01*
X113801844Y-94008718D01*
X114340592Y-92877347D02*
X114071218Y-93146721D01*
X114313654Y-93443032D01*
X114313654Y-93389158D01*
X114340592Y-93308345D01*
X114475279Y-93173658D01*
X114556091Y-93146721D01*
X114609966Y-93146721D01*
X114690778Y-93173658D01*
X114825465Y-93308345D01*
X114852402Y-93389158D01*
X114852402Y-93443032D01*
X114825465Y-93523845D01*
X114690778Y-93658532D01*
X114609966Y-93685469D01*
X114556091Y-93685469D01*
X113263096Y-91468718D02*
X113182284Y-91495655D01*
X113101471Y-91576467D01*
X113047597Y-91684217D01*
X113047597Y-91791967D01*
X113074534Y-91872779D01*
X113155346Y-92007466D01*
X113236158Y-92088278D01*
X113370845Y-92169090D01*
X113451658Y-92196028D01*
X113559407Y-92196028D01*
X113667157Y-92142153D01*
X113721032Y-92088278D01*
X113774906Y-91980528D01*
X113774906Y-91926654D01*
X113586345Y-91738092D01*
X113478595Y-91845841D01*
X114071218Y-91738092D02*
X113505532Y-91172406D01*
X113721032Y-90956907D01*
X113801844Y-90929970D01*
X113855719Y-90929970D01*
X113936531Y-90956907D01*
X114017343Y-91037719D01*
X114044280Y-91118532D01*
X114044280Y-91172406D01*
X114017343Y-91253219D01*
X113801844Y-91468718D01*
X114502216Y-90552846D02*
X114879340Y-90929970D01*
X114152030Y-90472034D02*
X114421404Y-91010782D01*
X114771590Y-90660596D01*
X112593722Y-117460592D02*
X112512910Y-117487529D01*
X112432097Y-117568341D01*
X112378223Y-117676091D01*
X112378223Y-117783841D01*
X112405160Y-117864653D01*
X112485972Y-117999340D01*
X112566784Y-118080152D01*
X112701471Y-118160964D01*
X112782284Y-118187902D01*
X112890033Y-118187902D01*
X112997783Y-118134027D01*
X113051658Y-118080152D01*
X113105532Y-117972402D01*
X113105532Y-117918528D01*
X112916971Y-117729966D01*
X112809221Y-117837715D01*
X113401844Y-117729966D02*
X112836158Y-117164280D01*
X113051658Y-116948781D01*
X113132470Y-116921844D01*
X113186345Y-116921844D01*
X113267157Y-116948781D01*
X113347969Y-117029593D01*
X113374906Y-117110406D01*
X113374906Y-117164280D01*
X113347969Y-117245093D01*
X113132470Y-117460592D01*
X114263841Y-116867969D02*
X113940592Y-117191218D01*
X114102216Y-117029593D02*
X113536531Y-116463908D01*
X113563468Y-116598595D01*
X113563468Y-116706345D01*
X113536531Y-116787157D01*
X113967529Y-116140659D02*
X113967529Y-116086784D01*
X113994467Y-116005972D01*
X114129154Y-115871285D01*
X114209966Y-115844348D01*
X114263841Y-115844348D01*
X114344653Y-115871285D01*
X114398528Y-115925160D01*
X114452402Y-116032910D01*
X114452402Y-116679407D01*
X114802589Y-116329221D01*
X138901597Y-97518464D02*
X139170971Y-97249090D01*
X139009346Y-97733963D02*
X138632223Y-96979716D01*
X139386470Y-97356840D01*
X139332595Y-96333219D02*
X139251783Y-96360156D01*
X139170971Y-96440968D01*
X139117096Y-96548718D01*
X139117096Y-96656467D01*
X139144033Y-96737280D01*
X139224845Y-96871967D01*
X139305658Y-96952779D01*
X139440345Y-97033591D01*
X139521157Y-97060528D01*
X139628906Y-97060528D01*
X139736656Y-97006654D01*
X139790531Y-96952779D01*
X139844406Y-96845029D01*
X139844406Y-96791154D01*
X139655844Y-96602593D01*
X139548094Y-96710342D01*
X140140717Y-96602593D02*
X139575032Y-96036907D01*
X140463966Y-96279344D01*
X139898280Y-95713658D01*
X140733340Y-96009970D02*
X140167654Y-95444284D01*
X140302341Y-95309597D01*
X140410091Y-95255723D01*
X140517841Y-95255723D01*
X140598653Y-95282660D01*
X140733340Y-95363472D01*
X140814152Y-95444284D01*
X140894964Y-95578971D01*
X140921902Y-95659784D01*
X140921902Y-95767533D01*
X140868027Y-95875283D01*
X140733340Y-96009970D01*
X112593722Y-114920592D02*
X112512910Y-114947529D01*
X112432097Y-115028341D01*
X112378223Y-115136091D01*
X112378223Y-115243841D01*
X112405160Y-115324653D01*
X112485972Y-115459340D01*
X112566784Y-115540152D01*
X112701471Y-115620964D01*
X112782284Y-115647902D01*
X112890033Y-115647902D01*
X112997783Y-115594027D01*
X113051658Y-115540152D01*
X113105532Y-115432402D01*
X113105532Y-115378528D01*
X112916971Y-115189966D01*
X112809221Y-115297715D01*
X113401844Y-115189966D02*
X112836158Y-114624280D01*
X113051658Y-114408781D01*
X113132470Y-114381844D01*
X113186345Y-114381844D01*
X113267157Y-114408781D01*
X113347969Y-114489593D01*
X113374906Y-114570406D01*
X113374906Y-114624280D01*
X113347969Y-114705093D01*
X113132470Y-114920592D01*
X114263841Y-114327969D02*
X113940592Y-114651218D01*
X114102216Y-114489593D02*
X113536531Y-113923908D01*
X113563468Y-114058595D01*
X113563468Y-114166345D01*
X113536531Y-114247157D01*
X114802589Y-113789221D02*
X114479340Y-114112470D01*
X114640964Y-113950845D02*
X114075279Y-113385160D01*
X114102216Y-113519847D01*
X114102216Y-113627597D01*
X114075279Y-113708409D01*
X138847722Y-101898092D02*
X138766910Y-101925029D01*
X138686097Y-102005841D01*
X138632223Y-102113591D01*
X138632223Y-102221341D01*
X138659160Y-102302153D01*
X138739972Y-102436840D01*
X138820784Y-102517652D01*
X138955471Y-102598464D01*
X139036284Y-102625402D01*
X139144033Y-102625402D01*
X139251783Y-102571527D01*
X139305658Y-102517652D01*
X139359532Y-102409902D01*
X139359532Y-102356028D01*
X139170971Y-102167466D01*
X139063221Y-102275215D01*
X139655844Y-102167466D02*
X139090158Y-101601780D01*
X139305658Y-101386281D01*
X139386470Y-101359344D01*
X139440345Y-101359344D01*
X139521157Y-101386281D01*
X139601969Y-101467093D01*
X139628906Y-101547906D01*
X139628906Y-101601780D01*
X139601969Y-101682593D01*
X139386470Y-101898092D01*
X139682781Y-101116907D02*
X139682781Y-101063032D01*
X139709719Y-100982220D01*
X139844406Y-100847533D01*
X139925218Y-100820596D01*
X139979093Y-100820596D01*
X140059905Y-100847533D01*
X140113780Y-100901408D01*
X140167654Y-101009158D01*
X140167654Y-101655655D01*
X140517841Y-101305469D01*
X140437028Y-100254910D02*
X140329279Y-100362660D01*
X140302341Y-100443472D01*
X140302341Y-100497347D01*
X140329279Y-100632034D01*
X140410091Y-100766721D01*
X140625590Y-100982220D01*
X140706402Y-101009158D01*
X140760277Y-101009158D01*
X140841089Y-100982220D01*
X140948839Y-100874471D01*
X140975776Y-100793658D01*
X140975776Y-100739784D01*
X140948839Y-100658971D01*
X140814152Y-100524284D01*
X140733340Y-100497347D01*
X140679465Y-100497347D01*
X140598653Y-100524284D01*
X140490903Y-100632034D01*
X140463966Y-100712846D01*
X140463966Y-100766721D01*
X140490903Y-100847533D01*
X113163096Y-86388718D02*
X113082284Y-86415655D01*
X113001471Y-86496467D01*
X112947597Y-86604217D01*
X112947597Y-86711967D01*
X112974534Y-86792779D01*
X113055346Y-86927466D01*
X113136158Y-87008278D01*
X113270845Y-87089090D01*
X113351658Y-87116028D01*
X113459407Y-87116028D01*
X113567157Y-87062153D01*
X113621032Y-87008278D01*
X113674906Y-86900528D01*
X113674906Y-86846654D01*
X113486345Y-86658092D01*
X113378595Y-86765841D01*
X113971218Y-86658092D02*
X113405532Y-86092406D01*
X113621032Y-85876907D01*
X113701844Y-85849970D01*
X113755719Y-85849970D01*
X113836531Y-85876907D01*
X113917343Y-85957719D01*
X113944280Y-86038532D01*
X113944280Y-86092406D01*
X113917343Y-86173219D01*
X113701844Y-86388718D01*
X113998155Y-85607533D02*
X113998155Y-85553658D01*
X114025093Y-85472846D01*
X114159780Y-85338159D01*
X114240592Y-85311222D01*
X114294467Y-85311222D01*
X114375279Y-85338159D01*
X114429154Y-85392034D01*
X114483028Y-85499784D01*
X114483028Y-86146281D01*
X114833215Y-85796095D01*
X113263096Y-78768718D02*
X113182284Y-78795655D01*
X113101471Y-78876467D01*
X113047597Y-78984217D01*
X113047597Y-79091967D01*
X113074534Y-79172779D01*
X113155346Y-79307466D01*
X113236158Y-79388278D01*
X113370845Y-79469090D01*
X113451658Y-79496028D01*
X113559407Y-79496028D01*
X113667157Y-79442153D01*
X113721032Y-79388278D01*
X113774906Y-79280528D01*
X113774906Y-79226654D01*
X113586345Y-79038092D01*
X113478595Y-79145841D01*
X114071218Y-79038092D02*
X113505532Y-78472406D01*
X113721032Y-78256907D01*
X113801844Y-78229970D01*
X113855719Y-78229970D01*
X113936531Y-78256907D01*
X114017343Y-78337719D01*
X114044280Y-78418532D01*
X114044280Y-78472406D01*
X114017343Y-78553219D01*
X113801844Y-78768718D01*
X114178967Y-77798971D02*
X114232842Y-77745097D01*
X114313654Y-77718159D01*
X114367529Y-77718159D01*
X114448341Y-77745097D01*
X114583028Y-77825909D01*
X114717715Y-77960596D01*
X114798528Y-78095283D01*
X114825465Y-78176095D01*
X114825465Y-78229970D01*
X114798528Y-78310782D01*
X114744653Y-78364657D01*
X114663841Y-78391594D01*
X114609966Y-78391594D01*
X114529154Y-78364657D01*
X114394467Y-78283845D01*
X114259780Y-78149158D01*
X114178967Y-78014471D01*
X114152030Y-77933658D01*
X114152030Y-77879784D01*
X114178967Y-77798971D01*
X138847722Y-94024092D02*
X138766910Y-94051029D01*
X138686097Y-94131841D01*
X138632223Y-94239591D01*
X138632223Y-94347341D01*
X138659160Y-94428153D01*
X138739972Y-94562840D01*
X138820784Y-94643652D01*
X138955471Y-94724464D01*
X139036284Y-94751402D01*
X139144033Y-94751402D01*
X139251783Y-94697527D01*
X139305658Y-94643652D01*
X139359532Y-94535902D01*
X139359532Y-94482028D01*
X139170971Y-94293466D01*
X139063221Y-94401215D01*
X139655844Y-94293466D02*
X139090158Y-93727780D01*
X139305658Y-93512281D01*
X139386470Y-93485344D01*
X139440345Y-93485344D01*
X139521157Y-93512281D01*
X139601969Y-93593093D01*
X139628906Y-93673906D01*
X139628906Y-93727780D01*
X139601969Y-93808593D01*
X139386470Y-94024092D01*
X139682781Y-93242907D02*
X139682781Y-93189032D01*
X139709719Y-93108220D01*
X139844406Y-92973533D01*
X139925218Y-92946596D01*
X139979093Y-92946596D01*
X140059905Y-92973533D01*
X140113780Y-93027408D01*
X140167654Y-93135158D01*
X140167654Y-93781655D01*
X140517841Y-93431469D01*
X140517841Y-92784971D02*
X140437028Y-92811909D01*
X140383154Y-92811909D01*
X140302341Y-92784971D01*
X140275404Y-92758034D01*
X140248467Y-92677222D01*
X140248467Y-92623347D01*
X140275404Y-92542535D01*
X140383154Y-92434785D01*
X140463966Y-92407848D01*
X140517841Y-92407848D01*
X140598653Y-92434785D01*
X140625590Y-92461723D01*
X140652528Y-92542535D01*
X140652528Y-92596410D01*
X140625590Y-92677222D01*
X140517841Y-92784971D01*
X140490903Y-92865784D01*
X140490903Y-92919658D01*
X140517841Y-93000471D01*
X140625590Y-93108220D01*
X140706402Y-93135158D01*
X140760277Y-93135158D01*
X140841089Y-93108220D01*
X140948839Y-93000471D01*
X140975776Y-92919658D01*
X140975776Y-92865784D01*
X140948839Y-92784971D01*
X140841089Y-92677222D01*
X140760277Y-92650284D01*
X140706402Y-92650284D01*
X140625590Y-92677222D01*
X112739722Y-120000592D02*
X112658910Y-120027529D01*
X112578097Y-120108341D01*
X112524223Y-120216091D01*
X112524223Y-120323841D01*
X112551160Y-120404653D01*
X112631972Y-120539340D01*
X112712784Y-120620152D01*
X112847471Y-120700964D01*
X112928284Y-120727902D01*
X113036033Y-120727902D01*
X113143783Y-120674027D01*
X113197658Y-120620152D01*
X113251532Y-120512402D01*
X113251532Y-120458528D01*
X113062971Y-120269966D01*
X112955221Y-120377715D01*
X113547844Y-120269966D02*
X112982158Y-119704280D01*
X113197658Y-119488781D01*
X113278470Y-119461844D01*
X113332345Y-119461844D01*
X113413157Y-119488781D01*
X113493969Y-119569593D01*
X113520906Y-119650406D01*
X113520906Y-119704280D01*
X113493969Y-119785093D01*
X113278470Y-120000592D01*
X114409841Y-119407969D02*
X114086592Y-119731218D01*
X114248216Y-119569593D02*
X113682531Y-119003908D01*
X113709468Y-119138595D01*
X113709468Y-119246345D01*
X113682531Y-119327157D01*
X114032717Y-118653722D02*
X114382903Y-118303536D01*
X114409841Y-118707597D01*
X114490653Y-118626784D01*
X114571465Y-118599847D01*
X114625340Y-118599847D01*
X114706152Y-118626784D01*
X114840839Y-118761471D01*
X114867776Y-118842284D01*
X114867776Y-118896158D01*
X114840839Y-118976971D01*
X114679215Y-119138595D01*
X114598402Y-119165532D01*
X114544528Y-119165532D01*
X113236158Y-121975655D02*
X113155346Y-122002593D01*
X113074534Y-122083405D01*
X113020659Y-122191154D01*
X113020659Y-122298904D01*
X113047597Y-122379716D01*
X113128409Y-122514403D01*
X113209221Y-122595215D01*
X113343908Y-122676028D01*
X113424720Y-122702965D01*
X113532470Y-122702965D01*
X113640219Y-122649090D01*
X113694094Y-122595215D01*
X113747969Y-122487466D01*
X113747969Y-122433591D01*
X113559407Y-122245029D01*
X113451658Y-122352779D01*
X114044280Y-122245029D02*
X113478595Y-121679344D01*
X114367529Y-121921780D01*
X113801844Y-121356095D01*
X114636903Y-121652406D02*
X114071218Y-121086721D01*
X114205905Y-120952034D01*
X114313654Y-120898159D01*
X114421404Y-120898159D01*
X114502216Y-120925097D01*
X114636903Y-121005909D01*
X114717715Y-121086721D01*
X114798528Y-121221408D01*
X114825465Y-121302220D01*
X114825465Y-121409970D01*
X114771590Y-121517719D01*
X114636903Y-121652406D01*
X138847722Y-117138092D02*
X138766910Y-117165029D01*
X138686097Y-117245841D01*
X138632223Y-117353591D01*
X138632223Y-117461341D01*
X138659160Y-117542153D01*
X138739972Y-117676840D01*
X138820784Y-117757652D01*
X138955471Y-117838464D01*
X139036284Y-117865402D01*
X139144033Y-117865402D01*
X139251783Y-117811527D01*
X139305658Y-117757652D01*
X139359532Y-117649902D01*
X139359532Y-117596028D01*
X139170971Y-117407466D01*
X139063221Y-117515215D01*
X139655844Y-117407466D02*
X139090158Y-116841780D01*
X139305658Y-116626281D01*
X139386470Y-116599344D01*
X139440345Y-116599344D01*
X139521157Y-116626281D01*
X139601969Y-116707093D01*
X139628906Y-116787906D01*
X139628906Y-116841780D01*
X139601969Y-116922593D01*
X139386470Y-117138092D01*
X140517841Y-116545469D02*
X140194592Y-116868718D01*
X140356216Y-116707093D02*
X139790531Y-116141408D01*
X139817468Y-116276095D01*
X139817468Y-116383845D01*
X139790531Y-116464657D01*
X140787215Y-116276095D02*
X140894964Y-116168345D01*
X140921902Y-116087533D01*
X140921902Y-116033658D01*
X140894964Y-115898971D01*
X140814152Y-115764284D01*
X140598653Y-115548785D01*
X140517841Y-115521848D01*
X140463966Y-115521848D01*
X140383154Y-115548785D01*
X140275404Y-115656535D01*
X140248467Y-115737347D01*
X140248467Y-115791222D01*
X140275404Y-115872034D01*
X140410091Y-116006721D01*
X140490903Y-116033658D01*
X140544778Y-116033658D01*
X140625590Y-116006721D01*
X140733340Y-115898971D01*
X140760277Y-115818159D01*
X140760277Y-115764284D01*
X140733340Y-115683472D01*
X138847722Y-114598092D02*
X138766910Y-114625029D01*
X138686097Y-114705841D01*
X138632223Y-114813591D01*
X138632223Y-114921341D01*
X138659160Y-115002153D01*
X138739972Y-115136840D01*
X138820784Y-115217652D01*
X138955471Y-115298464D01*
X139036284Y-115325402D01*
X139144033Y-115325402D01*
X139251783Y-115271527D01*
X139305658Y-115217652D01*
X139359532Y-115109902D01*
X139359532Y-115056028D01*
X139170971Y-114867466D01*
X139063221Y-114975215D01*
X139655844Y-114867466D02*
X139090158Y-114301780D01*
X139305658Y-114086281D01*
X139386470Y-114059344D01*
X139440345Y-114059344D01*
X139521157Y-114086281D01*
X139601969Y-114167093D01*
X139628906Y-114247906D01*
X139628906Y-114301780D01*
X139601969Y-114382593D01*
X139386470Y-114598092D01*
X139682781Y-113816907D02*
X139682781Y-113763032D01*
X139709719Y-113682220D01*
X139844406Y-113547533D01*
X139925218Y-113520596D01*
X139979093Y-113520596D01*
X140059905Y-113547533D01*
X140113780Y-113601408D01*
X140167654Y-113709158D01*
X140167654Y-114355655D01*
X140517841Y-114005469D01*
X140302341Y-113089597D02*
X140356216Y-113035723D01*
X140437028Y-113008785D01*
X140490903Y-113008785D01*
X140571715Y-113035723D01*
X140706402Y-113116535D01*
X140841089Y-113251222D01*
X140921902Y-113385909D01*
X140948839Y-113466721D01*
X140948839Y-113520596D01*
X140921902Y-113601408D01*
X140868027Y-113655283D01*
X140787215Y-113682220D01*
X140733340Y-113682220D01*
X140652528Y-113655283D01*
X140517841Y-113574471D01*
X140383154Y-113439784D01*
X140302341Y-113305097D01*
X140275404Y-113224284D01*
X140275404Y-113170410D01*
X140302341Y-113089597D01*
X138670473Y-81847466D02*
X139424720Y-82224589D01*
X139047597Y-81470342D01*
X139747969Y-81847466D02*
X139855719Y-81793591D01*
X139990406Y-81658904D01*
X140017343Y-81578092D01*
X140017343Y-81524217D01*
X139990406Y-81443405D01*
X139936531Y-81389530D01*
X139855719Y-81362593D01*
X139801844Y-81362593D01*
X139721032Y-81389530D01*
X139586345Y-81470342D01*
X139505532Y-81497280D01*
X139451658Y-81497280D01*
X139370845Y-81470342D01*
X139316971Y-81416467D01*
X139290033Y-81335655D01*
X139290033Y-81281780D01*
X139316971Y-81200968D01*
X139451658Y-81066281D01*
X139559407Y-81012406D01*
X140178967Y-80931594D02*
X140448341Y-81200968D01*
X139694094Y-80823845D02*
X140178967Y-80931594D01*
X140071218Y-80446721D01*
X140771590Y-80823845D02*
X140879340Y-80769970D01*
X141014027Y-80635283D01*
X141040964Y-80554471D01*
X141040964Y-80500596D01*
X141014027Y-80419784D01*
X140960152Y-80365909D01*
X140879340Y-80338971D01*
X140825465Y-80338971D01*
X140744653Y-80365909D01*
X140609966Y-80446721D01*
X140529154Y-80473658D01*
X140475279Y-80473658D01*
X140394467Y-80446721D01*
X140340592Y-80392846D01*
X140313654Y-80312034D01*
X140313654Y-80258159D01*
X140340592Y-80177347D01*
X140475279Y-80042660D01*
X140583028Y-79988785D01*
X138836158Y-121975655D02*
X138755346Y-122002593D01*
X138674534Y-122083405D01*
X138620659Y-122191154D01*
X138620659Y-122298904D01*
X138647597Y-122379716D01*
X138728409Y-122514403D01*
X138809221Y-122595215D01*
X138943908Y-122676028D01*
X139024720Y-122702965D01*
X139132470Y-122702965D01*
X139240219Y-122649090D01*
X139294094Y-122595215D01*
X139347969Y-122487466D01*
X139347969Y-122433591D01*
X139159407Y-122245029D01*
X139051658Y-122352779D01*
X139644280Y-122245029D02*
X139078595Y-121679344D01*
X139967529Y-121921780D01*
X139401844Y-121356095D01*
X140236903Y-121652406D02*
X139671218Y-121086721D01*
X139805905Y-120952034D01*
X139913654Y-120898159D01*
X140021404Y-120898159D01*
X140102216Y-120925097D01*
X140236903Y-121005909D01*
X140317715Y-121086721D01*
X140398528Y-121221408D01*
X140425465Y-121302220D01*
X140425465Y-121409970D01*
X140371590Y-121517719D01*
X140236903Y-121652406D01*
X113363096Y-101598718D02*
X113282284Y-101625655D01*
X113201471Y-101706467D01*
X113147597Y-101814217D01*
X113147597Y-101921967D01*
X113174534Y-102002779D01*
X113255346Y-102137466D01*
X113336158Y-102218278D01*
X113470845Y-102299090D01*
X113551658Y-102326028D01*
X113659407Y-102326028D01*
X113767157Y-102272153D01*
X113821032Y-102218278D01*
X113874906Y-102110528D01*
X113874906Y-102056654D01*
X113686345Y-101868092D01*
X113578595Y-101975841D01*
X114171218Y-101868092D02*
X113605532Y-101302406D01*
X113821032Y-101086907D01*
X113901844Y-101059970D01*
X113955719Y-101059970D01*
X114036531Y-101086907D01*
X114117343Y-101167719D01*
X114144280Y-101248532D01*
X114144280Y-101302406D01*
X114117343Y-101383219D01*
X113901844Y-101598718D01*
X114117343Y-100790596D02*
X114494467Y-100413472D01*
X114817715Y-101221594D01*
X138847722Y-124758092D02*
X138766910Y-124785029D01*
X138686097Y-124865841D01*
X138632223Y-124973591D01*
X138632223Y-125081341D01*
X138659160Y-125162153D01*
X138739972Y-125296840D01*
X138820784Y-125377652D01*
X138955471Y-125458464D01*
X139036284Y-125485402D01*
X139144033Y-125485402D01*
X139251783Y-125431527D01*
X139305658Y-125377652D01*
X139359532Y-125269902D01*
X139359532Y-125216028D01*
X139170971Y-125027466D01*
X139063221Y-125135215D01*
X139655844Y-125027466D02*
X139090158Y-124461780D01*
X139305658Y-124246281D01*
X139386470Y-124219344D01*
X139440345Y-124219344D01*
X139521157Y-124246281D01*
X139601969Y-124327093D01*
X139628906Y-124407906D01*
X139628906Y-124461780D01*
X139601969Y-124542593D01*
X139386470Y-124758092D01*
X140517841Y-124165469D02*
X140194592Y-124488718D01*
X140356216Y-124327093D02*
X139790531Y-123761408D01*
X139817468Y-123896095D01*
X139817468Y-124003845D01*
X139790531Y-124084657D01*
X140140717Y-123411222D02*
X140517841Y-123034098D01*
X140841089Y-123842220D01*
X112739722Y-112058092D02*
X112658910Y-112085029D01*
X112578097Y-112165841D01*
X112524223Y-112273591D01*
X112524223Y-112381341D01*
X112551160Y-112462153D01*
X112631972Y-112596840D01*
X112712784Y-112677652D01*
X112847471Y-112758464D01*
X112928284Y-112785402D01*
X113036033Y-112785402D01*
X113143783Y-112731527D01*
X113197658Y-112677652D01*
X113251532Y-112569902D01*
X113251532Y-112516028D01*
X113062971Y-112327466D01*
X112955221Y-112435215D01*
X113547844Y-112327466D02*
X112982158Y-111761780D01*
X113197658Y-111546281D01*
X113278470Y-111519344D01*
X113332345Y-111519344D01*
X113413157Y-111546281D01*
X113493969Y-111627093D01*
X113520906Y-111707906D01*
X113520906Y-111761780D01*
X113493969Y-111842593D01*
X113278470Y-112058092D01*
X114409841Y-111465469D02*
X114086592Y-111788718D01*
X114248216Y-111627093D02*
X113682531Y-111061408D01*
X113709468Y-111196095D01*
X113709468Y-111303845D01*
X113682531Y-111384657D01*
X114194341Y-110549597D02*
X114248216Y-110495723D01*
X114329028Y-110468785D01*
X114382903Y-110468785D01*
X114463715Y-110495723D01*
X114598402Y-110576535D01*
X114733089Y-110711222D01*
X114813902Y-110845909D01*
X114840839Y-110926721D01*
X114840839Y-110980596D01*
X114813902Y-111061408D01*
X114760027Y-111115283D01*
X114679215Y-111142220D01*
X114625340Y-111142220D01*
X114544528Y-111115283D01*
X114409841Y-111034471D01*
X114275154Y-110899784D01*
X114194341Y-110765097D01*
X114167404Y-110684284D01*
X114167404Y-110630410D01*
X114194341Y-110549597D01*
X113263096Y-106708718D02*
X113182284Y-106735655D01*
X113101471Y-106816467D01*
X113047597Y-106924217D01*
X113047597Y-107031967D01*
X113074534Y-107112779D01*
X113155346Y-107247466D01*
X113236158Y-107328278D01*
X113370845Y-107409090D01*
X113451658Y-107436028D01*
X113559407Y-107436028D01*
X113667157Y-107382153D01*
X113721032Y-107328278D01*
X113774906Y-107220528D01*
X113774906Y-107166654D01*
X113586345Y-106978092D01*
X113478595Y-107085841D01*
X114071218Y-106978092D02*
X113505532Y-106412406D01*
X113721032Y-106196907D01*
X113801844Y-106169970D01*
X113855719Y-106169970D01*
X113936531Y-106196907D01*
X114017343Y-106277719D01*
X114044280Y-106358532D01*
X114044280Y-106412406D01*
X114017343Y-106493219D01*
X113801844Y-106708718D01*
X114663841Y-106385469D02*
X114771590Y-106277719D01*
X114798528Y-106196907D01*
X114798528Y-106143032D01*
X114771590Y-106008345D01*
X114690778Y-105873658D01*
X114475279Y-105658159D01*
X114394467Y-105631222D01*
X114340592Y-105631222D01*
X114259780Y-105658159D01*
X114152030Y-105765909D01*
X114125093Y-105846721D01*
X114125093Y-105900596D01*
X114152030Y-105981408D01*
X114286717Y-106116095D01*
X114367529Y-106143032D01*
X114421404Y-106143032D01*
X114502216Y-106116095D01*
X114609966Y-106008345D01*
X114636903Y-105927533D01*
X114636903Y-105873658D01*
X114609966Y-105792846D01*
X138847722Y-119678092D02*
X138766910Y-119705029D01*
X138686097Y-119785841D01*
X138632223Y-119893591D01*
X138632223Y-120001341D01*
X138659160Y-120082153D01*
X138739972Y-120216840D01*
X138820784Y-120297652D01*
X138955471Y-120378464D01*
X139036284Y-120405402D01*
X139144033Y-120405402D01*
X139251783Y-120351527D01*
X139305658Y-120297652D01*
X139359532Y-120189902D01*
X139359532Y-120136028D01*
X139170971Y-119947466D01*
X139063221Y-120055215D01*
X139655844Y-119947466D02*
X139090158Y-119381780D01*
X139305658Y-119166281D01*
X139386470Y-119139344D01*
X139440345Y-119139344D01*
X139521157Y-119166281D01*
X139601969Y-119247093D01*
X139628906Y-119327906D01*
X139628906Y-119381780D01*
X139601969Y-119462593D01*
X139386470Y-119678092D01*
X140517841Y-119085469D02*
X140194592Y-119408718D01*
X140356216Y-119247093D02*
X139790531Y-118681408D01*
X139817468Y-118816095D01*
X139817468Y-118923845D01*
X139790531Y-119004657D01*
X140517841Y-118438971D02*
X140437028Y-118465909D01*
X140383154Y-118465909D01*
X140302341Y-118438971D01*
X140275404Y-118412034D01*
X140248467Y-118331222D01*
X140248467Y-118277347D01*
X140275404Y-118196535D01*
X140383154Y-118088785D01*
X140463966Y-118061848D01*
X140517841Y-118061848D01*
X140598653Y-118088785D01*
X140625590Y-118115723D01*
X140652528Y-118196535D01*
X140652528Y-118250410D01*
X140625590Y-118331222D01*
X140517841Y-118438971D01*
X140490903Y-118519784D01*
X140490903Y-118573658D01*
X140517841Y-118654471D01*
X140625590Y-118762220D01*
X140706402Y-118789158D01*
X140760277Y-118789158D01*
X140841089Y-118762220D01*
X140948839Y-118654471D01*
X140975776Y-118573658D01*
X140975776Y-118519784D01*
X140948839Y-118438971D01*
X140841089Y-118331222D01*
X140760277Y-118304284D01*
X140706402Y-118304284D01*
X140625590Y-118331222D01*
X138537973Y-91694966D02*
X139292220Y-92072089D01*
X138915097Y-91317842D01*
X139992593Y-91371717D02*
X139534657Y-91290905D01*
X139669344Y-91694966D02*
X139103658Y-91129280D01*
X139319158Y-90913781D01*
X139399970Y-90886844D01*
X139453845Y-90886844D01*
X139534657Y-90913781D01*
X139615469Y-90994593D01*
X139642406Y-91075406D01*
X139642406Y-91129280D01*
X139615469Y-91210093D01*
X139399970Y-91425592D01*
X139938718Y-90832969D02*
X140127280Y-90644407D01*
X140504403Y-90859906D02*
X140235029Y-91129280D01*
X139669344Y-90563595D01*
X139938718Y-90294221D01*
X140639090Y-90132597D02*
X140450528Y-90321158D01*
X140746840Y-90617470D02*
X140181154Y-90051784D01*
X140450528Y-89782410D01*
X138847722Y-112068092D02*
X138766910Y-112095029D01*
X138686097Y-112175841D01*
X138632223Y-112283591D01*
X138632223Y-112391341D01*
X138659160Y-112472153D01*
X138739972Y-112606840D01*
X138820784Y-112687652D01*
X138955471Y-112768464D01*
X139036284Y-112795402D01*
X139144033Y-112795402D01*
X139251783Y-112741527D01*
X139305658Y-112687652D01*
X139359532Y-112579902D01*
X139359532Y-112526028D01*
X139170971Y-112337466D01*
X139063221Y-112445215D01*
X139655844Y-112337466D02*
X139090158Y-111771780D01*
X139305658Y-111556281D01*
X139386470Y-111529344D01*
X139440345Y-111529344D01*
X139521157Y-111556281D01*
X139601969Y-111637093D01*
X139628906Y-111717906D01*
X139628906Y-111771780D01*
X139601969Y-111852593D01*
X139386470Y-112068092D01*
X139682781Y-111286907D02*
X139682781Y-111233032D01*
X139709719Y-111152220D01*
X139844406Y-111017533D01*
X139925218Y-110990596D01*
X139979093Y-110990596D01*
X140059905Y-111017533D01*
X140113780Y-111071408D01*
X140167654Y-111179158D01*
X140167654Y-111825655D01*
X140517841Y-111475469D01*
X141056589Y-110936721D02*
X140733340Y-111259970D01*
X140894964Y-111098345D02*
X140329279Y-110532660D01*
X140356216Y-110667347D01*
X140356216Y-110775097D01*
X140329279Y-110855909D01*
X138672131Y-86735808D02*
X139022317Y-86385622D01*
X139049255Y-86789683D01*
X139130067Y-86708870D01*
X139210879Y-86681933D01*
X139264754Y-86681933D01*
X139345566Y-86708870D01*
X139480253Y-86843557D01*
X139507190Y-86924370D01*
X139507190Y-86978244D01*
X139480253Y-87059057D01*
X139318629Y-87220681D01*
X139237816Y-87247618D01*
X139183942Y-87247618D01*
X139183942Y-86223997D02*
X139938189Y-86601121D01*
X139561065Y-85846874D01*
X139695752Y-85712187D02*
X140045938Y-85362000D01*
X140072876Y-85766061D01*
X140153688Y-85685249D01*
X140234500Y-85658312D01*
X140288375Y-85658312D01*
X140369187Y-85685249D01*
X140503874Y-85819936D01*
X140530812Y-85900748D01*
X140530812Y-85954623D01*
X140503874Y-86035435D01*
X140342250Y-86197060D01*
X140261438Y-86223997D01*
X140207563Y-86223997D01*
X140773248Y-85873811D02*
X141204247Y-85442812D01*
X140988748Y-84957939D02*
X141177309Y-84769377D01*
X141554433Y-84984877D02*
X141285059Y-85254251D01*
X140719374Y-84688565D01*
X140988748Y-84419191D01*
X141796870Y-84742440D02*
X141231184Y-84176755D01*
X142120118Y-84419191D01*
X141554433Y-83853506D01*
X138847722Y-99368092D02*
X138766910Y-99395029D01*
X138686097Y-99475841D01*
X138632223Y-99583591D01*
X138632223Y-99691341D01*
X138659160Y-99772153D01*
X138739972Y-99906840D01*
X138820784Y-99987652D01*
X138955471Y-100068464D01*
X139036284Y-100095402D01*
X139144033Y-100095402D01*
X139251783Y-100041527D01*
X139305658Y-99987652D01*
X139359532Y-99879902D01*
X139359532Y-99826028D01*
X139170971Y-99637466D01*
X139063221Y-99745215D01*
X139655844Y-99637466D02*
X139090158Y-99071780D01*
X139305658Y-98856281D01*
X139386470Y-98829344D01*
X139440345Y-98829344D01*
X139521157Y-98856281D01*
X139601969Y-98937093D01*
X139628906Y-99017906D01*
X139628906Y-99071780D01*
X139601969Y-99152593D01*
X139386470Y-99368092D01*
X139682781Y-98586907D02*
X139682781Y-98533032D01*
X139709719Y-98452220D01*
X139844406Y-98317533D01*
X139925218Y-98290596D01*
X139979093Y-98290596D01*
X140059905Y-98317533D01*
X140113780Y-98371408D01*
X140167654Y-98479158D01*
X140167654Y-99125655D01*
X140517841Y-98775469D01*
X140140717Y-98021222D02*
X140517841Y-97644098D01*
X140841089Y-98452220D01*
X138639847Y-89268092D02*
X138990033Y-88917906D01*
X139016971Y-89321967D01*
X139097783Y-89241154D01*
X139178595Y-89214217D01*
X139232470Y-89214217D01*
X139313282Y-89241154D01*
X139447969Y-89375841D01*
X139474906Y-89456654D01*
X139474906Y-89510528D01*
X139447969Y-89591341D01*
X139286345Y-89752965D01*
X139205532Y-89779902D01*
X139151658Y-89779902D01*
X139151658Y-88756281D02*
X139905905Y-89133405D01*
X139528781Y-88379158D01*
X139663468Y-88244471D02*
X140013654Y-87894284D01*
X140040592Y-88298345D01*
X140121404Y-88217533D01*
X140202216Y-88190596D01*
X140256091Y-88190596D01*
X140336903Y-88217533D01*
X140471590Y-88352220D01*
X140498528Y-88433032D01*
X140498528Y-88486907D01*
X140471590Y-88567719D01*
X140309966Y-88729344D01*
X140229154Y-88756281D01*
X140175279Y-88756281D01*
X113163096Y-81298718D02*
X113082284Y-81325655D01*
X113001471Y-81406467D01*
X112947597Y-81514217D01*
X112947597Y-81621967D01*
X112974534Y-81702779D01*
X113055346Y-81837466D01*
X113136158Y-81918278D01*
X113270845Y-81999090D01*
X113351658Y-82026028D01*
X113459407Y-82026028D01*
X113567157Y-81972153D01*
X113621032Y-81918278D01*
X113674906Y-81810528D01*
X113674906Y-81756654D01*
X113486345Y-81568092D01*
X113378595Y-81675841D01*
X113971218Y-81568092D02*
X113405532Y-81002406D01*
X113621032Y-80786907D01*
X113701844Y-80759970D01*
X113755719Y-80759970D01*
X113836531Y-80786907D01*
X113917343Y-80867719D01*
X113944280Y-80948532D01*
X113944280Y-81002406D01*
X113917343Y-81083219D01*
X113701844Y-81298718D01*
X114833215Y-80706095D02*
X114509966Y-81029344D01*
X114671590Y-80867719D02*
X114105905Y-80302034D01*
X114132842Y-80436721D01*
X114132842Y-80544471D01*
X114105905Y-80625283D01*
X112693722Y-124758092D02*
X112612910Y-124785029D01*
X112532097Y-124865841D01*
X112478223Y-124973591D01*
X112478223Y-125081341D01*
X112505160Y-125162153D01*
X112585972Y-125296840D01*
X112666784Y-125377652D01*
X112801471Y-125458464D01*
X112882284Y-125485402D01*
X112990033Y-125485402D01*
X113097783Y-125431527D01*
X113151658Y-125377652D01*
X113205532Y-125269902D01*
X113205532Y-125216028D01*
X113016971Y-125027466D01*
X112909221Y-125135215D01*
X113501844Y-125027466D02*
X112936158Y-124461780D01*
X113151658Y-124246281D01*
X113232470Y-124219344D01*
X113286345Y-124219344D01*
X113367157Y-124246281D01*
X113447969Y-124327093D01*
X113474906Y-124407906D01*
X113474906Y-124461780D01*
X113447969Y-124542593D01*
X113232470Y-124758092D01*
X114363841Y-124165469D02*
X114040592Y-124488718D01*
X114202216Y-124327093D02*
X113636531Y-123761408D01*
X113663468Y-123896095D01*
X113663468Y-124003845D01*
X113636531Y-124084657D01*
X114471590Y-123303472D02*
X114848714Y-123680596D01*
X114121404Y-123222660D02*
X114390778Y-123761408D01*
X114740964Y-123411222D01*
X113263096Y-88928718D02*
X113182284Y-88955655D01*
X113101471Y-89036467D01*
X113047597Y-89144217D01*
X113047597Y-89251967D01*
X113074534Y-89332779D01*
X113155346Y-89467466D01*
X113236158Y-89548278D01*
X113370845Y-89629090D01*
X113451658Y-89656028D01*
X113559407Y-89656028D01*
X113667157Y-89602153D01*
X113721032Y-89548278D01*
X113774906Y-89440528D01*
X113774906Y-89386654D01*
X113586345Y-89198092D01*
X113478595Y-89305841D01*
X114071218Y-89198092D02*
X113505532Y-88632406D01*
X113721032Y-88416907D01*
X113801844Y-88389970D01*
X113855719Y-88389970D01*
X113936531Y-88416907D01*
X114017343Y-88497719D01*
X114044280Y-88578532D01*
X114044280Y-88632406D01*
X114017343Y-88713219D01*
X113801844Y-88928718D01*
X114017343Y-88120596D02*
X114367529Y-87770410D01*
X114394467Y-88174471D01*
X114475279Y-88093658D01*
X114556091Y-88066721D01*
X114609966Y-88066721D01*
X114690778Y-88093658D01*
X114825465Y-88228345D01*
X114852402Y-88309158D01*
X114852402Y-88363032D01*
X114825465Y-88443845D01*
X114663841Y-88605469D01*
X114583028Y-88632406D01*
X114529154Y-88632406D01*
X138836158Y-109275655D02*
X138755346Y-109302593D01*
X138674534Y-109383405D01*
X138620659Y-109491154D01*
X138620659Y-109598904D01*
X138647597Y-109679716D01*
X138728409Y-109814403D01*
X138809221Y-109895215D01*
X138943908Y-109976028D01*
X139024720Y-110002965D01*
X139132470Y-110002965D01*
X139240219Y-109949090D01*
X139294094Y-109895215D01*
X139347969Y-109787466D01*
X139347969Y-109733591D01*
X139159407Y-109545029D01*
X139051658Y-109652779D01*
X139644280Y-109545029D02*
X139078595Y-108979344D01*
X139967529Y-109221780D01*
X139401844Y-108656095D01*
X140236903Y-108952406D02*
X139671218Y-108386721D01*
X139805905Y-108252034D01*
X139913654Y-108198159D01*
X140021404Y-108198159D01*
X140102216Y-108225097D01*
X140236903Y-108305909D01*
X140317715Y-108386721D01*
X140398528Y-108521408D01*
X140425465Y-108602220D01*
X140425465Y-108709970D01*
X140371590Y-108817719D01*
X140236903Y-108952406D01*
X112739722Y-127298092D02*
X112658910Y-127325029D01*
X112578097Y-127405841D01*
X112524223Y-127513591D01*
X112524223Y-127621341D01*
X112551160Y-127702153D01*
X112631972Y-127836840D01*
X112712784Y-127917652D01*
X112847471Y-127998464D01*
X112928284Y-128025402D01*
X113036033Y-128025402D01*
X113143783Y-127971527D01*
X113197658Y-127917652D01*
X113251532Y-127809902D01*
X113251532Y-127756028D01*
X113062971Y-127567466D01*
X112955221Y-127675215D01*
X113547844Y-127567466D02*
X112982158Y-127001780D01*
X113197658Y-126786281D01*
X113278470Y-126759344D01*
X113332345Y-126759344D01*
X113413157Y-126786281D01*
X113493969Y-126867093D01*
X113520906Y-126947906D01*
X113520906Y-127001780D01*
X113493969Y-127082593D01*
X113278470Y-127298092D01*
X114409841Y-126705469D02*
X114086592Y-127028718D01*
X114248216Y-126867093D02*
X113682531Y-126301408D01*
X113709468Y-126436095D01*
X113709468Y-126543845D01*
X113682531Y-126624657D01*
X114355966Y-125627973D02*
X114086592Y-125897347D01*
X114329028Y-126193658D01*
X114329028Y-126139784D01*
X114355966Y-126058971D01*
X114490653Y-125924284D01*
X114571465Y-125897347D01*
X114625340Y-125897347D01*
X114706152Y-125924284D01*
X114840839Y-126058971D01*
X114867776Y-126139784D01*
X114867776Y-126193658D01*
X114840839Y-126274471D01*
X114706152Y-126409158D01*
X114625340Y-126436095D01*
X114571465Y-126436095D01*
X138703129Y-79304809D02*
X139457377Y-79681933D01*
X139080253Y-78927686D01*
X139726751Y-78819936D02*
X139834500Y-78766061D01*
X139888375Y-78766061D01*
X139969187Y-78792999D01*
X140050000Y-78873811D01*
X140076937Y-78954623D01*
X140076937Y-79008498D01*
X140050000Y-79089310D01*
X139834500Y-79304809D01*
X139268815Y-78739124D01*
X139457377Y-78550562D01*
X139538189Y-78523625D01*
X139592064Y-78523625D01*
X139672876Y-78550562D01*
X139726751Y-78604437D01*
X139753688Y-78685249D01*
X139753688Y-78739124D01*
X139726751Y-78819936D01*
X139538189Y-79008498D01*
X139834500Y-78173438D02*
X140292436Y-78631374D01*
X140373248Y-78658312D01*
X140427123Y-78658312D01*
X140507935Y-78631374D01*
X140615685Y-78523625D01*
X140642622Y-78442812D01*
X140642622Y-78388938D01*
X140615685Y-78308125D01*
X140157749Y-77850190D01*
X140938934Y-78146501D02*
X141046683Y-78092626D01*
X141181370Y-77957939D01*
X141208308Y-77877127D01*
X141208308Y-77823252D01*
X141181370Y-77742440D01*
X141127496Y-77688565D01*
X141046683Y-77661628D01*
X140992809Y-77661628D01*
X140911996Y-77688565D01*
X140777309Y-77769377D01*
X140696497Y-77796315D01*
X140642622Y-77796315D01*
X140561810Y-77769377D01*
X140507935Y-77715503D01*
X140480998Y-77634690D01*
X140480998Y-77580816D01*
X140507935Y-77500003D01*
X140642622Y-77365316D01*
X140750372Y-77311442D01*
X113236158Y-96575655D02*
X113155346Y-96602593D01*
X113074534Y-96683405D01*
X113020659Y-96791154D01*
X113020659Y-96898904D01*
X113047597Y-96979716D01*
X113128409Y-97114403D01*
X113209221Y-97195215D01*
X113343908Y-97276028D01*
X113424720Y-97302965D01*
X113532470Y-97302965D01*
X113640219Y-97249090D01*
X113694094Y-97195215D01*
X113747969Y-97087466D01*
X113747969Y-97033591D01*
X113559407Y-96845029D01*
X113451658Y-96952779D01*
X114044280Y-96845029D02*
X113478595Y-96279344D01*
X114367529Y-96521780D01*
X113801844Y-95956095D01*
X114636903Y-96252406D02*
X114071218Y-95686721D01*
X114205905Y-95552034D01*
X114313654Y-95498159D01*
X114421404Y-95498159D01*
X114502216Y-95525097D01*
X114636903Y-95605909D01*
X114717715Y-95686721D01*
X114798528Y-95821408D01*
X114825465Y-95902220D01*
X114825465Y-96009970D01*
X114771590Y-96117719D01*
X114636903Y-96252406D01*
D13*
%TO.C,J11*%
X98750000Y-131750000D02*
G75*
G03*
X98750000Y-131750000I-3250000J0D01*
G01*
%TO.C,RF1*%
X146445000Y-88220000D02*
X149105000Y-88220000D01*
X146445000Y-88220000D02*
X146445000Y-95900000D01*
X147775000Y-85620000D02*
X149105000Y-85620000D01*
X149105000Y-85620000D02*
X149105000Y-86950000D01*
X149105000Y-88220000D02*
X149105000Y-95900000D01*
X146445000Y-95900000D02*
X149105000Y-95900000D01*
%TO.C,J15*%
X161500000Y-67250000D02*
G75*
G03*
X161500000Y-67250000I-3250000J0D01*
G01*
%TO.C,SW1*%
X122429000Y-154227000D02*
X122429000Y-141273000D01*
X122429000Y-141273000D02*
X115571000Y-141273000D01*
X115571000Y-141273000D02*
X115571000Y-154227000D01*
X115571000Y-154227000D02*
X122429000Y-154227000D01*
%TO.C,J13*%
X156520000Y-79555000D02*
X159120000Y-79555000D01*
X156520000Y-76895000D02*
X159120000Y-76895000D01*
X153920000Y-76895000D02*
X155250000Y-76895000D01*
X156520000Y-79555000D02*
X156520000Y-76895000D01*
X159120000Y-79555000D02*
X159120000Y-76895000D01*
X153920000Y-78225000D02*
X153920000Y-76895000D01*
%TO.C,J9*%
X89920000Y-110220000D02*
X89920000Y-92380000D01*
X92580000Y-110220000D02*
X89920000Y-110220000D01*
X89920000Y-112820000D02*
X89920000Y-111490000D01*
X92580000Y-92380000D02*
X89920000Y-92380000D01*
X92580000Y-110220000D02*
X92580000Y-92380000D01*
X91250000Y-112820000D02*
X89920000Y-112820000D01*
D14*
%TO.C,Z1*%
X151500000Y-138900000D02*
X151500000Y-138500000D01*
X152386020Y-138902080D02*
X152309820Y-138902080D01*
X156000000Y-136100000D02*
X156000000Y-136500000D01*
X151500000Y-136100000D02*
X151500000Y-136500000D01*
X152309820Y-138902080D02*
X152309820Y-138442340D01*
X156000000Y-138900000D02*
X156000000Y-138500000D01*
X152309820Y-138442340D02*
X152386020Y-138442340D01*
X156000000Y-136100000D02*
X155600000Y-136100000D01*
X152386020Y-136100460D02*
X152309820Y-136100460D01*
X152386020Y-136565280D02*
X152386020Y-136100460D01*
X152309820Y-136565280D02*
X152386020Y-136565280D01*
X156000000Y-138900000D02*
X155600000Y-138900000D01*
X152386020Y-138442340D02*
X152386020Y-138902080D01*
X151500000Y-138900000D02*
X151900000Y-138900000D01*
X151500000Y-136100000D02*
X151900000Y-136100000D01*
X152309820Y-136100460D02*
X152309820Y-136565280D01*
D13*
%TO.C,D3*%
X158830000Y-151315000D02*
X158986000Y-151315000D01*
X156514000Y-151315000D02*
X156670000Y-151315000D01*
X156670163Y-148713870D02*
G75*
G03*
X156670000Y-150795961I1079837J-1041130D01*
G01*
X158830000Y-150795961D02*
G75*
G03*
X158829837Y-148713870I-1080000J1040961D01*
G01*
X158985516Y-151315000D02*
G75*
G03*
X158828608Y-148082665I-1235516J1560000D01*
G01*
X156671392Y-148082665D02*
G75*
G03*
X156514484Y-151315000I1078608J-1672335D01*
G01*
%TO.C,D1*%
X134825000Y-140115354D02*
X134825000Y-150355354D01*
X134825000Y-140115354D02*
X130184000Y-140115354D01*
X134825000Y-147086354D02*
X133315000Y-147086354D01*
X130184000Y-140115354D02*
X130184000Y-150355354D01*
X134825000Y-150355354D02*
X130184000Y-150355354D01*
X133315000Y-140115354D02*
X133315000Y-150355354D01*
X134825000Y-143385354D02*
X133315000Y-143385354D01*
%TO.C,J14*%
X162000000Y-131750000D02*
G75*
G03*
X162000000Y-131750000I-3250000J0D01*
G01*
%TO.C,J12*%
X106500000Y-103000000D02*
G75*
G03*
X106500000Y-103000000I-3250000J0D01*
G01*
%TO.C,J8*%
X106445000Y-65395000D02*
X149685000Y-65395000D01*
X103845000Y-65395000D02*
X105175000Y-65395000D01*
X149685000Y-68055000D02*
X149685000Y-65395000D01*
X106445000Y-68055000D02*
X106445000Y-65395000D01*
X103845000Y-66725000D02*
X103845000Y-65395000D01*
X106445000Y-68055000D02*
X149685000Y-68055000D01*
%TO.C,C1*%
X141509000Y-147373323D02*
X138186000Y-147373323D01*
X144492000Y-149933323D02*
X141008000Y-149933323D01*
X141509000Y-147973323D02*
X138529000Y-147973323D01*
X146675000Y-148373323D02*
X143991000Y-148373323D01*
X147827000Y-145332323D02*
X137673000Y-145332323D01*
X141509000Y-147133323D02*
X138076000Y-147133323D01*
X147518000Y-146893323D02*
X143991000Y-146893323D01*
X147761000Y-145973323D02*
X137739000Y-145973323D01*
X141509000Y-148093323D02*
X138612000Y-148093323D01*
X147808000Y-145612323D02*
X137692000Y-145612323D01*
X146608000Y-148453323D02*
X143991000Y-148453323D01*
X141509000Y-148053323D02*
X138584000Y-148053323D01*
X146539000Y-148533323D02*
X143991000Y-148533323D01*
X147647000Y-146493323D02*
X143991000Y-146493323D01*
X145639000Y-149333323D02*
X139861000Y-149333323D01*
X147688000Y-146333323D02*
X137812000Y-146333323D01*
X146944000Y-148013323D02*
X143991000Y-148013323D01*
X145906000Y-149133323D02*
X139594000Y-149133323D01*
X146270000Y-148813323D02*
X143991000Y-148813323D01*
X141509000Y-148493323D02*
X138926000Y-148493323D01*
X145260000Y-149573323D02*
X140240000Y-149573323D01*
X147768000Y-145933323D02*
X137732000Y-145933323D01*
X141509000Y-146973323D02*
X138012000Y-146973323D01*
X145804000Y-149213323D02*
X139696000Y-149213323D01*
X145750000Y-149253323D02*
X139750000Y-149253323D01*
X144787000Y-149813323D02*
X140713000Y-149813323D01*
X146125000Y-140152677D02*
X145125000Y-140152677D01*
X144959000Y-149733323D02*
X140541000Y-149733323D01*
X145520000Y-149413323D02*
X139980000Y-149413323D01*
X141509000Y-148133323D02*
X138640000Y-148133323D01*
X146004000Y-149053323D02*
X139496000Y-149053323D01*
X141509000Y-147173323D02*
X138093000Y-147173323D01*
X141509000Y-148533323D02*
X138961000Y-148533323D01*
X141509000Y-147293323D02*
X138147000Y-147293323D01*
X141509000Y-146613323D02*
X137888000Y-146613323D01*
X141509000Y-146533323D02*
X137865000Y-146533323D01*
X141509000Y-147413323D02*
X138205000Y-147413323D01*
X147724000Y-146173323D02*
X137776000Y-146173323D01*
X145625000Y-139652677D02*
X145625000Y-140652677D01*
X146574000Y-148493323D02*
X143991000Y-148493323D01*
X141509000Y-146813323D02*
X137953000Y-146813323D01*
X147167000Y-147653323D02*
X143991000Y-147653323D01*
X141509000Y-148293323D02*
X138761000Y-148293323D01*
X147706000Y-146253323D02*
X137794000Y-146253323D01*
X147574000Y-146733323D02*
X143991000Y-146733323D01*
X147440000Y-147093323D02*
X143991000Y-147093323D01*
X147820000Y-145452323D02*
X137680000Y-145452323D01*
X141509000Y-148333323D02*
X138793000Y-148333323D01*
X147121000Y-147733323D02*
X143991000Y-147733323D01*
X145580000Y-149373323D02*
X139920000Y-149373323D01*
X147334000Y-147333323D02*
X143991000Y-147333323D01*
X147048000Y-147853323D02*
X143991000Y-147853323D01*
X141509000Y-146493323D02*
X137853000Y-146493323D01*
X141509000Y-146773323D02*
X137939000Y-146773323D01*
X146770000Y-148253323D02*
X143991000Y-148253323D01*
X147668000Y-146413323D02*
X143991000Y-146413323D01*
X147488000Y-146973323D02*
X143991000Y-146973323D01*
X147612000Y-146613323D02*
X143991000Y-146613323D01*
X145329000Y-149533323D02*
X140171000Y-149533323D01*
X147715000Y-146213323D02*
X137785000Y-146213323D01*
X147825000Y-145372323D02*
X137675000Y-145372323D01*
X145956000Y-149093323D02*
X139544000Y-149093323D01*
X141509000Y-148253323D02*
X138730000Y-148253323D01*
X147295000Y-147413323D02*
X143991000Y-147413323D01*
X141509000Y-147093323D02*
X138060000Y-147093323D01*
X141509000Y-147213323D02*
X138111000Y-147213323D01*
X145395000Y-149493323D02*
X140105000Y-149493323D01*
X147804000Y-145652323D02*
X137696000Y-145652323D01*
X147790000Y-145772323D02*
X137710000Y-145772323D01*
X146186000Y-148893323D02*
X139314000Y-148893323D01*
X141509000Y-146893323D02*
X137982000Y-146893323D01*
X141509000Y-148693323D02*
X139110000Y-148693323D01*
X141509000Y-148173323D02*
X138670000Y-148173323D01*
X146916000Y-148053323D02*
X143991000Y-148053323D01*
X147635000Y-146533323D02*
X143991000Y-146533323D01*
X147233000Y-147533323D02*
X143991000Y-147533323D01*
X144128000Y-150053323D02*
X141372000Y-150053323D01*
X146888000Y-148093323D02*
X143991000Y-148093323D01*
X145189000Y-149613323D02*
X140311000Y-149613323D01*
X141509000Y-147653323D02*
X138333000Y-147653323D01*
X147424000Y-147133323D02*
X143991000Y-147133323D01*
X147785000Y-145812323D02*
X137715000Y-145812323D01*
X141509000Y-148373323D02*
X138825000Y-148373323D01*
X147389000Y-147213323D02*
X143991000Y-147213323D01*
X146739000Y-148293323D02*
X143991000Y-148293323D01*
X141509000Y-148653323D02*
X139071000Y-148653323D01*
X147504000Y-146933323D02*
X143991000Y-146933323D01*
X141509000Y-148733323D02*
X139149000Y-148733323D01*
X147830000Y-145172323D02*
X137670000Y-145172323D01*
X145856000Y-149173323D02*
X139644000Y-149173323D01*
X141509000Y-146453323D02*
X137843000Y-146453323D01*
X146971000Y-147973323D02*
X143991000Y-147973323D01*
X147275000Y-147453323D02*
X143991000Y-147453323D01*
X147697000Y-146293323D02*
X137803000Y-146293323D01*
X147457000Y-147053323D02*
X143991000Y-147053323D01*
X141509000Y-148413323D02*
X138858000Y-148413323D01*
X141509000Y-146733323D02*
X137926000Y-146733323D01*
X147212000Y-147573323D02*
X143991000Y-147573323D01*
X141509000Y-147453323D02*
X138225000Y-147453323D01*
X146142000Y-148933323D02*
X139358000Y-148933323D01*
X141509000Y-148853323D02*
X139272000Y-148853323D01*
X147795000Y-145732323D02*
X137705000Y-145732323D01*
X147023000Y-147893323D02*
X143991000Y-147893323D01*
X147740000Y-146093323D02*
X137760000Y-146093323D01*
X141509000Y-146853323D02*
X137967000Y-146853323D01*
X146466000Y-148613323D02*
X143991000Y-148613323D01*
X145039000Y-149693323D02*
X140461000Y-149693323D01*
X146642000Y-148413323D02*
X143991000Y-148413323D01*
X141509000Y-147773323D02*
X138403000Y-147773323D01*
X146311000Y-148773323D02*
X143991000Y-148773323D01*
X147190000Y-147613323D02*
X143991000Y-147613323D01*
X147747000Y-146053323D02*
X137753000Y-146053323D01*
X146707000Y-148333323D02*
X143991000Y-148333323D01*
X147823000Y-145412323D02*
X137677000Y-145412323D01*
X147828000Y-145292323D02*
X137672000Y-145292323D01*
X147780000Y-145853323D02*
X137720000Y-145853323D01*
X141509000Y-148573323D02*
X138997000Y-148573323D01*
X141509000Y-147533323D02*
X138267000Y-147533323D01*
X141509000Y-146653323D02*
X137900000Y-146653323D01*
X147600000Y-146653323D02*
X143991000Y-146653323D01*
X147678000Y-146373323D02*
X137822000Y-146373323D01*
X147815000Y-145532323D02*
X137685000Y-145532323D01*
X146390000Y-148693323D02*
X143991000Y-148693323D01*
X147830000Y-145132323D02*
X137670000Y-145132323D01*
X147073000Y-147813323D02*
X143991000Y-147813323D01*
X141509000Y-147013323D02*
X138027000Y-147013323D01*
X147353000Y-147293323D02*
X143991000Y-147293323D01*
X141509000Y-146573323D02*
X137876000Y-146573323D01*
X146051000Y-149013323D02*
X139449000Y-149013323D01*
X141509000Y-146693323D02*
X137913000Y-146693323D01*
X141509000Y-146933323D02*
X137996000Y-146933323D01*
X144380000Y-149973323D02*
X141120000Y-149973323D01*
X147754000Y-146013323D02*
X137746000Y-146013323D01*
X143980000Y-150093323D02*
X141520000Y-150093323D01*
X147818000Y-145492323D02*
X137682000Y-145492323D01*
X147812000Y-145572323D02*
X137688000Y-145572323D01*
X147407000Y-147173323D02*
X143991000Y-147173323D01*
X141509000Y-146413323D02*
X137832000Y-146413323D01*
X146228000Y-148853323D02*
X143991000Y-148853323D01*
X141509000Y-148773323D02*
X139189000Y-148773323D01*
X147657000Y-146453323D02*
X143991000Y-146453323D01*
X147314000Y-147373323D02*
X143991000Y-147373323D01*
X147561000Y-146773323D02*
X143991000Y-146773323D01*
X141509000Y-147573323D02*
X138288000Y-147573323D01*
X145115000Y-149653323D02*
X140385000Y-149653323D01*
X141509000Y-147933323D02*
X138503000Y-147933323D01*
X147145000Y-147693323D02*
X143991000Y-147693323D01*
X147624000Y-146573323D02*
X143991000Y-146573323D01*
X141509000Y-147253323D02*
X138129000Y-147253323D01*
X147829000Y-145252323D02*
X137671000Y-145252323D01*
X147547000Y-146813323D02*
X143991000Y-146813323D01*
X141509000Y-148813323D02*
X139230000Y-148813323D01*
X141509000Y-147893323D02*
X138477000Y-147893323D01*
X141509000Y-147493323D02*
X138246000Y-147493323D01*
X141509000Y-147053323D02*
X138043000Y-147053323D01*
X144875000Y-149773323D02*
X140625000Y-149773323D01*
X147774000Y-145893323D02*
X137726000Y-145893323D01*
X143349000Y-150213323D02*
X142151000Y-150213323D01*
X146097000Y-148973323D02*
X139403000Y-148973323D01*
X143612000Y-150173323D02*
X141888000Y-150173323D01*
X141509000Y-147813323D02*
X138427000Y-147813323D01*
X141509000Y-148613323D02*
X139034000Y-148613323D01*
X141509000Y-147613323D02*
X138310000Y-147613323D01*
X141509000Y-148453323D02*
X138892000Y-148453323D01*
X144694000Y-149853323D02*
X140806000Y-149853323D01*
X145459000Y-149453323D02*
X140041000Y-149453323D01*
X146351000Y-148733323D02*
X143991000Y-148733323D01*
X147533000Y-146853323D02*
X143991000Y-146853323D01*
X147097000Y-147773323D02*
X143991000Y-147773323D01*
X146429000Y-148653323D02*
X143991000Y-148653323D01*
X146800000Y-148213323D02*
X143991000Y-148213323D01*
X147587000Y-146693323D02*
X143991000Y-146693323D01*
X147732000Y-146133323D02*
X137768000Y-146133323D01*
X144260000Y-150013323D02*
X141240000Y-150013323D01*
X147800000Y-145692323D02*
X137700000Y-145692323D01*
X141509000Y-148213323D02*
X138700000Y-148213323D01*
X145695000Y-149293323D02*
X139805000Y-149293323D01*
X147473000Y-147013323D02*
X143991000Y-147013323D01*
X141509000Y-147733323D02*
X138379000Y-147733323D01*
X147254000Y-147493323D02*
X143991000Y-147493323D01*
X141509000Y-147333323D02*
X138166000Y-147333323D01*
X141509000Y-147853323D02*
X138452000Y-147853323D01*
X146503000Y-148573323D02*
X143991000Y-148573323D01*
X143812000Y-150133323D02*
X141688000Y-150133323D01*
X141509000Y-147693323D02*
X138355000Y-147693323D01*
X144596000Y-149893323D02*
X140904000Y-149893323D01*
X146997000Y-147933323D02*
X143991000Y-147933323D01*
X147371000Y-147253323D02*
X143991000Y-147253323D01*
X146830000Y-148173323D02*
X143991000Y-148173323D01*
X147830000Y-145212323D02*
X137670000Y-145212323D01*
X141509000Y-148013323D02*
X138556000Y-148013323D01*
X146860000Y-148133323D02*
X143991000Y-148133323D01*
X147870000Y-145132323D02*
G75*
G03*
X147870000Y-145132323I-5120000J0D01*
G01*
%TO.C,J5*%
X99750000Y-67250000D02*
G75*
G03*
X99750000Y-67250000I-3250000J0D01*
G01*
%TO.C,U2*%
X132120000Y-121952500D02*
X132120000Y-126593500D01*
X121880000Y-121952500D02*
X132120000Y-121952500D01*
X121880000Y-126593500D02*
X132120000Y-126593500D01*
X125150000Y-121952500D02*
X125150000Y-123462500D01*
X121880000Y-121952500D02*
X121880000Y-126593500D01*
X128851000Y-121952500D02*
X128851000Y-123462500D01*
X121880000Y-123462500D02*
X132120000Y-123462500D01*
%TO.C,J2*%
X160895000Y-114405000D02*
X160895000Y-113075000D01*
X163555000Y-111805000D02*
X163555000Y-99045000D01*
X160895000Y-111805000D02*
X160895000Y-99045000D01*
X162225000Y-114405000D02*
X160895000Y-114405000D01*
X163555000Y-111805000D02*
X160895000Y-111805000D01*
X163555000Y-99045000D02*
X160895000Y-99045000D01*
%TO.C,J4*%
X143920000Y-76922500D02*
X145250000Y-76922500D01*
X143920000Y-78252500D02*
X143920000Y-76922500D01*
X149120000Y-79582500D02*
X149120000Y-76922500D01*
X146520000Y-79582500D02*
X146520000Y-76922500D01*
X146520000Y-76922500D02*
X149120000Y-76922500D01*
X146520000Y-79582500D02*
X149120000Y-79582500D01*
%TO.C,J1*%
X105650000Y-151500000D02*
X105650000Y-138650000D01*
X99900000Y-154350000D02*
X103050000Y-154350000D01*
X97350000Y-151500000D02*
X99900000Y-154350000D01*
X105650000Y-138650000D02*
X97350000Y-138650000D01*
X97350000Y-138650000D02*
X97350000Y-151500000D01*
X103050000Y-154350000D02*
X105650000Y-151500000D01*
%TO.C,J6*%
X95555000Y-144230000D02*
X92895000Y-144230000D01*
X92895000Y-146830000D02*
X92895000Y-145500000D01*
X95555000Y-144230000D02*
X95555000Y-141630000D01*
X95555000Y-141630000D02*
X92895000Y-141630000D01*
X94225000Y-146830000D02*
X92895000Y-146830000D01*
X92895000Y-144230000D02*
X92895000Y-141630000D01*
%TO.C,R1*%
X157360000Y-141830000D02*
X153520000Y-141830000D01*
X158310000Y-142750000D02*
X157360000Y-142750000D01*
X153520000Y-143670000D02*
X157360000Y-143670000D01*
X152570000Y-142750000D02*
X153520000Y-142750000D01*
X157360000Y-143670000D02*
X157360000Y-141830000D01*
X153520000Y-141830000D02*
X153520000Y-143670000D01*
%TO.C,LB1*%
X107055000Y-117350000D02*
X104395000Y-117350000D01*
X107055000Y-109670000D02*
X104395000Y-109670000D01*
X107055000Y-117350000D02*
X107055000Y-109670000D01*
X104395000Y-117350000D02*
X104395000Y-109670000D01*
X104395000Y-119950000D02*
X104395000Y-118620000D01*
X105725000Y-119950000D02*
X104395000Y-119950000D01*
%TO.C,LF1*%
X104395000Y-96130000D02*
X104395000Y-94800000D01*
X105725000Y-96130000D02*
X104395000Y-96130000D01*
X107055000Y-85850000D02*
X104395000Y-85850000D01*
X107055000Y-93530000D02*
X104395000Y-93530000D01*
X104395000Y-93530000D02*
X104395000Y-85850000D01*
X107055000Y-93530000D02*
X107055000Y-85850000D01*
%TO.C,J7*%
X122500000Y-134027500D02*
G75*
G03*
X122500000Y-134027500I-3250000J0D01*
G01*
%TO.C,J3*%
X137000000Y-134027500D02*
G75*
G03*
X137000000Y-134027500I-3250000J0D01*
G01*
%TO.C,J10*%
X153500000Y-102750000D02*
G75*
G03*
X153500000Y-102750000I-3250000J0D01*
G01*
%TO.C,RB1*%
X149105000Y-109420000D02*
X149105000Y-110750000D01*
X149105000Y-112020000D02*
X149105000Y-119700000D01*
X146445000Y-112020000D02*
X146445000Y-119700000D01*
X146445000Y-112020000D02*
X149105000Y-112020000D01*
X146445000Y-119700000D02*
X149105000Y-119700000D01*
X147775000Y-109420000D02*
X149105000Y-109420000D01*
%TO.C,U1*%
X137250000Y-112777500D02*
X137250000Y-113177500D01*
X137250000Y-84777500D02*
X137250000Y-85177500D01*
X137250000Y-79677500D02*
X137250000Y-80077500D01*
X116250000Y-94977500D02*
X116250000Y-95377500D01*
X116250000Y-97477500D02*
X116250000Y-97877500D01*
X137250000Y-100077500D02*
X137250000Y-100477500D01*
X137250000Y-105077500D02*
X137250000Y-105477500D01*
X116250000Y-120377500D02*
X116250000Y-120777500D01*
X116250000Y-110177500D02*
X116250000Y-110577500D01*
X116250000Y-92377500D02*
X116250000Y-92777500D01*
X137250000Y-77277500D02*
X137250000Y-77577500D01*
X137250000Y-115277500D02*
X137250000Y-115677500D01*
X116250000Y-100077500D02*
X116250000Y-100477500D01*
X137250000Y-89877500D02*
X137250000Y-90277500D01*
X137250000Y-102577500D02*
X137250000Y-102977500D01*
X137250000Y-87377500D02*
X137250000Y-87777500D01*
X116250000Y-112777500D02*
X116250000Y-113177500D01*
X137250000Y-82277500D02*
X137250000Y-82677500D01*
X137250000Y-122877500D02*
X137250000Y-123277500D01*
X137250000Y-92377500D02*
X137250000Y-92777500D01*
X137250000Y-110177500D02*
X137250000Y-110577500D01*
X137250000Y-125477500D02*
X137250000Y-125877500D01*
X116250000Y-115277500D02*
X116250000Y-115677500D01*
X116250000Y-79944500D02*
X119257000Y-79944500D01*
X116250000Y-82277500D02*
X116250000Y-82677500D01*
X137250000Y-120377500D02*
X137250000Y-120777500D01*
X116250000Y-77277500D02*
X116250000Y-77577500D01*
X116250000Y-102577500D02*
X116250000Y-102977500D01*
X116250000Y-89877500D02*
X116250000Y-90277500D01*
X137250000Y-107677500D02*
X137250000Y-108077500D01*
X137250000Y-94977500D02*
X137250000Y-95377500D01*
X127850000Y-128277500D02*
X128250000Y-128277500D01*
X116250000Y-84777500D02*
X116250000Y-85177500D01*
X137250000Y-128277500D02*
X130450000Y-128277500D01*
X116250000Y-117877500D02*
X116250000Y-118277500D01*
X116250000Y-122877500D02*
X116250000Y-123277500D01*
X116250000Y-77277500D02*
X137250000Y-77277500D01*
X116250000Y-107677500D02*
X116250000Y-108077500D01*
X116250000Y-87377500D02*
X116250000Y-87777500D01*
X125250000Y-128277500D02*
X125650000Y-128277500D01*
X137250000Y-117877500D02*
X137250000Y-118277500D01*
X116250000Y-79677500D02*
X116250000Y-80077500D01*
X119257000Y-79944500D02*
X119257000Y-77277500D01*
X137250000Y-97477500D02*
X137250000Y-97877500D01*
X123050000Y-128277500D02*
X116250000Y-128277500D01*
X116250000Y-105077500D02*
X116250000Y-105477500D01*
X116250000Y-125477500D02*
X116250000Y-125877500D01*
X121670000Y-82457500D02*
X131830000Y-82457500D01*
X131830000Y-82457500D02*
X131830000Y-77377500D01*
X131830000Y-77377500D02*
X121670000Y-77377500D01*
X121670000Y-77377500D02*
X121670000Y-82457500D01*
%TD*%
M02*
