%TF.GenerationSoftware,KiCad,Pcbnew,(6.0.9)*%
%TF.CreationDate,2022-12-13T17:58:30-05:00*%
%TF.ProjectId,Coaster_PCB_CDR,436f6173-7465-4725-9f50-43425f434452,rev?*%
%TF.SameCoordinates,Original*%
%TF.FileFunction,Legend,Bot*%
%TF.FilePolarity,Positive*%
%FSLAX46Y46*%
G04 Gerber Fmt 4.6, Leading zero omitted, Abs format (unit mm)*
G04 Created by KiCad (PCBNEW (6.0.9)) date 2022-12-13 17:58:30*
%MOMM*%
%LPD*%
G01*
G04 APERTURE LIST*
%ADD10C,0.250000*%
G04 APERTURE END LIST*
D10*
X150226190Y-153952380D02*
X150035714Y-153952380D01*
X149940476Y-154000000D01*
X149845238Y-154095238D01*
X149797619Y-154285714D01*
X149797619Y-154619047D01*
X149845238Y-154809523D01*
X149940476Y-154904761D01*
X150035714Y-154952380D01*
X150226190Y-154952380D01*
X150321428Y-154904761D01*
X150416666Y-154809523D01*
X150464285Y-154619047D01*
X150464285Y-154285714D01*
X150416666Y-154095238D01*
X150321428Y-154000000D01*
X150226190Y-153952380D01*
X149369047Y-154952380D02*
X149369047Y-154285714D01*
X149369047Y-154380952D02*
X149321428Y-154333333D01*
X149226190Y-154285714D01*
X149083333Y-154285714D01*
X148988095Y-154333333D01*
X148940476Y-154428571D01*
X148940476Y-154952380D01*
X148940476Y-154428571D02*
X148892857Y-154333333D01*
X148797619Y-154285714D01*
X148654761Y-154285714D01*
X148559523Y-154333333D01*
X148511904Y-154428571D01*
X148511904Y-154952380D01*
X147607142Y-154952380D02*
X147607142Y-154428571D01*
X147654761Y-154333333D01*
X147750000Y-154285714D01*
X147940476Y-154285714D01*
X148035714Y-154333333D01*
X147607142Y-154904761D02*
X147702380Y-154952380D01*
X147940476Y-154952380D01*
X148035714Y-154904761D01*
X148083333Y-154809523D01*
X148083333Y-154714285D01*
X148035714Y-154619047D01*
X147940476Y-154571428D01*
X147702380Y-154571428D01*
X147607142Y-154523809D01*
X147130952Y-154952380D02*
X147130952Y-154285714D01*
X147130952Y-154476190D02*
X147083333Y-154380952D01*
X147035714Y-154333333D01*
X146940476Y-154285714D01*
X146845238Y-154285714D01*
X145797619Y-154666666D02*
X145321428Y-154666666D01*
X145892857Y-154952380D02*
X145559523Y-153952380D01*
X145226190Y-154952380D01*
X144892857Y-154952380D02*
X144892857Y-154285714D01*
X144892857Y-154476190D02*
X144845238Y-154380952D01*
X144797619Y-154333333D01*
X144702380Y-154285714D01*
X144607142Y-154285714D01*
X143892857Y-154904761D02*
X143988095Y-154952380D01*
X144178571Y-154952380D01*
X144273809Y-154904761D01*
X144321428Y-154809523D01*
X144321428Y-154428571D01*
X144273809Y-154333333D01*
X144178571Y-154285714D01*
X143988095Y-154285714D01*
X143892857Y-154333333D01*
X143845238Y-154428571D01*
X143845238Y-154523809D01*
X144321428Y-154619047D01*
X143416666Y-154952380D02*
X143416666Y-154285714D01*
X143416666Y-153952380D02*
X143464285Y-154000000D01*
X143416666Y-154047619D01*
X143369047Y-154000000D01*
X143416666Y-153952380D01*
X143416666Y-154047619D01*
X142511904Y-154285714D02*
X142511904Y-155285714D01*
X142511904Y-154904761D02*
X142607142Y-154952380D01*
X142797619Y-154952380D01*
X142892857Y-154904761D01*
X142940476Y-154857142D01*
X142988095Y-154761904D01*
X142988095Y-154476190D01*
X142940476Y-154380952D01*
X142892857Y-154333333D01*
X142797619Y-154285714D01*
X142607142Y-154285714D01*
X142511904Y-154333333D01*
X141607142Y-154952380D02*
X141607142Y-154428571D01*
X141654761Y-154333333D01*
X141750000Y-154285714D01*
X141940476Y-154285714D01*
X142035714Y-154333333D01*
X141607142Y-154904761D02*
X141702380Y-154952380D01*
X141940476Y-154952380D01*
X142035714Y-154904761D01*
X142083333Y-154809523D01*
X142083333Y-154714285D01*
X142035714Y-154619047D01*
X141940476Y-154571428D01*
X141702380Y-154571428D01*
X141607142Y-154523809D01*
X141273809Y-154285714D02*
X140892857Y-154285714D01*
X141130952Y-153952380D02*
X141130952Y-154809523D01*
X141083333Y-154904761D01*
X140988095Y-154952380D01*
X140892857Y-154952380D01*
X139845238Y-154904761D02*
X139702380Y-154952380D01*
X139464285Y-154952380D01*
X139369047Y-154904761D01*
X139321428Y-154857142D01*
X139273809Y-154761904D01*
X139273809Y-154666666D01*
X139321428Y-154571428D01*
X139369047Y-154523809D01*
X139464285Y-154476190D01*
X139654761Y-154428571D01*
X139750000Y-154380952D01*
X139797619Y-154333333D01*
X139845238Y-154238095D01*
X139845238Y-154142857D01*
X139797619Y-154047619D01*
X139750000Y-154000000D01*
X139654761Y-153952380D01*
X139416666Y-153952380D01*
X139273809Y-154000000D01*
X138845238Y-154952380D02*
X138845238Y-153952380D01*
X138607142Y-153952380D01*
X138464285Y-154000000D01*
X138369047Y-154095238D01*
X138321428Y-154190476D01*
X138273809Y-154380952D01*
X138273809Y-154523809D01*
X138321428Y-154714285D01*
X138369047Y-154809523D01*
X138464285Y-154904761D01*
X138607142Y-154952380D01*
X138845238Y-154952380D01*
X137845238Y-154952380D02*
X137845238Y-153952380D01*
X137464285Y-153952380D01*
X137369047Y-154000000D01*
X137321428Y-154047619D01*
X137273809Y-154142857D01*
X137273809Y-154285714D01*
X137321428Y-154380952D01*
X137369047Y-154428571D01*
X137464285Y-154476190D01*
X137845238Y-154476190D01*
X136892857Y-154047619D02*
X136845238Y-154000000D01*
X136750000Y-153952380D01*
X136511904Y-153952380D01*
X136416666Y-154000000D01*
X136369047Y-154047619D01*
X136321428Y-154142857D01*
X136321428Y-154238095D01*
X136369047Y-154380952D01*
X136940476Y-154952380D01*
X136321428Y-154952380D01*
X135988095Y-153952380D02*
X135369047Y-153952380D01*
X135702380Y-154333333D01*
X135559523Y-154333333D01*
X135464285Y-154380952D01*
X135416666Y-154428571D01*
X135369047Y-154523809D01*
X135369047Y-154761904D01*
X135416666Y-154857142D01*
X135464285Y-154904761D01*
X135559523Y-154952380D01*
X135845238Y-154952380D01*
X135940476Y-154904761D01*
X135988095Y-154857142D01*
X134321428Y-153952380D02*
X133750000Y-153952380D01*
X134035714Y-154952380D02*
X134035714Y-153952380D01*
X133035714Y-154904761D02*
X133130952Y-154952380D01*
X133321428Y-154952380D01*
X133416666Y-154904761D01*
X133464285Y-154809523D01*
X133464285Y-154428571D01*
X133416666Y-154333333D01*
X133321428Y-154285714D01*
X133130952Y-154285714D01*
X133035714Y-154333333D01*
X132988095Y-154428571D01*
X132988095Y-154523809D01*
X133464285Y-154619047D01*
X132130952Y-154952380D02*
X132130952Y-154428571D01*
X132178571Y-154333333D01*
X132273809Y-154285714D01*
X132464285Y-154285714D01*
X132559523Y-154333333D01*
X132130952Y-154904761D02*
X132226190Y-154952380D01*
X132464285Y-154952380D01*
X132559523Y-154904761D01*
X132607142Y-154809523D01*
X132607142Y-154714285D01*
X132559523Y-154619047D01*
X132464285Y-154571428D01*
X132226190Y-154571428D01*
X132130952Y-154523809D01*
X131654761Y-154952380D02*
X131654761Y-154285714D01*
X131654761Y-154380952D02*
X131607142Y-154333333D01*
X131511904Y-154285714D01*
X131369047Y-154285714D01*
X131273809Y-154333333D01*
X131226190Y-154428571D01*
X131226190Y-154952380D01*
X131226190Y-154428571D02*
X131178571Y-154333333D01*
X131083333Y-154285714D01*
X130940476Y-154285714D01*
X130845238Y-154333333D01*
X130797619Y-154428571D01*
X130797619Y-154952380D01*
X129083333Y-153952380D02*
X129559523Y-153952380D01*
X129607142Y-154428571D01*
X129559523Y-154380952D01*
X129464285Y-154333333D01*
X129226190Y-154333333D01*
X129130952Y-154380952D01*
X129083333Y-154428571D01*
X129035714Y-154523809D01*
X129035714Y-154761904D01*
X129083333Y-154857142D01*
X129130952Y-154904761D01*
X129226190Y-154952380D01*
X129464285Y-154952380D01*
X129559523Y-154904761D01*
X129607142Y-154857142D01*
%TO.C,Qat*%
G36*
X164859918Y-125006678D02*
G01*
X165069827Y-125129698D01*
X165146333Y-125311500D01*
X165134883Y-125393025D01*
X165070602Y-125444758D01*
X164914787Y-125460144D01*
X164628907Y-125449456D01*
X164146359Y-125476028D01*
X163671887Y-125637843D01*
X163291711Y-125934990D01*
X163152734Y-126071888D01*
X163043732Y-126100618D01*
X162902667Y-126029495D01*
X162878113Y-126011183D01*
X162828403Y-125878858D01*
X162906312Y-125708377D01*
X163086163Y-125519168D01*
X163342281Y-125330657D01*
X163648989Y-125162272D01*
X163980609Y-125033439D01*
X164311465Y-124963587D01*
X164546018Y-124954698D01*
X164859918Y-125006678D01*
G37*
G36*
X167201011Y-131586402D02*
G01*
X167121999Y-132314299D01*
X167001525Y-133029672D01*
X166833840Y-133784910D01*
X166723211Y-134200282D01*
X166403350Y-135132686D01*
X166007580Y-135997363D01*
X165547533Y-136779811D01*
X165034840Y-137465528D01*
X164481134Y-138040011D01*
X163898045Y-138488758D01*
X163297208Y-138797266D01*
X162690252Y-138951033D01*
X162517802Y-138962961D01*
X162175585Y-138946316D01*
X161858650Y-138886748D01*
X161614903Y-138795021D01*
X161492248Y-138681896D01*
X161386501Y-138595442D01*
X161171532Y-138559333D01*
X161130457Y-138560048D01*
X160924845Y-138610717D01*
X160803354Y-138766723D01*
X160656298Y-138944033D01*
X160372108Y-139076422D01*
X159995079Y-139130388D01*
X159556250Y-139105246D01*
X159086663Y-139000313D01*
X158617358Y-138814904D01*
X158537933Y-138776179D01*
X158312697Y-138676172D01*
X158108050Y-138612713D01*
X157876521Y-138577572D01*
X157570640Y-138562521D01*
X157142935Y-138559333D01*
X157020506Y-138559467D01*
X156634585Y-138564244D01*
X156369946Y-138580582D01*
X156188329Y-138614846D01*
X156051478Y-138673402D01*
X155921134Y-138762615D01*
X155728570Y-138885432D01*
X155273504Y-139069621D01*
X154732333Y-139183223D01*
X154633923Y-139192738D01*
X154214317Y-139195133D01*
X153692950Y-139156995D01*
X153116301Y-139084879D01*
X152530847Y-138985337D01*
X151983065Y-138864924D01*
X151519434Y-138730192D01*
X150964773Y-138500957D01*
X150187624Y-138035910D01*
X149495783Y-137444404D01*
X148901609Y-136744495D01*
X148417464Y-135954239D01*
X148055708Y-135091692D01*
X147828701Y-134174912D01*
X147756186Y-133310000D01*
X148305775Y-133310000D01*
X148305991Y-133333710D01*
X148319652Y-133798989D01*
X148357095Y-134165990D01*
X148428630Y-134502304D01*
X148544566Y-134875521D01*
X148829905Y-135578094D01*
X149302831Y-136386763D01*
X149890387Y-137071317D01*
X150594656Y-137633681D01*
X151417722Y-138075777D01*
X152361667Y-138399528D01*
X152419245Y-138414265D01*
X152906071Y-138511031D01*
X153443795Y-138578193D01*
X153989251Y-138614006D01*
X154499271Y-138616726D01*
X154930688Y-138584607D01*
X155240333Y-138515904D01*
X155291985Y-138495616D01*
X155650152Y-138282700D01*
X155879300Y-138002333D01*
X155960000Y-137677157D01*
X155911517Y-137430432D01*
X155716999Y-137161034D01*
X155389277Y-136950168D01*
X154945095Y-136805009D01*
X154401197Y-136732732D01*
X153774328Y-136740512D01*
X153263600Y-136753631D01*
X152364079Y-136649742D01*
X151506365Y-136387197D01*
X150708384Y-135972290D01*
X149988061Y-135411312D01*
X149851390Y-135275891D01*
X149556290Y-134932500D01*
X149296995Y-134565613D01*
X149094818Y-134210703D01*
X148971074Y-133903244D01*
X148947075Y-133678711D01*
X148990612Y-133578767D01*
X149104088Y-133498763D01*
X149218902Y-133510988D01*
X149271333Y-133625835D01*
X149297499Y-133807293D01*
X149444954Y-134156660D01*
X149700597Y-134543129D01*
X150039479Y-134938791D01*
X150436649Y-135315737D01*
X150867159Y-135646061D01*
X151306058Y-135901853D01*
X151478873Y-135982213D01*
X151841984Y-136126818D01*
X152211649Y-136232282D01*
X152628531Y-136306763D01*
X153133294Y-136358418D01*
X153766601Y-136395402D01*
X154436498Y-136441308D01*
X154990769Y-136518545D01*
X155423595Y-136632041D01*
X155758508Y-136788037D01*
X156019042Y-136992775D01*
X156148194Y-137134572D01*
X156267165Y-137349280D01*
X156298667Y-137608025D01*
X156301787Y-137770914D01*
X156338509Y-137897651D01*
X156453484Y-137958381D01*
X156691484Y-137997492D01*
X156772091Y-138007700D01*
X157114660Y-138038807D01*
X157421934Y-138051333D01*
X157759566Y-138051333D01*
X157428364Y-137691500D01*
X157227693Y-137461378D01*
X156916886Y-137058189D01*
X156639817Y-136644962D01*
X156416783Y-136255298D01*
X156268078Y-135922797D01*
X156214000Y-135681061D01*
X156229972Y-135586414D01*
X156308586Y-135553837D01*
X156436096Y-135644870D01*
X156593695Y-135843934D01*
X156762579Y-136135454D01*
X156928541Y-136430888D01*
X157303831Y-136961860D01*
X157748320Y-137462236D01*
X158229190Y-137900278D01*
X158713623Y-138244249D01*
X159168801Y-138462411D01*
X159389491Y-138515589D01*
X159683228Y-138549723D01*
X159971743Y-138555400D01*
X160201266Y-138531873D01*
X160318030Y-138478393D01*
X160323837Y-138467134D01*
X160313588Y-138295906D01*
X160189698Y-138000327D01*
X159952033Y-137580122D01*
X159600457Y-137035021D01*
X159518963Y-136912868D01*
X159177409Y-136371912D01*
X158944834Y-135946601D01*
X158822854Y-135640175D01*
X158813085Y-135455877D01*
X158867635Y-135367649D01*
X158983067Y-135357423D01*
X159125434Y-135499389D01*
X159284685Y-135786500D01*
X159356514Y-135931394D01*
X159533953Y-136253882D01*
X159755508Y-136629033D01*
X159989391Y-137002022D01*
X160151741Y-137252697D01*
X160346187Y-137554236D01*
X160494804Y-137786238D01*
X160574333Y-137912503D01*
X160581905Y-137924386D01*
X160670527Y-137998476D01*
X160830084Y-138020201D01*
X161107680Y-137997026D01*
X161223275Y-137981610D01*
X161451234Y-137929508D01*
X161587788Y-137839120D01*
X161690185Y-137679211D01*
X161742667Y-137580371D01*
X161882640Y-137328507D01*
X162067215Y-137004591D01*
X162270509Y-136654333D01*
X162391785Y-136442772D01*
X162583091Y-136090314D01*
X162736500Y-135784724D01*
X162826846Y-135574833D01*
X162847784Y-135520935D01*
X162963135Y-135340634D01*
X163092433Y-135251995D01*
X163197794Y-135270088D01*
X163241333Y-135409978D01*
X163239241Y-135433815D01*
X163181609Y-135620602D01*
X163057334Y-135912063D01*
X162882957Y-136274872D01*
X162675023Y-136675701D01*
X162450074Y-137081225D01*
X162224653Y-137458118D01*
X162175505Y-137537400D01*
X161985891Y-137876705D01*
X161908663Y-138109782D01*
X161947408Y-138256838D01*
X162105711Y-138338085D01*
X162387159Y-138373732D01*
X162805877Y-138345923D01*
X163343208Y-138162606D01*
X163891058Y-137812796D01*
X164451531Y-137295393D01*
X164858759Y-136822410D01*
X165432264Y-135969505D01*
X165897943Y-135007417D01*
X166257530Y-133930528D01*
X166512757Y-132733224D01*
X166665357Y-131409888D01*
X166717065Y-129954905D01*
X166706310Y-129229956D01*
X166622295Y-127980969D01*
X166450504Y-126833342D01*
X166185591Y-125755790D01*
X165822211Y-124717026D01*
X165732262Y-124488670D01*
X165653925Y-124247568D01*
X165624230Y-124037693D01*
X165635845Y-123792896D01*
X165681437Y-123447026D01*
X165698443Y-123322157D01*
X165749938Y-122878998D01*
X165798013Y-122382136D01*
X165834102Y-121917394D01*
X165850376Y-121583434D01*
X165843769Y-121169746D01*
X165793325Y-120894730D01*
X165695193Y-120742082D01*
X165545521Y-120695494D01*
X165419649Y-120718518D01*
X165153746Y-120817950D01*
X164828123Y-120974923D01*
X164489354Y-121166391D01*
X164184009Y-121369303D01*
X163814352Y-121641295D01*
X164057009Y-121789260D01*
X164260562Y-121933427D01*
X164415036Y-122076944D01*
X164441037Y-122109511D01*
X164481370Y-122209834D01*
X164382654Y-122273360D01*
X164250100Y-122283560D01*
X164055618Y-122216110D01*
X163351621Y-121834790D01*
X162558271Y-121559688D01*
X161771737Y-121447566D01*
X161000893Y-121498670D01*
X160254617Y-121713244D01*
X159541783Y-122091533D01*
X159322549Y-122227867D01*
X159103684Y-122343536D01*
X158971966Y-122388000D01*
X158881840Y-122378213D01*
X158807716Y-122301888D01*
X158877330Y-122158484D01*
X159087899Y-121958318D01*
X159425179Y-121687272D01*
X159110756Y-121433517D01*
X159006393Y-121354047D01*
X158695316Y-121153559D01*
X158354235Y-120972171D01*
X158025503Y-120829137D01*
X157751475Y-120743711D01*
X157574505Y-120735147D01*
X157561086Y-120739785D01*
X157446106Y-120828879D01*
X157374326Y-121006116D01*
X157343465Y-121290927D01*
X157351242Y-121702745D01*
X157395376Y-122261000D01*
X157432187Y-122638985D01*
X157486222Y-123189954D01*
X157524911Y-123608816D01*
X157547071Y-123919025D01*
X157551517Y-124144039D01*
X157537065Y-124307310D01*
X157502531Y-124432295D01*
X157446732Y-124542448D01*
X157368482Y-124661225D01*
X157266599Y-124812080D01*
X157142674Y-124992784D01*
X156694447Y-125543822D01*
X156180638Y-126052879D01*
X155643218Y-126481208D01*
X155124154Y-126790062D01*
X154503280Y-127085791D01*
X154544244Y-127449223D01*
X154570229Y-127578868D01*
X154664262Y-127877817D01*
X154805980Y-128242662D01*
X154976271Y-128621540D01*
X155139380Y-128968806D01*
X155284257Y-129317113D01*
X155352759Y-129556935D01*
X155350436Y-129709548D01*
X155282841Y-129796226D01*
X155263143Y-129804982D01*
X155106843Y-129781370D01*
X154895520Y-129660968D01*
X154672327Y-129473271D01*
X154480421Y-129247776D01*
X154461961Y-129220546D01*
X154266830Y-128885781D01*
X154071531Y-128482041D01*
X153907486Y-128079244D01*
X153806117Y-127747310D01*
X153747033Y-127476287D01*
X153192519Y-127740717D01*
X153271023Y-128175858D01*
X153307664Y-128324122D01*
X153419833Y-128651474D01*
X153578211Y-129037535D01*
X153761029Y-129426736D01*
X153808213Y-129520922D01*
X154027130Y-129986152D01*
X154156634Y-130327272D01*
X154199832Y-130559078D01*
X154159831Y-130696371D01*
X154039739Y-130753948D01*
X153851048Y-130720861D01*
X153597420Y-130554331D01*
X153326316Y-130272673D01*
X153059779Y-129899310D01*
X152819852Y-129457667D01*
X152773916Y-129357660D01*
X152624926Y-129005803D01*
X152507502Y-128687971D01*
X152443818Y-128462833D01*
X152432140Y-128403207D01*
X152385478Y-128219377D01*
X152348040Y-128145333D01*
X152342941Y-128146024D01*
X152235275Y-128189458D01*
X152051066Y-128279711D01*
X151958910Y-128329946D01*
X151849522Y-128424845D01*
X151814843Y-128565276D01*
X151829469Y-128812292D01*
X151831600Y-128831807D01*
X151904707Y-129141485D01*
X152053586Y-129547293D01*
X152262866Y-130006867D01*
X152465101Y-130434739D01*
X152602410Y-130786091D01*
X152650930Y-131020989D01*
X152613164Y-131152410D01*
X152491613Y-131193333D01*
X152377492Y-131174233D01*
X152123314Y-131024613D01*
X151857250Y-130747033D01*
X151597494Y-130366257D01*
X151362240Y-129907047D01*
X151169685Y-129394167D01*
X151095781Y-129173358D01*
X151018700Y-128981616D01*
X150970371Y-128908147D01*
X150859617Y-128955958D01*
X150650968Y-129099770D01*
X150380128Y-129314182D01*
X150077106Y-129573446D01*
X149771912Y-129851810D01*
X149494555Y-130123525D01*
X149275046Y-130362840D01*
X149180416Y-130478677D01*
X148777151Y-131086952D01*
X148503564Y-131741504D01*
X148349743Y-132472474D01*
X148305775Y-133310000D01*
X147756186Y-133310000D01*
X147748804Y-133221955D01*
X147767067Y-132801507D01*
X147924227Y-131930300D01*
X148232342Y-131089499D01*
X148679309Y-130308126D01*
X149253025Y-129615201D01*
X149519709Y-129357586D01*
X149853705Y-129068943D01*
X150223652Y-128789054D01*
X150649543Y-128505453D01*
X151151376Y-128205675D01*
X151749147Y-127877255D01*
X152462851Y-127507728D01*
X153312485Y-127084629D01*
X153326791Y-127077600D01*
X154037561Y-126725204D01*
X154615382Y-126428746D01*
X155080716Y-126173557D01*
X155454029Y-125944968D01*
X155755786Y-125728311D01*
X156006450Y-125508916D01*
X156226487Y-125272115D01*
X156436360Y-125003239D01*
X156656535Y-124687618D01*
X157076014Y-124066237D01*
X156968261Y-123332952D01*
X156940937Y-123117269D01*
X156898348Y-122645396D01*
X156867863Y-122127031D01*
X156854754Y-121640736D01*
X156849000Y-120681805D01*
X157136492Y-120424417D01*
X157164335Y-120399681D01*
X157360836Y-120251575D01*
X157541366Y-120199914D01*
X157792135Y-120217490D01*
X157985214Y-120256899D01*
X158442578Y-120421023D01*
X158948472Y-120680225D01*
X159459495Y-121013778D01*
X159511612Y-121051717D01*
X159723465Y-121197750D01*
X159864470Y-121258542D01*
X159989727Y-121246941D01*
X160154333Y-121175795D01*
X160381704Y-121083592D01*
X160942845Y-120948031D01*
X161566036Y-120897448D01*
X162190269Y-120938941D01*
X162194947Y-120939639D01*
X162553124Y-121004163D01*
X162886213Y-121082682D01*
X163122667Y-121158358D01*
X163189070Y-121185724D01*
X163336885Y-121231247D01*
X163463599Y-121217216D01*
X163621078Y-121129191D01*
X163861189Y-120952729D01*
X164258993Y-120678437D01*
X164768483Y-120404468D01*
X165235295Y-120241092D01*
X165638046Y-120195240D01*
X165955357Y-120273843D01*
X166041964Y-120327146D01*
X166190626Y-120477457D01*
X166289946Y-120695489D01*
X166345570Y-121006114D01*
X166363146Y-121434204D01*
X166348319Y-122004628D01*
X166321695Y-122467211D01*
X166285279Y-122918945D01*
X166244016Y-123304900D01*
X166202708Y-123573333D01*
X166169808Y-123744881D01*
X166150455Y-123945627D01*
X166172718Y-124136475D01*
X166245000Y-124372588D01*
X166375701Y-124709129D01*
X166612120Y-125350088D01*
X166903897Y-126376424D01*
X167105156Y-127459564D01*
X167221271Y-128631276D01*
X167257616Y-129923333D01*
X167257133Y-129954905D01*
X167244311Y-130793596D01*
X167201011Y-131586402D01*
G37*
G36*
X162725325Y-127012425D02*
G01*
X162533196Y-127211027D01*
X162292491Y-127364602D01*
X162222149Y-127398974D01*
X162025426Y-127548502D01*
X161987100Y-127723542D01*
X162098439Y-127950457D01*
X162146771Y-128010734D01*
X162397868Y-128167648D01*
X162723471Y-128187544D01*
X163099905Y-128067651D01*
X163120135Y-128057869D01*
X163372286Y-127941956D01*
X163510332Y-127903057D01*
X163568245Y-127940051D01*
X163580000Y-128051819D01*
X163578498Y-128071573D01*
X163475457Y-128228992D01*
X163220167Y-128394989D01*
X162803240Y-128530001D01*
X162380032Y-128509334D01*
X161986451Y-128325431D01*
X161941266Y-128293394D01*
X161792615Y-128202955D01*
X161699196Y-128209555D01*
X161593946Y-128310675D01*
X161482272Y-128405392D01*
X161175621Y-128520258D01*
X160803521Y-128523244D01*
X160410693Y-128410574D01*
X160270170Y-128342952D01*
X160081450Y-128207296D01*
X160024000Y-128065427D01*
X160024081Y-128047443D01*
X160038368Y-127937239D01*
X160101014Y-127903965D01*
X160246044Y-127947891D01*
X160507481Y-128069290D01*
X160523520Y-128076970D01*
X160887925Y-128193126D01*
X161193841Y-128159556D01*
X161465487Y-127973846D01*
X161495160Y-127942842D01*
X161619706Y-127727822D01*
X161578478Y-127542531D01*
X161372641Y-127394237D01*
X161290618Y-127349840D01*
X161096687Y-127176682D01*
X160956558Y-126961222D01*
X160900658Y-126766329D01*
X161397080Y-126766329D01*
X161421708Y-126860876D01*
X161585007Y-126949648D01*
X161860773Y-126994318D01*
X162142754Y-126965709D01*
X162351626Y-126863589D01*
X162384201Y-126807185D01*
X162326020Y-126716487D01*
X162149396Y-126649844D01*
X161886667Y-126623926D01*
X161723391Y-126633415D01*
X161508667Y-126684889D01*
X161397080Y-126766329D01*
X160900658Y-126766329D01*
X160896675Y-126752441D01*
X160943481Y-126599319D01*
X160960193Y-126586971D01*
X161125224Y-126540252D01*
X161401729Y-126509090D01*
X161743043Y-126493653D01*
X162102499Y-126494111D01*
X162433432Y-126510630D01*
X162689176Y-126543381D01*
X162823064Y-126592531D01*
X162853418Y-126640853D01*
X162841399Y-126807185D01*
X162841270Y-126808974D01*
X162725325Y-127012425D01*
G37*
G36*
X159496088Y-124980018D02*
G01*
X159597181Y-125001120D01*
X159991295Y-125124774D01*
X160340019Y-125294775D01*
X160620014Y-125492055D01*
X160807940Y-125697547D01*
X160880456Y-125892180D01*
X160814222Y-126056889D01*
X160751694Y-126099227D01*
X160590073Y-126091195D01*
X160451747Y-125952247D01*
X160401368Y-125888501D01*
X160219169Y-125742881D01*
X159974980Y-125602096D01*
X159889627Y-125562158D01*
X159641123Y-125473824D01*
X159386111Y-125444857D01*
X159045074Y-125463395D01*
X158781701Y-125478462D01*
X158561731Y-125470896D01*
X158460255Y-125440187D01*
X158435558Y-125380735D01*
X158473961Y-125230469D01*
X158633832Y-125099886D01*
X158880555Y-125004364D01*
X159179512Y-124959282D01*
X159496088Y-124980018D01*
G37*
G36*
X101609918Y-125006678D02*
G01*
X101819827Y-125129698D01*
X101896333Y-125311500D01*
X101884883Y-125393025D01*
X101820602Y-125444758D01*
X101664787Y-125460144D01*
X101378907Y-125449456D01*
X100896359Y-125476028D01*
X100421887Y-125637843D01*
X100041711Y-125934990D01*
X99902734Y-126071888D01*
X99793732Y-126100618D01*
X99652667Y-126029495D01*
X99628113Y-126011183D01*
X99578403Y-125878858D01*
X99656312Y-125708377D01*
X99836163Y-125519168D01*
X100092281Y-125330657D01*
X100398989Y-125162272D01*
X100730609Y-125033439D01*
X101061465Y-124963587D01*
X101296018Y-124954698D01*
X101609918Y-125006678D01*
G37*
G36*
X103951011Y-131586402D02*
G01*
X103871999Y-132314299D01*
X103751525Y-133029672D01*
X103583840Y-133784910D01*
X103473211Y-134200282D01*
X103153350Y-135132686D01*
X102757580Y-135997363D01*
X102297533Y-136779811D01*
X101784840Y-137465528D01*
X101231134Y-138040011D01*
X100648045Y-138488758D01*
X100047208Y-138797266D01*
X99440252Y-138951033D01*
X99267802Y-138962961D01*
X98925585Y-138946316D01*
X98608650Y-138886748D01*
X98364903Y-138795021D01*
X98242248Y-138681896D01*
X98136501Y-138595442D01*
X97921532Y-138559333D01*
X97880457Y-138560048D01*
X97674845Y-138610717D01*
X97553354Y-138766723D01*
X97406298Y-138944033D01*
X97122108Y-139076422D01*
X96745079Y-139130388D01*
X96306250Y-139105246D01*
X95836663Y-139000313D01*
X95367358Y-138814904D01*
X95287933Y-138776179D01*
X95062697Y-138676172D01*
X94858050Y-138612713D01*
X94626521Y-138577572D01*
X94320640Y-138562521D01*
X93892935Y-138559333D01*
X93770506Y-138559467D01*
X93384585Y-138564244D01*
X93119946Y-138580582D01*
X92938329Y-138614846D01*
X92801478Y-138673402D01*
X92671134Y-138762615D01*
X92478570Y-138885432D01*
X92023504Y-139069621D01*
X91482333Y-139183223D01*
X91383923Y-139192738D01*
X90964317Y-139195133D01*
X90442950Y-139156995D01*
X89866301Y-139084879D01*
X89280847Y-138985337D01*
X88733065Y-138864924D01*
X88269434Y-138730192D01*
X87714773Y-138500957D01*
X86937624Y-138035910D01*
X86245783Y-137444404D01*
X85651609Y-136744495D01*
X85167464Y-135954239D01*
X84805708Y-135091692D01*
X84578701Y-134174912D01*
X84506186Y-133310000D01*
X85055775Y-133310000D01*
X85055991Y-133333710D01*
X85069652Y-133798989D01*
X85107095Y-134165990D01*
X85178630Y-134502304D01*
X85294566Y-134875521D01*
X85579905Y-135578094D01*
X86052831Y-136386763D01*
X86640387Y-137071317D01*
X87344656Y-137633681D01*
X88167722Y-138075777D01*
X89111667Y-138399528D01*
X89169245Y-138414265D01*
X89656071Y-138511031D01*
X90193795Y-138578193D01*
X90739251Y-138614006D01*
X91249271Y-138616726D01*
X91680688Y-138584607D01*
X91990333Y-138515904D01*
X92041985Y-138495616D01*
X92400152Y-138282700D01*
X92629300Y-138002333D01*
X92710000Y-137677157D01*
X92661517Y-137430432D01*
X92466999Y-137161034D01*
X92139277Y-136950168D01*
X91695095Y-136805009D01*
X91151197Y-136732732D01*
X90524328Y-136740512D01*
X90013600Y-136753631D01*
X89114079Y-136649742D01*
X88256365Y-136387197D01*
X87458384Y-135972290D01*
X86738061Y-135411312D01*
X86601390Y-135275891D01*
X86306290Y-134932500D01*
X86046995Y-134565613D01*
X85844818Y-134210703D01*
X85721074Y-133903244D01*
X85697075Y-133678711D01*
X85740612Y-133578767D01*
X85854088Y-133498763D01*
X85968902Y-133510988D01*
X86021333Y-133625835D01*
X86047499Y-133807293D01*
X86194954Y-134156660D01*
X86450597Y-134543129D01*
X86789479Y-134938791D01*
X87186649Y-135315737D01*
X87617159Y-135646061D01*
X88056058Y-135901853D01*
X88228873Y-135982213D01*
X88591984Y-136126818D01*
X88961649Y-136232282D01*
X89378531Y-136306763D01*
X89883294Y-136358418D01*
X90516601Y-136395402D01*
X91186498Y-136441308D01*
X91740769Y-136518545D01*
X92173595Y-136632041D01*
X92508508Y-136788037D01*
X92769042Y-136992775D01*
X92898194Y-137134572D01*
X93017165Y-137349280D01*
X93048667Y-137608025D01*
X93051787Y-137770914D01*
X93088509Y-137897651D01*
X93203484Y-137958381D01*
X93441484Y-137997492D01*
X93522091Y-138007700D01*
X93864660Y-138038807D01*
X94171934Y-138051333D01*
X94509566Y-138051333D01*
X94178364Y-137691500D01*
X93977693Y-137461378D01*
X93666886Y-137058189D01*
X93389817Y-136644962D01*
X93166783Y-136255298D01*
X93018078Y-135922797D01*
X92964000Y-135681061D01*
X92979972Y-135586414D01*
X93058586Y-135553837D01*
X93186096Y-135644870D01*
X93343695Y-135843934D01*
X93512579Y-136135454D01*
X93678541Y-136430888D01*
X94053831Y-136961860D01*
X94498320Y-137462236D01*
X94979190Y-137900278D01*
X95463623Y-138244249D01*
X95918801Y-138462411D01*
X96139491Y-138515589D01*
X96433228Y-138549723D01*
X96721743Y-138555400D01*
X96951266Y-138531873D01*
X97068030Y-138478393D01*
X97073837Y-138467134D01*
X97063588Y-138295906D01*
X96939698Y-138000327D01*
X96702033Y-137580122D01*
X96350457Y-137035021D01*
X96268963Y-136912868D01*
X95927409Y-136371912D01*
X95694834Y-135946601D01*
X95572854Y-135640175D01*
X95563085Y-135455877D01*
X95617635Y-135367649D01*
X95733067Y-135357423D01*
X95875434Y-135499389D01*
X96034685Y-135786500D01*
X96106514Y-135931394D01*
X96283953Y-136253882D01*
X96505508Y-136629033D01*
X96739391Y-137002022D01*
X96901741Y-137252697D01*
X97096187Y-137554236D01*
X97244804Y-137786238D01*
X97324333Y-137912503D01*
X97331905Y-137924386D01*
X97420527Y-137998476D01*
X97580084Y-138020201D01*
X97857680Y-137997026D01*
X97973275Y-137981610D01*
X98201234Y-137929508D01*
X98337788Y-137839120D01*
X98440185Y-137679211D01*
X98492667Y-137580371D01*
X98632640Y-137328507D01*
X98817215Y-137004591D01*
X99020509Y-136654333D01*
X99141785Y-136442772D01*
X99333091Y-136090314D01*
X99486500Y-135784724D01*
X99576846Y-135574833D01*
X99597784Y-135520935D01*
X99713135Y-135340634D01*
X99842433Y-135251995D01*
X99947794Y-135270088D01*
X99991333Y-135409978D01*
X99989241Y-135433815D01*
X99931609Y-135620602D01*
X99807334Y-135912063D01*
X99632957Y-136274872D01*
X99425023Y-136675701D01*
X99200074Y-137081225D01*
X98974653Y-137458118D01*
X98925505Y-137537400D01*
X98735891Y-137876705D01*
X98658663Y-138109782D01*
X98697408Y-138256838D01*
X98855711Y-138338085D01*
X99137159Y-138373732D01*
X99555877Y-138345923D01*
X100093208Y-138162606D01*
X100641058Y-137812796D01*
X101201531Y-137295393D01*
X101608759Y-136822410D01*
X102182264Y-135969505D01*
X102647943Y-135007417D01*
X103007530Y-133930528D01*
X103262757Y-132733224D01*
X103415357Y-131409888D01*
X103467065Y-129954905D01*
X103456310Y-129229956D01*
X103372295Y-127980969D01*
X103200504Y-126833342D01*
X102935591Y-125755790D01*
X102572211Y-124717026D01*
X102482262Y-124488670D01*
X102403925Y-124247568D01*
X102374230Y-124037693D01*
X102385845Y-123792896D01*
X102431437Y-123447026D01*
X102448443Y-123322157D01*
X102499938Y-122878998D01*
X102548013Y-122382136D01*
X102584102Y-121917394D01*
X102600376Y-121583434D01*
X102593769Y-121169746D01*
X102543325Y-120894730D01*
X102445193Y-120742082D01*
X102295521Y-120695494D01*
X102169649Y-120718518D01*
X101903746Y-120817950D01*
X101578123Y-120974923D01*
X101239354Y-121166391D01*
X100934009Y-121369303D01*
X100564352Y-121641295D01*
X100807009Y-121789260D01*
X101010562Y-121933427D01*
X101165036Y-122076944D01*
X101191037Y-122109511D01*
X101231370Y-122209834D01*
X101132654Y-122273360D01*
X101000100Y-122283560D01*
X100805618Y-122216110D01*
X100101621Y-121834790D01*
X99308271Y-121559688D01*
X98521737Y-121447566D01*
X97750893Y-121498670D01*
X97004617Y-121713244D01*
X96291783Y-122091533D01*
X96072549Y-122227867D01*
X95853684Y-122343536D01*
X95721966Y-122388000D01*
X95631840Y-122378213D01*
X95557716Y-122301888D01*
X95627330Y-122158484D01*
X95837899Y-121958318D01*
X96175179Y-121687272D01*
X95860756Y-121433517D01*
X95756393Y-121354047D01*
X95445316Y-121153559D01*
X95104235Y-120972171D01*
X94775503Y-120829137D01*
X94501475Y-120743711D01*
X94324505Y-120735147D01*
X94311086Y-120739785D01*
X94196106Y-120828879D01*
X94124326Y-121006116D01*
X94093465Y-121290927D01*
X94101242Y-121702745D01*
X94145376Y-122261000D01*
X94182187Y-122638985D01*
X94236222Y-123189954D01*
X94274911Y-123608816D01*
X94297071Y-123919025D01*
X94301517Y-124144039D01*
X94287065Y-124307310D01*
X94252531Y-124432295D01*
X94196732Y-124542448D01*
X94118482Y-124661225D01*
X94016599Y-124812080D01*
X93892674Y-124992784D01*
X93444447Y-125543822D01*
X92930638Y-126052879D01*
X92393218Y-126481208D01*
X91874154Y-126790062D01*
X91253280Y-127085791D01*
X91294244Y-127449223D01*
X91320229Y-127578868D01*
X91414262Y-127877817D01*
X91555980Y-128242662D01*
X91726271Y-128621540D01*
X91889380Y-128968806D01*
X92034257Y-129317113D01*
X92102759Y-129556935D01*
X92100436Y-129709548D01*
X92032841Y-129796226D01*
X92013143Y-129804982D01*
X91856843Y-129781370D01*
X91645520Y-129660968D01*
X91422327Y-129473271D01*
X91230421Y-129247776D01*
X91211961Y-129220546D01*
X91016830Y-128885781D01*
X90821531Y-128482041D01*
X90657486Y-128079244D01*
X90556117Y-127747310D01*
X90497033Y-127476287D01*
X89942519Y-127740717D01*
X90021023Y-128175858D01*
X90057664Y-128324122D01*
X90169833Y-128651474D01*
X90328211Y-129037535D01*
X90511029Y-129426736D01*
X90558213Y-129520922D01*
X90777130Y-129986152D01*
X90906634Y-130327272D01*
X90949832Y-130559078D01*
X90909831Y-130696371D01*
X90789739Y-130753948D01*
X90601048Y-130720861D01*
X90347420Y-130554331D01*
X90076316Y-130272673D01*
X89809779Y-129899310D01*
X89569852Y-129457667D01*
X89523916Y-129357660D01*
X89374926Y-129005803D01*
X89257502Y-128687971D01*
X89193818Y-128462833D01*
X89182140Y-128403207D01*
X89135478Y-128219377D01*
X89098040Y-128145333D01*
X89092941Y-128146024D01*
X88985275Y-128189458D01*
X88801066Y-128279711D01*
X88708910Y-128329946D01*
X88599522Y-128424845D01*
X88564843Y-128565276D01*
X88579469Y-128812292D01*
X88581600Y-128831807D01*
X88654707Y-129141485D01*
X88803586Y-129547293D01*
X89012866Y-130006867D01*
X89215101Y-130434739D01*
X89352410Y-130786091D01*
X89400930Y-131020989D01*
X89363164Y-131152410D01*
X89241613Y-131193333D01*
X89127492Y-131174233D01*
X88873314Y-131024613D01*
X88607250Y-130747033D01*
X88347494Y-130366257D01*
X88112240Y-129907047D01*
X87919685Y-129394167D01*
X87845781Y-129173358D01*
X87768700Y-128981616D01*
X87720371Y-128908147D01*
X87609617Y-128955958D01*
X87400968Y-129099770D01*
X87130128Y-129314182D01*
X86827106Y-129573446D01*
X86521912Y-129851810D01*
X86244555Y-130123525D01*
X86025046Y-130362840D01*
X85930416Y-130478677D01*
X85527151Y-131086952D01*
X85253564Y-131741504D01*
X85099743Y-132472474D01*
X85055775Y-133310000D01*
X84506186Y-133310000D01*
X84498804Y-133221955D01*
X84517067Y-132801507D01*
X84674227Y-131930300D01*
X84982342Y-131089499D01*
X85429309Y-130308126D01*
X86003025Y-129615201D01*
X86269709Y-129357586D01*
X86603705Y-129068943D01*
X86973652Y-128789054D01*
X87399543Y-128505453D01*
X87901376Y-128205675D01*
X88499147Y-127877255D01*
X89212851Y-127507728D01*
X90062485Y-127084629D01*
X90076791Y-127077600D01*
X90787561Y-126725204D01*
X91365382Y-126428746D01*
X91830716Y-126173557D01*
X92204029Y-125944968D01*
X92505786Y-125728311D01*
X92756450Y-125508916D01*
X92976487Y-125272115D01*
X93186360Y-125003239D01*
X93406535Y-124687618D01*
X93826014Y-124066237D01*
X93718261Y-123332952D01*
X93690937Y-123117269D01*
X93648348Y-122645396D01*
X93617863Y-122127031D01*
X93604754Y-121640736D01*
X93599000Y-120681805D01*
X93886492Y-120424417D01*
X93914335Y-120399681D01*
X94110836Y-120251575D01*
X94291366Y-120199914D01*
X94542135Y-120217490D01*
X94735214Y-120256899D01*
X95192578Y-120421023D01*
X95698472Y-120680225D01*
X96209495Y-121013778D01*
X96261612Y-121051717D01*
X96473465Y-121197750D01*
X96614470Y-121258542D01*
X96739727Y-121246941D01*
X96904333Y-121175795D01*
X97131704Y-121083592D01*
X97692845Y-120948031D01*
X98316036Y-120897448D01*
X98940269Y-120938941D01*
X98944947Y-120939639D01*
X99303124Y-121004163D01*
X99636213Y-121082682D01*
X99872667Y-121158358D01*
X99939070Y-121185724D01*
X100086885Y-121231247D01*
X100213599Y-121217216D01*
X100371078Y-121129191D01*
X100611189Y-120952729D01*
X101008993Y-120678437D01*
X101518483Y-120404468D01*
X101985295Y-120241092D01*
X102388046Y-120195240D01*
X102705357Y-120273843D01*
X102791964Y-120327146D01*
X102940626Y-120477457D01*
X103039946Y-120695489D01*
X103095570Y-121006114D01*
X103113146Y-121434204D01*
X103098319Y-122004628D01*
X103071695Y-122467211D01*
X103035279Y-122918945D01*
X102994016Y-123304900D01*
X102952708Y-123573333D01*
X102919808Y-123744881D01*
X102900455Y-123945627D01*
X102922718Y-124136475D01*
X102995000Y-124372588D01*
X103125701Y-124709129D01*
X103362120Y-125350088D01*
X103653897Y-126376424D01*
X103855156Y-127459564D01*
X103971271Y-128631276D01*
X104007616Y-129923333D01*
X104007133Y-129954905D01*
X103994311Y-130793596D01*
X103951011Y-131586402D01*
G37*
G36*
X99475325Y-127012425D02*
G01*
X99283196Y-127211027D01*
X99042491Y-127364602D01*
X98972149Y-127398974D01*
X98775426Y-127548502D01*
X98737100Y-127723542D01*
X98848439Y-127950457D01*
X98896771Y-128010734D01*
X99147868Y-128167648D01*
X99473471Y-128187544D01*
X99849905Y-128067651D01*
X99870135Y-128057869D01*
X100122286Y-127941956D01*
X100260332Y-127903057D01*
X100318245Y-127940051D01*
X100330000Y-128051819D01*
X100328498Y-128071573D01*
X100225457Y-128228992D01*
X99970167Y-128394989D01*
X99553240Y-128530001D01*
X99130032Y-128509334D01*
X98736451Y-128325431D01*
X98691266Y-128293394D01*
X98542615Y-128202955D01*
X98449196Y-128209555D01*
X98343946Y-128310675D01*
X98232272Y-128405392D01*
X97925621Y-128520258D01*
X97553521Y-128523244D01*
X97160693Y-128410574D01*
X97020170Y-128342952D01*
X96831450Y-128207296D01*
X96774000Y-128065427D01*
X96774081Y-128047443D01*
X96788368Y-127937239D01*
X96851014Y-127903965D01*
X96996044Y-127947891D01*
X97257481Y-128069290D01*
X97273520Y-128076970D01*
X97637925Y-128193126D01*
X97943841Y-128159556D01*
X98215487Y-127973846D01*
X98245160Y-127942842D01*
X98369706Y-127727822D01*
X98328478Y-127542531D01*
X98122641Y-127394237D01*
X98040618Y-127349840D01*
X97846687Y-127176682D01*
X97706558Y-126961222D01*
X97650658Y-126766329D01*
X98147080Y-126766329D01*
X98171708Y-126860876D01*
X98335007Y-126949648D01*
X98610773Y-126994318D01*
X98892754Y-126965709D01*
X99101626Y-126863589D01*
X99134201Y-126807185D01*
X99076020Y-126716487D01*
X98899396Y-126649844D01*
X98636667Y-126623926D01*
X98473391Y-126633415D01*
X98258667Y-126684889D01*
X98147080Y-126766329D01*
X97650658Y-126766329D01*
X97646675Y-126752441D01*
X97693481Y-126599319D01*
X97710193Y-126586971D01*
X97875224Y-126540252D01*
X98151729Y-126509090D01*
X98493043Y-126493653D01*
X98852499Y-126494111D01*
X99183432Y-126510630D01*
X99439176Y-126543381D01*
X99573064Y-126592531D01*
X99603418Y-126640853D01*
X99591399Y-126807185D01*
X99591270Y-126808974D01*
X99475325Y-127012425D01*
G37*
G36*
X96246088Y-124980018D02*
G01*
X96347181Y-125001120D01*
X96741295Y-125124774D01*
X97090019Y-125294775D01*
X97370014Y-125492055D01*
X97557940Y-125697547D01*
X97630456Y-125892180D01*
X97564222Y-126056889D01*
X97501694Y-126099227D01*
X97340073Y-126091195D01*
X97201747Y-125952247D01*
X97151368Y-125888501D01*
X96969169Y-125742881D01*
X96724980Y-125602096D01*
X96639627Y-125562158D01*
X96391123Y-125473824D01*
X96136111Y-125444857D01*
X95795074Y-125463395D01*
X95531701Y-125478462D01*
X95311731Y-125470896D01*
X95210255Y-125440187D01*
X95185558Y-125380735D01*
X95223961Y-125230469D01*
X95383832Y-125099886D01*
X95630555Y-125004364D01*
X95929512Y-124959282D01*
X96246088Y-124980018D01*
G37*
%TD*%
M02*
