%TF.GenerationSoftware,KiCad,Pcbnew,(6.0.9)*%
%TF.CreationDate,2022-12-20T23:19:35-05:00*%
%TF.ProjectId,Coaster_PCB_CDR,436f6173-7465-4725-9f50-43425f434452,rev?*%
%TF.SameCoordinates,Original*%
%TF.FileFunction,Profile,NP*%
%FSLAX46Y46*%
G04 Gerber Fmt 4.6, Leading zero omitted, Abs format (unit mm)*
G04 Created by KiCad (PCBNEW (6.0.9)) date 2022-12-20 23:19:35*
%MOMM*%
%LPD*%
G01*
G04 APERTURE LIST*
%TA.AperFunction,Profile*%
%ADD10C,0.100000*%
%TD*%
G04 APERTURE END LIST*
D10*
X173739399Y-156499999D02*
G75*
G03*
X176489399Y-153750000I114401J2635599D01*
G01*
X165739397Y-57500051D02*
G75*
G03*
X162625000Y-60250000I-129797J-2991549D01*
G01*
X173739399Y-143000000D02*
X171500000Y-143000000D01*
X176489399Y-60250000D02*
X176489399Y-68250000D01*
X77000000Y-68250000D02*
G75*
G03*
X79750000Y-71000000I2635600J-114400D01*
G01*
X77250000Y-153750000D02*
X77250000Y-145750000D01*
X173739399Y-57500000D02*
X165739399Y-57500000D01*
X176489400Y-145750000D02*
G75*
G03*
X173739399Y-143000000I-2635600J114400D01*
G01*
X171500000Y-143000000D02*
X171500000Y-71000000D01*
X90864449Y-60249990D02*
G75*
G03*
X93250000Y-62250000I2436851J483890D01*
G01*
X77000000Y-68250000D02*
X77000000Y-60250000D01*
X80000000Y-143000000D02*
X82000000Y-143000000D01*
X80000000Y-143000000D02*
G75*
G03*
X77250000Y-145750000I-114400J-2635600D01*
G01*
X80000000Y-156500000D02*
X88000000Y-156500000D01*
X93250000Y-62250000D02*
X160239399Y-62250000D01*
X79750000Y-57500000D02*
G75*
G03*
X77000000Y-60250000I-114400J-2635600D01*
G01*
X82000000Y-71000000D02*
X82000000Y-143000000D01*
X171500000Y-71000000D02*
X173750000Y-71000000D01*
X79750000Y-57500000D02*
X87750000Y-57500000D01*
X77250000Y-153750000D02*
G75*
G03*
X80000000Y-156500000I2635600J-114400D01*
G01*
X90864372Y-60250002D02*
G75*
G03*
X87750000Y-57500000I-2984472J-241398D01*
G01*
X160239400Y-62250066D02*
G75*
G03*
X162625000Y-60250000I-51400J2484066D01*
G01*
X173739399Y-156500000D02*
X165739399Y-156500000D01*
X173749999Y-71000022D02*
G75*
G03*
X176489399Y-68250000I104201J2635622D01*
G01*
X79750000Y-71000000D02*
X82000000Y-71000000D01*
X176489400Y-60250000D02*
G75*
G03*
X173739399Y-57500000I-2635600J114400D01*
G01*
X176489399Y-145750000D02*
X176489399Y-153750000D01*
X88000000Y-156500000D02*
X165739399Y-156500000D01*
M02*
