%TF.GenerationSoftware,KiCad,Pcbnew,(6.0.9)*%
%TF.CreationDate,2022-12-14T11:01:35-05:00*%
%TF.ProjectId,Coaster_PCB_CDR,436f6173-7465-4725-9f50-43425f434452,rev?*%
%TF.SameCoordinates,Original*%
%TF.FileFunction,Drillmap*%
%TF.FilePolarity,Positive*%
%FSLAX45Y45*%
G04 Gerber Fmt 4.5, Leading zero omitted, Abs format (unit mm)*
G04 Created by KiCad (PCBNEW (6.0.9)) date 2022-12-14 11:01:35*
%MOMM*%
%LPD*%
G01*
G04 APERTURE LIST*
%ADD10C,0.100000*%
%ADD11C,0.200000*%
G04 APERTURE END LIST*
D10*
X17373940Y-15650000D02*
G75*
G03*
X17648940Y-15375000I11440J263560D01*
G01*
X16573940Y-5750005D02*
G75*
G03*
X16262500Y-6025000I-12980J-299155D01*
G01*
X17373940Y-14300000D02*
X17150000Y-14300000D01*
X17648940Y-6025000D02*
X17648940Y-6825000D01*
X7700000Y-6825000D02*
G75*
G03*
X7975000Y-7100000I263560J-11440D01*
G01*
X7725000Y-15375000D02*
X7725000Y-14575000D01*
X17373940Y-5750000D02*
X16573940Y-5750000D01*
X17648940Y-14575000D02*
G75*
G03*
X17373940Y-14300000I-263560J11440D01*
G01*
X17150000Y-14300000D02*
X17150000Y-7100000D01*
X9086445Y-6024999D02*
G75*
G03*
X9325000Y-6225000I243685J48389D01*
G01*
X7700000Y-6825000D02*
X7700000Y-6025000D01*
X8000000Y-14300000D02*
X8200000Y-14300000D01*
X8000000Y-14300000D02*
G75*
G03*
X7725000Y-14575000I-11440J-263560D01*
G01*
X8000000Y-15650000D02*
X8800000Y-15650000D01*
X9325000Y-6225000D02*
X16023940Y-6225000D01*
X7975000Y-5750000D02*
G75*
G03*
X7700000Y-6025000I-11440J-263560D01*
G01*
X8200000Y-7100000D02*
X8200000Y-14300000D01*
X17150000Y-7100000D02*
X17375000Y-7100000D01*
X7975000Y-5750000D02*
X8775000Y-5750000D01*
X7725000Y-15375000D02*
G75*
G03*
X8000000Y-15650000I263560J-11440D01*
G01*
X9086437Y-6025000D02*
G75*
G03*
X8775000Y-5750000I-298447J-24140D01*
G01*
X16023940Y-6225007D02*
G75*
G03*
X16262500Y-6025000I-5140J248407D01*
G01*
X17373940Y-15650000D02*
X16573940Y-15650000D01*
X17375000Y-7100002D02*
G75*
G03*
X17648940Y-6825000I10420J263562D01*
G01*
X7975000Y-7100000D02*
X8200000Y-7100000D01*
X17648940Y-6025000D02*
G75*
G03*
X17373940Y-5750000I-263560J11440D01*
G01*
X17648940Y-14575000D02*
X17648940Y-15375000D01*
X8800000Y-15650000D02*
X16573940Y-15650000D01*
D11*
X7952371Y-15965724D02*
X7952371Y-15765724D01*
X7999990Y-15765724D01*
X8028561Y-15775248D01*
X8047609Y-15794296D01*
X8057133Y-15813343D01*
X8066656Y-15851439D01*
X8066656Y-15880010D01*
X8057133Y-15918105D01*
X8047609Y-15937153D01*
X8028561Y-15956200D01*
X7999990Y-15965724D01*
X7952371Y-15965724D01*
X8152371Y-15965724D02*
X8152371Y-15832391D01*
X8152371Y-15870486D02*
X8161895Y-15851439D01*
X8171418Y-15841915D01*
X8190466Y-15832391D01*
X8209514Y-15832391D01*
X8276180Y-15965724D02*
X8276180Y-15832391D01*
X8276180Y-15765724D02*
X8266656Y-15775248D01*
X8276180Y-15784772D01*
X8285704Y-15775248D01*
X8276180Y-15765724D01*
X8276180Y-15784772D01*
X8399990Y-15965724D02*
X8380942Y-15956200D01*
X8371418Y-15937153D01*
X8371418Y-15765724D01*
X8504752Y-15965724D02*
X8485704Y-15956200D01*
X8476180Y-15937153D01*
X8476180Y-15765724D01*
X8733323Y-15965724D02*
X8733323Y-15765724D01*
X8799990Y-15908581D01*
X8866657Y-15765724D01*
X8866657Y-15965724D01*
X9047609Y-15965724D02*
X9047609Y-15860962D01*
X9038085Y-15841915D01*
X9019038Y-15832391D01*
X8980942Y-15832391D01*
X8961895Y-15841915D01*
X9047609Y-15956200D02*
X9028561Y-15965724D01*
X8980942Y-15965724D01*
X8961895Y-15956200D01*
X8952371Y-15937153D01*
X8952371Y-15918105D01*
X8961895Y-15899058D01*
X8980942Y-15889534D01*
X9028561Y-15889534D01*
X9047609Y-15880010D01*
X9142847Y-15832391D02*
X9142847Y-16032391D01*
X9142847Y-15841915D02*
X9161895Y-15832391D01*
X9199990Y-15832391D01*
X9219038Y-15841915D01*
X9228561Y-15851439D01*
X9238085Y-15870486D01*
X9238085Y-15927629D01*
X9228561Y-15946677D01*
X9219038Y-15956200D01*
X9199990Y-15965724D01*
X9161895Y-15965724D01*
X9142847Y-15956200D01*
X9323799Y-15946677D02*
X9333323Y-15956200D01*
X9323799Y-15965724D01*
X9314276Y-15956200D01*
X9323799Y-15946677D01*
X9323799Y-15965724D01*
X9323799Y-15841915D02*
X9333323Y-15851439D01*
X9323799Y-15860962D01*
X9314276Y-15851439D01*
X9323799Y-15841915D01*
X9323799Y-15860962D01*
M02*
