M48
; DRILL file {KiCad (6.0.7)} date Wed Nov 23 18:30:11 2022
; FORMAT={-:-/ absolute / metric / decimal}
; #@! TF.CreationDate,2022-11-23T18:30:11-05:00
; #@! TF.GenerationSoftware,Kicad,Pcbnew,(6.0.7)
; #@! TF.FileFunction,Plated,1,2,PTH
FMAT,2
METRIC
; #@! TA.AperFunction,Plated,PTH,ComponentDrill
T1C0.600
; #@! TA.AperFunction,Plated,PTH,ComponentDrill
T2C1.000
; #@! TA.AperFunction,Plated,PTH,ComponentDrill
T3C1.020
; #@! TA.AperFunction,Plated,PTH,ComponentDrill
T4C1.100
; #@! TA.AperFunction,Plated,PTH,ComponentDrill
T5C2.286
; #@! TA.AperFunction,Plated,PTH,ComponentDrill
T6C4.300
; #@! TA.AperFunction,Plated,PTH,ComponentDrill
T7C4.500
; #@! TA.AperFunction,Plated,PTH,ComponentDrill
T8C5.000
%
G90
G05
T1
X99.775Y-56.0
X100.72Y-53.72
X100.72Y-58.28
X103.0Y-52.775
X103.0Y-59.225
X105.28Y-53.72
X105.28Y-58.28
X106.225Y-56.0
X120.775Y-97.0
X121.72Y-94.72
X121.72Y-99.28
X124.0Y-93.775
X124.0Y-100.225
X126.28Y-94.72
X126.28Y-99.28
X127.225Y-97.0
X143.775Y-56.0
X144.72Y-53.72
X144.72Y-58.28
X147.0Y-52.775
X147.0Y-59.225
X149.28Y-53.72
X149.28Y-58.28
X150.225Y-56.0
T2
X102.0Y-120.5
X103.0Y-67.18
X103.0Y-69.72
X103.0Y-72.26
X103.0Y-74.8
X103.0Y-91.0
X103.0Y-93.54
X103.0Y-96.08
X103.0Y-98.62
X104.54Y-120.5
X112.46Y-54.0
X115.0Y-54.0
X119.675Y-113.975
X122.215Y-113.975
X124.755Y-113.975
X127.295Y-113.975
X129.835Y-113.975
X132.375Y-113.975
X134.46Y-54.0
X137.0Y-54.0
X142.0Y-113.0
X147.0Y-67.2
X147.0Y-69.74
X147.0Y-72.28
X147.0Y-74.82
X147.0Y-91.0
X147.0Y-93.54
X147.0Y-96.08
X147.0Y-98.62
X147.0Y-113.0
T3
X115.745Y-58.855
X115.745Y-61.395
X115.745Y-63.935
X115.745Y-66.475
X115.745Y-69.015
X115.745Y-71.555
X115.745Y-74.095
X115.745Y-76.635
X115.745Y-79.175
X115.745Y-81.715
X115.745Y-84.255
X115.745Y-86.795
X115.745Y-89.335
X115.745Y-91.875
X115.745Y-94.415
X115.745Y-96.955
X115.745Y-99.495
X115.745Y-102.035
X115.745Y-104.575
X115.745Y-107.115
X133.525Y-58.855
X133.525Y-61.395
X133.525Y-63.935
X133.525Y-66.475
X133.525Y-69.015
X133.525Y-71.555
X133.525Y-74.095
X133.525Y-76.635
X133.525Y-79.175
X133.525Y-81.715
X133.525Y-84.255
X133.525Y-86.795
X133.525Y-89.335
X133.525Y-91.875
X133.525Y-94.415
X133.525Y-96.955
X133.525Y-99.495
X133.525Y-102.035
X133.525Y-104.575
X133.525Y-107.115
T4
X131.0Y-121.46
X131.0Y-126.54
T5
X121.0Y-122.0
X121.0Y-126.699
X121.0Y-131.398
T6
X103.0Y-56.0
X124.0Y-97.0
X147.0Y-56.0
T7
X103.9Y-130.0
X111.1Y-130.0
T8
X107.0Y-113.0
X124.0Y-74.0
T0
M30
