%TF.GenerationSoftware,KiCad,Pcbnew,(6.0.7)*%
%TF.CreationDate,2022-11-23T18:30:16-05:00*%
%TF.ProjectId,Team5_Coaster,5465616d-355f-4436-9f61-737465722e6b,rev?*%
%TF.SameCoordinates,Original*%
%TF.FileFunction,Copper,L1,Top*%
%TF.FilePolarity,Positive*%
%FSLAX46Y46*%
G04 Gerber Fmt 4.6, Leading zero omitted, Abs format (unit mm)*
G04 Created by KiCad (PCBNEW (6.0.7)) date 2022-11-23 18:30:16*
%MOMM*%
%LPD*%
G01*
G04 APERTURE LIST*
G04 Aperture macros list*
%AMRoundRect*
0 Rectangle with rounded corners*
0 $1 Rounding radius*
0 $2 $3 $4 $5 $6 $7 $8 $9 X,Y pos of 4 corners*
0 Add a 4 corners polygon primitive as box body*
4,1,4,$2,$3,$4,$5,$6,$7,$8,$9,$2,$3,0*
0 Add four circle primitives for the rounded corners*
1,1,$1+$1,$2,$3*
1,1,$1+$1,$4,$5*
1,1,$1+$1,$6,$7*
1,1,$1+$1,$8,$9*
0 Add four rect primitives between the rounded corners*
20,1,$1+$1,$2,$3,$4,$5,0*
20,1,$1+$1,$4,$5,$6,$7,0*
20,1,$1+$1,$6,$7,$8,$9,0*
20,1,$1+$1,$8,$9,$2,$3,0*%
G04 Aperture macros list end*
%TA.AperFunction,ComponentPad*%
%ADD10R,1.700000X1.700000*%
%TD*%
%TA.AperFunction,ComponentPad*%
%ADD11O,1.700000X1.700000*%
%TD*%
%TA.AperFunction,ComponentPad*%
%ADD12C,0.900000*%
%TD*%
%TA.AperFunction,ComponentPad*%
%ADD13C,8.600000*%
%TD*%
%TA.AperFunction,ComponentPad*%
%ADD14R,2.794000X2.794000*%
%TD*%
%TA.AperFunction,ComponentPad*%
%ADD15C,2.794000*%
%TD*%
%TA.AperFunction,SMDPad,CuDef*%
%ADD16R,2.500000X1.700000*%
%TD*%
%TA.AperFunction,SMDPad,CuDef*%
%ADD17RoundRect,0.250000X-0.625000X0.375000X-0.625000X-0.375000X0.625000X-0.375000X0.625000X0.375000X0*%
%TD*%
%TA.AperFunction,ComponentPad*%
%ADD18R,2.000000X2.000000*%
%TD*%
%TA.AperFunction,ComponentPad*%
%ADD19O,2.000000X2.000000*%
%TD*%
%TA.AperFunction,ComponentPad*%
%ADD20C,2.000000*%
%TD*%
%TA.AperFunction,ComponentPad*%
%ADD21C,6.000000*%
%TD*%
%TA.AperFunction,ComponentPad*%
%ADD22RoundRect,1.500000X-1.500000X-1.500000X1.500000X-1.500000X1.500000X1.500000X-1.500000X1.500000X0*%
%TD*%
%TA.AperFunction,SMDPad,CuDef*%
%ADD23RoundRect,0.250000X0.625000X-0.312500X0.625000X0.312500X-0.625000X0.312500X-0.625000X-0.312500X0*%
%TD*%
%TA.AperFunction,SMDPad,CuDef*%
%ADD24R,3.500000X1.700000*%
%TD*%
%TA.AperFunction,Conductor*%
%ADD25C,2.000000*%
%TD*%
%TA.AperFunction,Conductor*%
%ADD26C,0.400000*%
%TD*%
%TA.AperFunction,Conductor*%
%ADD27C,0.500000*%
%TD*%
%TA.AperFunction,Conductor*%
%ADD28C,0.900000*%
%TD*%
%TA.AperFunction,Conductor*%
%ADD29C,0.800000*%
%TD*%
%TA.AperFunction,Conductor*%
%ADD30C,0.600000*%
%TD*%
G04 APERTURE END LIST*
D10*
%TO.P,J6,1,Pin_1*%
%TO.N,GND*%
X102000000Y-120500000D03*
D11*
%TO.P,J6,2,Pin_2*%
%TO.N,VCC*%
X104540000Y-120500000D03*
%TD*%
D10*
%TO.P,RF1,1,IN1*%
%TO.N,RF1*%
X147000000Y-67200000D03*
D11*
%TO.P,RF1,2,IN2*%
%TO.N,RF2*%
X147000000Y-69740000D03*
%TO.P,RF1,3,VM*%
%TO.N,+10V*%
X147000000Y-72280000D03*
%TO.P,RF1,4,GND*%
%TO.N,GND*%
X147000000Y-74820000D03*
%TD*%
D12*
%TO.P,H1,1,1*%
%TO.N,unconnected-(H1-Pad1)*%
X124000000Y-100225000D03*
X126280419Y-99280419D03*
X124000000Y-93775000D03*
X121719581Y-99280419D03*
X120775000Y-97000000D03*
X127225000Y-97000000D03*
X121719581Y-94719581D03*
D13*
X124000000Y-97000000D03*
D12*
X126280419Y-94719581D03*
%TD*%
D14*
%TO.P,SW1,1,A*%
%TO.N,VCC*%
X121000000Y-122000000D03*
D15*
%TO.P,SW1,2,B*%
%TO.N,Net-(D1-Pad2)*%
X121000000Y-126699000D03*
%TO.P,SW1,3,C*%
%TO.N,unconnected-(SW1-Pad3)*%
X121000000Y-131398000D03*
%TD*%
D10*
%TO.P,J13,1,Pin_1*%
%TO.N,+3V3*%
X115000000Y-54000000D03*
D11*
%TO.P,J13,2,Pin_2*%
%TO.N,GND*%
X112460000Y-54000000D03*
%TD*%
D10*
%TO.P,J4,1,Pin_1*%
%TO.N,VSYS*%
X137000000Y-54000000D03*
D11*
%TO.P,J4,2,Pin_2*%
%TO.N,GND*%
X134460000Y-54000000D03*
%TD*%
D16*
%TO.P,Z1,A*%
%TO.N,GND*%
X145000000Y-123000000D03*
%TO.P,Z1,K*%
%TO.N,+10V*%
X141000000Y-123000000D03*
%TD*%
D17*
%TO.P,D3,1,K*%
%TO.N,GND*%
X147000000Y-127600000D03*
%TO.P,D3,2,A*%
%TO.N,Net-(D3-Pad2)*%
X147000000Y-130400000D03*
%TD*%
D18*
%TO.P,D1,1,K*%
%TO.N,+10V*%
X131000000Y-121460000D03*
D19*
%TO.P,D1,2,A*%
%TO.N,Net-(D1-Pad2)*%
X131000000Y-126540000D03*
%TD*%
D12*
%TO.P,H4,1,1*%
%TO.N,unconnected-(H4-Pad1)*%
X143775000Y-56000000D03*
X149280419Y-53719581D03*
X149280419Y-58280419D03*
X147000000Y-59225000D03*
X144719581Y-58280419D03*
D13*
X147000000Y-56000000D03*
D12*
X150225000Y-56000000D03*
X144719581Y-53719581D03*
X147000000Y-52775000D03*
%TD*%
D18*
%TO.P,C1,1*%
%TO.N,+10V*%
X142000000Y-113000000D03*
D20*
%TO.P,C1,2*%
%TO.N,GND*%
X147000000Y-113000000D03*
%TD*%
D21*
%TO.P,J5,1,Pin_1*%
%TO.N,GND*%
X124000000Y-74000000D03*
%TD*%
D10*
%TO.P,J2,1,Pin_1*%
%TO.N,unconnected-(J2-Pad1)*%
X119675000Y-113975000D03*
D11*
%TO.P,J2,2,Pin_2*%
%TO.N,+3V3*%
X122215000Y-113975000D03*
%TO.P,J2,3,Pin_3*%
%TO.N,GND*%
X124755000Y-113975000D03*
%TO.P,J2,4,Pin_4*%
%TO.N,TX*%
X127295000Y-113975000D03*
%TO.P,J2,5,Pin_5*%
%TO.N,RX*%
X129835000Y-113975000D03*
%TO.P,J2,6,Pin_6*%
%TO.N,unconnected-(J2-Pad6)*%
X132375000Y-113975000D03*
%TD*%
D22*
%TO.P,J1,1,Pin_1*%
%TO.N,GND*%
X103900000Y-130000000D03*
D21*
%TO.P,J1,2,Pin_2*%
%TO.N,VCC*%
X111100000Y-130000000D03*
%TD*%
D12*
%TO.P,H3,1,1*%
%TO.N,unconnected-(H3-Pad1)*%
X105280419Y-53719581D03*
X103000000Y-59225000D03*
X105280419Y-58280419D03*
X100719581Y-53719581D03*
X99775000Y-56000000D03*
D13*
X103000000Y-56000000D03*
D12*
X100719581Y-58280419D03*
X103000000Y-52775000D03*
X106225000Y-56000000D03*
%TD*%
D23*
%TO.P,R1,1*%
%TO.N,Net-(D3-Pad2)*%
X141000000Y-130462500D03*
%TO.P,R1,2*%
%TO.N,+10V*%
X141000000Y-127537500D03*
%TD*%
D10*
%TO.P,LB1,1,IN1*%
%TO.N,LB1*%
X103000000Y-98620000D03*
D11*
%TO.P,LB1,2,IN2*%
%TO.N,LB2*%
X103000000Y-96080000D03*
%TO.P,LB1,3,VM*%
%TO.N,+10V*%
X103000000Y-93540000D03*
%TO.P,LB1,4,GND*%
%TO.N,GND*%
X103000000Y-91000000D03*
%TD*%
D10*
%TO.P,LF1,1,IN1*%
%TO.N,LF1*%
X103000000Y-74800000D03*
D11*
%TO.P,LF1,2,IN2*%
%TO.N,LF2*%
X103000000Y-72260000D03*
%TO.P,LF1,3,VM*%
%TO.N,+10V*%
X103000000Y-69720000D03*
%TO.P,LF1,4,GND*%
%TO.N,GND*%
X103000000Y-67180000D03*
%TD*%
D21*
%TO.P,J3,1,Pin_1*%
%TO.N,+10V*%
X107000000Y-113000000D03*
%TD*%
D10*
%TO.P,RB1,1,IN1*%
%TO.N,RB1*%
X147000000Y-91000000D03*
D11*
%TO.P,RB1,2,IN2*%
%TO.N,RB2*%
X147000000Y-93540000D03*
%TO.P,RB1,3,VM*%
%TO.N,+10V*%
X147000000Y-96080000D03*
%TO.P,RB1,4,GND*%
%TO.N,GND*%
X147000000Y-98620000D03*
%TD*%
%TO.P,U1,1,GPIO0*%
%TO.N,unconnected-(U1-Pad1)*%
X115745000Y-58855000D03*
D24*
X114845000Y-58855000D03*
D11*
%TO.P,U1,2,GPIO1*%
%TO.N,unconnected-(U1-Pad2)*%
X115745000Y-61395000D03*
D24*
X114845000Y-61395000D03*
D10*
%TO.P,U1,3,GND*%
%TO.N,GND*%
X115745000Y-63935000D03*
D24*
X114845000Y-63935000D03*
%TO.P,U1,4,GPIO2*%
%TO.N,unconnected-(U1-Pad4)*%
X114845000Y-66475000D03*
D11*
X115745000Y-66475000D03*
%TO.P,U1,5,GPIO3*%
%TO.N,unconnected-(U1-Pad5)*%
X115745000Y-69015000D03*
D24*
X114845000Y-69015000D03*
%TO.P,U1,6,GPIO4*%
%TO.N,unconnected-(U1-Pad6)*%
X114845000Y-71555000D03*
D11*
X115745000Y-71555000D03*
D24*
%TO.P,U1,7,GPIO5*%
%TO.N,unconnected-(U1-Pad7)*%
X114845000Y-74095000D03*
D11*
X115745000Y-74095000D03*
D24*
%TO.P,U1,8,GND*%
%TO.N,GND*%
X114845000Y-76635000D03*
D10*
X115745000Y-76635000D03*
D24*
%TO.P,U1,9,GPIO6*%
%TO.N,unconnected-(U1-Pad9)*%
X114845000Y-79175000D03*
D11*
X115745000Y-79175000D03*
D24*
%TO.P,U1,10,GPIO7*%
%TO.N,unconnected-(U1-Pad10)*%
X114845000Y-81715000D03*
D11*
X115745000Y-81715000D03*
D24*
%TO.P,U1,11,GPIO8*%
%TO.N,unconnected-(U1-Pad11)*%
X114845000Y-84255000D03*
D11*
X115745000Y-84255000D03*
D24*
%TO.P,U1,12,GPIO9*%
%TO.N,unconnected-(U1-Pad12)*%
X114845000Y-86795000D03*
D11*
X115745000Y-86795000D03*
D24*
%TO.P,U1,13,GND*%
%TO.N,GND*%
X114845000Y-89335000D03*
D10*
X115745000Y-89335000D03*
D24*
%TO.P,U1,14,GPIO10*%
%TO.N,LF2*%
X114845000Y-91875000D03*
D11*
X115745000Y-91875000D03*
%TO.P,U1,15,GPIO11*%
%TO.N,LF1*%
X115745000Y-94415000D03*
D24*
X114845000Y-94415000D03*
D11*
%TO.P,U1,16,GPIO12*%
%TO.N,LB2*%
X115745000Y-96955000D03*
D24*
X114845000Y-96955000D03*
D11*
%TO.P,U1,17,GPIO13*%
%TO.N,LB1*%
X115745000Y-99495000D03*
D24*
X114845000Y-99495000D03*
%TO.P,U1,18,GND*%
%TO.N,GND*%
X114845000Y-102035000D03*
D10*
X115745000Y-102035000D03*
D11*
%TO.P,U1,19,GPIO14*%
%TO.N,unconnected-(U1-Pad19)*%
X115745000Y-104575000D03*
D24*
X114845000Y-104575000D03*
D11*
%TO.P,U1,20,GPIO15*%
%TO.N,unconnected-(U1-Pad20)*%
X115745000Y-107115000D03*
D24*
X114845000Y-107115000D03*
D11*
%TO.P,U1,21,GPIO16*%
%TO.N,TX*%
X133525000Y-107115000D03*
D24*
X134425000Y-107115000D03*
%TO.P,U1,22,GPIO17*%
%TO.N,RX*%
X134425000Y-104575000D03*
D11*
X133525000Y-104575000D03*
D24*
%TO.P,U1,23,GND*%
%TO.N,GND*%
X134425000Y-102035000D03*
D10*
X133525000Y-102035000D03*
D24*
%TO.P,U1,24,GPIO18*%
%TO.N,RB2*%
X134425000Y-99495000D03*
D11*
X133525000Y-99495000D03*
%TO.P,U1,25,GPIO19*%
%TO.N,RB1*%
X133525000Y-96955000D03*
D24*
X134425000Y-96955000D03*
D11*
%TO.P,U1,26,GPIO20*%
%TO.N,RF2*%
X133525000Y-94415000D03*
D24*
X134425000Y-94415000D03*
D11*
%TO.P,U1,27,GPIO21*%
%TO.N,RF1*%
X133525000Y-91875000D03*
D24*
X134425000Y-91875000D03*
%TO.P,U1,28,GND*%
%TO.N,GND*%
X134425000Y-89335000D03*
D10*
X133525000Y-89335000D03*
D24*
%TO.P,U1,29,GPIO22*%
%TO.N,unconnected-(U1-Pad29)*%
X134425000Y-86795000D03*
D11*
X133525000Y-86795000D03*
%TO.P,U1,30,RUN*%
%TO.N,unconnected-(U1-Pad30)*%
X133525000Y-84255000D03*
D24*
X134425000Y-84255000D03*
D11*
%TO.P,U1,31,GPIO26_ADC0*%
%TO.N,unconnected-(U1-Pad31)*%
X133525000Y-81715000D03*
D24*
X134425000Y-81715000D03*
%TO.P,U1,32,GPIO27_ADC1*%
%TO.N,unconnected-(U1-Pad32)*%
X134425000Y-79175000D03*
D11*
X133525000Y-79175000D03*
D10*
%TO.P,U1,33,AGND*%
%TO.N,unconnected-(U1-Pad33)*%
X133525000Y-76635000D03*
D24*
X134425000Y-76635000D03*
D11*
%TO.P,U1,34,GPIO28_ADC2*%
%TO.N,unconnected-(U1-Pad34)*%
X133525000Y-74095000D03*
D24*
X134425000Y-74095000D03*
D11*
%TO.P,U1,35,ADC_VREF*%
%TO.N,unconnected-(U1-Pad35)*%
X133525000Y-71555000D03*
D24*
X134425000Y-71555000D03*
%TO.P,U1,36,3V3*%
%TO.N,+3V3*%
X134425000Y-69015000D03*
D11*
X133525000Y-69015000D03*
D24*
%TO.P,U1,37,3V3_EN*%
%TO.N,unconnected-(U1-Pad37)*%
X134425000Y-66475000D03*
D11*
X133525000Y-66475000D03*
D10*
%TO.P,U1,38,GND*%
%TO.N,GND*%
X133525000Y-63935000D03*
D24*
X134425000Y-63935000D03*
%TO.P,U1,39,VSYS*%
%TO.N,VSYS*%
X134425000Y-61395000D03*
D11*
X133525000Y-61395000D03*
D24*
%TO.P,U1,40,VBUS*%
%TO.N,unconnected-(U1-Pad40)*%
X134425000Y-58855000D03*
D11*
X133525000Y-58855000D03*
%TD*%
D25*
%TO.N,VCC*%
X106040000Y-122000000D02*
X104540000Y-120500000D01*
X114250000Y-122000000D02*
X106040000Y-122000000D01*
X114250000Y-122000000D02*
X115250000Y-122000000D01*
X113000000Y-122000000D02*
X114250000Y-122000000D01*
X115250000Y-122000000D02*
X115225000Y-121975000D01*
X115250000Y-122000000D02*
X121000000Y-122000000D01*
X111100000Y-123900000D02*
X111100000Y-130000000D01*
X113000000Y-122000000D02*
X111100000Y-123900000D01*
D26*
%TO.N,LF1*%
X103000000Y-74800000D02*
X104800000Y-74800000D01*
X111415000Y-94415000D02*
X115745000Y-94415000D01*
X108000000Y-91000000D02*
X111415000Y-94415000D01*
X108000000Y-78000000D02*
X108000000Y-91000000D01*
X104800000Y-74800000D02*
X108000000Y-78000000D01*
%TO.N,LF2*%
X105260000Y-72260000D02*
X110000000Y-77000000D01*
X112875000Y-91875000D02*
X115745000Y-91875000D01*
X110000000Y-89000000D02*
X112875000Y-91875000D01*
X103000000Y-72260000D02*
X105260000Y-72260000D01*
X110000000Y-77000000D02*
X110000000Y-89000000D01*
D27*
%TO.N,+10V*%
X141000000Y-123000000D02*
X141000000Y-127537500D01*
D25*
X136000000Y-118000000D02*
X136000000Y-120000000D01*
X131000000Y-121460000D02*
X128460000Y-121460000D01*
X128460000Y-121460000D02*
X125000000Y-118000000D01*
X138000000Y-113000000D02*
X136000000Y-115000000D01*
X125000000Y-118000000D02*
X112000000Y-118000000D01*
X141000000Y-120000000D02*
X139000000Y-118000000D01*
X134540000Y-121460000D02*
X131000000Y-121460000D01*
X141000000Y-123000000D02*
X141000000Y-120000000D01*
X112000000Y-118000000D02*
X107000000Y-113000000D01*
X136000000Y-120000000D02*
X134540000Y-121460000D01*
X136000000Y-115000000D02*
X136000000Y-118000000D01*
X142000000Y-113000000D02*
X138000000Y-113000000D01*
X139000000Y-118000000D02*
X136000000Y-118000000D01*
D26*
%TO.N,RB1*%
X144000000Y-91000000D02*
X138045000Y-96955000D01*
X147000000Y-91000000D02*
X144000000Y-91000000D01*
X138045000Y-96955000D02*
X133525000Y-96955000D01*
%TO.N,RB2*%
X147000000Y-93540000D02*
X144460000Y-93540000D01*
X138505000Y-99495000D02*
X133525000Y-99495000D01*
X144460000Y-93540000D02*
X138505000Y-99495000D01*
%TO.N,LB1*%
X103000000Y-98620000D02*
X106620000Y-98620000D01*
X107495000Y-99495000D02*
X115745000Y-99495000D01*
X106620000Y-98620000D02*
X107495000Y-99495000D01*
%TO.N,LB2*%
X107000000Y-97000000D02*
X115700000Y-97000000D01*
X106080000Y-96080000D02*
X107000000Y-97000000D01*
X115700000Y-97000000D02*
X115745000Y-96955000D01*
X103000000Y-96080000D02*
X106080000Y-96080000D01*
%TO.N,RF1*%
X136125000Y-91875000D02*
X133525000Y-91875000D01*
X147000000Y-67200000D02*
X143800000Y-67200000D01*
X143800000Y-67200000D02*
X140000000Y-71000000D01*
X140000000Y-88000000D02*
X136125000Y-91875000D01*
X140000000Y-71000000D02*
X140000000Y-88000000D01*
%TO.N,RF2*%
X143000000Y-71000000D02*
X143000000Y-89000000D01*
X143000000Y-89000000D02*
X137585000Y-94415000D01*
X144260000Y-69740000D02*
X143000000Y-71000000D01*
X147000000Y-69740000D02*
X144260000Y-69740000D01*
X137585000Y-94415000D02*
X133525000Y-94415000D01*
D25*
%TO.N,Net-(D1-Pad2)*%
X121000000Y-126699000D02*
X130841000Y-126699000D01*
X130841000Y-126699000D02*
X131000000Y-126540000D01*
D27*
%TO.N,Net-(D3-Pad2)*%
X147000000Y-130400000D02*
X141062500Y-130400000D01*
X141062500Y-130400000D02*
X141000000Y-130462500D01*
D28*
%TO.N,+3V3*%
X130985000Y-102015000D02*
X130985000Y-69015000D01*
D29*
X122000000Y-54000000D02*
X115000000Y-54000000D01*
X125000000Y-66000000D02*
X125000000Y-57000000D01*
X125000000Y-57000000D02*
X122000000Y-54000000D01*
D28*
X133525000Y-69015000D02*
X130985000Y-69015000D01*
D29*
X130970000Y-69000000D02*
X128000000Y-69000000D01*
D28*
X122215000Y-110785000D02*
X130985000Y-102015000D01*
D29*
X130985000Y-69015000D02*
X130970000Y-69000000D01*
X128000000Y-69000000D02*
X125000000Y-66000000D01*
D28*
X122215000Y-113975000D02*
X122215000Y-110785000D01*
D26*
%TO.N,TX*%
X133525000Y-107115000D02*
X131885000Y-107115000D01*
X127295000Y-111705000D02*
X127295000Y-113975000D01*
X131885000Y-107115000D02*
X127295000Y-111705000D01*
%TO.N,RX*%
X133525000Y-104575000D02*
X136575000Y-104575000D01*
X136575000Y-104575000D02*
X138000000Y-106000000D01*
X138000000Y-109000000D02*
X136000000Y-111000000D01*
X129835000Y-112165000D02*
X129835000Y-113975000D01*
X138000000Y-106000000D02*
X138000000Y-109000000D01*
X136000000Y-111000000D02*
X131000000Y-111000000D01*
X131000000Y-111000000D02*
X129835000Y-112165000D01*
D30*
%TO.N,VSYS*%
X137000000Y-61000000D02*
X137000000Y-54000000D01*
X133525000Y-61395000D02*
X136605000Y-61395000D01*
X136605000Y-61395000D02*
X137000000Y-61000000D01*
%TD*%
%TA.AperFunction,Conductor*%
%TO.N,GND*%
G36*
X144761162Y-51528502D02*
G01*
X144807655Y-51582158D01*
X144817759Y-51652432D01*
X144788265Y-51717012D01*
X144755755Y-51743784D01*
X144420880Y-51935957D01*
X144418577Y-51937566D01*
X144418570Y-51937571D01*
X144072129Y-52179701D01*
X144069820Y-52181315D01*
X143741961Y-52456909D01*
X143439899Y-52760557D01*
X143166025Y-53089855D01*
X143164431Y-53092162D01*
X143164429Y-53092164D01*
X142946037Y-53408151D01*
X142922508Y-53442194D01*
X142711276Y-53814786D01*
X142534002Y-54204680D01*
X142533080Y-54207306D01*
X142533075Y-54207318D01*
X142493633Y-54319634D01*
X142392089Y-54608790D01*
X142391398Y-54611510D01*
X142391397Y-54611514D01*
X142309800Y-54932805D01*
X142286661Y-55023914D01*
X142218552Y-55446768D01*
X142188302Y-55874001D01*
X142196151Y-56302233D01*
X142242036Y-56728071D01*
X142242582Y-56730817D01*
X142242583Y-56730822D01*
X142257097Y-56803790D01*
X142325594Y-57148144D01*
X142446163Y-57559127D01*
X142447190Y-57561740D01*
X142447190Y-57561741D01*
X142585651Y-57914145D01*
X142602789Y-57957765D01*
X142604044Y-57960276D01*
X142772161Y-58296731D01*
X142794231Y-58340901D01*
X143018974Y-58705502D01*
X143275239Y-59048682D01*
X143277100Y-59050760D01*
X143277101Y-59050761D01*
X143559127Y-59365637D01*
X143559133Y-59365643D01*
X143560995Y-59367722D01*
X143873981Y-59660098D01*
X144211719Y-59923493D01*
X144571533Y-60155822D01*
X144574012Y-60157126D01*
X144574015Y-60157128D01*
X144948077Y-60353932D01*
X144948083Y-60353935D01*
X144950577Y-60355247D01*
X144953175Y-60356331D01*
X144953179Y-60356333D01*
X145343263Y-60519109D01*
X145343268Y-60519111D01*
X145345847Y-60520187D01*
X145348512Y-60521030D01*
X145348518Y-60521032D01*
X145570561Y-60591254D01*
X145754214Y-60649336D01*
X146172446Y-60741673D01*
X146175220Y-60742031D01*
X146175221Y-60742031D01*
X146594460Y-60796109D01*
X146594467Y-60796110D01*
X146597230Y-60796466D01*
X146600017Y-60796576D01*
X146600023Y-60796576D01*
X146848238Y-60806328D01*
X147025203Y-60813281D01*
X147027995Y-60813142D01*
X147028000Y-60813142D01*
X147450172Y-60792125D01*
X147450181Y-60792124D01*
X147452976Y-60791985D01*
X147455753Y-60791597D01*
X147455755Y-60791597D01*
X147530066Y-60781219D01*
X147877163Y-60732747D01*
X148294404Y-60636036D01*
X148508307Y-60565915D01*
X148698744Y-60503487D01*
X148698750Y-60503485D01*
X148701397Y-60502617D01*
X149094918Y-60333547D01*
X149471852Y-60130164D01*
X149829214Y-59894080D01*
X150164175Y-59627162D01*
X150474082Y-59331525D01*
X150475919Y-59329431D01*
X150475927Y-59329422D01*
X150754635Y-59011616D01*
X150756482Y-59009510D01*
X150803905Y-58944597D01*
X151007490Y-58665923D01*
X151009139Y-58663666D01*
X151010585Y-58661265D01*
X151228601Y-58299142D01*
X151228606Y-58299133D01*
X151230052Y-58296731D01*
X151252204Y-58251212D01*
X151299998Y-58198712D01*
X151368589Y-58180386D01*
X151436199Y-58202052D01*
X151481362Y-58256831D01*
X151491500Y-58306348D01*
X151491500Y-131950633D01*
X151490000Y-131970018D01*
X151487690Y-131984851D01*
X151487690Y-131984855D01*
X151486309Y-131993724D01*
X151488984Y-132014183D01*
X151489928Y-132036007D01*
X151485865Y-132129066D01*
X151474648Y-132385964D01*
X151473690Y-132396913D01*
X151429784Y-132730421D01*
X151423982Y-132774490D01*
X151422074Y-132785307D01*
X151383755Y-132958155D01*
X151339647Y-133157114D01*
X151336802Y-133167731D01*
X151227840Y-133513315D01*
X151222285Y-133530932D01*
X151218529Y-133541254D01*
X151115439Y-133790136D01*
X151072784Y-133893114D01*
X151068138Y-133903076D01*
X150892295Y-134240867D01*
X150886799Y-134250387D01*
X150682180Y-134571574D01*
X150675876Y-134580578D01*
X150444038Y-134882716D01*
X150436972Y-134891137D01*
X150179686Y-135171914D01*
X150171914Y-135179686D01*
X149891137Y-135436972D01*
X149882716Y-135444038D01*
X149580578Y-135675876D01*
X149571574Y-135682180D01*
X149250387Y-135886799D01*
X149240868Y-135892294D01*
X148903067Y-136068142D01*
X148893123Y-136072780D01*
X148541254Y-136218529D01*
X148530939Y-136222282D01*
X148167732Y-136336802D01*
X148157115Y-136339647D01*
X147785307Y-136422074D01*
X147774498Y-136423981D01*
X147396914Y-136473690D01*
X147385965Y-136474648D01*
X147043446Y-136489603D01*
X147018571Y-136488223D01*
X147006276Y-136486309D01*
X146997374Y-136487473D01*
X146997372Y-136487473D01*
X146982323Y-136489441D01*
X146974714Y-136490436D01*
X146958379Y-136491500D01*
X103049367Y-136491500D01*
X103029982Y-136490000D01*
X103015149Y-136487690D01*
X103015145Y-136487690D01*
X103006276Y-136486309D01*
X102985817Y-136488984D01*
X102963993Y-136489928D01*
X102614035Y-136474648D01*
X102603086Y-136473690D01*
X102225502Y-136423981D01*
X102214693Y-136422074D01*
X101842885Y-136339647D01*
X101832268Y-136336802D01*
X101469061Y-136222282D01*
X101458746Y-136218529D01*
X101106877Y-136072780D01*
X101096933Y-136068142D01*
X100759132Y-135892294D01*
X100749613Y-135886799D01*
X100428426Y-135682180D01*
X100419422Y-135675876D01*
X100117284Y-135444038D01*
X100108863Y-135436972D01*
X99828086Y-135179686D01*
X99820314Y-135171914D01*
X99563028Y-134891137D01*
X99555962Y-134882716D01*
X99324124Y-134580578D01*
X99317820Y-134571574D01*
X99113201Y-134250387D01*
X99107705Y-134240867D01*
X98931862Y-133903076D01*
X98927216Y-133893114D01*
X98884562Y-133790136D01*
X98781471Y-133541254D01*
X98777715Y-133530932D01*
X98772161Y-133513315D01*
X98663198Y-133167731D01*
X98660353Y-133157114D01*
X98616245Y-132958155D01*
X98577926Y-132785307D01*
X98576018Y-132774490D01*
X98570217Y-132730421D01*
X98526310Y-132396913D01*
X98525352Y-132385964D01*
X98514135Y-132129066D01*
X98510561Y-132047206D01*
X98512188Y-132020805D01*
X98512769Y-132017352D01*
X98512770Y-132017345D01*
X98513576Y-132012552D01*
X98513729Y-132000000D01*
X98509773Y-131972376D01*
X98508500Y-131954514D01*
X98508500Y-131610915D01*
X100392001Y-131610915D01*
X100392061Y-131613672D01*
X100394601Y-131671855D01*
X100395317Y-131678972D01*
X100437999Y-131948453D01*
X100439978Y-131957023D01*
X100519504Y-132217143D01*
X100522655Y-132225353D01*
X100637613Y-132471882D01*
X100641876Y-132479572D01*
X100790024Y-132707700D01*
X100795314Y-132714719D01*
X100973783Y-132920024D01*
X100979976Y-132926217D01*
X101185281Y-133104686D01*
X101192300Y-133109976D01*
X101420428Y-133258124D01*
X101428118Y-133262387D01*
X101674647Y-133377345D01*
X101682857Y-133380496D01*
X101942977Y-133460022D01*
X101951547Y-133462001D01*
X102221044Y-133504685D01*
X102228128Y-133505399D01*
X102286331Y-133507940D01*
X102289083Y-133508000D01*
X103627885Y-133508000D01*
X103643124Y-133503525D01*
X103644329Y-133502135D01*
X103646000Y-133494452D01*
X103646000Y-130272115D01*
X103641525Y-130256876D01*
X103640135Y-130255671D01*
X103632452Y-130254000D01*
X100410116Y-130254000D01*
X100394877Y-130258475D01*
X100393672Y-130259865D01*
X100392001Y-130267548D01*
X100392001Y-131610915D01*
X98508500Y-131610915D01*
X98508500Y-129727885D01*
X100392000Y-129727885D01*
X100396475Y-129743124D01*
X100397865Y-129744329D01*
X100405548Y-129746000D01*
X103627885Y-129746000D01*
X103643124Y-129741525D01*
X103644329Y-129740135D01*
X103646000Y-129732452D01*
X103646000Y-126510116D01*
X103641525Y-126494877D01*
X103640135Y-126493672D01*
X103632452Y-126492001D01*
X102289086Y-126492001D01*
X102286328Y-126492061D01*
X102228145Y-126494601D01*
X102221028Y-126495317D01*
X101951547Y-126537999D01*
X101942977Y-126539978D01*
X101682857Y-126619504D01*
X101674647Y-126622655D01*
X101428118Y-126737613D01*
X101420428Y-126741876D01*
X101192300Y-126890024D01*
X101185281Y-126895314D01*
X100979976Y-127073783D01*
X100973783Y-127079976D01*
X100795314Y-127285281D01*
X100790024Y-127292300D01*
X100641876Y-127520428D01*
X100637613Y-127528118D01*
X100522655Y-127774647D01*
X100519504Y-127782857D01*
X100439978Y-128042977D01*
X100437999Y-128051547D01*
X100395315Y-128321044D01*
X100394601Y-128328128D01*
X100392060Y-128386331D01*
X100392000Y-128389083D01*
X100392000Y-129727885D01*
X98508500Y-129727885D01*
X98508500Y-121394669D01*
X100642001Y-121394669D01*
X100642371Y-121401490D01*
X100647895Y-121452352D01*
X100651521Y-121467604D01*
X100696676Y-121588054D01*
X100705214Y-121603649D01*
X100781715Y-121705724D01*
X100794276Y-121718285D01*
X100896351Y-121794786D01*
X100911946Y-121803324D01*
X101032394Y-121848478D01*
X101047649Y-121852105D01*
X101098514Y-121857631D01*
X101105328Y-121858000D01*
X101727885Y-121858000D01*
X101743124Y-121853525D01*
X101744329Y-121852135D01*
X101746000Y-121844452D01*
X101746000Y-121839884D01*
X102254000Y-121839884D01*
X102258475Y-121855123D01*
X102259865Y-121856328D01*
X102267548Y-121857999D01*
X102894669Y-121857999D01*
X102901490Y-121857629D01*
X102952352Y-121852105D01*
X102967604Y-121848479D01*
X103088054Y-121803324D01*
X103103649Y-121794786D01*
X103205724Y-121718285D01*
X103218285Y-121705724D01*
X103299957Y-121596749D01*
X103356816Y-121554234D01*
X103427634Y-121549208D01*
X103489878Y-121583219D01*
X104956342Y-123049684D01*
X104958796Y-123052206D01*
X105027332Y-123124681D01*
X105031349Y-123127752D01*
X105031352Y-123127755D01*
X105089761Y-123172412D01*
X105094892Y-123176553D01*
X105154720Y-123227470D01*
X105159046Y-123230090D01*
X105159053Y-123230095D01*
X105182824Y-123244491D01*
X105194071Y-123252163D01*
X105220174Y-123272120D01*
X105289416Y-123309247D01*
X105295137Y-123312510D01*
X105362357Y-123353220D01*
X105392834Y-123365534D01*
X105405150Y-123371303D01*
X105434109Y-123386831D01*
X105508433Y-123412423D01*
X105514561Y-123414714D01*
X105546906Y-123427782D01*
X105582733Y-123442258D01*
X105582737Y-123442259D01*
X105587429Y-123444155D01*
X105592368Y-123445277D01*
X105592371Y-123445278D01*
X105619460Y-123451432D01*
X105632559Y-123455163D01*
X105663631Y-123465862D01*
X105741100Y-123479243D01*
X105747504Y-123480523D01*
X105824144Y-123497935D01*
X105856953Y-123499999D01*
X105870453Y-123501585D01*
X105902836Y-123507179D01*
X105906793Y-123507359D01*
X105906796Y-123507359D01*
X105930506Y-123508436D01*
X105930525Y-123508436D01*
X105931925Y-123508500D01*
X105988107Y-123508500D01*
X105996018Y-123508749D01*
X106066412Y-123513178D01*
X106107991Y-123509101D01*
X106120287Y-123508500D01*
X109484133Y-123508500D01*
X109552254Y-123528502D01*
X109598747Y-123582158D01*
X109608851Y-123652432D01*
X109607001Y-123662417D01*
X109602065Y-123684144D01*
X109600001Y-123716953D01*
X109598415Y-123730453D01*
X109592821Y-123762836D01*
X109591500Y-123791925D01*
X109591500Y-123848108D01*
X109591251Y-123856019D01*
X109586822Y-123926413D01*
X109589376Y-123952460D01*
X109590899Y-123967992D01*
X109591500Y-123980288D01*
X109591500Y-126753724D01*
X109571498Y-126821845D01*
X109522703Y-126865991D01*
X109346284Y-126955881D01*
X109346277Y-126955885D01*
X109343343Y-126957380D01*
X109340577Y-126959176D01*
X109340574Y-126959178D01*
X109159177Y-127076978D01*
X109034925Y-127157668D01*
X108749133Y-127389098D01*
X108489098Y-127649133D01*
X108257668Y-127934925D01*
X108244983Y-127954458D01*
X108079251Y-128209665D01*
X108057380Y-128243343D01*
X108055885Y-128246277D01*
X108055881Y-128246284D01*
X107903974Y-128544419D01*
X107890427Y-128571006D01*
X107758639Y-128914326D01*
X107663459Y-129269541D01*
X107662944Y-129272793D01*
X107662942Y-129272802D01*
X107658448Y-129301178D01*
X107628035Y-129365331D01*
X107567767Y-129402858D01*
X107496777Y-129401844D01*
X107437606Y-129362611D01*
X107409038Y-129297615D01*
X107407999Y-129281467D01*
X107407999Y-128389086D01*
X107407939Y-128386328D01*
X107405399Y-128328145D01*
X107404683Y-128321028D01*
X107362001Y-128051547D01*
X107360022Y-128042977D01*
X107280496Y-127782857D01*
X107277345Y-127774647D01*
X107162387Y-127528118D01*
X107158124Y-127520428D01*
X107009976Y-127292300D01*
X107004686Y-127285281D01*
X106826217Y-127079976D01*
X106820024Y-127073783D01*
X106614719Y-126895314D01*
X106607700Y-126890024D01*
X106379572Y-126741876D01*
X106371882Y-126737613D01*
X106125353Y-126622655D01*
X106117143Y-126619504D01*
X105857023Y-126539978D01*
X105848453Y-126537999D01*
X105578956Y-126495315D01*
X105571872Y-126494601D01*
X105513669Y-126492060D01*
X105510917Y-126492000D01*
X104172115Y-126492000D01*
X104156876Y-126496475D01*
X104155671Y-126497865D01*
X104154000Y-126505548D01*
X104154000Y-133489884D01*
X104158475Y-133505123D01*
X104159865Y-133506328D01*
X104167548Y-133507999D01*
X105510915Y-133507999D01*
X105513672Y-133507939D01*
X105571855Y-133505399D01*
X105578972Y-133504683D01*
X105848453Y-133462001D01*
X105857023Y-133460022D01*
X106117143Y-133380496D01*
X106125353Y-133377345D01*
X106371882Y-133262387D01*
X106379572Y-133258124D01*
X106607700Y-133109976D01*
X106614719Y-133104686D01*
X106820024Y-132926217D01*
X106826217Y-132920024D01*
X107004686Y-132714719D01*
X107009976Y-132707700D01*
X107158124Y-132479572D01*
X107162387Y-132471882D01*
X107277345Y-132225353D01*
X107280496Y-132217143D01*
X107360022Y-131957023D01*
X107362001Y-131948453D01*
X107404685Y-131678956D01*
X107405399Y-131671872D01*
X107407940Y-131613669D01*
X107408000Y-131610917D01*
X107408000Y-130718536D01*
X107428002Y-130650415D01*
X107481658Y-130603922D01*
X107551932Y-130593818D01*
X107616512Y-130623312D01*
X107654896Y-130683038D01*
X107658449Y-130698827D01*
X107662941Y-130727193D01*
X107662944Y-130727206D01*
X107663459Y-130730459D01*
X107758639Y-131085674D01*
X107759824Y-131088762D01*
X107759825Y-131088764D01*
X107775204Y-131128827D01*
X107890427Y-131428994D01*
X107891925Y-131431934D01*
X108014180Y-131671872D01*
X108057380Y-131756657D01*
X108059176Y-131759423D01*
X108059178Y-131759426D01*
X108078832Y-131789691D01*
X108257668Y-132065075D01*
X108489098Y-132350867D01*
X108749133Y-132610902D01*
X109034925Y-132842332D01*
X109343342Y-133042620D01*
X109346276Y-133044115D01*
X109346283Y-133044119D01*
X109568049Y-133157114D01*
X109671006Y-133209573D01*
X110014326Y-133341361D01*
X110369541Y-133436541D01*
X110562558Y-133467112D01*
X110729511Y-133493555D01*
X110729519Y-133493556D01*
X110732759Y-133494069D01*
X111100000Y-133513315D01*
X111467241Y-133494069D01*
X111470481Y-133493556D01*
X111470489Y-133493555D01*
X111637442Y-133467112D01*
X111830459Y-133436541D01*
X112185674Y-133341361D01*
X112528994Y-133209573D01*
X112631951Y-133157114D01*
X112853717Y-133044119D01*
X112853724Y-133044115D01*
X112856658Y-133042620D01*
X113165075Y-132842332D01*
X113450867Y-132610902D01*
X113710902Y-132350867D01*
X113942332Y-132065075D01*
X114121168Y-131789691D01*
X114140822Y-131759426D01*
X114140824Y-131759423D01*
X114142620Y-131756657D01*
X114185821Y-131671872D01*
X114308075Y-131431934D01*
X114309573Y-131428994D01*
X114344505Y-131337994D01*
X119090576Y-131337994D01*
X119091970Y-131373478D01*
X119097772Y-131521135D01*
X119101170Y-131607633D01*
X119149651Y-131873089D01*
X119235051Y-132129066D01*
X119237044Y-132133054D01*
X119314386Y-132287839D01*
X119355667Y-132370456D01*
X119509092Y-132592443D01*
X119692264Y-132790598D01*
X119695718Y-132793410D01*
X119838883Y-132909964D01*
X119901529Y-132960966D01*
X120034170Y-133040822D01*
X120128896Y-133097852D01*
X120128900Y-133097854D01*
X120132712Y-133100149D01*
X120267239Y-133157114D01*
X120377101Y-133203635D01*
X120377105Y-133203636D01*
X120381199Y-133205370D01*
X120385491Y-133206508D01*
X120385494Y-133206509D01*
X120637736Y-133273390D01*
X120637740Y-133273391D01*
X120642033Y-133274529D01*
X120646442Y-133275051D01*
X120646448Y-133275052D01*
X120822105Y-133295842D01*
X120910009Y-133306246D01*
X121179781Y-133299889D01*
X121338984Y-133273390D01*
X121441576Y-133256314D01*
X121441580Y-133256313D01*
X121445966Y-133255583D01*
X121450207Y-133254242D01*
X121450210Y-133254241D01*
X121699007Y-133175557D01*
X121699009Y-133175556D01*
X121703253Y-133174214D01*
X121707264Y-133172288D01*
X121707269Y-133172286D01*
X121942489Y-133059335D01*
X121942490Y-133059334D01*
X121946508Y-133057405D01*
X122095046Y-132958155D01*
X122167169Y-132909964D01*
X122167173Y-132909961D01*
X122170877Y-132907486D01*
X122174194Y-132904515D01*
X122174198Y-132904512D01*
X122368567Y-132730421D01*
X122368568Y-132730420D01*
X122371885Y-132727449D01*
X122545519Y-132520886D01*
X122688317Y-132291918D01*
X122797428Y-132045114D01*
X122870675Y-131785398D01*
X122885926Y-131671855D01*
X122906170Y-131521135D01*
X122906171Y-131521127D01*
X122906597Y-131517953D01*
X122906698Y-131514742D01*
X122910266Y-131401222D01*
X122910266Y-131401217D01*
X122910367Y-131398000D01*
X122891309Y-131128827D01*
X122882019Y-131085674D01*
X122835450Y-130869377D01*
X122834513Y-130865025D01*
X122821075Y-130828598D01*
X122819895Y-130825400D01*
X139616500Y-130825400D01*
X139616837Y-130828646D01*
X139616837Y-130828650D01*
X139620178Y-130860844D01*
X139627474Y-130931166D01*
X139683450Y-131098946D01*
X139776522Y-131249348D01*
X139901697Y-131374305D01*
X139907927Y-131378145D01*
X139907928Y-131378146D01*
X140045090Y-131462694D01*
X140052262Y-131467115D01*
X140132005Y-131493564D01*
X140213611Y-131520632D01*
X140213613Y-131520632D01*
X140220139Y-131522797D01*
X140226975Y-131523497D01*
X140226978Y-131523498D01*
X140270031Y-131527909D01*
X140324600Y-131533500D01*
X141675400Y-131533500D01*
X141678646Y-131533163D01*
X141678650Y-131533163D01*
X141774308Y-131523238D01*
X141774312Y-131523237D01*
X141781166Y-131522526D01*
X141787702Y-131520345D01*
X141787704Y-131520345D01*
X141919806Y-131476272D01*
X141948946Y-131466550D01*
X142099348Y-131373478D01*
X142224305Y-131248303D01*
X142242749Y-131218382D01*
X142295522Y-131170890D01*
X142350008Y-131158500D01*
X145650101Y-131158500D01*
X145718222Y-131178502D01*
X145757245Y-131218197D01*
X145776522Y-131249348D01*
X145901697Y-131374305D01*
X145907927Y-131378145D01*
X145907928Y-131378146D01*
X146045090Y-131462694D01*
X146052262Y-131467115D01*
X146132005Y-131493564D01*
X146213611Y-131520632D01*
X146213613Y-131520632D01*
X146220139Y-131522797D01*
X146226975Y-131523497D01*
X146226978Y-131523498D01*
X146270031Y-131527909D01*
X146324600Y-131533500D01*
X147675400Y-131533500D01*
X147678646Y-131533163D01*
X147678650Y-131533163D01*
X147774308Y-131523238D01*
X147774312Y-131523237D01*
X147781166Y-131522526D01*
X147787702Y-131520345D01*
X147787704Y-131520345D01*
X147919806Y-131476272D01*
X147948946Y-131466550D01*
X148099348Y-131373478D01*
X148224305Y-131248303D01*
X148295209Y-131133276D01*
X148313275Y-131103968D01*
X148313276Y-131103966D01*
X148317115Y-131097738D01*
X148372797Y-130929861D01*
X148383500Y-130825400D01*
X148383500Y-129974600D01*
X148383163Y-129971350D01*
X148373238Y-129875692D01*
X148373237Y-129875688D01*
X148372526Y-129868834D01*
X148358657Y-129827262D01*
X148318868Y-129708002D01*
X148316550Y-129701054D01*
X148223478Y-129550652D01*
X148098303Y-129425695D01*
X148064170Y-129404655D01*
X147953968Y-129336725D01*
X147953966Y-129336724D01*
X147947738Y-129332885D01*
X147787254Y-129279655D01*
X147786389Y-129279368D01*
X147786387Y-129279368D01*
X147779861Y-129277203D01*
X147773025Y-129276503D01*
X147773022Y-129276502D01*
X147729969Y-129272091D01*
X147675400Y-129266500D01*
X146324600Y-129266500D01*
X146321354Y-129266837D01*
X146321350Y-129266837D01*
X146225692Y-129276762D01*
X146225688Y-129276763D01*
X146218834Y-129277474D01*
X146212298Y-129279655D01*
X146212296Y-129279655D01*
X146080194Y-129323728D01*
X146051054Y-129333450D01*
X145900652Y-129426522D01*
X145775695Y-129551697D01*
X145771855Y-129557927D01*
X145757251Y-129581618D01*
X145704478Y-129629110D01*
X145649992Y-129641500D01*
X142241393Y-129641500D01*
X142173272Y-129621498D01*
X142152375Y-129604673D01*
X142103483Y-129555866D01*
X142098303Y-129550695D01*
X142089841Y-129545479D01*
X141953968Y-129461725D01*
X141953966Y-129461724D01*
X141947738Y-129457885D01*
X141850688Y-129425695D01*
X141786389Y-129404368D01*
X141786387Y-129404368D01*
X141779861Y-129402203D01*
X141773025Y-129401503D01*
X141773022Y-129401502D01*
X141729969Y-129397091D01*
X141675400Y-129391500D01*
X140324600Y-129391500D01*
X140321354Y-129391837D01*
X140321350Y-129391837D01*
X140225692Y-129401762D01*
X140225688Y-129401763D01*
X140218834Y-129402474D01*
X140212298Y-129404655D01*
X140212296Y-129404655D01*
X140133733Y-129430866D01*
X140051054Y-129458450D01*
X139900652Y-129551522D01*
X139775695Y-129676697D01*
X139771855Y-129682927D01*
X139771854Y-129682928D01*
X139698888Y-129801301D01*
X139682885Y-129827262D01*
X139627203Y-129995139D01*
X139626503Y-130001975D01*
X139626502Y-130001978D01*
X139622091Y-130045031D01*
X139616500Y-130099600D01*
X139616500Y-130825400D01*
X122819895Y-130825400D01*
X122742656Y-130616034D01*
X122741115Y-130611857D01*
X122612976Y-130374374D01*
X122452654Y-130157316D01*
X122405315Y-130109227D01*
X122299737Y-130001978D01*
X122263348Y-129965013D01*
X122259808Y-129962312D01*
X122259802Y-129962306D01*
X122116673Y-129853073D01*
X122048835Y-129801301D01*
X121950088Y-129746000D01*
X121817281Y-129671624D01*
X121817278Y-129671623D01*
X121813395Y-129669448D01*
X121561725Y-129572085D01*
X121557400Y-129571082D01*
X121557395Y-129571081D01*
X121412885Y-129537586D01*
X121298847Y-129511153D01*
X121030007Y-129487869D01*
X121025572Y-129488113D01*
X121025568Y-129488113D01*
X120765011Y-129502452D01*
X120765004Y-129502453D01*
X120760568Y-129502697D01*
X120495906Y-129555341D01*
X120491696Y-129556819D01*
X120491694Y-129556820D01*
X120421080Y-129581618D01*
X120241302Y-129644752D01*
X120237351Y-129646805D01*
X120237345Y-129646807D01*
X120049607Y-129744329D01*
X120001836Y-129769144D01*
X119998221Y-129771727D01*
X119998215Y-129771731D01*
X119871483Y-129862296D01*
X119782286Y-129926037D01*
X119779066Y-129929109D01*
X119596973Y-130102817D01*
X119587033Y-130112299D01*
X119419973Y-130324214D01*
X119284438Y-130557555D01*
X119282770Y-130561672D01*
X119282767Y-130561679D01*
X119184807Y-130803531D01*
X119183133Y-130807664D01*
X119118080Y-131069552D01*
X119090576Y-131337994D01*
X114344505Y-131337994D01*
X114424796Y-131128827D01*
X114440175Y-131088764D01*
X114440176Y-131088762D01*
X114441361Y-131085674D01*
X114536541Y-130730459D01*
X114592319Y-130378290D01*
X114593555Y-130370489D01*
X114593556Y-130370481D01*
X114594069Y-130367241D01*
X114613315Y-130000000D01*
X114594069Y-129632759D01*
X114592286Y-129621498D01*
X114557595Y-129402474D01*
X114536541Y-129269541D01*
X114441361Y-128914326D01*
X114309573Y-128571006D01*
X114296026Y-128544419D01*
X114144119Y-128246284D01*
X114144115Y-128246277D01*
X114142620Y-128243343D01*
X114120750Y-128209665D01*
X113955017Y-127954458D01*
X113942332Y-127934925D01*
X113710902Y-127649133D01*
X113450867Y-127389098D01*
X113165075Y-127157668D01*
X112928524Y-127004050D01*
X112859427Y-126959178D01*
X112859424Y-126959176D01*
X112856658Y-126957380D01*
X112853724Y-126955885D01*
X112853717Y-126955881D01*
X112707394Y-126881326D01*
X112677297Y-126865991D01*
X112625682Y-126817243D01*
X112608500Y-126753724D01*
X112608500Y-126638994D01*
X119090576Y-126638994D01*
X119090751Y-126643446D01*
X119100920Y-126902262D01*
X119101170Y-126908633D01*
X119149651Y-127174089D01*
X119235051Y-127430066D01*
X119284045Y-127528118D01*
X119343342Y-127646789D01*
X119355667Y-127671456D01*
X119509092Y-127893443D01*
X119550003Y-127937700D01*
X119673125Y-128070893D01*
X119692264Y-128091598D01*
X119695718Y-128094410D01*
X119882267Y-128246284D01*
X119901529Y-128261966D01*
X120012014Y-128328483D01*
X120128896Y-128398852D01*
X120128900Y-128398854D01*
X120132712Y-128401149D01*
X120255507Y-128453146D01*
X120377101Y-128504635D01*
X120377105Y-128504636D01*
X120381199Y-128506370D01*
X120385491Y-128507508D01*
X120385494Y-128507509D01*
X120637736Y-128574390D01*
X120637740Y-128574391D01*
X120642033Y-128575529D01*
X120646442Y-128576051D01*
X120646448Y-128576052D01*
X120822105Y-128596842D01*
X120910009Y-128607246D01*
X121179781Y-128600889D01*
X121262291Y-128587155D01*
X121441576Y-128557314D01*
X121441580Y-128557313D01*
X121445966Y-128556583D01*
X121450207Y-128555242D01*
X121450210Y-128555241D01*
X121699007Y-128476557D01*
X121699009Y-128476556D01*
X121703253Y-128475214D01*
X121707264Y-128473288D01*
X121707269Y-128473286D01*
X121942489Y-128360335D01*
X121942490Y-128360334D01*
X121946508Y-128358405D01*
X122140573Y-128228735D01*
X122210574Y-128207500D01*
X130816984Y-128207500D01*
X130820502Y-128207549D01*
X130915150Y-128210193D01*
X130915153Y-128210193D01*
X130920205Y-128210334D01*
X130998098Y-128199941D01*
X131004639Y-128199242D01*
X131033332Y-128196933D01*
X131077923Y-128193346D01*
X131077927Y-128193345D01*
X131082965Y-128192940D01*
X131114878Y-128185101D01*
X131128258Y-128182574D01*
X131160820Y-128178229D01*
X131165661Y-128176768D01*
X131165663Y-128176767D01*
X131236029Y-128155522D01*
X131242392Y-128153781D01*
X131318706Y-128135037D01*
X131348952Y-128122199D01*
X131361763Y-128117561D01*
X131388362Y-128109530D01*
X131393208Y-128108067D01*
X131397756Y-128105849D01*
X131397763Y-128105846D01*
X131463818Y-128073629D01*
X131469820Y-128070893D01*
X131535585Y-128042977D01*
X131542156Y-128040188D01*
X131569956Y-128022681D01*
X131581860Y-128016055D01*
X131611388Y-128001654D01*
X131675600Y-127956357D01*
X131681086Y-127952699D01*
X131743286Y-127913529D01*
X131743287Y-127913528D01*
X131747567Y-127910833D01*
X131751356Y-127907492D01*
X131751362Y-127907488D01*
X131772217Y-127889102D01*
X131782912Y-127880656D01*
X131785863Y-127878574D01*
X131809747Y-127861726D01*
X131831250Y-127842091D01*
X131870966Y-127802375D01*
X131876736Y-127796956D01*
X131925858Y-127753650D01*
X131925861Y-127753647D01*
X131929655Y-127750302D01*
X131956179Y-127718011D01*
X131964449Y-127708892D01*
X132021256Y-127652085D01*
X132028509Y-127645380D01*
X132069969Y-127609969D01*
X132107557Y-127565959D01*
X132108944Y-127564397D01*
X132109805Y-127563536D01*
X132160163Y-127504366D01*
X132224176Y-127429416D01*
X132224757Y-127428467D01*
X132227470Y-127425280D01*
X132230093Y-127420950D01*
X132230101Y-127420938D01*
X132291380Y-127319756D01*
X132291722Y-127319194D01*
X132345651Y-127231189D01*
X132345654Y-127231182D01*
X132348240Y-127226963D01*
X132349269Y-127224480D01*
X132350015Y-127223139D01*
X132350602Y-127221967D01*
X132353221Y-127217642D01*
X132397453Y-127108164D01*
X132397837Y-127107224D01*
X132409124Y-127079976D01*
X132439105Y-127007594D01*
X132440165Y-127003179D01*
X132441896Y-126998422D01*
X132442259Y-126997264D01*
X132444155Y-126992571D01*
X132469429Y-126881326D01*
X132469779Y-126879827D01*
X132493380Y-126781524D01*
X132493381Y-126781518D01*
X132494535Y-126776711D01*
X132494923Y-126771780D01*
X132495662Y-126767113D01*
X132496621Y-126762133D01*
X132496816Y-126760783D01*
X132497935Y-126755856D01*
X132498263Y-126750652D01*
X132504878Y-126645492D01*
X132505018Y-126643516D01*
X132512777Y-126544942D01*
X132512777Y-126544930D01*
X132513165Y-126540000D01*
X132512777Y-126535068D01*
X132512777Y-126530118D01*
X132512892Y-126530118D01*
X132512809Y-126519466D01*
X132512861Y-126518643D01*
X132512861Y-126518630D01*
X132513178Y-126513587D01*
X132502696Y-126406681D01*
X132502484Y-126404287D01*
X132500507Y-126379160D01*
X132494535Y-126303289D01*
X132493220Y-126297811D01*
X132490344Y-126280720D01*
X132489489Y-126271998D01*
X132462851Y-126171176D01*
X132462152Y-126168404D01*
X132440260Y-126077215D01*
X132440258Y-126077209D01*
X132439105Y-126072406D01*
X132435862Y-126064577D01*
X132430450Y-126048541D01*
X132427481Y-126037304D01*
X132386305Y-125944821D01*
X132385003Y-125941790D01*
X132350135Y-125857612D01*
X132348240Y-125853037D01*
X132342311Y-125843361D01*
X132334639Y-125828779D01*
X132330803Y-125820164D01*
X132328746Y-125815544D01*
X132274953Y-125733340D01*
X132273014Y-125730279D01*
X132224176Y-125650584D01*
X132214954Y-125639787D01*
X132205331Y-125626947D01*
X132198600Y-125616661D01*
X132198599Y-125616659D01*
X132195826Y-125612422D01*
X132131591Y-125542075D01*
X132128834Y-125538952D01*
X132073182Y-125473792D01*
X132073177Y-125473787D01*
X132069969Y-125470031D01*
X132056992Y-125458947D01*
X132045795Y-125448116D01*
X132032142Y-125433164D01*
X131959804Y-125375831D01*
X131956239Y-125372897D01*
X131893178Y-125319037D01*
X131893177Y-125319036D01*
X131889416Y-125315824D01*
X131872440Y-125305421D01*
X131860010Y-125296734D01*
X131845873Y-125285529D01*
X131845870Y-125285527D01*
X131841902Y-125282382D01*
X131763853Y-125238762D01*
X131759547Y-125236240D01*
X131749543Y-125230109D01*
X131686963Y-125191760D01*
X131682393Y-125189867D01*
X131682385Y-125189863D01*
X131665926Y-125183046D01*
X131652672Y-125176625D01*
X131634417Y-125166422D01*
X131634412Y-125166420D01*
X131630002Y-125163955D01*
X131548766Y-125134388D01*
X131543669Y-125132406D01*
X131467594Y-125100895D01*
X131442695Y-125094917D01*
X131429016Y-125090801D01*
X131408838Y-125083457D01*
X131401895Y-125080930D01*
X131319815Y-125065273D01*
X131314020Y-125064025D01*
X131241526Y-125046620D01*
X131241514Y-125046618D01*
X131236711Y-125045465D01*
X131213591Y-125043645D01*
X131208330Y-125043231D01*
X131194621Y-125041391D01*
X131163447Y-125035444D01*
X131107338Y-125033877D01*
X131082834Y-125033192D01*
X131076467Y-125032853D01*
X131004930Y-125027223D01*
X131000000Y-125026835D01*
X130995070Y-125027223D01*
X130995060Y-125027223D01*
X130968774Y-125029292D01*
X130955377Y-125029632D01*
X130931283Y-125028959D01*
X130925848Y-125028807D01*
X130925847Y-125028807D01*
X130920795Y-125028666D01*
X130843729Y-125038949D01*
X130836954Y-125039668D01*
X130763289Y-125045465D01*
X130758475Y-125046621D01*
X130758474Y-125046621D01*
X130730063Y-125053442D01*
X130717311Y-125055817D01*
X130709187Y-125056901D01*
X130680180Y-125060771D01*
X130608501Y-125082412D01*
X130601514Y-125084303D01*
X130537225Y-125099738D01*
X130532406Y-125100895D01*
X130527824Y-125102793D01*
X130498204Y-125115062D01*
X130486402Y-125119276D01*
X130447792Y-125130933D01*
X130383636Y-125162224D01*
X130383107Y-125162482D01*
X130376089Y-125165643D01*
X130339233Y-125180909D01*
X130291016Y-125190500D01*
X122206991Y-125190500D01*
X122138870Y-125170498D01*
X122130549Y-125164663D01*
X122052375Y-125105003D01*
X122048835Y-125102301D01*
X122044260Y-125099739D01*
X121817281Y-124972624D01*
X121817278Y-124972623D01*
X121813395Y-124970448D01*
X121561725Y-124873085D01*
X121557400Y-124872082D01*
X121557395Y-124872081D01*
X121412885Y-124838586D01*
X121298847Y-124812153D01*
X121030007Y-124788869D01*
X121025572Y-124789113D01*
X121025568Y-124789113D01*
X120765011Y-124803452D01*
X120765004Y-124803453D01*
X120760568Y-124803697D01*
X120495906Y-124856341D01*
X120491696Y-124857819D01*
X120491694Y-124857820D01*
X120343185Y-124909973D01*
X120241302Y-124945752D01*
X120237351Y-124947805D01*
X120237345Y-124947807D01*
X120012285Y-125064716D01*
X120001836Y-125070144D01*
X119998221Y-125072727D01*
X119998215Y-125072731D01*
X119870260Y-125164170D01*
X119782286Y-125227037D01*
X119720971Y-125285529D01*
X119626309Y-125375832D01*
X119587033Y-125413299D01*
X119419973Y-125625214D01*
X119284438Y-125858555D01*
X119282770Y-125862672D01*
X119282767Y-125862679D01*
X119204164Y-126056741D01*
X119183133Y-126108664D01*
X119118080Y-126370552D01*
X119090576Y-126638994D01*
X112608500Y-126638994D01*
X112608500Y-124577031D01*
X112628502Y-124508910D01*
X112645405Y-124487936D01*
X113587936Y-123545405D01*
X113650248Y-123511379D01*
X113677031Y-123508500D01*
X115198107Y-123508500D01*
X115206018Y-123508749D01*
X115276412Y-123513178D01*
X115317991Y-123509101D01*
X115330287Y-123508500D01*
X119014372Y-123508500D01*
X119082493Y-123528502D01*
X119128986Y-123582158D01*
X119132353Y-123590269D01*
X119152385Y-123643705D01*
X119157765Y-123650884D01*
X119157767Y-123650887D01*
X119178993Y-123679208D01*
X119239739Y-123760261D01*
X119356295Y-123847615D01*
X119492684Y-123898745D01*
X119554866Y-123905500D01*
X122445134Y-123905500D01*
X122507316Y-123898745D01*
X122643705Y-123847615D01*
X122760261Y-123760261D01*
X122847615Y-123643705D01*
X122898745Y-123507316D01*
X122905500Y-123445134D01*
X122905500Y-120554866D01*
X122898745Y-120492684D01*
X122847615Y-120356295D01*
X122760261Y-120239739D01*
X122643705Y-120152385D01*
X122507316Y-120101255D01*
X122445134Y-120094500D01*
X119554866Y-120094500D01*
X119492684Y-120101255D01*
X119356295Y-120152385D01*
X119239739Y-120239739D01*
X119234358Y-120246919D01*
X119157767Y-120349113D01*
X119157765Y-120349116D01*
X119152385Y-120356295D01*
X119149234Y-120364701D01*
X119132354Y-120409728D01*
X119089713Y-120466493D01*
X119023152Y-120491194D01*
X119014372Y-120491500D01*
X115518526Y-120491500D01*
X115490611Y-120488369D01*
X115445787Y-120478185D01*
X115445783Y-120478184D01*
X115440856Y-120477065D01*
X115435809Y-120476747D01*
X115435806Y-120476747D01*
X115215350Y-120462877D01*
X115198587Y-120461822D01*
X114956998Y-120485511D01*
X114950226Y-120487300D01*
X114950151Y-120487320D01*
X114917966Y-120491500D01*
X113024016Y-120491500D01*
X113020498Y-120491451D01*
X112925850Y-120488807D01*
X112925847Y-120488807D01*
X112920795Y-120488666D01*
X112907850Y-120490393D01*
X112891188Y-120491500D01*
X106717031Y-120491500D01*
X106648910Y-120471498D01*
X106627936Y-120454595D01*
X105563536Y-119390195D01*
X105561626Y-119388569D01*
X105561619Y-119388563D01*
X105429132Y-119275808D01*
X105429130Y-119275806D01*
X105425280Y-119272530D01*
X105217642Y-119146779D01*
X104992571Y-119055845D01*
X104898576Y-119034490D01*
X104760787Y-119003185D01*
X104760784Y-119003184D01*
X104755856Y-119002065D01*
X104750809Y-119001747D01*
X104750806Y-119001747D01*
X104530350Y-118987877D01*
X104513587Y-118986822D01*
X104325524Y-119005263D01*
X104277025Y-119010018D01*
X104277024Y-119010018D01*
X104271998Y-119010511D01*
X104037304Y-119072519D01*
X104032687Y-119074575D01*
X104032686Y-119074575D01*
X103990331Y-119093433D01*
X103815544Y-119171254D01*
X103612422Y-119304174D01*
X103491356Y-119414722D01*
X103485350Y-119420206D01*
X103421558Y-119451369D01*
X103351045Y-119443097D01*
X103299561Y-119402724D01*
X103218284Y-119294275D01*
X103205724Y-119281715D01*
X103103649Y-119205214D01*
X103088054Y-119196676D01*
X102967606Y-119151522D01*
X102952351Y-119147895D01*
X102901486Y-119142369D01*
X102894672Y-119142000D01*
X102272115Y-119142000D01*
X102256876Y-119146475D01*
X102255671Y-119147865D01*
X102254000Y-119155548D01*
X102254000Y-121839884D01*
X101746000Y-121839884D01*
X101746000Y-120772115D01*
X101741525Y-120756876D01*
X101740135Y-120755671D01*
X101732452Y-120754000D01*
X100660116Y-120754000D01*
X100644877Y-120758475D01*
X100643672Y-120759865D01*
X100642001Y-120767548D01*
X100642001Y-121394669D01*
X98508500Y-121394669D01*
X98508500Y-120227885D01*
X100642000Y-120227885D01*
X100646475Y-120243124D01*
X100647865Y-120244329D01*
X100655548Y-120246000D01*
X101727885Y-120246000D01*
X101743124Y-120241525D01*
X101744329Y-120240135D01*
X101746000Y-120232452D01*
X101746000Y-119160116D01*
X101741525Y-119144877D01*
X101740135Y-119143672D01*
X101732452Y-119142001D01*
X101105331Y-119142001D01*
X101098510Y-119142371D01*
X101047648Y-119147895D01*
X101032396Y-119151521D01*
X100911946Y-119196676D01*
X100896351Y-119205214D01*
X100794276Y-119281715D01*
X100781715Y-119294276D01*
X100705214Y-119396351D01*
X100696676Y-119411946D01*
X100651522Y-119532394D01*
X100647895Y-119547649D01*
X100642369Y-119598514D01*
X100642000Y-119605328D01*
X100642000Y-120227885D01*
X98508500Y-120227885D01*
X98508500Y-113000000D01*
X103486685Y-113000000D01*
X103505931Y-113367241D01*
X103506444Y-113370481D01*
X103506445Y-113370489D01*
X103522525Y-113472012D01*
X103563459Y-113730459D01*
X103658639Y-114085674D01*
X103659824Y-114088760D01*
X103659825Y-114088764D01*
X103668098Y-114110316D01*
X103790427Y-114428994D01*
X103791925Y-114431934D01*
X103930709Y-114704312D01*
X103957380Y-114756657D01*
X103959176Y-114759423D01*
X103959178Y-114759426D01*
X104079711Y-114945031D01*
X104157668Y-115065075D01*
X104389098Y-115350867D01*
X104649133Y-115610902D01*
X104934925Y-115842332D01*
X105243342Y-116042620D01*
X105246276Y-116044115D01*
X105246283Y-116044119D01*
X105568066Y-116208075D01*
X105571006Y-116209573D01*
X105780782Y-116290098D01*
X105902309Y-116336748D01*
X105914326Y-116341361D01*
X106269541Y-116436541D01*
X106462558Y-116467112D01*
X106629511Y-116493555D01*
X106629519Y-116493556D01*
X106632759Y-116494069D01*
X107000000Y-116513315D01*
X107367241Y-116494069D01*
X107370481Y-116493556D01*
X107370489Y-116493555D01*
X107537442Y-116467112D01*
X107730459Y-116436541D01*
X108085674Y-116341361D01*
X108097692Y-116336748D01*
X108168454Y-116331007D01*
X108231942Y-116365283D01*
X110916325Y-119049666D01*
X110918779Y-119052188D01*
X110961831Y-119097714D01*
X110987332Y-119124681D01*
X111049757Y-119172408D01*
X111054892Y-119176552D01*
X111114720Y-119227470D01*
X111119045Y-119230089D01*
X111119050Y-119230093D01*
X111142824Y-119244491D01*
X111154071Y-119252163D01*
X111180174Y-119272120D01*
X111239955Y-119304174D01*
X111249401Y-119309239D01*
X111255126Y-119312504D01*
X111322358Y-119353221D01*
X111352817Y-119365527D01*
X111365158Y-119371307D01*
X111394109Y-119386831D01*
X111398890Y-119388477D01*
X111398894Y-119388479D01*
X111468401Y-119412412D01*
X111474579Y-119414722D01*
X111488153Y-119420206D01*
X111547429Y-119444155D01*
X111579460Y-119451432D01*
X111592559Y-119455163D01*
X111623631Y-119465862D01*
X111701100Y-119479243D01*
X111707504Y-119480523D01*
X111784144Y-119497935D01*
X111816953Y-119499999D01*
X111830453Y-119501585D01*
X111862836Y-119507179D01*
X111866793Y-119507359D01*
X111866796Y-119507359D01*
X111890506Y-119508436D01*
X111890525Y-119508436D01*
X111891925Y-119508500D01*
X111948108Y-119508500D01*
X111956019Y-119508749D01*
X112026413Y-119513178D01*
X112067992Y-119509101D01*
X112080288Y-119508500D01*
X124322969Y-119508500D01*
X124391090Y-119528502D01*
X124412064Y-119545405D01*
X127376325Y-122509666D01*
X127378779Y-122512188D01*
X127422060Y-122557956D01*
X127447332Y-122584681D01*
X127493601Y-122620056D01*
X127509757Y-122632408D01*
X127514892Y-122636552D01*
X127574720Y-122687470D01*
X127579045Y-122690089D01*
X127579050Y-122690093D01*
X127602824Y-122704491D01*
X127614071Y-122712163D01*
X127640174Y-122732120D01*
X127701255Y-122764871D01*
X127709401Y-122769239D01*
X127715126Y-122772504D01*
X127782358Y-122813221D01*
X127812817Y-122825527D01*
X127825158Y-122831307D01*
X127854109Y-122846831D01*
X127858890Y-122848477D01*
X127858894Y-122848479D01*
X127928401Y-122872412D01*
X127934579Y-122874722D01*
X127948962Y-122880533D01*
X128007429Y-122904155D01*
X128012369Y-122905277D01*
X128012368Y-122905277D01*
X128039460Y-122911432D01*
X128052559Y-122915163D01*
X128083631Y-122925862D01*
X128161100Y-122939243D01*
X128167504Y-122940523D01*
X128244144Y-122957935D01*
X128276953Y-122959999D01*
X128290453Y-122961585D01*
X128322836Y-122967179D01*
X128326793Y-122967359D01*
X128326796Y-122967359D01*
X128350506Y-122968436D01*
X128350525Y-122968436D01*
X128351925Y-122968500D01*
X128408108Y-122968500D01*
X128416019Y-122968749D01*
X128486413Y-122973178D01*
X128527992Y-122969101D01*
X128540288Y-122968500D01*
X134515984Y-122968500D01*
X134519502Y-122968549D01*
X134614150Y-122971193D01*
X134614153Y-122971193D01*
X134619205Y-122971334D01*
X134697098Y-122960941D01*
X134703639Y-122960242D01*
X134732332Y-122957933D01*
X134776923Y-122954346D01*
X134776927Y-122954345D01*
X134781965Y-122953940D01*
X134813878Y-122946101D01*
X134827258Y-122943574D01*
X134859820Y-122939229D01*
X134864661Y-122937768D01*
X134864663Y-122937767D01*
X134935029Y-122916522D01*
X134941392Y-122914781D01*
X134955027Y-122911432D01*
X135017706Y-122896037D01*
X135047952Y-122883199D01*
X135060763Y-122878561D01*
X135087362Y-122870530D01*
X135092208Y-122869067D01*
X135096756Y-122866849D01*
X135096763Y-122866846D01*
X135162818Y-122834629D01*
X135168820Y-122831893D01*
X135218978Y-122810602D01*
X135241156Y-122801188D01*
X135268956Y-122783681D01*
X135280860Y-122777055D01*
X135310388Y-122762654D01*
X135374600Y-122717357D01*
X135380086Y-122713699D01*
X135442286Y-122674529D01*
X135442287Y-122674528D01*
X135446567Y-122671833D01*
X135450356Y-122668492D01*
X135450362Y-122668488D01*
X135471217Y-122650102D01*
X135481912Y-122641656D01*
X135495022Y-122632408D01*
X135508747Y-122622726D01*
X135530250Y-122603091D01*
X135569966Y-122563375D01*
X135575736Y-122557956D01*
X135624858Y-122514650D01*
X135624861Y-122514647D01*
X135628655Y-122511302D01*
X135655179Y-122479011D01*
X135663449Y-122469892D01*
X137049666Y-121083675D01*
X137052188Y-121081221D01*
X137121012Y-121016138D01*
X137121014Y-121016135D01*
X137124681Y-121012668D01*
X137172411Y-120950239D01*
X137176552Y-120945108D01*
X137224191Y-120889133D01*
X137224192Y-120889132D01*
X137227470Y-120885280D01*
X137230089Y-120880955D01*
X137230093Y-120880950D01*
X137244491Y-120857176D01*
X137252163Y-120845929D01*
X137272120Y-120819826D01*
X137309243Y-120750592D01*
X137312507Y-120744868D01*
X137350602Y-120681966D01*
X137353221Y-120677642D01*
X137365528Y-120647181D01*
X137371308Y-120634841D01*
X137384440Y-120610350D01*
X137386831Y-120605891D01*
X137393014Y-120587936D01*
X137412412Y-120531599D01*
X137414722Y-120525421D01*
X137442258Y-120457266D01*
X137444155Y-120452571D01*
X137451432Y-120420539D01*
X137455163Y-120407441D01*
X137465862Y-120376369D01*
X137479243Y-120298900D01*
X137480526Y-120292482D01*
X137491087Y-120246000D01*
X137497935Y-120215856D01*
X137499999Y-120183047D01*
X137501585Y-120169547D01*
X137507179Y-120137164D01*
X137508500Y-120108075D01*
X137508500Y-120051892D01*
X137508749Y-120043980D01*
X137512860Y-119978641D01*
X137513178Y-119973587D01*
X137509101Y-119932008D01*
X137508500Y-119919712D01*
X137508500Y-119634500D01*
X137528502Y-119566379D01*
X137582158Y-119519886D01*
X137634500Y-119508500D01*
X138322969Y-119508500D01*
X138391090Y-119528502D01*
X138412064Y-119545405D01*
X139454595Y-120587936D01*
X139488621Y-120650248D01*
X139491500Y-120677031D01*
X139491500Y-121645198D01*
X139471498Y-121713319D01*
X139441065Y-121746024D01*
X139386739Y-121786739D01*
X139299385Y-121903295D01*
X139248255Y-122039684D01*
X139241500Y-122101866D01*
X139241500Y-123898134D01*
X139248255Y-123960316D01*
X139299385Y-124096705D01*
X139386739Y-124213261D01*
X139503295Y-124300615D01*
X139639684Y-124351745D01*
X139701866Y-124358500D01*
X140115500Y-124358500D01*
X140183621Y-124378502D01*
X140230114Y-124432158D01*
X140241500Y-124484500D01*
X140241500Y-126379121D01*
X140221498Y-126447242D01*
X140167842Y-126493735D01*
X140155377Y-126498644D01*
X140058007Y-126531130D01*
X140058005Y-126531131D01*
X140051054Y-126533450D01*
X139900652Y-126626522D01*
X139775695Y-126751697D01*
X139771855Y-126757927D01*
X139771854Y-126757928D01*
X139690429Y-126890024D01*
X139682885Y-126902262D01*
X139627203Y-127070139D01*
X139616500Y-127174600D01*
X139616500Y-127900400D01*
X139616837Y-127903646D01*
X139616837Y-127903650D01*
X139617583Y-127910833D01*
X139627474Y-128006166D01*
X139629655Y-128012702D01*
X139629655Y-128012704D01*
X139654886Y-128088329D01*
X139683450Y-128173946D01*
X139776522Y-128324348D01*
X139901697Y-128449305D01*
X139907927Y-128453145D01*
X139907928Y-128453146D01*
X140045090Y-128537694D01*
X140052262Y-128542115D01*
X140091836Y-128555241D01*
X140213611Y-128595632D01*
X140213613Y-128595632D01*
X140220139Y-128597797D01*
X140226975Y-128598497D01*
X140226978Y-128598498D01*
X140270031Y-128602909D01*
X140324600Y-128608500D01*
X141675400Y-128608500D01*
X141678646Y-128608163D01*
X141678650Y-128608163D01*
X141774308Y-128598238D01*
X141774312Y-128598237D01*
X141781166Y-128597526D01*
X141787702Y-128595345D01*
X141787704Y-128595345D01*
X141919806Y-128551272D01*
X141948946Y-128541550D01*
X142099348Y-128448478D01*
X142224305Y-128323303D01*
X142235611Y-128304962D01*
X142313275Y-128178968D01*
X142313276Y-128178966D01*
X142317115Y-128172738D01*
X142364936Y-128028562D01*
X142367081Y-128022095D01*
X145617001Y-128022095D01*
X145617338Y-128028614D01*
X145627257Y-128124206D01*
X145630149Y-128137600D01*
X145681588Y-128291784D01*
X145687761Y-128304962D01*
X145773063Y-128442807D01*
X145782099Y-128454208D01*
X145896829Y-128568739D01*
X145908240Y-128577751D01*
X146046243Y-128662816D01*
X146059424Y-128668963D01*
X146213710Y-128720138D01*
X146227086Y-128723005D01*
X146321438Y-128732672D01*
X146327854Y-128733000D01*
X146727885Y-128733000D01*
X146743124Y-128728525D01*
X146744329Y-128727135D01*
X146746000Y-128719452D01*
X146746000Y-128714884D01*
X147254000Y-128714884D01*
X147258475Y-128730123D01*
X147259865Y-128731328D01*
X147267548Y-128732999D01*
X147672095Y-128732999D01*
X147678614Y-128732662D01*
X147774206Y-128722743D01*
X147787600Y-128719851D01*
X147941784Y-128668412D01*
X147954962Y-128662239D01*
X148092807Y-128576937D01*
X148104208Y-128567901D01*
X148218739Y-128453171D01*
X148227751Y-128441760D01*
X148312816Y-128303757D01*
X148318963Y-128290576D01*
X148370138Y-128136290D01*
X148373005Y-128122914D01*
X148382672Y-128028562D01*
X148383000Y-128022146D01*
X148383000Y-127872115D01*
X148378525Y-127856876D01*
X148377135Y-127855671D01*
X148369452Y-127854000D01*
X147272115Y-127854000D01*
X147256876Y-127858475D01*
X147255671Y-127859865D01*
X147254000Y-127867548D01*
X147254000Y-128714884D01*
X146746000Y-128714884D01*
X146746000Y-127872115D01*
X146741525Y-127856876D01*
X146740135Y-127855671D01*
X146732452Y-127854000D01*
X145635116Y-127854000D01*
X145619877Y-127858475D01*
X145618672Y-127859865D01*
X145617001Y-127867548D01*
X145617001Y-128022095D01*
X142367081Y-128022095D01*
X142370632Y-128011389D01*
X142370632Y-128011387D01*
X142372797Y-128004861D01*
X142383500Y-127900400D01*
X142383500Y-127327885D01*
X145617000Y-127327885D01*
X145621475Y-127343124D01*
X145622865Y-127344329D01*
X145630548Y-127346000D01*
X146727885Y-127346000D01*
X146743124Y-127341525D01*
X146744329Y-127340135D01*
X146746000Y-127332452D01*
X146746000Y-127327885D01*
X147254000Y-127327885D01*
X147258475Y-127343124D01*
X147259865Y-127344329D01*
X147267548Y-127346000D01*
X148364884Y-127346000D01*
X148380123Y-127341525D01*
X148381328Y-127340135D01*
X148382999Y-127332452D01*
X148382999Y-127177905D01*
X148382662Y-127171386D01*
X148372743Y-127075794D01*
X148369851Y-127062400D01*
X148318412Y-126908216D01*
X148312239Y-126895038D01*
X148226937Y-126757193D01*
X148217901Y-126745792D01*
X148103171Y-126631261D01*
X148091760Y-126622249D01*
X147953757Y-126537184D01*
X147940576Y-126531037D01*
X147786290Y-126479862D01*
X147772914Y-126476995D01*
X147678562Y-126467328D01*
X147672145Y-126467000D01*
X147272115Y-126467000D01*
X147256876Y-126471475D01*
X147255671Y-126472865D01*
X147254000Y-126480548D01*
X147254000Y-127327885D01*
X146746000Y-127327885D01*
X146746000Y-126485116D01*
X146741525Y-126469877D01*
X146740135Y-126468672D01*
X146732452Y-126467001D01*
X146327905Y-126467001D01*
X146321386Y-126467338D01*
X146225794Y-126477257D01*
X146212400Y-126480149D01*
X146058216Y-126531588D01*
X146045038Y-126537761D01*
X145907193Y-126623063D01*
X145895792Y-126632099D01*
X145781261Y-126746829D01*
X145772249Y-126758240D01*
X145687184Y-126896243D01*
X145681037Y-126909424D01*
X145629862Y-127063710D01*
X145626995Y-127077086D01*
X145617328Y-127171438D01*
X145617000Y-127177855D01*
X145617000Y-127327885D01*
X142383500Y-127327885D01*
X142383500Y-127174600D01*
X142376615Y-127108242D01*
X142373238Y-127075692D01*
X142373237Y-127075688D01*
X142372526Y-127068834D01*
X142316550Y-126901054D01*
X142223478Y-126750652D01*
X142098303Y-126625695D01*
X142092072Y-126621854D01*
X141953968Y-126536725D01*
X141953966Y-126536724D01*
X141947738Y-126532885D01*
X141844833Y-126498753D01*
X141786473Y-126458322D01*
X141759236Y-126392758D01*
X141758500Y-126379160D01*
X141758500Y-124484500D01*
X141778502Y-124416379D01*
X141832158Y-124369886D01*
X141884500Y-124358500D01*
X142298134Y-124358500D01*
X142360316Y-124351745D01*
X142496705Y-124300615D01*
X142613261Y-124213261D01*
X142700615Y-124096705D01*
X142751745Y-123960316D01*
X142758500Y-123898134D01*
X142758500Y-123894669D01*
X143242001Y-123894669D01*
X143242371Y-123901490D01*
X143247895Y-123952352D01*
X143251521Y-123967604D01*
X143296676Y-124088054D01*
X143305214Y-124103649D01*
X143381715Y-124205724D01*
X143394276Y-124218285D01*
X143496351Y-124294786D01*
X143511946Y-124303324D01*
X143632394Y-124348478D01*
X143647649Y-124352105D01*
X143698514Y-124357631D01*
X143705328Y-124358000D01*
X144727885Y-124358000D01*
X144743124Y-124353525D01*
X144744329Y-124352135D01*
X144746000Y-124344452D01*
X144746000Y-124339884D01*
X145254000Y-124339884D01*
X145258475Y-124355123D01*
X145259865Y-124356328D01*
X145267548Y-124357999D01*
X146294669Y-124357999D01*
X146301490Y-124357629D01*
X146352352Y-124352105D01*
X146367604Y-124348479D01*
X146488054Y-124303324D01*
X146503649Y-124294786D01*
X146605724Y-124218285D01*
X146618285Y-124205724D01*
X146694786Y-124103649D01*
X146703324Y-124088054D01*
X146748478Y-123967606D01*
X146752105Y-123952351D01*
X146757631Y-123901486D01*
X146758000Y-123894672D01*
X146758000Y-123272115D01*
X146753525Y-123256876D01*
X146752135Y-123255671D01*
X146744452Y-123254000D01*
X145272115Y-123254000D01*
X145256876Y-123258475D01*
X145255671Y-123259865D01*
X145254000Y-123267548D01*
X145254000Y-124339884D01*
X144746000Y-124339884D01*
X144746000Y-123272115D01*
X144741525Y-123256876D01*
X144740135Y-123255671D01*
X144732452Y-123254000D01*
X143260116Y-123254000D01*
X143244877Y-123258475D01*
X143243672Y-123259865D01*
X143242001Y-123267548D01*
X143242001Y-123894669D01*
X142758500Y-123894669D01*
X142758500Y-122727885D01*
X143242000Y-122727885D01*
X143246475Y-122743124D01*
X143247865Y-122744329D01*
X143255548Y-122746000D01*
X144727885Y-122746000D01*
X144743124Y-122741525D01*
X144744329Y-122740135D01*
X144746000Y-122732452D01*
X144746000Y-122727885D01*
X145254000Y-122727885D01*
X145258475Y-122743124D01*
X145259865Y-122744329D01*
X145267548Y-122746000D01*
X146739884Y-122746000D01*
X146755123Y-122741525D01*
X146756328Y-122740135D01*
X146757999Y-122732452D01*
X146757999Y-122105331D01*
X146757629Y-122098510D01*
X146752105Y-122047648D01*
X146748479Y-122032396D01*
X146703324Y-121911946D01*
X146694786Y-121896351D01*
X146618285Y-121794276D01*
X146605724Y-121781715D01*
X146503649Y-121705214D01*
X146488054Y-121696676D01*
X146367606Y-121651522D01*
X146352351Y-121647895D01*
X146301486Y-121642369D01*
X146294672Y-121642000D01*
X145272115Y-121642000D01*
X145256876Y-121646475D01*
X145255671Y-121647865D01*
X145254000Y-121655548D01*
X145254000Y-122727885D01*
X144746000Y-122727885D01*
X144746000Y-121660116D01*
X144741525Y-121644877D01*
X144740135Y-121643672D01*
X144732452Y-121642001D01*
X143705331Y-121642001D01*
X143698510Y-121642371D01*
X143647648Y-121647895D01*
X143632396Y-121651521D01*
X143511946Y-121696676D01*
X143496351Y-121705214D01*
X143394276Y-121781715D01*
X143381715Y-121794276D01*
X143305214Y-121896351D01*
X143296676Y-121911946D01*
X143251522Y-122032394D01*
X143247895Y-122047649D01*
X143242369Y-122098514D01*
X143242000Y-122105328D01*
X143242000Y-122727885D01*
X142758500Y-122727885D01*
X142758500Y-122101866D01*
X142751745Y-122039684D01*
X142700615Y-121903295D01*
X142613261Y-121786739D01*
X142558935Y-121746024D01*
X142516420Y-121689165D01*
X142508500Y-121645198D01*
X142508500Y-120024016D01*
X142508549Y-120020498D01*
X142511193Y-119925850D01*
X142511193Y-119925847D01*
X142511334Y-119920795D01*
X142500941Y-119842902D01*
X142500241Y-119836353D01*
X142494346Y-119763077D01*
X142494345Y-119763073D01*
X142493940Y-119758035D01*
X142486101Y-119726122D01*
X142483573Y-119712738D01*
X142479898Y-119685194D01*
X142479229Y-119680180D01*
X142456522Y-119604971D01*
X142454781Y-119598608D01*
X142446865Y-119566379D01*
X142436037Y-119522294D01*
X142423199Y-119492048D01*
X142418561Y-119479237D01*
X142411293Y-119455166D01*
X142409067Y-119447792D01*
X142406849Y-119443244D01*
X142406846Y-119443237D01*
X142374629Y-119377182D01*
X142371893Y-119371180D01*
X142351428Y-119322969D01*
X142341188Y-119298844D01*
X142323681Y-119271044D01*
X142317052Y-119259134D01*
X142313656Y-119252171D01*
X142302654Y-119229612D01*
X142257357Y-119165400D01*
X142253699Y-119159914D01*
X142214529Y-119097714D01*
X142214528Y-119097713D01*
X142211833Y-119093433D01*
X142208492Y-119089644D01*
X142208488Y-119089638D01*
X142190102Y-119068783D01*
X142181656Y-119058088D01*
X142165009Y-119034490D01*
X142162726Y-119031253D01*
X142143091Y-119009750D01*
X142103375Y-118970034D01*
X142097956Y-118964264D01*
X142054650Y-118915142D01*
X142054647Y-118915139D01*
X142051302Y-118911345D01*
X142019011Y-118884821D01*
X142009892Y-118876551D01*
X140083675Y-116950334D01*
X140081221Y-116947812D01*
X140016138Y-116878988D01*
X140016135Y-116878986D01*
X140012668Y-116875319D01*
X139950239Y-116827589D01*
X139945108Y-116823448D01*
X139889133Y-116775809D01*
X139889132Y-116775808D01*
X139885280Y-116772530D01*
X139880955Y-116769911D01*
X139880950Y-116769907D01*
X139857176Y-116755509D01*
X139845929Y-116747837D01*
X139819826Y-116727880D01*
X139750592Y-116690757D01*
X139744868Y-116687493D01*
X139681966Y-116649398D01*
X139677642Y-116646779D01*
X139647181Y-116634472D01*
X139634841Y-116628692D01*
X139610350Y-116615560D01*
X139610351Y-116615560D01*
X139605891Y-116613169D01*
X139601110Y-116611523D01*
X139601106Y-116611521D01*
X139531599Y-116587588D01*
X139525421Y-116585278D01*
X139457266Y-116557742D01*
X139457267Y-116557742D01*
X139452571Y-116555845D01*
X139420539Y-116548568D01*
X139407441Y-116544837D01*
X139376369Y-116534138D01*
X139298900Y-116520757D01*
X139292496Y-116519477D01*
X139215856Y-116502065D01*
X139183047Y-116500001D01*
X139169547Y-116498415D01*
X139137164Y-116492821D01*
X139133207Y-116492641D01*
X139133204Y-116492641D01*
X139109494Y-116491564D01*
X139109475Y-116491564D01*
X139108075Y-116491500D01*
X139051892Y-116491500D01*
X139043980Y-116491251D01*
X139038386Y-116490899D01*
X138973587Y-116486822D01*
X138934545Y-116490650D01*
X138932008Y-116490899D01*
X138919712Y-116491500D01*
X137634500Y-116491500D01*
X137566379Y-116471498D01*
X137519886Y-116417842D01*
X137508500Y-116365500D01*
X137508500Y-115677031D01*
X137528502Y-115608910D01*
X137545405Y-115587936D01*
X138587936Y-114545405D01*
X138650248Y-114511379D01*
X138677031Y-114508500D01*
X143048134Y-114508500D01*
X143110316Y-114501745D01*
X143246705Y-114450615D01*
X143363261Y-114363261D01*
X143450615Y-114246705D01*
X143455876Y-114232670D01*
X146132160Y-114232670D01*
X146137887Y-114240320D01*
X146309042Y-114345205D01*
X146317837Y-114349687D01*
X146527988Y-114436734D01*
X146537373Y-114439783D01*
X146758554Y-114492885D01*
X146768301Y-114494428D01*
X146995070Y-114512275D01*
X147004930Y-114512275D01*
X147231699Y-114494428D01*
X147241446Y-114492885D01*
X147462627Y-114439783D01*
X147472012Y-114436734D01*
X147682163Y-114349687D01*
X147690958Y-114345205D01*
X147858445Y-114242568D01*
X147867907Y-114232110D01*
X147864124Y-114223334D01*
X147012812Y-113372022D01*
X146998868Y-113364408D01*
X146997035Y-113364539D01*
X146990420Y-113368790D01*
X146138920Y-114220290D01*
X146132160Y-114232670D01*
X143455876Y-114232670D01*
X143501745Y-114110316D01*
X143508500Y-114048134D01*
X143508500Y-113037812D01*
X143508630Y-113032096D01*
X143509506Y-113012812D01*
X143509864Y-113004930D01*
X145487725Y-113004930D01*
X145505572Y-113231699D01*
X145507115Y-113241446D01*
X145560217Y-113462627D01*
X145563266Y-113472012D01*
X145650313Y-113682163D01*
X145654795Y-113690958D01*
X145757432Y-113858445D01*
X145767890Y-113867907D01*
X145776666Y-113864124D01*
X146627978Y-113012812D01*
X146634356Y-113001132D01*
X147364408Y-113001132D01*
X147364539Y-113002965D01*
X147368790Y-113009580D01*
X148220290Y-113861080D01*
X148232670Y-113867840D01*
X148240320Y-113862113D01*
X148345205Y-113690958D01*
X148349687Y-113682163D01*
X148436734Y-113472012D01*
X148439783Y-113462627D01*
X148492885Y-113241446D01*
X148494428Y-113231699D01*
X148512275Y-113004930D01*
X148512275Y-112995070D01*
X148494428Y-112768301D01*
X148492885Y-112758554D01*
X148439783Y-112537373D01*
X148436734Y-112527988D01*
X148349687Y-112317837D01*
X148345205Y-112309042D01*
X148242568Y-112141555D01*
X148232110Y-112132093D01*
X148223334Y-112135876D01*
X147372022Y-112987188D01*
X147364408Y-113001132D01*
X146634356Y-113001132D01*
X146635592Y-112998868D01*
X146635461Y-112997035D01*
X146631210Y-112990420D01*
X145779710Y-112138920D01*
X145767330Y-112132160D01*
X145759680Y-112137887D01*
X145654795Y-112309042D01*
X145650313Y-112317837D01*
X145563266Y-112527988D01*
X145560217Y-112537373D01*
X145507115Y-112758554D01*
X145505572Y-112768301D01*
X145487725Y-112995070D01*
X145487725Y-113004930D01*
X143509864Y-113004930D01*
X143512486Y-112947183D01*
X143509335Y-112919949D01*
X143508500Y-112905468D01*
X143508500Y-111951866D01*
X143501745Y-111889684D01*
X143456086Y-111767890D01*
X146132093Y-111767890D01*
X146135876Y-111776666D01*
X146987188Y-112627978D01*
X147001132Y-112635592D01*
X147002965Y-112635461D01*
X147009580Y-112631210D01*
X147861080Y-111779710D01*
X147867840Y-111767330D01*
X147862113Y-111759680D01*
X147690958Y-111654795D01*
X147682163Y-111650313D01*
X147472012Y-111563266D01*
X147462627Y-111560217D01*
X147241446Y-111507115D01*
X147231699Y-111505572D01*
X147004930Y-111487725D01*
X146995070Y-111487725D01*
X146768301Y-111505572D01*
X146758554Y-111507115D01*
X146537373Y-111560217D01*
X146527988Y-111563266D01*
X146317837Y-111650313D01*
X146309042Y-111654795D01*
X146141555Y-111757432D01*
X146132093Y-111767890D01*
X143456086Y-111767890D01*
X143450615Y-111753295D01*
X143363261Y-111636739D01*
X143246705Y-111549385D01*
X143110316Y-111498255D01*
X143048134Y-111491500D01*
X138024016Y-111491500D01*
X138020498Y-111491451D01*
X137925850Y-111488807D01*
X137925847Y-111488807D01*
X137920795Y-111488666D01*
X137842902Y-111499059D01*
X137836361Y-111499758D01*
X137813531Y-111501595D01*
X137763077Y-111505654D01*
X137763073Y-111505655D01*
X137758035Y-111506060D01*
X137726122Y-111513899D01*
X137712742Y-111516426D01*
X137680180Y-111520771D01*
X137675339Y-111522232D01*
X137675337Y-111522233D01*
X137604971Y-111543478D01*
X137598610Y-111545219D01*
X137522294Y-111563963D01*
X137517634Y-111565941D01*
X137492049Y-111576801D01*
X137479239Y-111581438D01*
X137447792Y-111590933D01*
X137443244Y-111593151D01*
X137443237Y-111593154D01*
X137377182Y-111625371D01*
X137371180Y-111628107D01*
X137360862Y-111632487D01*
X137298844Y-111658812D01*
X137284624Y-111667767D01*
X137271044Y-111676319D01*
X137259140Y-111682945D01*
X137229612Y-111697346D01*
X137225475Y-111700265D01*
X137225474Y-111700265D01*
X137165403Y-111742641D01*
X137159914Y-111746301D01*
X137126521Y-111767330D01*
X137093433Y-111788167D01*
X137089644Y-111791508D01*
X137089638Y-111791512D01*
X137068783Y-111809898D01*
X137058088Y-111818344D01*
X137031253Y-111837274D01*
X137009750Y-111856909D01*
X136970034Y-111896625D01*
X136964264Y-111902044D01*
X136915142Y-111945350D01*
X136915139Y-111945353D01*
X136911345Y-111948698D01*
X136908135Y-111952606D01*
X136908134Y-111952607D01*
X136884821Y-111980989D01*
X136876551Y-111990108D01*
X134950334Y-113916325D01*
X134947812Y-113918779D01*
X134888360Y-113975000D01*
X134875319Y-113987332D01*
X134872252Y-113991344D01*
X134827592Y-114049757D01*
X134823448Y-114054892D01*
X134772530Y-114114720D01*
X134769911Y-114119045D01*
X134769907Y-114119050D01*
X134755509Y-114142824D01*
X134747837Y-114154071D01*
X134727880Y-114180174D01*
X134692207Y-114246705D01*
X134690761Y-114249401D01*
X134687496Y-114255126D01*
X134646779Y-114322358D01*
X134634473Y-114352817D01*
X134628693Y-114365158D01*
X134613169Y-114394109D01*
X134611523Y-114398890D01*
X134611521Y-114398894D01*
X134587588Y-114468401D01*
X134585278Y-114474579D01*
X134573958Y-114502598D01*
X134555845Y-114547429D01*
X134554723Y-114552368D01*
X134548568Y-114579460D01*
X134544837Y-114592559D01*
X134534138Y-114623631D01*
X134520757Y-114701100D01*
X134519477Y-114707504D01*
X134502065Y-114784144D01*
X134500001Y-114816953D01*
X134498415Y-114830453D01*
X134492821Y-114862836D01*
X134492641Y-114866793D01*
X134492641Y-114866796D01*
X134491673Y-114888126D01*
X134491500Y-114891925D01*
X134491500Y-114948108D01*
X134491251Y-114956019D01*
X134486822Y-115026413D01*
X134487316Y-115031448D01*
X134490899Y-115067992D01*
X134491500Y-115080288D01*
X134491500Y-117962188D01*
X134491370Y-117967903D01*
X134487514Y-118052817D01*
X134488095Y-118057837D01*
X134488095Y-118057841D01*
X134490665Y-118080050D01*
X134491500Y-118094532D01*
X134491500Y-119322969D01*
X134471498Y-119391090D01*
X134454595Y-119412064D01*
X133952064Y-119914595D01*
X133889752Y-119948621D01*
X133862969Y-119951500D01*
X129137031Y-119951500D01*
X129068910Y-119931498D01*
X129047936Y-119914595D01*
X126083675Y-116950334D01*
X126081221Y-116947812D01*
X126016138Y-116878988D01*
X126016135Y-116878986D01*
X126012668Y-116875319D01*
X125950239Y-116827589D01*
X125945108Y-116823448D01*
X125889133Y-116775809D01*
X125889132Y-116775808D01*
X125885280Y-116772530D01*
X125880955Y-116769911D01*
X125880950Y-116769907D01*
X125857176Y-116755509D01*
X125845929Y-116747837D01*
X125819826Y-116727880D01*
X125750592Y-116690757D01*
X125744868Y-116687493D01*
X125681966Y-116649398D01*
X125677642Y-116646779D01*
X125647181Y-116634472D01*
X125634841Y-116628692D01*
X125610350Y-116615560D01*
X125610351Y-116615560D01*
X125605891Y-116613169D01*
X125601110Y-116611523D01*
X125601106Y-116611521D01*
X125531599Y-116587588D01*
X125525421Y-116585278D01*
X125457266Y-116557742D01*
X125457267Y-116557742D01*
X125452571Y-116555845D01*
X125420539Y-116548568D01*
X125407441Y-116544837D01*
X125376369Y-116534138D01*
X125298900Y-116520757D01*
X125292496Y-116519477D01*
X125215856Y-116502065D01*
X125183047Y-116500001D01*
X125169547Y-116498415D01*
X125137164Y-116492821D01*
X125133207Y-116492641D01*
X125133204Y-116492641D01*
X125109494Y-116491564D01*
X125109475Y-116491564D01*
X125108075Y-116491500D01*
X125051892Y-116491500D01*
X125043980Y-116491251D01*
X125038386Y-116490899D01*
X124973587Y-116486822D01*
X124934545Y-116490650D01*
X124932008Y-116490899D01*
X124919712Y-116491500D01*
X112677031Y-116491500D01*
X112608910Y-116471498D01*
X112587936Y-116454595D01*
X110365283Y-114231942D01*
X110331257Y-114169630D01*
X110336748Y-114097690D01*
X110340175Y-114088764D01*
X110341361Y-114085674D01*
X110436541Y-113730459D01*
X110477475Y-113472012D01*
X110493555Y-113370489D01*
X110493556Y-113370481D01*
X110494069Y-113367241D01*
X110513315Y-113000000D01*
X110494069Y-112632759D01*
X110491859Y-112618800D01*
X110437057Y-112272802D01*
X110436541Y-112269541D01*
X110341361Y-111914326D01*
X110336647Y-111902044D01*
X110269076Y-111726016D01*
X110209573Y-111571006D01*
X110198557Y-111549385D01*
X110044119Y-111246284D01*
X110044115Y-111246277D01*
X110042620Y-111243343D01*
X109842332Y-110934925D01*
X109610902Y-110649133D01*
X109350867Y-110389098D01*
X109065075Y-110157668D01*
X108756658Y-109957380D01*
X108753724Y-109955885D01*
X108753717Y-109955881D01*
X108431934Y-109791925D01*
X108428994Y-109790427D01*
X108085674Y-109658639D01*
X107730459Y-109563459D01*
X107537442Y-109532888D01*
X107370489Y-109506445D01*
X107370481Y-109506444D01*
X107367241Y-109505931D01*
X107000000Y-109486685D01*
X106632759Y-109505931D01*
X106629519Y-109506444D01*
X106629511Y-109506445D01*
X106462558Y-109532888D01*
X106269541Y-109563459D01*
X105914326Y-109658639D01*
X105571006Y-109790427D01*
X105568066Y-109791925D01*
X105246284Y-109955881D01*
X105246277Y-109955885D01*
X105243343Y-109957380D01*
X104934925Y-110157668D01*
X104649133Y-110389098D01*
X104389098Y-110649133D01*
X104157668Y-110934925D01*
X103957380Y-111243343D01*
X103955885Y-111246277D01*
X103955881Y-111246284D01*
X103801443Y-111549385D01*
X103790427Y-111571006D01*
X103730924Y-111726016D01*
X103663354Y-111902044D01*
X103658639Y-111914326D01*
X103563459Y-112269541D01*
X103562943Y-112272802D01*
X103508142Y-112618800D01*
X103505931Y-112632759D01*
X103486685Y-113000000D01*
X98508500Y-113000000D01*
X98508500Y-108013134D01*
X112586500Y-108013134D01*
X112593255Y-108075316D01*
X112644385Y-108211705D01*
X112731739Y-108328261D01*
X112848295Y-108415615D01*
X112984684Y-108466745D01*
X113046866Y-108473500D01*
X115715826Y-108473500D01*
X115720443Y-108473585D01*
X115801673Y-108476564D01*
X115801677Y-108476564D01*
X115806837Y-108476753D01*
X115811957Y-108476097D01*
X115811959Y-108476097D01*
X115824261Y-108474521D01*
X115840271Y-108473500D01*
X116643134Y-108473500D01*
X116705316Y-108466745D01*
X116841705Y-108415615D01*
X116958261Y-108328261D01*
X117045615Y-108211705D01*
X117096745Y-108075316D01*
X117103500Y-108013134D01*
X117103500Y-107212856D01*
X117104578Y-107196409D01*
X117106092Y-107184908D01*
X117106529Y-107181590D01*
X117108156Y-107115000D01*
X117103924Y-107063524D01*
X117103500Y-107053200D01*
X117103500Y-106216866D01*
X117096745Y-106154684D01*
X117045615Y-106018295D01*
X116972370Y-105920564D01*
X116947522Y-105854059D01*
X116962575Y-105784676D01*
X116972370Y-105769435D01*
X117045615Y-105671705D01*
X117096745Y-105535316D01*
X117103500Y-105473134D01*
X117103500Y-104672856D01*
X117104578Y-104656409D01*
X117106092Y-104644908D01*
X117106529Y-104641590D01*
X117108156Y-104575000D01*
X117103924Y-104523524D01*
X117103500Y-104513200D01*
X117103500Y-103676866D01*
X117096745Y-103614684D01*
X117045615Y-103478295D01*
X116972058Y-103380148D01*
X116947210Y-103313642D01*
X116962263Y-103244259D01*
X116972058Y-103229018D01*
X117039786Y-103138649D01*
X117048324Y-103123054D01*
X117093478Y-103002606D01*
X117097105Y-102987351D01*
X117102631Y-102936486D01*
X117103000Y-102929672D01*
X117103000Y-102307115D01*
X117098525Y-102291876D01*
X117097135Y-102290671D01*
X117089452Y-102289000D01*
X112605116Y-102289000D01*
X112589877Y-102293475D01*
X112588672Y-102294865D01*
X112587001Y-102302548D01*
X112587001Y-102929669D01*
X112587371Y-102936490D01*
X112592895Y-102987352D01*
X112596521Y-103002604D01*
X112641676Y-103123054D01*
X112650214Y-103138649D01*
X112717942Y-103229018D01*
X112742790Y-103295525D01*
X112727737Y-103364907D01*
X112717942Y-103380148D01*
X112644385Y-103478295D01*
X112593255Y-103614684D01*
X112586500Y-103676866D01*
X112586500Y-105473134D01*
X112593255Y-105535316D01*
X112644385Y-105671705D01*
X112717630Y-105769435D01*
X112742478Y-105835941D01*
X112727425Y-105905324D01*
X112717632Y-105920562D01*
X112644385Y-106018295D01*
X112593255Y-106154684D01*
X112586500Y-106216866D01*
X112586500Y-108013134D01*
X98508500Y-108013134D01*
X98508500Y-96046695D01*
X101637251Y-96046695D01*
X101637548Y-96051848D01*
X101637548Y-96051851D01*
X101647618Y-96226498D01*
X101650110Y-96269715D01*
X101651247Y-96274761D01*
X101651248Y-96274767D01*
X101671119Y-96362939D01*
X101699222Y-96487639D01*
X101783266Y-96694616D01*
X101899987Y-96885088D01*
X102046250Y-97053938D01*
X102050230Y-97057242D01*
X102054981Y-97061187D01*
X102094616Y-97120090D01*
X102096113Y-97191071D01*
X102058997Y-97251593D01*
X102018725Y-97276112D01*
X101930095Y-97309338D01*
X101903295Y-97319385D01*
X101786739Y-97406739D01*
X101699385Y-97523295D01*
X101648255Y-97659684D01*
X101641500Y-97721866D01*
X101641500Y-99518134D01*
X101648255Y-99580316D01*
X101699385Y-99716705D01*
X101786739Y-99833261D01*
X101903295Y-99920615D01*
X102039684Y-99971745D01*
X102101866Y-99978500D01*
X103898134Y-99978500D01*
X103960316Y-99971745D01*
X104096705Y-99920615D01*
X104213261Y-99833261D01*
X104300615Y-99716705D01*
X104351745Y-99580316D01*
X104358500Y-99518134D01*
X104358500Y-99454500D01*
X104378502Y-99386379D01*
X104432158Y-99339886D01*
X104484500Y-99328500D01*
X106274340Y-99328500D01*
X106342461Y-99348502D01*
X106363435Y-99365405D01*
X106973550Y-99975520D01*
X106979404Y-99981785D01*
X107017439Y-100025385D01*
X107069719Y-100062128D01*
X107075014Y-100066061D01*
X107125282Y-100105476D01*
X107132198Y-100108599D01*
X107134484Y-100109983D01*
X107149165Y-100118357D01*
X107151525Y-100119622D01*
X107157739Y-100123990D01*
X107164818Y-100126750D01*
X107164820Y-100126751D01*
X107217275Y-100147202D01*
X107223344Y-100149753D01*
X107281573Y-100176045D01*
X107289040Y-100177429D01*
X107291595Y-100178230D01*
X107307848Y-100182859D01*
X107310428Y-100183522D01*
X107317509Y-100186282D01*
X107325040Y-100187273D01*
X107325042Y-100187274D01*
X107354661Y-100191173D01*
X107380861Y-100194622D01*
X107387359Y-100195652D01*
X107450186Y-100207296D01*
X107457766Y-100206859D01*
X107457767Y-100206859D01*
X107512392Y-100203709D01*
X107519646Y-100203500D01*
X112460500Y-100203500D01*
X112528621Y-100223502D01*
X112575114Y-100277158D01*
X112586500Y-100329500D01*
X112586500Y-100393134D01*
X112593255Y-100455316D01*
X112644385Y-100591705D01*
X112649771Y-100598891D01*
X112717942Y-100689852D01*
X112742790Y-100756358D01*
X112727737Y-100825741D01*
X112717942Y-100840982D01*
X112650214Y-100931351D01*
X112641676Y-100946946D01*
X112596522Y-101067394D01*
X112592895Y-101082649D01*
X112587369Y-101133514D01*
X112587000Y-101140328D01*
X112587000Y-101762885D01*
X112591475Y-101778124D01*
X112592865Y-101779329D01*
X112600548Y-101781000D01*
X117084884Y-101781000D01*
X117100123Y-101776525D01*
X117101328Y-101775135D01*
X117102999Y-101767452D01*
X117102999Y-101140331D01*
X117102629Y-101133510D01*
X117097105Y-101082648D01*
X117093479Y-101067396D01*
X117048324Y-100946946D01*
X117039786Y-100931351D01*
X116972058Y-100840982D01*
X116947210Y-100774475D01*
X116962263Y-100705093D01*
X116972058Y-100689852D01*
X117040229Y-100598891D01*
X117045615Y-100591705D01*
X117096745Y-100455316D01*
X117103500Y-100393134D01*
X117103500Y-99592856D01*
X117104578Y-99576409D01*
X117106092Y-99564908D01*
X117106529Y-99561590D01*
X117107674Y-99514717D01*
X117108074Y-99498365D01*
X117108074Y-99498361D01*
X117108156Y-99495000D01*
X117103924Y-99443524D01*
X117103500Y-99433200D01*
X117103500Y-98596866D01*
X117096745Y-98534684D01*
X117045615Y-98398295D01*
X116972370Y-98300564D01*
X116947522Y-98234059D01*
X116962575Y-98164676D01*
X116972370Y-98149435D01*
X116975403Y-98145388D01*
X117045615Y-98051705D01*
X117096745Y-97915316D01*
X117103500Y-97853134D01*
X117103500Y-97052856D01*
X117104578Y-97036409D01*
X117106092Y-97024908D01*
X117106529Y-97021590D01*
X117107169Y-96995388D01*
X117108074Y-96958365D01*
X117108074Y-96958361D01*
X117108156Y-96955000D01*
X117103924Y-96903524D01*
X117103500Y-96893200D01*
X117103500Y-96874001D01*
X119188302Y-96874001D01*
X119196151Y-97302233D01*
X119242036Y-97728071D01*
X119242582Y-97730817D01*
X119242583Y-97730822D01*
X119263206Y-97834500D01*
X119325594Y-98148144D01*
X119446163Y-98559127D01*
X119447190Y-98561740D01*
X119447190Y-98561741D01*
X119585651Y-98914145D01*
X119602789Y-98957765D01*
X119682190Y-99116672D01*
X119788035Y-99328500D01*
X119794231Y-99340901D01*
X120018974Y-99705502D01*
X120275239Y-100048682D01*
X120277100Y-100050760D01*
X120277101Y-100050761D01*
X120559127Y-100365637D01*
X120559133Y-100365643D01*
X120560995Y-100367722D01*
X120873981Y-100660098D01*
X121211719Y-100923493D01*
X121571533Y-101155822D01*
X121574012Y-101157126D01*
X121574015Y-101157128D01*
X121948077Y-101353932D01*
X121948083Y-101353935D01*
X121950577Y-101355247D01*
X121953175Y-101356331D01*
X121953179Y-101356333D01*
X122343263Y-101519109D01*
X122343268Y-101519111D01*
X122345847Y-101520187D01*
X122348512Y-101521030D01*
X122348518Y-101521032D01*
X122490030Y-101565786D01*
X122754214Y-101649336D01*
X122756944Y-101649939D01*
X122756945Y-101649939D01*
X123127578Y-101731767D01*
X123172446Y-101741673D01*
X123175220Y-101742031D01*
X123175221Y-101742031D01*
X123594460Y-101796109D01*
X123594467Y-101796110D01*
X123597230Y-101796466D01*
X123600017Y-101796576D01*
X123600023Y-101796576D01*
X123848238Y-101806328D01*
X124025203Y-101813281D01*
X124027995Y-101813142D01*
X124028000Y-101813142D01*
X124450172Y-101792125D01*
X124450181Y-101792124D01*
X124452976Y-101791985D01*
X124455753Y-101791597D01*
X124455755Y-101791597D01*
X124573634Y-101775135D01*
X124877163Y-101732747D01*
X125294404Y-101636036D01*
X125508701Y-101565786D01*
X125698744Y-101503487D01*
X125698750Y-101503485D01*
X125701397Y-101502617D01*
X126094918Y-101333547D01*
X126471852Y-101130164D01*
X126829214Y-100894080D01*
X127164175Y-100627162D01*
X127474082Y-100331525D01*
X127475919Y-100329431D01*
X127475927Y-100329422D01*
X127754635Y-100011616D01*
X127756482Y-100009510D01*
X127777220Y-99981124D01*
X127958548Y-99732916D01*
X128009139Y-99663666D01*
X128049346Y-99596883D01*
X128228601Y-99299142D01*
X128228606Y-99299133D01*
X128230052Y-99296731D01*
X128417471Y-98911611D01*
X128550724Y-98561741D01*
X128568918Y-98513971D01*
X128568920Y-98513964D01*
X128569914Y-98511355D01*
X128686173Y-98099132D01*
X128686689Y-98096389D01*
X128764811Y-97680954D01*
X128764813Y-97680942D01*
X128765327Y-97678207D01*
X128806750Y-97251911D01*
X128810269Y-97117529D01*
X128813289Y-97002234D01*
X128813289Y-97002220D01*
X128813347Y-97000000D01*
X128794291Y-96572121D01*
X128737275Y-96147630D01*
X128731137Y-96120500D01*
X128643368Y-95732618D01*
X128643368Y-95732617D01*
X128642750Y-95729887D01*
X128608869Y-95624676D01*
X128512318Y-95324856D01*
X128512316Y-95324849D01*
X128511463Y-95322202D01*
X128354007Y-94950357D01*
X128345550Y-94930384D01*
X128345548Y-94930379D01*
X128344456Y-94927801D01*
X128143050Y-94549807D01*
X128141516Y-94547458D01*
X127910381Y-94193573D01*
X127910378Y-94193569D01*
X127908840Y-94191214D01*
X127643680Y-93854860D01*
X127349670Y-93543409D01*
X127347579Y-93541556D01*
X127347571Y-93541548D01*
X127031237Y-93261188D01*
X127031235Y-93261186D01*
X127029137Y-93259327D01*
X126684621Y-93004863D01*
X126487756Y-92884932D01*
X126321237Y-92783487D01*
X126321230Y-92783483D01*
X126318848Y-92782032D01*
X126307694Y-92776531D01*
X125937228Y-92593838D01*
X125934714Y-92592598D01*
X125535262Y-92438062D01*
X125270127Y-92361785D01*
X125126335Y-92320417D01*
X125126329Y-92320415D01*
X125123654Y-92319646D01*
X125120917Y-92319117D01*
X125120911Y-92319115D01*
X124975828Y-92291046D01*
X124703148Y-92238289D01*
X124700374Y-92238005D01*
X124700362Y-92238003D01*
X124417111Y-92208982D01*
X124277076Y-92194634D01*
X124274286Y-92194597D01*
X124274278Y-92194597D01*
X124006825Y-92191096D01*
X123848809Y-92189028D01*
X123846009Y-92189241D01*
X123846008Y-92189241D01*
X123530236Y-92213261D01*
X123421740Y-92221514D01*
X122999249Y-92291836D01*
X122953281Y-92303767D01*
X122587400Y-92398731D01*
X122587389Y-92398734D01*
X122584682Y-92399437D01*
X122356843Y-92480791D01*
X122183964Y-92542520D01*
X122183959Y-92542522D01*
X122181321Y-92543464D01*
X122178781Y-92544635D01*
X122178776Y-92544637D01*
X122076930Y-92591589D01*
X121792361Y-92722777D01*
X121420880Y-92935957D01*
X121418577Y-92937566D01*
X121418570Y-92937571D01*
X121108818Y-93154059D01*
X121069820Y-93181315D01*
X120741961Y-93456909D01*
X120439899Y-93760557D01*
X120166025Y-94089855D01*
X120164431Y-94092162D01*
X120164429Y-94092164D01*
X119932915Y-94427137D01*
X119922508Y-94442194D01*
X119711276Y-94814786D01*
X119710117Y-94817335D01*
X119710115Y-94817339D01*
X119671716Y-94901793D01*
X119534002Y-95204680D01*
X119533080Y-95207306D01*
X119533075Y-95207318D01*
X119464567Y-95402401D01*
X119392089Y-95608790D01*
X119391398Y-95611510D01*
X119391397Y-95611514D01*
X119303723Y-95956733D01*
X119286661Y-96023914D01*
X119218552Y-96446768D01*
X119188302Y-96874001D01*
X117103500Y-96874001D01*
X117103500Y-96056866D01*
X117096745Y-95994684D01*
X117045615Y-95858295D01*
X116972370Y-95760564D01*
X116947522Y-95694059D01*
X116962575Y-95624676D01*
X116972370Y-95609435D01*
X117045615Y-95511705D01*
X117096745Y-95375316D01*
X117103500Y-95313134D01*
X117103500Y-94512856D01*
X117104578Y-94496409D01*
X117106092Y-94484908D01*
X117106529Y-94481590D01*
X117107548Y-94439886D01*
X117108074Y-94418365D01*
X117108074Y-94418361D01*
X117108156Y-94415000D01*
X117103924Y-94363524D01*
X117103500Y-94353200D01*
X117103500Y-93516866D01*
X117096745Y-93454684D01*
X117045615Y-93318295D01*
X116972370Y-93220564D01*
X116947522Y-93154059D01*
X116962575Y-93084676D01*
X116972370Y-93069435D01*
X117045615Y-92971705D01*
X117096745Y-92835316D01*
X117103500Y-92773134D01*
X117103500Y-91972856D01*
X117104578Y-91956409D01*
X117106092Y-91944908D01*
X117106529Y-91941590D01*
X117107674Y-91894717D01*
X117108074Y-91878365D01*
X117108074Y-91878361D01*
X117108156Y-91875000D01*
X117103924Y-91823524D01*
X117103500Y-91813200D01*
X117103500Y-90976866D01*
X117096745Y-90914684D01*
X117045615Y-90778295D01*
X116991830Y-90706530D01*
X116972058Y-90680148D01*
X116947210Y-90613642D01*
X116962263Y-90544259D01*
X116972058Y-90529018D01*
X117039786Y-90438649D01*
X117048324Y-90423054D01*
X117093478Y-90302606D01*
X117097105Y-90287351D01*
X117102631Y-90236486D01*
X117103000Y-90229672D01*
X117103000Y-89607115D01*
X117098525Y-89591876D01*
X117097135Y-89590671D01*
X117089452Y-89589000D01*
X112605116Y-89589000D01*
X112589877Y-89593475D01*
X112588672Y-89594865D01*
X112587001Y-89602548D01*
X112587001Y-90229669D01*
X112587370Y-90236488D01*
X112591252Y-90272223D01*
X112578723Y-90342105D01*
X112530402Y-90394120D01*
X112461630Y-90411754D01*
X112394242Y-90389407D01*
X112376894Y-90374924D01*
X110745405Y-88743435D01*
X110711379Y-88681123D01*
X110708500Y-88654340D01*
X110708500Y-87693134D01*
X112586500Y-87693134D01*
X112593255Y-87755316D01*
X112644385Y-87891705D01*
X112649771Y-87898891D01*
X112717942Y-87989852D01*
X112742790Y-88056358D01*
X112727737Y-88125741D01*
X112717942Y-88140982D01*
X112650214Y-88231351D01*
X112641676Y-88246946D01*
X112596522Y-88367394D01*
X112592895Y-88382649D01*
X112587369Y-88433514D01*
X112587000Y-88440328D01*
X112587000Y-89062885D01*
X112591475Y-89078124D01*
X112592865Y-89079329D01*
X112600548Y-89081000D01*
X117084884Y-89081000D01*
X117100123Y-89076525D01*
X117101328Y-89075135D01*
X117102999Y-89067452D01*
X117102999Y-88440331D01*
X117102629Y-88433510D01*
X117097105Y-88382648D01*
X117093479Y-88367396D01*
X117048324Y-88246946D01*
X117039786Y-88231351D01*
X116972058Y-88140982D01*
X116947210Y-88074475D01*
X116962263Y-88005093D01*
X116972058Y-87989852D01*
X117040229Y-87898891D01*
X117045615Y-87891705D01*
X117096745Y-87755316D01*
X117103500Y-87693134D01*
X117103500Y-86892856D01*
X117104578Y-86876409D01*
X117106092Y-86864908D01*
X117106529Y-86861590D01*
X117108156Y-86795000D01*
X117103924Y-86743524D01*
X117103500Y-86733200D01*
X117103500Y-85896866D01*
X117096745Y-85834684D01*
X117045615Y-85698295D01*
X116972370Y-85600564D01*
X116947522Y-85534059D01*
X116962575Y-85464676D01*
X116972370Y-85449435D01*
X117040229Y-85358891D01*
X117045615Y-85351705D01*
X117096745Y-85215316D01*
X117103500Y-85153134D01*
X117103500Y-84352856D01*
X117104578Y-84336409D01*
X117106092Y-84324908D01*
X117106529Y-84321590D01*
X117108156Y-84255000D01*
X117103924Y-84203524D01*
X117103500Y-84193200D01*
X117103500Y-83356866D01*
X117096745Y-83294684D01*
X117045615Y-83158295D01*
X116972370Y-83060564D01*
X116947522Y-82994059D01*
X116962575Y-82924676D01*
X116972370Y-82909435D01*
X117040229Y-82818891D01*
X117045615Y-82811705D01*
X117096745Y-82675316D01*
X117103500Y-82613134D01*
X117103500Y-81812856D01*
X117104578Y-81796409D01*
X117106092Y-81784908D01*
X117106529Y-81781590D01*
X117108156Y-81715000D01*
X117103924Y-81663524D01*
X117103500Y-81653200D01*
X117103500Y-80816866D01*
X117096745Y-80754684D01*
X117045615Y-80618295D01*
X116972370Y-80520564D01*
X116947522Y-80454059D01*
X116962575Y-80384676D01*
X116972370Y-80369435D01*
X117040229Y-80278891D01*
X117045615Y-80271705D01*
X117096745Y-80135316D01*
X117103500Y-80073134D01*
X117103500Y-79272856D01*
X117104578Y-79256409D01*
X117106092Y-79244908D01*
X117106529Y-79241590D01*
X117108156Y-79175000D01*
X117103924Y-79123524D01*
X117103500Y-79113200D01*
X117103500Y-78276866D01*
X117096745Y-78214684D01*
X117045615Y-78078295D01*
X116995422Y-78011323D01*
X116972058Y-77980148D01*
X116947210Y-77913642D01*
X116962263Y-77844259D01*
X116972058Y-77829018D01*
X117039786Y-77738649D01*
X117048324Y-77723054D01*
X117093478Y-77602606D01*
X117097105Y-77587351D01*
X117102631Y-77536486D01*
X117103000Y-77529672D01*
X117103000Y-76907115D01*
X117098525Y-76891876D01*
X117097135Y-76890671D01*
X117089452Y-76889000D01*
X112605116Y-76889000D01*
X112589877Y-76893475D01*
X112588672Y-76894865D01*
X112587001Y-76902548D01*
X112587001Y-77529669D01*
X112587371Y-77536490D01*
X112592895Y-77587352D01*
X112596521Y-77602604D01*
X112641676Y-77723054D01*
X112650214Y-77738649D01*
X112717942Y-77829018D01*
X112742790Y-77895525D01*
X112727737Y-77964907D01*
X112717942Y-77980148D01*
X112694578Y-78011323D01*
X112644385Y-78078295D01*
X112593255Y-78214684D01*
X112586500Y-78276866D01*
X112586500Y-80073134D01*
X112593255Y-80135316D01*
X112644385Y-80271705D01*
X112649771Y-80278891D01*
X112717630Y-80369435D01*
X112742478Y-80435941D01*
X112727425Y-80505324D01*
X112717632Y-80520562D01*
X112644385Y-80618295D01*
X112593255Y-80754684D01*
X112586500Y-80816866D01*
X112586500Y-82613134D01*
X112593255Y-82675316D01*
X112644385Y-82811705D01*
X112649771Y-82818891D01*
X112717630Y-82909435D01*
X112742478Y-82975941D01*
X112727425Y-83045324D01*
X112717632Y-83060562D01*
X112644385Y-83158295D01*
X112593255Y-83294684D01*
X112586500Y-83356866D01*
X112586500Y-85153134D01*
X112593255Y-85215316D01*
X112644385Y-85351705D01*
X112649771Y-85358891D01*
X112717630Y-85449435D01*
X112742478Y-85515941D01*
X112727425Y-85585324D01*
X112717632Y-85600562D01*
X112644385Y-85698295D01*
X112593255Y-85834684D01*
X112586500Y-85896866D01*
X112586500Y-87693134D01*
X110708500Y-87693134D01*
X110708500Y-77028912D01*
X110708792Y-77020342D01*
X110712209Y-76970224D01*
X110712209Y-76970220D01*
X110712725Y-76962648D01*
X110701739Y-76899703D01*
X110700777Y-76893182D01*
X110694015Y-76837304D01*
X110693102Y-76829758D01*
X110690416Y-76822650D01*
X110689779Y-76820056D01*
X110685318Y-76803750D01*
X110684548Y-76801199D01*
X110683242Y-76793716D01*
X110657561Y-76735212D01*
X110655069Y-76729105D01*
X110635173Y-76676452D01*
X110635173Y-76676451D01*
X110632487Y-76669344D01*
X110628184Y-76663083D01*
X110626947Y-76660717D01*
X110623868Y-76655186D01*
X121709960Y-76655186D01*
X121717418Y-76665554D01*
X121932662Y-76839854D01*
X121937984Y-76843721D01*
X122240823Y-77040387D01*
X122246532Y-77043683D01*
X122568275Y-77207620D01*
X122574286Y-77210296D01*
X122911395Y-77339700D01*
X122917672Y-77341740D01*
X123266463Y-77435198D01*
X123272901Y-77436567D01*
X123629560Y-77493055D01*
X123636104Y-77493743D01*
X123996699Y-77512641D01*
X124003301Y-77512641D01*
X124363896Y-77493743D01*
X124370440Y-77493055D01*
X124727099Y-77436567D01*
X124733537Y-77435198D01*
X125082328Y-77341740D01*
X125088605Y-77339700D01*
X125425714Y-77210296D01*
X125431725Y-77207620D01*
X125753468Y-77043683D01*
X125759177Y-77040387D01*
X126062016Y-76843721D01*
X126067338Y-76839854D01*
X126281634Y-76666322D01*
X126290100Y-76654067D01*
X126283766Y-76642976D01*
X124012812Y-74372022D01*
X123998868Y-74364408D01*
X123997035Y-74364539D01*
X123990420Y-74368790D01*
X121717100Y-76642110D01*
X121709960Y-76655186D01*
X110623868Y-76655186D01*
X110618720Y-76645937D01*
X110617369Y-76643652D01*
X110614315Y-76636695D01*
X110609695Y-76630675D01*
X110609692Y-76630669D01*
X110575421Y-76586009D01*
X110571541Y-76580668D01*
X110539661Y-76534280D01*
X110539656Y-76534275D01*
X110535357Y-76528019D01*
X110488829Y-76486564D01*
X110483554Y-76481584D01*
X108995104Y-74993134D01*
X112586500Y-74993134D01*
X112593255Y-75055316D01*
X112644385Y-75191705D01*
X112649771Y-75198891D01*
X112717942Y-75289852D01*
X112742790Y-75356358D01*
X112727737Y-75425741D01*
X112717942Y-75440982D01*
X112650214Y-75531351D01*
X112641676Y-75546946D01*
X112596522Y-75667394D01*
X112592895Y-75682649D01*
X112587369Y-75733514D01*
X112587000Y-75740328D01*
X112587000Y-76362885D01*
X112591475Y-76378124D01*
X112592865Y-76379329D01*
X112600548Y-76381000D01*
X117084884Y-76381000D01*
X117100123Y-76376525D01*
X117101328Y-76375135D01*
X117102999Y-76367452D01*
X117102999Y-75740331D01*
X117102629Y-75733510D01*
X117097105Y-75682648D01*
X117093479Y-75667396D01*
X117048324Y-75546946D01*
X117039786Y-75531351D01*
X116972058Y-75440982D01*
X116947210Y-75374475D01*
X116962263Y-75305093D01*
X116972058Y-75289852D01*
X117040229Y-75198891D01*
X117045615Y-75191705D01*
X117096745Y-75055316D01*
X117103500Y-74993134D01*
X117103500Y-74192856D01*
X117104578Y-74176409D01*
X117106092Y-74164908D01*
X117106529Y-74161590D01*
X117106895Y-74146601D01*
X117108074Y-74098365D01*
X117108074Y-74098361D01*
X117108156Y-74095000D01*
X117103924Y-74043524D01*
X117103500Y-74033200D01*
X117103500Y-74003301D01*
X120487359Y-74003301D01*
X120506257Y-74363896D01*
X120506945Y-74370440D01*
X120563433Y-74727099D01*
X120564802Y-74733537D01*
X120658260Y-75082328D01*
X120660300Y-75088605D01*
X120789704Y-75425714D01*
X120792380Y-75431725D01*
X120956317Y-75753468D01*
X120959613Y-75759177D01*
X121156279Y-76062016D01*
X121160146Y-76067338D01*
X121333678Y-76281634D01*
X121345933Y-76290100D01*
X121357024Y-76283766D01*
X123627978Y-74012812D01*
X123634356Y-74001132D01*
X124364408Y-74001132D01*
X124364539Y-74002965D01*
X124368790Y-74009580D01*
X126642110Y-76282900D01*
X126655186Y-76290040D01*
X126665554Y-76282582D01*
X126839854Y-76067338D01*
X126843721Y-76062016D01*
X127040387Y-75759177D01*
X127043683Y-75753468D01*
X127207620Y-75431725D01*
X127210296Y-75425714D01*
X127339700Y-75088605D01*
X127341740Y-75082328D01*
X127435198Y-74733537D01*
X127436567Y-74727099D01*
X127493055Y-74370440D01*
X127493743Y-74363896D01*
X127512641Y-74003301D01*
X127512641Y-73996699D01*
X127493743Y-73636104D01*
X127493055Y-73629560D01*
X127436567Y-73272901D01*
X127435198Y-73266463D01*
X127341740Y-72917672D01*
X127339700Y-72911395D01*
X127210296Y-72574286D01*
X127207620Y-72568275D01*
X127043683Y-72246532D01*
X127040387Y-72240823D01*
X126843721Y-71937984D01*
X126839854Y-71932662D01*
X126666322Y-71718366D01*
X126654067Y-71709900D01*
X126642976Y-71716234D01*
X124372022Y-73987188D01*
X124364408Y-74001132D01*
X123634356Y-74001132D01*
X123635592Y-73998868D01*
X123635461Y-73997035D01*
X123631210Y-73990420D01*
X121357890Y-71717100D01*
X121344814Y-71709960D01*
X121334446Y-71717418D01*
X121160146Y-71932662D01*
X121156279Y-71937984D01*
X120959613Y-72240823D01*
X120956317Y-72246532D01*
X120792380Y-72568275D01*
X120789704Y-72574286D01*
X120660300Y-72911395D01*
X120658260Y-72917672D01*
X120564802Y-73266463D01*
X120563433Y-73272901D01*
X120506945Y-73629560D01*
X120506257Y-73636104D01*
X120487359Y-73996699D01*
X120487359Y-74003301D01*
X117103500Y-74003301D01*
X117103500Y-73196866D01*
X117096745Y-73134684D01*
X117045615Y-72998295D01*
X116972370Y-72900564D01*
X116947522Y-72834059D01*
X116962575Y-72764676D01*
X116972370Y-72749435D01*
X117033673Y-72667639D01*
X117045615Y-72651705D01*
X117096745Y-72515316D01*
X117103500Y-72453134D01*
X117103500Y-71652856D01*
X117104578Y-71636409D01*
X117106092Y-71624908D01*
X117106529Y-71621590D01*
X117106895Y-71606601D01*
X117108074Y-71558365D01*
X117108074Y-71558361D01*
X117108156Y-71555000D01*
X117103924Y-71503524D01*
X117103500Y-71493200D01*
X117103500Y-71345933D01*
X121709900Y-71345933D01*
X121716234Y-71357024D01*
X123987188Y-73627978D01*
X124001132Y-73635592D01*
X124002965Y-73635461D01*
X124009580Y-73631210D01*
X126282900Y-71357890D01*
X126290040Y-71344814D01*
X126282582Y-71334446D01*
X126067338Y-71160146D01*
X126062016Y-71156279D01*
X125759177Y-70959613D01*
X125753468Y-70956317D01*
X125431725Y-70792380D01*
X125425714Y-70789704D01*
X125088605Y-70660300D01*
X125082328Y-70658260D01*
X124733537Y-70564802D01*
X124727099Y-70563433D01*
X124370440Y-70506945D01*
X124363896Y-70506257D01*
X124003301Y-70487359D01*
X123996699Y-70487359D01*
X123636104Y-70506257D01*
X123629560Y-70506945D01*
X123272901Y-70563433D01*
X123266463Y-70564802D01*
X122917672Y-70658260D01*
X122911395Y-70660300D01*
X122574286Y-70789704D01*
X122568275Y-70792380D01*
X122246532Y-70956317D01*
X122240823Y-70959613D01*
X121937984Y-71156279D01*
X121932662Y-71160146D01*
X121718366Y-71333678D01*
X121709900Y-71345933D01*
X117103500Y-71345933D01*
X117103500Y-70656866D01*
X117096745Y-70594684D01*
X117045615Y-70458295D01*
X116972370Y-70360564D01*
X116947522Y-70294059D01*
X116962575Y-70224676D01*
X116972370Y-70209435D01*
X117033673Y-70127639D01*
X117045615Y-70111705D01*
X117096745Y-69975316D01*
X117103500Y-69913134D01*
X117103500Y-69112856D01*
X117104578Y-69096409D01*
X117105225Y-69091492D01*
X117106529Y-69081590D01*
X117106611Y-69078240D01*
X117108074Y-69018365D01*
X117108074Y-69018361D01*
X117108156Y-69015000D01*
X117103924Y-68963524D01*
X117103500Y-68953200D01*
X117103500Y-68116866D01*
X117096745Y-68054684D01*
X117045615Y-67918295D01*
X116972370Y-67820564D01*
X116947522Y-67754059D01*
X116962575Y-67684676D01*
X116972370Y-67669435D01*
X117045615Y-67571705D01*
X117096745Y-67435316D01*
X117103500Y-67373134D01*
X117103500Y-66572856D01*
X117104578Y-66556409D01*
X117106092Y-66544908D01*
X117106529Y-66541590D01*
X117107261Y-66511623D01*
X117108074Y-66478365D01*
X117108074Y-66478361D01*
X117108156Y-66475000D01*
X117103924Y-66423524D01*
X117103500Y-66413200D01*
X117103500Y-65576866D01*
X117096745Y-65514684D01*
X117045615Y-65378295D01*
X116972058Y-65280148D01*
X116947210Y-65213642D01*
X116962263Y-65144259D01*
X116972058Y-65129018D01*
X117039786Y-65038649D01*
X117048324Y-65023054D01*
X117093478Y-64902606D01*
X117097105Y-64887351D01*
X117102631Y-64836486D01*
X117103000Y-64829672D01*
X117103000Y-64207115D01*
X117098525Y-64191876D01*
X117097135Y-64190671D01*
X117089452Y-64189000D01*
X112605116Y-64189000D01*
X112589877Y-64193475D01*
X112588672Y-64194865D01*
X112587001Y-64202548D01*
X112587001Y-64829669D01*
X112587371Y-64836490D01*
X112592895Y-64887352D01*
X112596521Y-64902604D01*
X112641676Y-65023054D01*
X112650214Y-65038649D01*
X112717942Y-65129018D01*
X112742790Y-65195525D01*
X112727737Y-65264907D01*
X112717942Y-65280148D01*
X112644385Y-65378295D01*
X112593255Y-65514684D01*
X112586500Y-65576866D01*
X112586500Y-67373134D01*
X112593255Y-67435316D01*
X112644385Y-67571705D01*
X112717630Y-67669435D01*
X112742478Y-67735941D01*
X112727425Y-67805324D01*
X112717632Y-67820562D01*
X112644385Y-67918295D01*
X112593255Y-68054684D01*
X112586500Y-68116866D01*
X112586500Y-69913134D01*
X112593255Y-69975316D01*
X112644385Y-70111705D01*
X112656327Y-70127639D01*
X112717630Y-70209435D01*
X112742478Y-70275941D01*
X112727425Y-70345324D01*
X112717632Y-70360562D01*
X112644385Y-70458295D01*
X112593255Y-70594684D01*
X112586500Y-70656866D01*
X112586500Y-72453134D01*
X112593255Y-72515316D01*
X112644385Y-72651705D01*
X112656327Y-72667639D01*
X112717630Y-72749435D01*
X112742478Y-72815941D01*
X112727425Y-72885324D01*
X112717632Y-72900562D01*
X112644385Y-72998295D01*
X112593255Y-73134684D01*
X112586500Y-73196866D01*
X112586500Y-74993134D01*
X108995104Y-74993134D01*
X105781450Y-71779480D01*
X105775596Y-71773215D01*
X105775201Y-71772762D01*
X105737561Y-71729615D01*
X105685280Y-71692871D01*
X105679986Y-71688939D01*
X105635693Y-71654209D01*
X105629718Y-71649524D01*
X105622802Y-71646401D01*
X105620516Y-71645017D01*
X105605835Y-71636643D01*
X105603475Y-71635378D01*
X105597261Y-71631010D01*
X105590182Y-71628250D01*
X105590180Y-71628249D01*
X105537725Y-71607798D01*
X105531656Y-71605247D01*
X105473427Y-71578955D01*
X105465960Y-71577571D01*
X105463405Y-71576770D01*
X105447152Y-71572141D01*
X105444572Y-71571478D01*
X105437491Y-71568718D01*
X105429960Y-71567727D01*
X105429958Y-71567726D01*
X105400339Y-71563827D01*
X105374139Y-71560378D01*
X105367641Y-71559348D01*
X105304814Y-71547704D01*
X105297234Y-71548141D01*
X105297233Y-71548141D01*
X105242608Y-71551291D01*
X105235354Y-71551500D01*
X104228286Y-71551500D01*
X104160165Y-71531498D01*
X104122494Y-71493941D01*
X104095760Y-71452617D01*
X104080014Y-71428277D01*
X103929670Y-71263051D01*
X103925619Y-71259852D01*
X103925615Y-71259848D01*
X103758414Y-71127800D01*
X103758410Y-71127798D01*
X103754359Y-71124598D01*
X103713053Y-71101796D01*
X103663084Y-71051364D01*
X103648312Y-70981921D01*
X103673428Y-70915516D01*
X103700780Y-70888909D01*
X103750664Y-70853327D01*
X103879860Y-70761173D01*
X103915814Y-70725345D01*
X104018526Y-70622991D01*
X104038096Y-70603489D01*
X104054965Y-70580014D01*
X104165435Y-70426277D01*
X104168453Y-70422077D01*
X104206387Y-70345324D01*
X104265136Y-70226453D01*
X104265137Y-70226451D01*
X104267430Y-70221811D01*
X104332370Y-70008069D01*
X104361529Y-69786590D01*
X104362029Y-69766129D01*
X104363074Y-69723365D01*
X104363074Y-69723361D01*
X104363156Y-69720000D01*
X104344852Y-69497361D01*
X104290431Y-69280702D01*
X104201354Y-69075840D01*
X104137091Y-68976504D01*
X104082822Y-68892617D01*
X104082820Y-68892614D01*
X104080014Y-68888277D01*
X103929670Y-68723051D01*
X103925619Y-68719852D01*
X103925615Y-68719848D01*
X103758414Y-68587800D01*
X103758410Y-68587798D01*
X103754359Y-68584598D01*
X103712569Y-68561529D01*
X103662598Y-68511097D01*
X103647826Y-68441654D01*
X103672942Y-68375248D01*
X103700294Y-68348641D01*
X103875328Y-68223792D01*
X103883200Y-68217139D01*
X104034052Y-68066812D01*
X104040730Y-68058965D01*
X104165003Y-67886020D01*
X104170313Y-67877183D01*
X104264670Y-67686267D01*
X104268469Y-67676672D01*
X104330377Y-67472910D01*
X104332555Y-67462837D01*
X104333986Y-67451962D01*
X104331775Y-67437778D01*
X104318617Y-67434000D01*
X101683225Y-67434000D01*
X101669694Y-67437973D01*
X101668257Y-67447966D01*
X101698565Y-67582446D01*
X101701645Y-67592275D01*
X101781770Y-67789603D01*
X101786413Y-67798794D01*
X101897694Y-67980388D01*
X101903777Y-67988699D01*
X102043213Y-68149667D01*
X102050580Y-68156883D01*
X102214434Y-68292916D01*
X102222881Y-68298831D01*
X102291969Y-68339203D01*
X102340693Y-68390842D01*
X102353764Y-68460625D01*
X102327033Y-68526396D01*
X102286584Y-68559752D01*
X102273607Y-68566507D01*
X102269474Y-68569610D01*
X102269471Y-68569612D01*
X102246969Y-68586507D01*
X102094965Y-68700635D01*
X101940629Y-68862138D01*
X101937715Y-68866410D01*
X101937714Y-68866411D01*
X101878511Y-68953200D01*
X101814743Y-69046680D01*
X101720688Y-69249305D01*
X101660989Y-69464570D01*
X101637251Y-69686695D01*
X101637548Y-69691848D01*
X101637548Y-69691851D01*
X101647851Y-69870535D01*
X101650110Y-69909715D01*
X101651247Y-69914761D01*
X101651248Y-69914767D01*
X101664485Y-69973500D01*
X101699222Y-70127639D01*
X101783266Y-70334616D01*
X101785965Y-70339020D01*
X101895305Y-70517447D01*
X101899987Y-70525088D01*
X102046250Y-70693938D01*
X102218126Y-70836632D01*
X102252352Y-70856632D01*
X102291445Y-70879476D01*
X102340169Y-70931114D01*
X102353240Y-71000897D01*
X102326509Y-71066669D01*
X102286055Y-71100027D01*
X102273607Y-71106507D01*
X102269474Y-71109610D01*
X102269471Y-71109612D01*
X102202166Y-71160146D01*
X102094965Y-71240635D01*
X101940629Y-71402138D01*
X101937715Y-71406410D01*
X101937714Y-71406411D01*
X101878511Y-71493200D01*
X101814743Y-71586680D01*
X101794166Y-71631010D01*
X101725249Y-71779480D01*
X101720688Y-71789305D01*
X101660989Y-72004570D01*
X101637251Y-72226695D01*
X101637548Y-72231848D01*
X101637548Y-72231851D01*
X101643971Y-72343240D01*
X101650110Y-72449715D01*
X101651247Y-72454761D01*
X101651248Y-72454767D01*
X101664894Y-72515316D01*
X101699222Y-72667639D01*
X101783266Y-72874616D01*
X101785965Y-72879020D01*
X101892276Y-73052504D01*
X101899987Y-73065088D01*
X102046250Y-73233938D01*
X102050230Y-73237242D01*
X102054981Y-73241187D01*
X102094616Y-73300090D01*
X102096113Y-73371071D01*
X102058997Y-73431593D01*
X102018724Y-73456112D01*
X101903295Y-73499385D01*
X101786739Y-73586739D01*
X101699385Y-73703295D01*
X101648255Y-73839684D01*
X101641500Y-73901866D01*
X101641500Y-75698134D01*
X101648255Y-75760316D01*
X101699385Y-75896705D01*
X101786739Y-76013261D01*
X101903295Y-76100615D01*
X102039684Y-76151745D01*
X102101866Y-76158500D01*
X103898134Y-76158500D01*
X103960316Y-76151745D01*
X104096705Y-76100615D01*
X104213261Y-76013261D01*
X104300615Y-75896705D01*
X104351745Y-75760316D01*
X104358500Y-75698134D01*
X104358500Y-75664660D01*
X104378502Y-75596539D01*
X104432158Y-75550046D01*
X104502432Y-75539942D01*
X104567012Y-75569436D01*
X104573595Y-75575565D01*
X105953199Y-76955170D01*
X107254595Y-78256566D01*
X107288621Y-78318878D01*
X107291500Y-78345661D01*
X107291500Y-90971088D01*
X107291208Y-90979658D01*
X107287275Y-91037352D01*
X107288580Y-91044829D01*
X107288580Y-91044830D01*
X107298261Y-91100299D01*
X107299223Y-91106821D01*
X107306898Y-91170242D01*
X107309581Y-91177343D01*
X107310222Y-91179952D01*
X107314685Y-91196262D01*
X107315450Y-91198798D01*
X107316757Y-91206284D01*
X107319811Y-91213241D01*
X107342442Y-91264795D01*
X107344933Y-91270899D01*
X107367513Y-91330656D01*
X107371817Y-91336919D01*
X107373054Y-91339285D01*
X107381299Y-91354097D01*
X107382632Y-91356351D01*
X107385685Y-91363305D01*
X107390307Y-91369328D01*
X107424579Y-91413991D01*
X107428459Y-91419332D01*
X107460339Y-91465720D01*
X107460344Y-91465725D01*
X107464643Y-91471981D01*
X107470313Y-91477032D01*
X107470314Y-91477034D01*
X107511170Y-91513435D01*
X107516446Y-91518416D01*
X110893557Y-94895528D01*
X110899411Y-94901793D01*
X110924353Y-94930384D01*
X110937439Y-94945385D01*
X110989729Y-94982136D01*
X110994971Y-94986028D01*
X111045282Y-95025476D01*
X111052201Y-95028600D01*
X111054493Y-95029988D01*
X111069165Y-95038357D01*
X111071525Y-95039622D01*
X111077739Y-95043990D01*
X111084818Y-95046750D01*
X111084820Y-95046751D01*
X111137275Y-95067202D01*
X111143344Y-95069753D01*
X111201573Y-95096045D01*
X111209046Y-95097430D01*
X111211612Y-95098234D01*
X111227835Y-95102855D01*
X111230427Y-95103520D01*
X111237509Y-95106282D01*
X111245044Y-95107274D01*
X111300861Y-95114622D01*
X111307377Y-95115654D01*
X111345770Y-95122770D01*
X111370186Y-95127295D01*
X111377766Y-95126858D01*
X111377767Y-95126858D01*
X111432380Y-95123709D01*
X111439633Y-95123500D01*
X112460500Y-95123500D01*
X112528621Y-95143502D01*
X112575114Y-95197158D01*
X112586500Y-95249500D01*
X112586500Y-95313134D01*
X112593255Y-95375316D01*
X112644385Y-95511705D01*
X112717630Y-95609435D01*
X112742478Y-95675941D01*
X112727425Y-95745324D01*
X112717632Y-95760562D01*
X112644385Y-95858295D01*
X112593255Y-95994684D01*
X112586500Y-96056866D01*
X112586500Y-96165500D01*
X112566498Y-96233621D01*
X112512842Y-96280114D01*
X112460500Y-96291500D01*
X107345660Y-96291500D01*
X107277539Y-96271498D01*
X107256565Y-96254595D01*
X106601450Y-95599480D01*
X106595596Y-95593215D01*
X106595201Y-95592762D01*
X106557561Y-95549615D01*
X106505280Y-95512871D01*
X106499986Y-95508939D01*
X106455693Y-95474209D01*
X106449718Y-95469524D01*
X106442802Y-95466401D01*
X106440516Y-95465017D01*
X106425835Y-95456643D01*
X106423475Y-95455378D01*
X106417261Y-95451010D01*
X106410182Y-95448250D01*
X106410180Y-95448249D01*
X106357725Y-95427798D01*
X106351656Y-95425247D01*
X106293427Y-95398955D01*
X106285960Y-95397571D01*
X106283405Y-95396770D01*
X106267152Y-95392141D01*
X106264572Y-95391478D01*
X106257491Y-95388718D01*
X106249960Y-95387727D01*
X106249958Y-95387726D01*
X106220339Y-95383827D01*
X106194139Y-95380378D01*
X106187641Y-95379348D01*
X106124814Y-95367704D01*
X106117234Y-95368141D01*
X106117233Y-95368141D01*
X106062608Y-95371291D01*
X106055354Y-95371500D01*
X104228286Y-95371500D01*
X104160165Y-95351498D01*
X104122494Y-95313941D01*
X104121972Y-95313134D01*
X104080014Y-95248277D01*
X103929670Y-95083051D01*
X103925619Y-95079852D01*
X103925615Y-95079848D01*
X103758414Y-94947800D01*
X103758410Y-94947798D01*
X103754359Y-94944598D01*
X103713053Y-94921796D01*
X103663084Y-94871364D01*
X103648312Y-94801921D01*
X103673428Y-94735516D01*
X103700780Y-94708909D01*
X103744603Y-94677650D01*
X103879860Y-94581173D01*
X104038096Y-94423489D01*
X104088604Y-94353200D01*
X104165435Y-94246277D01*
X104168453Y-94242077D01*
X104243686Y-94089855D01*
X104265136Y-94046453D01*
X104265137Y-94046451D01*
X104267430Y-94041811D01*
X104332370Y-93828069D01*
X104361529Y-93606590D01*
X104361611Y-93603240D01*
X104363074Y-93543365D01*
X104363074Y-93543361D01*
X104363156Y-93540000D01*
X104344852Y-93317361D01*
X104290431Y-93100702D01*
X104201354Y-92895840D01*
X104121972Y-92773134D01*
X104082822Y-92712617D01*
X104082820Y-92712614D01*
X104080014Y-92708277D01*
X103929670Y-92543051D01*
X103925619Y-92539852D01*
X103925615Y-92539848D01*
X103758414Y-92407800D01*
X103758410Y-92407798D01*
X103754359Y-92404598D01*
X103745418Y-92399662D01*
X103712569Y-92381529D01*
X103662598Y-92331097D01*
X103647826Y-92261654D01*
X103672942Y-92195248D01*
X103700294Y-92168641D01*
X103875328Y-92043792D01*
X103883200Y-92037139D01*
X104034052Y-91886812D01*
X104040730Y-91878965D01*
X104165003Y-91706020D01*
X104170313Y-91697183D01*
X104264670Y-91506267D01*
X104268469Y-91496672D01*
X104330377Y-91292910D01*
X104332555Y-91282837D01*
X104333986Y-91271962D01*
X104331775Y-91257778D01*
X104318617Y-91254000D01*
X101683225Y-91254000D01*
X101669694Y-91257973D01*
X101668257Y-91267966D01*
X101698565Y-91402446D01*
X101701645Y-91412275D01*
X101781770Y-91609603D01*
X101786413Y-91618794D01*
X101897694Y-91800388D01*
X101903777Y-91808699D01*
X102043213Y-91969667D01*
X102050580Y-91976883D01*
X102214434Y-92112916D01*
X102222881Y-92118831D01*
X102291969Y-92159203D01*
X102340693Y-92210842D01*
X102353764Y-92280625D01*
X102327033Y-92346396D01*
X102286584Y-92379752D01*
X102273607Y-92386507D01*
X102269474Y-92389610D01*
X102269471Y-92389612D01*
X102121617Y-92500624D01*
X102094965Y-92520635D01*
X101940629Y-92682138D01*
X101937715Y-92686410D01*
X101937714Y-92686411D01*
X101858263Y-92802882D01*
X101814743Y-92866680D01*
X101791155Y-92917496D01*
X101748071Y-93010314D01*
X101720688Y-93069305D01*
X101660989Y-93284570D01*
X101637251Y-93506695D01*
X101637548Y-93511848D01*
X101637548Y-93511851D01*
X101647618Y-93686498D01*
X101650110Y-93729715D01*
X101651247Y-93734761D01*
X101651248Y-93734767D01*
X101657547Y-93762717D01*
X101699222Y-93947639D01*
X101783266Y-94154616D01*
X101785965Y-94159020D01*
X101897291Y-94340688D01*
X101899987Y-94345088D01*
X102046250Y-94513938D01*
X102218126Y-94656632D01*
X102288595Y-94697811D01*
X102291445Y-94699476D01*
X102340169Y-94751114D01*
X102353240Y-94820897D01*
X102326509Y-94886669D01*
X102286055Y-94920027D01*
X102273607Y-94926507D01*
X102269474Y-94929610D01*
X102269471Y-94929612D01*
X102108899Y-95050173D01*
X102094965Y-95060635D01*
X101940629Y-95222138D01*
X101937715Y-95226410D01*
X101937714Y-95226411D01*
X101858263Y-95342882D01*
X101814743Y-95406680D01*
X101794166Y-95451010D01*
X101725249Y-95599480D01*
X101720688Y-95609305D01*
X101660989Y-95824570D01*
X101637251Y-96046695D01*
X98508500Y-96046695D01*
X98508500Y-90734183D01*
X101664389Y-90734183D01*
X101665912Y-90742607D01*
X101678292Y-90746000D01*
X102727885Y-90746000D01*
X102743124Y-90741525D01*
X102744329Y-90740135D01*
X102746000Y-90732452D01*
X102746000Y-90727885D01*
X103254000Y-90727885D01*
X103258475Y-90743124D01*
X103259865Y-90744329D01*
X103267548Y-90746000D01*
X104318344Y-90746000D01*
X104331875Y-90742027D01*
X104333180Y-90732947D01*
X104291214Y-90565875D01*
X104287894Y-90556124D01*
X104202972Y-90360814D01*
X104198105Y-90351739D01*
X104082426Y-90172926D01*
X104076136Y-90164757D01*
X103932806Y-90007240D01*
X103925273Y-90000215D01*
X103758139Y-89868222D01*
X103749552Y-89862517D01*
X103563117Y-89759599D01*
X103553705Y-89755369D01*
X103352959Y-89684280D01*
X103342988Y-89681646D01*
X103271837Y-89668972D01*
X103258540Y-89670432D01*
X103254000Y-89684989D01*
X103254000Y-90727885D01*
X102746000Y-90727885D01*
X102746000Y-89683102D01*
X102742082Y-89669758D01*
X102727806Y-89667771D01*
X102689324Y-89673660D01*
X102679288Y-89676051D01*
X102476868Y-89742212D01*
X102467359Y-89746209D01*
X102278463Y-89844542D01*
X102269738Y-89850036D01*
X102099433Y-89977905D01*
X102091726Y-89984748D01*
X101944590Y-90138717D01*
X101938104Y-90146727D01*
X101818098Y-90322649D01*
X101813000Y-90331623D01*
X101723338Y-90524783D01*
X101719775Y-90534470D01*
X101664389Y-90734183D01*
X98508500Y-90734183D01*
X98508500Y-66914183D01*
X101664389Y-66914183D01*
X101665912Y-66922607D01*
X101678292Y-66926000D01*
X102727885Y-66926000D01*
X102743124Y-66921525D01*
X102744329Y-66920135D01*
X102746000Y-66912452D01*
X102746000Y-66907885D01*
X103254000Y-66907885D01*
X103258475Y-66923124D01*
X103259865Y-66924329D01*
X103267548Y-66926000D01*
X104318344Y-66926000D01*
X104331875Y-66922027D01*
X104333180Y-66912947D01*
X104291214Y-66745875D01*
X104287894Y-66736124D01*
X104202972Y-66540814D01*
X104198105Y-66531739D01*
X104082426Y-66352926D01*
X104076136Y-66344757D01*
X103932806Y-66187240D01*
X103925273Y-66180215D01*
X103758139Y-66048222D01*
X103749552Y-66042517D01*
X103563117Y-65939599D01*
X103553705Y-65935369D01*
X103352959Y-65864280D01*
X103342988Y-65861646D01*
X103271837Y-65848972D01*
X103258540Y-65850432D01*
X103254000Y-65864989D01*
X103254000Y-66907885D01*
X102746000Y-66907885D01*
X102746000Y-65863102D01*
X102742082Y-65849758D01*
X102727806Y-65847771D01*
X102689324Y-65853660D01*
X102679288Y-65856051D01*
X102476868Y-65922212D01*
X102467359Y-65926209D01*
X102278463Y-66024542D01*
X102269738Y-66030036D01*
X102099433Y-66157905D01*
X102091726Y-66164748D01*
X101944590Y-66318717D01*
X101938104Y-66326727D01*
X101818098Y-66502649D01*
X101813000Y-66511623D01*
X101723338Y-66704783D01*
X101719775Y-66714470D01*
X101664389Y-66914183D01*
X98508500Y-66914183D01*
X98508500Y-62293134D01*
X112586500Y-62293134D01*
X112593255Y-62355316D01*
X112644385Y-62491705D01*
X112649771Y-62498891D01*
X112717942Y-62589852D01*
X112742790Y-62656358D01*
X112727737Y-62725741D01*
X112717942Y-62740982D01*
X112650214Y-62831351D01*
X112641676Y-62846946D01*
X112596522Y-62967394D01*
X112592895Y-62982649D01*
X112587369Y-63033514D01*
X112587000Y-63040328D01*
X112587000Y-63662885D01*
X112591475Y-63678124D01*
X112592865Y-63679329D01*
X112600548Y-63681000D01*
X117084884Y-63681000D01*
X117100123Y-63676525D01*
X117101328Y-63675135D01*
X117102999Y-63667452D01*
X117102999Y-63040331D01*
X117102629Y-63033510D01*
X117097105Y-62982648D01*
X117093479Y-62967396D01*
X117048324Y-62846946D01*
X117039786Y-62831351D01*
X116972058Y-62740982D01*
X116947210Y-62674475D01*
X116962263Y-62605093D01*
X116972058Y-62589852D01*
X117040229Y-62498891D01*
X117045615Y-62491705D01*
X117096745Y-62355316D01*
X117103500Y-62293134D01*
X117103500Y-61492856D01*
X117104578Y-61476409D01*
X117106092Y-61464908D01*
X117106529Y-61461590D01*
X117108156Y-61395000D01*
X117103924Y-61343524D01*
X117103500Y-61333200D01*
X117103500Y-60496866D01*
X117096745Y-60434684D01*
X117045615Y-60298295D01*
X116972370Y-60200564D01*
X116947522Y-60134059D01*
X116962575Y-60064676D01*
X116972370Y-60049435D01*
X117040229Y-59958891D01*
X117045615Y-59951705D01*
X117096745Y-59815316D01*
X117103500Y-59753134D01*
X117103500Y-58952856D01*
X117104578Y-58936409D01*
X117106092Y-58924908D01*
X117106529Y-58921590D01*
X117108156Y-58855000D01*
X117103924Y-58803524D01*
X117103500Y-58793200D01*
X117103500Y-57956866D01*
X117096745Y-57894684D01*
X117045615Y-57758295D01*
X116958261Y-57641739D01*
X116841705Y-57554385D01*
X116705316Y-57503255D01*
X116643134Y-57496500D01*
X115759985Y-57496500D01*
X115758446Y-57496491D01*
X115655081Y-57495228D01*
X115655079Y-57495228D01*
X115649911Y-57495165D01*
X115644797Y-57495948D01*
X115641289Y-57496193D01*
X115632496Y-57496500D01*
X113046866Y-57496500D01*
X112984684Y-57503255D01*
X112848295Y-57554385D01*
X112731739Y-57641739D01*
X112644385Y-57758295D01*
X112593255Y-57894684D01*
X112586500Y-57956866D01*
X112586500Y-59753134D01*
X112593255Y-59815316D01*
X112644385Y-59951705D01*
X112649771Y-59958891D01*
X112717630Y-60049435D01*
X112742478Y-60115941D01*
X112727425Y-60185324D01*
X112717632Y-60200562D01*
X112644385Y-60298295D01*
X112593255Y-60434684D01*
X112586500Y-60496866D01*
X112586500Y-62293134D01*
X98508500Y-62293134D01*
X98508500Y-58303122D01*
X98528502Y-58235001D01*
X98582158Y-58188508D01*
X98652432Y-58178404D01*
X98717012Y-58207898D01*
X98747213Y-58246803D01*
X98772161Y-58296731D01*
X98794231Y-58340901D01*
X99018974Y-58705502D01*
X99275239Y-59048682D01*
X99277100Y-59050760D01*
X99277101Y-59050761D01*
X99559127Y-59365637D01*
X99559133Y-59365643D01*
X99560995Y-59367722D01*
X99873981Y-59660098D01*
X100211719Y-59923493D01*
X100571533Y-60155822D01*
X100574012Y-60157126D01*
X100574015Y-60157128D01*
X100948077Y-60353932D01*
X100948083Y-60353935D01*
X100950577Y-60355247D01*
X100953175Y-60356331D01*
X100953179Y-60356333D01*
X101343263Y-60519109D01*
X101343268Y-60519111D01*
X101345847Y-60520187D01*
X101348512Y-60521030D01*
X101348518Y-60521032D01*
X101570561Y-60591254D01*
X101754214Y-60649336D01*
X102172446Y-60741673D01*
X102175220Y-60742031D01*
X102175221Y-60742031D01*
X102594460Y-60796109D01*
X102594467Y-60796110D01*
X102597230Y-60796466D01*
X102600017Y-60796576D01*
X102600023Y-60796576D01*
X102848238Y-60806328D01*
X103025203Y-60813281D01*
X103027995Y-60813142D01*
X103028000Y-60813142D01*
X103450172Y-60792125D01*
X103450181Y-60792124D01*
X103452976Y-60791985D01*
X103455753Y-60791597D01*
X103455755Y-60791597D01*
X103530066Y-60781219D01*
X103877163Y-60732747D01*
X104294404Y-60636036D01*
X104508307Y-60565915D01*
X104698744Y-60503487D01*
X104698750Y-60503485D01*
X104701397Y-60502617D01*
X105094918Y-60333547D01*
X105471852Y-60130164D01*
X105829214Y-59894080D01*
X106164175Y-59627162D01*
X106474082Y-59331525D01*
X106475919Y-59329431D01*
X106475927Y-59329422D01*
X106754635Y-59011616D01*
X106756482Y-59009510D01*
X106803905Y-58944597D01*
X107007490Y-58665923D01*
X107009139Y-58663666D01*
X107010585Y-58661265D01*
X107228601Y-58299142D01*
X107228606Y-58299133D01*
X107230052Y-58296731D01*
X107417471Y-57911611D01*
X107517521Y-57648919D01*
X107568918Y-57513971D01*
X107568920Y-57513964D01*
X107569914Y-57511355D01*
X107686173Y-57099132D01*
X107693211Y-57061707D01*
X107764811Y-56680954D01*
X107764813Y-56680942D01*
X107765327Y-56678207D01*
X107806750Y-56251911D01*
X107808194Y-56196780D01*
X107813289Y-56002234D01*
X107813289Y-56002220D01*
X107813347Y-56000000D01*
X107794291Y-55572121D01*
X107776765Y-55441634D01*
X107768925Y-55383270D01*
X107737275Y-55147630D01*
X107730759Y-55118831D01*
X107643368Y-54732618D01*
X107643368Y-54732617D01*
X107642750Y-54729887D01*
X107602901Y-54606143D01*
X107512318Y-54324856D01*
X107512316Y-54324849D01*
X107511463Y-54322202D01*
X107488497Y-54267966D01*
X111128257Y-54267966D01*
X111158565Y-54402446D01*
X111161645Y-54412275D01*
X111241770Y-54609603D01*
X111246413Y-54618794D01*
X111357694Y-54800388D01*
X111363777Y-54808699D01*
X111503213Y-54969667D01*
X111510580Y-54976883D01*
X111674434Y-55112916D01*
X111682881Y-55118831D01*
X111866756Y-55226279D01*
X111876042Y-55230729D01*
X112075001Y-55306703D01*
X112084899Y-55309579D01*
X112188250Y-55330606D01*
X112202299Y-55329410D01*
X112206000Y-55319065D01*
X112206000Y-55318517D01*
X112714000Y-55318517D01*
X112718064Y-55332359D01*
X112731478Y-55334393D01*
X112738184Y-55333534D01*
X112748262Y-55331392D01*
X112952255Y-55270191D01*
X112961842Y-55266433D01*
X113153095Y-55172739D01*
X113161945Y-55167464D01*
X113335328Y-55043792D01*
X113343193Y-55037145D01*
X113447897Y-54932805D01*
X113510268Y-54898889D01*
X113581075Y-54904077D01*
X113637837Y-54946723D01*
X113654819Y-54977826D01*
X113699385Y-55096705D01*
X113786739Y-55213261D01*
X113903295Y-55300615D01*
X114039684Y-55351745D01*
X114101866Y-55358500D01*
X115898134Y-55358500D01*
X115960316Y-55351745D01*
X116096705Y-55300615D01*
X116213261Y-55213261D01*
X116300615Y-55096705D01*
X116340516Y-54990270D01*
X116383158Y-54933506D01*
X116449719Y-54908806D01*
X116458498Y-54908500D01*
X121571497Y-54908500D01*
X121639618Y-54928502D01*
X121660592Y-54945405D01*
X124054595Y-57339408D01*
X124088621Y-57401720D01*
X124091500Y-57428503D01*
X124091500Y-65918583D01*
X124089949Y-65938292D01*
X124087748Y-65952190D01*
X124088093Y-65958777D01*
X124088093Y-65958782D01*
X124091327Y-66020480D01*
X124091500Y-66027074D01*
X124091500Y-66047610D01*
X124091844Y-66050882D01*
X124091844Y-66050884D01*
X124093647Y-66068042D01*
X124094164Y-66074616D01*
X124095291Y-66096109D01*
X124097743Y-66142903D01*
X124099453Y-66149284D01*
X124099453Y-66149286D01*
X124101383Y-66156491D01*
X124104985Y-66175925D01*
X124105766Y-66183354D01*
X124105768Y-66183363D01*
X124106458Y-66189928D01*
X124127600Y-66254997D01*
X124129467Y-66261299D01*
X124147171Y-66327370D01*
X124153559Y-66339907D01*
X124161125Y-66358173D01*
X124165473Y-66371556D01*
X124168776Y-66377278D01*
X124168777Y-66377279D01*
X124199667Y-66430782D01*
X124202806Y-66436562D01*
X124233871Y-66497530D01*
X124238024Y-66502658D01*
X124238025Y-66502660D01*
X124242727Y-66508466D01*
X124253927Y-66524763D01*
X124257657Y-66531224D01*
X124257660Y-66531228D01*
X124260960Y-66536944D01*
X124265377Y-66541850D01*
X124265381Y-66541855D01*
X124306722Y-66587769D01*
X124311006Y-66592784D01*
X124323928Y-66608741D01*
X124338443Y-66623256D01*
X124342984Y-66628041D01*
X124388747Y-66678866D01*
X124394086Y-66682745D01*
X124394087Y-66682746D01*
X124400135Y-66687140D01*
X124415168Y-66699981D01*
X127300019Y-69584832D01*
X127312860Y-69599865D01*
X127321134Y-69611253D01*
X127326043Y-69615673D01*
X127371959Y-69657016D01*
X127376744Y-69661557D01*
X127391259Y-69676072D01*
X127393823Y-69678148D01*
X127407216Y-69688994D01*
X127412231Y-69693278D01*
X127458145Y-69734619D01*
X127458150Y-69734623D01*
X127463056Y-69739040D01*
X127468772Y-69742340D01*
X127468776Y-69742343D01*
X127475237Y-69746073D01*
X127491533Y-69757273D01*
X127502470Y-69766129D01*
X127508348Y-69769124D01*
X127508351Y-69769126D01*
X127563426Y-69797188D01*
X127569223Y-69800336D01*
X127622723Y-69831224D01*
X127628444Y-69834527D01*
X127641826Y-69838875D01*
X127660085Y-69846438D01*
X127672630Y-69852830D01*
X127679000Y-69854537D01*
X127679003Y-69854538D01*
X127718074Y-69865007D01*
X127738712Y-69870537D01*
X127745025Y-69872407D01*
X127810072Y-69893542D01*
X127824075Y-69895014D01*
X127843504Y-69898615D01*
X127857097Y-69902257D01*
X127863694Y-69902603D01*
X127863696Y-69902603D01*
X127925384Y-69905836D01*
X127931958Y-69906353D01*
X127949116Y-69908156D01*
X127949118Y-69908156D01*
X127952390Y-69908500D01*
X127972926Y-69908500D01*
X127979520Y-69908673D01*
X128041218Y-69911907D01*
X128041223Y-69911907D01*
X128047810Y-69912252D01*
X128054326Y-69911220D01*
X128054327Y-69911220D01*
X128061707Y-69910051D01*
X128081417Y-69908500D01*
X129900500Y-69908500D01*
X129968621Y-69928502D01*
X130015114Y-69982158D01*
X130026500Y-70034500D01*
X130026500Y-101565786D01*
X130006498Y-101633907D01*
X129989595Y-101654881D01*
X121548252Y-110096224D01*
X121545730Y-110098678D01*
X121485678Y-110155466D01*
X121452624Y-110202672D01*
X121447084Y-110209998D01*
X121410672Y-110254643D01*
X121407715Y-110260300D01*
X121407714Y-110260301D01*
X121398059Y-110278770D01*
X121389609Y-110292668D01*
X121373989Y-110314975D01*
X121371455Y-110320831D01*
X121351117Y-110367828D01*
X121347142Y-110376162D01*
X121342164Y-110385685D01*
X121320456Y-110427208D01*
X121312948Y-110453394D01*
X121307472Y-110468688D01*
X121296655Y-110493684D01*
X121295350Y-110499929D01*
X121295350Y-110499930D01*
X121284876Y-110550065D01*
X121282661Y-110559015D01*
X121266784Y-110614389D01*
X121266295Y-110620750D01*
X121264695Y-110641541D01*
X121262405Y-110657633D01*
X121256835Y-110684293D01*
X121256500Y-110690685D01*
X121256500Y-110743197D01*
X121256129Y-110752863D01*
X121251845Y-110808539D01*
X121252645Y-110814871D01*
X121255506Y-110837519D01*
X121256500Y-110853311D01*
X121256500Y-112932504D01*
X121236498Y-113000625D01*
X121182842Y-113047118D01*
X121112568Y-113057222D01*
X121047988Y-113027728D01*
X121012518Y-112976733D01*
X120978768Y-112886705D01*
X120978767Y-112886703D01*
X120975615Y-112878295D01*
X120888261Y-112761739D01*
X120771705Y-112674385D01*
X120635316Y-112623255D01*
X120573134Y-112616500D01*
X118776866Y-112616500D01*
X118714684Y-112623255D01*
X118578295Y-112674385D01*
X118461739Y-112761739D01*
X118374385Y-112878295D01*
X118323255Y-113014684D01*
X118316500Y-113076866D01*
X118316500Y-114873134D01*
X118323255Y-114935316D01*
X118374385Y-115071705D01*
X118461739Y-115188261D01*
X118578295Y-115275615D01*
X118714684Y-115326745D01*
X118776866Y-115333500D01*
X120573134Y-115333500D01*
X120635316Y-115326745D01*
X120771705Y-115275615D01*
X120888261Y-115188261D01*
X120975615Y-115071705D01*
X120997799Y-115012529D01*
X121019598Y-114954382D01*
X121062240Y-114897618D01*
X121128802Y-114872918D01*
X121198150Y-114888126D01*
X121232817Y-114916114D01*
X121261250Y-114948938D01*
X121433126Y-115091632D01*
X121626000Y-115204338D01*
X121834692Y-115284030D01*
X121839760Y-115285061D01*
X121839763Y-115285062D01*
X121934862Y-115304410D01*
X122053597Y-115328567D01*
X122058772Y-115328757D01*
X122058774Y-115328757D01*
X122271673Y-115336564D01*
X122271677Y-115336564D01*
X122276837Y-115336753D01*
X122281957Y-115336097D01*
X122281959Y-115336097D01*
X122493288Y-115309025D01*
X122493289Y-115309025D01*
X122498416Y-115308368D01*
X122503366Y-115306883D01*
X122707429Y-115245661D01*
X122707434Y-115245659D01*
X122712384Y-115244174D01*
X122912994Y-115145896D01*
X123094860Y-115016173D01*
X123253096Y-114858489D01*
X123282961Y-114816928D01*
X123383453Y-114677077D01*
X123384640Y-114677930D01*
X123431960Y-114634362D01*
X123501897Y-114622145D01*
X123567338Y-114649678D01*
X123595166Y-114681511D01*
X123652694Y-114775388D01*
X123658777Y-114783699D01*
X123798213Y-114944667D01*
X123805580Y-114951883D01*
X123969434Y-115087916D01*
X123977881Y-115093831D01*
X124161756Y-115201279D01*
X124171042Y-115205729D01*
X124370001Y-115281703D01*
X124379899Y-115284579D01*
X124483250Y-115305606D01*
X124497299Y-115304410D01*
X124501000Y-115294065D01*
X124501000Y-115293517D01*
X125009000Y-115293517D01*
X125013064Y-115307359D01*
X125026478Y-115309393D01*
X125033184Y-115308534D01*
X125043262Y-115306392D01*
X125247255Y-115245191D01*
X125256842Y-115241433D01*
X125448095Y-115147739D01*
X125456945Y-115142464D01*
X125630328Y-115018792D01*
X125638200Y-115012139D01*
X125789052Y-114861812D01*
X125795730Y-114853965D01*
X125923022Y-114676819D01*
X125924279Y-114677722D01*
X125971373Y-114634362D01*
X126041311Y-114622145D01*
X126106751Y-114649678D01*
X126134579Y-114681511D01*
X126194987Y-114780088D01*
X126341250Y-114948938D01*
X126513126Y-115091632D01*
X126706000Y-115204338D01*
X126914692Y-115284030D01*
X126919760Y-115285061D01*
X126919763Y-115285062D01*
X127014862Y-115304410D01*
X127133597Y-115328567D01*
X127138772Y-115328757D01*
X127138774Y-115328757D01*
X127351673Y-115336564D01*
X127351677Y-115336564D01*
X127356837Y-115336753D01*
X127361957Y-115336097D01*
X127361959Y-115336097D01*
X127573288Y-115309025D01*
X127573289Y-115309025D01*
X127578416Y-115308368D01*
X127583366Y-115306883D01*
X127787429Y-115245661D01*
X127787434Y-115245659D01*
X127792384Y-115244174D01*
X127992994Y-115145896D01*
X128174860Y-115016173D01*
X128333096Y-114858489D01*
X128362961Y-114816928D01*
X128463453Y-114677077D01*
X128464776Y-114678028D01*
X128511645Y-114634857D01*
X128581580Y-114622625D01*
X128647026Y-114650144D01*
X128674875Y-114681994D01*
X128734987Y-114780088D01*
X128881250Y-114948938D01*
X129053126Y-115091632D01*
X129246000Y-115204338D01*
X129454692Y-115284030D01*
X129459760Y-115285061D01*
X129459763Y-115285062D01*
X129554862Y-115304410D01*
X129673597Y-115328567D01*
X129678772Y-115328757D01*
X129678774Y-115328757D01*
X129891673Y-115336564D01*
X129891677Y-115336564D01*
X129896837Y-115336753D01*
X129901957Y-115336097D01*
X129901959Y-115336097D01*
X130113288Y-115309025D01*
X130113289Y-115309025D01*
X130118416Y-115308368D01*
X130123366Y-115306883D01*
X130327429Y-115245661D01*
X130327434Y-115245659D01*
X130332384Y-115244174D01*
X130532994Y-115145896D01*
X130714860Y-115016173D01*
X130873096Y-114858489D01*
X130902961Y-114816928D01*
X131003453Y-114677077D01*
X131004776Y-114678028D01*
X131051645Y-114634857D01*
X131121580Y-114622625D01*
X131187026Y-114650144D01*
X131214875Y-114681994D01*
X131274987Y-114780088D01*
X131421250Y-114948938D01*
X131593126Y-115091632D01*
X131786000Y-115204338D01*
X131994692Y-115284030D01*
X131999760Y-115285061D01*
X131999763Y-115285062D01*
X132094862Y-115304410D01*
X132213597Y-115328567D01*
X132218772Y-115328757D01*
X132218774Y-115328757D01*
X132431673Y-115336564D01*
X132431677Y-115336564D01*
X132436837Y-115336753D01*
X132441957Y-115336097D01*
X132441959Y-115336097D01*
X132653288Y-115309025D01*
X132653289Y-115309025D01*
X132658416Y-115308368D01*
X132663366Y-115306883D01*
X132867429Y-115245661D01*
X132867434Y-115245659D01*
X132872384Y-115244174D01*
X133072994Y-115145896D01*
X133254860Y-115016173D01*
X133413096Y-114858489D01*
X133442961Y-114816928D01*
X133540435Y-114681277D01*
X133543453Y-114677077D01*
X133556995Y-114649678D01*
X133640136Y-114481453D01*
X133640137Y-114481451D01*
X133642430Y-114476811D01*
X133707370Y-114263069D01*
X133736529Y-114041590D01*
X133737855Y-113987332D01*
X133738074Y-113978365D01*
X133738074Y-113978361D01*
X133738156Y-113975000D01*
X133719852Y-113752361D01*
X133665431Y-113535702D01*
X133576354Y-113330840D01*
X133455014Y-113143277D01*
X133304670Y-112978051D01*
X133300619Y-112974852D01*
X133300615Y-112974848D01*
X133133414Y-112842800D01*
X133133410Y-112842798D01*
X133129359Y-112839598D01*
X133093028Y-112819542D01*
X133027371Y-112783298D01*
X132933789Y-112731638D01*
X132928920Y-112729914D01*
X132928916Y-112729912D01*
X132728087Y-112658795D01*
X132728083Y-112658794D01*
X132723212Y-112657069D01*
X132718119Y-112656162D01*
X132718116Y-112656161D01*
X132508373Y-112618800D01*
X132508367Y-112618799D01*
X132503284Y-112617894D01*
X132429452Y-112616992D01*
X132285081Y-112615228D01*
X132285079Y-112615228D01*
X132279911Y-112615165D01*
X132059091Y-112648955D01*
X131846756Y-112718357D01*
X131648607Y-112821507D01*
X131644474Y-112824610D01*
X131644471Y-112824612D01*
X131474100Y-112952530D01*
X131469965Y-112955635D01*
X131315629Y-113117138D01*
X131208201Y-113274621D01*
X131153293Y-113319621D01*
X131082768Y-113327792D01*
X131019021Y-113296538D01*
X130998324Y-113272054D01*
X130917822Y-113147617D01*
X130917820Y-113147614D01*
X130915014Y-113143277D01*
X130764670Y-112978051D01*
X130760619Y-112974852D01*
X130760615Y-112974848D01*
X130591408Y-112841216D01*
X130550345Y-112783298D01*
X130543500Y-112742334D01*
X130543500Y-112510660D01*
X130563502Y-112442539D01*
X130580405Y-112421565D01*
X131256565Y-111745405D01*
X131318877Y-111711379D01*
X131345660Y-111708500D01*
X135971088Y-111708500D01*
X135979658Y-111708792D01*
X136029776Y-111712209D01*
X136029780Y-111712209D01*
X136037352Y-111712725D01*
X136044829Y-111711420D01*
X136044830Y-111711420D01*
X136071308Y-111706799D01*
X136100303Y-111701738D01*
X136106821Y-111700777D01*
X136170242Y-111693102D01*
X136177343Y-111690419D01*
X136179952Y-111689778D01*
X136196262Y-111685315D01*
X136198798Y-111684550D01*
X136206284Y-111683243D01*
X136264800Y-111657556D01*
X136270904Y-111655065D01*
X136323548Y-111635173D01*
X136323549Y-111635172D01*
X136330656Y-111632487D01*
X136336919Y-111628183D01*
X136339285Y-111626946D01*
X136354097Y-111618701D01*
X136356351Y-111617368D01*
X136363305Y-111614315D01*
X136414002Y-111575413D01*
X136419332Y-111571541D01*
X136465720Y-111539661D01*
X136465725Y-111539656D01*
X136471981Y-111535357D01*
X136478974Y-111527509D01*
X136513435Y-111488830D01*
X136518416Y-111483554D01*
X138480528Y-109521443D01*
X138486793Y-109515589D01*
X138524664Y-109482552D01*
X138524665Y-109482551D01*
X138530385Y-109477561D01*
X138567136Y-109425271D01*
X138571028Y-109420029D01*
X138610476Y-109369718D01*
X138613600Y-109362799D01*
X138614988Y-109360507D01*
X138623357Y-109345835D01*
X138624622Y-109343475D01*
X138628990Y-109337261D01*
X138652203Y-109277723D01*
X138654759Y-109271642D01*
X138677918Y-109220352D01*
X138681045Y-109213427D01*
X138682430Y-109205954D01*
X138683234Y-109203388D01*
X138687855Y-109187165D01*
X138688520Y-109184573D01*
X138691282Y-109177491D01*
X138699622Y-109114139D01*
X138700654Y-109107623D01*
X138710911Y-109052281D01*
X138712295Y-109044814D01*
X138708709Y-108982620D01*
X138708500Y-108975367D01*
X138708500Y-106028912D01*
X138708792Y-106020342D01*
X138712209Y-105970224D01*
X138712209Y-105970220D01*
X138712725Y-105962648D01*
X138701739Y-105899703D01*
X138700777Y-105893182D01*
X138694015Y-105837304D01*
X138693102Y-105829758D01*
X138690416Y-105822650D01*
X138689779Y-105820056D01*
X138685318Y-105803750D01*
X138684548Y-105801199D01*
X138683242Y-105793716D01*
X138679274Y-105784676D01*
X138657561Y-105735212D01*
X138655069Y-105729105D01*
X138635173Y-105676452D01*
X138635173Y-105676451D01*
X138632487Y-105669344D01*
X138628184Y-105663083D01*
X138626947Y-105660717D01*
X138618720Y-105645937D01*
X138617369Y-105643652D01*
X138614315Y-105636695D01*
X138609695Y-105630675D01*
X138609692Y-105630669D01*
X138575421Y-105586009D01*
X138571541Y-105580668D01*
X138539661Y-105534280D01*
X138539656Y-105534275D01*
X138535357Y-105528019D01*
X138488829Y-105486564D01*
X138483554Y-105481584D01*
X137096450Y-104094480D01*
X137090596Y-104088215D01*
X137090201Y-104087762D01*
X137052561Y-104044615D01*
X137000280Y-104007871D01*
X136994986Y-104003939D01*
X136950693Y-103969209D01*
X136944718Y-103964524D01*
X136937802Y-103961401D01*
X136935516Y-103960017D01*
X136920835Y-103951643D01*
X136918475Y-103950378D01*
X136912261Y-103946010D01*
X136905182Y-103943250D01*
X136905180Y-103943249D01*
X136852725Y-103922798D01*
X136846656Y-103920247D01*
X136788427Y-103893955D01*
X136780959Y-103892571D01*
X136773708Y-103890298D01*
X136774570Y-103887546D01*
X136723187Y-103861508D01*
X136687262Y-103800272D01*
X136683500Y-103769714D01*
X136683500Y-103676866D01*
X136676745Y-103614684D01*
X136625615Y-103478295D01*
X136552058Y-103380148D01*
X136527210Y-103313642D01*
X136542263Y-103244259D01*
X136552058Y-103229018D01*
X136619786Y-103138649D01*
X136628324Y-103123054D01*
X136673478Y-103002606D01*
X136677105Y-102987351D01*
X136682631Y-102936486D01*
X136683000Y-102929672D01*
X136683000Y-102307115D01*
X136678525Y-102291876D01*
X136677135Y-102290671D01*
X136669452Y-102289000D01*
X132185116Y-102289000D01*
X132169877Y-102293475D01*
X132168672Y-102294865D01*
X132167001Y-102302548D01*
X132167001Y-102929669D01*
X132167371Y-102936490D01*
X132172895Y-102987352D01*
X132176521Y-103002604D01*
X132221676Y-103123054D01*
X132230214Y-103138649D01*
X132297942Y-103229018D01*
X132322790Y-103295525D01*
X132307737Y-103364907D01*
X132297942Y-103380148D01*
X132224385Y-103478295D01*
X132173255Y-103614684D01*
X132166500Y-103676866D01*
X132166500Y-104495219D01*
X132165787Y-104508607D01*
X132162251Y-104541695D01*
X132162548Y-104546848D01*
X132162548Y-104546851D01*
X132166291Y-104611763D01*
X132166500Y-104619016D01*
X132166500Y-105473134D01*
X132173255Y-105535316D01*
X132224385Y-105671705D01*
X132297630Y-105769435D01*
X132322478Y-105835941D01*
X132307425Y-105905324D01*
X132297632Y-105920562D01*
X132224385Y-106018295D01*
X132173255Y-106154684D01*
X132166500Y-106216866D01*
X132166500Y-106280500D01*
X132146498Y-106348621D01*
X132092842Y-106395114D01*
X132040500Y-106406500D01*
X131913912Y-106406500D01*
X131905342Y-106406208D01*
X131855224Y-106402791D01*
X131855220Y-106402791D01*
X131847648Y-106402275D01*
X131840171Y-106403580D01*
X131840170Y-106403580D01*
X131825113Y-106406208D01*
X131784703Y-106413261D01*
X131778186Y-106414222D01*
X131714758Y-106421898D01*
X131707650Y-106424584D01*
X131705056Y-106425221D01*
X131688750Y-106429682D01*
X131686199Y-106430452D01*
X131678716Y-106431758D01*
X131671764Y-106434810D01*
X131671763Y-106434810D01*
X131620212Y-106457439D01*
X131614105Y-106459931D01*
X131561452Y-106479827D01*
X131554344Y-106482513D01*
X131548083Y-106486816D01*
X131545717Y-106488053D01*
X131530937Y-106496280D01*
X131528652Y-106497631D01*
X131521695Y-106500685D01*
X131515675Y-106505305D01*
X131515669Y-106505308D01*
X131484542Y-106529194D01*
X131470998Y-106539587D01*
X131465668Y-106543459D01*
X131419280Y-106575339D01*
X131419275Y-106575344D01*
X131413019Y-106579643D01*
X131407968Y-106585313D01*
X131407966Y-106585314D01*
X131371565Y-106626170D01*
X131366584Y-106631446D01*
X126814480Y-111183550D01*
X126808215Y-111189404D01*
X126764615Y-111227439D01*
X126751371Y-111246284D01*
X126727872Y-111279719D01*
X126723939Y-111285014D01*
X126684524Y-111335282D01*
X126681401Y-111342198D01*
X126680017Y-111344484D01*
X126671643Y-111359165D01*
X126670378Y-111361525D01*
X126666010Y-111367739D01*
X126663250Y-111374818D01*
X126663249Y-111374820D01*
X126642798Y-111427275D01*
X126640247Y-111433344D01*
X126613955Y-111491573D01*
X126612571Y-111499040D01*
X126611770Y-111501595D01*
X126607141Y-111517848D01*
X126606478Y-111520428D01*
X126603718Y-111527509D01*
X126602727Y-111535040D01*
X126602726Y-111535042D01*
X126595379Y-111590852D01*
X126594348Y-111597359D01*
X126582704Y-111660186D01*
X126583141Y-111667766D01*
X126583141Y-111667767D01*
X126586291Y-111722392D01*
X126586500Y-111729646D01*
X126586500Y-112745114D01*
X126566498Y-112813235D01*
X126536153Y-112845874D01*
X126394491Y-112952237D01*
X126389965Y-112955635D01*
X126235629Y-113117138D01*
X126232720Y-113121403D01*
X126232714Y-113121411D01*
X126214627Y-113147926D01*
X126128204Y-113274618D01*
X126127898Y-113275066D01*
X126072987Y-113320069D01*
X126002462Y-113328240D01*
X125938715Y-113296986D01*
X125918018Y-113272502D01*
X125837426Y-113147926D01*
X125831136Y-113139757D01*
X125687806Y-112982240D01*
X125680273Y-112975215D01*
X125513139Y-112843222D01*
X125504552Y-112837517D01*
X125318117Y-112734599D01*
X125308705Y-112730369D01*
X125107959Y-112659280D01*
X125097988Y-112656646D01*
X125026837Y-112643972D01*
X125013540Y-112645432D01*
X125009000Y-112659989D01*
X125009000Y-115293517D01*
X124501000Y-115293517D01*
X124501000Y-112658102D01*
X124497082Y-112644758D01*
X124482806Y-112642771D01*
X124444324Y-112648660D01*
X124434288Y-112651051D01*
X124231868Y-112717212D01*
X124222359Y-112721209D01*
X124033463Y-112819542D01*
X124024738Y-112825036D01*
X123854433Y-112952905D01*
X123846726Y-112959748D01*
X123699590Y-113113717D01*
X123693109Y-113121722D01*
X123588498Y-113275074D01*
X123533587Y-113320076D01*
X123463062Y-113328247D01*
X123399315Y-113296993D01*
X123378618Y-113272509D01*
X123297824Y-113147620D01*
X123297822Y-113147617D01*
X123295014Y-113143277D01*
X123206306Y-113045788D01*
X123175254Y-112981943D01*
X123173500Y-112960989D01*
X123173500Y-111234214D01*
X123193502Y-111166093D01*
X123210405Y-111145119D01*
X131651748Y-102703776D01*
X131654270Y-102701322D01*
X131709688Y-102648916D01*
X131714322Y-102644534D01*
X131747376Y-102597328D01*
X131752916Y-102590002D01*
X131789328Y-102545357D01*
X131801941Y-102521230D01*
X131810391Y-102507332D01*
X131822350Y-102490253D01*
X131826011Y-102485025D01*
X131848883Y-102432172D01*
X131852858Y-102423838D01*
X131876589Y-102378444D01*
X131879544Y-102372792D01*
X131887052Y-102346606D01*
X131892528Y-102331312D01*
X131903345Y-102306316D01*
X131906614Y-102290671D01*
X131915124Y-102249935D01*
X131917341Y-102240975D01*
X131933216Y-102185611D01*
X131935305Y-102158456D01*
X131937595Y-102142367D01*
X131943165Y-102115707D01*
X131943500Y-102109315D01*
X131943500Y-102056803D01*
X131943871Y-102047136D01*
X131947666Y-101997821D01*
X131947666Y-101997817D01*
X131948155Y-101991461D01*
X131944494Y-101962480D01*
X131943500Y-101946689D01*
X131943500Y-101856485D01*
X131963502Y-101788364D01*
X132017158Y-101741871D01*
X132087432Y-101731767D01*
X132152012Y-101761260D01*
X132172865Y-101779329D01*
X132180548Y-101781000D01*
X136664884Y-101781000D01*
X136680123Y-101776525D01*
X136681328Y-101775135D01*
X136682999Y-101767452D01*
X136682999Y-101140331D01*
X136682629Y-101133510D01*
X136677105Y-101082648D01*
X136673479Y-101067396D01*
X136628324Y-100946946D01*
X136619786Y-100931351D01*
X136552058Y-100840982D01*
X136527210Y-100774475D01*
X136542263Y-100705093D01*
X136552058Y-100689852D01*
X136620229Y-100598891D01*
X136625615Y-100591705D01*
X136676745Y-100455316D01*
X136683500Y-100393134D01*
X136683500Y-100329500D01*
X136703502Y-100261379D01*
X136757158Y-100214886D01*
X136809500Y-100203500D01*
X138476088Y-100203500D01*
X138484658Y-100203792D01*
X138534776Y-100207209D01*
X138534780Y-100207209D01*
X138542352Y-100207725D01*
X138549829Y-100206420D01*
X138549830Y-100206420D01*
X138576308Y-100201799D01*
X138605303Y-100196738D01*
X138611821Y-100195777D01*
X138675242Y-100188102D01*
X138682343Y-100185419D01*
X138684952Y-100184778D01*
X138701262Y-100180315D01*
X138703798Y-100179550D01*
X138711284Y-100178243D01*
X138769800Y-100152556D01*
X138775904Y-100150065D01*
X138828548Y-100130173D01*
X138828549Y-100130172D01*
X138835656Y-100127487D01*
X138841919Y-100123183D01*
X138844285Y-100121946D01*
X138859097Y-100113701D01*
X138861351Y-100112368D01*
X138868305Y-100109315D01*
X138919002Y-100070413D01*
X138924332Y-100066541D01*
X138970720Y-100034661D01*
X138970725Y-100034656D01*
X138976981Y-100030357D01*
X138997571Y-100007248D01*
X139018435Y-99983830D01*
X139023416Y-99978554D01*
X140114004Y-98887966D01*
X145668257Y-98887966D01*
X145698565Y-99022446D01*
X145701645Y-99032275D01*
X145781770Y-99229603D01*
X145786413Y-99238794D01*
X145897694Y-99420388D01*
X145903777Y-99428699D01*
X146043213Y-99589667D01*
X146050580Y-99596883D01*
X146214434Y-99732916D01*
X146222881Y-99738831D01*
X146406756Y-99846279D01*
X146416042Y-99850729D01*
X146615001Y-99926703D01*
X146624899Y-99929579D01*
X146728250Y-99950606D01*
X146742299Y-99949410D01*
X146746000Y-99939065D01*
X146746000Y-99938517D01*
X147254000Y-99938517D01*
X147258064Y-99952359D01*
X147271478Y-99954393D01*
X147278184Y-99953534D01*
X147288262Y-99951392D01*
X147492255Y-99890191D01*
X147501842Y-99886433D01*
X147693095Y-99792739D01*
X147701945Y-99787464D01*
X147875328Y-99663792D01*
X147883200Y-99657139D01*
X148034052Y-99506812D01*
X148040730Y-99498965D01*
X148165003Y-99326020D01*
X148170313Y-99317183D01*
X148264670Y-99126267D01*
X148268469Y-99116672D01*
X148330377Y-98912910D01*
X148332555Y-98902837D01*
X148333986Y-98891962D01*
X148331775Y-98877778D01*
X148318617Y-98874000D01*
X147272115Y-98874000D01*
X147256876Y-98878475D01*
X147255671Y-98879865D01*
X147254000Y-98887548D01*
X147254000Y-99938517D01*
X146746000Y-99938517D01*
X146746000Y-98892115D01*
X146741525Y-98876876D01*
X146740135Y-98875671D01*
X146732452Y-98874000D01*
X145683225Y-98874000D01*
X145669694Y-98877973D01*
X145668257Y-98887966D01*
X140114004Y-98887966D01*
X144716565Y-94285405D01*
X144778877Y-94251379D01*
X144805660Y-94248500D01*
X145770234Y-94248500D01*
X145838355Y-94268502D01*
X145877667Y-94308665D01*
X145899987Y-94345088D01*
X146046250Y-94513938D01*
X146218126Y-94656632D01*
X146288595Y-94697811D01*
X146291445Y-94699476D01*
X146340169Y-94751114D01*
X146353240Y-94820897D01*
X146326509Y-94886669D01*
X146286055Y-94920027D01*
X146273607Y-94926507D01*
X146269474Y-94929610D01*
X146269471Y-94929612D01*
X146108899Y-95050173D01*
X146094965Y-95060635D01*
X145940629Y-95222138D01*
X145937715Y-95226410D01*
X145937714Y-95226411D01*
X145858263Y-95342882D01*
X145814743Y-95406680D01*
X145794166Y-95451010D01*
X145725249Y-95599480D01*
X145720688Y-95609305D01*
X145660989Y-95824570D01*
X145637251Y-96046695D01*
X145637548Y-96051848D01*
X145637548Y-96051851D01*
X145647618Y-96226498D01*
X145650110Y-96269715D01*
X145651247Y-96274761D01*
X145651248Y-96274767D01*
X145671119Y-96362939D01*
X145699222Y-96487639D01*
X145783266Y-96694616D01*
X145899987Y-96885088D01*
X146046250Y-97053938D01*
X146218126Y-97196632D01*
X146279196Y-97232318D01*
X146291955Y-97239774D01*
X146340679Y-97291412D01*
X146353750Y-97361195D01*
X146327019Y-97426967D01*
X146286562Y-97460327D01*
X146278457Y-97464546D01*
X146269738Y-97470036D01*
X146099433Y-97597905D01*
X146091726Y-97604748D01*
X145944590Y-97758717D01*
X145938104Y-97766727D01*
X145818098Y-97942649D01*
X145813000Y-97951623D01*
X145723338Y-98144783D01*
X145719775Y-98154470D01*
X145664389Y-98354183D01*
X145665912Y-98362607D01*
X145678292Y-98366000D01*
X148318344Y-98366000D01*
X148331875Y-98362027D01*
X148333180Y-98352947D01*
X148291214Y-98185875D01*
X148287894Y-98176124D01*
X148202972Y-97980814D01*
X148198105Y-97971739D01*
X148082426Y-97792926D01*
X148076136Y-97784757D01*
X147932806Y-97627240D01*
X147925273Y-97620215D01*
X147758139Y-97488222D01*
X147749556Y-97482520D01*
X147712602Y-97462120D01*
X147662631Y-97411687D01*
X147647859Y-97342245D01*
X147672975Y-97275839D01*
X147700327Y-97249232D01*
X147724040Y-97232318D01*
X147879860Y-97121173D01*
X148038096Y-96963489D01*
X148088604Y-96893200D01*
X148165435Y-96786277D01*
X148168453Y-96782077D01*
X148267430Y-96581811D01*
X148332370Y-96368069D01*
X148361529Y-96146590D01*
X148361611Y-96143240D01*
X148363074Y-96083365D01*
X148363074Y-96083361D01*
X148363156Y-96080000D01*
X148344852Y-95857361D01*
X148290431Y-95640702D01*
X148201354Y-95435840D01*
X148121972Y-95313134D01*
X148082822Y-95252617D01*
X148082818Y-95252612D01*
X148080014Y-95248277D01*
X147929670Y-95083051D01*
X147925619Y-95079852D01*
X147925615Y-95079848D01*
X147758414Y-94947800D01*
X147758410Y-94947798D01*
X147754359Y-94944598D01*
X147713053Y-94921796D01*
X147663084Y-94871364D01*
X147648312Y-94801921D01*
X147673428Y-94735516D01*
X147700780Y-94708909D01*
X147744603Y-94677650D01*
X147879860Y-94581173D01*
X148038096Y-94423489D01*
X148088604Y-94353200D01*
X148165435Y-94246277D01*
X148168453Y-94242077D01*
X148243686Y-94089855D01*
X148265136Y-94046453D01*
X148265137Y-94046451D01*
X148267430Y-94041811D01*
X148332370Y-93828069D01*
X148361529Y-93606590D01*
X148361611Y-93603240D01*
X148363074Y-93543365D01*
X148363074Y-93543361D01*
X148363156Y-93540000D01*
X148344852Y-93317361D01*
X148290431Y-93100702D01*
X148201354Y-92895840D01*
X148121972Y-92773134D01*
X148082822Y-92712617D01*
X148082820Y-92712614D01*
X148080014Y-92708277D01*
X148076532Y-92704450D01*
X147932798Y-92546488D01*
X147901746Y-92482642D01*
X147910141Y-92412143D01*
X147955317Y-92357375D01*
X147981761Y-92343706D01*
X148088297Y-92303767D01*
X148096705Y-92300615D01*
X148213261Y-92213261D01*
X148300615Y-92096705D01*
X148351745Y-91960316D01*
X148358500Y-91898134D01*
X148358500Y-90101866D01*
X148351745Y-90039684D01*
X148300615Y-89903295D01*
X148213261Y-89786739D01*
X148096705Y-89699385D01*
X147960316Y-89648255D01*
X147898134Y-89641500D01*
X146101866Y-89641500D01*
X146039684Y-89648255D01*
X145903295Y-89699385D01*
X145786739Y-89786739D01*
X145699385Y-89903295D01*
X145648255Y-90039684D01*
X145641500Y-90101866D01*
X145641500Y-90165500D01*
X145621498Y-90233621D01*
X145567842Y-90280114D01*
X145515500Y-90291500D01*
X144028927Y-90291500D01*
X144020358Y-90291208D01*
X143970225Y-90287790D01*
X143970221Y-90287790D01*
X143962648Y-90287274D01*
X143899681Y-90298264D01*
X143893169Y-90299224D01*
X143829758Y-90306898D01*
X143822657Y-90309581D01*
X143820048Y-90310222D01*
X143803715Y-90314691D01*
X143801195Y-90315452D01*
X143793717Y-90316757D01*
X143786765Y-90319809D01*
X143786764Y-90319809D01*
X143735204Y-90342441D01*
X143729099Y-90344932D01*
X143676456Y-90364825D01*
X143676452Y-90364827D01*
X143669344Y-90367513D01*
X143663083Y-90371816D01*
X143660717Y-90373053D01*
X143645937Y-90381280D01*
X143643652Y-90382631D01*
X143636695Y-90385685D01*
X143630675Y-90390305D01*
X143630669Y-90390308D01*
X143602722Y-90411754D01*
X143585998Y-90424587D01*
X143580668Y-90428459D01*
X143534280Y-90460339D01*
X143534275Y-90460344D01*
X143528019Y-90464643D01*
X143522968Y-90470313D01*
X143522966Y-90470314D01*
X143486565Y-90511170D01*
X143481584Y-90516446D01*
X137788435Y-96209595D01*
X137726123Y-96243621D01*
X137699340Y-96246500D01*
X136809500Y-96246500D01*
X136741379Y-96226498D01*
X136694886Y-96172842D01*
X136683500Y-96120500D01*
X136683500Y-96056866D01*
X136676745Y-95994684D01*
X136625615Y-95858295D01*
X136552370Y-95760564D01*
X136527522Y-95694059D01*
X136542575Y-95624676D01*
X136552370Y-95609435D01*
X136625615Y-95511705D01*
X136676745Y-95375316D01*
X136683500Y-95313134D01*
X136683500Y-95249500D01*
X136703502Y-95181379D01*
X136757158Y-95134886D01*
X136809500Y-95123500D01*
X137556088Y-95123500D01*
X137564658Y-95123792D01*
X137614776Y-95127209D01*
X137614780Y-95127209D01*
X137622352Y-95127725D01*
X137629829Y-95126420D01*
X137629830Y-95126420D01*
X137656308Y-95121799D01*
X137685303Y-95116738D01*
X137691821Y-95115777D01*
X137755242Y-95108102D01*
X137762343Y-95105419D01*
X137764952Y-95104778D01*
X137781262Y-95100315D01*
X137783798Y-95099550D01*
X137791284Y-95098243D01*
X137849800Y-95072556D01*
X137855904Y-95070065D01*
X137908548Y-95050173D01*
X137908549Y-95050172D01*
X137915656Y-95047487D01*
X137921919Y-95043183D01*
X137924285Y-95041946D01*
X137939097Y-95033701D01*
X137941351Y-95032368D01*
X137948305Y-95029315D01*
X137999002Y-94990413D01*
X138004332Y-94986541D01*
X138050720Y-94954661D01*
X138050725Y-94954656D01*
X138056981Y-94950357D01*
X138098436Y-94903829D01*
X138103416Y-94898554D01*
X143480528Y-89521443D01*
X143486793Y-89515589D01*
X143524664Y-89482552D01*
X143524665Y-89482551D01*
X143530385Y-89477561D01*
X143567136Y-89425271D01*
X143571028Y-89420029D01*
X143610476Y-89369718D01*
X143613600Y-89362799D01*
X143614988Y-89360507D01*
X143623357Y-89345835D01*
X143624622Y-89343475D01*
X143628990Y-89337261D01*
X143634337Y-89323548D01*
X143652202Y-89277725D01*
X143654759Y-89271642D01*
X143655093Y-89270904D01*
X143681045Y-89213427D01*
X143682430Y-89205954D01*
X143683234Y-89203388D01*
X143687855Y-89187165D01*
X143688520Y-89184573D01*
X143691282Y-89177491D01*
X143699622Y-89114139D01*
X143700654Y-89107623D01*
X143710911Y-89052281D01*
X143712295Y-89044814D01*
X143708709Y-88982620D01*
X143708500Y-88975367D01*
X143708500Y-75087966D01*
X145668257Y-75087966D01*
X145698565Y-75222446D01*
X145701645Y-75232275D01*
X145781770Y-75429603D01*
X145786413Y-75438794D01*
X145897694Y-75620388D01*
X145903777Y-75628699D01*
X146043213Y-75789667D01*
X146050580Y-75796883D01*
X146214434Y-75932916D01*
X146222881Y-75938831D01*
X146406756Y-76046279D01*
X146416042Y-76050729D01*
X146615001Y-76126703D01*
X146624899Y-76129579D01*
X146728250Y-76150606D01*
X146742299Y-76149410D01*
X146746000Y-76139065D01*
X146746000Y-76138517D01*
X147254000Y-76138517D01*
X147258064Y-76152359D01*
X147271478Y-76154393D01*
X147278184Y-76153534D01*
X147288262Y-76151392D01*
X147492255Y-76090191D01*
X147501842Y-76086433D01*
X147693095Y-75992739D01*
X147701945Y-75987464D01*
X147875328Y-75863792D01*
X147883200Y-75857139D01*
X148034052Y-75706812D01*
X148040730Y-75698965D01*
X148165003Y-75526020D01*
X148170313Y-75517183D01*
X148264670Y-75326267D01*
X148268469Y-75316672D01*
X148330377Y-75112910D01*
X148332555Y-75102837D01*
X148333986Y-75091962D01*
X148331775Y-75077778D01*
X148318617Y-75074000D01*
X147272115Y-75074000D01*
X147256876Y-75078475D01*
X147255671Y-75079865D01*
X147254000Y-75087548D01*
X147254000Y-76138517D01*
X146746000Y-76138517D01*
X146746000Y-75092115D01*
X146741525Y-75076876D01*
X146740135Y-75075671D01*
X146732452Y-75074000D01*
X145683225Y-75074000D01*
X145669694Y-75077973D01*
X145668257Y-75087966D01*
X143708500Y-75087966D01*
X143708500Y-71345661D01*
X143728502Y-71277540D01*
X143745405Y-71256565D01*
X144516567Y-70485404D01*
X144578879Y-70451379D01*
X144605662Y-70448500D01*
X145770234Y-70448500D01*
X145838355Y-70468502D01*
X145877667Y-70508665D01*
X145899987Y-70545088D01*
X146046250Y-70713938D01*
X146218126Y-70856632D01*
X146257219Y-70879476D01*
X146291445Y-70899476D01*
X146340169Y-70951114D01*
X146353240Y-71020897D01*
X146326509Y-71086669D01*
X146286055Y-71120027D01*
X146273607Y-71126507D01*
X146269474Y-71129610D01*
X146269471Y-71129612D01*
X146099100Y-71257530D01*
X146094965Y-71260635D01*
X146091393Y-71264373D01*
X145963313Y-71398401D01*
X145940629Y-71422138D01*
X145937715Y-71426410D01*
X145937714Y-71426411D01*
X145892154Y-71493200D01*
X145814743Y-71606680D01*
X145800835Y-71636643D01*
X145729972Y-71789305D01*
X145720688Y-71809305D01*
X145660989Y-72024570D01*
X145637251Y-72246695D01*
X145637548Y-72251848D01*
X145637548Y-72251851D01*
X145643011Y-72346590D01*
X145650110Y-72469715D01*
X145651247Y-72474761D01*
X145651248Y-72474767D01*
X145671119Y-72562939D01*
X145699222Y-72687639D01*
X145783266Y-72894616D01*
X145785965Y-72899020D01*
X145880020Y-73052504D01*
X145899987Y-73085088D01*
X146046250Y-73253938D01*
X146218126Y-73396632D01*
X146276762Y-73430896D01*
X146291955Y-73439774D01*
X146340679Y-73491412D01*
X146353750Y-73561195D01*
X146327019Y-73626967D01*
X146286562Y-73660327D01*
X146278457Y-73664546D01*
X146269738Y-73670036D01*
X146099433Y-73797905D01*
X146091726Y-73804748D01*
X145944590Y-73958717D01*
X145938104Y-73966727D01*
X145818098Y-74142649D01*
X145813000Y-74151623D01*
X145723338Y-74344783D01*
X145719775Y-74354470D01*
X145664389Y-74554183D01*
X145665912Y-74562607D01*
X145678292Y-74566000D01*
X148318344Y-74566000D01*
X148331875Y-74562027D01*
X148333180Y-74552947D01*
X148291214Y-74385875D01*
X148287894Y-74376124D01*
X148202972Y-74180814D01*
X148198105Y-74171739D01*
X148082426Y-73992926D01*
X148076136Y-73984757D01*
X147932806Y-73827240D01*
X147925273Y-73820215D01*
X147758139Y-73688222D01*
X147749556Y-73682520D01*
X147712602Y-73662120D01*
X147662631Y-73611687D01*
X147647859Y-73542245D01*
X147672975Y-73475839D01*
X147700327Y-73449232D01*
X147752079Y-73412318D01*
X147879860Y-73321173D01*
X148038096Y-73163489D01*
X148052468Y-73143489D01*
X148165435Y-72986277D01*
X148168453Y-72982077D01*
X148208739Y-72900565D01*
X148265136Y-72786453D01*
X148265137Y-72786451D01*
X148267430Y-72781811D01*
X148332370Y-72568069D01*
X148361529Y-72346590D01*
X148363156Y-72280000D01*
X148344852Y-72057361D01*
X148290431Y-71840702D01*
X148201354Y-71635840D01*
X148112419Y-71498367D01*
X148082822Y-71452617D01*
X148082820Y-71452614D01*
X148080014Y-71448277D01*
X147929670Y-71283051D01*
X147925619Y-71279852D01*
X147925615Y-71279848D01*
X147758414Y-71147800D01*
X147758410Y-71147798D01*
X147754359Y-71144598D01*
X147713053Y-71121796D01*
X147663084Y-71071364D01*
X147648312Y-71001921D01*
X147673428Y-70935516D01*
X147700780Y-70908909D01*
X147744603Y-70877650D01*
X147879860Y-70781173D01*
X147935884Y-70725345D01*
X147991603Y-70669820D01*
X148038096Y-70623489D01*
X148052468Y-70603489D01*
X148165435Y-70446277D01*
X148168453Y-70442077D01*
X148180631Y-70417438D01*
X148265136Y-70246453D01*
X148265137Y-70246451D01*
X148267430Y-70241811D01*
X148332370Y-70028069D01*
X148361529Y-69806590D01*
X148362100Y-69783240D01*
X148363074Y-69743365D01*
X148363074Y-69743361D01*
X148363156Y-69740000D01*
X148344852Y-69517361D01*
X148290431Y-69300702D01*
X148201354Y-69095840D01*
X148080014Y-68908277D01*
X148065765Y-68892617D01*
X147932798Y-68746488D01*
X147901746Y-68682642D01*
X147910141Y-68612143D01*
X147955317Y-68557375D01*
X147981761Y-68543706D01*
X148088297Y-68503767D01*
X148096705Y-68500615D01*
X148213261Y-68413261D01*
X148300615Y-68296705D01*
X148351745Y-68160316D01*
X148358500Y-68098134D01*
X148358500Y-66301866D01*
X148351745Y-66239684D01*
X148300615Y-66103295D01*
X148213261Y-65986739D01*
X148096705Y-65899385D01*
X147960316Y-65848255D01*
X147898134Y-65841500D01*
X146101866Y-65841500D01*
X146039684Y-65848255D01*
X145903295Y-65899385D01*
X145786739Y-65986739D01*
X145699385Y-66103295D01*
X145648255Y-66239684D01*
X145641500Y-66301866D01*
X145641500Y-66365500D01*
X145621498Y-66433621D01*
X145567842Y-66480114D01*
X145515500Y-66491500D01*
X143828927Y-66491500D01*
X143820358Y-66491208D01*
X143770225Y-66487790D01*
X143770221Y-66487790D01*
X143762648Y-66487274D01*
X143699681Y-66498264D01*
X143693169Y-66499224D01*
X143629758Y-66506898D01*
X143622657Y-66509581D01*
X143620048Y-66510222D01*
X143603728Y-66514687D01*
X143601195Y-66515452D01*
X143593717Y-66516757D01*
X143535190Y-66542448D01*
X143529108Y-66544930D01*
X143508753Y-66552622D01*
X143476449Y-66564828D01*
X143476447Y-66564829D01*
X143469344Y-66567513D01*
X143463085Y-66571814D01*
X143460720Y-66573051D01*
X143445948Y-66581273D01*
X143443656Y-66582628D01*
X143436695Y-66585684D01*
X143430668Y-66590309D01*
X143430664Y-66590311D01*
X143385987Y-66624593D01*
X143380662Y-66628462D01*
X143328019Y-66664643D01*
X143322967Y-66670313D01*
X143322966Y-66670314D01*
X143286573Y-66711161D01*
X143281592Y-66716437D01*
X139519480Y-70478550D01*
X139513215Y-70484404D01*
X139469615Y-70522439D01*
X139453697Y-70545088D01*
X139432872Y-70574719D01*
X139428939Y-70580014D01*
X139389524Y-70630282D01*
X139386401Y-70637198D01*
X139385017Y-70639484D01*
X139376643Y-70654165D01*
X139375378Y-70656525D01*
X139371010Y-70662739D01*
X139368250Y-70669818D01*
X139368249Y-70669820D01*
X139347798Y-70722275D01*
X139345247Y-70728344D01*
X139318955Y-70786573D01*
X139317571Y-70794040D01*
X139316770Y-70796595D01*
X139312141Y-70812848D01*
X139311478Y-70815428D01*
X139308718Y-70822509D01*
X139307727Y-70830040D01*
X139307726Y-70830042D01*
X139300379Y-70885852D01*
X139299348Y-70892359D01*
X139287704Y-70955186D01*
X139288141Y-70962766D01*
X139288141Y-70962767D01*
X139291291Y-71017392D01*
X139291500Y-71024646D01*
X139291500Y-87654339D01*
X139271498Y-87722460D01*
X139254595Y-87743434D01*
X137883891Y-89114139D01*
X136898095Y-90099935D01*
X136835783Y-90133960D01*
X136764968Y-90128896D01*
X136708132Y-90086349D01*
X136683321Y-90019829D01*
X136683000Y-90010840D01*
X136683000Y-89607115D01*
X136678525Y-89591876D01*
X136677135Y-89590671D01*
X136669452Y-89589000D01*
X132185116Y-89589000D01*
X132169876Y-89593475D01*
X132164724Y-89599421D01*
X132104998Y-89637804D01*
X132034001Y-89637804D01*
X131974275Y-89599420D01*
X131944782Y-89534839D01*
X131943500Y-89516908D01*
X131943500Y-89156485D01*
X131963502Y-89088364D01*
X132017158Y-89041871D01*
X132087432Y-89031767D01*
X132152012Y-89061260D01*
X132172865Y-89079329D01*
X132180548Y-89081000D01*
X136664884Y-89081000D01*
X136680123Y-89076525D01*
X136681328Y-89075135D01*
X136682999Y-89067452D01*
X136682999Y-88440331D01*
X136682629Y-88433510D01*
X136677105Y-88382648D01*
X136673479Y-88367396D01*
X136628324Y-88246946D01*
X136619786Y-88231351D01*
X136552058Y-88140982D01*
X136527210Y-88074475D01*
X136542263Y-88005093D01*
X136552058Y-87989852D01*
X136620229Y-87898891D01*
X136625615Y-87891705D01*
X136676745Y-87755316D01*
X136683500Y-87693134D01*
X136683500Y-85896866D01*
X136676745Y-85834684D01*
X136625615Y-85698295D01*
X136552370Y-85600564D01*
X136527522Y-85534059D01*
X136542575Y-85464676D01*
X136552370Y-85449435D01*
X136620229Y-85358891D01*
X136625615Y-85351705D01*
X136676745Y-85215316D01*
X136683500Y-85153134D01*
X136683500Y-83356866D01*
X136676745Y-83294684D01*
X136625615Y-83158295D01*
X136552370Y-83060564D01*
X136527522Y-82994059D01*
X136542575Y-82924676D01*
X136552370Y-82909435D01*
X136620229Y-82818891D01*
X136625615Y-82811705D01*
X136676745Y-82675316D01*
X136683500Y-82613134D01*
X136683500Y-80816866D01*
X136676745Y-80754684D01*
X136625615Y-80618295D01*
X136552370Y-80520564D01*
X136527522Y-80454059D01*
X136542575Y-80384676D01*
X136552370Y-80369435D01*
X136620229Y-80278891D01*
X136625615Y-80271705D01*
X136676745Y-80135316D01*
X136683500Y-80073134D01*
X136683500Y-78276866D01*
X136676745Y-78214684D01*
X136625615Y-78078295D01*
X136552370Y-77980564D01*
X136527522Y-77914059D01*
X136542575Y-77844676D01*
X136552370Y-77829435D01*
X136557002Y-77823255D01*
X136625615Y-77731705D01*
X136676745Y-77595316D01*
X136683500Y-77533134D01*
X136683500Y-75736866D01*
X136676745Y-75674684D01*
X136625615Y-75538295D01*
X136552370Y-75440564D01*
X136527522Y-75374059D01*
X136542575Y-75304676D01*
X136552370Y-75289435D01*
X136595209Y-75232275D01*
X136625615Y-75191705D01*
X136676745Y-75055316D01*
X136683500Y-74993134D01*
X136683500Y-73196866D01*
X136676745Y-73134684D01*
X136625615Y-72998295D01*
X136552370Y-72900564D01*
X136527522Y-72834059D01*
X136542575Y-72764676D01*
X136552370Y-72749435D01*
X136613673Y-72667639D01*
X136625615Y-72651705D01*
X136676745Y-72515316D01*
X136683500Y-72453134D01*
X136683500Y-70656866D01*
X136676745Y-70594684D01*
X136625615Y-70458295D01*
X136552370Y-70360564D01*
X136527522Y-70294059D01*
X136542575Y-70224676D01*
X136552370Y-70209435D01*
X136613673Y-70127639D01*
X136625615Y-70111705D01*
X136676745Y-69975316D01*
X136683500Y-69913134D01*
X136683500Y-68116866D01*
X136676745Y-68054684D01*
X136625615Y-67918295D01*
X136552370Y-67820564D01*
X136527522Y-67754059D01*
X136542575Y-67684676D01*
X136552370Y-67669435D01*
X136625615Y-67571705D01*
X136676745Y-67435316D01*
X136683500Y-67373134D01*
X136683500Y-65576866D01*
X136676745Y-65514684D01*
X136625615Y-65378295D01*
X136552058Y-65280148D01*
X136527210Y-65213642D01*
X136542263Y-65144259D01*
X136552058Y-65129018D01*
X136619786Y-65038649D01*
X136628324Y-65023054D01*
X136673478Y-64902606D01*
X136677105Y-64887351D01*
X136682631Y-64836486D01*
X136683000Y-64829672D01*
X136683000Y-64207115D01*
X136678525Y-64191876D01*
X136677135Y-64190671D01*
X136669452Y-64189000D01*
X132185116Y-64189000D01*
X132169877Y-64193475D01*
X132168672Y-64194865D01*
X132167001Y-64202548D01*
X132167001Y-64829669D01*
X132167371Y-64836490D01*
X132172895Y-64887352D01*
X132176521Y-64902604D01*
X132221676Y-65023054D01*
X132230214Y-65038649D01*
X132297942Y-65129018D01*
X132322790Y-65195525D01*
X132307737Y-65264907D01*
X132297942Y-65280148D01*
X132224385Y-65378295D01*
X132173255Y-65514684D01*
X132166500Y-65576866D01*
X132166500Y-66395219D01*
X132165787Y-66408607D01*
X132162251Y-66441695D01*
X132162548Y-66446848D01*
X132162548Y-66446851D01*
X132166291Y-66511763D01*
X132166500Y-66519016D01*
X132166500Y-67373134D01*
X132173255Y-67435316D01*
X132224385Y-67571705D01*
X132297630Y-67669435D01*
X132322478Y-67735941D01*
X132307425Y-67805324D01*
X132297632Y-67820562D01*
X132224385Y-67918295D01*
X132221233Y-67926703D01*
X132203228Y-67974730D01*
X132160586Y-68031495D01*
X132094024Y-68056194D01*
X132085246Y-68056500D01*
X131013604Y-68056500D01*
X131007010Y-68056327D01*
X130944317Y-68053041D01*
X130944313Y-68053041D01*
X130937936Y-68052707D01*
X130931623Y-68053662D01*
X130931618Y-68053662D01*
X130896557Y-68058965D01*
X130867865Y-68063304D01*
X130861774Y-68064074D01*
X130791273Y-68071235D01*
X130785183Y-68073143D01*
X130785175Y-68073145D01*
X130777992Y-68075396D01*
X130759167Y-68079742D01*
X130751720Y-68080869D01*
X130751718Y-68080870D01*
X130745401Y-68081825D01*
X130739406Y-68084031D01*
X130733232Y-68085616D01*
X130733077Y-68085013D01*
X130696662Y-68091500D01*
X128428503Y-68091500D01*
X128360382Y-68071498D01*
X128339408Y-68054595D01*
X125945405Y-65660592D01*
X125911379Y-65598280D01*
X125908500Y-65571497D01*
X125908500Y-61361695D01*
X132162251Y-61361695D01*
X132162548Y-61366848D01*
X132162548Y-61366851D01*
X132166291Y-61431763D01*
X132166500Y-61439016D01*
X132166500Y-62293134D01*
X132173255Y-62355316D01*
X132224385Y-62491705D01*
X132229771Y-62498891D01*
X132297942Y-62589852D01*
X132322790Y-62656358D01*
X132307737Y-62725741D01*
X132297942Y-62740982D01*
X132230214Y-62831351D01*
X132221676Y-62846946D01*
X132176522Y-62967394D01*
X132172895Y-62982649D01*
X132167369Y-63033514D01*
X132167000Y-63040328D01*
X132167000Y-63662885D01*
X132171475Y-63678124D01*
X132172865Y-63679329D01*
X132180548Y-63681000D01*
X136664884Y-63681000D01*
X136680123Y-63676525D01*
X136681328Y-63675135D01*
X136682999Y-63667452D01*
X136682999Y-63040331D01*
X136682629Y-63033510D01*
X136677105Y-62982648D01*
X136673479Y-62967396D01*
X136628324Y-62846946D01*
X136619786Y-62831351D01*
X136552058Y-62740982D01*
X136527210Y-62674475D01*
X136542263Y-62605093D01*
X136552058Y-62589852D01*
X136620229Y-62498891D01*
X136625615Y-62491705D01*
X136676745Y-62355316D01*
X136677598Y-62347464D01*
X136677599Y-62347460D01*
X136682974Y-62297975D01*
X136710216Y-62232413D01*
X136768578Y-62191986D01*
X136778895Y-62189110D01*
X136785255Y-62188397D01*
X136791904Y-62186082D01*
X136791911Y-62186080D01*
X136816930Y-62177367D01*
X136831742Y-62173204D01*
X136857619Y-62167609D01*
X136864510Y-62166119D01*
X136903813Y-62147792D01*
X136915589Y-62143010D01*
X136956552Y-62128745D01*
X136962527Y-62125011D01*
X136962530Y-62125010D01*
X136984995Y-62110973D01*
X136998512Y-62103634D01*
X137022514Y-62092441D01*
X137022515Y-62092440D01*
X137028902Y-62089462D01*
X137063153Y-62062894D01*
X137073612Y-62055598D01*
X137104404Y-62036358D01*
X137104407Y-62036356D01*
X137110376Y-62032626D01*
X137139179Y-62004024D01*
X137139804Y-62003439D01*
X137140470Y-62002922D01*
X137166460Y-61976932D01*
X137239082Y-61904815D01*
X137239740Y-61903778D01*
X137240843Y-61902549D01*
X137565158Y-61578234D01*
X137566095Y-61577306D01*
X137625475Y-61519157D01*
X137625476Y-61519156D01*
X137630507Y-61514229D01*
X137653998Y-61477779D01*
X137661417Y-61467454D01*
X137688476Y-61433557D01*
X137691540Y-61427218D01*
X137691543Y-61427214D01*
X137703074Y-61403362D01*
X137710601Y-61389949D01*
X137724947Y-61367687D01*
X137724948Y-61367684D01*
X137728765Y-61361762D01*
X137731176Y-61355139D01*
X137743592Y-61321027D01*
X137748553Y-61309283D01*
X137764352Y-61276601D01*
X137764353Y-61276599D01*
X137767421Y-61270252D01*
X137774966Y-61237573D01*
X137779334Y-61222825D01*
X137790803Y-61191315D01*
X137791685Y-61184329D01*
X137791687Y-61184323D01*
X137796238Y-61148299D01*
X137798474Y-61135747D01*
X137806638Y-61100386D01*
X137806638Y-61100383D01*
X137808224Y-61093515D01*
X137808366Y-61052944D01*
X137808395Y-61052062D01*
X137808500Y-61051231D01*
X137808500Y-61014428D01*
X137808857Y-60912130D01*
X137808589Y-60910930D01*
X137808500Y-60909293D01*
X137808500Y-55481291D01*
X137828502Y-55413170D01*
X137882158Y-55366677D01*
X137920892Y-55356028D01*
X137933086Y-55354703D01*
X137960316Y-55351745D01*
X138096705Y-55300615D01*
X138213261Y-55213261D01*
X138300615Y-55096705D01*
X138351745Y-54960316D01*
X138358500Y-54898134D01*
X138358500Y-53101866D01*
X138351745Y-53039684D01*
X138300615Y-52903295D01*
X138213261Y-52786739D01*
X138096705Y-52699385D01*
X137960316Y-52648255D01*
X137898134Y-52641500D01*
X136101866Y-52641500D01*
X136039684Y-52648255D01*
X135903295Y-52699385D01*
X135786739Y-52786739D01*
X135699385Y-52903295D01*
X135696233Y-52911703D01*
X135696232Y-52911705D01*
X135654722Y-53022433D01*
X135612081Y-53079198D01*
X135545519Y-53103898D01*
X135476170Y-53088691D01*
X135443546Y-53063004D01*
X135392799Y-53007234D01*
X135385273Y-53000215D01*
X135218139Y-52868222D01*
X135209552Y-52862517D01*
X135023117Y-52759599D01*
X135013705Y-52755369D01*
X134812959Y-52684280D01*
X134802988Y-52681646D01*
X134731837Y-52668972D01*
X134718540Y-52670432D01*
X134714000Y-52684989D01*
X134714000Y-55318517D01*
X134718064Y-55332359D01*
X134731478Y-55334393D01*
X134738184Y-55333534D01*
X134748262Y-55331392D01*
X134952255Y-55270191D01*
X134961842Y-55266433D01*
X135153095Y-55172739D01*
X135161945Y-55167464D01*
X135335328Y-55043792D01*
X135343193Y-55037145D01*
X135447897Y-54932805D01*
X135510268Y-54898889D01*
X135581075Y-54904077D01*
X135637837Y-54946723D01*
X135654819Y-54977826D01*
X135699385Y-55096705D01*
X135786739Y-55213261D01*
X135903295Y-55300615D01*
X136039684Y-55351745D01*
X136066914Y-55354703D01*
X136079108Y-55356028D01*
X136144670Y-55383270D01*
X136185096Y-55441634D01*
X136191500Y-55481291D01*
X136191500Y-57370500D01*
X136171498Y-57438621D01*
X136117842Y-57485114D01*
X136065500Y-57496500D01*
X133539985Y-57496500D01*
X133538446Y-57496491D01*
X133435081Y-57495228D01*
X133435079Y-57495228D01*
X133429911Y-57495165D01*
X133424797Y-57495948D01*
X133421289Y-57496193D01*
X133412496Y-57496500D01*
X132626866Y-57496500D01*
X132564684Y-57503255D01*
X132428295Y-57554385D01*
X132311739Y-57641739D01*
X132224385Y-57758295D01*
X132173255Y-57894684D01*
X132166500Y-57956866D01*
X132166500Y-58775219D01*
X132165787Y-58788607D01*
X132162251Y-58821695D01*
X132162548Y-58826848D01*
X132162548Y-58826851D01*
X132166291Y-58891763D01*
X132166500Y-58899016D01*
X132166500Y-59753134D01*
X132173255Y-59815316D01*
X132224385Y-59951705D01*
X132229771Y-59958891D01*
X132297630Y-60049435D01*
X132322478Y-60115941D01*
X132307425Y-60185324D01*
X132297632Y-60200562D01*
X132224385Y-60298295D01*
X132173255Y-60434684D01*
X132166500Y-60496866D01*
X132166500Y-61315219D01*
X132165787Y-61328607D01*
X132162251Y-61361695D01*
X125908500Y-61361695D01*
X125908500Y-57081417D01*
X125910051Y-57061707D01*
X125911220Y-57054327D01*
X125911220Y-57054326D01*
X125912252Y-57047810D01*
X125908673Y-56979520D01*
X125908500Y-56972926D01*
X125908500Y-56952390D01*
X125908156Y-56949116D01*
X125906353Y-56931958D01*
X125905836Y-56925384D01*
X125902603Y-56863696D01*
X125902603Y-56863694D01*
X125902257Y-56857097D01*
X125898615Y-56843504D01*
X125895014Y-56824075D01*
X125894232Y-56816639D01*
X125893542Y-56810072D01*
X125872407Y-56745025D01*
X125870535Y-56738706D01*
X125867686Y-56728071D01*
X125865007Y-56718074D01*
X125854538Y-56679003D01*
X125854537Y-56679000D01*
X125852830Y-56672630D01*
X125846438Y-56660085D01*
X125838874Y-56641823D01*
X125836568Y-56634726D01*
X125834527Y-56628444D01*
X125800336Y-56569223D01*
X125797188Y-56563426D01*
X125769126Y-56508351D01*
X125769124Y-56508348D01*
X125766129Y-56502470D01*
X125757273Y-56491533D01*
X125746073Y-56475237D01*
X125742343Y-56468776D01*
X125742340Y-56468772D01*
X125739040Y-56463056D01*
X125734623Y-56458150D01*
X125734619Y-56458145D01*
X125693278Y-56412231D01*
X125688994Y-56407216D01*
X125678148Y-56393823D01*
X125676072Y-56391259D01*
X125661557Y-56376744D01*
X125657016Y-56371959D01*
X125615673Y-56326043D01*
X125611253Y-56321134D01*
X125599865Y-56312860D01*
X125584832Y-56300019D01*
X123552779Y-54267966D01*
X133128257Y-54267966D01*
X133158565Y-54402446D01*
X133161645Y-54412275D01*
X133241770Y-54609603D01*
X133246413Y-54618794D01*
X133357694Y-54800388D01*
X133363777Y-54808699D01*
X133503213Y-54969667D01*
X133510580Y-54976883D01*
X133674434Y-55112916D01*
X133682881Y-55118831D01*
X133866756Y-55226279D01*
X133876042Y-55230729D01*
X134075001Y-55306703D01*
X134084899Y-55309579D01*
X134188250Y-55330606D01*
X134202299Y-55329410D01*
X134206000Y-55319065D01*
X134206000Y-54272115D01*
X134201525Y-54256876D01*
X134200135Y-54255671D01*
X134192452Y-54254000D01*
X133143225Y-54254000D01*
X133129694Y-54257973D01*
X133128257Y-54267966D01*
X123552779Y-54267966D01*
X123018996Y-53734183D01*
X133124389Y-53734183D01*
X133125912Y-53742607D01*
X133138292Y-53746000D01*
X134187885Y-53746000D01*
X134203124Y-53741525D01*
X134204329Y-53740135D01*
X134206000Y-53732452D01*
X134206000Y-52683102D01*
X134202082Y-52669758D01*
X134187806Y-52667771D01*
X134149324Y-52673660D01*
X134139288Y-52676051D01*
X133936868Y-52742212D01*
X133927359Y-52746209D01*
X133738463Y-52844542D01*
X133729738Y-52850036D01*
X133559433Y-52977905D01*
X133551726Y-52984748D01*
X133404590Y-53138717D01*
X133398104Y-53146727D01*
X133278098Y-53322649D01*
X133273000Y-53331623D01*
X133183338Y-53524783D01*
X133179775Y-53534470D01*
X133124389Y-53734183D01*
X123018996Y-53734183D01*
X122699981Y-53415168D01*
X122687140Y-53400135D01*
X122682746Y-53394087D01*
X122682745Y-53394086D01*
X122678866Y-53388747D01*
X122628041Y-53342984D01*
X122623256Y-53338443D01*
X122608741Y-53323928D01*
X122601282Y-53317888D01*
X122592784Y-53311006D01*
X122587769Y-53306722D01*
X122541855Y-53265381D01*
X122541850Y-53265377D01*
X122536944Y-53260960D01*
X122531228Y-53257660D01*
X122531224Y-53257657D01*
X122524763Y-53253927D01*
X122508466Y-53242727D01*
X122502660Y-53238025D01*
X122502658Y-53238024D01*
X122497530Y-53233871D01*
X122436577Y-53202814D01*
X122430782Y-53199667D01*
X122377279Y-53168777D01*
X122377278Y-53168776D01*
X122371556Y-53165473D01*
X122365274Y-53163432D01*
X122365272Y-53163431D01*
X122358174Y-53161125D01*
X122339907Y-53153559D01*
X122327370Y-53147171D01*
X122261299Y-53129467D01*
X122254997Y-53127600D01*
X122189928Y-53106458D01*
X122183363Y-53105768D01*
X122183354Y-53105766D01*
X122175925Y-53104985D01*
X122156491Y-53101383D01*
X122149286Y-53099453D01*
X122149284Y-53099453D01*
X122142903Y-53097743D01*
X122136312Y-53097398D01*
X122136308Y-53097397D01*
X122074616Y-53094164D01*
X122068042Y-53093647D01*
X122050884Y-53091844D01*
X122050882Y-53091844D01*
X122047610Y-53091500D01*
X122027074Y-53091500D01*
X122020480Y-53091327D01*
X121958782Y-53088093D01*
X121958777Y-53088093D01*
X121952190Y-53087748D01*
X121938292Y-53089949D01*
X121918583Y-53091500D01*
X116458498Y-53091500D01*
X116390377Y-53071498D01*
X116343884Y-53017842D01*
X116340516Y-53009730D01*
X116303767Y-52911703D01*
X116300615Y-52903295D01*
X116213261Y-52786739D01*
X116096705Y-52699385D01*
X115960316Y-52648255D01*
X115898134Y-52641500D01*
X114101866Y-52641500D01*
X114039684Y-52648255D01*
X113903295Y-52699385D01*
X113786739Y-52786739D01*
X113699385Y-52903295D01*
X113696233Y-52911703D01*
X113696232Y-52911705D01*
X113654722Y-53022433D01*
X113612081Y-53079198D01*
X113545519Y-53103898D01*
X113476170Y-53088691D01*
X113443546Y-53063004D01*
X113392799Y-53007234D01*
X113385273Y-53000215D01*
X113218139Y-52868222D01*
X113209552Y-52862517D01*
X113023117Y-52759599D01*
X113013705Y-52755369D01*
X112812959Y-52684280D01*
X112802988Y-52681646D01*
X112731837Y-52668972D01*
X112718540Y-52670432D01*
X112714000Y-52684989D01*
X112714000Y-55318517D01*
X112206000Y-55318517D01*
X112206000Y-54272115D01*
X112201525Y-54256876D01*
X112200135Y-54255671D01*
X112192452Y-54254000D01*
X111143225Y-54254000D01*
X111129694Y-54257973D01*
X111128257Y-54267966D01*
X107488497Y-54267966D01*
X107344456Y-53927801D01*
X107241291Y-53734183D01*
X111124389Y-53734183D01*
X111125912Y-53742607D01*
X111138292Y-53746000D01*
X112187885Y-53746000D01*
X112203124Y-53741525D01*
X112204329Y-53740135D01*
X112206000Y-53732452D01*
X112206000Y-52683102D01*
X112202082Y-52669758D01*
X112187806Y-52667771D01*
X112149324Y-52673660D01*
X112139288Y-52676051D01*
X111936868Y-52742212D01*
X111927359Y-52746209D01*
X111738463Y-52844542D01*
X111729738Y-52850036D01*
X111559433Y-52977905D01*
X111551726Y-52984748D01*
X111404590Y-53138717D01*
X111398104Y-53146727D01*
X111278098Y-53322649D01*
X111273000Y-53331623D01*
X111183338Y-53524783D01*
X111179775Y-53534470D01*
X111124389Y-53734183D01*
X107241291Y-53734183D01*
X107143050Y-53549807D01*
X107071257Y-53439886D01*
X106910381Y-53193573D01*
X106910378Y-53193569D01*
X106908840Y-53191214D01*
X106643680Y-52854860D01*
X106349670Y-52543409D01*
X106347579Y-52541556D01*
X106347571Y-52541548D01*
X106031237Y-52261188D01*
X106031235Y-52261186D01*
X106029137Y-52259327D01*
X105684621Y-52004863D01*
X105491733Y-51887355D01*
X105321237Y-51783487D01*
X105321230Y-51783483D01*
X105318848Y-51782032D01*
X105248836Y-51747506D01*
X105196587Y-51699438D01*
X105178620Y-51630752D01*
X105200639Y-51563257D01*
X105255654Y-51518380D01*
X105304564Y-51508500D01*
X144693041Y-51508500D01*
X144761162Y-51528502D01*
G37*
%TD.AperFunction*%
%TD*%
M02*
