%TF.GenerationSoftware,KiCad,Pcbnew,(6.0.7)*%
%TF.CreationDate,2022-11-23T18:30:10-05:00*%
%TF.ProjectId,Team5_Coaster,5465616d-355f-4436-9f61-737465722e6b,rev?*%
%TF.SameCoordinates,Original*%
%TF.FileFunction,Drillmap*%
%TF.FilePolarity,Positive*%
%FSLAX45Y45*%
G04 Gerber Fmt 4.5, Leading zero omitted, Abs format (unit mm)*
G04 Created by KiCad (PCBNEW (6.0.7)) date 2022-11-23 18:30:10*
%MOMM*%
%LPD*%
G01*
G04 APERTURE LIST*
%ADD10C,0.100000*%
%ADD11C,0.200000*%
%ADD12C,0.060000*%
%ADD13C,0.102000*%
%ADD14C,0.110000*%
%ADD15C,0.228600*%
%ADD16C,0.430000*%
%ADD17C,0.450000*%
%ADD18C,0.500000*%
G04 APERTURE END LIST*
D10*
X10300000Y-5100000D02*
G75*
G03*
X9800000Y-5600000I0J-500000D01*
G01*
X14700000Y-13700000D02*
G75*
G03*
X15200000Y-13200000I0J500000D01*
G01*
X9800000Y-13200000D02*
G75*
G03*
X10300000Y-13700000I500000J0D01*
G01*
X14700000Y-5100000D02*
X10300000Y-5100000D01*
X15200000Y-13200000D02*
X15200000Y-5600000D01*
X9800000Y-5600000D02*
X9800000Y-13200000D01*
X10300000Y-13700000D02*
X14700000Y-13700000D01*
X15200000Y-5600000D02*
G75*
G03*
X14700000Y-5100000I-500000J0D01*
G01*
D11*
D12*
X9947500Y-5570000D02*
X10007500Y-5630000D01*
X10007500Y-5570000D02*
X9947500Y-5630000D01*
X10041958Y-5341958D02*
X10101958Y-5401958D01*
X10101958Y-5341958D02*
X10041958Y-5401958D01*
X10041958Y-5798042D02*
X10101958Y-5858042D01*
X10101958Y-5798042D02*
X10041958Y-5858042D01*
X10270000Y-5247500D02*
X10330000Y-5307500D01*
X10330000Y-5247500D02*
X10270000Y-5307500D01*
X10270000Y-5892500D02*
X10330000Y-5952500D01*
X10330000Y-5892500D02*
X10270000Y-5952500D01*
X10498042Y-5341958D02*
X10558042Y-5401958D01*
X10558042Y-5341958D02*
X10498042Y-5401958D01*
X10498042Y-5798042D02*
X10558042Y-5858042D01*
X10558042Y-5798042D02*
X10498042Y-5858042D01*
X10592500Y-5570000D02*
X10652500Y-5630000D01*
X10652500Y-5570000D02*
X10592500Y-5630000D01*
X12047500Y-9670000D02*
X12107500Y-9730000D01*
X12107500Y-9670000D02*
X12047500Y-9730000D01*
X12141958Y-9441958D02*
X12201958Y-9501958D01*
X12201958Y-9441958D02*
X12141958Y-9501958D01*
X12141958Y-9898042D02*
X12201958Y-9958042D01*
X12201958Y-9898042D02*
X12141958Y-9958042D01*
X12370000Y-9347500D02*
X12430000Y-9407500D01*
X12430000Y-9347500D02*
X12370000Y-9407500D01*
X12370000Y-9992500D02*
X12430000Y-10052500D01*
X12430000Y-9992500D02*
X12370000Y-10052500D01*
X12598042Y-9441958D02*
X12658042Y-9501958D01*
X12658042Y-9441958D02*
X12598042Y-9501958D01*
X12598042Y-9898042D02*
X12658042Y-9958042D01*
X12658042Y-9898042D02*
X12598042Y-9958042D01*
X12692500Y-9670000D02*
X12752500Y-9730000D01*
X12752500Y-9670000D02*
X12692500Y-9730000D01*
X14347500Y-5570000D02*
X14407500Y-5630000D01*
X14407500Y-5570000D02*
X14347500Y-5630000D01*
X14441958Y-5341958D02*
X14501958Y-5401958D01*
X14501958Y-5341958D02*
X14441958Y-5401958D01*
X14441958Y-5798042D02*
X14501958Y-5858042D01*
X14501958Y-5798042D02*
X14441958Y-5858042D01*
X14670000Y-5247500D02*
X14730000Y-5307500D01*
X14730000Y-5247500D02*
X14670000Y-5307500D01*
X14670000Y-5892500D02*
X14730000Y-5952500D01*
X14730000Y-5892500D02*
X14670000Y-5952500D01*
X14898042Y-5341958D02*
X14958042Y-5401958D01*
X14958042Y-5341958D02*
X14898042Y-5401958D01*
X14898042Y-5798042D02*
X14958042Y-5858042D01*
X14958042Y-5798042D02*
X14898042Y-5858042D01*
X14992500Y-5570000D02*
X15052500Y-5630000D01*
X15052500Y-5570000D02*
X14992500Y-5630000D01*
D10*
X10250000Y-12050000D02*
G75*
G03*
X10250000Y-12050000I-50000J0D01*
G01*
X10350000Y-6718000D02*
G75*
G03*
X10350000Y-6718000I-50000J0D01*
G01*
X10350000Y-6972000D02*
G75*
G03*
X10350000Y-6972000I-50000J0D01*
G01*
X10350000Y-7226000D02*
G75*
G03*
X10350000Y-7226000I-50000J0D01*
G01*
X10350000Y-7480000D02*
G75*
G03*
X10350000Y-7480000I-50000J0D01*
G01*
X10350000Y-9100000D02*
G75*
G03*
X10350000Y-9100000I-50000J0D01*
G01*
X10350000Y-9354000D02*
G75*
G03*
X10350000Y-9354000I-50000J0D01*
G01*
X10350000Y-9608000D02*
G75*
G03*
X10350000Y-9608000I-50000J0D01*
G01*
X10350000Y-9862000D02*
G75*
G03*
X10350000Y-9862000I-50000J0D01*
G01*
X10504000Y-12050000D02*
G75*
G03*
X10504000Y-12050000I-50000J0D01*
G01*
X11296000Y-5400000D02*
G75*
G03*
X11296000Y-5400000I-50000J0D01*
G01*
X11550000Y-5400000D02*
G75*
G03*
X11550000Y-5400000I-50000J0D01*
G01*
X12017500Y-11397500D02*
G75*
G03*
X12017500Y-11397500I-50000J0D01*
G01*
X12271500Y-11397500D02*
G75*
G03*
X12271500Y-11397500I-50000J0D01*
G01*
X12525500Y-11397500D02*
G75*
G03*
X12525500Y-11397500I-50000J0D01*
G01*
X12779500Y-11397500D02*
G75*
G03*
X12779500Y-11397500I-50000J0D01*
G01*
X13033500Y-11397500D02*
G75*
G03*
X13033500Y-11397500I-50000J0D01*
G01*
X13287500Y-11397500D02*
G75*
G03*
X13287500Y-11397500I-50000J0D01*
G01*
X13496000Y-5400000D02*
G75*
G03*
X13496000Y-5400000I-50000J0D01*
G01*
X13750000Y-5400000D02*
G75*
G03*
X13750000Y-5400000I-50000J0D01*
G01*
X14250000Y-11300000D02*
G75*
G03*
X14250000Y-11300000I-50000J0D01*
G01*
X14750000Y-6720000D02*
G75*
G03*
X14750000Y-6720000I-50000J0D01*
G01*
X14750000Y-6974000D02*
G75*
G03*
X14750000Y-6974000I-50000J0D01*
G01*
X14750000Y-7228000D02*
G75*
G03*
X14750000Y-7228000I-50000J0D01*
G01*
X14750000Y-7482000D02*
G75*
G03*
X14750000Y-7482000I-50000J0D01*
G01*
X14750000Y-9100000D02*
G75*
G03*
X14750000Y-9100000I-50000J0D01*
G01*
X14750000Y-9354000D02*
G75*
G03*
X14750000Y-9354000I-50000J0D01*
G01*
X14750000Y-9608000D02*
G75*
G03*
X14750000Y-9608000I-50000J0D01*
G01*
X14750000Y-9862000D02*
G75*
G03*
X14750000Y-9862000I-50000J0D01*
G01*
X14750000Y-11300000D02*
G75*
G03*
X14750000Y-11300000I-50000J0D01*
G01*
D13*
X11574500Y-5834500D02*
X11574500Y-5936500D01*
X11523500Y-5885500D02*
X11625500Y-5885500D01*
X11574500Y-6088500D02*
X11574500Y-6190500D01*
X11523500Y-6139500D02*
X11625500Y-6139500D01*
X11574500Y-6342500D02*
X11574500Y-6444500D01*
X11523500Y-6393500D02*
X11625500Y-6393500D01*
X11574500Y-6596500D02*
X11574500Y-6698500D01*
X11523500Y-6647500D02*
X11625500Y-6647500D01*
X11574500Y-6850500D02*
X11574500Y-6952500D01*
X11523500Y-6901500D02*
X11625500Y-6901500D01*
X11574500Y-7104500D02*
X11574500Y-7206500D01*
X11523500Y-7155500D02*
X11625500Y-7155500D01*
X11574500Y-7358500D02*
X11574500Y-7460500D01*
X11523500Y-7409500D02*
X11625500Y-7409500D01*
X11574500Y-7612500D02*
X11574500Y-7714500D01*
X11523500Y-7663500D02*
X11625500Y-7663500D01*
X11574500Y-7866500D02*
X11574500Y-7968500D01*
X11523500Y-7917500D02*
X11625500Y-7917500D01*
X11574500Y-8120500D02*
X11574500Y-8222500D01*
X11523500Y-8171500D02*
X11625500Y-8171500D01*
X11574500Y-8374500D02*
X11574500Y-8476500D01*
X11523500Y-8425500D02*
X11625500Y-8425500D01*
X11574500Y-8628500D02*
X11574500Y-8730500D01*
X11523500Y-8679500D02*
X11625500Y-8679500D01*
X11574500Y-8882500D02*
X11574500Y-8984500D01*
X11523500Y-8933500D02*
X11625500Y-8933500D01*
X11574500Y-9136500D02*
X11574500Y-9238500D01*
X11523500Y-9187500D02*
X11625500Y-9187500D01*
X11574500Y-9390500D02*
X11574500Y-9492500D01*
X11523500Y-9441500D02*
X11625500Y-9441500D01*
X11574500Y-9644500D02*
X11574500Y-9746500D01*
X11523500Y-9695500D02*
X11625500Y-9695500D01*
X11574500Y-9898500D02*
X11574500Y-10000500D01*
X11523500Y-9949500D02*
X11625500Y-9949500D01*
X11574500Y-10152500D02*
X11574500Y-10254500D01*
X11523500Y-10203500D02*
X11625500Y-10203500D01*
X11574500Y-10406500D02*
X11574500Y-10508500D01*
X11523500Y-10457500D02*
X11625500Y-10457500D01*
X11574500Y-10660500D02*
X11574500Y-10762500D01*
X11523500Y-10711500D02*
X11625500Y-10711500D01*
X13352500Y-5834500D02*
X13352500Y-5936500D01*
X13301500Y-5885500D02*
X13403500Y-5885500D01*
X13352500Y-6088500D02*
X13352500Y-6190500D01*
X13301500Y-6139500D02*
X13403500Y-6139500D01*
X13352500Y-6342500D02*
X13352500Y-6444500D01*
X13301500Y-6393500D02*
X13403500Y-6393500D01*
X13352500Y-6596500D02*
X13352500Y-6698500D01*
X13301500Y-6647500D02*
X13403500Y-6647500D01*
X13352500Y-6850500D02*
X13352500Y-6952500D01*
X13301500Y-6901500D02*
X13403500Y-6901500D01*
X13352500Y-7104500D02*
X13352500Y-7206500D01*
X13301500Y-7155500D02*
X13403500Y-7155500D01*
X13352500Y-7358500D02*
X13352500Y-7460500D01*
X13301500Y-7409500D02*
X13403500Y-7409500D01*
X13352500Y-7612500D02*
X13352500Y-7714500D01*
X13301500Y-7663500D02*
X13403500Y-7663500D01*
X13352500Y-7866500D02*
X13352500Y-7968500D01*
X13301500Y-7917500D02*
X13403500Y-7917500D01*
X13352500Y-8120500D02*
X13352500Y-8222500D01*
X13301500Y-8171500D02*
X13403500Y-8171500D01*
X13352500Y-8374500D02*
X13352500Y-8476500D01*
X13301500Y-8425500D02*
X13403500Y-8425500D01*
X13352500Y-8628500D02*
X13352500Y-8730500D01*
X13301500Y-8679500D02*
X13403500Y-8679500D01*
X13352500Y-8882500D02*
X13352500Y-8984500D01*
X13301500Y-8933500D02*
X13403500Y-8933500D01*
X13352500Y-9136500D02*
X13352500Y-9238500D01*
X13301500Y-9187500D02*
X13403500Y-9187500D01*
X13352500Y-9390500D02*
X13352500Y-9492500D01*
X13301500Y-9441500D02*
X13403500Y-9441500D01*
X13352500Y-9644500D02*
X13352500Y-9746500D01*
X13301500Y-9695500D02*
X13403500Y-9695500D01*
X13352500Y-9898500D02*
X13352500Y-10000500D01*
X13301500Y-9949500D02*
X13403500Y-9949500D01*
X13352500Y-10152500D02*
X13352500Y-10254500D01*
X13301500Y-10203500D02*
X13403500Y-10203500D01*
X13352500Y-10406500D02*
X13352500Y-10508500D01*
X13301500Y-10457500D02*
X13403500Y-10457500D01*
X13352500Y-10660500D02*
X13352500Y-10762500D01*
X13301500Y-10711500D02*
X13403500Y-10711500D01*
D14*
X13138891Y-12184891D02*
X13138891Y-12107109D01*
X13061109Y-12107109D01*
X13061109Y-12184891D01*
X13138891Y-12184891D01*
X13138891Y-12692891D02*
X13138891Y-12615109D01*
X13061109Y-12615109D01*
X13061109Y-12692891D01*
X13138891Y-12692891D01*
D15*
X12100000Y-12314300D02*
X12214300Y-12200000D01*
X12100000Y-12085700D01*
X11985700Y-12200000D01*
X12100000Y-12314300D01*
X12100000Y-12784200D02*
X12214300Y-12669900D01*
X12100000Y-12555600D01*
X11985700Y-12669900D01*
X12100000Y-12784200D01*
X12100000Y-13254100D02*
X12214300Y-13139800D01*
X12100000Y-13025500D01*
X11985700Y-13139800D01*
X12100000Y-13254100D01*
D16*
X10085000Y-5385000D02*
X10515000Y-5815000D01*
X10515000Y-5385000D02*
X10085000Y-5815000D01*
X10515000Y-5600000D02*
G75*
G03*
X10515000Y-5600000I-215000J0D01*
G01*
X12185000Y-9485000D02*
X12615000Y-9915000D01*
X12615000Y-9485000D02*
X12185000Y-9915000D01*
X12615000Y-9700000D02*
G75*
G03*
X12615000Y-9700000I-215000J0D01*
G01*
X14485000Y-5385000D02*
X14915000Y-5815000D01*
X14915000Y-5385000D02*
X14485000Y-5815000D01*
X14915000Y-5600000D02*
G75*
G03*
X14915000Y-5600000I-215000J0D01*
G01*
D17*
X10165000Y-12775000D02*
X10615000Y-13225000D01*
X10615000Y-12775000D02*
X10165000Y-13225000D01*
X10390000Y-12775000D02*
X10390000Y-13225000D01*
X10165000Y-13000000D02*
X10615000Y-13000000D01*
X10885000Y-12775000D02*
X11335000Y-13225000D01*
X11335000Y-12775000D02*
X10885000Y-13225000D01*
X11110000Y-12775000D02*
X11110000Y-13225000D01*
X10885000Y-13000000D02*
X11335000Y-13000000D01*
D18*
X10450000Y-11050000D02*
X10950000Y-11550000D01*
X10950000Y-11050000D02*
X10450000Y-11550000D01*
X10876778Y-11476778D02*
X10876778Y-11123222D01*
X10523222Y-11123222D01*
X10523222Y-11476778D01*
X10876778Y-11476778D01*
X12150000Y-7150000D02*
X12650000Y-7650000D01*
X12650000Y-7150000D02*
X12150000Y-7650000D01*
X12576778Y-7576778D02*
X12576778Y-7223222D01*
X12223222Y-7223222D01*
X12223222Y-7576778D01*
X12576778Y-7576778D01*
D11*
X10052619Y-14015476D02*
X10052619Y-13815476D01*
X10100238Y-13815476D01*
X10128810Y-13825000D01*
X10147857Y-13844048D01*
X10157381Y-13863095D01*
X10166905Y-13901190D01*
X10166905Y-13929762D01*
X10157381Y-13967857D01*
X10147857Y-13986905D01*
X10128810Y-14005952D01*
X10100238Y-14015476D01*
X10052619Y-14015476D01*
X10252619Y-14015476D02*
X10252619Y-13882143D01*
X10252619Y-13920238D02*
X10262143Y-13901190D01*
X10271667Y-13891667D01*
X10290714Y-13882143D01*
X10309762Y-13882143D01*
X10376429Y-14015476D02*
X10376429Y-13882143D01*
X10376429Y-13815476D02*
X10366905Y-13825000D01*
X10376429Y-13834524D01*
X10385952Y-13825000D01*
X10376429Y-13815476D01*
X10376429Y-13834524D01*
X10500238Y-14015476D02*
X10481190Y-14005952D01*
X10471667Y-13986905D01*
X10471667Y-13815476D01*
X10605000Y-14015476D02*
X10585952Y-14005952D01*
X10576429Y-13986905D01*
X10576429Y-13815476D01*
X10833571Y-14015476D02*
X10833571Y-13815476D01*
X10900238Y-13958333D01*
X10966905Y-13815476D01*
X10966905Y-14015476D01*
X11147857Y-14015476D02*
X11147857Y-13910714D01*
X11138333Y-13891667D01*
X11119286Y-13882143D01*
X11081190Y-13882143D01*
X11062143Y-13891667D01*
X11147857Y-14005952D02*
X11128810Y-14015476D01*
X11081190Y-14015476D01*
X11062143Y-14005952D01*
X11052619Y-13986905D01*
X11052619Y-13967857D01*
X11062143Y-13948809D01*
X11081190Y-13939286D01*
X11128810Y-13939286D01*
X11147857Y-13929762D01*
X11243095Y-13882143D02*
X11243095Y-14082143D01*
X11243095Y-13891667D02*
X11262143Y-13882143D01*
X11300238Y-13882143D01*
X11319286Y-13891667D01*
X11328809Y-13901190D01*
X11338333Y-13920238D01*
X11338333Y-13977381D01*
X11328809Y-13996428D01*
X11319286Y-14005952D01*
X11300238Y-14015476D01*
X11262143Y-14015476D01*
X11243095Y-14005952D01*
X11424048Y-13996428D02*
X11433571Y-14005952D01*
X11424048Y-14015476D01*
X11414524Y-14005952D01*
X11424048Y-13996428D01*
X11424048Y-14015476D01*
X11424048Y-13891667D02*
X11433571Y-13901190D01*
X11424048Y-13910714D01*
X11414524Y-13901190D01*
X11424048Y-13891667D01*
X11424048Y-13910714D01*
D12*
X9735000Y-14315000D02*
X9795000Y-14375000D01*
X9795000Y-14315000D02*
X9735000Y-14375000D01*
D11*
X10090714Y-14235476D02*
X10109762Y-14235476D01*
X10128810Y-14245000D01*
X10138333Y-14254524D01*
X10147857Y-14273571D01*
X10157381Y-14311667D01*
X10157381Y-14359286D01*
X10147857Y-14397381D01*
X10138333Y-14416428D01*
X10128810Y-14425952D01*
X10109762Y-14435476D01*
X10090714Y-14435476D01*
X10071667Y-14425952D01*
X10062143Y-14416428D01*
X10052619Y-14397381D01*
X10043095Y-14359286D01*
X10043095Y-14311667D01*
X10052619Y-14273571D01*
X10062143Y-14254524D01*
X10071667Y-14245000D01*
X10090714Y-14235476D01*
X10243095Y-14416428D02*
X10252619Y-14425952D01*
X10243095Y-14435476D01*
X10233571Y-14425952D01*
X10243095Y-14416428D01*
X10243095Y-14435476D01*
X10424048Y-14235476D02*
X10385952Y-14235476D01*
X10366905Y-14245000D01*
X10357381Y-14254524D01*
X10338333Y-14283095D01*
X10328810Y-14321190D01*
X10328810Y-14397381D01*
X10338333Y-14416428D01*
X10347857Y-14425952D01*
X10366905Y-14435476D01*
X10405000Y-14435476D01*
X10424048Y-14425952D01*
X10433571Y-14416428D01*
X10443095Y-14397381D01*
X10443095Y-14349762D01*
X10433571Y-14330714D01*
X10424048Y-14321190D01*
X10405000Y-14311667D01*
X10366905Y-14311667D01*
X10347857Y-14321190D01*
X10338333Y-14330714D01*
X10328810Y-14349762D01*
X10566905Y-14235476D02*
X10585952Y-14235476D01*
X10605000Y-14245000D01*
X10614524Y-14254524D01*
X10624048Y-14273571D01*
X10633571Y-14311667D01*
X10633571Y-14359286D01*
X10624048Y-14397381D01*
X10614524Y-14416428D01*
X10605000Y-14425952D01*
X10585952Y-14435476D01*
X10566905Y-14435476D01*
X10547857Y-14425952D01*
X10538333Y-14416428D01*
X10528810Y-14397381D01*
X10519286Y-14359286D01*
X10519286Y-14311667D01*
X10528810Y-14273571D01*
X10538333Y-14254524D01*
X10547857Y-14245000D01*
X10566905Y-14235476D01*
X10757381Y-14235476D02*
X10776429Y-14235476D01*
X10795476Y-14245000D01*
X10805000Y-14254524D01*
X10814524Y-14273571D01*
X10824048Y-14311667D01*
X10824048Y-14359286D01*
X10814524Y-14397381D01*
X10805000Y-14416428D01*
X10795476Y-14425952D01*
X10776429Y-14435476D01*
X10757381Y-14435476D01*
X10738333Y-14425952D01*
X10728810Y-14416428D01*
X10719286Y-14397381D01*
X10709762Y-14359286D01*
X10709762Y-14311667D01*
X10719286Y-14273571D01*
X10728810Y-14254524D01*
X10738333Y-14245000D01*
X10757381Y-14235476D01*
X10909762Y-14435476D02*
X10909762Y-14302143D01*
X10909762Y-14321190D02*
X10919286Y-14311667D01*
X10938333Y-14302143D01*
X10966905Y-14302143D01*
X10985952Y-14311667D01*
X10995476Y-14330714D01*
X10995476Y-14435476D01*
X10995476Y-14330714D02*
X11005000Y-14311667D01*
X11024048Y-14302143D01*
X11052619Y-14302143D01*
X11071667Y-14311667D01*
X11081190Y-14330714D01*
X11081190Y-14435476D01*
X11176429Y-14435476D02*
X11176429Y-14302143D01*
X11176429Y-14321190D02*
X11185952Y-14311667D01*
X11205000Y-14302143D01*
X11233571Y-14302143D01*
X11252619Y-14311667D01*
X11262143Y-14330714D01*
X11262143Y-14435476D01*
X11262143Y-14330714D02*
X11271667Y-14311667D01*
X11290714Y-14302143D01*
X11319286Y-14302143D01*
X11338333Y-14311667D01*
X11347857Y-14330714D01*
X11347857Y-14435476D01*
X11738333Y-14225952D02*
X11566905Y-14483095D01*
X11995476Y-14235476D02*
X12014524Y-14235476D01*
X12033571Y-14245000D01*
X12043095Y-14254524D01*
X12052619Y-14273571D01*
X12062143Y-14311667D01*
X12062143Y-14359286D01*
X12052619Y-14397381D01*
X12043095Y-14416428D01*
X12033571Y-14425952D01*
X12014524Y-14435476D01*
X11995476Y-14435476D01*
X11976428Y-14425952D01*
X11966905Y-14416428D01*
X11957381Y-14397381D01*
X11947857Y-14359286D01*
X11947857Y-14311667D01*
X11957381Y-14273571D01*
X11966905Y-14254524D01*
X11976428Y-14245000D01*
X11995476Y-14235476D01*
X12147857Y-14416428D02*
X12157381Y-14425952D01*
X12147857Y-14435476D01*
X12138333Y-14425952D01*
X12147857Y-14416428D01*
X12147857Y-14435476D01*
X12281190Y-14235476D02*
X12300238Y-14235476D01*
X12319286Y-14245000D01*
X12328809Y-14254524D01*
X12338333Y-14273571D01*
X12347857Y-14311667D01*
X12347857Y-14359286D01*
X12338333Y-14397381D01*
X12328809Y-14416428D01*
X12319286Y-14425952D01*
X12300238Y-14435476D01*
X12281190Y-14435476D01*
X12262143Y-14425952D01*
X12252619Y-14416428D01*
X12243095Y-14397381D01*
X12233571Y-14359286D01*
X12233571Y-14311667D01*
X12243095Y-14273571D01*
X12252619Y-14254524D01*
X12262143Y-14245000D01*
X12281190Y-14235476D01*
X12424048Y-14254524D02*
X12433571Y-14245000D01*
X12452619Y-14235476D01*
X12500238Y-14235476D01*
X12519286Y-14245000D01*
X12528809Y-14254524D01*
X12538333Y-14273571D01*
X12538333Y-14292619D01*
X12528809Y-14321190D01*
X12414524Y-14435476D01*
X12538333Y-14435476D01*
X12605000Y-14235476D02*
X12728809Y-14235476D01*
X12662143Y-14311667D01*
X12690714Y-14311667D01*
X12709762Y-14321190D01*
X12719286Y-14330714D01*
X12728809Y-14349762D01*
X12728809Y-14397381D01*
X12719286Y-14416428D01*
X12709762Y-14425952D01*
X12690714Y-14435476D01*
X12633571Y-14435476D01*
X12614524Y-14425952D01*
X12605000Y-14416428D01*
X12900238Y-14235476D02*
X12862143Y-14235476D01*
X12843095Y-14245000D01*
X12833571Y-14254524D01*
X12814524Y-14283095D01*
X12805000Y-14321190D01*
X12805000Y-14397381D01*
X12814524Y-14416428D01*
X12824048Y-14425952D01*
X12843095Y-14435476D01*
X12881190Y-14435476D01*
X12900238Y-14425952D01*
X12909762Y-14416428D01*
X12919286Y-14397381D01*
X12919286Y-14349762D01*
X12909762Y-14330714D01*
X12900238Y-14321190D01*
X12881190Y-14311667D01*
X12843095Y-14311667D01*
X12824048Y-14321190D01*
X12814524Y-14330714D01*
X12805000Y-14349762D01*
X12995476Y-14235476D02*
X12995476Y-14273571D01*
X13071667Y-14235476D02*
X13071667Y-14273571D01*
X13366905Y-14511667D02*
X13357381Y-14502143D01*
X13338333Y-14473571D01*
X13328809Y-14454524D01*
X13319286Y-14425952D01*
X13309762Y-14378333D01*
X13309762Y-14340238D01*
X13319286Y-14292619D01*
X13328809Y-14264048D01*
X13338333Y-14245000D01*
X13357381Y-14216428D01*
X13366905Y-14206905D01*
X13433571Y-14254524D02*
X13443095Y-14245000D01*
X13462143Y-14235476D01*
X13509762Y-14235476D01*
X13528809Y-14245000D01*
X13538333Y-14254524D01*
X13547857Y-14273571D01*
X13547857Y-14292619D01*
X13538333Y-14321190D01*
X13424048Y-14435476D01*
X13547857Y-14435476D01*
X13719286Y-14302143D02*
X13719286Y-14435476D01*
X13671667Y-14225952D02*
X13624048Y-14368809D01*
X13747857Y-14368809D01*
X13976428Y-14435476D02*
X13976428Y-14235476D01*
X14062143Y-14435476D02*
X14062143Y-14330714D01*
X14052619Y-14311667D01*
X14033571Y-14302143D01*
X14005000Y-14302143D01*
X13985952Y-14311667D01*
X13976428Y-14321190D01*
X14185952Y-14435476D02*
X14166905Y-14425952D01*
X14157381Y-14416428D01*
X14147857Y-14397381D01*
X14147857Y-14340238D01*
X14157381Y-14321190D01*
X14166905Y-14311667D01*
X14185952Y-14302143D01*
X14214524Y-14302143D01*
X14233571Y-14311667D01*
X14243095Y-14321190D01*
X14252619Y-14340238D01*
X14252619Y-14397381D01*
X14243095Y-14416428D01*
X14233571Y-14425952D01*
X14214524Y-14435476D01*
X14185952Y-14435476D01*
X14366905Y-14435476D02*
X14347857Y-14425952D01*
X14338333Y-14406905D01*
X14338333Y-14235476D01*
X14519286Y-14425952D02*
X14500238Y-14435476D01*
X14462143Y-14435476D01*
X14443095Y-14425952D01*
X14433571Y-14406905D01*
X14433571Y-14330714D01*
X14443095Y-14311667D01*
X14462143Y-14302143D01*
X14500238Y-14302143D01*
X14519286Y-14311667D01*
X14528809Y-14330714D01*
X14528809Y-14349762D01*
X14433571Y-14368809D01*
X14605000Y-14425952D02*
X14624048Y-14435476D01*
X14662143Y-14435476D01*
X14681190Y-14425952D01*
X14690714Y-14406905D01*
X14690714Y-14397381D01*
X14681190Y-14378333D01*
X14662143Y-14368809D01*
X14633571Y-14368809D01*
X14614524Y-14359286D01*
X14605000Y-14340238D01*
X14605000Y-14330714D01*
X14614524Y-14311667D01*
X14633571Y-14302143D01*
X14662143Y-14302143D01*
X14681190Y-14311667D01*
X14757381Y-14511667D02*
X14766905Y-14502143D01*
X14785952Y-14473571D01*
X14795476Y-14454524D01*
X14805000Y-14425952D01*
X14814524Y-14378333D01*
X14814524Y-14340238D01*
X14805000Y-14292619D01*
X14795476Y-14264048D01*
X14785952Y-14245000D01*
X14766905Y-14216428D01*
X14757381Y-14206905D01*
D10*
X9795000Y-14609000D02*
G75*
G03*
X9795000Y-14609000I-50000J0D01*
G01*
D11*
X10157381Y-14699476D02*
X10043095Y-14699476D01*
X10100238Y-14699476D02*
X10100238Y-14499476D01*
X10081190Y-14528048D01*
X10062143Y-14547095D01*
X10043095Y-14556619D01*
X10243095Y-14680428D02*
X10252619Y-14689952D01*
X10243095Y-14699476D01*
X10233571Y-14689952D01*
X10243095Y-14680428D01*
X10243095Y-14699476D01*
X10376429Y-14499476D02*
X10395476Y-14499476D01*
X10414524Y-14509000D01*
X10424048Y-14518524D01*
X10433571Y-14537571D01*
X10443095Y-14575667D01*
X10443095Y-14623286D01*
X10433571Y-14661381D01*
X10424048Y-14680428D01*
X10414524Y-14689952D01*
X10395476Y-14699476D01*
X10376429Y-14699476D01*
X10357381Y-14689952D01*
X10347857Y-14680428D01*
X10338333Y-14661381D01*
X10328810Y-14623286D01*
X10328810Y-14575667D01*
X10338333Y-14537571D01*
X10347857Y-14518524D01*
X10357381Y-14509000D01*
X10376429Y-14499476D01*
X10566905Y-14499476D02*
X10585952Y-14499476D01*
X10605000Y-14509000D01*
X10614524Y-14518524D01*
X10624048Y-14537571D01*
X10633571Y-14575667D01*
X10633571Y-14623286D01*
X10624048Y-14661381D01*
X10614524Y-14680428D01*
X10605000Y-14689952D01*
X10585952Y-14699476D01*
X10566905Y-14699476D01*
X10547857Y-14689952D01*
X10538333Y-14680428D01*
X10528810Y-14661381D01*
X10519286Y-14623286D01*
X10519286Y-14575667D01*
X10528810Y-14537571D01*
X10538333Y-14518524D01*
X10547857Y-14509000D01*
X10566905Y-14499476D01*
X10757381Y-14499476D02*
X10776429Y-14499476D01*
X10795476Y-14509000D01*
X10805000Y-14518524D01*
X10814524Y-14537571D01*
X10824048Y-14575667D01*
X10824048Y-14623286D01*
X10814524Y-14661381D01*
X10805000Y-14680428D01*
X10795476Y-14689952D01*
X10776429Y-14699476D01*
X10757381Y-14699476D01*
X10738333Y-14689952D01*
X10728810Y-14680428D01*
X10719286Y-14661381D01*
X10709762Y-14623286D01*
X10709762Y-14575667D01*
X10719286Y-14537571D01*
X10728810Y-14518524D01*
X10738333Y-14509000D01*
X10757381Y-14499476D01*
X10909762Y-14699476D02*
X10909762Y-14566143D01*
X10909762Y-14585190D02*
X10919286Y-14575667D01*
X10938333Y-14566143D01*
X10966905Y-14566143D01*
X10985952Y-14575667D01*
X10995476Y-14594714D01*
X10995476Y-14699476D01*
X10995476Y-14594714D02*
X11005000Y-14575667D01*
X11024048Y-14566143D01*
X11052619Y-14566143D01*
X11071667Y-14575667D01*
X11081190Y-14594714D01*
X11081190Y-14699476D01*
X11176429Y-14699476D02*
X11176429Y-14566143D01*
X11176429Y-14585190D02*
X11185952Y-14575667D01*
X11205000Y-14566143D01*
X11233571Y-14566143D01*
X11252619Y-14575667D01*
X11262143Y-14594714D01*
X11262143Y-14699476D01*
X11262143Y-14594714D02*
X11271667Y-14575667D01*
X11290714Y-14566143D01*
X11319286Y-14566143D01*
X11338333Y-14575667D01*
X11347857Y-14594714D01*
X11347857Y-14699476D01*
X11738333Y-14489952D02*
X11566905Y-14747095D01*
X11995476Y-14499476D02*
X12014524Y-14499476D01*
X12033571Y-14509000D01*
X12043095Y-14518524D01*
X12052619Y-14537571D01*
X12062143Y-14575667D01*
X12062143Y-14623286D01*
X12052619Y-14661381D01*
X12043095Y-14680428D01*
X12033571Y-14689952D01*
X12014524Y-14699476D01*
X11995476Y-14699476D01*
X11976428Y-14689952D01*
X11966905Y-14680428D01*
X11957381Y-14661381D01*
X11947857Y-14623286D01*
X11947857Y-14575667D01*
X11957381Y-14537571D01*
X11966905Y-14518524D01*
X11976428Y-14509000D01*
X11995476Y-14499476D01*
X12147857Y-14680428D02*
X12157381Y-14689952D01*
X12147857Y-14699476D01*
X12138333Y-14689952D01*
X12147857Y-14680428D01*
X12147857Y-14699476D01*
X12281190Y-14499476D02*
X12300238Y-14499476D01*
X12319286Y-14509000D01*
X12328809Y-14518524D01*
X12338333Y-14537571D01*
X12347857Y-14575667D01*
X12347857Y-14623286D01*
X12338333Y-14661381D01*
X12328809Y-14680428D01*
X12319286Y-14689952D01*
X12300238Y-14699476D01*
X12281190Y-14699476D01*
X12262143Y-14689952D01*
X12252619Y-14680428D01*
X12243095Y-14661381D01*
X12233571Y-14623286D01*
X12233571Y-14575667D01*
X12243095Y-14537571D01*
X12252619Y-14518524D01*
X12262143Y-14509000D01*
X12281190Y-14499476D01*
X12414524Y-14499476D02*
X12538333Y-14499476D01*
X12471667Y-14575667D01*
X12500238Y-14575667D01*
X12519286Y-14585190D01*
X12528809Y-14594714D01*
X12538333Y-14613762D01*
X12538333Y-14661381D01*
X12528809Y-14680428D01*
X12519286Y-14689952D01*
X12500238Y-14699476D01*
X12443095Y-14699476D01*
X12424048Y-14689952D01*
X12414524Y-14680428D01*
X12633571Y-14699476D02*
X12671667Y-14699476D01*
X12690714Y-14689952D01*
X12700238Y-14680428D01*
X12719286Y-14651857D01*
X12728809Y-14613762D01*
X12728809Y-14537571D01*
X12719286Y-14518524D01*
X12709762Y-14509000D01*
X12690714Y-14499476D01*
X12652619Y-14499476D01*
X12633571Y-14509000D01*
X12624048Y-14518524D01*
X12614524Y-14537571D01*
X12614524Y-14585190D01*
X12624048Y-14604238D01*
X12633571Y-14613762D01*
X12652619Y-14623286D01*
X12690714Y-14623286D01*
X12709762Y-14613762D01*
X12719286Y-14604238D01*
X12728809Y-14585190D01*
X12900238Y-14566143D02*
X12900238Y-14699476D01*
X12852619Y-14489952D02*
X12805000Y-14632809D01*
X12928809Y-14632809D01*
X12995476Y-14499476D02*
X12995476Y-14537571D01*
X13071667Y-14499476D02*
X13071667Y-14537571D01*
X13366905Y-14775667D02*
X13357381Y-14766143D01*
X13338333Y-14737571D01*
X13328809Y-14718524D01*
X13319286Y-14689952D01*
X13309762Y-14642333D01*
X13309762Y-14604238D01*
X13319286Y-14556619D01*
X13328809Y-14528048D01*
X13338333Y-14509000D01*
X13357381Y-14480428D01*
X13366905Y-14470905D01*
X13424048Y-14499476D02*
X13547857Y-14499476D01*
X13481190Y-14575667D01*
X13509762Y-14575667D01*
X13528809Y-14585190D01*
X13538333Y-14594714D01*
X13547857Y-14613762D01*
X13547857Y-14661381D01*
X13538333Y-14680428D01*
X13528809Y-14689952D01*
X13509762Y-14699476D01*
X13452619Y-14699476D01*
X13433571Y-14689952D01*
X13424048Y-14680428D01*
X13671667Y-14499476D02*
X13690714Y-14499476D01*
X13709762Y-14509000D01*
X13719286Y-14518524D01*
X13728809Y-14537571D01*
X13738333Y-14575667D01*
X13738333Y-14623286D01*
X13728809Y-14661381D01*
X13719286Y-14680428D01*
X13709762Y-14689952D01*
X13690714Y-14699476D01*
X13671667Y-14699476D01*
X13652619Y-14689952D01*
X13643095Y-14680428D01*
X13633571Y-14661381D01*
X13624048Y-14623286D01*
X13624048Y-14575667D01*
X13633571Y-14537571D01*
X13643095Y-14518524D01*
X13652619Y-14509000D01*
X13671667Y-14499476D01*
X13976428Y-14699476D02*
X13976428Y-14499476D01*
X14062143Y-14699476D02*
X14062143Y-14594714D01*
X14052619Y-14575667D01*
X14033571Y-14566143D01*
X14005000Y-14566143D01*
X13985952Y-14575667D01*
X13976428Y-14585190D01*
X14185952Y-14699476D02*
X14166905Y-14689952D01*
X14157381Y-14680428D01*
X14147857Y-14661381D01*
X14147857Y-14604238D01*
X14157381Y-14585190D01*
X14166905Y-14575667D01*
X14185952Y-14566143D01*
X14214524Y-14566143D01*
X14233571Y-14575667D01*
X14243095Y-14585190D01*
X14252619Y-14604238D01*
X14252619Y-14661381D01*
X14243095Y-14680428D01*
X14233571Y-14689952D01*
X14214524Y-14699476D01*
X14185952Y-14699476D01*
X14366905Y-14699476D02*
X14347857Y-14689952D01*
X14338333Y-14670905D01*
X14338333Y-14499476D01*
X14519286Y-14689952D02*
X14500238Y-14699476D01*
X14462143Y-14699476D01*
X14443095Y-14689952D01*
X14433571Y-14670905D01*
X14433571Y-14594714D01*
X14443095Y-14575667D01*
X14462143Y-14566143D01*
X14500238Y-14566143D01*
X14519286Y-14575667D01*
X14528809Y-14594714D01*
X14528809Y-14613762D01*
X14433571Y-14632809D01*
X14605000Y-14689952D02*
X14624048Y-14699476D01*
X14662143Y-14699476D01*
X14681190Y-14689952D01*
X14690714Y-14670905D01*
X14690714Y-14661381D01*
X14681190Y-14642333D01*
X14662143Y-14632809D01*
X14633571Y-14632809D01*
X14614524Y-14623286D01*
X14605000Y-14604238D01*
X14605000Y-14594714D01*
X14614524Y-14575667D01*
X14633571Y-14566143D01*
X14662143Y-14566143D01*
X14681190Y-14575667D01*
X14757381Y-14775667D02*
X14766905Y-14766143D01*
X14785952Y-14737571D01*
X14795476Y-14718524D01*
X14805000Y-14689952D01*
X14814524Y-14642333D01*
X14814524Y-14604238D01*
X14805000Y-14556619D01*
X14795476Y-14528048D01*
X14785952Y-14509000D01*
X14766905Y-14480428D01*
X14757381Y-14470905D01*
D13*
X9744000Y-14822000D02*
X9744000Y-14924000D01*
X9693000Y-14873000D02*
X9795000Y-14873000D01*
D11*
X10157381Y-14963476D02*
X10043095Y-14963476D01*
X10100238Y-14963476D02*
X10100238Y-14763476D01*
X10081190Y-14792048D01*
X10062143Y-14811095D01*
X10043095Y-14820619D01*
X10243095Y-14944428D02*
X10252619Y-14953952D01*
X10243095Y-14963476D01*
X10233571Y-14953952D01*
X10243095Y-14944428D01*
X10243095Y-14963476D01*
X10376429Y-14763476D02*
X10395476Y-14763476D01*
X10414524Y-14773000D01*
X10424048Y-14782524D01*
X10433571Y-14801571D01*
X10443095Y-14839667D01*
X10443095Y-14887286D01*
X10433571Y-14925381D01*
X10424048Y-14944428D01*
X10414524Y-14953952D01*
X10395476Y-14963476D01*
X10376429Y-14963476D01*
X10357381Y-14953952D01*
X10347857Y-14944428D01*
X10338333Y-14925381D01*
X10328810Y-14887286D01*
X10328810Y-14839667D01*
X10338333Y-14801571D01*
X10347857Y-14782524D01*
X10357381Y-14773000D01*
X10376429Y-14763476D01*
X10519286Y-14782524D02*
X10528810Y-14773000D01*
X10547857Y-14763476D01*
X10595476Y-14763476D01*
X10614524Y-14773000D01*
X10624048Y-14782524D01*
X10633571Y-14801571D01*
X10633571Y-14820619D01*
X10624048Y-14849190D01*
X10509762Y-14963476D01*
X10633571Y-14963476D01*
X10757381Y-14763476D02*
X10776429Y-14763476D01*
X10795476Y-14773000D01*
X10805000Y-14782524D01*
X10814524Y-14801571D01*
X10824048Y-14839667D01*
X10824048Y-14887286D01*
X10814524Y-14925381D01*
X10805000Y-14944428D01*
X10795476Y-14953952D01*
X10776429Y-14963476D01*
X10757381Y-14963476D01*
X10738333Y-14953952D01*
X10728810Y-14944428D01*
X10719286Y-14925381D01*
X10709762Y-14887286D01*
X10709762Y-14839667D01*
X10719286Y-14801571D01*
X10728810Y-14782524D01*
X10738333Y-14773000D01*
X10757381Y-14763476D01*
X10909762Y-14963476D02*
X10909762Y-14830143D01*
X10909762Y-14849190D02*
X10919286Y-14839667D01*
X10938333Y-14830143D01*
X10966905Y-14830143D01*
X10985952Y-14839667D01*
X10995476Y-14858714D01*
X10995476Y-14963476D01*
X10995476Y-14858714D02*
X11005000Y-14839667D01*
X11024048Y-14830143D01*
X11052619Y-14830143D01*
X11071667Y-14839667D01*
X11081190Y-14858714D01*
X11081190Y-14963476D01*
X11176429Y-14963476D02*
X11176429Y-14830143D01*
X11176429Y-14849190D02*
X11185952Y-14839667D01*
X11205000Y-14830143D01*
X11233571Y-14830143D01*
X11252619Y-14839667D01*
X11262143Y-14858714D01*
X11262143Y-14963476D01*
X11262143Y-14858714D02*
X11271667Y-14839667D01*
X11290714Y-14830143D01*
X11319286Y-14830143D01*
X11338333Y-14839667D01*
X11347857Y-14858714D01*
X11347857Y-14963476D01*
X11738333Y-14753952D02*
X11566905Y-15011095D01*
X11995476Y-14763476D02*
X12014524Y-14763476D01*
X12033571Y-14773000D01*
X12043095Y-14782524D01*
X12052619Y-14801571D01*
X12062143Y-14839667D01*
X12062143Y-14887286D01*
X12052619Y-14925381D01*
X12043095Y-14944428D01*
X12033571Y-14953952D01*
X12014524Y-14963476D01*
X11995476Y-14963476D01*
X11976428Y-14953952D01*
X11966905Y-14944428D01*
X11957381Y-14925381D01*
X11947857Y-14887286D01*
X11947857Y-14839667D01*
X11957381Y-14801571D01*
X11966905Y-14782524D01*
X11976428Y-14773000D01*
X11995476Y-14763476D01*
X12147857Y-14944428D02*
X12157381Y-14953952D01*
X12147857Y-14963476D01*
X12138333Y-14953952D01*
X12147857Y-14944428D01*
X12147857Y-14963476D01*
X12281190Y-14763476D02*
X12300238Y-14763476D01*
X12319286Y-14773000D01*
X12328809Y-14782524D01*
X12338333Y-14801571D01*
X12347857Y-14839667D01*
X12347857Y-14887286D01*
X12338333Y-14925381D01*
X12328809Y-14944428D01*
X12319286Y-14953952D01*
X12300238Y-14963476D01*
X12281190Y-14963476D01*
X12262143Y-14953952D01*
X12252619Y-14944428D01*
X12243095Y-14925381D01*
X12233571Y-14887286D01*
X12233571Y-14839667D01*
X12243095Y-14801571D01*
X12252619Y-14782524D01*
X12262143Y-14773000D01*
X12281190Y-14763476D01*
X12519286Y-14830143D02*
X12519286Y-14963476D01*
X12471667Y-14753952D02*
X12424048Y-14896809D01*
X12547857Y-14896809D01*
X12662143Y-14763476D02*
X12681190Y-14763476D01*
X12700238Y-14773000D01*
X12709762Y-14782524D01*
X12719286Y-14801571D01*
X12728809Y-14839667D01*
X12728809Y-14887286D01*
X12719286Y-14925381D01*
X12709762Y-14944428D01*
X12700238Y-14953952D01*
X12681190Y-14963476D01*
X12662143Y-14963476D01*
X12643095Y-14953952D01*
X12633571Y-14944428D01*
X12624048Y-14925381D01*
X12614524Y-14887286D01*
X12614524Y-14839667D01*
X12624048Y-14801571D01*
X12633571Y-14782524D01*
X12643095Y-14773000D01*
X12662143Y-14763476D01*
X12805000Y-14782524D02*
X12814524Y-14773000D01*
X12833571Y-14763476D01*
X12881190Y-14763476D01*
X12900238Y-14773000D01*
X12909762Y-14782524D01*
X12919286Y-14801571D01*
X12919286Y-14820619D01*
X12909762Y-14849190D01*
X12795476Y-14963476D01*
X12919286Y-14963476D01*
X12995476Y-14763476D02*
X12995476Y-14801571D01*
X13071667Y-14763476D02*
X13071667Y-14801571D01*
X13366905Y-15039667D02*
X13357381Y-15030143D01*
X13338333Y-15001571D01*
X13328809Y-14982524D01*
X13319286Y-14953952D01*
X13309762Y-14906333D01*
X13309762Y-14868238D01*
X13319286Y-14820619D01*
X13328809Y-14792048D01*
X13338333Y-14773000D01*
X13357381Y-14744428D01*
X13366905Y-14734905D01*
X13528809Y-14830143D02*
X13528809Y-14963476D01*
X13481190Y-14753952D02*
X13433571Y-14896809D01*
X13557381Y-14896809D01*
X13671667Y-14763476D02*
X13690714Y-14763476D01*
X13709762Y-14773000D01*
X13719286Y-14782524D01*
X13728809Y-14801571D01*
X13738333Y-14839667D01*
X13738333Y-14887286D01*
X13728809Y-14925381D01*
X13719286Y-14944428D01*
X13709762Y-14953952D01*
X13690714Y-14963476D01*
X13671667Y-14963476D01*
X13652619Y-14953952D01*
X13643095Y-14944428D01*
X13633571Y-14925381D01*
X13624048Y-14887286D01*
X13624048Y-14839667D01*
X13633571Y-14801571D01*
X13643095Y-14782524D01*
X13652619Y-14773000D01*
X13671667Y-14763476D01*
X13976428Y-14963476D02*
X13976428Y-14763476D01*
X14062143Y-14963476D02*
X14062143Y-14858714D01*
X14052619Y-14839667D01*
X14033571Y-14830143D01*
X14005000Y-14830143D01*
X13985952Y-14839667D01*
X13976428Y-14849190D01*
X14185952Y-14963476D02*
X14166905Y-14953952D01*
X14157381Y-14944428D01*
X14147857Y-14925381D01*
X14147857Y-14868238D01*
X14157381Y-14849190D01*
X14166905Y-14839667D01*
X14185952Y-14830143D01*
X14214524Y-14830143D01*
X14233571Y-14839667D01*
X14243095Y-14849190D01*
X14252619Y-14868238D01*
X14252619Y-14925381D01*
X14243095Y-14944428D01*
X14233571Y-14953952D01*
X14214524Y-14963476D01*
X14185952Y-14963476D01*
X14366905Y-14963476D02*
X14347857Y-14953952D01*
X14338333Y-14934905D01*
X14338333Y-14763476D01*
X14519286Y-14953952D02*
X14500238Y-14963476D01*
X14462143Y-14963476D01*
X14443095Y-14953952D01*
X14433571Y-14934905D01*
X14433571Y-14858714D01*
X14443095Y-14839667D01*
X14462143Y-14830143D01*
X14500238Y-14830143D01*
X14519286Y-14839667D01*
X14528809Y-14858714D01*
X14528809Y-14877762D01*
X14433571Y-14896809D01*
X14605000Y-14953952D02*
X14624048Y-14963476D01*
X14662143Y-14963476D01*
X14681190Y-14953952D01*
X14690714Y-14934905D01*
X14690714Y-14925381D01*
X14681190Y-14906333D01*
X14662143Y-14896809D01*
X14633571Y-14896809D01*
X14614524Y-14887286D01*
X14605000Y-14868238D01*
X14605000Y-14858714D01*
X14614524Y-14839667D01*
X14633571Y-14830143D01*
X14662143Y-14830143D01*
X14681190Y-14839667D01*
X14757381Y-15039667D02*
X14766905Y-15030143D01*
X14785952Y-15001571D01*
X14795476Y-14982524D01*
X14805000Y-14953952D01*
X14814524Y-14906333D01*
X14814524Y-14868238D01*
X14805000Y-14820619D01*
X14795476Y-14792048D01*
X14785952Y-14773000D01*
X14766905Y-14744428D01*
X14757381Y-14734905D01*
D14*
X9778891Y-15175891D02*
X9778891Y-15098109D01*
X9701109Y-15098109D01*
X9701109Y-15175891D01*
X9778891Y-15175891D01*
D11*
X10157381Y-15227476D02*
X10043095Y-15227476D01*
X10100238Y-15227476D02*
X10100238Y-15027476D01*
X10081190Y-15056048D01*
X10062143Y-15075095D01*
X10043095Y-15084619D01*
X10243095Y-15208428D02*
X10252619Y-15217952D01*
X10243095Y-15227476D01*
X10233571Y-15217952D01*
X10243095Y-15208428D01*
X10243095Y-15227476D01*
X10443095Y-15227476D02*
X10328810Y-15227476D01*
X10385952Y-15227476D02*
X10385952Y-15027476D01*
X10366905Y-15056048D01*
X10347857Y-15075095D01*
X10328810Y-15084619D01*
X10566905Y-15027476D02*
X10585952Y-15027476D01*
X10605000Y-15037000D01*
X10614524Y-15046524D01*
X10624048Y-15065571D01*
X10633571Y-15103667D01*
X10633571Y-15151286D01*
X10624048Y-15189381D01*
X10614524Y-15208428D01*
X10605000Y-15217952D01*
X10585952Y-15227476D01*
X10566905Y-15227476D01*
X10547857Y-15217952D01*
X10538333Y-15208428D01*
X10528810Y-15189381D01*
X10519286Y-15151286D01*
X10519286Y-15103667D01*
X10528810Y-15065571D01*
X10538333Y-15046524D01*
X10547857Y-15037000D01*
X10566905Y-15027476D01*
X10757381Y-15027476D02*
X10776429Y-15027476D01*
X10795476Y-15037000D01*
X10805000Y-15046524D01*
X10814524Y-15065571D01*
X10824048Y-15103667D01*
X10824048Y-15151286D01*
X10814524Y-15189381D01*
X10805000Y-15208428D01*
X10795476Y-15217952D01*
X10776429Y-15227476D01*
X10757381Y-15227476D01*
X10738333Y-15217952D01*
X10728810Y-15208428D01*
X10719286Y-15189381D01*
X10709762Y-15151286D01*
X10709762Y-15103667D01*
X10719286Y-15065571D01*
X10728810Y-15046524D01*
X10738333Y-15037000D01*
X10757381Y-15027476D01*
X10909762Y-15227476D02*
X10909762Y-15094143D01*
X10909762Y-15113190D02*
X10919286Y-15103667D01*
X10938333Y-15094143D01*
X10966905Y-15094143D01*
X10985952Y-15103667D01*
X10995476Y-15122714D01*
X10995476Y-15227476D01*
X10995476Y-15122714D02*
X11005000Y-15103667D01*
X11024048Y-15094143D01*
X11052619Y-15094143D01*
X11071667Y-15103667D01*
X11081190Y-15122714D01*
X11081190Y-15227476D01*
X11176429Y-15227476D02*
X11176429Y-15094143D01*
X11176429Y-15113190D02*
X11185952Y-15103667D01*
X11205000Y-15094143D01*
X11233571Y-15094143D01*
X11252619Y-15103667D01*
X11262143Y-15122714D01*
X11262143Y-15227476D01*
X11262143Y-15122714D02*
X11271667Y-15103667D01*
X11290714Y-15094143D01*
X11319286Y-15094143D01*
X11338333Y-15103667D01*
X11347857Y-15122714D01*
X11347857Y-15227476D01*
X11738333Y-15017952D02*
X11566905Y-15275095D01*
X11995476Y-15027476D02*
X12014524Y-15027476D01*
X12033571Y-15037000D01*
X12043095Y-15046524D01*
X12052619Y-15065571D01*
X12062143Y-15103667D01*
X12062143Y-15151286D01*
X12052619Y-15189381D01*
X12043095Y-15208428D01*
X12033571Y-15217952D01*
X12014524Y-15227476D01*
X11995476Y-15227476D01*
X11976428Y-15217952D01*
X11966905Y-15208428D01*
X11957381Y-15189381D01*
X11947857Y-15151286D01*
X11947857Y-15103667D01*
X11957381Y-15065571D01*
X11966905Y-15046524D01*
X11976428Y-15037000D01*
X11995476Y-15027476D01*
X12147857Y-15208428D02*
X12157381Y-15217952D01*
X12147857Y-15227476D01*
X12138333Y-15217952D01*
X12147857Y-15208428D01*
X12147857Y-15227476D01*
X12281190Y-15027476D02*
X12300238Y-15027476D01*
X12319286Y-15037000D01*
X12328809Y-15046524D01*
X12338333Y-15065571D01*
X12347857Y-15103667D01*
X12347857Y-15151286D01*
X12338333Y-15189381D01*
X12328809Y-15208428D01*
X12319286Y-15217952D01*
X12300238Y-15227476D01*
X12281190Y-15227476D01*
X12262143Y-15217952D01*
X12252619Y-15208428D01*
X12243095Y-15189381D01*
X12233571Y-15151286D01*
X12233571Y-15103667D01*
X12243095Y-15065571D01*
X12252619Y-15046524D01*
X12262143Y-15037000D01*
X12281190Y-15027476D01*
X12519286Y-15094143D02*
X12519286Y-15227476D01*
X12471667Y-15017952D02*
X12424048Y-15160809D01*
X12547857Y-15160809D01*
X12605000Y-15027476D02*
X12728809Y-15027476D01*
X12662143Y-15103667D01*
X12690714Y-15103667D01*
X12709762Y-15113190D01*
X12719286Y-15122714D01*
X12728809Y-15141762D01*
X12728809Y-15189381D01*
X12719286Y-15208428D01*
X12709762Y-15217952D01*
X12690714Y-15227476D01*
X12633571Y-15227476D01*
X12614524Y-15217952D01*
X12605000Y-15208428D01*
X12795476Y-15027476D02*
X12919286Y-15027476D01*
X12852619Y-15103667D01*
X12881190Y-15103667D01*
X12900238Y-15113190D01*
X12909762Y-15122714D01*
X12919286Y-15141762D01*
X12919286Y-15189381D01*
X12909762Y-15208428D01*
X12900238Y-15217952D01*
X12881190Y-15227476D01*
X12824048Y-15227476D01*
X12805000Y-15217952D01*
X12795476Y-15208428D01*
X12995476Y-15027476D02*
X12995476Y-15065571D01*
X13071667Y-15027476D02*
X13071667Y-15065571D01*
X13366905Y-15303667D02*
X13357381Y-15294143D01*
X13338333Y-15265571D01*
X13328809Y-15246524D01*
X13319286Y-15217952D01*
X13309762Y-15170333D01*
X13309762Y-15132238D01*
X13319286Y-15084619D01*
X13328809Y-15056048D01*
X13338333Y-15037000D01*
X13357381Y-15008428D01*
X13366905Y-14998905D01*
X13433571Y-15046524D02*
X13443095Y-15037000D01*
X13462143Y-15027476D01*
X13509762Y-15027476D01*
X13528809Y-15037000D01*
X13538333Y-15046524D01*
X13547857Y-15065571D01*
X13547857Y-15084619D01*
X13538333Y-15113190D01*
X13424048Y-15227476D01*
X13547857Y-15227476D01*
X13785952Y-15227476D02*
X13785952Y-15027476D01*
X13871667Y-15227476D02*
X13871667Y-15122714D01*
X13862143Y-15103667D01*
X13843095Y-15094143D01*
X13814524Y-15094143D01*
X13795476Y-15103667D01*
X13785952Y-15113190D01*
X13995476Y-15227476D02*
X13976428Y-15217952D01*
X13966905Y-15208428D01*
X13957381Y-15189381D01*
X13957381Y-15132238D01*
X13966905Y-15113190D01*
X13976428Y-15103667D01*
X13995476Y-15094143D01*
X14024048Y-15094143D01*
X14043095Y-15103667D01*
X14052619Y-15113190D01*
X14062143Y-15132238D01*
X14062143Y-15189381D01*
X14052619Y-15208428D01*
X14043095Y-15217952D01*
X14024048Y-15227476D01*
X13995476Y-15227476D01*
X14176428Y-15227476D02*
X14157381Y-15217952D01*
X14147857Y-15198905D01*
X14147857Y-15027476D01*
X14328809Y-15217952D02*
X14309762Y-15227476D01*
X14271667Y-15227476D01*
X14252619Y-15217952D01*
X14243095Y-15198905D01*
X14243095Y-15122714D01*
X14252619Y-15103667D01*
X14271667Y-15094143D01*
X14309762Y-15094143D01*
X14328809Y-15103667D01*
X14338333Y-15122714D01*
X14338333Y-15141762D01*
X14243095Y-15160809D01*
X14414524Y-15217952D02*
X14433571Y-15227476D01*
X14471667Y-15227476D01*
X14490714Y-15217952D01*
X14500238Y-15198905D01*
X14500238Y-15189381D01*
X14490714Y-15170333D01*
X14471667Y-15160809D01*
X14443095Y-15160809D01*
X14424048Y-15151286D01*
X14414524Y-15132238D01*
X14414524Y-15122714D01*
X14424048Y-15103667D01*
X14443095Y-15094143D01*
X14471667Y-15094143D01*
X14490714Y-15103667D01*
X14566905Y-15303667D02*
X14576428Y-15294143D01*
X14595476Y-15265571D01*
X14605000Y-15246524D01*
X14614524Y-15217952D01*
X14624048Y-15170333D01*
X14624048Y-15132238D01*
X14614524Y-15084619D01*
X14605000Y-15056048D01*
X14595476Y-15037000D01*
X14576428Y-15008428D01*
X14566905Y-14998905D01*
X9695000Y-15501000D02*
X9795000Y-15401000D01*
X9695000Y-15301000D01*
X9595000Y-15401000D01*
X9695000Y-15501000D01*
X10043095Y-15310524D02*
X10052619Y-15301000D01*
X10071667Y-15291476D01*
X10119286Y-15291476D01*
X10138333Y-15301000D01*
X10147857Y-15310524D01*
X10157381Y-15329571D01*
X10157381Y-15348619D01*
X10147857Y-15377190D01*
X10033571Y-15491476D01*
X10157381Y-15491476D01*
X10243095Y-15472428D02*
X10252619Y-15481952D01*
X10243095Y-15491476D01*
X10233571Y-15481952D01*
X10243095Y-15472428D01*
X10243095Y-15491476D01*
X10328810Y-15310524D02*
X10338333Y-15301000D01*
X10357381Y-15291476D01*
X10405000Y-15291476D01*
X10424048Y-15301000D01*
X10433571Y-15310524D01*
X10443095Y-15329571D01*
X10443095Y-15348619D01*
X10433571Y-15377190D01*
X10319286Y-15491476D01*
X10443095Y-15491476D01*
X10557381Y-15377190D02*
X10538333Y-15367667D01*
X10528810Y-15358143D01*
X10519286Y-15339095D01*
X10519286Y-15329571D01*
X10528810Y-15310524D01*
X10538333Y-15301000D01*
X10557381Y-15291476D01*
X10595476Y-15291476D01*
X10614524Y-15301000D01*
X10624048Y-15310524D01*
X10633571Y-15329571D01*
X10633571Y-15339095D01*
X10624048Y-15358143D01*
X10614524Y-15367667D01*
X10595476Y-15377190D01*
X10557381Y-15377190D01*
X10538333Y-15386714D01*
X10528810Y-15396238D01*
X10519286Y-15415286D01*
X10519286Y-15453381D01*
X10528810Y-15472428D01*
X10538333Y-15481952D01*
X10557381Y-15491476D01*
X10595476Y-15491476D01*
X10614524Y-15481952D01*
X10624048Y-15472428D01*
X10633571Y-15453381D01*
X10633571Y-15415286D01*
X10624048Y-15396238D01*
X10614524Y-15386714D01*
X10595476Y-15377190D01*
X10805000Y-15291476D02*
X10766905Y-15291476D01*
X10747857Y-15301000D01*
X10738333Y-15310524D01*
X10719286Y-15339095D01*
X10709762Y-15377190D01*
X10709762Y-15453381D01*
X10719286Y-15472428D01*
X10728810Y-15481952D01*
X10747857Y-15491476D01*
X10785952Y-15491476D01*
X10805000Y-15481952D01*
X10814524Y-15472428D01*
X10824048Y-15453381D01*
X10824048Y-15405762D01*
X10814524Y-15386714D01*
X10805000Y-15377190D01*
X10785952Y-15367667D01*
X10747857Y-15367667D01*
X10728810Y-15377190D01*
X10719286Y-15386714D01*
X10709762Y-15405762D01*
X10909762Y-15491476D02*
X10909762Y-15358143D01*
X10909762Y-15377190D02*
X10919286Y-15367667D01*
X10938333Y-15358143D01*
X10966905Y-15358143D01*
X10985952Y-15367667D01*
X10995476Y-15386714D01*
X10995476Y-15491476D01*
X10995476Y-15386714D02*
X11005000Y-15367667D01*
X11024048Y-15358143D01*
X11052619Y-15358143D01*
X11071667Y-15367667D01*
X11081190Y-15386714D01*
X11081190Y-15491476D01*
X11176429Y-15491476D02*
X11176429Y-15358143D01*
X11176429Y-15377190D02*
X11185952Y-15367667D01*
X11205000Y-15358143D01*
X11233571Y-15358143D01*
X11252619Y-15367667D01*
X11262143Y-15386714D01*
X11262143Y-15491476D01*
X11262143Y-15386714D02*
X11271667Y-15367667D01*
X11290714Y-15358143D01*
X11319286Y-15358143D01*
X11338333Y-15367667D01*
X11347857Y-15386714D01*
X11347857Y-15491476D01*
X11738333Y-15281952D02*
X11566905Y-15539095D01*
X11995476Y-15291476D02*
X12014524Y-15291476D01*
X12033571Y-15301000D01*
X12043095Y-15310524D01*
X12052619Y-15329571D01*
X12062143Y-15367667D01*
X12062143Y-15415286D01*
X12052619Y-15453381D01*
X12043095Y-15472428D01*
X12033571Y-15481952D01*
X12014524Y-15491476D01*
X11995476Y-15491476D01*
X11976428Y-15481952D01*
X11966905Y-15472428D01*
X11957381Y-15453381D01*
X11947857Y-15415286D01*
X11947857Y-15367667D01*
X11957381Y-15329571D01*
X11966905Y-15310524D01*
X11976428Y-15301000D01*
X11995476Y-15291476D01*
X12147857Y-15472428D02*
X12157381Y-15481952D01*
X12147857Y-15491476D01*
X12138333Y-15481952D01*
X12147857Y-15472428D01*
X12147857Y-15491476D01*
X12281190Y-15291476D02*
X12300238Y-15291476D01*
X12319286Y-15301000D01*
X12328809Y-15310524D01*
X12338333Y-15329571D01*
X12347857Y-15367667D01*
X12347857Y-15415286D01*
X12338333Y-15453381D01*
X12328809Y-15472428D01*
X12319286Y-15481952D01*
X12300238Y-15491476D01*
X12281190Y-15491476D01*
X12262143Y-15481952D01*
X12252619Y-15472428D01*
X12243095Y-15453381D01*
X12233571Y-15415286D01*
X12233571Y-15367667D01*
X12243095Y-15329571D01*
X12252619Y-15310524D01*
X12262143Y-15301000D01*
X12281190Y-15291476D01*
X12443095Y-15491476D02*
X12481190Y-15491476D01*
X12500238Y-15481952D01*
X12509762Y-15472428D01*
X12528809Y-15443857D01*
X12538333Y-15405762D01*
X12538333Y-15329571D01*
X12528809Y-15310524D01*
X12519286Y-15301000D01*
X12500238Y-15291476D01*
X12462143Y-15291476D01*
X12443095Y-15301000D01*
X12433571Y-15310524D01*
X12424048Y-15329571D01*
X12424048Y-15377190D01*
X12433571Y-15396238D01*
X12443095Y-15405762D01*
X12462143Y-15415286D01*
X12500238Y-15415286D01*
X12519286Y-15405762D01*
X12528809Y-15396238D01*
X12538333Y-15377190D01*
X12662143Y-15291476D02*
X12681190Y-15291476D01*
X12700238Y-15301000D01*
X12709762Y-15310524D01*
X12719286Y-15329571D01*
X12728809Y-15367667D01*
X12728809Y-15415286D01*
X12719286Y-15453381D01*
X12709762Y-15472428D01*
X12700238Y-15481952D01*
X12681190Y-15491476D01*
X12662143Y-15491476D01*
X12643095Y-15481952D01*
X12633571Y-15472428D01*
X12624048Y-15453381D01*
X12614524Y-15415286D01*
X12614524Y-15367667D01*
X12624048Y-15329571D01*
X12633571Y-15310524D01*
X12643095Y-15301000D01*
X12662143Y-15291476D01*
X12852619Y-15291476D02*
X12871667Y-15291476D01*
X12890714Y-15301000D01*
X12900238Y-15310524D01*
X12909762Y-15329571D01*
X12919286Y-15367667D01*
X12919286Y-15415286D01*
X12909762Y-15453381D01*
X12900238Y-15472428D01*
X12890714Y-15481952D01*
X12871667Y-15491476D01*
X12852619Y-15491476D01*
X12833571Y-15481952D01*
X12824048Y-15472428D01*
X12814524Y-15453381D01*
X12805000Y-15415286D01*
X12805000Y-15367667D01*
X12814524Y-15329571D01*
X12824048Y-15310524D01*
X12833571Y-15301000D01*
X12852619Y-15291476D01*
X12995476Y-15291476D02*
X12995476Y-15329571D01*
X13071667Y-15291476D02*
X13071667Y-15329571D01*
X13366905Y-15567667D02*
X13357381Y-15558143D01*
X13338333Y-15529571D01*
X13328809Y-15510524D01*
X13319286Y-15481952D01*
X13309762Y-15434333D01*
X13309762Y-15396238D01*
X13319286Y-15348619D01*
X13328809Y-15320048D01*
X13338333Y-15301000D01*
X13357381Y-15272428D01*
X13366905Y-15262905D01*
X13424048Y-15291476D02*
X13547857Y-15291476D01*
X13481190Y-15367667D01*
X13509762Y-15367667D01*
X13528809Y-15377190D01*
X13538333Y-15386714D01*
X13547857Y-15405762D01*
X13547857Y-15453381D01*
X13538333Y-15472428D01*
X13528809Y-15481952D01*
X13509762Y-15491476D01*
X13452619Y-15491476D01*
X13433571Y-15481952D01*
X13424048Y-15472428D01*
X13785952Y-15491476D02*
X13785952Y-15291476D01*
X13871667Y-15491476D02*
X13871667Y-15386714D01*
X13862143Y-15367667D01*
X13843095Y-15358143D01*
X13814524Y-15358143D01*
X13795476Y-15367667D01*
X13785952Y-15377190D01*
X13995476Y-15491476D02*
X13976428Y-15481952D01*
X13966905Y-15472428D01*
X13957381Y-15453381D01*
X13957381Y-15396238D01*
X13966905Y-15377190D01*
X13976428Y-15367667D01*
X13995476Y-15358143D01*
X14024048Y-15358143D01*
X14043095Y-15367667D01*
X14052619Y-15377190D01*
X14062143Y-15396238D01*
X14062143Y-15453381D01*
X14052619Y-15472428D01*
X14043095Y-15481952D01*
X14024048Y-15491476D01*
X13995476Y-15491476D01*
X14176428Y-15491476D02*
X14157381Y-15481952D01*
X14147857Y-15462905D01*
X14147857Y-15291476D01*
X14328809Y-15481952D02*
X14309762Y-15491476D01*
X14271667Y-15491476D01*
X14252619Y-15481952D01*
X14243095Y-15462905D01*
X14243095Y-15386714D01*
X14252619Y-15367667D01*
X14271667Y-15358143D01*
X14309762Y-15358143D01*
X14328809Y-15367667D01*
X14338333Y-15386714D01*
X14338333Y-15405762D01*
X14243095Y-15424809D01*
X14414524Y-15481952D02*
X14433571Y-15491476D01*
X14471667Y-15491476D01*
X14490714Y-15481952D01*
X14500238Y-15462905D01*
X14500238Y-15453381D01*
X14490714Y-15434333D01*
X14471667Y-15424809D01*
X14443095Y-15424809D01*
X14424048Y-15415286D01*
X14414524Y-15396238D01*
X14414524Y-15386714D01*
X14424048Y-15367667D01*
X14443095Y-15358143D01*
X14471667Y-15358143D01*
X14490714Y-15367667D01*
X14566905Y-15567667D02*
X14576428Y-15558143D01*
X14595476Y-15529571D01*
X14605000Y-15510524D01*
X14614524Y-15481952D01*
X14624048Y-15434333D01*
X14624048Y-15396238D01*
X14614524Y-15348619D01*
X14605000Y-15320048D01*
X14595476Y-15301000D01*
X14576428Y-15272428D01*
X14566905Y-15262905D01*
X9595000Y-15621000D02*
X9795000Y-15821000D01*
X9795000Y-15621000D02*
X9595000Y-15821000D01*
X9795000Y-15721000D02*
G75*
G03*
X9795000Y-15721000I-100000J0D01*
G01*
X10138333Y-15678143D02*
X10138333Y-15811476D01*
X10090714Y-15601952D02*
X10043095Y-15744809D01*
X10166905Y-15744809D01*
X10243095Y-15792428D02*
X10252619Y-15801952D01*
X10243095Y-15811476D01*
X10233571Y-15801952D01*
X10243095Y-15792428D01*
X10243095Y-15811476D01*
X10319286Y-15611476D02*
X10443095Y-15611476D01*
X10376429Y-15687667D01*
X10405000Y-15687667D01*
X10424048Y-15697190D01*
X10433571Y-15706714D01*
X10443095Y-15725762D01*
X10443095Y-15773381D01*
X10433571Y-15792428D01*
X10424048Y-15801952D01*
X10405000Y-15811476D01*
X10347857Y-15811476D01*
X10328810Y-15801952D01*
X10319286Y-15792428D01*
X10566905Y-15611476D02*
X10585952Y-15611476D01*
X10605000Y-15621000D01*
X10614524Y-15630524D01*
X10624048Y-15649571D01*
X10633571Y-15687667D01*
X10633571Y-15735286D01*
X10624048Y-15773381D01*
X10614524Y-15792428D01*
X10605000Y-15801952D01*
X10585952Y-15811476D01*
X10566905Y-15811476D01*
X10547857Y-15801952D01*
X10538333Y-15792428D01*
X10528810Y-15773381D01*
X10519286Y-15735286D01*
X10519286Y-15687667D01*
X10528810Y-15649571D01*
X10538333Y-15630524D01*
X10547857Y-15621000D01*
X10566905Y-15611476D01*
X10757381Y-15611476D02*
X10776429Y-15611476D01*
X10795476Y-15621000D01*
X10805000Y-15630524D01*
X10814524Y-15649571D01*
X10824048Y-15687667D01*
X10824048Y-15735286D01*
X10814524Y-15773381D01*
X10805000Y-15792428D01*
X10795476Y-15801952D01*
X10776429Y-15811476D01*
X10757381Y-15811476D01*
X10738333Y-15801952D01*
X10728810Y-15792428D01*
X10719286Y-15773381D01*
X10709762Y-15735286D01*
X10709762Y-15687667D01*
X10719286Y-15649571D01*
X10728810Y-15630524D01*
X10738333Y-15621000D01*
X10757381Y-15611476D01*
X10909762Y-15811476D02*
X10909762Y-15678143D01*
X10909762Y-15697190D02*
X10919286Y-15687667D01*
X10938333Y-15678143D01*
X10966905Y-15678143D01*
X10985952Y-15687667D01*
X10995476Y-15706714D01*
X10995476Y-15811476D01*
X10995476Y-15706714D02*
X11005000Y-15687667D01*
X11024048Y-15678143D01*
X11052619Y-15678143D01*
X11071667Y-15687667D01*
X11081190Y-15706714D01*
X11081190Y-15811476D01*
X11176429Y-15811476D02*
X11176429Y-15678143D01*
X11176429Y-15697190D02*
X11185952Y-15687667D01*
X11205000Y-15678143D01*
X11233571Y-15678143D01*
X11252619Y-15687667D01*
X11262143Y-15706714D01*
X11262143Y-15811476D01*
X11262143Y-15706714D02*
X11271667Y-15687667D01*
X11290714Y-15678143D01*
X11319286Y-15678143D01*
X11338333Y-15687667D01*
X11347857Y-15706714D01*
X11347857Y-15811476D01*
X11738333Y-15601952D02*
X11566905Y-15859095D01*
X11995476Y-15611476D02*
X12014524Y-15611476D01*
X12033571Y-15621000D01*
X12043095Y-15630524D01*
X12052619Y-15649571D01*
X12062143Y-15687667D01*
X12062143Y-15735286D01*
X12052619Y-15773381D01*
X12043095Y-15792428D01*
X12033571Y-15801952D01*
X12014524Y-15811476D01*
X11995476Y-15811476D01*
X11976428Y-15801952D01*
X11966905Y-15792428D01*
X11957381Y-15773381D01*
X11947857Y-15735286D01*
X11947857Y-15687667D01*
X11957381Y-15649571D01*
X11966905Y-15630524D01*
X11976428Y-15621000D01*
X11995476Y-15611476D01*
X12147857Y-15792428D02*
X12157381Y-15801952D01*
X12147857Y-15811476D01*
X12138333Y-15801952D01*
X12147857Y-15792428D01*
X12147857Y-15811476D01*
X12347857Y-15811476D02*
X12233571Y-15811476D01*
X12290714Y-15811476D02*
X12290714Y-15611476D01*
X12271667Y-15640048D01*
X12252619Y-15659095D01*
X12233571Y-15668619D01*
X12519286Y-15611476D02*
X12481190Y-15611476D01*
X12462143Y-15621000D01*
X12452619Y-15630524D01*
X12433571Y-15659095D01*
X12424048Y-15697190D01*
X12424048Y-15773381D01*
X12433571Y-15792428D01*
X12443095Y-15801952D01*
X12462143Y-15811476D01*
X12500238Y-15811476D01*
X12519286Y-15801952D01*
X12528809Y-15792428D01*
X12538333Y-15773381D01*
X12538333Y-15725762D01*
X12528809Y-15706714D01*
X12519286Y-15697190D01*
X12500238Y-15687667D01*
X12462143Y-15687667D01*
X12443095Y-15697190D01*
X12433571Y-15706714D01*
X12424048Y-15725762D01*
X12633571Y-15811476D02*
X12671667Y-15811476D01*
X12690714Y-15801952D01*
X12700238Y-15792428D01*
X12719286Y-15763857D01*
X12728809Y-15725762D01*
X12728809Y-15649571D01*
X12719286Y-15630524D01*
X12709762Y-15621000D01*
X12690714Y-15611476D01*
X12652619Y-15611476D01*
X12633571Y-15621000D01*
X12624048Y-15630524D01*
X12614524Y-15649571D01*
X12614524Y-15697190D01*
X12624048Y-15716238D01*
X12633571Y-15725762D01*
X12652619Y-15735286D01*
X12690714Y-15735286D01*
X12709762Y-15725762D01*
X12719286Y-15716238D01*
X12728809Y-15697190D01*
X12795476Y-15611476D02*
X12919286Y-15611476D01*
X12852619Y-15687667D01*
X12881190Y-15687667D01*
X12900238Y-15697190D01*
X12909762Y-15706714D01*
X12919286Y-15725762D01*
X12919286Y-15773381D01*
X12909762Y-15792428D01*
X12900238Y-15801952D01*
X12881190Y-15811476D01*
X12824048Y-15811476D01*
X12805000Y-15801952D01*
X12795476Y-15792428D01*
X12995476Y-15611476D02*
X12995476Y-15649571D01*
X13071667Y-15611476D02*
X13071667Y-15649571D01*
X13366905Y-15887667D02*
X13357381Y-15878143D01*
X13338333Y-15849571D01*
X13328809Y-15830524D01*
X13319286Y-15801952D01*
X13309762Y-15754333D01*
X13309762Y-15716238D01*
X13319286Y-15668619D01*
X13328809Y-15640048D01*
X13338333Y-15621000D01*
X13357381Y-15592428D01*
X13366905Y-15582905D01*
X13424048Y-15611476D02*
X13547857Y-15611476D01*
X13481190Y-15687667D01*
X13509762Y-15687667D01*
X13528809Y-15697190D01*
X13538333Y-15706714D01*
X13547857Y-15725762D01*
X13547857Y-15773381D01*
X13538333Y-15792428D01*
X13528809Y-15801952D01*
X13509762Y-15811476D01*
X13452619Y-15811476D01*
X13433571Y-15801952D01*
X13424048Y-15792428D01*
X13785952Y-15811476D02*
X13785952Y-15611476D01*
X13871667Y-15811476D02*
X13871667Y-15706714D01*
X13862143Y-15687667D01*
X13843095Y-15678143D01*
X13814524Y-15678143D01*
X13795476Y-15687667D01*
X13785952Y-15697190D01*
X13995476Y-15811476D02*
X13976428Y-15801952D01*
X13966905Y-15792428D01*
X13957381Y-15773381D01*
X13957381Y-15716238D01*
X13966905Y-15697190D01*
X13976428Y-15687667D01*
X13995476Y-15678143D01*
X14024048Y-15678143D01*
X14043095Y-15687667D01*
X14052619Y-15697190D01*
X14062143Y-15716238D01*
X14062143Y-15773381D01*
X14052619Y-15792428D01*
X14043095Y-15801952D01*
X14024048Y-15811476D01*
X13995476Y-15811476D01*
X14176428Y-15811476D02*
X14157381Y-15801952D01*
X14147857Y-15782905D01*
X14147857Y-15611476D01*
X14328809Y-15801952D02*
X14309762Y-15811476D01*
X14271667Y-15811476D01*
X14252619Y-15801952D01*
X14243095Y-15782905D01*
X14243095Y-15706714D01*
X14252619Y-15687667D01*
X14271667Y-15678143D01*
X14309762Y-15678143D01*
X14328809Y-15687667D01*
X14338333Y-15706714D01*
X14338333Y-15725762D01*
X14243095Y-15744809D01*
X14414524Y-15801952D02*
X14433571Y-15811476D01*
X14471667Y-15811476D01*
X14490714Y-15801952D01*
X14500238Y-15782905D01*
X14500238Y-15773381D01*
X14490714Y-15754333D01*
X14471667Y-15744809D01*
X14443095Y-15744809D01*
X14424048Y-15735286D01*
X14414524Y-15716238D01*
X14414524Y-15706714D01*
X14424048Y-15687667D01*
X14443095Y-15678143D01*
X14471667Y-15678143D01*
X14490714Y-15687667D01*
X14566905Y-15887667D02*
X14576428Y-15878143D01*
X14595476Y-15849571D01*
X14605000Y-15830524D01*
X14614524Y-15801952D01*
X14624048Y-15754333D01*
X14624048Y-15716238D01*
X14614524Y-15668619D01*
X14605000Y-15640048D01*
X14595476Y-15621000D01*
X14576428Y-15592428D01*
X14566905Y-15582905D01*
X9595000Y-15941000D02*
X9795000Y-16141000D01*
X9795000Y-15941000D02*
X9595000Y-16141000D01*
X9695000Y-15941000D02*
X9695000Y-16141000D01*
X9595000Y-16041000D02*
X9795000Y-16041000D01*
X10138333Y-15998143D02*
X10138333Y-16131476D01*
X10090714Y-15921952D02*
X10043095Y-16064809D01*
X10166905Y-16064809D01*
X10243095Y-16112428D02*
X10252619Y-16121952D01*
X10243095Y-16131476D01*
X10233571Y-16121952D01*
X10243095Y-16112428D01*
X10243095Y-16131476D01*
X10433571Y-15931476D02*
X10338333Y-15931476D01*
X10328810Y-16026714D01*
X10338333Y-16017190D01*
X10357381Y-16007667D01*
X10405000Y-16007667D01*
X10424048Y-16017190D01*
X10433571Y-16026714D01*
X10443095Y-16045762D01*
X10443095Y-16093381D01*
X10433571Y-16112428D01*
X10424048Y-16121952D01*
X10405000Y-16131476D01*
X10357381Y-16131476D01*
X10338333Y-16121952D01*
X10328810Y-16112428D01*
X10566905Y-15931476D02*
X10585952Y-15931476D01*
X10605000Y-15941000D01*
X10614524Y-15950524D01*
X10624048Y-15969571D01*
X10633571Y-16007667D01*
X10633571Y-16055286D01*
X10624048Y-16093381D01*
X10614524Y-16112428D01*
X10605000Y-16121952D01*
X10585952Y-16131476D01*
X10566905Y-16131476D01*
X10547857Y-16121952D01*
X10538333Y-16112428D01*
X10528810Y-16093381D01*
X10519286Y-16055286D01*
X10519286Y-16007667D01*
X10528810Y-15969571D01*
X10538333Y-15950524D01*
X10547857Y-15941000D01*
X10566905Y-15931476D01*
X10757381Y-15931476D02*
X10776429Y-15931476D01*
X10795476Y-15941000D01*
X10805000Y-15950524D01*
X10814524Y-15969571D01*
X10824048Y-16007667D01*
X10824048Y-16055286D01*
X10814524Y-16093381D01*
X10805000Y-16112428D01*
X10795476Y-16121952D01*
X10776429Y-16131476D01*
X10757381Y-16131476D01*
X10738333Y-16121952D01*
X10728810Y-16112428D01*
X10719286Y-16093381D01*
X10709762Y-16055286D01*
X10709762Y-16007667D01*
X10719286Y-15969571D01*
X10728810Y-15950524D01*
X10738333Y-15941000D01*
X10757381Y-15931476D01*
X10909762Y-16131476D02*
X10909762Y-15998143D01*
X10909762Y-16017190D02*
X10919286Y-16007667D01*
X10938333Y-15998143D01*
X10966905Y-15998143D01*
X10985952Y-16007667D01*
X10995476Y-16026714D01*
X10995476Y-16131476D01*
X10995476Y-16026714D02*
X11005000Y-16007667D01*
X11024048Y-15998143D01*
X11052619Y-15998143D01*
X11071667Y-16007667D01*
X11081190Y-16026714D01*
X11081190Y-16131476D01*
X11176429Y-16131476D02*
X11176429Y-15998143D01*
X11176429Y-16017190D02*
X11185952Y-16007667D01*
X11205000Y-15998143D01*
X11233571Y-15998143D01*
X11252619Y-16007667D01*
X11262143Y-16026714D01*
X11262143Y-16131476D01*
X11262143Y-16026714D02*
X11271667Y-16007667D01*
X11290714Y-15998143D01*
X11319286Y-15998143D01*
X11338333Y-16007667D01*
X11347857Y-16026714D01*
X11347857Y-16131476D01*
X11738333Y-15921952D02*
X11566905Y-16179095D01*
X11995476Y-15931476D02*
X12014524Y-15931476D01*
X12033571Y-15941000D01*
X12043095Y-15950524D01*
X12052619Y-15969571D01*
X12062143Y-16007667D01*
X12062143Y-16055286D01*
X12052619Y-16093381D01*
X12043095Y-16112428D01*
X12033571Y-16121952D01*
X12014524Y-16131476D01*
X11995476Y-16131476D01*
X11976428Y-16121952D01*
X11966905Y-16112428D01*
X11957381Y-16093381D01*
X11947857Y-16055286D01*
X11947857Y-16007667D01*
X11957381Y-15969571D01*
X11966905Y-15950524D01*
X11976428Y-15941000D01*
X11995476Y-15931476D01*
X12147857Y-16112428D02*
X12157381Y-16121952D01*
X12147857Y-16131476D01*
X12138333Y-16121952D01*
X12147857Y-16112428D01*
X12147857Y-16131476D01*
X12347857Y-16131476D02*
X12233571Y-16131476D01*
X12290714Y-16131476D02*
X12290714Y-15931476D01*
X12271667Y-15960048D01*
X12252619Y-15979095D01*
X12233571Y-15988619D01*
X12414524Y-15931476D02*
X12547857Y-15931476D01*
X12462143Y-16131476D01*
X12605000Y-15931476D02*
X12738333Y-15931476D01*
X12652619Y-16131476D01*
X12805000Y-15950524D02*
X12814524Y-15941000D01*
X12833571Y-15931476D01*
X12881190Y-15931476D01*
X12900238Y-15941000D01*
X12909762Y-15950524D01*
X12919286Y-15969571D01*
X12919286Y-15988619D01*
X12909762Y-16017190D01*
X12795476Y-16131476D01*
X12919286Y-16131476D01*
X12995476Y-15931476D02*
X12995476Y-15969571D01*
X13071667Y-15931476D02*
X13071667Y-15969571D01*
X13366905Y-16207667D02*
X13357381Y-16198143D01*
X13338333Y-16169571D01*
X13328809Y-16150524D01*
X13319286Y-16121952D01*
X13309762Y-16074333D01*
X13309762Y-16036238D01*
X13319286Y-15988619D01*
X13328809Y-15960048D01*
X13338333Y-15941000D01*
X13357381Y-15912428D01*
X13366905Y-15902905D01*
X13433571Y-15950524D02*
X13443095Y-15941000D01*
X13462143Y-15931476D01*
X13509762Y-15931476D01*
X13528809Y-15941000D01*
X13538333Y-15950524D01*
X13547857Y-15969571D01*
X13547857Y-15988619D01*
X13538333Y-16017190D01*
X13424048Y-16131476D01*
X13547857Y-16131476D01*
X13785952Y-16131476D02*
X13785952Y-15931476D01*
X13871667Y-16131476D02*
X13871667Y-16026714D01*
X13862143Y-16007667D01*
X13843095Y-15998143D01*
X13814524Y-15998143D01*
X13795476Y-16007667D01*
X13785952Y-16017190D01*
X13995476Y-16131476D02*
X13976428Y-16121952D01*
X13966905Y-16112428D01*
X13957381Y-16093381D01*
X13957381Y-16036238D01*
X13966905Y-16017190D01*
X13976428Y-16007667D01*
X13995476Y-15998143D01*
X14024048Y-15998143D01*
X14043095Y-16007667D01*
X14052619Y-16017190D01*
X14062143Y-16036238D01*
X14062143Y-16093381D01*
X14052619Y-16112428D01*
X14043095Y-16121952D01*
X14024048Y-16131476D01*
X13995476Y-16131476D01*
X14176428Y-16131476D02*
X14157381Y-16121952D01*
X14147857Y-16102905D01*
X14147857Y-15931476D01*
X14328809Y-16121952D02*
X14309762Y-16131476D01*
X14271667Y-16131476D01*
X14252619Y-16121952D01*
X14243095Y-16102905D01*
X14243095Y-16026714D01*
X14252619Y-16007667D01*
X14271667Y-15998143D01*
X14309762Y-15998143D01*
X14328809Y-16007667D01*
X14338333Y-16026714D01*
X14338333Y-16045762D01*
X14243095Y-16064809D01*
X14414524Y-16121952D02*
X14433571Y-16131476D01*
X14471667Y-16131476D01*
X14490714Y-16121952D01*
X14500238Y-16102905D01*
X14500238Y-16093381D01*
X14490714Y-16074333D01*
X14471667Y-16064809D01*
X14443095Y-16064809D01*
X14424048Y-16055286D01*
X14414524Y-16036238D01*
X14414524Y-16026714D01*
X14424048Y-16007667D01*
X14443095Y-15998143D01*
X14471667Y-15998143D01*
X14490714Y-16007667D01*
X14566905Y-16207667D02*
X14576428Y-16198143D01*
X14595476Y-16169571D01*
X14605000Y-16150524D01*
X14614524Y-16121952D01*
X14624048Y-16074333D01*
X14624048Y-16036238D01*
X14614524Y-15988619D01*
X14605000Y-15960048D01*
X14595476Y-15941000D01*
X14576428Y-15912428D01*
X14566905Y-15902905D01*
X9595000Y-16261000D02*
X9795000Y-16461000D01*
X9795000Y-16261000D02*
X9595000Y-16461000D01*
X9765711Y-16431711D02*
X9765711Y-16290289D01*
X9624289Y-16290289D01*
X9624289Y-16431711D01*
X9765711Y-16431711D01*
X10147857Y-16251476D02*
X10052619Y-16251476D01*
X10043095Y-16346714D01*
X10052619Y-16337190D01*
X10071667Y-16327667D01*
X10119286Y-16327667D01*
X10138333Y-16337190D01*
X10147857Y-16346714D01*
X10157381Y-16365762D01*
X10157381Y-16413381D01*
X10147857Y-16432428D01*
X10138333Y-16441952D01*
X10119286Y-16451476D01*
X10071667Y-16451476D01*
X10052619Y-16441952D01*
X10043095Y-16432428D01*
X10243095Y-16432428D02*
X10252619Y-16441952D01*
X10243095Y-16451476D01*
X10233571Y-16441952D01*
X10243095Y-16432428D01*
X10243095Y-16451476D01*
X10376429Y-16251476D02*
X10395476Y-16251476D01*
X10414524Y-16261000D01*
X10424048Y-16270524D01*
X10433571Y-16289571D01*
X10443095Y-16327667D01*
X10443095Y-16375286D01*
X10433571Y-16413381D01*
X10424048Y-16432428D01*
X10414524Y-16441952D01*
X10395476Y-16451476D01*
X10376429Y-16451476D01*
X10357381Y-16441952D01*
X10347857Y-16432428D01*
X10338333Y-16413381D01*
X10328810Y-16375286D01*
X10328810Y-16327667D01*
X10338333Y-16289571D01*
X10347857Y-16270524D01*
X10357381Y-16261000D01*
X10376429Y-16251476D01*
X10566905Y-16251476D02*
X10585952Y-16251476D01*
X10605000Y-16261000D01*
X10614524Y-16270524D01*
X10624048Y-16289571D01*
X10633571Y-16327667D01*
X10633571Y-16375286D01*
X10624048Y-16413381D01*
X10614524Y-16432428D01*
X10605000Y-16441952D01*
X10585952Y-16451476D01*
X10566905Y-16451476D01*
X10547857Y-16441952D01*
X10538333Y-16432428D01*
X10528810Y-16413381D01*
X10519286Y-16375286D01*
X10519286Y-16327667D01*
X10528810Y-16289571D01*
X10538333Y-16270524D01*
X10547857Y-16261000D01*
X10566905Y-16251476D01*
X10757381Y-16251476D02*
X10776429Y-16251476D01*
X10795476Y-16261000D01*
X10805000Y-16270524D01*
X10814524Y-16289571D01*
X10824048Y-16327667D01*
X10824048Y-16375286D01*
X10814524Y-16413381D01*
X10805000Y-16432428D01*
X10795476Y-16441952D01*
X10776429Y-16451476D01*
X10757381Y-16451476D01*
X10738333Y-16441952D01*
X10728810Y-16432428D01*
X10719286Y-16413381D01*
X10709762Y-16375286D01*
X10709762Y-16327667D01*
X10719286Y-16289571D01*
X10728810Y-16270524D01*
X10738333Y-16261000D01*
X10757381Y-16251476D01*
X10909762Y-16451476D02*
X10909762Y-16318143D01*
X10909762Y-16337190D02*
X10919286Y-16327667D01*
X10938333Y-16318143D01*
X10966905Y-16318143D01*
X10985952Y-16327667D01*
X10995476Y-16346714D01*
X10995476Y-16451476D01*
X10995476Y-16346714D02*
X11005000Y-16327667D01*
X11024048Y-16318143D01*
X11052619Y-16318143D01*
X11071667Y-16327667D01*
X11081190Y-16346714D01*
X11081190Y-16451476D01*
X11176429Y-16451476D02*
X11176429Y-16318143D01*
X11176429Y-16337190D02*
X11185952Y-16327667D01*
X11205000Y-16318143D01*
X11233571Y-16318143D01*
X11252619Y-16327667D01*
X11262143Y-16346714D01*
X11262143Y-16451476D01*
X11262143Y-16346714D02*
X11271667Y-16327667D01*
X11290714Y-16318143D01*
X11319286Y-16318143D01*
X11338333Y-16327667D01*
X11347857Y-16346714D01*
X11347857Y-16451476D01*
X11738333Y-16241952D02*
X11566905Y-16499095D01*
X11995476Y-16251476D02*
X12014524Y-16251476D01*
X12033571Y-16261000D01*
X12043095Y-16270524D01*
X12052619Y-16289571D01*
X12062143Y-16327667D01*
X12062143Y-16375286D01*
X12052619Y-16413381D01*
X12043095Y-16432428D01*
X12033571Y-16441952D01*
X12014524Y-16451476D01*
X11995476Y-16451476D01*
X11976428Y-16441952D01*
X11966905Y-16432428D01*
X11957381Y-16413381D01*
X11947857Y-16375286D01*
X11947857Y-16327667D01*
X11957381Y-16289571D01*
X11966905Y-16270524D01*
X11976428Y-16261000D01*
X11995476Y-16251476D01*
X12147857Y-16432428D02*
X12157381Y-16441952D01*
X12147857Y-16451476D01*
X12138333Y-16441952D01*
X12147857Y-16432428D01*
X12147857Y-16451476D01*
X12347857Y-16451476D02*
X12233571Y-16451476D01*
X12290714Y-16451476D02*
X12290714Y-16251476D01*
X12271667Y-16280048D01*
X12252619Y-16299095D01*
X12233571Y-16308619D01*
X12443095Y-16451476D02*
X12481190Y-16451476D01*
X12500238Y-16441952D01*
X12509762Y-16432428D01*
X12528809Y-16403857D01*
X12538333Y-16365762D01*
X12538333Y-16289571D01*
X12528809Y-16270524D01*
X12519286Y-16261000D01*
X12500238Y-16251476D01*
X12462143Y-16251476D01*
X12443095Y-16261000D01*
X12433571Y-16270524D01*
X12424048Y-16289571D01*
X12424048Y-16337190D01*
X12433571Y-16356238D01*
X12443095Y-16365762D01*
X12462143Y-16375286D01*
X12500238Y-16375286D01*
X12519286Y-16365762D01*
X12528809Y-16356238D01*
X12538333Y-16337190D01*
X12709762Y-16251476D02*
X12671667Y-16251476D01*
X12652619Y-16261000D01*
X12643095Y-16270524D01*
X12624048Y-16299095D01*
X12614524Y-16337190D01*
X12614524Y-16413381D01*
X12624048Y-16432428D01*
X12633571Y-16441952D01*
X12652619Y-16451476D01*
X12690714Y-16451476D01*
X12709762Y-16441952D01*
X12719286Y-16432428D01*
X12728809Y-16413381D01*
X12728809Y-16365762D01*
X12719286Y-16346714D01*
X12709762Y-16337190D01*
X12690714Y-16327667D01*
X12652619Y-16327667D01*
X12633571Y-16337190D01*
X12624048Y-16346714D01*
X12614524Y-16365762D01*
X12824048Y-16451476D02*
X12862143Y-16451476D01*
X12881190Y-16441952D01*
X12890714Y-16432428D01*
X12909762Y-16403857D01*
X12919286Y-16365762D01*
X12919286Y-16289571D01*
X12909762Y-16270524D01*
X12900238Y-16261000D01*
X12881190Y-16251476D01*
X12843095Y-16251476D01*
X12824048Y-16261000D01*
X12814524Y-16270524D01*
X12805000Y-16289571D01*
X12805000Y-16337190D01*
X12814524Y-16356238D01*
X12824048Y-16365762D01*
X12843095Y-16375286D01*
X12881190Y-16375286D01*
X12900238Y-16365762D01*
X12909762Y-16356238D01*
X12919286Y-16337190D01*
X12995476Y-16251476D02*
X12995476Y-16289571D01*
X13071667Y-16251476D02*
X13071667Y-16289571D01*
X13366905Y-16527667D02*
X13357381Y-16518143D01*
X13338333Y-16489571D01*
X13328809Y-16470524D01*
X13319286Y-16441952D01*
X13309762Y-16394333D01*
X13309762Y-16356238D01*
X13319286Y-16308619D01*
X13328809Y-16280048D01*
X13338333Y-16261000D01*
X13357381Y-16232428D01*
X13366905Y-16222905D01*
X13433571Y-16270524D02*
X13443095Y-16261000D01*
X13462143Y-16251476D01*
X13509762Y-16251476D01*
X13528809Y-16261000D01*
X13538333Y-16270524D01*
X13547857Y-16289571D01*
X13547857Y-16308619D01*
X13538333Y-16337190D01*
X13424048Y-16451476D01*
X13547857Y-16451476D01*
X13785952Y-16451476D02*
X13785952Y-16251476D01*
X13871667Y-16451476D02*
X13871667Y-16346714D01*
X13862143Y-16327667D01*
X13843095Y-16318143D01*
X13814524Y-16318143D01*
X13795476Y-16327667D01*
X13785952Y-16337190D01*
X13995476Y-16451476D02*
X13976428Y-16441952D01*
X13966905Y-16432428D01*
X13957381Y-16413381D01*
X13957381Y-16356238D01*
X13966905Y-16337190D01*
X13976428Y-16327667D01*
X13995476Y-16318143D01*
X14024048Y-16318143D01*
X14043095Y-16327667D01*
X14052619Y-16337190D01*
X14062143Y-16356238D01*
X14062143Y-16413381D01*
X14052619Y-16432428D01*
X14043095Y-16441952D01*
X14024048Y-16451476D01*
X13995476Y-16451476D01*
X14176428Y-16451476D02*
X14157381Y-16441952D01*
X14147857Y-16422905D01*
X14147857Y-16251476D01*
X14328809Y-16441952D02*
X14309762Y-16451476D01*
X14271667Y-16451476D01*
X14252619Y-16441952D01*
X14243095Y-16422905D01*
X14243095Y-16346714D01*
X14252619Y-16327667D01*
X14271667Y-16318143D01*
X14309762Y-16318143D01*
X14328809Y-16327667D01*
X14338333Y-16346714D01*
X14338333Y-16365762D01*
X14243095Y-16384809D01*
X14414524Y-16441952D02*
X14433571Y-16451476D01*
X14471667Y-16451476D01*
X14490714Y-16441952D01*
X14500238Y-16422905D01*
X14500238Y-16413381D01*
X14490714Y-16394333D01*
X14471667Y-16384809D01*
X14443095Y-16384809D01*
X14424048Y-16375286D01*
X14414524Y-16356238D01*
X14414524Y-16346714D01*
X14424048Y-16327667D01*
X14443095Y-16318143D01*
X14471667Y-16318143D01*
X14490714Y-16327667D01*
X14566905Y-16527667D02*
X14576428Y-16518143D01*
X14595476Y-16489571D01*
X14605000Y-16470524D01*
X14614524Y-16441952D01*
X14624048Y-16394333D01*
X14624048Y-16356238D01*
X14614524Y-16308619D01*
X14605000Y-16280048D01*
X14595476Y-16261000D01*
X14576428Y-16232428D01*
X14566905Y-16222905D01*
M02*
