%TF.GenerationSoftware,KiCad,Pcbnew,(6.0.9)*%
%TF.CreationDate,2022-12-13T13:02:29-05:00*%
%TF.ProjectId,Team5_Coaster_post_mdr,5465616d-355f-4436-9f61-737465725f70,rev?*%
%TF.SameCoordinates,Original*%
%TF.FileFunction,Profile,NP*%
%FSLAX46Y46*%
G04 Gerber Fmt 4.6, Leading zero omitted, Abs format (unit mm)*
G04 Created by KiCad (PCBNEW (6.0.9)) date 2022-12-13 13:02:29*
%MOMM*%
%LPD*%
G01*
G04 APERTURE LIST*
%TA.AperFunction,Profile*%
%ADD10C,0.100000*%
%TD*%
G04 APERTURE END LIST*
D10*
X173114399Y-167999999D02*
G75*
G03*
X175864399Y-165250000I114401J2635599D01*
G01*
X173114399Y-154500000D02*
X167114399Y-154500000D01*
X88500000Y-168000000D02*
G75*
G03*
X91250000Y-165250000I114400J2635600D01*
G01*
X167114399Y-61499999D02*
G75*
G03*
X164364399Y-64250000I-114399J-2635601D01*
G01*
X162364399Y-165250000D02*
X162364399Y-159250000D01*
X91250000Y-165250000D02*
X91250000Y-159250000D01*
X175864399Y-50750000D02*
X175864399Y-58750000D01*
X173114399Y-48000000D02*
X165114399Y-48000000D01*
X86500000Y-154500000D02*
G75*
G03*
X89250000Y-151750000I114400J2635600D01*
G01*
X162364399Y-50750000D02*
X162364399Y-56750000D01*
X164364399Y-151750000D02*
X164364399Y-65000000D01*
X77750000Y-165250000D02*
X77750000Y-157000000D01*
X77750000Y-58750000D02*
G75*
G03*
X80500000Y-61500000I2635600J-114400D01*
G01*
X80500000Y-61500000D02*
X86500000Y-61500000D01*
X80499998Y-154500047D02*
G75*
G03*
X77750000Y-157000000I-114498J-2636553D01*
G01*
X164364399Y-65000000D02*
X164364399Y-64250000D01*
X162364400Y-165250000D02*
G75*
G03*
X165114399Y-168000000I2635600J-114400D01*
G01*
X80500000Y-168000000D02*
X88500000Y-168000000D01*
X173114399Y-168000000D02*
X165114399Y-168000000D01*
X94000000Y-59500000D02*
X159614399Y-59500000D01*
X91250000Y-50750000D02*
G75*
G03*
X88500000Y-48000000I-2635600J114400D01*
G01*
X77750000Y-50750000D02*
X77750000Y-58750000D01*
X164364400Y-151750000D02*
G75*
G03*
X167114399Y-154500000I2635600J-114400D01*
G01*
X89250000Y-64250000D02*
X89250000Y-151750000D01*
X175864400Y-157250000D02*
G75*
G03*
X173114399Y-154500000I-2635600J114400D01*
G01*
X173114399Y-61500000D02*
X167114399Y-61500000D01*
X165114399Y-47999999D02*
G75*
G03*
X162364399Y-50750000I-114399J-2635601D01*
G01*
X175864399Y-165250000D02*
X175864399Y-157250000D01*
X173114399Y-61499999D02*
G75*
G03*
X175864399Y-58750000I114401J2635599D01*
G01*
X77750000Y-165250000D02*
G75*
G03*
X80500000Y-168000000I2635600J-114400D01*
G01*
X91250000Y-56750000D02*
G75*
G03*
X94000000Y-59500000I2635600J-114400D01*
G01*
X175864400Y-50750000D02*
G75*
G03*
X173114399Y-48000000I-2635600J114400D01*
G01*
X80500000Y-48000000D02*
X88500000Y-48000000D01*
X159614399Y-59499999D02*
G75*
G03*
X162364399Y-56750000I114401J2635599D01*
G01*
X162364400Y-159250000D02*
G75*
G03*
X159614399Y-156500000I-2635600J114400D01*
G01*
X89250000Y-64250000D02*
G75*
G03*
X86500000Y-61500000I-2635600J114400D01*
G01*
X80500000Y-154500000D02*
X86500000Y-154500000D01*
X80500000Y-48000000D02*
G75*
G03*
X77750000Y-50750000I-114400J-2635600D01*
G01*
X91250000Y-50750000D02*
X91250000Y-56750000D01*
X94000000Y-156500000D02*
G75*
G03*
X91250000Y-159250000I-114400J-2635600D01*
G01*
X94000000Y-156500000D02*
X159614399Y-156500000D01*
M02*
