M48
; DRILL file {KiCad (6.0.9)} date Wed Dec 14 11:39:06 2022
; FORMAT={-:-/ absolute / inch / decimal}
; #@! TF.CreationDate,2022-12-14T11:39:06-05:00
; #@! TF.GenerationSoftware,Kicad,Pcbnew,(6.0.9)
; #@! TF.FileFunction,Plated,1,2,PTH
FMAT,2
INCH
; #@! TA.AperFunction,Plated,PTH,ViaDrill
T1C0.0118
; #@! TA.AperFunction,Plated,PTH,ComponentDrill
T2C0.0236
; #@! TA.AperFunction,Plated,PTH,ComponentDrill
T3C0.0276
; #@! TA.AperFunction,Plated,PTH,ComponentDrill
T4C0.0354
; #@! TA.AperFunction,Plated,PTH,ComponentDrill
T5C0.0394
; #@! TA.AperFunction,Plated,PTH,ComponentDrill
T6C0.0402
; #@! TA.AperFunction,Plated,PTH,ComponentDrill
T7C0.0433
; #@! TA.AperFunction,Plated,PTH,ComponentDrill
T8C0.0900
; #@! TA.AperFunction,Plated,PTH,ComponentDrill
T9C0.1693
; #@! TA.AperFunction,Plated,PTH,ComponentDrill
T10C0.1772
; #@! TA.AperFunction,Plated,PTH,ComponentDrill
T11C0.1969
%
G90
G05
T1
X3.4843Y-3.5728
X3.5236Y-4.5276
X3.5728Y-4.124
X3.6024Y-2.8937
X3.6024Y-2.9823
X3.6122Y-4.0551
X3.6319Y-3.002
X3.6319Y-4.6358
X3.6417Y-6.122
X3.6516Y-3.8583
X3.6614Y-3.7894
X3.6713Y-3.002
X3.6713Y-4.3898
X3.6713Y-4.4783
X3.6811Y-3.9961
X3.7008Y-2.8937
X3.7008Y-2.9823
X3.7008Y-4.498
X3.7106Y-6.122
X3.7205Y-4.7343
X3.7402Y-4.498
X3.7697Y-4.3898
X3.7697Y-4.4783
X3.7795Y-6.122
X3.8386Y-4.8425
X3.878Y-6.122
X3.9173Y-3.7303
X3.9173Y-4.5669
X3.9173Y-4.685
X3.9272Y-3.4252
X3.9272Y-3.6417
X3.9567Y-4.9409
X3.9567Y-5.2264
X3.9764Y-6.122
X4.0256Y-3.8287
X4.0551Y-4.7638
X4.0551Y-6.122
X4.065Y-2.9035
X4.0748Y-2.7756
X4.0748Y-3.1201
X4.0748Y-4.626
X4.0945Y-3.3957
X4.1437Y-6.122
X4.1831Y-2.7362
X4.1929Y-2.8346
X4.2224Y-5.4921
X4.2323Y-3.1398
X4.2421Y-6.122
X4.2717Y-3.1398
X4.2717Y-3.2874
X4.2815Y-2.8346
X4.311Y-3.1398
X4.3307Y-5.502
X4.3406Y-6.122
X4.3504Y-2.7657
X4.3504Y-3.1398
X4.3898Y-2.9823
X4.3898Y-3.1398
X4.4291Y-2.7657
X4.4291Y-2.9823
X4.4291Y-3.1398
X4.439Y-6.122
X4.4685Y-2.8051
X4.4685Y-2.9823
X4.4685Y-3.1398
X4.4882Y-5.502
X4.498Y-4.3012
X4.5079Y-3.0512
X4.5079Y-3.1398
X4.5079Y-3.4449
X4.5079Y-4.4488
X4.5079Y-4.5472
X4.5079Y-4.8031
X4.5079Y-4.9311
X4.5177Y-3.5433
X4.5177Y-3.6417
X4.5177Y-3.9469
X4.5177Y-4.0453
X4.5177Y-4.1437
X4.5177Y-4.6457
X4.5276Y-5.9646
X4.5276Y-6.0335
X4.5276Y-6.122
X4.5866Y-2.7854
X4.5965Y-5.0591
X4.5965Y-5.502
X4.6063Y-6.122
X4.6949Y-6.122
X4.7047Y-5.502
X4.7146Y-2.7559
X4.7244Y-5.0197
X4.7343Y-4.8425
X4.7736Y-3.002
X4.7736Y-3.1398
X4.7736Y-3.2972
X4.7736Y-3.5039
X4.7736Y-3.7106
X4.7736Y-3.9173
X4.7736Y-4.0945
X4.7736Y-4.1634
X4.7736Y-4.3209
X4.7736Y-4.4783
X4.7736Y-4.6457
X4.7736Y-4.7835
X4.7835Y-5.0197
X4.7933Y-2.8937
X4.8031Y-5.502
X4.8425Y-2.7264
X4.8425Y-5.0197
X4.9016Y-2.8642
X4.9016Y-2.9921
X4.9016Y-3.1594
X4.9016Y-3.2776
X4.9016Y-3.435
X4.9016Y-3.6122
X4.9016Y-3.7992
X4.9016Y-4.252
X4.9016Y-4.4291
X4.9016Y-5.0197
X4.9114Y-4.0453
X4.9213Y-5.502
X4.9213Y-5.561
X4.9213Y-5.6201
X4.9311Y-5.689
X4.9606Y-4.5768
X4.9705Y-2.6969
X4.9705Y-5.0197
X4.9803Y-3.1594
X4.9902Y-5.689
X5.0197Y-3.0413
X5.0295Y-2.8543
X5.0295Y-4.3209
X5.0295Y-4.4094
X5.0394Y-3.1791
X5.0394Y-3.3268
X5.0394Y-3.5827
X5.0394Y-3.7992
X5.0492Y-5.689
X5.0492Y-6.0827
X5.0591Y-4.4291
X5.0689Y-3.9764
X5.0984Y-2.7854
X5.0984Y-4.4291
X5.1083Y-3.6811
X5.1181Y-3.189
X5.1181Y-3.4547
X5.128Y-3.878
X5.128Y-4.3209
X5.128Y-4.4094
X5.1378Y-4.0551
X5.1476Y-5.689
X5.1575Y-2.9823
X5.1575Y-3.061
X5.1673Y-2.7264
X5.1772Y-2.8839
X5.187Y-5.0197
X5.1969Y-4.8031
X5.2165Y-5.689
X5.2461Y-4.7146
X5.2559Y-3.0413
X5.2559Y-5.0197
X5.2657Y-2.9528
X5.2657Y-3.1299
X5.2756Y-2.8642
X5.2854Y-2.7756
X5.2953Y-5.689
X5.3642Y-2.9331
X5.374Y-2.7657
X5.374Y-2.8445
X5.3839Y-5.689
X5.4232Y-3.002
X5.4232Y-5.876
X5.4232Y-5.9646
X5.4232Y-6.0236
X5.4429Y-5.689
X5.4724Y-2.7461
X5.4724Y-2.8248
X5.4724Y-2.9232
X5.4724Y-4.252
X5.4724Y-4.3504
X5.4724Y-4.4488
X5.4724Y-4.6555
X5.4724Y-4.7539
X5.4823Y-3.0512
X5.4823Y-3.2677
X5.4823Y-3.5433
X5.4823Y-3.6516
X5.4823Y-3.7697
X5.4823Y-3.8681
X5.4823Y-3.9665
X5.4823Y-4.065
X5.4823Y-4.1535
X5.4823Y-4.8524
X5.4823Y-4.9508
X5.4921Y-3.3465
X5.502Y-5.9055
X5.561Y-2.7362
X5.5709Y-2.8248
X5.5906Y-3.2185
X5.6004Y-5.935
X5.6693Y-2.7362
X5.6988Y-5.9252
X5.7579Y-3.3661
X5.7972Y-5.8661
X5.8169Y-3.0118
X5.8169Y-3.1398
X5.8465Y-5.7677
X5.8661Y-3.3858
X5.876Y-3.0807
X5.9055Y-4.9508
X5.9154Y-4.4094
X5.9252Y-3.4941
X5.9252Y-3.7303
X5.9252Y-4.7638
X5.9646Y-6.0827
X5.9744Y-3.1398
X6.0433Y-4.8917
X6.0433Y-5.6988
X6.0531Y-5.5315
X6.0827Y-3.5236
X6.0827Y-4.4685
X6.0925Y-3.7205
X6.0925Y-4.3602
X6.1024Y-3.6319
X6.122Y-3.376
X6.1319Y-4.8228
X6.2106Y-3.0118
X6.2106Y-3.1398
X6.2402Y-4.7146
X6.2697Y-3.5236
X6.2795Y-3.0807
X6.2894Y-3.3169
X6.3681Y-4.3209
X6.378Y-4.5571
X6.4173Y-3.8484
X6.4272Y-3.4744
X6.4862Y-3.376
X6.4862Y-3.4646
X6.4862Y-4.1339
X6.5157Y-3.4843
X6.5354Y-4.5866
X6.5354Y-4.6752
X6.5551Y-3.4843
X6.565Y-4.6949
X6.5846Y-3.376
X6.5846Y-3.4646
X6.6043Y-4.6949
X6.6339Y-4.5866
X6.6339Y-4.6752
X6.6831Y-4.8228
T2
X3.1703Y-2.5295
X3.1801Y-5.8957
X3.2075Y-2.4397
X3.2075Y-2.6193
X3.2173Y-5.8059
X3.2173Y-5.9854
X3.2972Y-2.4026
X3.2972Y-2.6565
X3.3071Y-5.7687
X3.3071Y-6.0226
X3.387Y-2.4397
X3.387Y-2.6193
X3.3969Y-5.8059
X3.3969Y-5.9854
X3.4242Y-2.5295
X3.4341Y-5.8957
X6.5561Y-2.5295
X6.5561Y-5.8957
X6.5933Y-2.4397
X6.5933Y-2.6193
X6.5933Y-5.8059
X6.5933Y-5.9854
X6.6831Y-2.4026
X6.6831Y-2.6565
X6.6831Y-5.7687
X6.6831Y-6.0226
X6.7729Y-2.4397
X6.7729Y-2.6193
X6.7729Y-5.8059
X6.7729Y-5.9854
X6.81Y-2.5295
X6.81Y-5.8957
T3
X5.9697Y-5.6201
X6.2697Y-5.6201
T4
X6.2106Y-5.8459
X6.2106Y-5.9459
T5
X3.4242Y-3.6894
X3.4242Y-3.7894
X3.4242Y-3.8894
X3.4242Y-3.9894
X3.4242Y-4.0894
X3.4242Y-4.1894
X3.4242Y-4.2894
X3.4242Y-4.3894
X3.7096Y-5.5988
X3.7096Y-5.6988
X4.0049Y-3.4323
X4.0049Y-3.5323
X4.0049Y-3.6323
X4.0049Y-3.7323
X4.0049Y-4.3701
X4.0049Y-4.4701
X4.0049Y-4.5701
X4.0049Y-4.6701
X4.1407Y-2.627
X4.2407Y-2.627
X4.3407Y-2.627
X4.4407Y-2.627
X4.5407Y-2.627
X4.6407Y-2.627
X4.7407Y-2.627
X4.8407Y-2.627
X4.9407Y-2.627
X5.0407Y-2.627
X5.1407Y-2.627
X5.2407Y-2.627
X5.3407Y-2.627
X5.4407Y-2.627
X5.5407Y-2.627
X5.6201Y-5.6154
X5.6201Y-5.8123
X5.6407Y-2.627
X5.7185Y-3.0808
X5.7407Y-2.627
X5.8185Y-3.0808
X5.8407Y-2.627
X6.0049Y-3.4232
X6.0049Y-3.5232
X6.0049Y-3.6232
X6.0049Y-3.7232
X6.0049Y-4.3602
X6.0049Y-4.4602
X6.0049Y-4.5602
X6.0049Y-4.6602
X6.1122Y-3.0797
X6.2122Y-3.0797
X6.6033Y-3.7943
X6.6033Y-3.8943
X6.6033Y-3.9943
X6.6033Y-4.0943
X6.6033Y-4.1943
X6.6033Y-4.2943
T6
X4.6402Y-3.0964
X4.6402Y-3.1964
X4.6402Y-3.2964
X4.6402Y-3.3964
X4.6402Y-3.4964
X4.6402Y-3.5964
X4.6402Y-3.6964
X4.6402Y-3.7964
X4.6402Y-3.8964
X4.6402Y-3.9964
X4.6402Y-4.0964
X4.6402Y-4.1964
X4.6402Y-4.2964
X4.6402Y-4.3964
X4.6402Y-4.4964
X4.6402Y-4.5964
X4.6402Y-4.6964
X4.6402Y-4.7964
X4.6402Y-4.8964
X4.6402Y-4.9964
X5.3402Y-3.0964
X5.3402Y-3.1964
X5.3402Y-3.2964
X5.3402Y-3.3964
X5.3402Y-3.4964
X5.3402Y-3.5964
X5.3402Y-3.6964
X5.3402Y-3.7964
X5.3402Y-3.8964
X5.3402Y-3.9964
X5.3402Y-4.0964
X5.3402Y-4.1964
X5.3402Y-4.2964
X5.3402Y-4.3964
X5.3402Y-4.4964
X5.3402Y-4.5964
X5.3402Y-4.6964
X5.3402Y-4.7964
X5.3402Y-4.8964
X5.3402Y-4.9964
T7
X4.9Y-4.93
X5.0Y-4.93
X5.1Y-4.93
X5.1793Y-5.6179
X5.1793Y-5.8179
T8
X4.685Y-5.6319
X4.685Y-5.8169
X4.685Y-6.0019
T9
X3.2972Y-2.5295
X3.3071Y-5.8957
X6.6831Y-2.5295
X6.6831Y-5.8957
T10
X3.9961Y-5.626
X3.9961Y-5.9094
T11
X3.7598Y-5.187
X3.7992Y-2.6476
X3.9075Y-4.0551
X4.6949Y-5.2767
X5.2657Y-5.2767
X6.1024Y-4.0453
X6.2303Y-2.6476
X6.25Y-5.187
T0
M30
