<?xml version="1.0" standalone="no"?>
 <!DOCTYPE svg PUBLIC "-//W3C//DTD SVG 1.1//EN" 
 "http://www.w3.org/Graphics/SVG/1.1/DTD/svg11.dtd"> 
<svg
  xmlns:svg="http://www.w3.org/2000/svg"
  xmlns="http://www.w3.org/2000/svg"
  xmlns:xlink="http://www.w3.org/1999/xlink"
  version="1.1"
  width="9.103360cm" height="8.996680cm" viewBox="0 0 91033600 89966800">
<title>SVG Picture created as Kitty_PCB-Edge_Cuts.svg date 2022/12/15 10:46:14 </title>
  <desc>Picture generated by PCBNEW </desc>
<g style="fill:#000000; fill-opacity:1.000000;stroke:#000000; stroke-opacity:1.000000;
stroke-linecap:round; stroke-linejoin:round;"
 transform="translate(0 0) scale(1 1)">
</g>
<g style="fill:#000000; fill-opacity:0.0; 
stroke:#000000; stroke-width:0.000000; stroke-opacity:1; 
stroke-linecap:round; stroke-linejoin:round;">
</g>
<g style="fill:#D0D2CD; fill-opacity:0.0; 
stroke:#D0D2CD; stroke-width:0.000000; stroke-opacity:1; 
stroke-linecap:round; stroke-linejoin:round;">
</g>
<g style="fill:#D0D2CD; fill-opacity:0.0; 
stroke:#D0D2CD; stroke-width:200000.000000; stroke-opacity:1; 
stroke-linecap:round; stroke-linejoin:round;">
<path d="M29488722.782194 86850030.883126 A6921697.000000 6921697.000000 0.0 0 0 38488763.071794 88600000.122015" />
<path d="M89238751.403884 50850008.112940 A50990252.000000 50990252.000000 0.0 0 0 60738762.889503 30850000.409620" />
<path d="M3738760.563413 3599999.793469 A51875759.000000 51875759.000000 0.0 0 0 4988763.433854 20099999.895764" />
<path d="M53488770.765310 88349983.867732 A16718124.000000 16718124.000000 0.0 0 0 38488763.018862 88600000.036058" />
</g>
<g style="fill:#D0D2CD; fill-opacity:0.0; 
stroke:#D0D2CD; stroke-width:100000.000000; stroke-opacity:1; 
stroke-linecap:round; stroke-linejoin:round;">
<circle cx="9988763.000000" cy="7850000.000000" r="3181981.000000" /> 
</g>
<g style="fill:#D0D2CD; fill-opacity:0.0; 
stroke:#D0D2CD; stroke-width:200000.000000; stroke-opacity:1; 
stroke-linecap:round; stroke-linejoin:round;">
<path d="M45488765.448438 850008.470314 A36305276.000000 36305276.000000 0.0 0 0 34238762.920810 6349999.890942" />
<path d="M34238748.351047 6350029.878296 A17332078.000000 17332078.000000 0.0 0 0 18488763.047194 6600000.088997" />
<path d="M47738757.672855 19099998.809044 A48738245.000000 48738245.000000 0.0 0 0 48738762.671969 4350000.027805" />
<path d="M18488775.148469 6599986.894225 A28598263.000000 28598263.000000 0.0 0 0 6988763.107380 99999.628521" />
<path d="M6988764.492323 100005.135737 A4647801.000000 4647801.000000 0.0 0 0 3738762.969943 3599999.993633" />
<path d="M47738772.502783 19099993.883520 A33581455.000000 33581455.000000 0.0 0 0 60738763.060892 30849999.880415" />
<path d="M29488802.679340 86849970.469912 A1530800.000000 1530800.000000 0.0 0 0 26738762.535609 87599999.949991" />
<path d="M53488773.247761 88349973.627347 A22674388.000000 22674388.000000 0.0 0 0 69238763.123990 88600000.351776" />
<path d="M48738767.921510 4349998.957444 A4647806.000000 4647806.000000 0.0 0 0 45488762.902851 850000.334332" />
<path d="M15988768.088821 86349992.708370 A11421865.000000 11421865.000000 0.0 0 0 26738762.949591 87599999.872979" />
<path d="M4988766.915522 20100001.637272 A63154743.000000 63154743.000000 0.0 0 0 15988763.154435 86349999.863142" />
<path d="M69238761.408637 88599993.788274 A28872473.000000 28872473.000000 0.0 0 0 89238762.913975 50850000.030973" />
<g >
</g>
<g >
</g>
<g >
</g>
</g> 
</svg>
