M48
; DRILL file {KiCad (6.0.9)} date Thu Dec 22 23:35:37 2022
; FORMAT={-:-/ absolute / inch / decimal}
; #@! TF.CreationDate,2022-12-22T23:35:37-05:00
; #@! TF.GenerationSoftware,Kicad,Pcbnew,(6.0.9)
; #@! TF.FileFunction,Plated,1,4,PTH
FMAT,2
INCH
; #@! TA.AperFunction,Plated,PTH,ComponentDrill
T1C0.0197
; #@! TA.AperFunction,Plated,PTH,ComponentDrill
T2C0.0394
; #@! TA.AperFunction,Plated,PTH,ComponentDrill
T3C0.0591
; #@! TA.AperFunction,Plated,PTH,ComponentDrill
T4C0.1181
%
G90
G05
T1
X4.2913Y-2.2146
X4.3173Y-2.1519
X4.3173Y-2.2772
X4.3799Y-2.126
X4.3799Y-2.3031
X4.4426Y-2.1519
X4.4426Y-2.2772
X4.4685Y-2.2146
X4.813Y-5.1969
X4.8389Y-5.1342
X4.8389Y-5.2595
X4.9016Y-5.1083
X4.9016Y-5.2854
X4.9642Y-5.1342
X4.9642Y-5.2595
X4.9902Y-5.1969
X5.6693Y-2.2539
X5.6952Y-2.1913
X5.6952Y-2.3166
X5.7579Y-2.1654
X5.7579Y-2.3425
X5.8205Y-2.1913
X5.8205Y-2.3166
X5.8465Y-2.2539
X6.3681Y-5.2461
X6.3941Y-5.1834
X6.3941Y-5.3087
X6.4567Y-5.1575
X6.4567Y-5.3346
X6.5193Y-5.1834
X6.5193Y-5.3087
X6.5453Y-5.2461
X7.2638Y-4.1142
X7.2897Y-4.0515
X7.2897Y-4.1768
X7.3524Y-4.0256
X7.3524Y-4.2028
X7.415Y-4.0515
X7.415Y-4.1768
X7.4409Y-4.1142
T2
X4.9331Y-2.3494
X5.0331Y-2.3494
X5.1331Y-2.3494
X5.2331Y-2.3494
T3
X4.9626Y-4.0528
X5.2126Y-3.9528
X6.1689Y-4.0575
X6.4189Y-3.9575
T4
X4.3799Y-2.2146
X4.9016Y-5.1969
X5.7579Y-2.2539
X6.4567Y-5.2461
X7.3524Y-4.1142
T0
M30
