%TF.GenerationSoftware,KiCad,Pcbnew,(6.0.9)*%
%TF.CreationDate,2022-12-22T23:35:39-05:00*%
%TF.ProjectId,Multipurpose_4Layer_Project,4d756c74-6970-4757-9270-6f73655f344c,rev?*%
%TF.SameCoordinates,Original*%
%TF.FileFunction,Legend,Top*%
%TF.FilePolarity,Positive*%
%FSLAX46Y46*%
G04 Gerber Fmt 4.6, Leading zero omitted, Abs format (unit mm)*
G04 Created by KiCad (PCBNEW (6.0.9)) date 2022-12-22 23:35:39*
%MOMM*%
%LPD*%
G01*
G04 APERTURE LIST*
%ADD10C,0.200000*%
%ADD11C,0.150000*%
%ADD12C,0.120000*%
G04 APERTURE END LIST*
D10*
X109580020Y-51330069D02*
G75*
G03*
X107080000Y-55080000I975880J-3358931D01*
G01*
X191330000Y-101830000D02*
G75*
G03*
X189580000Y-99580000I-28987400J-20740200D01*
G01*
X171330000Y-137830002D02*
G75*
G03*
X191330000Y-101830000I-6257350J27031862D01*
G01*
X136830000Y-57580000D02*
G75*
G03*
X121080000Y-57830000I-7629960J-15562560D01*
G01*
X189580000Y-99580000D02*
G75*
G03*
X162580000Y-81580000I-40253000J-31129500D01*
G01*
X148080002Y-52080007D02*
G75*
G03*
X136830000Y-57580000I10081898J-34877793D01*
G01*
X132329997Y-135892916D02*
G75*
G03*
X140949205Y-137830000I5393203J3853016D01*
G01*
X121079997Y-57830004D02*
G75*
G03*
X109580000Y-51330000I-19441497J-20973396D01*
G01*
X155949212Y-137579985D02*
G75*
G03*
X140949205Y-137830000I-7251012J-15063615D01*
G01*
X107079993Y-55080000D02*
G75*
G03*
X108830000Y-70580000I63380507J-692900D01*
G01*
X119830010Y-135579985D02*
G75*
G03*
X128949205Y-136580000I5494890J8028985D01*
G01*
X150579981Y-55080006D02*
G75*
G03*
X148080000Y-52080000I-4853981J-1503294D01*
G01*
X149579986Y-69830009D02*
G75*
G03*
X162580000Y-81580000I28238014J18175609D01*
G01*
X149579999Y-69830000D02*
G75*
G03*
X150580000Y-55080000I-47564299J10633600D01*
G01*
X132329970Y-135892932D02*
G75*
G03*
X128949205Y-136580000I-1562870J-970968D01*
G01*
X108829995Y-70579998D02*
G75*
G03*
X119830000Y-135580000I59374635J-23382752D01*
G01*
X155949214Y-137579976D02*
G75*
G03*
X171330000Y-137830000I8028286J20661276D01*
G01*
D11*
%TO.C,H2*%
X145488095Y-61952380D02*
X145488095Y-60952380D01*
X145488095Y-61428571D02*
X146059523Y-61428571D01*
X146059523Y-61952380D02*
X146059523Y-60952380D01*
X146488095Y-61047619D02*
X146535714Y-61000000D01*
X146630952Y-60952380D01*
X146869047Y-60952380D01*
X146964285Y-61000000D01*
X147011904Y-61047619D01*
X147059523Y-61142857D01*
X147059523Y-61238095D01*
X147011904Y-61380952D01*
X146440476Y-61952380D01*
X147059523Y-61952380D01*
%TO.C,SW2*%
X159166666Y-98130761D02*
X159309523Y-98178380D01*
X159547619Y-98178380D01*
X159642857Y-98130761D01*
X159690476Y-98083142D01*
X159738095Y-97987904D01*
X159738095Y-97892666D01*
X159690476Y-97797428D01*
X159642857Y-97749809D01*
X159547619Y-97702190D01*
X159357142Y-97654571D01*
X159261904Y-97606952D01*
X159214285Y-97559333D01*
X159166666Y-97464095D01*
X159166666Y-97368857D01*
X159214285Y-97273619D01*
X159261904Y-97226000D01*
X159357142Y-97178380D01*
X159595238Y-97178380D01*
X159738095Y-97226000D01*
X160071428Y-97178380D02*
X160309523Y-98178380D01*
X160500000Y-97464095D01*
X160690476Y-98178380D01*
X160928571Y-97178380D01*
X161261904Y-97273619D02*
X161309523Y-97226000D01*
X161404761Y-97178380D01*
X161642857Y-97178380D01*
X161738095Y-97226000D01*
X161785714Y-97273619D01*
X161833333Y-97368857D01*
X161833333Y-97464095D01*
X161785714Y-97606952D01*
X161214285Y-98178380D01*
X161833333Y-98178380D01*
%TO.C,H1*%
X110738095Y-60952380D02*
X110738095Y-59952380D01*
X110738095Y-60428571D02*
X111309523Y-60428571D01*
X111309523Y-60952380D02*
X111309523Y-59952380D01*
X112309523Y-60952380D02*
X111738095Y-60952380D01*
X112023809Y-60952380D02*
X112023809Y-59952380D01*
X111928571Y-60095238D01*
X111833333Y-60190476D01*
X111738095Y-60238095D01*
%TO.C,J1*%
X121982380Y-60008333D02*
X122696666Y-60008333D01*
X122839523Y-60055952D01*
X122934761Y-60151190D01*
X122982380Y-60294047D01*
X122982380Y-60389285D01*
X122982380Y-59008333D02*
X122982380Y-59579761D01*
X122982380Y-59294047D02*
X121982380Y-59294047D01*
X122125238Y-59389285D01*
X122220476Y-59484523D01*
X122268095Y-59579761D01*
%TO.C,SW1*%
X128526666Y-98010761D02*
X128669523Y-98058380D01*
X128907619Y-98058380D01*
X129002857Y-98010761D01*
X129050476Y-97963142D01*
X129098095Y-97867904D01*
X129098095Y-97772666D01*
X129050476Y-97677428D01*
X129002857Y-97629809D01*
X128907619Y-97582190D01*
X128717142Y-97534571D01*
X128621904Y-97486952D01*
X128574285Y-97439333D01*
X128526666Y-97344095D01*
X128526666Y-97248857D01*
X128574285Y-97153619D01*
X128621904Y-97106000D01*
X128717142Y-97058380D01*
X128955238Y-97058380D01*
X129098095Y-97106000D01*
X129431428Y-97058380D02*
X129669523Y-98058380D01*
X129860000Y-97344095D01*
X130050476Y-98058380D01*
X130288571Y-97058380D01*
X131193333Y-98058380D02*
X130621904Y-98058380D01*
X130907619Y-98058380D02*
X130907619Y-97058380D01*
X130812380Y-97201238D01*
X130717142Y-97296476D01*
X130621904Y-97344095D01*
%TO.C,H4*%
X163488095Y-137952380D02*
X163488095Y-136952380D01*
X163488095Y-137428571D02*
X164059523Y-137428571D01*
X164059523Y-137952380D02*
X164059523Y-136952380D01*
X164964285Y-137285714D02*
X164964285Y-137952380D01*
X164726190Y-136904761D02*
X164488095Y-137619047D01*
X165107142Y-137619047D01*
%TO.C,H5*%
X124238095Y-136702380D02*
X124238095Y-135702380D01*
X124238095Y-136178571D02*
X124809523Y-136178571D01*
X124809523Y-136702380D02*
X124809523Y-135702380D01*
X125761904Y-135702380D02*
X125285714Y-135702380D01*
X125238095Y-136178571D01*
X125285714Y-136130952D01*
X125380952Y-136083333D01*
X125619047Y-136083333D01*
X125714285Y-136130952D01*
X125761904Y-136178571D01*
X125809523Y-136273809D01*
X125809523Y-136511904D01*
X125761904Y-136607142D01*
X125714285Y-136654761D01*
X125619047Y-136702380D01*
X125380952Y-136702380D01*
X125285714Y-136654761D01*
X125238095Y-136607142D01*
%TO.C,H3*%
X185988095Y-100952380D02*
X185988095Y-99952380D01*
X185988095Y-100428571D02*
X186559523Y-100428571D01*
X186559523Y-100952380D02*
X186559523Y-99952380D01*
X186940476Y-99952380D02*
X187559523Y-99952380D01*
X187226190Y-100333333D01*
X187369047Y-100333333D01*
X187464285Y-100380952D01*
X187511904Y-100428571D01*
X187559523Y-100523809D01*
X187559523Y-100761904D01*
X187511904Y-100857142D01*
X187464285Y-100904761D01*
X187369047Y-100952380D01*
X187083333Y-100952380D01*
X186988095Y-100904761D01*
X186940476Y-100857142D01*
D12*
%TO.C,SW2*%
X167485000Y-98615000D02*
X167485000Y-112585000D01*
X167485000Y-112585000D02*
X153515000Y-112585000D01*
X153515000Y-98615000D02*
X167485000Y-98615000D01*
X153515000Y-112585000D02*
X153515000Y-98615000D01*
%TO.C,J1*%
X123970000Y-59675000D02*
X123970000Y-58345000D01*
X126570000Y-58345000D02*
X134250000Y-58345000D01*
X123970000Y-58345000D02*
X125300000Y-58345000D01*
X126570000Y-61005000D02*
X134250000Y-61005000D01*
X126570000Y-61005000D02*
X126570000Y-58345000D01*
X134250000Y-61005000D02*
X134250000Y-58345000D01*
%TO.C,SW1*%
X122875000Y-98495000D02*
X136845000Y-98495000D01*
X122875000Y-112465000D02*
X122875000Y-98495000D01*
X136845000Y-98495000D02*
X136845000Y-112465000D01*
X136845000Y-112465000D02*
X122875000Y-112465000D01*
%TD*%
M02*
