%TF.GenerationSoftware,KiCad,Pcbnew,(6.0.9)*%
%TF.CreationDate,2022-12-26T12:39:24-05:00*%
%TF.ProjectId,Kitty_PCB,4b697474-795f-4504-9342-2e6b69636164,rev?*%
%TF.SameCoordinates,Original*%
%TF.FileFunction,Soldermask,Bot*%
%TF.FilePolarity,Negative*%
%FSLAX46Y46*%
G04 Gerber Fmt 4.6, Leading zero omitted, Abs format (unit mm)*
G04 Created by KiCad (PCBNEW (6.0.9)) date 2022-12-26 12:39:24*
%MOMM*%
%LPD*%
G01*
G04 APERTURE LIST*
%ADD10C,0.800000*%
%ADD11C,6.000000*%
%ADD12C,2.200000*%
%ADD13C,1.700000*%
%ADD14C,4.000000*%
%ADD15R,1.700000X1.700000*%
%ADD16O,1.700000X1.700000*%
G04 APERTURE END LIST*
D10*
%TO.C,H2*%
X147840990Y-58840990D03*
X148500000Y-57250000D03*
X144659010Y-55659010D03*
X144659010Y-58840990D03*
X146250000Y-55000000D03*
X146250000Y-59500000D03*
X147840990Y-55659010D03*
D11*
X146250000Y-57250000D03*
D10*
X144000000Y-57250000D03*
%TD*%
D12*
%TO.C,SW2*%
X156650000Y-98540000D03*
X163000000Y-96000000D03*
D13*
X155380000Y-101080000D03*
X165540000Y-101080000D03*
D14*
X160460000Y-101080000D03*
%TD*%
D10*
%TO.C,H1*%
X109659010Y-54659010D03*
X109659010Y-57840990D03*
X111250000Y-54000000D03*
X112840990Y-54659010D03*
X111250000Y-58500000D03*
D11*
X111250000Y-56250000D03*
D10*
X112840990Y-57840990D03*
X113500000Y-56250000D03*
X109000000Y-56250000D03*
%TD*%
D15*
%TO.C,J1*%
X125300000Y-59675000D03*
D16*
X127840000Y-59675000D03*
X130380000Y-59675000D03*
X132920000Y-59675000D03*
%TD*%
D13*
%TO.C,SW1*%
X134900000Y-100960000D03*
X124740000Y-100960000D03*
D14*
X129820000Y-100960000D03*
D12*
X132360000Y-95880000D03*
X126010000Y-98420000D03*
%TD*%
D10*
%TO.C,H4*%
X164000000Y-131000000D03*
X161750000Y-133250000D03*
X162409010Y-131659010D03*
X164000000Y-135500000D03*
D11*
X164000000Y-133250000D03*
D10*
X162409010Y-134840990D03*
X165590990Y-134840990D03*
X165590990Y-131659010D03*
X166250000Y-133250000D03*
%TD*%
%TO.C,H5*%
X126090990Y-133590990D03*
X126090990Y-130409010D03*
X126750000Y-132000000D03*
X122909010Y-133590990D03*
X124500000Y-134250000D03*
D11*
X124500000Y-132000000D03*
D10*
X124500000Y-129750000D03*
X122909010Y-130409010D03*
X122250000Y-132000000D03*
%TD*%
%TO.C,H6*%
X145990990Y-102490990D03*
X142150000Y-100900000D03*
X145990990Y-99309010D03*
X144400000Y-103150000D03*
X142809010Y-102490990D03*
X144400000Y-98650000D03*
D11*
X144400000Y-100900000D03*
D10*
X146650000Y-100900000D03*
X142809010Y-99309010D03*
%TD*%
%TO.C,H3*%
X189000000Y-104500000D03*
X184500000Y-104500000D03*
X186750000Y-106750000D03*
X186750000Y-102250000D03*
X188340990Y-102909010D03*
X188340990Y-106090990D03*
X185159010Y-102909010D03*
D11*
X186750000Y-104500000D03*
D10*
X185159010Y-106090990D03*
%TD*%
M02*
