%TF.GenerationSoftware,KiCad,Pcbnew,(6.0.9)*%
%TF.CreationDate,2022-12-26T12:39:22-05:00*%
%TF.ProjectId,Kitty_PCB,4b697474-795f-4504-9342-2e6b69636164,rev?*%
%TF.SameCoordinates,Original*%
%TF.FileFunction,Drillmap*%
%TF.FilePolarity,Positive*%
%FSLAX45Y45*%
G04 Gerber Fmt 4.5, Leading zero omitted, Abs format (unit mm)*
G04 Created by KiCad (PCBNEW (6.0.9)) date 2022-12-26 12:39:22*
%MOMM*%
%LPD*%
G01*
G04 APERTURE LIST*
%ADD10C,0.200000*%
%ADD11C,0.170000*%
%ADD12C,0.400000*%
G04 APERTURE END LIST*
D10*
X13207998Y-13708002D02*
G75*
G03*
X14108000Y-13883000I548982J421552D01*
G01*
X19183000Y-10108000D02*
G75*
G03*
X16333000Y-8108000I-4178025J-2923060D01*
G01*
X10632999Y-5383000D02*
G75*
G03*
X10758000Y-7033000I5169021J-438140D01*
G01*
X15608001Y-13857998D02*
G75*
G03*
X14108000Y-13883000I-725101J-1506372D01*
G01*
X14808000Y-5107999D02*
G75*
G03*
X13683000Y-5658000I1008190J-3487771D01*
G01*
X13683000Y-5658000D02*
G75*
G03*
X12108000Y-5683000I-762996J-1556245D01*
G01*
X15033000Y-6933000D02*
G75*
G03*
X15133000Y-5458000I-4756430J1063360D01*
G01*
X12107999Y-5683001D02*
G75*
G03*
X10958000Y-5033000I-1944139J-2097319D01*
G01*
X10958000Y-5033001D02*
G75*
G03*
X10633000Y-5383000I129690J-446320D01*
G01*
X15033001Y-6932999D02*
G75*
G03*
X16333000Y-8108000I2823789J1817539D01*
G01*
X13208004Y-13707997D02*
G75*
G03*
X12933000Y-13783000I-122804J-91393D01*
G01*
X15608001Y-13857997D02*
G75*
G03*
X17183000Y-13883000I821249J2113508D01*
G01*
X15133000Y-5458000D02*
G75*
G03*
X14808000Y-5108000I-454691J-96320D01*
G01*
X11858000Y-13657999D02*
G75*
G03*
X12933000Y-13783000I653680J936639D01*
G01*
X10758000Y-7033000D02*
G75*
G03*
X11858000Y-13658000I5826599J-2436385D01*
G01*
X17183000Y-13883000D02*
G75*
G03*
X19183000Y-10108000I-716536J2796923D01*
G01*
D11*
X12389000Y-10011000D02*
X12559000Y-10181000D01*
X12559000Y-10011000D02*
X12389000Y-10181000D01*
X13405000Y-10011000D02*
X13575000Y-10181000D01*
X13575000Y-10011000D02*
X13405000Y-10181000D01*
X15453000Y-10023000D02*
X15623000Y-10193000D01*
X15623000Y-10023000D02*
X15453000Y-10193000D01*
X16469000Y-10023000D02*
X16639000Y-10193000D01*
X16639000Y-10023000D02*
X16469000Y-10193000D01*
D12*
X13182000Y-10096000D02*
G75*
G03*
X13182000Y-10096000I-200000J0D01*
G01*
X16246000Y-10108000D02*
G75*
G03*
X16246000Y-10108000I-200000J0D01*
G01*
D10*
X10516742Y-14332424D02*
X10516742Y-14132424D01*
X10564361Y-14132424D01*
X10592933Y-14141948D01*
X10611980Y-14160995D01*
X10621504Y-14180043D01*
X10631028Y-14218138D01*
X10631028Y-14246709D01*
X10621504Y-14284805D01*
X10611980Y-14303852D01*
X10592933Y-14322900D01*
X10564361Y-14332424D01*
X10516742Y-14332424D01*
X10716742Y-14332424D02*
X10716742Y-14199090D01*
X10716742Y-14237186D02*
X10726266Y-14218138D01*
X10735790Y-14208614D01*
X10754838Y-14199090D01*
X10773885Y-14199090D01*
X10840552Y-14332424D02*
X10840552Y-14199090D01*
X10840552Y-14132424D02*
X10831028Y-14141948D01*
X10840552Y-14151471D01*
X10850076Y-14141948D01*
X10840552Y-14132424D01*
X10840552Y-14151471D01*
X10964361Y-14332424D02*
X10945314Y-14322900D01*
X10935790Y-14303852D01*
X10935790Y-14132424D01*
X11069123Y-14332424D02*
X11050076Y-14322900D01*
X11040552Y-14303852D01*
X11040552Y-14132424D01*
X11297695Y-14332424D02*
X11297695Y-14132424D01*
X11364361Y-14275281D01*
X11431028Y-14132424D01*
X11431028Y-14332424D01*
X11611980Y-14332424D02*
X11611980Y-14227662D01*
X11602457Y-14208614D01*
X11583409Y-14199090D01*
X11545314Y-14199090D01*
X11526266Y-14208614D01*
X11611980Y-14322900D02*
X11592933Y-14332424D01*
X11545314Y-14332424D01*
X11526266Y-14322900D01*
X11516742Y-14303852D01*
X11516742Y-14284805D01*
X11526266Y-14265757D01*
X11545314Y-14256233D01*
X11592933Y-14256233D01*
X11611980Y-14246709D01*
X11707218Y-14199090D02*
X11707218Y-14399090D01*
X11707218Y-14208614D02*
X11726266Y-14199090D01*
X11764361Y-14199090D01*
X11783409Y-14208614D01*
X11792933Y-14218138D01*
X11802457Y-14237186D01*
X11802457Y-14294328D01*
X11792933Y-14313376D01*
X11783409Y-14322900D01*
X11764361Y-14332424D01*
X11726266Y-14332424D01*
X11707218Y-14322900D01*
X11888171Y-14313376D02*
X11897695Y-14322900D01*
X11888171Y-14332424D01*
X11878647Y-14322900D01*
X11888171Y-14313376D01*
X11888171Y-14332424D01*
X11888171Y-14208614D02*
X11897695Y-14218138D01*
X11888171Y-14227662D01*
X11878647Y-14218138D01*
X11888171Y-14208614D01*
X11888171Y-14227662D01*
D11*
X10089123Y-14576948D02*
X10259123Y-14746948D01*
X10259123Y-14576948D02*
X10089123Y-14746948D01*
D10*
X10621504Y-14752424D02*
X10507219Y-14752424D01*
X10564361Y-14752424D02*
X10564361Y-14552424D01*
X10545314Y-14580995D01*
X10526266Y-14600043D01*
X10507219Y-14609567D01*
X10707219Y-14733376D02*
X10716742Y-14742900D01*
X10707219Y-14752424D01*
X10697695Y-14742900D01*
X10707219Y-14733376D01*
X10707219Y-14752424D01*
X10783409Y-14552424D02*
X10916742Y-14552424D01*
X10831028Y-14752424D01*
X11031028Y-14552424D02*
X11050076Y-14552424D01*
X11069123Y-14561948D01*
X11078647Y-14571471D01*
X11088171Y-14590519D01*
X11097695Y-14628614D01*
X11097695Y-14676233D01*
X11088171Y-14714328D01*
X11078647Y-14733376D01*
X11069123Y-14742900D01*
X11050076Y-14752424D01*
X11031028Y-14752424D01*
X11011980Y-14742900D01*
X11002457Y-14733376D01*
X10992933Y-14714328D01*
X10983409Y-14676233D01*
X10983409Y-14628614D01*
X10992933Y-14590519D01*
X11002457Y-14571471D01*
X11011980Y-14561948D01*
X11031028Y-14552424D01*
X11221504Y-14552424D02*
X11240552Y-14552424D01*
X11259599Y-14561948D01*
X11269123Y-14571471D01*
X11278647Y-14590519D01*
X11288171Y-14628614D01*
X11288171Y-14676233D01*
X11278647Y-14714328D01*
X11269123Y-14733376D01*
X11259599Y-14742900D01*
X11240552Y-14752424D01*
X11221504Y-14752424D01*
X11202457Y-14742900D01*
X11192933Y-14733376D01*
X11183409Y-14714328D01*
X11173885Y-14676233D01*
X11173885Y-14628614D01*
X11183409Y-14590519D01*
X11192933Y-14571471D01*
X11202457Y-14561948D01*
X11221504Y-14552424D01*
X11373885Y-14752424D02*
X11373885Y-14619090D01*
X11373885Y-14638138D02*
X11383409Y-14628614D01*
X11402457Y-14619090D01*
X11431028Y-14619090D01*
X11450076Y-14628614D01*
X11459599Y-14647662D01*
X11459599Y-14752424D01*
X11459599Y-14647662D02*
X11469123Y-14628614D01*
X11488171Y-14619090D01*
X11516742Y-14619090D01*
X11535790Y-14628614D01*
X11545314Y-14647662D01*
X11545314Y-14752424D01*
X11640552Y-14752424D02*
X11640552Y-14619090D01*
X11640552Y-14638138D02*
X11650076Y-14628614D01*
X11669123Y-14619090D01*
X11697695Y-14619090D01*
X11716742Y-14628614D01*
X11726266Y-14647662D01*
X11726266Y-14752424D01*
X11726266Y-14647662D02*
X11735790Y-14628614D01*
X11754837Y-14619090D01*
X11783409Y-14619090D01*
X11802457Y-14628614D01*
X11811980Y-14647662D01*
X11811980Y-14752424D01*
X12202457Y-14542900D02*
X12031028Y-14800043D01*
X12459599Y-14552424D02*
X12478647Y-14552424D01*
X12497695Y-14561948D01*
X12507218Y-14571471D01*
X12516742Y-14590519D01*
X12526266Y-14628614D01*
X12526266Y-14676233D01*
X12516742Y-14714328D01*
X12507218Y-14733376D01*
X12497695Y-14742900D01*
X12478647Y-14752424D01*
X12459599Y-14752424D01*
X12440552Y-14742900D01*
X12431028Y-14733376D01*
X12421504Y-14714328D01*
X12411980Y-14676233D01*
X12411980Y-14628614D01*
X12421504Y-14590519D01*
X12431028Y-14571471D01*
X12440552Y-14561948D01*
X12459599Y-14552424D01*
X12611980Y-14733376D02*
X12621504Y-14742900D01*
X12611980Y-14752424D01*
X12602457Y-14742900D01*
X12611980Y-14733376D01*
X12611980Y-14752424D01*
X12745314Y-14552424D02*
X12764361Y-14552424D01*
X12783409Y-14561948D01*
X12792933Y-14571471D01*
X12802457Y-14590519D01*
X12811980Y-14628614D01*
X12811980Y-14676233D01*
X12802457Y-14714328D01*
X12792933Y-14733376D01*
X12783409Y-14742900D01*
X12764361Y-14752424D01*
X12745314Y-14752424D01*
X12726266Y-14742900D01*
X12716742Y-14733376D01*
X12707218Y-14714328D01*
X12697695Y-14676233D01*
X12697695Y-14628614D01*
X12707218Y-14590519D01*
X12716742Y-14571471D01*
X12726266Y-14561948D01*
X12745314Y-14552424D01*
X12983409Y-14552424D02*
X12945314Y-14552424D01*
X12926266Y-14561948D01*
X12916742Y-14571471D01*
X12897695Y-14600043D01*
X12888171Y-14638138D01*
X12888171Y-14714328D01*
X12897695Y-14733376D01*
X12907218Y-14742900D01*
X12926266Y-14752424D01*
X12964361Y-14752424D01*
X12983409Y-14742900D01*
X12992933Y-14733376D01*
X13002457Y-14714328D01*
X13002457Y-14666709D01*
X12992933Y-14647662D01*
X12983409Y-14638138D01*
X12964361Y-14628614D01*
X12926266Y-14628614D01*
X12907218Y-14638138D01*
X12897695Y-14647662D01*
X12888171Y-14666709D01*
X13173885Y-14552424D02*
X13135790Y-14552424D01*
X13116742Y-14561948D01*
X13107218Y-14571471D01*
X13088171Y-14600043D01*
X13078647Y-14638138D01*
X13078647Y-14714328D01*
X13088171Y-14733376D01*
X13097695Y-14742900D01*
X13116742Y-14752424D01*
X13154837Y-14752424D01*
X13173885Y-14742900D01*
X13183409Y-14733376D01*
X13192933Y-14714328D01*
X13192933Y-14666709D01*
X13183409Y-14647662D01*
X13173885Y-14638138D01*
X13154837Y-14628614D01*
X13116742Y-14628614D01*
X13097695Y-14638138D01*
X13088171Y-14647662D01*
X13078647Y-14666709D01*
X13288171Y-14752424D02*
X13326266Y-14752424D01*
X13345314Y-14742900D01*
X13354837Y-14733376D01*
X13373885Y-14704805D01*
X13383409Y-14666709D01*
X13383409Y-14590519D01*
X13373885Y-14571471D01*
X13364361Y-14561948D01*
X13345314Y-14552424D01*
X13307218Y-14552424D01*
X13288171Y-14561948D01*
X13278647Y-14571471D01*
X13269123Y-14590519D01*
X13269123Y-14638138D01*
X13278647Y-14657186D01*
X13288171Y-14666709D01*
X13307218Y-14676233D01*
X13345314Y-14676233D01*
X13364361Y-14666709D01*
X13373885Y-14657186D01*
X13383409Y-14638138D01*
X13459599Y-14552424D02*
X13459599Y-14590519D01*
X13535790Y-14552424D02*
X13535790Y-14590519D01*
X13831028Y-14828614D02*
X13821504Y-14819090D01*
X13802457Y-14790519D01*
X13792933Y-14771471D01*
X13783409Y-14742900D01*
X13773885Y-14695281D01*
X13773885Y-14657186D01*
X13783409Y-14609567D01*
X13792933Y-14580995D01*
X13802457Y-14561948D01*
X13821504Y-14533376D01*
X13831028Y-14523852D01*
X13992933Y-14619090D02*
X13992933Y-14752424D01*
X13945314Y-14542900D02*
X13897695Y-14685757D01*
X14021504Y-14685757D01*
X14250076Y-14752424D02*
X14250076Y-14552424D01*
X14335790Y-14752424D02*
X14335790Y-14647662D01*
X14326266Y-14628614D01*
X14307218Y-14619090D01*
X14278647Y-14619090D01*
X14259599Y-14628614D01*
X14250076Y-14638138D01*
X14459599Y-14752424D02*
X14440552Y-14742900D01*
X14431028Y-14733376D01*
X14421504Y-14714328D01*
X14421504Y-14657186D01*
X14431028Y-14638138D01*
X14440552Y-14628614D01*
X14459599Y-14619090D01*
X14488171Y-14619090D01*
X14507218Y-14628614D01*
X14516742Y-14638138D01*
X14526266Y-14657186D01*
X14526266Y-14714328D01*
X14516742Y-14733376D01*
X14507218Y-14742900D01*
X14488171Y-14752424D01*
X14459599Y-14752424D01*
X14640552Y-14752424D02*
X14621504Y-14742900D01*
X14611980Y-14723852D01*
X14611980Y-14552424D01*
X14792933Y-14742900D02*
X14773885Y-14752424D01*
X14735790Y-14752424D01*
X14716742Y-14742900D01*
X14707218Y-14723852D01*
X14707218Y-14647662D01*
X14716742Y-14628614D01*
X14735790Y-14619090D01*
X14773885Y-14619090D01*
X14792933Y-14628614D01*
X14802457Y-14647662D01*
X14802457Y-14666709D01*
X14707218Y-14685757D01*
X14878647Y-14742900D02*
X14897695Y-14752424D01*
X14935790Y-14752424D01*
X14954837Y-14742900D01*
X14964361Y-14723852D01*
X14964361Y-14714328D01*
X14954837Y-14695281D01*
X14935790Y-14685757D01*
X14907218Y-14685757D01*
X14888171Y-14676233D01*
X14878647Y-14657186D01*
X14878647Y-14647662D01*
X14888171Y-14628614D01*
X14907218Y-14619090D01*
X14935790Y-14619090D01*
X14954837Y-14628614D01*
X15031028Y-14828614D02*
X15040552Y-14819090D01*
X15059599Y-14790519D01*
X15069123Y-14771471D01*
X15078647Y-14742900D01*
X15088171Y-14695281D01*
X15088171Y-14657186D01*
X15078647Y-14609567D01*
X15069123Y-14580995D01*
X15059599Y-14561948D01*
X15040552Y-14533376D01*
X15031028Y-14523852D01*
X15392933Y-14828614D02*
X15383409Y-14819090D01*
X15364361Y-14790519D01*
X15354837Y-14771471D01*
X15345314Y-14742900D01*
X15335790Y-14695281D01*
X15335790Y-14657186D01*
X15345314Y-14609567D01*
X15354837Y-14580995D01*
X15364361Y-14561948D01*
X15383409Y-14533376D01*
X15392933Y-14523852D01*
X15469123Y-14619090D02*
X15469123Y-14752424D01*
X15469123Y-14638138D02*
X15478647Y-14628614D01*
X15497695Y-14619090D01*
X15526266Y-14619090D01*
X15545314Y-14628614D01*
X15554837Y-14647662D01*
X15554837Y-14752424D01*
X15678647Y-14752424D02*
X15659599Y-14742900D01*
X15650076Y-14733376D01*
X15640552Y-14714328D01*
X15640552Y-14657186D01*
X15650076Y-14638138D01*
X15659599Y-14628614D01*
X15678647Y-14619090D01*
X15707218Y-14619090D01*
X15726266Y-14628614D01*
X15735790Y-14638138D01*
X15745314Y-14657186D01*
X15745314Y-14714328D01*
X15735790Y-14733376D01*
X15726266Y-14742900D01*
X15707218Y-14752424D01*
X15678647Y-14752424D01*
X15802457Y-14619090D02*
X15878647Y-14619090D01*
X15831028Y-14552424D02*
X15831028Y-14723852D01*
X15840552Y-14742900D01*
X15859599Y-14752424D01*
X15878647Y-14752424D01*
X16097695Y-14619090D02*
X16097695Y-14819090D01*
X16097695Y-14628614D02*
X16116742Y-14619090D01*
X16154837Y-14619090D01*
X16173885Y-14628614D01*
X16183409Y-14638138D01*
X16192933Y-14657186D01*
X16192933Y-14714328D01*
X16183409Y-14733376D01*
X16173885Y-14742900D01*
X16154837Y-14752424D01*
X16116742Y-14752424D01*
X16097695Y-14742900D01*
X16307218Y-14752424D02*
X16288171Y-14742900D01*
X16278647Y-14723852D01*
X16278647Y-14552424D01*
X16469123Y-14752424D02*
X16469123Y-14647662D01*
X16459599Y-14628614D01*
X16440552Y-14619090D01*
X16402457Y-14619090D01*
X16383409Y-14628614D01*
X16469123Y-14742900D02*
X16450076Y-14752424D01*
X16402457Y-14752424D01*
X16383409Y-14742900D01*
X16373885Y-14723852D01*
X16373885Y-14704805D01*
X16383409Y-14685757D01*
X16402457Y-14676233D01*
X16450076Y-14676233D01*
X16469123Y-14666709D01*
X16535790Y-14619090D02*
X16611980Y-14619090D01*
X16564361Y-14552424D02*
X16564361Y-14723852D01*
X16573885Y-14742900D01*
X16592933Y-14752424D01*
X16611980Y-14752424D01*
X16754837Y-14742900D02*
X16735790Y-14752424D01*
X16697695Y-14752424D01*
X16678647Y-14742900D01*
X16669123Y-14723852D01*
X16669123Y-14647662D01*
X16678647Y-14628614D01*
X16697695Y-14619090D01*
X16735790Y-14619090D01*
X16754837Y-14628614D01*
X16764361Y-14647662D01*
X16764361Y-14666709D01*
X16669123Y-14685757D01*
X16935790Y-14752424D02*
X16935790Y-14552424D01*
X16935790Y-14742900D02*
X16916742Y-14752424D01*
X16878647Y-14752424D01*
X16859599Y-14742900D01*
X16850076Y-14733376D01*
X16840552Y-14714328D01*
X16840552Y-14657186D01*
X16850076Y-14638138D01*
X16859599Y-14628614D01*
X16878647Y-14619090D01*
X16916742Y-14619090D01*
X16935790Y-14628614D01*
X17011980Y-14828614D02*
X17021504Y-14819090D01*
X17040552Y-14790519D01*
X17050076Y-14771471D01*
X17059599Y-14742900D01*
X17069123Y-14695281D01*
X17069123Y-14657186D01*
X17059599Y-14609567D01*
X17050076Y-14580995D01*
X17040552Y-14561948D01*
X17021504Y-14533376D01*
X17011980Y-14523852D01*
X10259123Y-14951948D02*
G75*
G03*
X10259123Y-14951948I-100000J0D01*
G01*
X10602457Y-14909090D02*
X10602457Y-15042424D01*
X10554838Y-14832900D02*
X10507219Y-14975757D01*
X10631028Y-14975757D01*
X10707219Y-15023376D02*
X10716742Y-15032900D01*
X10707219Y-15042424D01*
X10697695Y-15032900D01*
X10707219Y-15023376D01*
X10707219Y-15042424D01*
X10840552Y-14842424D02*
X10859599Y-14842424D01*
X10878647Y-14851948D01*
X10888171Y-14861471D01*
X10897695Y-14880519D01*
X10907219Y-14918614D01*
X10907219Y-14966233D01*
X10897695Y-15004328D01*
X10888171Y-15023376D01*
X10878647Y-15032900D01*
X10859599Y-15042424D01*
X10840552Y-15042424D01*
X10821504Y-15032900D01*
X10811980Y-15023376D01*
X10802457Y-15004328D01*
X10792933Y-14966233D01*
X10792933Y-14918614D01*
X10802457Y-14880519D01*
X10811980Y-14861471D01*
X10821504Y-14851948D01*
X10840552Y-14842424D01*
X11031028Y-14842424D02*
X11050076Y-14842424D01*
X11069123Y-14851948D01*
X11078647Y-14861471D01*
X11088171Y-14880519D01*
X11097695Y-14918614D01*
X11097695Y-14966233D01*
X11088171Y-15004328D01*
X11078647Y-15023376D01*
X11069123Y-15032900D01*
X11050076Y-15042424D01*
X11031028Y-15042424D01*
X11011980Y-15032900D01*
X11002457Y-15023376D01*
X10992933Y-15004328D01*
X10983409Y-14966233D01*
X10983409Y-14918614D01*
X10992933Y-14880519D01*
X11002457Y-14861471D01*
X11011980Y-14851948D01*
X11031028Y-14842424D01*
X11221504Y-14842424D02*
X11240552Y-14842424D01*
X11259599Y-14851948D01*
X11269123Y-14861471D01*
X11278647Y-14880519D01*
X11288171Y-14918614D01*
X11288171Y-14966233D01*
X11278647Y-15004328D01*
X11269123Y-15023376D01*
X11259599Y-15032900D01*
X11240552Y-15042424D01*
X11221504Y-15042424D01*
X11202457Y-15032900D01*
X11192933Y-15023376D01*
X11183409Y-15004328D01*
X11173885Y-14966233D01*
X11173885Y-14918614D01*
X11183409Y-14880519D01*
X11192933Y-14861471D01*
X11202457Y-14851948D01*
X11221504Y-14842424D01*
X11373885Y-15042424D02*
X11373885Y-14909090D01*
X11373885Y-14928138D02*
X11383409Y-14918614D01*
X11402457Y-14909090D01*
X11431028Y-14909090D01*
X11450076Y-14918614D01*
X11459599Y-14937662D01*
X11459599Y-15042424D01*
X11459599Y-14937662D02*
X11469123Y-14918614D01*
X11488171Y-14909090D01*
X11516742Y-14909090D01*
X11535790Y-14918614D01*
X11545314Y-14937662D01*
X11545314Y-15042424D01*
X11640552Y-15042424D02*
X11640552Y-14909090D01*
X11640552Y-14928138D02*
X11650076Y-14918614D01*
X11669123Y-14909090D01*
X11697695Y-14909090D01*
X11716742Y-14918614D01*
X11726266Y-14937662D01*
X11726266Y-15042424D01*
X11726266Y-14937662D02*
X11735790Y-14918614D01*
X11754837Y-14909090D01*
X11783409Y-14909090D01*
X11802457Y-14918614D01*
X11811980Y-14937662D01*
X11811980Y-15042424D01*
X12202457Y-14832900D02*
X12031028Y-15090043D01*
X12459599Y-14842424D02*
X12478647Y-14842424D01*
X12497695Y-14851948D01*
X12507218Y-14861471D01*
X12516742Y-14880519D01*
X12526266Y-14918614D01*
X12526266Y-14966233D01*
X12516742Y-15004328D01*
X12507218Y-15023376D01*
X12497695Y-15032900D01*
X12478647Y-15042424D01*
X12459599Y-15042424D01*
X12440552Y-15032900D01*
X12431028Y-15023376D01*
X12421504Y-15004328D01*
X12411980Y-14966233D01*
X12411980Y-14918614D01*
X12421504Y-14880519D01*
X12431028Y-14861471D01*
X12440552Y-14851948D01*
X12459599Y-14842424D01*
X12611980Y-15023376D02*
X12621504Y-15032900D01*
X12611980Y-15042424D01*
X12602457Y-15032900D01*
X12611980Y-15023376D01*
X12611980Y-15042424D01*
X12811980Y-15042424D02*
X12697695Y-15042424D01*
X12754837Y-15042424D02*
X12754837Y-14842424D01*
X12735790Y-14870995D01*
X12716742Y-14890043D01*
X12697695Y-14899567D01*
X12992933Y-14842424D02*
X12897695Y-14842424D01*
X12888171Y-14937662D01*
X12897695Y-14928138D01*
X12916742Y-14918614D01*
X12964361Y-14918614D01*
X12983409Y-14928138D01*
X12992933Y-14937662D01*
X13002457Y-14956709D01*
X13002457Y-15004328D01*
X12992933Y-15023376D01*
X12983409Y-15032900D01*
X12964361Y-15042424D01*
X12916742Y-15042424D01*
X12897695Y-15032900D01*
X12888171Y-15023376D01*
X13069123Y-14842424D02*
X13202457Y-14842424D01*
X13116742Y-15042424D01*
X13373885Y-14842424D02*
X13278647Y-14842424D01*
X13269123Y-14937662D01*
X13278647Y-14928138D01*
X13297695Y-14918614D01*
X13345314Y-14918614D01*
X13364361Y-14928138D01*
X13373885Y-14937662D01*
X13383409Y-14956709D01*
X13383409Y-15004328D01*
X13373885Y-15023376D01*
X13364361Y-15032900D01*
X13345314Y-15042424D01*
X13297695Y-15042424D01*
X13278647Y-15032900D01*
X13269123Y-15023376D01*
X13459599Y-14842424D02*
X13459599Y-14880519D01*
X13535790Y-14842424D02*
X13535790Y-14880519D01*
X13831028Y-15118614D02*
X13821504Y-15109090D01*
X13802457Y-15080519D01*
X13792933Y-15061471D01*
X13783409Y-15032900D01*
X13773885Y-14985281D01*
X13773885Y-14947186D01*
X13783409Y-14899567D01*
X13792933Y-14870995D01*
X13802457Y-14851948D01*
X13821504Y-14823376D01*
X13831028Y-14813852D01*
X13897695Y-14861471D02*
X13907218Y-14851948D01*
X13926266Y-14842424D01*
X13973885Y-14842424D01*
X13992933Y-14851948D01*
X14002457Y-14861471D01*
X14011980Y-14880519D01*
X14011980Y-14899567D01*
X14002457Y-14928138D01*
X13888171Y-15042424D01*
X14011980Y-15042424D01*
X14250076Y-15042424D02*
X14250076Y-14842424D01*
X14335790Y-15042424D02*
X14335790Y-14937662D01*
X14326266Y-14918614D01*
X14307218Y-14909090D01*
X14278647Y-14909090D01*
X14259599Y-14918614D01*
X14250076Y-14928138D01*
X14459599Y-15042424D02*
X14440552Y-15032900D01*
X14431028Y-15023376D01*
X14421504Y-15004328D01*
X14421504Y-14947186D01*
X14431028Y-14928138D01*
X14440552Y-14918614D01*
X14459599Y-14909090D01*
X14488171Y-14909090D01*
X14507218Y-14918614D01*
X14516742Y-14928138D01*
X14526266Y-14947186D01*
X14526266Y-15004328D01*
X14516742Y-15023376D01*
X14507218Y-15032900D01*
X14488171Y-15042424D01*
X14459599Y-15042424D01*
X14640552Y-15042424D02*
X14621504Y-15032900D01*
X14611980Y-15013852D01*
X14611980Y-14842424D01*
X14792933Y-15032900D02*
X14773885Y-15042424D01*
X14735790Y-15042424D01*
X14716742Y-15032900D01*
X14707218Y-15013852D01*
X14707218Y-14937662D01*
X14716742Y-14918614D01*
X14735790Y-14909090D01*
X14773885Y-14909090D01*
X14792933Y-14918614D01*
X14802457Y-14937662D01*
X14802457Y-14956709D01*
X14707218Y-14975757D01*
X14878647Y-15032900D02*
X14897695Y-15042424D01*
X14935790Y-15042424D01*
X14954837Y-15032900D01*
X14964361Y-15013852D01*
X14964361Y-15004328D01*
X14954837Y-14985281D01*
X14935790Y-14975757D01*
X14907218Y-14975757D01*
X14888171Y-14966233D01*
X14878647Y-14947186D01*
X14878647Y-14937662D01*
X14888171Y-14918614D01*
X14907218Y-14909090D01*
X14935790Y-14909090D01*
X14954837Y-14918614D01*
X15031028Y-15118614D02*
X15040552Y-15109090D01*
X15059599Y-15080519D01*
X15069123Y-15061471D01*
X15078647Y-15032900D01*
X15088171Y-14985281D01*
X15088171Y-14947186D01*
X15078647Y-14899567D01*
X15069123Y-14870995D01*
X15059599Y-14851948D01*
X15040552Y-14823376D01*
X15031028Y-14813852D01*
X15392933Y-15118614D02*
X15383409Y-15109090D01*
X15364361Y-15080519D01*
X15354837Y-15061471D01*
X15345314Y-15032900D01*
X15335790Y-14985281D01*
X15335790Y-14947186D01*
X15345314Y-14899567D01*
X15354837Y-14870995D01*
X15364361Y-14851948D01*
X15383409Y-14823376D01*
X15392933Y-14813852D01*
X15469123Y-14909090D02*
X15469123Y-15042424D01*
X15469123Y-14928138D02*
X15478647Y-14918614D01*
X15497695Y-14909090D01*
X15526266Y-14909090D01*
X15545314Y-14918614D01*
X15554837Y-14937662D01*
X15554837Y-15042424D01*
X15678647Y-15042424D02*
X15659599Y-15032900D01*
X15650076Y-15023376D01*
X15640552Y-15004328D01*
X15640552Y-14947186D01*
X15650076Y-14928138D01*
X15659599Y-14918614D01*
X15678647Y-14909090D01*
X15707218Y-14909090D01*
X15726266Y-14918614D01*
X15735790Y-14928138D01*
X15745314Y-14947186D01*
X15745314Y-15004328D01*
X15735790Y-15023376D01*
X15726266Y-15032900D01*
X15707218Y-15042424D01*
X15678647Y-15042424D01*
X15802457Y-14909090D02*
X15878647Y-14909090D01*
X15831028Y-14842424D02*
X15831028Y-15013852D01*
X15840552Y-15032900D01*
X15859599Y-15042424D01*
X15878647Y-15042424D01*
X16097695Y-14909090D02*
X16097695Y-15109090D01*
X16097695Y-14918614D02*
X16116742Y-14909090D01*
X16154837Y-14909090D01*
X16173885Y-14918614D01*
X16183409Y-14928138D01*
X16192933Y-14947186D01*
X16192933Y-15004328D01*
X16183409Y-15023376D01*
X16173885Y-15032900D01*
X16154837Y-15042424D01*
X16116742Y-15042424D01*
X16097695Y-15032900D01*
X16307218Y-15042424D02*
X16288171Y-15032900D01*
X16278647Y-15013852D01*
X16278647Y-14842424D01*
X16469123Y-15042424D02*
X16469123Y-14937662D01*
X16459599Y-14918614D01*
X16440552Y-14909090D01*
X16402457Y-14909090D01*
X16383409Y-14918614D01*
X16469123Y-15032900D02*
X16450076Y-15042424D01*
X16402457Y-15042424D01*
X16383409Y-15032900D01*
X16373885Y-15013852D01*
X16373885Y-14994805D01*
X16383409Y-14975757D01*
X16402457Y-14966233D01*
X16450076Y-14966233D01*
X16469123Y-14956709D01*
X16535790Y-14909090D02*
X16611980Y-14909090D01*
X16564361Y-14842424D02*
X16564361Y-15013852D01*
X16573885Y-15032900D01*
X16592933Y-15042424D01*
X16611980Y-15042424D01*
X16754837Y-15032900D02*
X16735790Y-15042424D01*
X16697695Y-15042424D01*
X16678647Y-15032900D01*
X16669123Y-15013852D01*
X16669123Y-14937662D01*
X16678647Y-14918614D01*
X16697695Y-14909090D01*
X16735790Y-14909090D01*
X16754837Y-14918614D01*
X16764361Y-14937662D01*
X16764361Y-14956709D01*
X16669123Y-14975757D01*
X16935790Y-15042424D02*
X16935790Y-14842424D01*
X16935790Y-15032900D02*
X16916742Y-15042424D01*
X16878647Y-15042424D01*
X16859599Y-15032900D01*
X16850076Y-15023376D01*
X16840552Y-15004328D01*
X16840552Y-14947186D01*
X16850076Y-14928138D01*
X16859599Y-14918614D01*
X16878647Y-14909090D01*
X16916742Y-14909090D01*
X16935790Y-14918614D01*
X17011980Y-15118614D02*
X17021504Y-15109090D01*
X17040552Y-15080519D01*
X17050076Y-15061471D01*
X17059599Y-15032900D01*
X17069123Y-14985281D01*
X17069123Y-14947186D01*
X17059599Y-14899567D01*
X17050076Y-14870995D01*
X17040552Y-14851948D01*
X17021504Y-14823376D01*
X17011980Y-14813852D01*
M02*
