%TF.GenerationSoftware,KiCad,Pcbnew,(6.0.9)*%
%TF.CreationDate,2022-12-26T12:39:24-05:00*%
%TF.ProjectId,Kitty_PCB,4b697474-795f-4504-9342-2e6b69636164,rev?*%
%TF.SameCoordinates,Original*%
%TF.FileFunction,Copper,L1,Top*%
%TF.FilePolarity,Positive*%
%FSLAX46Y46*%
G04 Gerber Fmt 4.6, Leading zero omitted, Abs format (unit mm)*
G04 Created by KiCad (PCBNEW (6.0.9)) date 2022-12-26 12:39:24*
%MOMM*%
%LPD*%
G01*
G04 APERTURE LIST*
%TA.AperFunction,ComponentPad*%
%ADD10C,0.800000*%
%TD*%
%TA.AperFunction,ComponentPad*%
%ADD11C,6.000000*%
%TD*%
%TA.AperFunction,ComponentPad*%
%ADD12C,2.200000*%
%TD*%
%TA.AperFunction,ComponentPad*%
%ADD13R,1.700000X1.700000*%
%TD*%
%TA.AperFunction,ComponentPad*%
%ADD14O,1.700000X1.700000*%
%TD*%
%TA.AperFunction,Conductor*%
%ADD15C,0.350000*%
%TD*%
G04 APERTURE END LIST*
D10*
%TO.P,H2,1,1*%
%TO.N,GND*%
X147840990Y-58840990D03*
X148500000Y-57250000D03*
X144659010Y-55659010D03*
X144659010Y-58840990D03*
X146250000Y-55000000D03*
X146250000Y-59500000D03*
X147840990Y-55659010D03*
D11*
X146250000Y-57250000D03*
D10*
X144000000Y-57250000D03*
%TD*%
D12*
%TO.P,SW2,2,2*%
%TO.N,Net-(J1-Pad3)*%
X156650000Y-98540000D03*
%TO.P,SW2,1,1*%
%TO.N,Net-(J1-Pad4)*%
X163000000Y-96000000D03*
%TD*%
D10*
%TO.P,H1,1,1*%
%TO.N,GND*%
X109659010Y-54659010D03*
X109659010Y-57840990D03*
X111250000Y-54000000D03*
X112840990Y-54659010D03*
X111250000Y-58500000D03*
D11*
X111250000Y-56250000D03*
D10*
X112840990Y-57840990D03*
X113500000Y-56250000D03*
X109000000Y-56250000D03*
%TD*%
D13*
%TO.P,J1,1,Pin_1*%
%TO.N,Net-(J1-Pad1)*%
X125300000Y-59675000D03*
D14*
%TO.P,J1,2,Pin_2*%
%TO.N,Net-(J1-Pad2)*%
X127840000Y-59675000D03*
%TO.P,J1,3,Pin_3*%
%TO.N,Net-(J1-Pad3)*%
X130380000Y-59675000D03*
%TO.P,J1,4,Pin_4*%
%TO.N,Net-(J1-Pad4)*%
X132920000Y-59675000D03*
%TD*%
D12*
%TO.P,SW1,1,1*%
%TO.N,Net-(J1-Pad2)*%
X132360000Y-95880000D03*
%TO.P,SW1,2,2*%
%TO.N,Net-(J1-Pad1)*%
X126010000Y-98420000D03*
%TD*%
D10*
%TO.P,H4,1,1*%
%TO.N,GND*%
X164000000Y-131000000D03*
X161750000Y-133250000D03*
X162409010Y-131659010D03*
X164000000Y-135500000D03*
D11*
X164000000Y-133250000D03*
D10*
X162409010Y-134840990D03*
X165590990Y-134840990D03*
X165590990Y-131659010D03*
X166250000Y-133250000D03*
%TD*%
%TO.P,H5,1,1*%
%TO.N,GND*%
X126090990Y-133590990D03*
X126090990Y-130409010D03*
X126750000Y-132000000D03*
X122909010Y-133590990D03*
X124500000Y-134250000D03*
D11*
X124500000Y-132000000D03*
D10*
X124500000Y-129750000D03*
X122909010Y-130409010D03*
X122250000Y-132000000D03*
%TD*%
%TO.P,H6,1,1*%
%TO.N,GND*%
X145990990Y-102490990D03*
X142150000Y-100900000D03*
X145990990Y-99309010D03*
X144400000Y-103150000D03*
X142809010Y-102490990D03*
X144400000Y-98650000D03*
D11*
X144400000Y-100900000D03*
D10*
X146650000Y-100900000D03*
X142809010Y-99309010D03*
%TD*%
%TO.P,H3,1,1*%
%TO.N,GND*%
X189000000Y-104500000D03*
X184500000Y-104500000D03*
X186750000Y-106750000D03*
X186750000Y-102250000D03*
X188340990Y-102909010D03*
X188340990Y-106090990D03*
X185159010Y-102909010D03*
D11*
X186750000Y-104500000D03*
D10*
X185159010Y-106090990D03*
%TD*%
D15*
%TO.N,Net-(J1-Pad1)*%
X125300000Y-97710000D02*
X126010000Y-98420000D01*
X125300000Y-59675000D02*
X125300000Y-97710000D01*
%TO.N,Net-(J1-Pad2)*%
X129520000Y-95920000D02*
X132400000Y-95920000D01*
X127840000Y-59675000D02*
X127840000Y-94240000D01*
X127840000Y-94240000D02*
X129520000Y-95920000D01*
%TO.N,Net-(J1-Pad3)*%
X152170000Y-98540000D02*
X156650000Y-98540000D01*
X130380000Y-76750000D02*
X152170000Y-98540000D01*
X130380000Y-59675000D02*
X130380000Y-76750000D01*
%TO.N,Net-(J1-Pad4)*%
X152300000Y-96000000D02*
X163000000Y-96000000D01*
X132920000Y-76620000D02*
X152300000Y-96000000D01*
X132920000Y-59675000D02*
X132920000Y-76620000D01*
%TD*%
%TA.AperFunction,Conductor*%
%TO.N,GND*%
G36*
X110398955Y-51114797D02*
G01*
X110403247Y-51116206D01*
X111350092Y-51446006D01*
X111354291Y-51447554D01*
X112288684Y-51811078D01*
X112292844Y-51812783D01*
X112781066Y-52023173D01*
X113213600Y-52209566D01*
X113217716Y-52211428D01*
X114123640Y-52640957D01*
X114127686Y-52642965D01*
X114456250Y-52813433D01*
X114993019Y-53091924D01*
X115017630Y-53104693D01*
X115021593Y-53106840D01*
X115894415Y-53600174D01*
X115898302Y-53602464D01*
X116752923Y-54126799D01*
X116756679Y-54129198D01*
X117574900Y-54672506D01*
X117591930Y-54683814D01*
X117595635Y-54686371D01*
X118410475Y-55270580D01*
X118414072Y-55273258D01*
X118797964Y-55569894D01*
X119207428Y-55886289D01*
X119210953Y-55889115D01*
X119242721Y-55915534D01*
X119965316Y-56516463D01*
X119981811Y-56530181D01*
X119985222Y-56533122D01*
X120176496Y-56704154D01*
X120699752Y-57172036D01*
X120714618Y-57187835D01*
X120718915Y-57193271D01*
X120726181Y-57202465D01*
X120736963Y-57210122D01*
X120754811Y-57225498D01*
X120763975Y-57235025D01*
X120800405Y-57255900D01*
X120810696Y-57262481D01*
X120824363Y-57272186D01*
X120844941Y-57286799D01*
X120853420Y-57289731D01*
X120853425Y-57289734D01*
X120857437Y-57291121D01*
X120878896Y-57300876D01*
X120890355Y-57307443D01*
X120899084Y-57309541D01*
X120899087Y-57309542D01*
X120931178Y-57317255D01*
X120942917Y-57320687D01*
X120974115Y-57331477D01*
X120974119Y-57331478D01*
X120982597Y-57334410D01*
X120995593Y-57335041D01*
X120995799Y-57335051D01*
X121019128Y-57338390D01*
X121031980Y-57341479D01*
X121040942Y-57341043D01*
X121040943Y-57341043D01*
X121073906Y-57339439D01*
X121086139Y-57339438D01*
X121119117Y-57341039D01*
X121119119Y-57341039D01*
X121128084Y-57341474D01*
X121136811Y-57339376D01*
X121136817Y-57339375D01*
X121140941Y-57338383D01*
X121164263Y-57335041D01*
X121168500Y-57334835D01*
X121168504Y-57334834D01*
X121177465Y-57334398D01*
X121217141Y-57320670D01*
X121228874Y-57317238D01*
X121269704Y-57307420D01*
X121277492Y-57302956D01*
X121277495Y-57302955D01*
X121281176Y-57300845D01*
X121302627Y-57291091D01*
X121306635Y-57289704D01*
X121306637Y-57289703D01*
X121315116Y-57286769D01*
X121335654Y-57272181D01*
X121352224Y-57262231D01*
X121357522Y-57259580D01*
X121370069Y-57253301D01*
X142737359Y-57253301D01*
X142756257Y-57613896D01*
X142756945Y-57620440D01*
X142813433Y-57977099D01*
X142814802Y-57983537D01*
X142908260Y-58332328D01*
X142910300Y-58338605D01*
X143039704Y-58675714D01*
X143042380Y-58681725D01*
X143206317Y-59003468D01*
X143209613Y-59009177D01*
X143406279Y-59312016D01*
X143410146Y-59317338D01*
X143583678Y-59531634D01*
X143595933Y-59540100D01*
X143607024Y-59533766D01*
X145877978Y-57262812D01*
X145884356Y-57251132D01*
X146614408Y-57251132D01*
X146614539Y-57252965D01*
X146618790Y-57259580D01*
X148892110Y-59532900D01*
X148905186Y-59540040D01*
X148915554Y-59532582D01*
X149089854Y-59317338D01*
X149093721Y-59312016D01*
X149290387Y-59009177D01*
X149293683Y-59003468D01*
X149457620Y-58681725D01*
X149460296Y-58675714D01*
X149589700Y-58338605D01*
X149591740Y-58332328D01*
X149685198Y-57983537D01*
X149686567Y-57977099D01*
X149743055Y-57620440D01*
X149743743Y-57613896D01*
X149762641Y-57253301D01*
X149762641Y-57246699D01*
X149743743Y-56886104D01*
X149743055Y-56879560D01*
X149686567Y-56522901D01*
X149685198Y-56516463D01*
X149591740Y-56167672D01*
X149589700Y-56161395D01*
X149460296Y-55824286D01*
X149457620Y-55818275D01*
X149293683Y-55496532D01*
X149290387Y-55490823D01*
X149093721Y-55187984D01*
X149089854Y-55182662D01*
X148916322Y-54968366D01*
X148904067Y-54959900D01*
X148892976Y-54966234D01*
X146622022Y-57237188D01*
X146614408Y-57251132D01*
X145884356Y-57251132D01*
X145885592Y-57248868D01*
X145885461Y-57247035D01*
X145881210Y-57240420D01*
X143607890Y-54967100D01*
X143594814Y-54959960D01*
X143584446Y-54967418D01*
X143410146Y-55182662D01*
X143406279Y-55187984D01*
X143209613Y-55490823D01*
X143206317Y-55496532D01*
X143042380Y-55818275D01*
X143039704Y-55824286D01*
X142910300Y-56161395D01*
X142908260Y-56167672D01*
X142814802Y-56516463D01*
X142813433Y-56522901D01*
X142756945Y-56879560D01*
X142756257Y-56886104D01*
X142737359Y-57246699D01*
X142737359Y-57253301D01*
X121370069Y-57253301D01*
X121706179Y-57085098D01*
X122025191Y-56925452D01*
X122030566Y-56922918D01*
X122750743Y-56604043D01*
X122756199Y-56601780D01*
X123490593Y-56317226D01*
X123496155Y-56315220D01*
X124243159Y-56065608D01*
X124248840Y-56063858D01*
X124508440Y-55990524D01*
X125006770Y-55849752D01*
X125012509Y-55848276D01*
X125779697Y-55670147D01*
X125785496Y-55668944D01*
X126560216Y-55527191D01*
X126566067Y-55526261D01*
X127346638Y-55421193D01*
X127352515Y-55420543D01*
X128137187Y-55352397D01*
X128143088Y-55352025D01*
X128872871Y-55323215D01*
X128930066Y-55320957D01*
X128936008Y-55320863D01*
X129104747Y-55322165D01*
X129723561Y-55326938D01*
X129729495Y-55327124D01*
X130515895Y-55370329D01*
X130521818Y-55370795D01*
X131305282Y-55451032D01*
X131311178Y-55451776D01*
X132090023Y-55568872D01*
X132095877Y-55569894D01*
X132484466Y-55647208D01*
X132868332Y-55723584D01*
X132874098Y-55724873D01*
X133638466Y-55914822D01*
X133644153Y-55916379D01*
X134398710Y-56142158D01*
X134404343Y-56143989D01*
X134974316Y-56344272D01*
X135147397Y-56405091D01*
X135152954Y-56407192D01*
X135882879Y-56703047D01*
X135888293Y-56705391D01*
X136262381Y-56877978D01*
X136549677Y-57010523D01*
X136559735Y-57015724D01*
X136566726Y-57019747D01*
X136573791Y-57025280D01*
X136582126Y-57028608D01*
X136586439Y-57031090D01*
X136590872Y-57033331D01*
X136598229Y-57038476D01*
X136606731Y-57041348D01*
X136606732Y-57041349D01*
X136650992Y-57056302D01*
X136657381Y-57058655D01*
X136709065Y-57079291D01*
X136717999Y-57080146D01*
X136722842Y-57081319D01*
X136727716Y-57082224D01*
X136736223Y-57085098D01*
X136769110Y-57086458D01*
X136791852Y-57087398D01*
X136798648Y-57087863D01*
X136845124Y-57092310D01*
X136854060Y-57093165D01*
X136862875Y-57091478D01*
X136867833Y-57091246D01*
X136872785Y-57090744D01*
X136881757Y-57091115D01*
X136935802Y-57077708D01*
X136942441Y-57076251D01*
X136988307Y-57067473D01*
X136988308Y-57067473D01*
X136997121Y-57065786D01*
X137005107Y-57061693D01*
X137009802Y-57060078D01*
X137014415Y-57058207D01*
X137023130Y-57056045D01*
X137030885Y-57051526D01*
X137030889Y-57051524D01*
X137065070Y-57031604D01*
X137071238Y-57028009D01*
X137077181Y-57024757D01*
X137126748Y-56999355D01*
X137133264Y-56993186D01*
X137137299Y-56990331D01*
X137141220Y-56987225D01*
X137148976Y-56982705D01*
X137155668Y-56975645D01*
X137174695Y-56959218D01*
X138050274Y-56344272D01*
X138053558Y-56342041D01*
X138993348Y-55725278D01*
X138996702Y-55723152D01*
X139441277Y-55451032D01*
X139955464Y-55136304D01*
X139958849Y-55134305D01*
X140904066Y-54595933D01*
X143959900Y-54595933D01*
X143966234Y-54607024D01*
X146237188Y-56877978D01*
X146251132Y-56885592D01*
X146252965Y-56885461D01*
X146259580Y-56881210D01*
X148532900Y-54607890D01*
X148540040Y-54594814D01*
X148532582Y-54584446D01*
X148317338Y-54410146D01*
X148312016Y-54406279D01*
X148009177Y-54209613D01*
X148003468Y-54206317D01*
X147681725Y-54042380D01*
X147675714Y-54039704D01*
X147338605Y-53910300D01*
X147332328Y-53908260D01*
X146983537Y-53814802D01*
X146977099Y-53813433D01*
X146620440Y-53756945D01*
X146613896Y-53756257D01*
X146253301Y-53737359D01*
X146246699Y-53737359D01*
X145886104Y-53756257D01*
X145879560Y-53756945D01*
X145522901Y-53813433D01*
X145516463Y-53814802D01*
X145167672Y-53908260D01*
X145161395Y-53910300D01*
X144824286Y-54039704D01*
X144818275Y-54042380D01*
X144496532Y-54206317D01*
X144490823Y-54209613D01*
X144187984Y-54406279D01*
X144182662Y-54410146D01*
X143968366Y-54583678D01*
X143959900Y-54595933D01*
X140904066Y-54595933D01*
X140935618Y-54577962D01*
X140939052Y-54576077D01*
X141932921Y-54050758D01*
X141936458Y-54048960D01*
X141955391Y-54039704D01*
X142946328Y-53555244D01*
X142949857Y-53553588D01*
X143974813Y-53091924D01*
X143978457Y-53090351D01*
X145017395Y-52661234D01*
X145021088Y-52659776D01*
X146073051Y-52263599D01*
X146076789Y-52262258D01*
X147140718Y-51899423D01*
X147144496Y-51898201D01*
X148033629Y-51625933D01*
X148111083Y-51627118D01*
X148176803Y-51649464D01*
X148285101Y-51686288D01*
X148295634Y-51690406D01*
X148494129Y-51778501D01*
X148625432Y-51836775D01*
X148635569Y-51841831D01*
X148828675Y-51949247D01*
X148924349Y-52002466D01*
X148950885Y-52017227D01*
X148960524Y-52023171D01*
X149126636Y-52136223D01*
X149258823Y-52226187D01*
X149267878Y-52232965D01*
X149505097Y-52427759D01*
X149546731Y-52461947D01*
X149555153Y-52469522D01*
X149598563Y-52512247D01*
X149812317Y-52722629D01*
X149820017Y-52730921D01*
X150053412Y-53006109D01*
X150060343Y-53015069D01*
X150268059Y-53310079D01*
X150274158Y-53319625D01*
X150454548Y-53632115D01*
X150459765Y-53642171D01*
X150610201Y-53967100D01*
X150611354Y-53969591D01*
X150615645Y-53980069D01*
X150669018Y-54129214D01*
X150737223Y-54319806D01*
X150740555Y-54330631D01*
X150812226Y-54607024D01*
X150821652Y-54643373D01*
X150825499Y-54668156D01*
X150826160Y-54680316D01*
X150827455Y-54683990D01*
X150828004Y-54688059D01*
X150908577Y-55807195D01*
X150911085Y-55842024D01*
X150911272Y-55845183D01*
X150967676Y-57057392D01*
X150968008Y-57064521D01*
X150968116Y-57067702D01*
X150973460Y-57320687D01*
X150993895Y-58288066D01*
X150993922Y-58291263D01*
X150991555Y-58847617D01*
X150989004Y-59447342D01*
X150988729Y-59511874D01*
X150988675Y-59515059D01*
X150988121Y-59533766D01*
X150952512Y-60735199D01*
X150952376Y-60738393D01*
X150885271Y-61957134D01*
X150885055Y-61960324D01*
X150787046Y-63177017D01*
X150786749Y-63180201D01*
X150657899Y-64394019D01*
X150657521Y-64397193D01*
X150497919Y-65607320D01*
X150497461Y-65610485D01*
X150307202Y-66816196D01*
X150306665Y-66819340D01*
X150103244Y-67925404D01*
X150085868Y-68019881D01*
X150085249Y-68023018D01*
X149847215Y-69155013D01*
X149844060Y-69167038D01*
X149844023Y-69167156D01*
X149840135Y-69175241D01*
X149838672Y-69184093D01*
X149835968Y-69192655D01*
X149835960Y-69192653D01*
X149835393Y-69194709D01*
X149835402Y-69194711D01*
X149833338Y-69203441D01*
X149830053Y-69211800D01*
X149829247Y-69220743D01*
X149825617Y-69260998D01*
X149824444Y-69270199D01*
X149816389Y-69318950D01*
X149817470Y-69327862D01*
X149817277Y-69336838D01*
X149817269Y-69336838D01*
X149817301Y-69338962D01*
X149817310Y-69338962D01*
X149817780Y-69347932D01*
X149816974Y-69356869D01*
X149826520Y-69405307D01*
X149827980Y-69414491D01*
X149833932Y-69463547D01*
X149837470Y-69471796D01*
X149839804Y-69480465D01*
X149839797Y-69480467D01*
X149840427Y-69482505D01*
X149840435Y-69482502D01*
X149843402Y-69490976D01*
X149845137Y-69499778D01*
X149849272Y-69507738D01*
X149849274Y-69507745D01*
X149867899Y-69543603D01*
X149871879Y-69552008D01*
X149891354Y-69597409D01*
X149894681Y-69602719D01*
X149895440Y-69603931D01*
X149895444Y-69603936D01*
X149898019Y-69608046D01*
X149900636Y-69611065D01*
X149902566Y-69613811D01*
X149910690Y-69625986D01*
X149912276Y-69629039D01*
X149913372Y-69630184D01*
X149913563Y-69630730D01*
X149913766Y-69630595D01*
X150522863Y-70543459D01*
X150523449Y-70544278D01*
X150523466Y-70544302D01*
X150541852Y-70569980D01*
X151177745Y-71458082D01*
X151862443Y-72350603D01*
X152576212Y-73220051D01*
X153318274Y-74065479D01*
X154087822Y-74885967D01*
X154088550Y-74886694D01*
X154088563Y-74886707D01*
X154883296Y-75679901D01*
X154883314Y-75679919D01*
X154884019Y-75680622D01*
X155189815Y-75966321D01*
X155705248Y-76447880D01*
X155705273Y-76447903D01*
X155705997Y-76448579D01*
X155706764Y-76449249D01*
X155706791Y-76449274D01*
X156552055Y-77188296D01*
X156552075Y-77188313D01*
X156552862Y-77189001D01*
X156553687Y-77189675D01*
X156553691Y-77189679D01*
X157422877Y-77900419D01*
X157422899Y-77900437D01*
X157423691Y-77901084D01*
X158317537Y-78584051D01*
X158318363Y-78584640D01*
X158900200Y-78999540D01*
X159233427Y-79237160D01*
X159234295Y-79237736D01*
X159234307Y-79237745D01*
X160169487Y-79859115D01*
X160169503Y-79859125D01*
X160170365Y-79859698D01*
X161127328Y-80450990D01*
X161128213Y-80451498D01*
X161128226Y-80451505D01*
X162102384Y-81009878D01*
X162102403Y-81009889D01*
X162103278Y-81010390D01*
X162104197Y-81010877D01*
X163079029Y-81527684D01*
X163083425Y-81530224D01*
X163085776Y-81531965D01*
X163091150Y-81534784D01*
X163092576Y-81535533D01*
X163092580Y-81535535D01*
X163096892Y-81537797D01*
X163139021Y-81552168D01*
X163149479Y-81556265D01*
X163181946Y-81570684D01*
X163181948Y-81570685D01*
X163190152Y-81574328D01*
X163200737Y-81575749D01*
X163224636Y-81581373D01*
X163226250Y-81581924D01*
X163226258Y-81581926D01*
X163234750Y-81584822D01*
X163243717Y-81585219D01*
X163250165Y-81586435D01*
X163261243Y-81589048D01*
X164083031Y-81822588D01*
X164497363Y-81940335D01*
X164500598Y-81941302D01*
X165341470Y-82204815D01*
X165788409Y-82344877D01*
X165791591Y-82345921D01*
X166095492Y-82450180D01*
X167068125Y-82783861D01*
X167071304Y-82784999D01*
X168335675Y-83257003D01*
X168338782Y-83258210D01*
X168943645Y-83502674D01*
X169590061Y-83763932D01*
X169593175Y-83765240D01*
X170830391Y-84304286D01*
X170833468Y-84305676D01*
X172055809Y-84877690D01*
X172058848Y-84879162D01*
X173265420Y-85483726D01*
X173268419Y-85485279D01*
X174458394Y-86121980D01*
X174461306Y-86123589D01*
X175633785Y-86791947D01*
X175636658Y-86793636D01*
X176091306Y-87069202D01*
X176790817Y-87493182D01*
X176793681Y-87494971D01*
X177928659Y-88225181D01*
X177931438Y-88227022D01*
X178685239Y-88741069D01*
X179046448Y-88987392D01*
X179049212Y-88989332D01*
X180143412Y-89779285D01*
X180146123Y-89781298D01*
X181218755Y-90600285D01*
X181221412Y-90602370D01*
X182271759Y-91449846D01*
X182274358Y-91452002D01*
X183301552Y-92327266D01*
X183304093Y-92329490D01*
X184307518Y-93232017D01*
X184309991Y-93234302D01*
X184375903Y-93296862D01*
X185288835Y-94163362D01*
X185291253Y-94165719D01*
X186244860Y-95120688D01*
X186247214Y-95123109D01*
X187174906Y-96103309D01*
X187177194Y-96105793D01*
X187994555Y-97017142D01*
X188078253Y-97110465D01*
X188080474Y-97113009D01*
X188954290Y-98141473D01*
X188956442Y-98144075D01*
X189215720Y-98466359D01*
X189802441Y-99195659D01*
X189804477Y-99198260D01*
X190160206Y-99665541D01*
X190621955Y-100272089D01*
X190623964Y-100274803D01*
X191362003Y-101300173D01*
X191379059Y-101333298D01*
X191601390Y-101988605D01*
X191678620Y-102216234D01*
X191688102Y-102244183D01*
X191689518Y-102248626D01*
X191988444Y-103250072D01*
X191989695Y-103254564D01*
X192251363Y-104266401D01*
X192252447Y-104270937D01*
X192476495Y-105291771D01*
X192477408Y-105296333D01*
X192555092Y-105725592D01*
X192663526Y-106324760D01*
X192664271Y-106329363D01*
X192812201Y-107363942D01*
X192812776Y-107368570D01*
X192922323Y-108407942D01*
X192922726Y-108412588D01*
X192993735Y-109455288D01*
X192993966Y-109459946D01*
X193026343Y-110504578D01*
X193026401Y-110509241D01*
X193020098Y-111554354D01*
X193019983Y-111559016D01*
X192975011Y-112603157D01*
X192974724Y-112607811D01*
X192891146Y-113649556D01*
X192890688Y-113654197D01*
X192768610Y-114692204D01*
X192767979Y-114696825D01*
X192607582Y-115729552D01*
X192606781Y-115734146D01*
X192408277Y-116760231D01*
X192407307Y-116764792D01*
X192170968Y-117782830D01*
X192169830Y-117787353D01*
X191895975Y-118795973D01*
X191894670Y-118800450D01*
X191583679Y-119798241D01*
X191582209Y-119802666D01*
X191304112Y-120590966D01*
X191234515Y-120788246D01*
X191232882Y-120792615D01*
X190848954Y-121764655D01*
X190847161Y-121768960D01*
X190427521Y-122726140D01*
X190425570Y-122730375D01*
X189971999Y-123668884D01*
X189970799Y-123671366D01*
X189968692Y-123675527D01*
X189479410Y-124599045D01*
X189477151Y-124603124D01*
X188954046Y-125507877D01*
X188951638Y-125511871D01*
X188395376Y-126396702D01*
X188392821Y-126400603D01*
X187804227Y-127264200D01*
X187801530Y-127268004D01*
X187181375Y-128109238D01*
X187178539Y-128112940D01*
X186744489Y-128658260D01*
X186527671Y-128930659D01*
X186524699Y-128934254D01*
X185844025Y-129727319D01*
X185840923Y-129730800D01*
X185131353Y-130498149D01*
X185128126Y-130501512D01*
X185045538Y-130584446D01*
X184390671Y-131242054D01*
X184387320Y-131245297D01*
X183622954Y-131958053D01*
X183619485Y-131961170D01*
X183480326Y-132081621D01*
X182829243Y-132645175D01*
X182825693Y-132648134D01*
X182485768Y-132921026D01*
X182010699Y-133302410D01*
X182007009Y-133305262D01*
X181168360Y-133928936D01*
X181164574Y-133931644D01*
X181089115Y-133983537D01*
X180303436Y-134523844D01*
X180299546Y-134526415D01*
X179417053Y-135086363D01*
X179413069Y-135088788D01*
X178510497Y-135615674D01*
X178506427Y-135617950D01*
X177584971Y-136111078D01*
X177580824Y-136113200D01*
X176641711Y-136571912D01*
X176637513Y-136573867D01*
X175682091Y-136997503D01*
X175677804Y-136999310D01*
X175054625Y-137248461D01*
X174707357Y-137387301D01*
X174702995Y-137388952D01*
X173718849Y-137740769D01*
X173714461Y-137742247D01*
X173455057Y-137824288D01*
X172717980Y-138057401D01*
X172713508Y-138058725D01*
X172425050Y-138138341D01*
X171748464Y-138325082D01*
X171727062Y-138329038D01*
X171708596Y-138330822D01*
X171700266Y-138334157D01*
X171699022Y-138334655D01*
X171675294Y-138341545D01*
X171665158Y-138343436D01*
X171657152Y-138347492D01*
X171657151Y-138347492D01*
X171641809Y-138355263D01*
X171624407Y-138362498D01*
X170833805Y-138623759D01*
X170829060Y-138625224D01*
X169994161Y-138865073D01*
X169989362Y-138866350D01*
X169818707Y-138908172D01*
X169145624Y-139073122D01*
X169140799Y-139074204D01*
X168777483Y-139148197D01*
X168289612Y-139247557D01*
X168284727Y-139248452D01*
X167839811Y-139320937D01*
X167427351Y-139388133D01*
X167422464Y-139388831D01*
X166760677Y-139470027D01*
X166560250Y-139494618D01*
X166555310Y-139495126D01*
X166359366Y-139511361D01*
X165689575Y-139566856D01*
X165684635Y-139567168D01*
X164816757Y-139604727D01*
X164811842Y-139604842D01*
X164380899Y-139606495D01*
X163943146Y-139608174D01*
X163938181Y-139608095D01*
X163334367Y-139586602D01*
X163070065Y-139577193D01*
X163065128Y-139576921D01*
X162743956Y-139552788D01*
X162198867Y-139511831D01*
X162193923Y-139511361D01*
X161330942Y-139412192D01*
X161326021Y-139411528D01*
X160753866Y-139322814D01*
X160467605Y-139278428D01*
X160462746Y-139277577D01*
X159610197Y-139110745D01*
X159605346Y-139109695D01*
X158760098Y-138909412D01*
X158755289Y-138908172D01*
X158410898Y-138812089D01*
X157918568Y-138674732D01*
X157913839Y-138673312D01*
X157086920Y-138407066D01*
X157082282Y-138405471D01*
X156330065Y-138130117D01*
X156314138Y-138122531D01*
X156314060Y-138122689D01*
X156307175Y-138119271D01*
X156302816Y-138117107D01*
X156298872Y-138115859D01*
X156296523Y-138114854D01*
X156281462Y-138108031D01*
X156273818Y-138104568D01*
X156271903Y-138103459D01*
X156271772Y-138103427D01*
X156270926Y-138102759D01*
X156270738Y-138103173D01*
X155572342Y-137786790D01*
X155570972Y-137786245D01*
X155570954Y-137786237D01*
X155034316Y-137572626D01*
X154827508Y-137490305D01*
X154069689Y-137228785D01*
X153300527Y-137002796D01*
X152922383Y-136910561D01*
X152523095Y-136813169D01*
X152523077Y-136813165D01*
X152521687Y-136812826D01*
X152520289Y-136812553D01*
X152520279Y-136812551D01*
X152238422Y-136757551D01*
X151734853Y-136659287D01*
X151733442Y-136659079D01*
X151733423Y-136659076D01*
X150943192Y-136542727D01*
X150943175Y-136542725D01*
X150941729Y-136542512D01*
X150940276Y-136542367D01*
X150940262Y-136542365D01*
X150145483Y-136462898D01*
X150145484Y-136462898D01*
X150144033Y-136462753D01*
X150142579Y-136462676D01*
X150142570Y-136462675D01*
X149820060Y-136445525D01*
X149343490Y-136420183D01*
X149342016Y-136420173D01*
X149342007Y-136420173D01*
X148960320Y-136417655D01*
X148541833Y-136414893D01*
X148540390Y-136414951D01*
X148540369Y-136414951D01*
X148141791Y-136430876D01*
X147740798Y-136446896D01*
X147557852Y-136462753D01*
X146943592Y-136515994D01*
X146943578Y-136515996D01*
X146942119Y-136516122D01*
X146940658Y-136516317D01*
X146940653Y-136516318D01*
X146562077Y-136566963D01*
X146147523Y-136622421D01*
X146146076Y-136622684D01*
X146146067Y-136622685D01*
X145360179Y-136765300D01*
X145360162Y-136765304D01*
X145358732Y-136765563D01*
X144577452Y-136945239D01*
X144576074Y-136945624D01*
X144576063Y-136945627D01*
X144320336Y-137017111D01*
X143805375Y-137161059D01*
X143803968Y-137161524D01*
X143045578Y-137412092D01*
X143045560Y-137412098D01*
X143044172Y-137412557D01*
X143042794Y-137413085D01*
X143042790Y-137413086D01*
X142688081Y-137548885D01*
X142295490Y-137699187D01*
X141560950Y-138020329D01*
X140861524Y-138365719D01*
X140856550Y-138367973D01*
X140853074Y-138369107D01*
X140848721Y-138371317D01*
X140846232Y-138372580D01*
X140846229Y-138372582D01*
X140841881Y-138374789D01*
X140837928Y-138377636D01*
X140833768Y-138380169D01*
X140833756Y-138380149D01*
X140832042Y-138381252D01*
X140824898Y-138384084D01*
X140817819Y-138389599D01*
X140817818Y-138389600D01*
X140807693Y-138397489D01*
X140789969Y-138409046D01*
X140396144Y-138621012D01*
X140387525Y-138625236D01*
X139949720Y-138819467D01*
X139940804Y-138823023D01*
X139825266Y-138864070D01*
X139489459Y-138983370D01*
X139480319Y-138986230D01*
X139156343Y-139074206D01*
X139018097Y-139111747D01*
X139008744Y-139113908D01*
X138902458Y-139134234D01*
X138538310Y-139203873D01*
X138528831Y-139205314D01*
X138396212Y-139220332D01*
X138052904Y-139259206D01*
X138043332Y-139259922D01*
X137794949Y-139269006D01*
X137564680Y-139277427D01*
X137555104Y-139277412D01*
X137178412Y-139262470D01*
X137076507Y-139258428D01*
X137066937Y-139257682D01*
X136591205Y-139202323D01*
X136581720Y-139200852D01*
X136111554Y-139109432D01*
X136102208Y-139107242D01*
X135640380Y-138980298D01*
X135631228Y-138977403D01*
X135180406Y-138815672D01*
X135171501Y-138812089D01*
X134734294Y-138616505D01*
X134725687Y-138612254D01*
X134304647Y-138383959D01*
X134296389Y-138379066D01*
X133929274Y-138142175D01*
X133893930Y-138119368D01*
X133886073Y-138113863D01*
X133504556Y-137824284D01*
X133497159Y-137818212D01*
X133138801Y-137500436D01*
X133131867Y-137493799D01*
X132798728Y-137149652D01*
X132792320Y-137142506D01*
X132637369Y-136955887D01*
X132516896Y-136810792D01*
X132504401Y-136791843D01*
X132504258Y-136791931D01*
X132501711Y-136787780D01*
X132499495Y-136783451D01*
X132496305Y-136779054D01*
X132494988Y-136777237D01*
X132494983Y-136777231D01*
X132492124Y-136773290D01*
X132491606Y-136772769D01*
X132491252Y-136772121D01*
X132487073Y-136767937D01*
X132485933Y-136766598D01*
X132481635Y-136761943D01*
X132318020Y-136570159D01*
X132318017Y-136570156D01*
X132315293Y-136566963D01*
X132151760Y-136420183D01*
X132116217Y-136388281D01*
X132116212Y-136388277D01*
X132113099Y-136385483D01*
X131888621Y-136232425D01*
X131645825Y-136110494D01*
X131389001Y-136021844D01*
X131384898Y-136021015D01*
X131126788Y-135968869D01*
X131126783Y-135968868D01*
X131122688Y-135968041D01*
X130851592Y-135950037D01*
X130847416Y-135950316D01*
X130847412Y-135950316D01*
X130584676Y-135967870D01*
X130584673Y-135967870D01*
X130580503Y-135968149D01*
X130314212Y-136022058D01*
X130157173Y-136076335D01*
X130061389Y-136109440D01*
X130061386Y-136109441D01*
X130057423Y-136110811D01*
X130053672Y-136112696D01*
X130053671Y-136112697D01*
X129818423Y-136230955D01*
X129818418Y-136230958D01*
X129814676Y-136232839D01*
X129811217Y-136235199D01*
X129811211Y-136235203D01*
X129594454Y-136383124D01*
X129590259Y-136385987D01*
X129388137Y-136567547D01*
X129211883Y-136774313D01*
X129209609Y-136777838D01*
X129209607Y-136777841D01*
X129179450Y-136824594D01*
X129064612Y-137002629D01*
X129062830Y-137006416D01*
X128957662Y-137229894D01*
X128948924Y-137248461D01*
X128906559Y-137382183D01*
X128903477Y-137391910D01*
X128863835Y-137450808D01*
X128826426Y-137472266D01*
X128550411Y-137572632D01*
X128543485Y-137574925D01*
X128240399Y-137665600D01*
X127943448Y-137754439D01*
X127936407Y-137756325D01*
X127326982Y-137900710D01*
X127319832Y-137902187D01*
X127072831Y-137945748D01*
X126703067Y-138010960D01*
X126695829Y-138012021D01*
X126663043Y-138015858D01*
X126073782Y-138084820D01*
X126066515Y-138085457D01*
X125782599Y-138102067D01*
X125441293Y-138122034D01*
X125433981Y-138122249D01*
X125119861Y-138122366D01*
X124807685Y-138122482D01*
X124800395Y-138122272D01*
X124175150Y-138086159D01*
X124167889Y-138085528D01*
X123545761Y-138013187D01*
X123538539Y-138012133D01*
X123101080Y-137935317D01*
X122921692Y-137903817D01*
X122914527Y-137902343D01*
X122697392Y-137851069D01*
X122305002Y-137758410D01*
X122297957Y-137756529D01*
X121697810Y-137577467D01*
X121690868Y-137575175D01*
X121687302Y-137573881D01*
X121117671Y-137367226D01*
X121102133Y-137361589D01*
X121095332Y-137358896D01*
X120847798Y-137252460D01*
X120519962Y-137111495D01*
X120513359Y-137108425D01*
X119953327Y-136828057D01*
X119946884Y-136824594D01*
X119846111Y-136766598D01*
X119404073Y-136512201D01*
X119397864Y-136508384D01*
X118933353Y-136203864D01*
X118907102Y-136180877D01*
X118848183Y-136112697D01*
X118668856Y-135905186D01*
X161709960Y-135905186D01*
X161717418Y-135915554D01*
X161932662Y-136089854D01*
X161937984Y-136093721D01*
X162240823Y-136290387D01*
X162246532Y-136293683D01*
X162568275Y-136457620D01*
X162574286Y-136460296D01*
X162911395Y-136589700D01*
X162917672Y-136591740D01*
X163266463Y-136685198D01*
X163272901Y-136686567D01*
X163629560Y-136743055D01*
X163636104Y-136743743D01*
X163996699Y-136762641D01*
X164003301Y-136762641D01*
X164363896Y-136743743D01*
X164370440Y-136743055D01*
X164727099Y-136686567D01*
X164733537Y-136685198D01*
X165082328Y-136591740D01*
X165088605Y-136589700D01*
X165425714Y-136460296D01*
X165431725Y-136457620D01*
X165753468Y-136293683D01*
X165759177Y-136290387D01*
X166062016Y-136093721D01*
X166067338Y-136089854D01*
X166281634Y-135916322D01*
X166290100Y-135904067D01*
X166283766Y-135892976D01*
X164012812Y-133622022D01*
X163998868Y-133614408D01*
X163997035Y-133614539D01*
X163990420Y-133618790D01*
X161717100Y-135892110D01*
X161709960Y-135905186D01*
X118668856Y-135905186D01*
X117941042Y-135062985D01*
X117939032Y-135060599D01*
X117925135Y-135043683D01*
X117605958Y-134655186D01*
X122209960Y-134655186D01*
X122217418Y-134665554D01*
X122432662Y-134839854D01*
X122437984Y-134843721D01*
X122740823Y-135040387D01*
X122746532Y-135043683D01*
X123068275Y-135207620D01*
X123074286Y-135210296D01*
X123411395Y-135339700D01*
X123417672Y-135341740D01*
X123766463Y-135435198D01*
X123772901Y-135436567D01*
X124129560Y-135493055D01*
X124136104Y-135493743D01*
X124496699Y-135512641D01*
X124503301Y-135512641D01*
X124863896Y-135493743D01*
X124870440Y-135493055D01*
X125227099Y-135436567D01*
X125233537Y-135435198D01*
X125582328Y-135341740D01*
X125588605Y-135339700D01*
X125925714Y-135210296D01*
X125931725Y-135207620D01*
X126253468Y-135043683D01*
X126259177Y-135040387D01*
X126562016Y-134843721D01*
X126567338Y-134839854D01*
X126781634Y-134666322D01*
X126790100Y-134654067D01*
X126783766Y-134642976D01*
X124512812Y-132372022D01*
X124498868Y-132364408D01*
X124497035Y-132364539D01*
X124490420Y-132368790D01*
X122217100Y-134642110D01*
X122209960Y-134655186D01*
X117605958Y-134655186D01*
X117305966Y-134290040D01*
X116950225Y-133857037D01*
X116948263Y-133854587D01*
X115989760Y-132626783D01*
X115987859Y-132624285D01*
X115527510Y-132003301D01*
X120987359Y-132003301D01*
X121006257Y-132363896D01*
X121006945Y-132370440D01*
X121063433Y-132727099D01*
X121064802Y-132733537D01*
X121158260Y-133082328D01*
X121160300Y-133088605D01*
X121289704Y-133425714D01*
X121292380Y-133431725D01*
X121456317Y-133753468D01*
X121459613Y-133759177D01*
X121656279Y-134062016D01*
X121660146Y-134067338D01*
X121833678Y-134281634D01*
X121845933Y-134290100D01*
X121857024Y-134283766D01*
X124127978Y-132012812D01*
X124134356Y-132001132D01*
X124864408Y-132001132D01*
X124864539Y-132002965D01*
X124868790Y-132009580D01*
X127142110Y-134282900D01*
X127155186Y-134290040D01*
X127165554Y-134282582D01*
X127339854Y-134067338D01*
X127343721Y-134062016D01*
X127540387Y-133759177D01*
X127543683Y-133753468D01*
X127707620Y-133431725D01*
X127710296Y-133425714D01*
X127776479Y-133253301D01*
X160487359Y-133253301D01*
X160506257Y-133613896D01*
X160506945Y-133620440D01*
X160563433Y-133977099D01*
X160564802Y-133983537D01*
X160658260Y-134332328D01*
X160660300Y-134338605D01*
X160789704Y-134675714D01*
X160792380Y-134681725D01*
X160956317Y-135003468D01*
X160959613Y-135009177D01*
X161156279Y-135312016D01*
X161160146Y-135317338D01*
X161333678Y-135531634D01*
X161345933Y-135540100D01*
X161357024Y-135533766D01*
X163627978Y-133262812D01*
X163634356Y-133251132D01*
X164364408Y-133251132D01*
X164364539Y-133252965D01*
X164368790Y-133259580D01*
X166642110Y-135532900D01*
X166655186Y-135540040D01*
X166665554Y-135532582D01*
X166839854Y-135317338D01*
X166843721Y-135312016D01*
X167040387Y-135009177D01*
X167043683Y-135003468D01*
X167207620Y-134681725D01*
X167210296Y-134675714D01*
X167339700Y-134338605D01*
X167341740Y-134332328D01*
X167435198Y-133983537D01*
X167436567Y-133977099D01*
X167493055Y-133620440D01*
X167493743Y-133613896D01*
X167512641Y-133253301D01*
X167512641Y-133246699D01*
X167493743Y-132886104D01*
X167493055Y-132879560D01*
X167436567Y-132522901D01*
X167435198Y-132516463D01*
X167341740Y-132167672D01*
X167339700Y-132161395D01*
X167210296Y-131824286D01*
X167207620Y-131818275D01*
X167043683Y-131496532D01*
X167040387Y-131490823D01*
X166843721Y-131187984D01*
X166839854Y-131182662D01*
X166666322Y-130968366D01*
X166654067Y-130959900D01*
X166642976Y-130966234D01*
X164372022Y-133237188D01*
X164364408Y-133251132D01*
X163634356Y-133251132D01*
X163635592Y-133248868D01*
X163635461Y-133247035D01*
X163631210Y-133240420D01*
X161357890Y-130967100D01*
X161344814Y-130959960D01*
X161334446Y-130967418D01*
X161160146Y-131182662D01*
X161156279Y-131187984D01*
X160959613Y-131490823D01*
X160956317Y-131496532D01*
X160792380Y-131818275D01*
X160789704Y-131824286D01*
X160660300Y-132161395D01*
X160658260Y-132167672D01*
X160564802Y-132516463D01*
X160563433Y-132522901D01*
X160506945Y-132879560D01*
X160506257Y-132886104D01*
X160487359Y-133246699D01*
X160487359Y-133253301D01*
X127776479Y-133253301D01*
X127839700Y-133088605D01*
X127841740Y-133082328D01*
X127935198Y-132733537D01*
X127936567Y-132727099D01*
X127993055Y-132370440D01*
X127993743Y-132363896D01*
X128012641Y-132003301D01*
X128012641Y-131996699D01*
X127993743Y-131636104D01*
X127993055Y-131629560D01*
X127936567Y-131272901D01*
X127935198Y-131266463D01*
X127841740Y-130917672D01*
X127839700Y-130911395D01*
X127718606Y-130595933D01*
X161709900Y-130595933D01*
X161716234Y-130607024D01*
X163987188Y-132877978D01*
X164001132Y-132885592D01*
X164002965Y-132885461D01*
X164009580Y-132881210D01*
X166282900Y-130607890D01*
X166290040Y-130594814D01*
X166282582Y-130584446D01*
X166067338Y-130410146D01*
X166062016Y-130406279D01*
X165759177Y-130209613D01*
X165753468Y-130206317D01*
X165431725Y-130042380D01*
X165425714Y-130039704D01*
X165088605Y-129910300D01*
X165082328Y-129908260D01*
X164733537Y-129814802D01*
X164727099Y-129813433D01*
X164370440Y-129756945D01*
X164363896Y-129756257D01*
X164003301Y-129737359D01*
X163996699Y-129737359D01*
X163636104Y-129756257D01*
X163629560Y-129756945D01*
X163272901Y-129813433D01*
X163266463Y-129814802D01*
X162917672Y-129908260D01*
X162911395Y-129910300D01*
X162574286Y-130039704D01*
X162568275Y-130042380D01*
X162246532Y-130206317D01*
X162240823Y-130209613D01*
X161937984Y-130406279D01*
X161932662Y-130410146D01*
X161718366Y-130583678D01*
X161709900Y-130595933D01*
X127718606Y-130595933D01*
X127710296Y-130574286D01*
X127707620Y-130568275D01*
X127543683Y-130246532D01*
X127540387Y-130240823D01*
X127343721Y-129937984D01*
X127339854Y-129932662D01*
X127166322Y-129718366D01*
X127154067Y-129709900D01*
X127142976Y-129716234D01*
X124872022Y-131987188D01*
X124864408Y-132001132D01*
X124134356Y-132001132D01*
X124135592Y-131998868D01*
X124135461Y-131997035D01*
X124131210Y-131990420D01*
X121857890Y-129717100D01*
X121844814Y-129709960D01*
X121834446Y-129717418D01*
X121660146Y-129932662D01*
X121656279Y-129937984D01*
X121459613Y-130240823D01*
X121456317Y-130246532D01*
X121292380Y-130568275D01*
X121289704Y-130574286D01*
X121160300Y-130911395D01*
X121158260Y-130917672D01*
X121064802Y-131266463D01*
X121063433Y-131272901D01*
X121006945Y-131629560D01*
X121006257Y-131636104D01*
X120987359Y-131996699D01*
X120987359Y-132003301D01*
X115527510Y-132003301D01*
X115060219Y-131372952D01*
X115058381Y-131370407D01*
X114241870Y-130209613D01*
X114162205Y-130096357D01*
X114160437Y-130093776D01*
X113918406Y-129730800D01*
X113661777Y-129345933D01*
X122209900Y-129345933D01*
X122216234Y-129357024D01*
X124487188Y-131627978D01*
X124501132Y-131635592D01*
X124502965Y-131635461D01*
X124509580Y-131631210D01*
X126782900Y-129357890D01*
X126790040Y-129344814D01*
X126782582Y-129334446D01*
X126567338Y-129160146D01*
X126562016Y-129156279D01*
X126259177Y-128959613D01*
X126253468Y-128956317D01*
X125931725Y-128792380D01*
X125925714Y-128789704D01*
X125588605Y-128660300D01*
X125582328Y-128658260D01*
X125233537Y-128564802D01*
X125227099Y-128563433D01*
X124870440Y-128506945D01*
X124863896Y-128506257D01*
X124503301Y-128487359D01*
X124496699Y-128487359D01*
X124136104Y-128506257D01*
X124129560Y-128506945D01*
X123772901Y-128563433D01*
X123766463Y-128564802D01*
X123417672Y-128658260D01*
X123411395Y-128660300D01*
X123074286Y-128789704D01*
X123068275Y-128792380D01*
X122746532Y-128956317D01*
X122740823Y-128959613D01*
X122437984Y-129156279D01*
X122432662Y-129160146D01*
X122218366Y-129333678D01*
X122209900Y-129345933D01*
X113661777Y-129345933D01*
X113401982Y-128956317D01*
X113296280Y-128797795D01*
X113294571Y-128795161D01*
X112863826Y-128112940D01*
X112462966Y-127478051D01*
X112461361Y-127475437D01*
X112110479Y-126887767D01*
X111662801Y-126137976D01*
X111661226Y-126135261D01*
X110896287Y-124778418D01*
X110894779Y-124775665D01*
X110800928Y-124599045D01*
X110490578Y-124014997D01*
X110163833Y-123400094D01*
X110162395Y-123397303D01*
X109465993Y-122004048D01*
X109464624Y-122001223D01*
X108803107Y-120590966D01*
X108801810Y-120588108D01*
X108175654Y-119161858D01*
X108174428Y-119158968D01*
X107583997Y-117717559D01*
X107582843Y-117714639D01*
X107028492Y-116258937D01*
X107027412Y-116255990D01*
X106509511Y-114786967D01*
X106508504Y-114783993D01*
X106027366Y-113302536D01*
X106026433Y-113299539D01*
X105582328Y-111806481D01*
X105581471Y-111803461D01*
X105514083Y-111554354D01*
X105174715Y-110299858D01*
X105173937Y-110296832D01*
X105170168Y-110281380D01*
X104804761Y-108783546D01*
X104804056Y-108780490D01*
X104472701Y-107258497D01*
X104472071Y-107255421D01*
X104452851Y-107155186D01*
X184459960Y-107155186D01*
X184467418Y-107165554D01*
X184682662Y-107339854D01*
X184687984Y-107343721D01*
X184990823Y-107540387D01*
X184996532Y-107543683D01*
X185318275Y-107707620D01*
X185324286Y-107710296D01*
X185661395Y-107839700D01*
X185667672Y-107841740D01*
X186016463Y-107935198D01*
X186022901Y-107936567D01*
X186379560Y-107993055D01*
X186386104Y-107993743D01*
X186746699Y-108012641D01*
X186753301Y-108012641D01*
X187113896Y-107993743D01*
X187120440Y-107993055D01*
X187477099Y-107936567D01*
X187483537Y-107935198D01*
X187832328Y-107841740D01*
X187838605Y-107839700D01*
X188175714Y-107710296D01*
X188181725Y-107707620D01*
X188503468Y-107543683D01*
X188509177Y-107540387D01*
X188812016Y-107343721D01*
X188817338Y-107339854D01*
X189031634Y-107166322D01*
X189040100Y-107154067D01*
X189033766Y-107142976D01*
X186762812Y-104872022D01*
X186748868Y-104864408D01*
X186747035Y-104864539D01*
X186740420Y-104868790D01*
X184467100Y-107142110D01*
X184459960Y-107155186D01*
X104452851Y-107155186D01*
X104339109Y-106562016D01*
X104178719Y-105725568D01*
X104178171Y-105722502D01*
X104078527Y-105122368D01*
X103975738Y-104503301D01*
X183237359Y-104503301D01*
X183256257Y-104863896D01*
X183256945Y-104870440D01*
X183313433Y-105227099D01*
X183314802Y-105233537D01*
X183408260Y-105582328D01*
X183410300Y-105588605D01*
X183539704Y-105925714D01*
X183542380Y-105931725D01*
X183706317Y-106253468D01*
X183709613Y-106259177D01*
X183906279Y-106562016D01*
X183910146Y-106567338D01*
X184083678Y-106781634D01*
X184095933Y-106790100D01*
X184107024Y-106783766D01*
X186377978Y-104512812D01*
X186384356Y-104501132D01*
X187114408Y-104501132D01*
X187114539Y-104502965D01*
X187118790Y-104509580D01*
X189392110Y-106782900D01*
X189405186Y-106790040D01*
X189415554Y-106782582D01*
X189589854Y-106567338D01*
X189593721Y-106562016D01*
X189790387Y-106259177D01*
X189793683Y-106253468D01*
X189957620Y-105931725D01*
X189960296Y-105925714D01*
X190089700Y-105588605D01*
X190091740Y-105582328D01*
X190185198Y-105233537D01*
X190186567Y-105227099D01*
X190243055Y-104870440D01*
X190243743Y-104863896D01*
X190262641Y-104503301D01*
X190262641Y-104496699D01*
X190243743Y-104136104D01*
X190243055Y-104129560D01*
X190186567Y-103772901D01*
X190185198Y-103766463D01*
X190091740Y-103417672D01*
X190089700Y-103411395D01*
X189960296Y-103074286D01*
X189957620Y-103068275D01*
X189793683Y-102746532D01*
X189790387Y-102740823D01*
X189593721Y-102437984D01*
X189589854Y-102432662D01*
X189416322Y-102218366D01*
X189404067Y-102209900D01*
X189392976Y-102216234D01*
X187122022Y-104487188D01*
X187114408Y-104501132D01*
X186384356Y-104501132D01*
X186385592Y-104498868D01*
X186385461Y-104497035D01*
X186381210Y-104490420D01*
X184107890Y-102217100D01*
X184094814Y-102209960D01*
X184084446Y-102217418D01*
X183910146Y-102432662D01*
X183906279Y-102437984D01*
X183709613Y-102740823D01*
X183706317Y-102746532D01*
X183542380Y-103068275D01*
X183539704Y-103074286D01*
X183410300Y-103411395D01*
X183408260Y-103417672D01*
X183314802Y-103766463D01*
X183313433Y-103772901D01*
X183256945Y-104129560D01*
X183256257Y-104136104D01*
X183237359Y-104496699D01*
X183237359Y-104503301D01*
X103975738Y-104503301D01*
X103974642Y-104496699D01*
X103923042Y-104185925D01*
X103922566Y-104182822D01*
X103834361Y-103555186D01*
X142109960Y-103555186D01*
X142117418Y-103565554D01*
X142332662Y-103739854D01*
X142337984Y-103743721D01*
X142640823Y-103940387D01*
X142646532Y-103943683D01*
X142968275Y-104107620D01*
X142974286Y-104110296D01*
X143311395Y-104239700D01*
X143317672Y-104241740D01*
X143666463Y-104335198D01*
X143672901Y-104336567D01*
X144029560Y-104393055D01*
X144036104Y-104393743D01*
X144396699Y-104412641D01*
X144403301Y-104412641D01*
X144763896Y-104393743D01*
X144770440Y-104393055D01*
X145127099Y-104336567D01*
X145133537Y-104335198D01*
X145482328Y-104241740D01*
X145488605Y-104239700D01*
X145825714Y-104110296D01*
X145831725Y-104107620D01*
X146153468Y-103943683D01*
X146159177Y-103940387D01*
X146462016Y-103743721D01*
X146467338Y-103739854D01*
X146681634Y-103566322D01*
X146690100Y-103554067D01*
X146683766Y-103542976D01*
X144412812Y-101272022D01*
X144398868Y-101264408D01*
X144397035Y-101264539D01*
X144390420Y-101268790D01*
X142117100Y-103542110D01*
X142109960Y-103555186D01*
X103834361Y-103555186D01*
X103705786Y-102640299D01*
X103705388Y-102637185D01*
X103566417Y-101430975D01*
X103527103Y-101089746D01*
X103526784Y-101086633D01*
X103509600Y-100895774D01*
X123378102Y-100895774D01*
X123378302Y-100901103D01*
X123378302Y-100901105D01*
X123378485Y-100905970D01*
X123386751Y-101126158D01*
X123434093Y-101351791D01*
X123436051Y-101356750D01*
X123436052Y-101356752D01*
X123514270Y-101554810D01*
X123518776Y-101566221D01*
X123638377Y-101763317D01*
X123641874Y-101767347D01*
X123728438Y-101867103D01*
X123789477Y-101937445D01*
X123793608Y-101940832D01*
X123963627Y-102080240D01*
X123963633Y-102080244D01*
X123967755Y-102083624D01*
X123972391Y-102086263D01*
X123972394Y-102086265D01*
X124138076Y-102180577D01*
X124168114Y-102197675D01*
X124384825Y-102276337D01*
X124390074Y-102277286D01*
X124390077Y-102277287D01*
X124607608Y-102316623D01*
X124607615Y-102316624D01*
X124611692Y-102317361D01*
X124629414Y-102318197D01*
X124634356Y-102318430D01*
X124634363Y-102318430D01*
X124635844Y-102318500D01*
X124797890Y-102318500D01*
X124864809Y-102312822D01*
X124964409Y-102304371D01*
X124964413Y-102304370D01*
X124969720Y-102303920D01*
X124974875Y-102302582D01*
X124974881Y-102302581D01*
X125187703Y-102247343D01*
X125187707Y-102247342D01*
X125192872Y-102246001D01*
X125197738Y-102243809D01*
X125197741Y-102243808D01*
X125398202Y-102153507D01*
X125403075Y-102151312D01*
X125594319Y-102022559D01*
X125631487Y-101987103D01*
X125736057Y-101887347D01*
X125761135Y-101863424D01*
X125898754Y-101678458D01*
X125908065Y-101660146D01*
X125961620Y-101554810D01*
X126003240Y-101472949D01*
X126008405Y-101456317D01*
X126070024Y-101257871D01*
X126071607Y-101252773D01*
X126083863Y-101160300D01*
X126089493Y-101117821D01*
X127311500Y-101117821D01*
X127351060Y-101430975D01*
X127429557Y-101736702D01*
X127431010Y-101740371D01*
X127431010Y-101740372D01*
X127541279Y-102018878D01*
X127545753Y-102030179D01*
X127547659Y-102033647D01*
X127547660Y-102033648D01*
X127681603Y-102277287D01*
X127697816Y-102306779D01*
X127883346Y-102562140D01*
X128099418Y-102792233D01*
X128342625Y-102993432D01*
X128609131Y-103162562D01*
X128612710Y-103164246D01*
X128612717Y-103164250D01*
X128891144Y-103295267D01*
X128891148Y-103295269D01*
X128894734Y-103296956D01*
X129194928Y-103394495D01*
X129504980Y-103453641D01*
X129741162Y-103468500D01*
X129898838Y-103468500D01*
X130135020Y-103453641D01*
X130445072Y-103394495D01*
X130745266Y-103296956D01*
X130748852Y-103295269D01*
X130748856Y-103295267D01*
X131027283Y-103164250D01*
X131027290Y-103164246D01*
X131030869Y-103162562D01*
X131297375Y-102993432D01*
X131540582Y-102792233D01*
X131756654Y-102562140D01*
X131942184Y-102306779D01*
X131958398Y-102277287D01*
X132092340Y-102033648D01*
X132092341Y-102033647D01*
X132094247Y-102030179D01*
X132098722Y-102018878D01*
X132208990Y-101740372D01*
X132208990Y-101740371D01*
X132210443Y-101736702D01*
X132288940Y-101430975D01*
X132328500Y-101117821D01*
X132328500Y-100895774D01*
X133538102Y-100895774D01*
X133538302Y-100901103D01*
X133538302Y-100901105D01*
X133538485Y-100905970D01*
X133546751Y-101126158D01*
X133594093Y-101351791D01*
X133596051Y-101356750D01*
X133596052Y-101356752D01*
X133674270Y-101554810D01*
X133678776Y-101566221D01*
X133798377Y-101763317D01*
X133801874Y-101767347D01*
X133888438Y-101867103D01*
X133949477Y-101937445D01*
X133953608Y-101940832D01*
X134123627Y-102080240D01*
X134123633Y-102080244D01*
X134127755Y-102083624D01*
X134132391Y-102086263D01*
X134132394Y-102086265D01*
X134298076Y-102180577D01*
X134328114Y-102197675D01*
X134544825Y-102276337D01*
X134550074Y-102277286D01*
X134550077Y-102277287D01*
X134767608Y-102316623D01*
X134767615Y-102316624D01*
X134771692Y-102317361D01*
X134789414Y-102318197D01*
X134794356Y-102318430D01*
X134794363Y-102318430D01*
X134795844Y-102318500D01*
X134957890Y-102318500D01*
X135024809Y-102312822D01*
X135124409Y-102304371D01*
X135124413Y-102304370D01*
X135129720Y-102303920D01*
X135134875Y-102302582D01*
X135134881Y-102302581D01*
X135347703Y-102247343D01*
X135347707Y-102247342D01*
X135352872Y-102246001D01*
X135357738Y-102243809D01*
X135357741Y-102243808D01*
X135558202Y-102153507D01*
X135563075Y-102151312D01*
X135754319Y-102022559D01*
X135791487Y-101987103D01*
X135896057Y-101887347D01*
X135921135Y-101863424D01*
X136058754Y-101678458D01*
X136068065Y-101660146D01*
X136121620Y-101554810D01*
X136163240Y-101472949D01*
X136168405Y-101456317D01*
X136230024Y-101257871D01*
X136231607Y-101252773D01*
X136243863Y-101160300D01*
X136261198Y-101029511D01*
X136261198Y-101029506D01*
X136261898Y-101024226D01*
X136261224Y-101006257D01*
X136257359Y-100903301D01*
X140887359Y-100903301D01*
X140906257Y-101263896D01*
X140906945Y-101270440D01*
X140963433Y-101627099D01*
X140964802Y-101633537D01*
X141058260Y-101982328D01*
X141060300Y-101988605D01*
X141189704Y-102325714D01*
X141192380Y-102331725D01*
X141356317Y-102653468D01*
X141359613Y-102659177D01*
X141556279Y-102962016D01*
X141560146Y-102967338D01*
X141733678Y-103181634D01*
X141745933Y-103190100D01*
X141757024Y-103183766D01*
X144027978Y-100912812D01*
X144034356Y-100901132D01*
X144764408Y-100901132D01*
X144764539Y-100902965D01*
X144768790Y-100909580D01*
X147042110Y-103182900D01*
X147055186Y-103190040D01*
X147065554Y-103182582D01*
X147239854Y-102967338D01*
X147243721Y-102962016D01*
X147440387Y-102659177D01*
X147443683Y-102653468D01*
X147607620Y-102331725D01*
X147610296Y-102325714D01*
X147739700Y-101988605D01*
X147741740Y-101982328D01*
X147835198Y-101633537D01*
X147836567Y-101627099D01*
X147893055Y-101270440D01*
X147893743Y-101263896D01*
X147912641Y-100903301D01*
X147912641Y-100896699D01*
X147893743Y-100536104D01*
X147893055Y-100529560D01*
X147836567Y-100172901D01*
X147835198Y-100166463D01*
X147741740Y-99817672D01*
X147739700Y-99811395D01*
X147610296Y-99474286D01*
X147607620Y-99468275D01*
X147443683Y-99146532D01*
X147440387Y-99140823D01*
X147243721Y-98837984D01*
X147239854Y-98832662D01*
X147066322Y-98618366D01*
X147054067Y-98609900D01*
X147042976Y-98616234D01*
X144772022Y-100887188D01*
X144764408Y-100901132D01*
X144034356Y-100901132D01*
X144035592Y-100898868D01*
X144035461Y-100897035D01*
X144031210Y-100890420D01*
X141757890Y-98617100D01*
X141744814Y-98609960D01*
X141734446Y-98617418D01*
X141560146Y-98832662D01*
X141556279Y-98837984D01*
X141359613Y-99140823D01*
X141356317Y-99146532D01*
X141192380Y-99468275D01*
X141189704Y-99474286D01*
X141060300Y-99811395D01*
X141058260Y-99817672D01*
X140964802Y-100166463D01*
X140963433Y-100172901D01*
X140906945Y-100529560D01*
X140906257Y-100536104D01*
X140887359Y-100896699D01*
X140887359Y-100903301D01*
X136257359Y-100903301D01*
X136255415Y-100851530D01*
X136253249Y-100793842D01*
X136205907Y-100568209D01*
X136192974Y-100535461D01*
X136123185Y-100358744D01*
X136123184Y-100358742D01*
X136121224Y-100353779D01*
X136090592Y-100303298D01*
X136004390Y-100161243D01*
X136001623Y-100156683D01*
X135981937Y-100133997D01*
X135854023Y-99986588D01*
X135854021Y-99986586D01*
X135850523Y-99982555D01*
X135808970Y-99948484D01*
X135676373Y-99839760D01*
X135676367Y-99839756D01*
X135672245Y-99836376D01*
X135667609Y-99833737D01*
X135667606Y-99833735D01*
X135481697Y-99727910D01*
X135471886Y-99722325D01*
X135255175Y-99643663D01*
X135249926Y-99642714D01*
X135249923Y-99642713D01*
X135032392Y-99603377D01*
X135032385Y-99603376D01*
X135028308Y-99602639D01*
X135010586Y-99601803D01*
X135005644Y-99601570D01*
X135005637Y-99601570D01*
X135004156Y-99601500D01*
X134842110Y-99601500D01*
X134775191Y-99607178D01*
X134675591Y-99615629D01*
X134675587Y-99615630D01*
X134670280Y-99616080D01*
X134665125Y-99617418D01*
X134665119Y-99617419D01*
X134452297Y-99672657D01*
X134452293Y-99672658D01*
X134447128Y-99673999D01*
X134442262Y-99676191D01*
X134442259Y-99676192D01*
X134337512Y-99723377D01*
X134236925Y-99768688D01*
X134045681Y-99897441D01*
X133878865Y-100056576D01*
X133741246Y-100241542D01*
X133738830Y-100246293D01*
X133738828Y-100246297D01*
X133707905Y-100307119D01*
X133636760Y-100447051D01*
X133635178Y-100452145D01*
X133635177Y-100452148D01*
X133587656Y-100605190D01*
X133568393Y-100667227D01*
X133567692Y-100672516D01*
X133538812Y-100890420D01*
X133538102Y-100895774D01*
X132328500Y-100895774D01*
X132328500Y-100802179D01*
X132288940Y-100489025D01*
X132210443Y-100183298D01*
X132190770Y-100133609D01*
X132095702Y-99893495D01*
X132095700Y-99893490D01*
X132094247Y-99889821D01*
X132076542Y-99857616D01*
X131944093Y-99616693D01*
X131944091Y-99616690D01*
X131942184Y-99613221D01*
X131756654Y-99357860D01*
X131561042Y-99149555D01*
X131543297Y-99130658D01*
X131543296Y-99130657D01*
X131540582Y-99127767D01*
X131496110Y-99090976D01*
X131300427Y-98929093D01*
X131297375Y-98926568D01*
X131030869Y-98757438D01*
X131027290Y-98755754D01*
X131027283Y-98755750D01*
X130748856Y-98624733D01*
X130748852Y-98624731D01*
X130745266Y-98623044D01*
X130445072Y-98525505D01*
X130135020Y-98466359D01*
X129898838Y-98451500D01*
X129741162Y-98451500D01*
X129504980Y-98466359D01*
X129194928Y-98525505D01*
X128894734Y-98623044D01*
X128891148Y-98624731D01*
X128891144Y-98624733D01*
X128612717Y-98755750D01*
X128612710Y-98755754D01*
X128609131Y-98757438D01*
X128342625Y-98926568D01*
X128339573Y-98929093D01*
X128143891Y-99090976D01*
X128099418Y-99127767D01*
X128096704Y-99130657D01*
X128096703Y-99130658D01*
X128078958Y-99149555D01*
X127883346Y-99357860D01*
X127697816Y-99613221D01*
X127695909Y-99616690D01*
X127695907Y-99616693D01*
X127563458Y-99857616D01*
X127545753Y-99889821D01*
X127544300Y-99893490D01*
X127544298Y-99893495D01*
X127449230Y-100133609D01*
X127429557Y-100183298D01*
X127351060Y-100489025D01*
X127311500Y-100802179D01*
X127311500Y-101117821D01*
X126089493Y-101117821D01*
X126101198Y-101029511D01*
X126101198Y-101029506D01*
X126101898Y-101024226D01*
X126101224Y-101006257D01*
X126095415Y-100851530D01*
X126093249Y-100793842D01*
X126045907Y-100568209D01*
X126032974Y-100535461D01*
X125963185Y-100358744D01*
X125963184Y-100358742D01*
X125961224Y-100353779D01*
X125882261Y-100223653D01*
X125864023Y-100155041D01*
X125885774Y-100087459D01*
X125940610Y-100042364D01*
X125999861Y-100032677D01*
X126005061Y-100033086D01*
X126005070Y-100033086D01*
X126010000Y-100033474D01*
X126262403Y-100013609D01*
X126267210Y-100012455D01*
X126267216Y-100012454D01*
X126423968Y-99974821D01*
X126508591Y-99954505D01*
X126513164Y-99952611D01*
X126737928Y-99859511D01*
X126737932Y-99859509D01*
X126742502Y-99857616D01*
X126958376Y-99725328D01*
X127150898Y-99560898D01*
X127315328Y-99368376D01*
X127447616Y-99152502D01*
X127452776Y-99140046D01*
X127542611Y-98923164D01*
X127542612Y-98923162D01*
X127544505Y-98918591D01*
X127583194Y-98757438D01*
X127602454Y-98677216D01*
X127602455Y-98677210D01*
X127603609Y-98672403D01*
X127623474Y-98420000D01*
X127609774Y-98245933D01*
X142109900Y-98245933D01*
X142116234Y-98257024D01*
X144387188Y-100527978D01*
X144401132Y-100535592D01*
X144402965Y-100535461D01*
X144409580Y-100531210D01*
X146682900Y-98257890D01*
X146690040Y-98244814D01*
X146682582Y-98234446D01*
X146467338Y-98060146D01*
X146462016Y-98056279D01*
X146159177Y-97859613D01*
X146153468Y-97856317D01*
X145831725Y-97692380D01*
X145825714Y-97689704D01*
X145488605Y-97560300D01*
X145482328Y-97558260D01*
X145133537Y-97464802D01*
X145127099Y-97463433D01*
X144770440Y-97406945D01*
X144763896Y-97406257D01*
X144403301Y-97387359D01*
X144396699Y-97387359D01*
X144036104Y-97406257D01*
X144029560Y-97406945D01*
X143672901Y-97463433D01*
X143666463Y-97464802D01*
X143317672Y-97558260D01*
X143311395Y-97560300D01*
X142974286Y-97689704D01*
X142968275Y-97692380D01*
X142646532Y-97856317D01*
X142640823Y-97859613D01*
X142337984Y-98056279D01*
X142332662Y-98060146D01*
X142118366Y-98233678D01*
X142109900Y-98245933D01*
X127609774Y-98245933D01*
X127603609Y-98167597D01*
X127597650Y-98142773D01*
X127545660Y-97926221D01*
X127544505Y-97921409D01*
X127542611Y-97916836D01*
X127449511Y-97692072D01*
X127449509Y-97692068D01*
X127447616Y-97687498D01*
X127315328Y-97471624D01*
X127150898Y-97279102D01*
X126958376Y-97114672D01*
X126742502Y-96982384D01*
X126737932Y-96980491D01*
X126737928Y-96980489D01*
X126513164Y-96887389D01*
X126513162Y-96887388D01*
X126508591Y-96885495D01*
X126423968Y-96865179D01*
X126267216Y-96827546D01*
X126267210Y-96827545D01*
X126262403Y-96826391D01*
X126099614Y-96813579D01*
X126033273Y-96788293D01*
X125991133Y-96731155D01*
X125983500Y-96687967D01*
X125983500Y-61159500D01*
X126003502Y-61091379D01*
X126057158Y-61044886D01*
X126109500Y-61033500D01*
X126198134Y-61033500D01*
X126260316Y-61026745D01*
X126396705Y-60975615D01*
X126513261Y-60888261D01*
X126600615Y-60771705D01*
X126605346Y-60759086D01*
X126644598Y-60654382D01*
X126687240Y-60597618D01*
X126753802Y-60572918D01*
X126823150Y-60588126D01*
X126857817Y-60616114D01*
X126886250Y-60648938D01*
X127058126Y-60791632D01*
X127094072Y-60812637D01*
X127142794Y-60864275D01*
X127156500Y-60921424D01*
X127156500Y-94211955D01*
X127156208Y-94220524D01*
X127153046Y-94266914D01*
X127152424Y-94276034D01*
X127153729Y-94283511D01*
X127153729Y-94283514D01*
X127163002Y-94336647D01*
X127163965Y-94343171D01*
X127169212Y-94386526D01*
X127171355Y-94404235D01*
X127174042Y-94411345D01*
X127175246Y-94416248D01*
X127178114Y-94426734D01*
X127179561Y-94431526D01*
X127180866Y-94439004D01*
X127183918Y-94445956D01*
X127183918Y-94445957D01*
X127205595Y-94495341D01*
X127208086Y-94501446D01*
X127227145Y-94551882D01*
X127229831Y-94558989D01*
X127234131Y-94565246D01*
X127236467Y-94569714D01*
X127241725Y-94579160D01*
X127244307Y-94583526D01*
X127247362Y-94590485D01*
X127284823Y-94639304D01*
X127288686Y-94644623D01*
X127315283Y-94683321D01*
X127323534Y-94695326D01*
X127329203Y-94700377D01*
X127368323Y-94735232D01*
X127373598Y-94740213D01*
X129016844Y-96383459D01*
X129022698Y-96389724D01*
X129059290Y-96431670D01*
X129109655Y-96467066D01*
X129114920Y-96470978D01*
X129163328Y-96508935D01*
X129170252Y-96512061D01*
X129174561Y-96514671D01*
X129183976Y-96520042D01*
X129188424Y-96522427D01*
X129194639Y-96526795D01*
X129251957Y-96549142D01*
X129258029Y-96551694D01*
X129314105Y-96577014D01*
X129321582Y-96578400D01*
X129326402Y-96579910D01*
X129336818Y-96582878D01*
X129341698Y-96584131D01*
X129348772Y-96586889D01*
X129356303Y-96587881D01*
X129356305Y-96587881D01*
X129409777Y-96594921D01*
X129416290Y-96595953D01*
X129469299Y-96605777D01*
X129469301Y-96605777D01*
X129476768Y-96607161D01*
X129484349Y-96606724D01*
X129484350Y-96606724D01*
X129536643Y-96603709D01*
X129543895Y-96603500D01*
X130846304Y-96603500D01*
X130914425Y-96623502D01*
X130953736Y-96663664D01*
X131054672Y-96828376D01*
X131219102Y-97020898D01*
X131411624Y-97185328D01*
X131627498Y-97317616D01*
X131632068Y-97319509D01*
X131632072Y-97319511D01*
X131849801Y-97409697D01*
X131861409Y-97414505D01*
X131946032Y-97434821D01*
X132102784Y-97472454D01*
X132102790Y-97472455D01*
X132107597Y-97473609D01*
X132360000Y-97493474D01*
X132612403Y-97473609D01*
X132617210Y-97472455D01*
X132617216Y-97472454D01*
X132773968Y-97434821D01*
X132858591Y-97414505D01*
X132870199Y-97409697D01*
X133087928Y-97319511D01*
X133087932Y-97319509D01*
X133092502Y-97317616D01*
X133308376Y-97185328D01*
X133500898Y-97020898D01*
X133665328Y-96828376D01*
X133797616Y-96612502D01*
X133799829Y-96607161D01*
X133892611Y-96383164D01*
X133892612Y-96383162D01*
X133894505Y-96378591D01*
X133953609Y-96132403D01*
X133973474Y-95880000D01*
X133953609Y-95627597D01*
X133924470Y-95506221D01*
X133895660Y-95386221D01*
X133894505Y-95381409D01*
X133859334Y-95296498D01*
X133799511Y-95152072D01*
X133799509Y-95152068D01*
X133797616Y-95147498D01*
X133665328Y-94931624D01*
X133500898Y-94739102D01*
X133308376Y-94574672D01*
X133092502Y-94442384D01*
X133087932Y-94440491D01*
X133087928Y-94440489D01*
X132863164Y-94347389D01*
X132863162Y-94347388D01*
X132858591Y-94345495D01*
X132773968Y-94325179D01*
X132617216Y-94287546D01*
X132617210Y-94287545D01*
X132612403Y-94286391D01*
X132360000Y-94266526D01*
X132107597Y-94286391D01*
X132102790Y-94287545D01*
X132102784Y-94287546D01*
X131946032Y-94325179D01*
X131861409Y-94345495D01*
X131856838Y-94347388D01*
X131856836Y-94347389D01*
X131632072Y-94440489D01*
X131632068Y-94440491D01*
X131627498Y-94442384D01*
X131411624Y-94574672D01*
X131219102Y-94739102D01*
X131054672Y-94931624D01*
X130922384Y-95147498D01*
X130917737Y-95158716D01*
X130873192Y-95213996D01*
X130801328Y-95236500D01*
X129855305Y-95236500D01*
X129787184Y-95216498D01*
X129766210Y-95199595D01*
X128560405Y-93993790D01*
X128526379Y-93931478D01*
X128523500Y-93904695D01*
X128523500Y-60921129D01*
X128543502Y-60853008D01*
X128576332Y-60818550D01*
X128631932Y-60778891D01*
X128719860Y-60716173D01*
X128750944Y-60685198D01*
X128838830Y-60597618D01*
X128878096Y-60558489D01*
X128948655Y-60460296D01*
X129008453Y-60377077D01*
X129009776Y-60378028D01*
X129056645Y-60334857D01*
X129126580Y-60322625D01*
X129192026Y-60350144D01*
X129219875Y-60381994D01*
X129279987Y-60480088D01*
X129426250Y-60648938D01*
X129598126Y-60791632D01*
X129634072Y-60812637D01*
X129682794Y-60864275D01*
X129696500Y-60921424D01*
X129696500Y-76721955D01*
X129696208Y-76730524D01*
X129693061Y-76776691D01*
X129692424Y-76786034D01*
X129693729Y-76793511D01*
X129693729Y-76793514D01*
X129703002Y-76846647D01*
X129703965Y-76853171D01*
X129711355Y-76914235D01*
X129714042Y-76921345D01*
X129715246Y-76926248D01*
X129718114Y-76936734D01*
X129719561Y-76941526D01*
X129720866Y-76949004D01*
X129723918Y-76955956D01*
X129723918Y-76955957D01*
X129745595Y-77005341D01*
X129748086Y-77011446D01*
X129767145Y-77061882D01*
X129769831Y-77068989D01*
X129774131Y-77075246D01*
X129776467Y-77079714D01*
X129781725Y-77089160D01*
X129784307Y-77093526D01*
X129787362Y-77100485D01*
X129824823Y-77149304D01*
X129828686Y-77154623D01*
X129852314Y-77189001D01*
X129863534Y-77205326D01*
X129869203Y-77210377D01*
X129908323Y-77245232D01*
X129913598Y-77250213D01*
X151666844Y-99003459D01*
X151672698Y-99009724D01*
X151709290Y-99051670D01*
X151759652Y-99087066D01*
X151764912Y-99090972D01*
X151813329Y-99128935D01*
X151820254Y-99132062D01*
X151824582Y-99134683D01*
X151833983Y-99140046D01*
X151838425Y-99142428D01*
X151844639Y-99146795D01*
X151851714Y-99149554D01*
X151851717Y-99149555D01*
X151901956Y-99169142D01*
X151908037Y-99171698D01*
X151964105Y-99197014D01*
X151971577Y-99198399D01*
X151976378Y-99199903D01*
X151986818Y-99202878D01*
X151991698Y-99204131D01*
X151998772Y-99206889D01*
X152006303Y-99207881D01*
X152006305Y-99207881D01*
X152059777Y-99214921D01*
X152066290Y-99215953D01*
X152119299Y-99225777D01*
X152119301Y-99225777D01*
X152126768Y-99227161D01*
X152134349Y-99226724D01*
X152134350Y-99226724D01*
X152186643Y-99223709D01*
X152193895Y-99223500D01*
X155111792Y-99223500D01*
X155179913Y-99243502D01*
X155219224Y-99283664D01*
X155344672Y-99488376D01*
X155347879Y-99492131D01*
X155347882Y-99492135D01*
X155369404Y-99517333D01*
X155398435Y-99582122D01*
X155387830Y-99652322D01*
X155340956Y-99705645D01*
X155284247Y-99724713D01*
X155246566Y-99727910D01*
X155155591Y-99735629D01*
X155155587Y-99735630D01*
X155150280Y-99736080D01*
X155145125Y-99737418D01*
X155145119Y-99737419D01*
X154932297Y-99792657D01*
X154932293Y-99792658D01*
X154927128Y-99793999D01*
X154922262Y-99796191D01*
X154922259Y-99796192D01*
X154813980Y-99844968D01*
X154716925Y-99888688D01*
X154525681Y-100017441D01*
X154521824Y-100021120D01*
X154521822Y-100021122D01*
X154467848Y-100072611D01*
X154358865Y-100176576D01*
X154221246Y-100361542D01*
X154116760Y-100567051D01*
X154115178Y-100572145D01*
X154115177Y-100572148D01*
X154053115Y-100772020D01*
X154048393Y-100787227D01*
X154047692Y-100792516D01*
X154032177Y-100909580D01*
X154018102Y-101015774D01*
X154026751Y-101246158D01*
X154074093Y-101471791D01*
X154076051Y-101476750D01*
X154076052Y-101476752D01*
X154109425Y-101561256D01*
X154158776Y-101686221D01*
X154161543Y-101690780D01*
X154161544Y-101690783D01*
X154223998Y-101793703D01*
X154278377Y-101883317D01*
X154281874Y-101887347D01*
X154402629Y-102026505D01*
X154429477Y-102057445D01*
X154471030Y-102091516D01*
X154603627Y-102200240D01*
X154603633Y-102200244D01*
X154607755Y-102203624D01*
X154612391Y-102206263D01*
X154612394Y-102206265D01*
X154737162Y-102277287D01*
X154808114Y-102317675D01*
X155024825Y-102396337D01*
X155030074Y-102397286D01*
X155030077Y-102397287D01*
X155247608Y-102436623D01*
X155247615Y-102436624D01*
X155251692Y-102437361D01*
X155269414Y-102438197D01*
X155274356Y-102438430D01*
X155274363Y-102438430D01*
X155275844Y-102438500D01*
X155437890Y-102438500D01*
X155506693Y-102432662D01*
X155604409Y-102424371D01*
X155604413Y-102424370D01*
X155609720Y-102423920D01*
X155614875Y-102422582D01*
X155614881Y-102422581D01*
X155827703Y-102367343D01*
X155827707Y-102367342D01*
X155832872Y-102366001D01*
X155837738Y-102363809D01*
X155837741Y-102363808D01*
X156038202Y-102273507D01*
X156043075Y-102271312D01*
X156234319Y-102142559D01*
X156401135Y-101983424D01*
X156538754Y-101798458D01*
X156568287Y-101740372D01*
X156640822Y-101597704D01*
X156643240Y-101592949D01*
X156651540Y-101566221D01*
X156710024Y-101377871D01*
X156711607Y-101372773D01*
X156725952Y-101264539D01*
X156729493Y-101237821D01*
X157951500Y-101237821D01*
X157991060Y-101550975D01*
X158069557Y-101856702D01*
X158071010Y-101860371D01*
X158071010Y-101860372D01*
X158181279Y-102138878D01*
X158185753Y-102150179D01*
X158187659Y-102153647D01*
X158187660Y-102153648D01*
X158321603Y-102397287D01*
X158337816Y-102426779D01*
X158523346Y-102682140D01*
X158739418Y-102912233D01*
X158982625Y-103113432D01*
X159249131Y-103282562D01*
X159252710Y-103284246D01*
X159252717Y-103284250D01*
X159531144Y-103415267D01*
X159531148Y-103415269D01*
X159534734Y-103416956D01*
X159834928Y-103514495D01*
X160144980Y-103573641D01*
X160381162Y-103588500D01*
X160538838Y-103588500D01*
X160775020Y-103573641D01*
X161085072Y-103514495D01*
X161385266Y-103416956D01*
X161388852Y-103415269D01*
X161388856Y-103415267D01*
X161667283Y-103284250D01*
X161667290Y-103284246D01*
X161670869Y-103282562D01*
X161937375Y-103113432D01*
X162180582Y-102912233D01*
X162396654Y-102682140D01*
X162582184Y-102426779D01*
X162598398Y-102397287D01*
X162732340Y-102153648D01*
X162732341Y-102153647D01*
X162734247Y-102150179D01*
X162738722Y-102138878D01*
X162848990Y-101860372D01*
X162848990Y-101860371D01*
X162850443Y-101856702D01*
X162928940Y-101550975D01*
X162968500Y-101237821D01*
X162968500Y-101015774D01*
X164178102Y-101015774D01*
X164186751Y-101246158D01*
X164234093Y-101471791D01*
X164236051Y-101476750D01*
X164236052Y-101476752D01*
X164269425Y-101561256D01*
X164318776Y-101686221D01*
X164321543Y-101690780D01*
X164321544Y-101690783D01*
X164383998Y-101793703D01*
X164438377Y-101883317D01*
X164441874Y-101887347D01*
X164562629Y-102026505D01*
X164589477Y-102057445D01*
X164631030Y-102091516D01*
X164763627Y-102200240D01*
X164763633Y-102200244D01*
X164767755Y-102203624D01*
X164772391Y-102206263D01*
X164772394Y-102206265D01*
X164897162Y-102277287D01*
X164968114Y-102317675D01*
X165184825Y-102396337D01*
X165190074Y-102397286D01*
X165190077Y-102397287D01*
X165407608Y-102436623D01*
X165407615Y-102436624D01*
X165411692Y-102437361D01*
X165429414Y-102438197D01*
X165434356Y-102438430D01*
X165434363Y-102438430D01*
X165435844Y-102438500D01*
X165597890Y-102438500D01*
X165666693Y-102432662D01*
X165764409Y-102424371D01*
X165764413Y-102424370D01*
X165769720Y-102423920D01*
X165774875Y-102422582D01*
X165774881Y-102422581D01*
X165987703Y-102367343D01*
X165987707Y-102367342D01*
X165992872Y-102366001D01*
X165997738Y-102363809D01*
X165997741Y-102363808D01*
X166198202Y-102273507D01*
X166203075Y-102271312D01*
X166394319Y-102142559D01*
X166561135Y-101983424D01*
X166663431Y-101845933D01*
X184459900Y-101845933D01*
X184466234Y-101857024D01*
X186737188Y-104127978D01*
X186751132Y-104135592D01*
X186752965Y-104135461D01*
X186759580Y-104131210D01*
X189032900Y-101857890D01*
X189040040Y-101844814D01*
X189032582Y-101834446D01*
X188817338Y-101660146D01*
X188812016Y-101656279D01*
X188509177Y-101459613D01*
X188503468Y-101456317D01*
X188181725Y-101292380D01*
X188175714Y-101289704D01*
X187838605Y-101160300D01*
X187832328Y-101158260D01*
X187483537Y-101064802D01*
X187477099Y-101063433D01*
X187120440Y-101006945D01*
X187113896Y-101006257D01*
X186753301Y-100987359D01*
X186746699Y-100987359D01*
X186386104Y-101006257D01*
X186379560Y-101006945D01*
X186022901Y-101063433D01*
X186016463Y-101064802D01*
X185667672Y-101158260D01*
X185661395Y-101160300D01*
X185324286Y-101289704D01*
X185318275Y-101292380D01*
X184996532Y-101456317D01*
X184990823Y-101459613D01*
X184687984Y-101656279D01*
X184682662Y-101660146D01*
X184468366Y-101833678D01*
X184459900Y-101845933D01*
X166663431Y-101845933D01*
X166698754Y-101798458D01*
X166728287Y-101740372D01*
X166800822Y-101597704D01*
X166803240Y-101592949D01*
X166811540Y-101566221D01*
X166870024Y-101377871D01*
X166871607Y-101372773D01*
X166885952Y-101264539D01*
X166901198Y-101149511D01*
X166901198Y-101149506D01*
X166901898Y-101144226D01*
X166893249Y-100913842D01*
X166887657Y-100887188D01*
X166847002Y-100693428D01*
X166845907Y-100688209D01*
X166843948Y-100683248D01*
X166763185Y-100478744D01*
X166763184Y-100478742D01*
X166761224Y-100473779D01*
X166641623Y-100276683D01*
X166637637Y-100272089D01*
X166494023Y-100106588D01*
X166494021Y-100106586D01*
X166490523Y-100102555D01*
X166405301Y-100032677D01*
X166316373Y-99959760D01*
X166316367Y-99959756D01*
X166312245Y-99956376D01*
X166307609Y-99953737D01*
X166307606Y-99953735D01*
X166121697Y-99847910D01*
X166111886Y-99842325D01*
X165895175Y-99763663D01*
X165889926Y-99762714D01*
X165889923Y-99762713D01*
X165672392Y-99723377D01*
X165672385Y-99723376D01*
X165668308Y-99722639D01*
X165650586Y-99721803D01*
X165645644Y-99721570D01*
X165645637Y-99721570D01*
X165644156Y-99721500D01*
X165482110Y-99721500D01*
X165415191Y-99727178D01*
X165315591Y-99735629D01*
X165315587Y-99735630D01*
X165310280Y-99736080D01*
X165305125Y-99737418D01*
X165305119Y-99737419D01*
X165092297Y-99792657D01*
X165092293Y-99792658D01*
X165087128Y-99793999D01*
X165082262Y-99796191D01*
X165082259Y-99796192D01*
X164973980Y-99844968D01*
X164876925Y-99888688D01*
X164685681Y-100017441D01*
X164681824Y-100021120D01*
X164681822Y-100021122D01*
X164627848Y-100072611D01*
X164518865Y-100176576D01*
X164381246Y-100361542D01*
X164276760Y-100567051D01*
X164275178Y-100572145D01*
X164275177Y-100572148D01*
X164213115Y-100772020D01*
X164208393Y-100787227D01*
X164207692Y-100792516D01*
X164192177Y-100909580D01*
X164178102Y-101015774D01*
X162968500Y-101015774D01*
X162968500Y-100922179D01*
X162928940Y-100609025D01*
X162850443Y-100303298D01*
X162838310Y-100272653D01*
X162735702Y-100013495D01*
X162735700Y-100013490D01*
X162734247Y-100009821D01*
X162732340Y-100006352D01*
X162584093Y-99736693D01*
X162584091Y-99736690D01*
X162582184Y-99733221D01*
X162396654Y-99477860D01*
X162203810Y-99272502D01*
X162183297Y-99250658D01*
X162183296Y-99250657D01*
X162180582Y-99247767D01*
X162155146Y-99226724D01*
X161940427Y-99049093D01*
X161937375Y-99046568D01*
X161670869Y-98877438D01*
X161667290Y-98875754D01*
X161667283Y-98875750D01*
X161388856Y-98744733D01*
X161388852Y-98744731D01*
X161385266Y-98743044D01*
X161085072Y-98645505D01*
X160775020Y-98586359D01*
X160538838Y-98571500D01*
X160381162Y-98571500D01*
X160144980Y-98586359D01*
X159834928Y-98645505D01*
X159534734Y-98743044D01*
X159531148Y-98744731D01*
X159531144Y-98744733D01*
X159252717Y-98875750D01*
X159252710Y-98875754D01*
X159249131Y-98877438D01*
X158982625Y-99046568D01*
X158979573Y-99049093D01*
X158764855Y-99226724D01*
X158739418Y-99247767D01*
X158736704Y-99250657D01*
X158736703Y-99250658D01*
X158716190Y-99272502D01*
X158523346Y-99477860D01*
X158337816Y-99733221D01*
X158335909Y-99736690D01*
X158335907Y-99736693D01*
X158187660Y-100006352D01*
X158185753Y-100009821D01*
X158184300Y-100013490D01*
X158184298Y-100013495D01*
X158081690Y-100272653D01*
X158069557Y-100303298D01*
X157991060Y-100609025D01*
X157951500Y-100922179D01*
X157951500Y-101237821D01*
X156729493Y-101237821D01*
X156741198Y-101149511D01*
X156741198Y-101149506D01*
X156741898Y-101144226D01*
X156733249Y-100913842D01*
X156727657Y-100887188D01*
X156687002Y-100693428D01*
X156685907Y-100688209D01*
X156683948Y-100683248D01*
X156603185Y-100478744D01*
X156603184Y-100478742D01*
X156601224Y-100473779D01*
X156522261Y-100343653D01*
X156504023Y-100275041D01*
X156525774Y-100207459D01*
X156580610Y-100162364D01*
X156639861Y-100152677D01*
X156645061Y-100153086D01*
X156645070Y-100153086D01*
X156650000Y-100153474D01*
X156902403Y-100133609D01*
X156907210Y-100132455D01*
X156907216Y-100132454D01*
X157094633Y-100087459D01*
X157148591Y-100074505D01*
X157153164Y-100072611D01*
X157377928Y-99979511D01*
X157377932Y-99979509D01*
X157382502Y-99977616D01*
X157598376Y-99845328D01*
X157790898Y-99680898D01*
X157955328Y-99488376D01*
X158087616Y-99272502D01*
X158098908Y-99245242D01*
X158182611Y-99043164D01*
X158182612Y-99043162D01*
X158184505Y-99038591D01*
X158213314Y-98918591D01*
X158242454Y-98797216D01*
X158242455Y-98797210D01*
X158243609Y-98792403D01*
X158263474Y-98540000D01*
X158243609Y-98287597D01*
X158236270Y-98257024D01*
X158185660Y-98046221D01*
X158184505Y-98041409D01*
X158136793Y-97926221D01*
X158089511Y-97812072D01*
X158089509Y-97812068D01*
X158087616Y-97807498D01*
X157955328Y-97591624D01*
X157790898Y-97399102D01*
X157598376Y-97234672D01*
X157382502Y-97102384D01*
X157377932Y-97100491D01*
X157377928Y-97100489D01*
X157153164Y-97007389D01*
X157153162Y-97007388D01*
X157148591Y-97005495D01*
X157044433Y-96980489D01*
X156907216Y-96947546D01*
X156907210Y-96947545D01*
X156902403Y-96946391D01*
X156759093Y-96935112D01*
X156692752Y-96909826D01*
X156650612Y-96852688D01*
X156649821Y-96840391D01*
X156626245Y-96892012D01*
X156566519Y-96930396D01*
X156540907Y-96935112D01*
X156397597Y-96946391D01*
X156392790Y-96947545D01*
X156392784Y-96947546D01*
X156255567Y-96980489D01*
X156151409Y-97005495D01*
X156146838Y-97007388D01*
X156146836Y-97007389D01*
X155922072Y-97100489D01*
X155922068Y-97100491D01*
X155917498Y-97102384D01*
X155701624Y-97234672D01*
X155509102Y-97399102D01*
X155344672Y-97591624D01*
X155282929Y-97692380D01*
X155219225Y-97796335D01*
X155166577Y-97843966D01*
X155111792Y-97856500D01*
X152505305Y-97856500D01*
X152437184Y-97836498D01*
X152416210Y-97819595D01*
X131100405Y-76503790D01*
X131066379Y-76441478D01*
X131063500Y-76414695D01*
X131063500Y-60921129D01*
X131083502Y-60853008D01*
X131116332Y-60818550D01*
X131171932Y-60778891D01*
X131259860Y-60716173D01*
X131290944Y-60685198D01*
X131378830Y-60597618D01*
X131418096Y-60558489D01*
X131488655Y-60460296D01*
X131548453Y-60377077D01*
X131549776Y-60378028D01*
X131596645Y-60334857D01*
X131666580Y-60322625D01*
X131732026Y-60350144D01*
X131759875Y-60381994D01*
X131819987Y-60480088D01*
X131966250Y-60648938D01*
X132138126Y-60791632D01*
X132174072Y-60812637D01*
X132222794Y-60864275D01*
X132236500Y-60921424D01*
X132236500Y-76591955D01*
X132236208Y-76600523D01*
X132232424Y-76656034D01*
X132233729Y-76663511D01*
X132233729Y-76663514D01*
X132243002Y-76716647D01*
X132243965Y-76723171D01*
X132244855Y-76730524D01*
X132251355Y-76784235D01*
X132254042Y-76791345D01*
X132255246Y-76796248D01*
X132258114Y-76806734D01*
X132259561Y-76811526D01*
X132260866Y-76819004D01*
X132263918Y-76825956D01*
X132263918Y-76825957D01*
X132285595Y-76875341D01*
X132288086Y-76881446D01*
X132306875Y-76931167D01*
X132309831Y-76938989D01*
X132314131Y-76945246D01*
X132316467Y-76949714D01*
X132321725Y-76959160D01*
X132324307Y-76963526D01*
X132327362Y-76970485D01*
X132364823Y-77019304D01*
X132368686Y-77024623D01*
X132394294Y-77061882D01*
X132403534Y-77075326D01*
X132409203Y-77080377D01*
X132448323Y-77115232D01*
X132453598Y-77120213D01*
X151796844Y-96463459D01*
X151802698Y-96469724D01*
X151839290Y-96511670D01*
X151889655Y-96547066D01*
X151894920Y-96550978D01*
X151943328Y-96588935D01*
X151950252Y-96592061D01*
X151954561Y-96594671D01*
X151963976Y-96600042D01*
X151968424Y-96602427D01*
X151974639Y-96606795D01*
X151981716Y-96609554D01*
X152031957Y-96629142D01*
X152038029Y-96631694D01*
X152094105Y-96657014D01*
X152101582Y-96658400D01*
X152106402Y-96659910D01*
X152116818Y-96662878D01*
X152121698Y-96664131D01*
X152128772Y-96666889D01*
X152136303Y-96667881D01*
X152136305Y-96667881D01*
X152189777Y-96674921D01*
X152196290Y-96675953D01*
X152249299Y-96685777D01*
X152249301Y-96685777D01*
X152256768Y-96687161D01*
X152264349Y-96686724D01*
X152264350Y-96686724D01*
X152316643Y-96683709D01*
X152323895Y-96683500D01*
X156531021Y-96683500D01*
X156599142Y-96703502D01*
X156645635Y-96757158D01*
X156648540Y-96777360D01*
X156680522Y-96719771D01*
X156743076Y-96686191D01*
X156768979Y-96683500D01*
X161461792Y-96683500D01*
X161529913Y-96703502D01*
X161569224Y-96743664D01*
X161694672Y-96948376D01*
X161859102Y-97140898D01*
X162051624Y-97305328D01*
X162267498Y-97437616D01*
X162272068Y-97439509D01*
X162272072Y-97439511D01*
X162402351Y-97493474D01*
X162501409Y-97534505D01*
X162586032Y-97554821D01*
X162742784Y-97592454D01*
X162742790Y-97592455D01*
X162747597Y-97593609D01*
X163000000Y-97613474D01*
X163252403Y-97593609D01*
X163257210Y-97592455D01*
X163257216Y-97592454D01*
X163413968Y-97554821D01*
X163498591Y-97534505D01*
X163597649Y-97493474D01*
X163727928Y-97439511D01*
X163727932Y-97439509D01*
X163732502Y-97437616D01*
X163948376Y-97305328D01*
X164140898Y-97140898D01*
X164305328Y-96948376D01*
X164437616Y-96732502D01*
X164442890Y-96719771D01*
X164532611Y-96503164D01*
X164532612Y-96503162D01*
X164534505Y-96498591D01*
X164554821Y-96413968D01*
X164592454Y-96257216D01*
X164592455Y-96257210D01*
X164593609Y-96252403D01*
X164613474Y-96000000D01*
X164593609Y-95747597D01*
X164534505Y-95501409D01*
X164486793Y-95386221D01*
X164439511Y-95272072D01*
X164439509Y-95272068D01*
X164437616Y-95267498D01*
X164305328Y-95051624D01*
X164140898Y-94859102D01*
X163948376Y-94694672D01*
X163732502Y-94562384D01*
X163727932Y-94560491D01*
X163727928Y-94560489D01*
X163503164Y-94467389D01*
X163503162Y-94467388D01*
X163498591Y-94465495D01*
X163388247Y-94439004D01*
X163257216Y-94407546D01*
X163257210Y-94407545D01*
X163252403Y-94406391D01*
X163000000Y-94386526D01*
X162747597Y-94406391D01*
X162742790Y-94407545D01*
X162742784Y-94407546D01*
X162611753Y-94439004D01*
X162501409Y-94465495D01*
X162496838Y-94467388D01*
X162496836Y-94467389D01*
X162272072Y-94560489D01*
X162272068Y-94560491D01*
X162267498Y-94562384D01*
X162051624Y-94694672D01*
X161859102Y-94859102D01*
X161694672Y-95051624D01*
X161629047Y-95158714D01*
X161569225Y-95256335D01*
X161516577Y-95303966D01*
X161461792Y-95316500D01*
X152635305Y-95316500D01*
X152567184Y-95296498D01*
X152546210Y-95279595D01*
X133640405Y-76373790D01*
X133606379Y-76311478D01*
X133603500Y-76284695D01*
X133603500Y-60921129D01*
X133623502Y-60853008D01*
X133656332Y-60818550D01*
X133711932Y-60778891D01*
X133799860Y-60716173D01*
X133830944Y-60685198D01*
X133918830Y-60597618D01*
X133958096Y-60558489D01*
X134088453Y-60377077D01*
X134109320Y-60334857D01*
X134185136Y-60181453D01*
X134185137Y-60181451D01*
X134187430Y-60176811D01*
X134252370Y-59963069D01*
X134259991Y-59905186D01*
X143959960Y-59905186D01*
X143967418Y-59915554D01*
X144182662Y-60089854D01*
X144187984Y-60093721D01*
X144490823Y-60290387D01*
X144496532Y-60293683D01*
X144818275Y-60457620D01*
X144824286Y-60460296D01*
X145161395Y-60589700D01*
X145167672Y-60591740D01*
X145516463Y-60685198D01*
X145522901Y-60686567D01*
X145879560Y-60743055D01*
X145886104Y-60743743D01*
X146246699Y-60762641D01*
X146253301Y-60762641D01*
X146613896Y-60743743D01*
X146620440Y-60743055D01*
X146977099Y-60686567D01*
X146983537Y-60685198D01*
X147332328Y-60591740D01*
X147338605Y-60589700D01*
X147675714Y-60460296D01*
X147681725Y-60457620D01*
X148003468Y-60293683D01*
X148009177Y-60290387D01*
X148312016Y-60093721D01*
X148317338Y-60089854D01*
X148531634Y-59916322D01*
X148540100Y-59904067D01*
X148533766Y-59892976D01*
X146262812Y-57622022D01*
X146248868Y-57614408D01*
X146247035Y-57614539D01*
X146240420Y-57618790D01*
X143967100Y-59892110D01*
X143959960Y-59905186D01*
X134259991Y-59905186D01*
X134281529Y-59741590D01*
X134281611Y-59738240D01*
X134283074Y-59678365D01*
X134283074Y-59678361D01*
X134283156Y-59675000D01*
X134264852Y-59452361D01*
X134210431Y-59235702D01*
X134121354Y-59030840D01*
X134032166Y-58892976D01*
X134002822Y-58847617D01*
X134002820Y-58847614D01*
X134000014Y-58843277D01*
X133849670Y-58678051D01*
X133845619Y-58674852D01*
X133845615Y-58674848D01*
X133678414Y-58542800D01*
X133678410Y-58542798D01*
X133674359Y-58539598D01*
X133663795Y-58533766D01*
X133622136Y-58510769D01*
X133478789Y-58431638D01*
X133473920Y-58429914D01*
X133473916Y-58429912D01*
X133273087Y-58358795D01*
X133273083Y-58358794D01*
X133268212Y-58357069D01*
X133263119Y-58356162D01*
X133263116Y-58356161D01*
X133053373Y-58318800D01*
X133053367Y-58318799D01*
X133048284Y-58317894D01*
X132974452Y-58316992D01*
X132830081Y-58315228D01*
X132830079Y-58315228D01*
X132824911Y-58315165D01*
X132604091Y-58348955D01*
X132391756Y-58418357D01*
X132193607Y-58521507D01*
X132189474Y-58524610D01*
X132189471Y-58524612D01*
X132019100Y-58652530D01*
X132014965Y-58655635D01*
X132011393Y-58659373D01*
X131903729Y-58772037D01*
X131860629Y-58817138D01*
X131753201Y-58974621D01*
X131698293Y-59019621D01*
X131627768Y-59027792D01*
X131564021Y-58996538D01*
X131543324Y-58972054D01*
X131462822Y-58847617D01*
X131462820Y-58847614D01*
X131460014Y-58843277D01*
X131309670Y-58678051D01*
X131305619Y-58674852D01*
X131305615Y-58674848D01*
X131138414Y-58542800D01*
X131138410Y-58542798D01*
X131134359Y-58539598D01*
X131123795Y-58533766D01*
X131082136Y-58510769D01*
X130938789Y-58431638D01*
X130933920Y-58429914D01*
X130933916Y-58429912D01*
X130733087Y-58358795D01*
X130733083Y-58358794D01*
X130728212Y-58357069D01*
X130723119Y-58356162D01*
X130723116Y-58356161D01*
X130513373Y-58318800D01*
X130513367Y-58318799D01*
X130508284Y-58317894D01*
X130434452Y-58316992D01*
X130290081Y-58315228D01*
X130290079Y-58315228D01*
X130284911Y-58315165D01*
X130064091Y-58348955D01*
X129851756Y-58418357D01*
X129653607Y-58521507D01*
X129649474Y-58524610D01*
X129649471Y-58524612D01*
X129479100Y-58652530D01*
X129474965Y-58655635D01*
X129471393Y-58659373D01*
X129363729Y-58772037D01*
X129320629Y-58817138D01*
X129213201Y-58974621D01*
X129158293Y-59019621D01*
X129087768Y-59027792D01*
X129024021Y-58996538D01*
X129003324Y-58972054D01*
X128922822Y-58847617D01*
X128922820Y-58847614D01*
X128920014Y-58843277D01*
X128769670Y-58678051D01*
X128765619Y-58674852D01*
X128765615Y-58674848D01*
X128598414Y-58542800D01*
X128598410Y-58542798D01*
X128594359Y-58539598D01*
X128583795Y-58533766D01*
X128542136Y-58510769D01*
X128398789Y-58431638D01*
X128393920Y-58429914D01*
X128393916Y-58429912D01*
X128193087Y-58358795D01*
X128193083Y-58358794D01*
X128188212Y-58357069D01*
X128183119Y-58356162D01*
X128183116Y-58356161D01*
X127973373Y-58318800D01*
X127973367Y-58318799D01*
X127968284Y-58317894D01*
X127894452Y-58316992D01*
X127750081Y-58315228D01*
X127750079Y-58315228D01*
X127744911Y-58315165D01*
X127524091Y-58348955D01*
X127311756Y-58418357D01*
X127113607Y-58521507D01*
X127109474Y-58524610D01*
X127109471Y-58524612D01*
X126939100Y-58652530D01*
X126934965Y-58655635D01*
X126878537Y-58714684D01*
X126854283Y-58740064D01*
X126792759Y-58775494D01*
X126721846Y-58772037D01*
X126664060Y-58730791D01*
X126645207Y-58697243D01*
X126603767Y-58586703D01*
X126600615Y-58578295D01*
X126513261Y-58461739D01*
X126396705Y-58374385D01*
X126260316Y-58323255D01*
X126198134Y-58316500D01*
X124401866Y-58316500D01*
X124339684Y-58323255D01*
X124203295Y-58374385D01*
X124086739Y-58461739D01*
X123999385Y-58578295D01*
X123948255Y-58714684D01*
X123941500Y-58776866D01*
X123941500Y-60573134D01*
X123948255Y-60635316D01*
X123999385Y-60771705D01*
X124086739Y-60888261D01*
X124203295Y-60975615D01*
X124339684Y-61026745D01*
X124401866Y-61033500D01*
X124490500Y-61033500D01*
X124558621Y-61053502D01*
X124605114Y-61107158D01*
X124616500Y-61159500D01*
X124616500Y-97579971D01*
X124597933Y-97645805D01*
X124572384Y-97687498D01*
X124570491Y-97692068D01*
X124570489Y-97692072D01*
X124477389Y-97916836D01*
X124475495Y-97921409D01*
X124474340Y-97926221D01*
X124422351Y-98142773D01*
X124416391Y-98167597D01*
X124396526Y-98420000D01*
X124416391Y-98672403D01*
X124417545Y-98677210D01*
X124417546Y-98677216D01*
X124436806Y-98757438D01*
X124475495Y-98918591D01*
X124477388Y-98923162D01*
X124477389Y-98923164D01*
X124567225Y-99140046D01*
X124572384Y-99152502D01*
X124704672Y-99368376D01*
X124707879Y-99372131D01*
X124707882Y-99372135D01*
X124729404Y-99397333D01*
X124758435Y-99462122D01*
X124747830Y-99532322D01*
X124700956Y-99585645D01*
X124644247Y-99604713D01*
X124599350Y-99608522D01*
X124515591Y-99615629D01*
X124515587Y-99615630D01*
X124510280Y-99616080D01*
X124505125Y-99617418D01*
X124505119Y-99617419D01*
X124292297Y-99672657D01*
X124292293Y-99672658D01*
X124287128Y-99673999D01*
X124282262Y-99676191D01*
X124282259Y-99676192D01*
X124177512Y-99723377D01*
X124076925Y-99768688D01*
X123885681Y-99897441D01*
X123718865Y-100056576D01*
X123581246Y-100241542D01*
X123578830Y-100246293D01*
X123578828Y-100246297D01*
X123547905Y-100307119D01*
X123476760Y-100447051D01*
X123475178Y-100452145D01*
X123475177Y-100452148D01*
X123427656Y-100605190D01*
X123408393Y-100667227D01*
X123407692Y-100672516D01*
X123378812Y-100890420D01*
X123378102Y-100895774D01*
X103509600Y-100895774D01*
X103387107Y-99535246D01*
X103386867Y-99532151D01*
X103385905Y-99517333D01*
X103330692Y-98667469D01*
X103285882Y-97977731D01*
X103285718Y-97974596D01*
X103223490Y-96418227D01*
X103223403Y-96415089D01*
X103199967Y-94857574D01*
X103199959Y-94854435D01*
X103209332Y-93904695D01*
X103215331Y-93296825D01*
X103215400Y-93293723D01*
X103217509Y-93233137D01*
X103269571Y-91737009D01*
X103269719Y-91733877D01*
X103362657Y-90178957D01*
X103362884Y-90175826D01*
X103494525Y-88623775D01*
X103494829Y-88620651D01*
X103665098Y-87072318D01*
X103665480Y-87069202D01*
X103725220Y-86627541D01*
X103874272Y-85525577D01*
X103874732Y-85522472D01*
X104070413Y-84304960D01*
X104121907Y-83984570D01*
X104122431Y-83981549D01*
X104407862Y-82450180D01*
X104408476Y-82447102D01*
X104731946Y-80923423D01*
X104732636Y-80920360D01*
X105093971Y-79405185D01*
X105094737Y-79402141D01*
X105493710Y-77896429D01*
X105494552Y-77893405D01*
X105930907Y-76398116D01*
X105931824Y-76395114D01*
X106405287Y-74911186D01*
X106406278Y-74908207D01*
X106916586Y-73436464D01*
X106917652Y-73433511D01*
X107464438Y-71975016D01*
X107465576Y-71972091D01*
X108031451Y-70569980D01*
X108040907Y-70551228D01*
X108051505Y-70533962D01*
X108053866Y-70525297D01*
X108056734Y-70518668D01*
X108059180Y-70511871D01*
X108063387Y-70503938D01*
X108065198Y-70495146D01*
X108065200Y-70495141D01*
X108074056Y-70452154D01*
X108075896Y-70444452D01*
X108087439Y-70402089D01*
X108089799Y-70393428D01*
X108089633Y-70384454D01*
X108090525Y-70377288D01*
X108090966Y-70370065D01*
X108092776Y-70361276D01*
X108088480Y-70308555D01*
X108088086Y-70300651D01*
X108087275Y-70256770D01*
X108087275Y-70256769D01*
X108087109Y-70247795D01*
X108084432Y-70239230D01*
X108083272Y-70232074D01*
X108081673Y-70225042D01*
X108080944Y-70216099D01*
X108070978Y-70190082D01*
X108065745Y-70172807D01*
X107840113Y-69175241D01*
X107772291Y-68875389D01*
X107771594Y-68872101D01*
X107505547Y-67530348D01*
X107504937Y-67527040D01*
X107274798Y-66178656D01*
X107274280Y-66175360D01*
X107080211Y-64821280D01*
X107079779Y-64817944D01*
X106921932Y-63459253D01*
X106921588Y-63455907D01*
X106896996Y-63180201D01*
X106800058Y-62093411D01*
X106799805Y-62090067D01*
X106714687Y-60724829D01*
X106714523Y-60721470D01*
X106672228Y-59532900D01*
X106665879Y-59354474D01*
X106665804Y-59351124D01*
X106661939Y-58915554D01*
X106661847Y-58905186D01*
X108959960Y-58905186D01*
X108967418Y-58915554D01*
X109182662Y-59089854D01*
X109187984Y-59093721D01*
X109490823Y-59290387D01*
X109496532Y-59293683D01*
X109818275Y-59457620D01*
X109824286Y-59460296D01*
X110161395Y-59589700D01*
X110167672Y-59591740D01*
X110516463Y-59685198D01*
X110522901Y-59686567D01*
X110879560Y-59743055D01*
X110886104Y-59743743D01*
X111246699Y-59762641D01*
X111253301Y-59762641D01*
X111613896Y-59743743D01*
X111620440Y-59743055D01*
X111977099Y-59686567D01*
X111983537Y-59685198D01*
X112332328Y-59591740D01*
X112338605Y-59589700D01*
X112675714Y-59460296D01*
X112681725Y-59457620D01*
X113003468Y-59293683D01*
X113009177Y-59290387D01*
X113312016Y-59093721D01*
X113317338Y-59089854D01*
X113531634Y-58916322D01*
X113540100Y-58904067D01*
X113533766Y-58892976D01*
X111262812Y-56622022D01*
X111248868Y-56614408D01*
X111247035Y-56614539D01*
X111240420Y-56618790D01*
X108967100Y-58892110D01*
X108959960Y-58905186D01*
X106661847Y-58905186D01*
X106653665Y-57983294D01*
X106653680Y-57979931D01*
X106666710Y-57248868D01*
X106678056Y-56612255D01*
X106678161Y-56608904D01*
X106678479Y-56601773D01*
X106694002Y-56253301D01*
X107737359Y-56253301D01*
X107756257Y-56613896D01*
X107756945Y-56620440D01*
X107813433Y-56977099D01*
X107814802Y-56983537D01*
X107908260Y-57332328D01*
X107910300Y-57338605D01*
X108039704Y-57675714D01*
X108042380Y-57681725D01*
X108206317Y-58003468D01*
X108209613Y-58009177D01*
X108406279Y-58312016D01*
X108410146Y-58317338D01*
X108583678Y-58531634D01*
X108595933Y-58540100D01*
X108607024Y-58533766D01*
X110877978Y-56262812D01*
X110884356Y-56251132D01*
X111614408Y-56251132D01*
X111614539Y-56252965D01*
X111618790Y-56259580D01*
X113892110Y-58532900D01*
X113905186Y-58540040D01*
X113915554Y-58532582D01*
X114089854Y-58317338D01*
X114093721Y-58312016D01*
X114290387Y-58009177D01*
X114293683Y-58003468D01*
X114457620Y-57681725D01*
X114460296Y-57675714D01*
X114589700Y-57338605D01*
X114591740Y-57332328D01*
X114685198Y-56983537D01*
X114686567Y-56977099D01*
X114743055Y-56620440D01*
X114743743Y-56613896D01*
X114762641Y-56253301D01*
X114762641Y-56246699D01*
X114743743Y-55886104D01*
X114743055Y-55879560D01*
X114686567Y-55522901D01*
X114685198Y-55516463D01*
X114591740Y-55167672D01*
X114589700Y-55161395D01*
X114460296Y-54824286D01*
X114457620Y-54818275D01*
X114293683Y-54496532D01*
X114290387Y-54490823D01*
X114093721Y-54187984D01*
X114089854Y-54182662D01*
X113916322Y-53968366D01*
X113904067Y-53959900D01*
X113892976Y-53966234D01*
X111622022Y-56237188D01*
X111614408Y-56251132D01*
X110884356Y-56251132D01*
X110885592Y-56248868D01*
X110885461Y-56247035D01*
X110881210Y-56240420D01*
X108607890Y-53967100D01*
X108594814Y-53959960D01*
X108584446Y-53967418D01*
X108410146Y-54182662D01*
X108406279Y-54187984D01*
X108209613Y-54490823D01*
X108206317Y-54496532D01*
X108042380Y-54818275D01*
X108039704Y-54824286D01*
X107910300Y-55161395D01*
X107908260Y-55167672D01*
X107814802Y-55516463D01*
X107813433Y-55522901D01*
X107756945Y-55879560D01*
X107756257Y-55886104D01*
X107737359Y-56246699D01*
X107737359Y-56253301D01*
X106694002Y-56253301D01*
X106739034Y-55242389D01*
X106739227Y-55239052D01*
X106750982Y-55074272D01*
X106804800Y-54319806D01*
X106833209Y-53921553D01*
X106836924Y-53898891D01*
X106915483Y-53595933D01*
X108959900Y-53595933D01*
X108966234Y-53607024D01*
X111237188Y-55877978D01*
X111251132Y-55885592D01*
X111252965Y-55885461D01*
X111259580Y-55881210D01*
X113532900Y-53607890D01*
X113540040Y-53594814D01*
X113532582Y-53584446D01*
X113317338Y-53410146D01*
X113312016Y-53406279D01*
X113009177Y-53209613D01*
X113003468Y-53206317D01*
X112681725Y-53042380D01*
X112675714Y-53039704D01*
X112338605Y-52910300D01*
X112332328Y-52908260D01*
X111983537Y-52814802D01*
X111977099Y-52813433D01*
X111620440Y-52756945D01*
X111613896Y-52756257D01*
X111253301Y-52737359D01*
X111246699Y-52737359D01*
X110886104Y-52756257D01*
X110879560Y-52756945D01*
X110522901Y-52813433D01*
X110516463Y-52814802D01*
X110167672Y-52908260D01*
X110161395Y-52910300D01*
X109824286Y-53039704D01*
X109818275Y-53042380D01*
X109496532Y-53206317D01*
X109490823Y-53209613D01*
X109187984Y-53406279D01*
X109182662Y-53410146D01*
X108968366Y-53583678D01*
X108959900Y-53595933D01*
X106915483Y-53595933D01*
X106919451Y-53580631D01*
X106922781Y-53569814D01*
X107044359Y-53230075D01*
X107048650Y-53219596D01*
X107200240Y-52892174D01*
X107205457Y-52882118D01*
X107385847Y-52569628D01*
X107391945Y-52560082D01*
X107599668Y-52265062D01*
X107606592Y-52256112D01*
X107839988Y-51980925D01*
X107847697Y-51972624D01*
X108104846Y-51719532D01*
X108113268Y-51711957D01*
X108392117Y-51482976D01*
X108401187Y-51476187D01*
X108445533Y-51446006D01*
X108699479Y-51273176D01*
X108709118Y-51267232D01*
X109024437Y-51091834D01*
X109034575Y-51086778D01*
X109364362Y-50940415D01*
X109374911Y-50936290D01*
X109548225Y-50877359D01*
X109625940Y-50876253D01*
X110398955Y-51114797D01*
G37*
%TD.AperFunction*%
%TD*%
M02*
