%TF.GenerationSoftware,KiCad,Pcbnew,(6.0.9)*%
%TF.CreationDate,2022-12-13T14:30:32-05:00*%
%TF.ProjectId,Team5_Coaster_post_mdr_100x100,5465616d-355f-4436-9f61-737465725f70,rev?*%
%TF.SameCoordinates,Original*%
%TF.FileFunction,Drillmap*%
%TF.FilePolarity,Positive*%
%FSLAX45Y45*%
G04 Gerber Fmt 4.5, Leading zero omitted, Abs format (unit mm)*
G04 Created by KiCad (PCBNEW (6.0.9)) date 2022-12-13 14:30:32*
%MOMM*%
%LPD*%
G01*
G04 APERTURE LIST*
%ADD10C,0.100000*%
%ADD11C,0.200000*%
G04 APERTURE END LIST*
D10*
X17236440Y-15650000D02*
G75*
G03*
X17511440Y-15375000I11440J263560D01*
G01*
X17236440Y-7300000D02*
X16436440Y-7300000D01*
X17236440Y-14300000D02*
X16436440Y-14300000D01*
X17511440Y-6225000D02*
X17511440Y-7025000D01*
X7850000Y-7025000D02*
G75*
G03*
X8125000Y-7300000I263560J-11440D01*
G01*
X7875000Y-15375000D02*
X7875000Y-14575000D01*
X17236440Y-5950000D02*
X16436440Y-5950000D01*
X17511440Y-14575000D02*
G75*
G03*
X17236440Y-14300000I-263560J11440D01*
G01*
X16436440Y-14300000D02*
X16436440Y-7300000D01*
X7850000Y-7025000D02*
X7850000Y-6225000D01*
X8150000Y-14300000D02*
X8925000Y-14300000D01*
X8150000Y-14300000D02*
G75*
G03*
X7875000Y-14575000I-11440J-263560D01*
G01*
X8150000Y-15650000D02*
X8950000Y-15650000D01*
X8925000Y-5950000D02*
X16436440Y-5950000D01*
X8125000Y-5950000D02*
G75*
G03*
X7850000Y-6225000I-11440J-263560D01*
G01*
X8925000Y-7300000D02*
X8925000Y-14300000D01*
X8125000Y-5950000D02*
X8925000Y-5950000D01*
X7875000Y-15375000D02*
G75*
G03*
X8150000Y-15650000I263560J-11440D01*
G01*
X17236440Y-15650000D02*
X16436440Y-15650000D01*
X17236440Y-7300000D02*
G75*
G03*
X17511440Y-7025000I11440J263560D01*
G01*
X8125000Y-7300000D02*
X8925000Y-7300000D01*
X17511440Y-6225000D02*
G75*
G03*
X17236440Y-5950000I-263560J11440D01*
G01*
X17511440Y-14575000D02*
X17511440Y-15375000D01*
X8950000Y-15650000D02*
X16436440Y-15650000D01*
D11*
X8102371Y-15965724D02*
X8102371Y-15765724D01*
X8149990Y-15765724D01*
X8178561Y-15775248D01*
X8197609Y-15794296D01*
X8207133Y-15813343D01*
X8216656Y-15851439D01*
X8216656Y-15880010D01*
X8207133Y-15918105D01*
X8197609Y-15937153D01*
X8178561Y-15956200D01*
X8149990Y-15965724D01*
X8102371Y-15965724D01*
X8302371Y-15965724D02*
X8302371Y-15832391D01*
X8302371Y-15870486D02*
X8311895Y-15851439D01*
X8321418Y-15841915D01*
X8340466Y-15832391D01*
X8359514Y-15832391D01*
X8426180Y-15965724D02*
X8426180Y-15832391D01*
X8426180Y-15765724D02*
X8416657Y-15775248D01*
X8426180Y-15784772D01*
X8435704Y-15775248D01*
X8426180Y-15765724D01*
X8426180Y-15784772D01*
X8549990Y-15965724D02*
X8530942Y-15956200D01*
X8521418Y-15937153D01*
X8521418Y-15765724D01*
X8654752Y-15965724D02*
X8635704Y-15956200D01*
X8626180Y-15937153D01*
X8626180Y-15765724D01*
X8883323Y-15965724D02*
X8883323Y-15765724D01*
X8949990Y-15908581D01*
X9016657Y-15765724D01*
X9016657Y-15965724D01*
X9197609Y-15965724D02*
X9197609Y-15860962D01*
X9188085Y-15841915D01*
X9169038Y-15832391D01*
X9130942Y-15832391D01*
X9111895Y-15841915D01*
X9197609Y-15956200D02*
X9178561Y-15965724D01*
X9130942Y-15965724D01*
X9111895Y-15956200D01*
X9102371Y-15937153D01*
X9102371Y-15918105D01*
X9111895Y-15899058D01*
X9130942Y-15889534D01*
X9178561Y-15889534D01*
X9197609Y-15880010D01*
X9292847Y-15832391D02*
X9292847Y-16032391D01*
X9292847Y-15841915D02*
X9311895Y-15832391D01*
X9349990Y-15832391D01*
X9369038Y-15841915D01*
X9378561Y-15851439D01*
X9388085Y-15870486D01*
X9388085Y-15927629D01*
X9378561Y-15946677D01*
X9369038Y-15956200D01*
X9349990Y-15965724D01*
X9311895Y-15965724D01*
X9292847Y-15956200D01*
X9473799Y-15946677D02*
X9483323Y-15956200D01*
X9473799Y-15965724D01*
X9464276Y-15956200D01*
X9473799Y-15946677D01*
X9473799Y-15965724D01*
X9473799Y-15841915D02*
X9483323Y-15851439D01*
X9473799Y-15860962D01*
X9464276Y-15851439D01*
X9473799Y-15841915D01*
X9473799Y-15860962D01*
M02*
