%TF.GenerationSoftware,KiCad,Pcbnew,(6.0.9)*%
%TF.CreationDate,2022-12-13T13:26:20-05:00*%
%TF.ProjectId,Team5_Coaster_post_mdr_100x100,5465616d-355f-4436-9f61-737465725f70,rev?*%
%TF.SameCoordinates,Original*%
%TF.FileFunction,Legend,Bot*%
%TF.FilePolarity,Positive*%
%FSLAX46Y46*%
G04 Gerber Fmt 4.6, Leading zero omitted, Abs format (unit mm)*
G04 Created by KiCad (PCBNEW (6.0.9)) date 2022-12-13 13:26:20*
%MOMM*%
%LPD*%
G01*
G04 APERTURE LIST*
%ADD10C,0.250000*%
G04 APERTURE END LIST*
D10*
X161976190Y-154202380D02*
X161785714Y-154202380D01*
X161690476Y-154250000D01*
X161595238Y-154345238D01*
X161547619Y-154535714D01*
X161547619Y-154869047D01*
X161595238Y-155059523D01*
X161690476Y-155154761D01*
X161785714Y-155202380D01*
X161976190Y-155202380D01*
X162071428Y-155154761D01*
X162166666Y-155059523D01*
X162214285Y-154869047D01*
X162214285Y-154535714D01*
X162166666Y-154345238D01*
X162071428Y-154250000D01*
X161976190Y-154202380D01*
X161119047Y-155202380D02*
X161119047Y-154535714D01*
X161119047Y-154630952D02*
X161071428Y-154583333D01*
X160976190Y-154535714D01*
X160833333Y-154535714D01*
X160738095Y-154583333D01*
X160690476Y-154678571D01*
X160690476Y-155202380D01*
X160690476Y-154678571D02*
X160642857Y-154583333D01*
X160547619Y-154535714D01*
X160404761Y-154535714D01*
X160309523Y-154583333D01*
X160261904Y-154678571D01*
X160261904Y-155202380D01*
X159357142Y-155202380D02*
X159357142Y-154678571D01*
X159404761Y-154583333D01*
X159500000Y-154535714D01*
X159690476Y-154535714D01*
X159785714Y-154583333D01*
X159357142Y-155154761D02*
X159452380Y-155202380D01*
X159690476Y-155202380D01*
X159785714Y-155154761D01*
X159833333Y-155059523D01*
X159833333Y-154964285D01*
X159785714Y-154869047D01*
X159690476Y-154821428D01*
X159452380Y-154821428D01*
X159357142Y-154773809D01*
X158880952Y-155202380D02*
X158880952Y-154535714D01*
X158880952Y-154726190D02*
X158833333Y-154630952D01*
X158785714Y-154583333D01*
X158690476Y-154535714D01*
X158595238Y-154535714D01*
X157547619Y-154916666D02*
X157071428Y-154916666D01*
X157642857Y-155202380D02*
X157309523Y-154202380D01*
X156976190Y-155202380D01*
X156642857Y-155202380D02*
X156642857Y-154535714D01*
X156642857Y-154726190D02*
X156595238Y-154630952D01*
X156547619Y-154583333D01*
X156452380Y-154535714D01*
X156357142Y-154535714D01*
X155642857Y-155154761D02*
X155738095Y-155202380D01*
X155928571Y-155202380D01*
X156023809Y-155154761D01*
X156071428Y-155059523D01*
X156071428Y-154678571D01*
X156023809Y-154583333D01*
X155928571Y-154535714D01*
X155738095Y-154535714D01*
X155642857Y-154583333D01*
X155595238Y-154678571D01*
X155595238Y-154773809D01*
X156071428Y-154869047D01*
X155166666Y-155202380D02*
X155166666Y-154535714D01*
X155166666Y-154202380D02*
X155214285Y-154250000D01*
X155166666Y-154297619D01*
X155119047Y-154250000D01*
X155166666Y-154202380D01*
X155166666Y-154297619D01*
X154261904Y-154535714D02*
X154261904Y-155535714D01*
X154261904Y-155154761D02*
X154357142Y-155202380D01*
X154547619Y-155202380D01*
X154642857Y-155154761D01*
X154690476Y-155107142D01*
X154738095Y-155011904D01*
X154738095Y-154726190D01*
X154690476Y-154630952D01*
X154642857Y-154583333D01*
X154547619Y-154535714D01*
X154357142Y-154535714D01*
X154261904Y-154583333D01*
X153357142Y-155202380D02*
X153357142Y-154678571D01*
X153404761Y-154583333D01*
X153500000Y-154535714D01*
X153690476Y-154535714D01*
X153785714Y-154583333D01*
X153357142Y-155154761D02*
X153452380Y-155202380D01*
X153690476Y-155202380D01*
X153785714Y-155154761D01*
X153833333Y-155059523D01*
X153833333Y-154964285D01*
X153785714Y-154869047D01*
X153690476Y-154821428D01*
X153452380Y-154821428D01*
X153357142Y-154773809D01*
X153023809Y-154535714D02*
X152642857Y-154535714D01*
X152880952Y-154202380D02*
X152880952Y-155059523D01*
X152833333Y-155154761D01*
X152738095Y-155202380D01*
X152642857Y-155202380D01*
X151595238Y-155154761D02*
X151452380Y-155202380D01*
X151214285Y-155202380D01*
X151119047Y-155154761D01*
X151071428Y-155107142D01*
X151023809Y-155011904D01*
X151023809Y-154916666D01*
X151071428Y-154821428D01*
X151119047Y-154773809D01*
X151214285Y-154726190D01*
X151404761Y-154678571D01*
X151500000Y-154630952D01*
X151547619Y-154583333D01*
X151595238Y-154488095D01*
X151595238Y-154392857D01*
X151547619Y-154297619D01*
X151500000Y-154250000D01*
X151404761Y-154202380D01*
X151166666Y-154202380D01*
X151023809Y-154250000D01*
X150595238Y-155202380D02*
X150595238Y-154202380D01*
X150357142Y-154202380D01*
X150214285Y-154250000D01*
X150119047Y-154345238D01*
X150071428Y-154440476D01*
X150023809Y-154630952D01*
X150023809Y-154773809D01*
X150071428Y-154964285D01*
X150119047Y-155059523D01*
X150214285Y-155154761D01*
X150357142Y-155202380D01*
X150595238Y-155202380D01*
X149595238Y-155202380D02*
X149595238Y-154202380D01*
X149214285Y-154202380D01*
X149119047Y-154250000D01*
X149071428Y-154297619D01*
X149023809Y-154392857D01*
X149023809Y-154535714D01*
X149071428Y-154630952D01*
X149119047Y-154678571D01*
X149214285Y-154726190D01*
X149595238Y-154726190D01*
X148642857Y-154297619D02*
X148595238Y-154250000D01*
X148500000Y-154202380D01*
X148261904Y-154202380D01*
X148166666Y-154250000D01*
X148119047Y-154297619D01*
X148071428Y-154392857D01*
X148071428Y-154488095D01*
X148119047Y-154630952D01*
X148690476Y-155202380D01*
X148071428Y-155202380D01*
X147738095Y-154202380D02*
X147119047Y-154202380D01*
X147452380Y-154583333D01*
X147309523Y-154583333D01*
X147214285Y-154630952D01*
X147166666Y-154678571D01*
X147119047Y-154773809D01*
X147119047Y-155011904D01*
X147166666Y-155107142D01*
X147214285Y-155154761D01*
X147309523Y-155202380D01*
X147595238Y-155202380D01*
X147690476Y-155154761D01*
X147738095Y-155107142D01*
X146071428Y-154202380D02*
X145500000Y-154202380D01*
X145785714Y-155202380D02*
X145785714Y-154202380D01*
X144785714Y-155154761D02*
X144880952Y-155202380D01*
X145071428Y-155202380D01*
X145166666Y-155154761D01*
X145214285Y-155059523D01*
X145214285Y-154678571D01*
X145166666Y-154583333D01*
X145071428Y-154535714D01*
X144880952Y-154535714D01*
X144785714Y-154583333D01*
X144738095Y-154678571D01*
X144738095Y-154773809D01*
X145214285Y-154869047D01*
X143880952Y-155202380D02*
X143880952Y-154678571D01*
X143928571Y-154583333D01*
X144023809Y-154535714D01*
X144214285Y-154535714D01*
X144309523Y-154583333D01*
X143880952Y-155154761D02*
X143976190Y-155202380D01*
X144214285Y-155202380D01*
X144309523Y-155154761D01*
X144357142Y-155059523D01*
X144357142Y-154964285D01*
X144309523Y-154869047D01*
X144214285Y-154821428D01*
X143976190Y-154821428D01*
X143880952Y-154773809D01*
X143404761Y-155202380D02*
X143404761Y-154535714D01*
X143404761Y-154630952D02*
X143357142Y-154583333D01*
X143261904Y-154535714D01*
X143119047Y-154535714D01*
X143023809Y-154583333D01*
X142976190Y-154678571D01*
X142976190Y-155202380D01*
X142976190Y-154678571D02*
X142928571Y-154583333D01*
X142833333Y-154535714D01*
X142690476Y-154535714D01*
X142595238Y-154583333D01*
X142547619Y-154678571D01*
X142547619Y-155202380D01*
X140833333Y-154202380D02*
X141309523Y-154202380D01*
X141357142Y-154678571D01*
X141309523Y-154630952D01*
X141214285Y-154583333D01*
X140976190Y-154583333D01*
X140880952Y-154630952D01*
X140833333Y-154678571D01*
X140785714Y-154773809D01*
X140785714Y-155011904D01*
X140833333Y-155107142D01*
X140880952Y-155154761D01*
X140976190Y-155202380D01*
X141214285Y-155202380D01*
X141309523Y-155154761D01*
X141357142Y-155107142D01*
M02*
