%TF.GenerationSoftware,KiCad,Pcbnew,(6.0.9)*%
%TF.CreationDate,2022-12-13T14:30:36-05:00*%
%TF.ProjectId,Team5_Coaster_post_mdr_100x100,5465616d-355f-4436-9f61-737465725f70,rev?*%
%TF.SameCoordinates,Original*%
%TF.FileFunction,Legend,Bot*%
%TF.FilePolarity,Positive*%
%FSLAX46Y46*%
G04 Gerber Fmt 4.6, Leading zero omitted, Abs format (unit mm)*
G04 Created by KiCad (PCBNEW (6.0.9)) date 2022-12-13 14:30:36*
%MOMM*%
%LPD*%
G01*
G04 APERTURE LIST*
%ADD10C,0.250000*%
G04 APERTURE END LIST*
D10*
X150226190Y-153952380D02*
X150035714Y-153952380D01*
X149940476Y-154000000D01*
X149845238Y-154095238D01*
X149797619Y-154285714D01*
X149797619Y-154619047D01*
X149845238Y-154809523D01*
X149940476Y-154904761D01*
X150035714Y-154952380D01*
X150226190Y-154952380D01*
X150321428Y-154904761D01*
X150416666Y-154809523D01*
X150464285Y-154619047D01*
X150464285Y-154285714D01*
X150416666Y-154095238D01*
X150321428Y-154000000D01*
X150226190Y-153952380D01*
X149369047Y-154952380D02*
X149369047Y-154285714D01*
X149369047Y-154380952D02*
X149321428Y-154333333D01*
X149226190Y-154285714D01*
X149083333Y-154285714D01*
X148988095Y-154333333D01*
X148940476Y-154428571D01*
X148940476Y-154952380D01*
X148940476Y-154428571D02*
X148892857Y-154333333D01*
X148797619Y-154285714D01*
X148654761Y-154285714D01*
X148559523Y-154333333D01*
X148511904Y-154428571D01*
X148511904Y-154952380D01*
X147607142Y-154952380D02*
X147607142Y-154428571D01*
X147654761Y-154333333D01*
X147750000Y-154285714D01*
X147940476Y-154285714D01*
X148035714Y-154333333D01*
X147607142Y-154904761D02*
X147702380Y-154952380D01*
X147940476Y-154952380D01*
X148035714Y-154904761D01*
X148083333Y-154809523D01*
X148083333Y-154714285D01*
X148035714Y-154619047D01*
X147940476Y-154571428D01*
X147702380Y-154571428D01*
X147607142Y-154523809D01*
X147130952Y-154952380D02*
X147130952Y-154285714D01*
X147130952Y-154476190D02*
X147083333Y-154380952D01*
X147035714Y-154333333D01*
X146940476Y-154285714D01*
X146845238Y-154285714D01*
X145797619Y-154666666D02*
X145321428Y-154666666D01*
X145892857Y-154952380D02*
X145559523Y-153952380D01*
X145226190Y-154952380D01*
X144892857Y-154952380D02*
X144892857Y-154285714D01*
X144892857Y-154476190D02*
X144845238Y-154380952D01*
X144797619Y-154333333D01*
X144702380Y-154285714D01*
X144607142Y-154285714D01*
X143892857Y-154904761D02*
X143988095Y-154952380D01*
X144178571Y-154952380D01*
X144273809Y-154904761D01*
X144321428Y-154809523D01*
X144321428Y-154428571D01*
X144273809Y-154333333D01*
X144178571Y-154285714D01*
X143988095Y-154285714D01*
X143892857Y-154333333D01*
X143845238Y-154428571D01*
X143845238Y-154523809D01*
X144321428Y-154619047D01*
X143416666Y-154952380D02*
X143416666Y-154285714D01*
X143416666Y-153952380D02*
X143464285Y-154000000D01*
X143416666Y-154047619D01*
X143369047Y-154000000D01*
X143416666Y-153952380D01*
X143416666Y-154047619D01*
X142511904Y-154285714D02*
X142511904Y-155285714D01*
X142511904Y-154904761D02*
X142607142Y-154952380D01*
X142797619Y-154952380D01*
X142892857Y-154904761D01*
X142940476Y-154857142D01*
X142988095Y-154761904D01*
X142988095Y-154476190D01*
X142940476Y-154380952D01*
X142892857Y-154333333D01*
X142797619Y-154285714D01*
X142607142Y-154285714D01*
X142511904Y-154333333D01*
X141607142Y-154952380D02*
X141607142Y-154428571D01*
X141654761Y-154333333D01*
X141750000Y-154285714D01*
X141940476Y-154285714D01*
X142035714Y-154333333D01*
X141607142Y-154904761D02*
X141702380Y-154952380D01*
X141940476Y-154952380D01*
X142035714Y-154904761D01*
X142083333Y-154809523D01*
X142083333Y-154714285D01*
X142035714Y-154619047D01*
X141940476Y-154571428D01*
X141702380Y-154571428D01*
X141607142Y-154523809D01*
X141273809Y-154285714D02*
X140892857Y-154285714D01*
X141130952Y-153952380D02*
X141130952Y-154809523D01*
X141083333Y-154904761D01*
X140988095Y-154952380D01*
X140892857Y-154952380D01*
X139845238Y-154904761D02*
X139702380Y-154952380D01*
X139464285Y-154952380D01*
X139369047Y-154904761D01*
X139321428Y-154857142D01*
X139273809Y-154761904D01*
X139273809Y-154666666D01*
X139321428Y-154571428D01*
X139369047Y-154523809D01*
X139464285Y-154476190D01*
X139654761Y-154428571D01*
X139750000Y-154380952D01*
X139797619Y-154333333D01*
X139845238Y-154238095D01*
X139845238Y-154142857D01*
X139797619Y-154047619D01*
X139750000Y-154000000D01*
X139654761Y-153952380D01*
X139416666Y-153952380D01*
X139273809Y-154000000D01*
X138845238Y-154952380D02*
X138845238Y-153952380D01*
X138607142Y-153952380D01*
X138464285Y-154000000D01*
X138369047Y-154095238D01*
X138321428Y-154190476D01*
X138273809Y-154380952D01*
X138273809Y-154523809D01*
X138321428Y-154714285D01*
X138369047Y-154809523D01*
X138464285Y-154904761D01*
X138607142Y-154952380D01*
X138845238Y-154952380D01*
X137845238Y-154952380D02*
X137845238Y-153952380D01*
X137464285Y-153952380D01*
X137369047Y-154000000D01*
X137321428Y-154047619D01*
X137273809Y-154142857D01*
X137273809Y-154285714D01*
X137321428Y-154380952D01*
X137369047Y-154428571D01*
X137464285Y-154476190D01*
X137845238Y-154476190D01*
X136892857Y-154047619D02*
X136845238Y-154000000D01*
X136750000Y-153952380D01*
X136511904Y-153952380D01*
X136416666Y-154000000D01*
X136369047Y-154047619D01*
X136321428Y-154142857D01*
X136321428Y-154238095D01*
X136369047Y-154380952D01*
X136940476Y-154952380D01*
X136321428Y-154952380D01*
X135988095Y-153952380D02*
X135369047Y-153952380D01*
X135702380Y-154333333D01*
X135559523Y-154333333D01*
X135464285Y-154380952D01*
X135416666Y-154428571D01*
X135369047Y-154523809D01*
X135369047Y-154761904D01*
X135416666Y-154857142D01*
X135464285Y-154904761D01*
X135559523Y-154952380D01*
X135845238Y-154952380D01*
X135940476Y-154904761D01*
X135988095Y-154857142D01*
X134321428Y-153952380D02*
X133750000Y-153952380D01*
X134035714Y-154952380D02*
X134035714Y-153952380D01*
X133035714Y-154904761D02*
X133130952Y-154952380D01*
X133321428Y-154952380D01*
X133416666Y-154904761D01*
X133464285Y-154809523D01*
X133464285Y-154428571D01*
X133416666Y-154333333D01*
X133321428Y-154285714D01*
X133130952Y-154285714D01*
X133035714Y-154333333D01*
X132988095Y-154428571D01*
X132988095Y-154523809D01*
X133464285Y-154619047D01*
X132130952Y-154952380D02*
X132130952Y-154428571D01*
X132178571Y-154333333D01*
X132273809Y-154285714D01*
X132464285Y-154285714D01*
X132559523Y-154333333D01*
X132130952Y-154904761D02*
X132226190Y-154952380D01*
X132464285Y-154952380D01*
X132559523Y-154904761D01*
X132607142Y-154809523D01*
X132607142Y-154714285D01*
X132559523Y-154619047D01*
X132464285Y-154571428D01*
X132226190Y-154571428D01*
X132130952Y-154523809D01*
X131654761Y-154952380D02*
X131654761Y-154285714D01*
X131654761Y-154380952D02*
X131607142Y-154333333D01*
X131511904Y-154285714D01*
X131369047Y-154285714D01*
X131273809Y-154333333D01*
X131226190Y-154428571D01*
X131226190Y-154952380D01*
X131226190Y-154428571D02*
X131178571Y-154333333D01*
X131083333Y-154285714D01*
X130940476Y-154285714D01*
X130845238Y-154333333D01*
X130797619Y-154428571D01*
X130797619Y-154952380D01*
X129083333Y-153952380D02*
X129559523Y-153952380D01*
X129607142Y-154428571D01*
X129559523Y-154380952D01*
X129464285Y-154333333D01*
X129226190Y-154333333D01*
X129130952Y-154380952D01*
X129083333Y-154428571D01*
X129035714Y-154523809D01*
X129035714Y-154761904D01*
X129083333Y-154857142D01*
X129130952Y-154904761D01*
X129226190Y-154952380D01*
X129464285Y-154952380D01*
X129559523Y-154904761D01*
X129607142Y-154857142D01*
M02*
