%TF.GenerationSoftware,KiCad,Pcbnew,(6.0.9)*%
%TF.CreationDate,2022-12-13T14:22:10-05:00*%
%TF.ProjectId,Team5_Coaster_post_mdr_100x100,5465616d-355f-4436-9f61-737465725f70,rev?*%
%TF.SameCoordinates,Original*%
%TF.FileFunction,Profile,NP*%
%FSLAX46Y46*%
G04 Gerber Fmt 4.6, Leading zero omitted, Abs format (unit mm)*
G04 Created by KiCad (PCBNEW (6.0.9)) date 2022-12-13 14:22:10*
%MOMM*%
%LPD*%
G01*
G04 APERTURE LIST*
%TA.AperFunction,Profile*%
%ADD10C,0.100000*%
%TD*%
G04 APERTURE END LIST*
D10*
X172364399Y-156499999D02*
G75*
G03*
X175114399Y-153750000I114401J2635599D01*
G01*
X172364399Y-73000000D02*
X164364399Y-73000000D01*
X172364399Y-143000000D02*
X164364399Y-143000000D01*
X175114399Y-62250000D02*
X175114399Y-70250000D01*
X78500000Y-70250000D02*
G75*
G03*
X81250000Y-73000000I2635600J-114400D01*
G01*
X78750000Y-153750000D02*
X78750000Y-145750000D01*
X172364399Y-59500000D02*
X164364399Y-59500000D01*
X175114400Y-145750000D02*
G75*
G03*
X172364399Y-143000000I-2635600J114400D01*
G01*
X164364399Y-143000000D02*
X164364399Y-73000000D01*
X78500000Y-70250000D02*
X78500000Y-62250000D01*
X81500000Y-143000000D02*
X89250000Y-143000000D01*
X81500000Y-143000000D02*
G75*
G03*
X78750000Y-145750000I-114400J-2635600D01*
G01*
X81500000Y-156500000D02*
X89500000Y-156500000D01*
X89250000Y-59500000D02*
X164364399Y-59500000D01*
X81250000Y-59500000D02*
G75*
G03*
X78500000Y-62250000I-114400J-2635600D01*
G01*
X89250000Y-73000000D02*
X89250000Y-143000000D01*
X81250000Y-59500000D02*
X89250000Y-59500000D01*
X78750000Y-153750000D02*
G75*
G03*
X81500000Y-156500000I2635600J-114400D01*
G01*
X172364399Y-156500000D02*
X164364399Y-156500000D01*
X172364399Y-72999999D02*
G75*
G03*
X175114399Y-70250000I114401J2635599D01*
G01*
X81250000Y-73000000D02*
X89250000Y-73000000D01*
X175114400Y-62250000D02*
G75*
G03*
X172364399Y-59500000I-2635600J114400D01*
G01*
X175114399Y-145750000D02*
X175114399Y-153750000D01*
X89500000Y-156500000D02*
X164364399Y-156500000D01*
M02*
