%TF.GenerationSoftware,KiCad,Pcbnew,(6.0.9)*%
%TF.CreationDate,2022-12-13T14:30:32-05:00*%
%TF.ProjectId,Team5_Coaster_post_mdr_100x100,5465616d-355f-4436-9f61-737465725f70,rev?*%
%TF.SameCoordinates,Original*%
%TF.FileFunction,Drillmap*%
%TF.FilePolarity,Positive*%
%FSLAX45Y45*%
G04 Gerber Fmt 4.5, Leading zero omitted, Abs format (unit mm)*
G04 Created by KiCad (PCBNEW (6.0.9)) date 2022-12-13 14:30:32*
%MOMM*%
%LPD*%
G01*
G04 APERTURE LIST*
%ADD10C,0.100000*%
%ADD11C,0.200000*%
%ADD12C,0.030000*%
%ADD13C,0.060000*%
%ADD14C,0.070000*%
%ADD15C,0.090000*%
%ADD16C,0.102000*%
%ADD17C,0.110000*%
%ADD18C,0.228600*%
%ADD19C,0.430000*%
%ADD20C,0.450000*%
%ADD21C,0.500000*%
G04 APERTURE END LIST*
D10*
X17236440Y-15650000D02*
G75*
G03*
X17511440Y-15375000I11440J263560D01*
G01*
X17236440Y-7300000D02*
X16436440Y-7300000D01*
X17236440Y-14300000D02*
X16436440Y-14300000D01*
X17511440Y-6225000D02*
X17511440Y-7025000D01*
X7850000Y-7025000D02*
G75*
G03*
X8125000Y-7300000I263560J-11440D01*
G01*
X7875000Y-15375000D02*
X7875000Y-14575000D01*
X17236440Y-5950000D02*
X16436440Y-5950000D01*
X17511440Y-14575000D02*
G75*
G03*
X17236440Y-14300000I-263560J11440D01*
G01*
X16436440Y-14300000D02*
X16436440Y-7300000D01*
X7850000Y-7025000D02*
X7850000Y-6225000D01*
X8150000Y-14300000D02*
X8925000Y-14300000D01*
X8150000Y-14300000D02*
G75*
G03*
X7875000Y-14575000I-11440J-263560D01*
G01*
X8150000Y-15650000D02*
X8950000Y-15650000D01*
X8925000Y-5950000D02*
X16436440Y-5950000D01*
X8125000Y-5950000D02*
G75*
G03*
X7850000Y-6225000I-11440J-263560D01*
G01*
X8925000Y-7300000D02*
X8925000Y-14300000D01*
X8125000Y-5950000D02*
X8925000Y-5950000D01*
X7875000Y-15375000D02*
G75*
G03*
X8150000Y-15650000I263560J-11440D01*
G01*
X17236440Y-15650000D02*
X16436440Y-15650000D01*
X17236440Y-7300000D02*
G75*
G03*
X17511440Y-7025000I11440J263560D01*
G01*
X8125000Y-7300000D02*
X8925000Y-7300000D01*
X17511440Y-6225000D02*
G75*
G03*
X17236440Y-5950000I-263560J11440D01*
G01*
X17511440Y-14575000D02*
X17511440Y-15375000D01*
X8950000Y-15650000D02*
X16436440Y-15650000D01*
D11*
D12*
X9135000Y-7335000D02*
X9165000Y-7365000D01*
X9165000Y-7335000D02*
X9135000Y-7365000D01*
X9135000Y-7560000D02*
X9165000Y-7590000D01*
X9165000Y-7560000D02*
X9135000Y-7590000D01*
X9210000Y-7610000D02*
X9240000Y-7640000D01*
X9240000Y-7610000D02*
X9210000Y-7640000D01*
X9285000Y-11410000D02*
X9315000Y-11440000D01*
X9315000Y-11410000D02*
X9285000Y-11440000D01*
X9310000Y-7610000D02*
X9340000Y-7640000D01*
X9340000Y-7610000D02*
X9310000Y-7640000D01*
X9310000Y-11685000D02*
X9340000Y-11715000D01*
X9340000Y-11685000D02*
X9310000Y-11715000D01*
X9385000Y-7335000D02*
X9415000Y-7365000D01*
X9415000Y-7335000D02*
X9385000Y-7365000D01*
X9385000Y-7560000D02*
X9415000Y-7590000D01*
X9415000Y-7560000D02*
X9385000Y-7590000D01*
X9435000Y-12010000D02*
X9465000Y-12040000D01*
X9465000Y-12010000D02*
X9435000Y-12040000D01*
X9528341Y-10253341D02*
X9558341Y-10283341D01*
X9558341Y-10253341D02*
X9528341Y-10283341D01*
X9735000Y-12285000D02*
X9765000Y-12315000D01*
X9765000Y-12285000D02*
X9735000Y-12315000D01*
X9760000Y-10010000D02*
X9790000Y-10040000D01*
X9790000Y-10010000D02*
X9760000Y-10040000D01*
X9835000Y-9660000D02*
X9865000Y-9690000D01*
X9865000Y-9660000D02*
X9835000Y-9690000D01*
X9835000Y-11160000D02*
X9865000Y-11190000D01*
X9865000Y-11160000D02*
X9835000Y-11190000D01*
X9835000Y-11385000D02*
X9865000Y-11415000D01*
X9865000Y-11385000D02*
X9835000Y-11415000D01*
X9910000Y-11435000D02*
X9940000Y-11465000D01*
X9940000Y-11435000D02*
X9910000Y-11465000D01*
X10010000Y-11435000D02*
X10040000Y-11465000D01*
X10040000Y-11435000D02*
X10010000Y-11465000D01*
X10035000Y-12535000D02*
X10065000Y-12565000D01*
X10065000Y-12535000D02*
X10035000Y-12565000D01*
X10085000Y-11160000D02*
X10115000Y-11190000D01*
X10115000Y-11160000D02*
X10085000Y-11190000D01*
X10085000Y-11385000D02*
X10115000Y-11415000D01*
X10115000Y-11385000D02*
X10085000Y-11415000D01*
X10435000Y-12535000D02*
X10465000Y-12565000D01*
X10465000Y-12535000D02*
X10435000Y-12565000D01*
X10610000Y-6935000D02*
X10640000Y-6965000D01*
X10640000Y-6935000D02*
X10610000Y-6965000D01*
X10635000Y-7185000D02*
X10665000Y-7215000D01*
X10665000Y-7185000D02*
X10635000Y-7215000D01*
X10735000Y-7960000D02*
X10765000Y-7990000D01*
X10765000Y-7960000D02*
X10735000Y-7990000D01*
X10835000Y-7960000D02*
X10865000Y-7990000D01*
X10865000Y-7960000D02*
X10835000Y-7990000D01*
X10835000Y-8335000D02*
X10865000Y-8365000D01*
X10865000Y-8335000D02*
X10835000Y-8365000D01*
X10860000Y-7185000D02*
X10890000Y-7215000D01*
X10890000Y-7185000D02*
X10860000Y-7215000D01*
X10935000Y-7960000D02*
X10965000Y-7990000D01*
X10965000Y-7960000D02*
X10935000Y-7990000D01*
X11035000Y-7010000D02*
X11065000Y-7040000D01*
X11065000Y-7010000D02*
X11035000Y-7040000D01*
X11035000Y-7960000D02*
X11065000Y-7990000D01*
X11065000Y-7960000D02*
X11035000Y-7990000D01*
X11135000Y-7560000D02*
X11165000Y-7590000D01*
X11165000Y-7560000D02*
X11135000Y-7590000D01*
X11135000Y-7960000D02*
X11165000Y-7990000D01*
X11165000Y-7960000D02*
X11135000Y-7990000D01*
X11235000Y-7010000D02*
X11265000Y-7040000D01*
X11265000Y-7010000D02*
X11235000Y-7040000D01*
X11235000Y-7560000D02*
X11265000Y-7590000D01*
X11265000Y-7560000D02*
X11235000Y-7590000D01*
X11235000Y-7960000D02*
X11265000Y-7990000D01*
X11265000Y-7960000D02*
X11235000Y-7990000D01*
X11335000Y-7110000D02*
X11365000Y-7140000D01*
X11365000Y-7110000D02*
X11335000Y-7140000D01*
X11335000Y-7560000D02*
X11365000Y-7590000D01*
X11365000Y-7560000D02*
X11335000Y-7590000D01*
X11335000Y-7960000D02*
X11365000Y-7990000D01*
X11365000Y-7960000D02*
X11335000Y-7990000D01*
X11435000Y-7735000D02*
X11465000Y-7765000D01*
X11465000Y-7735000D02*
X11435000Y-7765000D01*
X11435000Y-7960000D02*
X11465000Y-7990000D01*
X11465000Y-7960000D02*
X11435000Y-7990000D01*
X11635000Y-7060000D02*
X11665000Y-7090000D01*
X11665000Y-7060000D02*
X11635000Y-7090000D01*
X11960000Y-6985000D02*
X11990000Y-7015000D01*
X11990000Y-6985000D02*
X11960000Y-7015000D01*
X12010000Y-12285000D02*
X12040000Y-12315000D01*
X12040000Y-12285000D02*
X12010000Y-12315000D01*
X12110000Y-7610000D02*
X12140000Y-7640000D01*
X12140000Y-7610000D02*
X12110000Y-7640000D01*
X12110000Y-7960000D02*
X12140000Y-7990000D01*
X12140000Y-7960000D02*
X12110000Y-7990000D01*
X12110000Y-8360000D02*
X12140000Y-8390000D01*
X12140000Y-8360000D02*
X12110000Y-8390000D01*
X12110000Y-8885000D02*
X12140000Y-8915000D01*
X12140000Y-8885000D02*
X12110000Y-8915000D01*
X12110000Y-9410000D02*
X12140000Y-9440000D01*
X12140000Y-9410000D02*
X12110000Y-9440000D01*
X12110000Y-9935000D02*
X12140000Y-9965000D01*
X12140000Y-9935000D02*
X12110000Y-9965000D01*
X12110000Y-10385000D02*
X12140000Y-10415000D01*
X12140000Y-10385000D02*
X12110000Y-10415000D01*
X12110000Y-10560000D02*
X12140000Y-10590000D01*
X12140000Y-10560000D02*
X12110000Y-10590000D01*
X12110000Y-10960000D02*
X12140000Y-10990000D01*
X12140000Y-10960000D02*
X12110000Y-10990000D01*
X12110000Y-11360000D02*
X12140000Y-11390000D01*
X12140000Y-11360000D02*
X12110000Y-11390000D01*
X12110000Y-11785000D02*
X12140000Y-11815000D01*
X12140000Y-11785000D02*
X12110000Y-11815000D01*
X12110000Y-12135000D02*
X12140000Y-12165000D01*
X12140000Y-12135000D02*
X12110000Y-12165000D01*
X12160000Y-7335000D02*
X12190000Y-7365000D01*
X12190000Y-7335000D02*
X12160000Y-7365000D01*
X12285000Y-6910000D02*
X12315000Y-6940000D01*
X12315000Y-6910000D02*
X12285000Y-6940000D01*
X12435000Y-7260000D02*
X12465000Y-7290000D01*
X12465000Y-7260000D02*
X12435000Y-7290000D01*
X12435000Y-8010000D02*
X12465000Y-8040000D01*
X12465000Y-8010000D02*
X12435000Y-8040000D01*
X12435000Y-8310000D02*
X12465000Y-8340000D01*
X12465000Y-8310000D02*
X12435000Y-8340000D01*
X12435000Y-8710000D02*
X12465000Y-8740000D01*
X12465000Y-8710000D02*
X12435000Y-8740000D01*
X12435000Y-9160000D02*
X12465000Y-9190000D01*
X12465000Y-9160000D02*
X12435000Y-9190000D01*
X12435000Y-9635000D02*
X12465000Y-9665000D01*
X12465000Y-9635000D02*
X12435000Y-9665000D01*
X12435000Y-10785000D02*
X12465000Y-10815000D01*
X12465000Y-10785000D02*
X12435000Y-10815000D01*
X12435000Y-11235000D02*
X12465000Y-11265000D01*
X12465000Y-11235000D02*
X12435000Y-11265000D01*
X12460000Y-10260000D02*
X12490000Y-10290000D01*
X12490000Y-10260000D02*
X12460000Y-10290000D01*
X12585000Y-11610000D02*
X12615000Y-11640000D01*
X12615000Y-11610000D02*
X12585000Y-11640000D01*
X12610000Y-6835000D02*
X12640000Y-6865000D01*
X12640000Y-6835000D02*
X12610000Y-6865000D01*
X12635000Y-8010000D02*
X12665000Y-8040000D01*
X12665000Y-8010000D02*
X12635000Y-8040000D01*
X12735000Y-7710000D02*
X12765000Y-7740000D01*
X12765000Y-7710000D02*
X12735000Y-7740000D01*
X12760000Y-7235000D02*
X12790000Y-7265000D01*
X12790000Y-7235000D02*
X12760000Y-7265000D01*
X12760000Y-10960000D02*
X12790000Y-10990000D01*
X12790000Y-10960000D02*
X12760000Y-10990000D01*
X12760000Y-11185000D02*
X12790000Y-11215000D01*
X12790000Y-11185000D02*
X12760000Y-11215000D01*
X12785000Y-8060000D02*
X12815000Y-8090000D01*
X12815000Y-8060000D02*
X12785000Y-8090000D01*
X12785000Y-8435000D02*
X12815000Y-8465000D01*
X12815000Y-8435000D02*
X12785000Y-8465000D01*
X12785000Y-9085000D02*
X12815000Y-9115000D01*
X12815000Y-9085000D02*
X12785000Y-9115000D01*
X12785000Y-9635000D02*
X12815000Y-9665000D01*
X12815000Y-9635000D02*
X12785000Y-9665000D01*
X12810000Y-15435000D02*
X12840000Y-15465000D01*
X12840000Y-15435000D02*
X12810000Y-15465000D01*
X12835000Y-11235000D02*
X12865000Y-11265000D01*
X12865000Y-11235000D02*
X12835000Y-11265000D01*
X12860000Y-10085000D02*
X12890000Y-10115000D01*
X12890000Y-10085000D02*
X12860000Y-10115000D01*
X12935000Y-7060000D02*
X12965000Y-7090000D01*
X12965000Y-7060000D02*
X12935000Y-7090000D01*
X12935000Y-11235000D02*
X12965000Y-11265000D01*
X12965000Y-11235000D02*
X12935000Y-11265000D01*
X12960000Y-9335000D02*
X12990000Y-9365000D01*
X12990000Y-9335000D02*
X12960000Y-9365000D01*
X12985000Y-8085000D02*
X13015000Y-8115000D01*
X13015000Y-8085000D02*
X12985000Y-8115000D01*
X12985000Y-8760000D02*
X13015000Y-8790000D01*
X13015000Y-8760000D02*
X12985000Y-8790000D01*
X13010000Y-9835000D02*
X13040000Y-9865000D01*
X13040000Y-9835000D02*
X13010000Y-9865000D01*
X13010000Y-10960000D02*
X13040000Y-10990000D01*
X13040000Y-10960000D02*
X13010000Y-10990000D01*
X13010000Y-11185000D02*
X13040000Y-11215000D01*
X13040000Y-11185000D02*
X13010000Y-11215000D01*
X13035000Y-10285000D02*
X13065000Y-10315000D01*
X13065000Y-10285000D02*
X13035000Y-10315000D01*
X13085000Y-7560000D02*
X13115000Y-7590000D01*
X13115000Y-7560000D02*
X13085000Y-7590000D01*
X13085000Y-7760000D02*
X13115000Y-7790000D01*
X13115000Y-7760000D02*
X13085000Y-7790000D01*
X13110000Y-6910000D02*
X13140000Y-6940000D01*
X13140000Y-6910000D02*
X13110000Y-6940000D01*
X13135000Y-7310000D02*
X13165000Y-7340000D01*
X13165000Y-7310000D02*
X13135000Y-7340000D01*
X13185000Y-12185000D02*
X13215000Y-12215000D01*
X13215000Y-12185000D02*
X13185000Y-12215000D01*
X13310000Y-11960000D02*
X13340000Y-11990000D01*
X13340000Y-11960000D02*
X13310000Y-11990000D01*
X13335000Y-7710000D02*
X13365000Y-7740000D01*
X13365000Y-7710000D02*
X13335000Y-7740000D01*
X13360000Y-7485000D02*
X13390000Y-7515000D01*
X13390000Y-7485000D02*
X13360000Y-7515000D01*
X13360000Y-7935000D02*
X13390000Y-7965000D01*
X13390000Y-7935000D02*
X13360000Y-7965000D01*
X13385000Y-7260000D02*
X13415000Y-7290000D01*
X13415000Y-7260000D02*
X13385000Y-7290000D01*
X13410000Y-7035000D02*
X13440000Y-7065000D01*
X13440000Y-7035000D02*
X13410000Y-7065000D01*
X13610000Y-7435000D02*
X13640000Y-7465000D01*
X13640000Y-7435000D02*
X13610000Y-7465000D01*
X13635000Y-7010000D02*
X13665000Y-7040000D01*
X13665000Y-7010000D02*
X13635000Y-7040000D01*
X13635000Y-7210000D02*
X13665000Y-7240000D01*
X13665000Y-7210000D02*
X13635000Y-7240000D01*
X13760000Y-7610000D02*
X13790000Y-7640000D01*
X13790000Y-7610000D02*
X13760000Y-7640000D01*
X13885000Y-6960000D02*
X13915000Y-6990000D01*
X13915000Y-6960000D02*
X13885000Y-6990000D01*
X13885000Y-7160000D02*
X13915000Y-7190000D01*
X13915000Y-7160000D02*
X13885000Y-7190000D01*
X13885000Y-7410000D02*
X13915000Y-7440000D01*
X13915000Y-7410000D02*
X13885000Y-7440000D01*
X14110000Y-6935000D02*
X14140000Y-6965000D01*
X14140000Y-6935000D02*
X14110000Y-6965000D01*
X14135000Y-7160000D02*
X14165000Y-7190000D01*
X14165000Y-7160000D02*
X14135000Y-7190000D01*
X14385000Y-6935000D02*
X14415000Y-6965000D01*
X14415000Y-6935000D02*
X14385000Y-6965000D01*
X15135000Y-15435000D02*
X15165000Y-15465000D01*
X15165000Y-15435000D02*
X15135000Y-15465000D01*
X15185000Y-11260000D02*
X15215000Y-11290000D01*
X15215000Y-11260000D02*
X15185000Y-11290000D01*
X15185000Y-11485000D02*
X15215000Y-11515000D01*
X15215000Y-11485000D02*
X15185000Y-11515000D01*
X15260000Y-11535000D02*
X15290000Y-11565000D01*
X15290000Y-11535000D02*
X15260000Y-11565000D01*
X15360000Y-11535000D02*
X15390000Y-11565000D01*
X15390000Y-11535000D02*
X15360000Y-11565000D01*
X15435000Y-11260000D02*
X15465000Y-11290000D01*
X15465000Y-11260000D02*
X15435000Y-11290000D01*
X15435000Y-11485000D02*
X15465000Y-11515000D01*
X15465000Y-11485000D02*
X15435000Y-11515000D01*
X15810000Y-8935000D02*
X15840000Y-8965000D01*
X15840000Y-8935000D02*
X15810000Y-8965000D01*
X15810000Y-9160000D02*
X15840000Y-9190000D01*
X15840000Y-9160000D02*
X15810000Y-9190000D01*
X15885000Y-9210000D02*
X15915000Y-9240000D01*
X15915000Y-9210000D02*
X15885000Y-9240000D01*
X15985000Y-9210000D02*
X16015000Y-9240000D01*
X16015000Y-9210000D02*
X15985000Y-9240000D01*
X16060000Y-8935000D02*
X16090000Y-8965000D01*
X16090000Y-8935000D02*
X16060000Y-8965000D01*
X16060000Y-9160000D02*
X16090000Y-9190000D01*
X16090000Y-9160000D02*
X16060000Y-9190000D01*
D13*
X8232500Y-6600000D02*
G75*
G03*
X8232500Y-6600000I-30000J0D01*
G01*
X8232500Y-14950000D02*
G75*
G03*
X8232500Y-14950000I-30000J0D01*
G01*
X8326958Y-6371958D02*
G75*
G03*
X8326958Y-6371958I-30000J0D01*
G01*
X8326958Y-6828042D02*
G75*
G03*
X8326958Y-6828042I-30000J0D01*
G01*
X8326958Y-14721958D02*
G75*
G03*
X8326958Y-14721958I-30000J0D01*
G01*
X8326958Y-15178042D02*
G75*
G03*
X8326958Y-15178042I-30000J0D01*
G01*
X8555000Y-6277500D02*
G75*
G03*
X8555000Y-6277500I-30000J0D01*
G01*
X8555000Y-6922500D02*
G75*
G03*
X8555000Y-6922500I-30000J0D01*
G01*
X8555000Y-14627500D02*
G75*
G03*
X8555000Y-14627500I-30000J0D01*
G01*
X8555000Y-15272500D02*
G75*
G03*
X8555000Y-15272500I-30000J0D01*
G01*
X8783042Y-6371958D02*
G75*
G03*
X8783042Y-6371958I-30000J0D01*
G01*
X8783042Y-6828042D02*
G75*
G03*
X8783042Y-6828042I-30000J0D01*
G01*
X8783042Y-14721958D02*
G75*
G03*
X8783042Y-14721958I-30000J0D01*
G01*
X8783042Y-15178042D02*
G75*
G03*
X8783042Y-15178042I-30000J0D01*
G01*
X8877500Y-6600000D02*
G75*
G03*
X8877500Y-6600000I-30000J0D01*
G01*
X8877500Y-14950000D02*
G75*
G03*
X8877500Y-14950000I-30000J0D01*
G01*
X16532500Y-6625000D02*
G75*
G03*
X16532500Y-6625000I-30000J0D01*
G01*
X16582500Y-14975000D02*
G75*
G03*
X16582500Y-14975000I-30000J0D01*
G01*
X16626958Y-6396958D02*
G75*
G03*
X16626958Y-6396958I-30000J0D01*
G01*
X16626958Y-6853042D02*
G75*
G03*
X16626958Y-6853042I-30000J0D01*
G01*
X16676958Y-14746958D02*
G75*
G03*
X16676958Y-14746958I-30000J0D01*
G01*
X16676958Y-15203042D02*
G75*
G03*
X16676958Y-15203042I-30000J0D01*
G01*
X16855000Y-6302500D02*
G75*
G03*
X16855000Y-6302500I-30000J0D01*
G01*
X16855000Y-6947500D02*
G75*
G03*
X16855000Y-6947500I-30000J0D01*
G01*
X16905000Y-14652500D02*
G75*
G03*
X16905000Y-14652500I-30000J0D01*
G01*
X16905000Y-15297500D02*
G75*
G03*
X16905000Y-15297500I-30000J0D01*
G01*
X17083042Y-6396958D02*
G75*
G03*
X17083042Y-6396958I-30000J0D01*
G01*
X17083042Y-6853042D02*
G75*
G03*
X17083042Y-6853042I-30000J0D01*
G01*
X17133042Y-14746958D02*
G75*
G03*
X17133042Y-14746958I-30000J0D01*
G01*
X17133042Y-15203042D02*
G75*
G03*
X17133042Y-15203042I-30000J0D01*
G01*
X17177500Y-6625000D02*
G75*
G03*
X17177500Y-6625000I-30000J0D01*
G01*
X17227500Y-14975000D02*
G75*
G03*
X17227500Y-14975000I-30000J0D01*
G01*
D14*
X15163000Y-14240000D02*
X15163000Y-14310000D01*
X15128000Y-14275000D02*
X15198000Y-14275000D01*
X15925000Y-14240000D02*
X15925000Y-14310000D01*
X15890000Y-14275000D02*
X15960000Y-14275000D01*
D15*
X15806820Y-14880320D02*
X15806820Y-14816680D01*
X15743180Y-14816680D01*
X15743180Y-14880320D01*
X15806820Y-14880320D01*
X15806820Y-15134320D02*
X15806820Y-15070680D01*
X15743180Y-15070680D01*
X15743180Y-15134320D01*
X15806820Y-15134320D01*
D10*
X9125000Y-9421000D02*
X9175000Y-9371000D01*
X9125000Y-9321000D01*
X9075000Y-9371000D01*
X9125000Y-9421000D01*
X9125000Y-9675000D02*
X9175000Y-9625000D01*
X9125000Y-9575000D01*
X9075000Y-9625000D01*
X9125000Y-9675000D01*
X9125000Y-9929000D02*
X9175000Y-9879000D01*
X9125000Y-9829000D01*
X9075000Y-9879000D01*
X9125000Y-9929000D01*
X9125000Y-10183000D02*
X9175000Y-10133000D01*
X9125000Y-10083000D01*
X9075000Y-10133000D01*
X9125000Y-10183000D01*
X9125000Y-10437000D02*
X9175000Y-10387000D01*
X9125000Y-10337000D01*
X9075000Y-10387000D01*
X9125000Y-10437000D01*
X9125000Y-10691000D02*
X9175000Y-10641000D01*
X9125000Y-10591000D01*
X9075000Y-10641000D01*
X9125000Y-10691000D01*
X9125000Y-10945000D02*
X9175000Y-10895000D01*
X9125000Y-10845000D01*
X9075000Y-10895000D01*
X9125000Y-10945000D01*
X9125000Y-11199000D02*
X9175000Y-11149000D01*
X9125000Y-11099000D01*
X9075000Y-11149000D01*
X9125000Y-11199000D01*
X9422500Y-14346000D02*
X9472500Y-14296000D01*
X9422500Y-14246000D01*
X9372500Y-14296000D01*
X9422500Y-14346000D01*
X9422500Y-14600000D02*
X9472500Y-14550000D01*
X9422500Y-14500000D01*
X9372500Y-14550000D01*
X9422500Y-14600000D01*
X10517500Y-6722500D02*
X10567500Y-6672500D01*
X10517500Y-6622500D01*
X10467500Y-6672500D01*
X10517500Y-6722500D01*
X10572500Y-8768000D02*
X10622500Y-8718000D01*
X10572500Y-8668000D01*
X10522500Y-8718000D01*
X10572500Y-8768000D01*
X10572500Y-9022000D02*
X10622500Y-8972000D01*
X10572500Y-8922000D01*
X10522500Y-8972000D01*
X10572500Y-9022000D01*
X10572500Y-9276000D02*
X10622500Y-9226000D01*
X10572500Y-9176000D01*
X10522500Y-9226000D01*
X10572500Y-9276000D01*
X10572500Y-9530000D02*
X10622500Y-9480000D01*
X10572500Y-9430000D01*
X10522500Y-9480000D01*
X10572500Y-9530000D01*
X10572500Y-11150000D02*
X10622500Y-11100000D01*
X10572500Y-11050000D01*
X10522500Y-11100000D01*
X10572500Y-11150000D01*
X10572500Y-11404000D02*
X10622500Y-11354000D01*
X10572500Y-11304000D01*
X10522500Y-11354000D01*
X10572500Y-11404000D01*
X10572500Y-11658000D02*
X10622500Y-11608000D01*
X10572500Y-11558000D01*
X10522500Y-11608000D01*
X10572500Y-11658000D01*
X10572500Y-11912000D02*
X10622500Y-11862000D01*
X10572500Y-11812000D01*
X10522500Y-11862000D01*
X10572500Y-11912000D01*
X10771500Y-6722500D02*
X10821500Y-6672500D01*
X10771500Y-6622500D01*
X10721500Y-6672500D01*
X10771500Y-6722500D01*
X11025500Y-6722500D02*
X11075500Y-6672500D01*
X11025500Y-6622500D01*
X10975500Y-6672500D01*
X11025500Y-6722500D01*
X11279500Y-6722500D02*
X11329500Y-6672500D01*
X11279500Y-6622500D01*
X11229500Y-6672500D01*
X11279500Y-6722500D01*
X11533500Y-6722500D02*
X11583500Y-6672500D01*
X11533500Y-6622500D01*
X11483500Y-6672500D01*
X11533500Y-6722500D01*
X11787500Y-6722500D02*
X11837500Y-6672500D01*
X11787500Y-6622500D01*
X11737500Y-6672500D01*
X11787500Y-6722500D01*
X12041500Y-6722500D02*
X12091500Y-6672500D01*
X12041500Y-6622500D01*
X11991500Y-6672500D01*
X12041500Y-6722500D01*
X12295500Y-6722500D02*
X12345500Y-6672500D01*
X12295500Y-6622500D01*
X12245500Y-6672500D01*
X12295500Y-6722500D01*
X12549500Y-6722500D02*
X12599500Y-6672500D01*
X12549500Y-6622500D01*
X12499500Y-6672500D01*
X12549500Y-6722500D01*
X12803500Y-6722500D02*
X12853500Y-6672500D01*
X12803500Y-6622500D01*
X12753500Y-6672500D01*
X12803500Y-6722500D01*
X13057500Y-6722500D02*
X13107500Y-6672500D01*
X13057500Y-6622500D01*
X13007500Y-6672500D01*
X13057500Y-6722500D01*
X13311500Y-6722500D02*
X13361500Y-6672500D01*
X13311500Y-6622500D01*
X13261500Y-6672500D01*
X13311500Y-6722500D01*
X13565500Y-6722500D02*
X13615500Y-6672500D01*
X13565500Y-6622500D01*
X13515500Y-6672500D01*
X13565500Y-6722500D01*
X13819500Y-6722500D02*
X13869500Y-6672500D01*
X13819500Y-6622500D01*
X13769500Y-6672500D01*
X13819500Y-6722500D01*
X14073500Y-6722500D02*
X14123500Y-6672500D01*
X14073500Y-6622500D01*
X14023500Y-6672500D01*
X14073500Y-6722500D01*
X14275000Y-14313232D02*
X14325000Y-14263232D01*
X14275000Y-14213232D01*
X14225000Y-14263232D01*
X14275000Y-14313232D01*
X14275000Y-14813232D02*
X14325000Y-14763232D01*
X14275000Y-14713232D01*
X14225000Y-14763232D01*
X14275000Y-14813232D01*
X14327500Y-6722500D02*
X14377500Y-6672500D01*
X14327500Y-6622500D01*
X14277500Y-6672500D01*
X14327500Y-6722500D01*
X14525000Y-7875250D02*
X14575000Y-7825250D01*
X14525000Y-7775250D01*
X14475000Y-7825250D01*
X14525000Y-7875250D01*
X14581500Y-6722500D02*
X14631500Y-6672500D01*
X14581500Y-6622500D01*
X14531500Y-6672500D01*
X14581500Y-6722500D01*
X14777500Y-8745000D02*
X14827500Y-8695000D01*
X14777500Y-8645000D01*
X14727500Y-8695000D01*
X14777500Y-8745000D01*
X14777500Y-8999000D02*
X14827500Y-8949000D01*
X14777500Y-8899000D01*
X14727500Y-8949000D01*
X14777500Y-8999000D01*
X14777500Y-9253000D02*
X14827500Y-9203000D01*
X14777500Y-9153000D01*
X14727500Y-9203000D01*
X14777500Y-9253000D01*
X14777500Y-9507000D02*
X14827500Y-9457000D01*
X14777500Y-9407000D01*
X14727500Y-9457000D01*
X14777500Y-9507000D01*
X14777500Y-11125000D02*
X14827500Y-11075000D01*
X14777500Y-11025000D01*
X14727500Y-11075000D01*
X14777500Y-11125000D01*
X14777500Y-11379000D02*
X14827500Y-11329000D01*
X14777500Y-11279000D01*
X14727500Y-11329000D01*
X14777500Y-11379000D01*
X14777500Y-11633000D02*
X14827500Y-11583000D01*
X14777500Y-11533000D01*
X14727500Y-11583000D01*
X14777500Y-11633000D01*
X14777500Y-11887000D02*
X14827500Y-11837000D01*
X14777500Y-11787000D01*
X14727500Y-11837000D01*
X14777500Y-11887000D01*
X14779000Y-7875250D02*
X14829000Y-7825250D01*
X14779000Y-7775250D01*
X14729000Y-7825250D01*
X14779000Y-7875250D01*
X14835500Y-6722500D02*
X14885500Y-6672500D01*
X14835500Y-6622500D01*
X14785500Y-6672500D01*
X14835500Y-6722500D01*
X15525000Y-7872500D02*
X15575000Y-7822500D01*
X15525000Y-7772500D01*
X15475000Y-7822500D01*
X15525000Y-7872500D01*
X15779000Y-7872500D02*
X15829000Y-7822500D01*
X15779000Y-7772500D01*
X15729000Y-7822500D01*
X15779000Y-7872500D01*
X16222500Y-10087500D02*
X16272500Y-10037500D01*
X16222500Y-9987500D01*
X16172500Y-10037500D01*
X16222500Y-10087500D01*
X16222500Y-10341500D02*
X16272500Y-10291500D01*
X16222500Y-10241500D01*
X16172500Y-10291500D01*
X16222500Y-10341500D01*
X16222500Y-10595500D02*
X16272500Y-10545500D01*
X16222500Y-10495500D01*
X16172500Y-10545500D01*
X16222500Y-10595500D01*
X16222500Y-10849500D02*
X16272500Y-10799500D01*
X16222500Y-10749500D01*
X16172500Y-10799500D01*
X16222500Y-10849500D01*
X16222500Y-11103500D02*
X16272500Y-11053500D01*
X16222500Y-11003500D01*
X16172500Y-11053500D01*
X16222500Y-11103500D01*
X16222500Y-11357500D02*
X16272500Y-11307500D01*
X16222500Y-11257500D01*
X16172500Y-11307500D01*
X16222500Y-11357500D01*
D16*
X11735000Y-7813750D02*
X11837000Y-7915750D01*
X11837000Y-7813750D02*
X11735000Y-7915750D01*
X11837000Y-7864750D02*
G75*
G03*
X11837000Y-7864750I-51000J0D01*
G01*
X11735000Y-8067750D02*
X11837000Y-8169750D01*
X11837000Y-8067750D02*
X11735000Y-8169750D01*
X11837000Y-8118750D02*
G75*
G03*
X11837000Y-8118750I-51000J0D01*
G01*
X11735000Y-8321750D02*
X11837000Y-8423750D01*
X11837000Y-8321750D02*
X11735000Y-8423750D01*
X11837000Y-8372750D02*
G75*
G03*
X11837000Y-8372750I-51000J0D01*
G01*
X11735000Y-8575750D02*
X11837000Y-8677750D01*
X11837000Y-8575750D02*
X11735000Y-8677750D01*
X11837000Y-8626750D02*
G75*
G03*
X11837000Y-8626750I-51000J0D01*
G01*
X11735000Y-8829750D02*
X11837000Y-8931750D01*
X11837000Y-8829750D02*
X11735000Y-8931750D01*
X11837000Y-8880750D02*
G75*
G03*
X11837000Y-8880750I-51000J0D01*
G01*
X11735000Y-9083750D02*
X11837000Y-9185750D01*
X11837000Y-9083750D02*
X11735000Y-9185750D01*
X11837000Y-9134750D02*
G75*
G03*
X11837000Y-9134750I-51000J0D01*
G01*
X11735000Y-9337750D02*
X11837000Y-9439750D01*
X11837000Y-9337750D02*
X11735000Y-9439750D01*
X11837000Y-9388750D02*
G75*
G03*
X11837000Y-9388750I-51000J0D01*
G01*
X11735000Y-9591750D02*
X11837000Y-9693750D01*
X11837000Y-9591750D02*
X11735000Y-9693750D01*
X11837000Y-9642750D02*
G75*
G03*
X11837000Y-9642750I-51000J0D01*
G01*
X11735000Y-9845750D02*
X11837000Y-9947750D01*
X11837000Y-9845750D02*
X11735000Y-9947750D01*
X11837000Y-9896750D02*
G75*
G03*
X11837000Y-9896750I-51000J0D01*
G01*
X11735000Y-10099750D02*
X11837000Y-10201750D01*
X11837000Y-10099750D02*
X11735000Y-10201750D01*
X11837000Y-10150750D02*
G75*
G03*
X11837000Y-10150750I-51000J0D01*
G01*
X11735000Y-10353750D02*
X11837000Y-10455750D01*
X11837000Y-10353750D02*
X11735000Y-10455750D01*
X11837000Y-10404750D02*
G75*
G03*
X11837000Y-10404750I-51000J0D01*
G01*
X11735000Y-10607750D02*
X11837000Y-10709750D01*
X11837000Y-10607750D02*
X11735000Y-10709750D01*
X11837000Y-10658750D02*
G75*
G03*
X11837000Y-10658750I-51000J0D01*
G01*
X11735000Y-10861750D02*
X11837000Y-10963750D01*
X11837000Y-10861750D02*
X11735000Y-10963750D01*
X11837000Y-10912750D02*
G75*
G03*
X11837000Y-10912750I-51000J0D01*
G01*
X11735000Y-11115750D02*
X11837000Y-11217750D01*
X11837000Y-11115750D02*
X11735000Y-11217750D01*
X11837000Y-11166750D02*
G75*
G03*
X11837000Y-11166750I-51000J0D01*
G01*
X11735000Y-11369750D02*
X11837000Y-11471750D01*
X11837000Y-11369750D02*
X11735000Y-11471750D01*
X11837000Y-11420750D02*
G75*
G03*
X11837000Y-11420750I-51000J0D01*
G01*
X11735000Y-11623750D02*
X11837000Y-11725750D01*
X11837000Y-11623750D02*
X11735000Y-11725750D01*
X11837000Y-11674750D02*
G75*
G03*
X11837000Y-11674750I-51000J0D01*
G01*
X11735000Y-11877750D02*
X11837000Y-11979750D01*
X11837000Y-11877750D02*
X11735000Y-11979750D01*
X11837000Y-11928750D02*
G75*
G03*
X11837000Y-11928750I-51000J0D01*
G01*
X11735000Y-12131750D02*
X11837000Y-12233750D01*
X11837000Y-12131750D02*
X11735000Y-12233750D01*
X11837000Y-12182750D02*
G75*
G03*
X11837000Y-12182750I-51000J0D01*
G01*
X11735000Y-12385750D02*
X11837000Y-12487750D01*
X11837000Y-12385750D02*
X11735000Y-12487750D01*
X11837000Y-12436750D02*
G75*
G03*
X11837000Y-12436750I-51000J0D01*
G01*
X11735000Y-12639750D02*
X11837000Y-12741750D01*
X11837000Y-12639750D02*
X11735000Y-12741750D01*
X11837000Y-12690750D02*
G75*
G03*
X11837000Y-12690750I-51000J0D01*
G01*
X13513000Y-7813750D02*
X13615000Y-7915750D01*
X13615000Y-7813750D02*
X13513000Y-7915750D01*
X13615000Y-7864750D02*
G75*
G03*
X13615000Y-7864750I-51000J0D01*
G01*
X13513000Y-8067750D02*
X13615000Y-8169750D01*
X13615000Y-8067750D02*
X13513000Y-8169750D01*
X13615000Y-8118750D02*
G75*
G03*
X13615000Y-8118750I-51000J0D01*
G01*
X13513000Y-8321750D02*
X13615000Y-8423750D01*
X13615000Y-8321750D02*
X13513000Y-8423750D01*
X13615000Y-8372750D02*
G75*
G03*
X13615000Y-8372750I-51000J0D01*
G01*
X13513000Y-8575750D02*
X13615000Y-8677750D01*
X13615000Y-8575750D02*
X13513000Y-8677750D01*
X13615000Y-8626750D02*
G75*
G03*
X13615000Y-8626750I-51000J0D01*
G01*
X13513000Y-8829750D02*
X13615000Y-8931750D01*
X13615000Y-8829750D02*
X13513000Y-8931750D01*
X13615000Y-8880750D02*
G75*
G03*
X13615000Y-8880750I-51000J0D01*
G01*
X13513000Y-9083750D02*
X13615000Y-9185750D01*
X13615000Y-9083750D02*
X13513000Y-9185750D01*
X13615000Y-9134750D02*
G75*
G03*
X13615000Y-9134750I-51000J0D01*
G01*
X13513000Y-9337750D02*
X13615000Y-9439750D01*
X13615000Y-9337750D02*
X13513000Y-9439750D01*
X13615000Y-9388750D02*
G75*
G03*
X13615000Y-9388750I-51000J0D01*
G01*
X13513000Y-9591750D02*
X13615000Y-9693750D01*
X13615000Y-9591750D02*
X13513000Y-9693750D01*
X13615000Y-9642750D02*
G75*
G03*
X13615000Y-9642750I-51000J0D01*
G01*
X13513000Y-9845750D02*
X13615000Y-9947750D01*
X13615000Y-9845750D02*
X13513000Y-9947750D01*
X13615000Y-9896750D02*
G75*
G03*
X13615000Y-9896750I-51000J0D01*
G01*
X13513000Y-10099750D02*
X13615000Y-10201750D01*
X13615000Y-10099750D02*
X13513000Y-10201750D01*
X13615000Y-10150750D02*
G75*
G03*
X13615000Y-10150750I-51000J0D01*
G01*
X13513000Y-10353750D02*
X13615000Y-10455750D01*
X13615000Y-10353750D02*
X13513000Y-10455750D01*
X13615000Y-10404750D02*
G75*
G03*
X13615000Y-10404750I-51000J0D01*
G01*
X13513000Y-10607750D02*
X13615000Y-10709750D01*
X13615000Y-10607750D02*
X13513000Y-10709750D01*
X13615000Y-10658750D02*
G75*
G03*
X13615000Y-10658750I-51000J0D01*
G01*
X13513000Y-10861750D02*
X13615000Y-10963750D01*
X13615000Y-10861750D02*
X13513000Y-10963750D01*
X13615000Y-10912750D02*
G75*
G03*
X13615000Y-10912750I-51000J0D01*
G01*
X13513000Y-11115750D02*
X13615000Y-11217750D01*
X13615000Y-11115750D02*
X13513000Y-11217750D01*
X13615000Y-11166750D02*
G75*
G03*
X13615000Y-11166750I-51000J0D01*
G01*
X13513000Y-11369750D02*
X13615000Y-11471750D01*
X13615000Y-11369750D02*
X13513000Y-11471750D01*
X13615000Y-11420750D02*
G75*
G03*
X13615000Y-11420750I-51000J0D01*
G01*
X13513000Y-11623750D02*
X13615000Y-11725750D01*
X13615000Y-11623750D02*
X13513000Y-11725750D01*
X13615000Y-11674750D02*
G75*
G03*
X13615000Y-11674750I-51000J0D01*
G01*
X13513000Y-11877750D02*
X13615000Y-11979750D01*
X13615000Y-11877750D02*
X13513000Y-11979750D01*
X13615000Y-11928750D02*
G75*
G03*
X13615000Y-11928750I-51000J0D01*
G01*
X13513000Y-12131750D02*
X13615000Y-12233750D01*
X13615000Y-12131750D02*
X13513000Y-12233750D01*
X13615000Y-12182750D02*
G75*
G03*
X13615000Y-12182750I-51000J0D01*
G01*
X13513000Y-12385750D02*
X13615000Y-12487750D01*
X13615000Y-12385750D02*
X13513000Y-12487750D01*
X13615000Y-12436750D02*
G75*
G03*
X13615000Y-12436750I-51000J0D01*
G01*
X13513000Y-12639750D02*
X13615000Y-12741750D01*
X13615000Y-12639750D02*
X13513000Y-12741750D01*
X13615000Y-12690750D02*
G75*
G03*
X13615000Y-12690750I-51000J0D01*
G01*
D17*
X12391000Y-12467250D02*
X12501000Y-12577250D01*
X12501000Y-12467250D02*
X12391000Y-12577250D01*
X12446000Y-12467250D02*
X12446000Y-12577250D01*
X12391000Y-12522250D02*
X12501000Y-12522250D01*
X12645000Y-12467250D02*
X12755000Y-12577250D01*
X12755000Y-12467250D02*
X12645000Y-12577250D01*
X12700000Y-12467250D02*
X12700000Y-12577250D01*
X12645000Y-12522250D02*
X12755000Y-12522250D01*
X12899000Y-12467250D02*
X13009000Y-12577250D01*
X13009000Y-12467250D02*
X12899000Y-12577250D01*
X12954000Y-12467250D02*
X12954000Y-12577250D01*
X12899000Y-12522250D02*
X13009000Y-12522250D01*
X13100500Y-14214535D02*
X13210500Y-14324535D01*
X13210500Y-14214535D02*
X13100500Y-14324535D01*
X13155500Y-14214535D02*
X13155500Y-14324535D01*
X13100500Y-14269535D02*
X13210500Y-14269535D01*
X13100500Y-14722535D02*
X13210500Y-14832535D01*
X13210500Y-14722535D02*
X13100500Y-14832535D01*
X13155500Y-14722535D02*
X13155500Y-14832535D01*
X13100500Y-14777535D02*
X13210500Y-14777535D01*
D18*
X11785700Y-14190800D02*
X12014300Y-14419400D01*
X12014300Y-14190800D02*
X11785700Y-14419400D01*
X11980823Y-14385923D02*
X11980823Y-14224277D01*
X11819177Y-14224277D01*
X11819177Y-14385923D01*
X11980823Y-14385923D01*
X11785700Y-14660700D02*
X12014300Y-14889300D01*
X12014300Y-14660700D02*
X11785700Y-14889300D01*
X11980823Y-14855823D02*
X11980823Y-14694177D01*
X11819177Y-14694177D01*
X11819177Y-14855823D01*
X11980823Y-14855823D01*
X11785700Y-15130600D02*
X12014300Y-15359200D01*
X12014300Y-15130600D02*
X11785700Y-15359200D01*
X11980823Y-15325723D02*
X11980823Y-15164077D01*
X11819177Y-15164077D01*
X11819177Y-15325723D01*
X11980823Y-15325723D01*
D19*
X8310000Y-6385000D02*
X8740000Y-6815000D01*
X8740000Y-6385000D02*
X8310000Y-6815000D01*
X8525000Y-6815000D02*
X8740000Y-6600000D01*
X8525000Y-6385000D01*
X8310000Y-6600000D01*
X8525000Y-6815000D01*
X8310000Y-14735000D02*
X8740000Y-15165000D01*
X8740000Y-14735000D02*
X8310000Y-15165000D01*
X8525000Y-15165000D02*
X8740000Y-14950000D01*
X8525000Y-14735000D01*
X8310000Y-14950000D01*
X8525000Y-15165000D01*
X16610000Y-6410000D02*
X17040000Y-6840000D01*
X17040000Y-6410000D02*
X16610000Y-6840000D01*
X16825000Y-6840000D02*
X17040000Y-6625000D01*
X16825000Y-6410000D01*
X16610000Y-6625000D01*
X16825000Y-6840000D01*
X16660000Y-14760000D02*
X17090000Y-15190000D01*
X17090000Y-14760000D02*
X16660000Y-15190000D01*
X16875000Y-15190000D02*
X17090000Y-14975000D01*
X16875000Y-14760000D01*
X16660000Y-14975000D01*
X16875000Y-15190000D01*
D20*
X10150000Y-14065000D02*
X10150000Y-14515000D01*
X9925000Y-14290000D02*
X10375000Y-14290000D01*
X10375000Y-14290000D02*
G75*
G03*
X10375000Y-14290000I-225000J0D01*
G01*
X10150000Y-14785000D02*
X10150000Y-15235000D01*
X9925000Y-15010000D02*
X10375000Y-15010000D01*
X10375000Y-15010000D02*
G75*
G03*
X10375000Y-15010000I-225000J0D01*
G01*
D21*
X9726778Y-13351778D02*
X9726778Y-12998222D01*
X9373222Y-12998222D01*
X9373222Y-13351778D01*
X9726778Y-13351778D01*
X9800000Y-13175000D02*
G75*
G03*
X9800000Y-13175000I-250000J0D01*
G01*
X9826778Y-6901778D02*
X9826778Y-6548222D01*
X9473222Y-6548222D01*
X9473222Y-6901778D01*
X9826778Y-6901778D01*
X9900000Y-6725000D02*
G75*
G03*
X9900000Y-6725000I-250000J0D01*
G01*
X10501778Y-10476778D02*
X10501778Y-10123222D01*
X10148222Y-10123222D01*
X10148222Y-10476778D01*
X10501778Y-10476778D01*
X10575000Y-10300000D02*
G75*
G03*
X10575000Y-10300000I-250000J0D01*
G01*
X12101778Y-13579528D02*
X12101778Y-13225972D01*
X11748222Y-13225972D01*
X11748222Y-13579528D01*
X12101778Y-13579528D01*
X12175000Y-13402750D02*
G75*
G03*
X12175000Y-13402750I-250000J0D01*
G01*
X13551778Y-13579528D02*
X13551778Y-13225972D01*
X13198222Y-13225972D01*
X13198222Y-13579528D01*
X13551778Y-13579528D01*
X13625000Y-13402750D02*
G75*
G03*
X13625000Y-13402750I-250000J0D01*
G01*
X15201778Y-10451778D02*
X15201778Y-10098222D01*
X14848222Y-10098222D01*
X14848222Y-10451778D01*
X15201778Y-10451778D01*
X15275000Y-10275000D02*
G75*
G03*
X15275000Y-10275000I-250000J0D01*
G01*
X16001778Y-6901778D02*
X16001778Y-6548222D01*
X15648222Y-6548222D01*
X15648222Y-6901778D01*
X16001778Y-6901778D01*
X16075000Y-6725000D02*
G75*
G03*
X16075000Y-6725000I-250000J0D01*
G01*
X16051778Y-13351778D02*
X16051778Y-12998222D01*
X15698222Y-12998222D01*
X15698222Y-13351778D01*
X16051778Y-13351778D01*
X16125000Y-13175000D02*
G75*
G03*
X16125000Y-13175000I-250000J0D01*
G01*
D11*
X8102371Y-15965724D02*
X8102371Y-15765724D01*
X8149990Y-15765724D01*
X8178561Y-15775248D01*
X8197609Y-15794296D01*
X8207133Y-15813343D01*
X8216656Y-15851439D01*
X8216656Y-15880010D01*
X8207133Y-15918105D01*
X8197609Y-15937153D01*
X8178561Y-15956200D01*
X8149990Y-15965724D01*
X8102371Y-15965724D01*
X8302371Y-15965724D02*
X8302371Y-15832391D01*
X8302371Y-15870486D02*
X8311895Y-15851439D01*
X8321418Y-15841915D01*
X8340466Y-15832391D01*
X8359514Y-15832391D01*
X8426180Y-15965724D02*
X8426180Y-15832391D01*
X8426180Y-15765724D02*
X8416657Y-15775248D01*
X8426180Y-15784772D01*
X8435704Y-15775248D01*
X8426180Y-15765724D01*
X8426180Y-15784772D01*
X8549990Y-15965724D02*
X8530942Y-15956200D01*
X8521418Y-15937153D01*
X8521418Y-15765724D01*
X8654752Y-15965724D02*
X8635704Y-15956200D01*
X8626180Y-15937153D01*
X8626180Y-15765724D01*
X8883323Y-15965724D02*
X8883323Y-15765724D01*
X8949990Y-15908581D01*
X9016657Y-15765724D01*
X9016657Y-15965724D01*
X9197609Y-15965724D02*
X9197609Y-15860962D01*
X9188085Y-15841915D01*
X9169038Y-15832391D01*
X9130942Y-15832391D01*
X9111895Y-15841915D01*
X9197609Y-15956200D02*
X9178561Y-15965724D01*
X9130942Y-15965724D01*
X9111895Y-15956200D01*
X9102371Y-15937153D01*
X9102371Y-15918105D01*
X9111895Y-15899058D01*
X9130942Y-15889534D01*
X9178561Y-15889534D01*
X9197609Y-15880010D01*
X9292847Y-15832391D02*
X9292847Y-16032391D01*
X9292847Y-15841915D02*
X9311895Y-15832391D01*
X9349990Y-15832391D01*
X9369038Y-15841915D01*
X9378561Y-15851439D01*
X9388085Y-15870486D01*
X9388085Y-15927629D01*
X9378561Y-15946677D01*
X9369038Y-15956200D01*
X9349990Y-15965724D01*
X9311895Y-15965724D01*
X9292847Y-15956200D01*
X9473799Y-15946677D02*
X9483323Y-15956200D01*
X9473799Y-15965724D01*
X9464276Y-15956200D01*
X9473799Y-15946677D01*
X9473799Y-15965724D01*
X9473799Y-15841915D02*
X9483323Y-15851439D01*
X9473799Y-15860962D01*
X9464276Y-15851439D01*
X9473799Y-15841915D01*
X9473799Y-15860962D01*
D12*
X7814752Y-16280248D02*
X7844752Y-16310248D01*
X7844752Y-16280248D02*
X7814752Y-16310248D01*
D11*
X8140466Y-16185724D02*
X8159514Y-16185724D01*
X8178561Y-16195248D01*
X8188085Y-16204772D01*
X8197609Y-16223820D01*
X8207133Y-16261915D01*
X8207133Y-16309534D01*
X8197609Y-16347629D01*
X8188085Y-16366677D01*
X8178561Y-16376200D01*
X8159514Y-16385724D01*
X8140466Y-16385724D01*
X8121418Y-16376200D01*
X8111895Y-16366677D01*
X8102371Y-16347629D01*
X8092847Y-16309534D01*
X8092847Y-16261915D01*
X8102371Y-16223820D01*
X8111895Y-16204772D01*
X8121418Y-16195248D01*
X8140466Y-16185724D01*
X8292847Y-16366677D02*
X8302371Y-16376200D01*
X8292847Y-16385724D01*
X8283323Y-16376200D01*
X8292847Y-16366677D01*
X8292847Y-16385724D01*
X8369037Y-16185724D02*
X8492847Y-16185724D01*
X8426180Y-16261915D01*
X8454752Y-16261915D01*
X8473799Y-16271439D01*
X8483323Y-16280962D01*
X8492847Y-16300010D01*
X8492847Y-16347629D01*
X8483323Y-16366677D01*
X8473799Y-16376200D01*
X8454752Y-16385724D01*
X8397609Y-16385724D01*
X8378561Y-16376200D01*
X8369037Y-16366677D01*
X8616657Y-16185724D02*
X8635704Y-16185724D01*
X8654752Y-16195248D01*
X8664276Y-16204772D01*
X8673799Y-16223820D01*
X8683323Y-16261915D01*
X8683323Y-16309534D01*
X8673799Y-16347629D01*
X8664276Y-16366677D01*
X8654752Y-16376200D01*
X8635704Y-16385724D01*
X8616657Y-16385724D01*
X8597609Y-16376200D01*
X8588085Y-16366677D01*
X8578561Y-16347629D01*
X8569038Y-16309534D01*
X8569038Y-16261915D01*
X8578561Y-16223820D01*
X8588085Y-16204772D01*
X8597609Y-16195248D01*
X8616657Y-16185724D01*
X8807133Y-16185724D02*
X8826180Y-16185724D01*
X8845228Y-16195248D01*
X8854752Y-16204772D01*
X8864276Y-16223820D01*
X8873799Y-16261915D01*
X8873799Y-16309534D01*
X8864276Y-16347629D01*
X8854752Y-16366677D01*
X8845228Y-16376200D01*
X8826180Y-16385724D01*
X8807133Y-16385724D01*
X8788085Y-16376200D01*
X8778561Y-16366677D01*
X8769038Y-16347629D01*
X8759514Y-16309534D01*
X8759514Y-16261915D01*
X8769038Y-16223820D01*
X8778561Y-16204772D01*
X8788085Y-16195248D01*
X8807133Y-16185724D01*
X8959514Y-16385724D02*
X8959514Y-16252391D01*
X8959514Y-16271439D02*
X8969038Y-16261915D01*
X8988085Y-16252391D01*
X9016657Y-16252391D01*
X9035704Y-16261915D01*
X9045228Y-16280962D01*
X9045228Y-16385724D01*
X9045228Y-16280962D02*
X9054752Y-16261915D01*
X9073799Y-16252391D01*
X9102371Y-16252391D01*
X9121418Y-16261915D01*
X9130942Y-16280962D01*
X9130942Y-16385724D01*
X9226180Y-16385724D02*
X9226180Y-16252391D01*
X9226180Y-16271439D02*
X9235704Y-16261915D01*
X9254752Y-16252391D01*
X9283323Y-16252391D01*
X9302371Y-16261915D01*
X9311895Y-16280962D01*
X9311895Y-16385724D01*
X9311895Y-16280962D02*
X9321418Y-16261915D01*
X9340466Y-16252391D01*
X9369038Y-16252391D01*
X9388085Y-16261915D01*
X9397609Y-16280962D01*
X9397609Y-16385724D01*
X9788085Y-16176200D02*
X9616657Y-16433343D01*
X10045228Y-16185724D02*
X10064276Y-16185724D01*
X10083323Y-16195248D01*
X10092847Y-16204772D01*
X10102371Y-16223820D01*
X10111895Y-16261915D01*
X10111895Y-16309534D01*
X10102371Y-16347629D01*
X10092847Y-16366677D01*
X10083323Y-16376200D01*
X10064276Y-16385724D01*
X10045228Y-16385724D01*
X10026180Y-16376200D01*
X10016657Y-16366677D01*
X10007133Y-16347629D01*
X9997609Y-16309534D01*
X9997609Y-16261915D01*
X10007133Y-16223820D01*
X10016657Y-16204772D01*
X10026180Y-16195248D01*
X10045228Y-16185724D01*
X10197609Y-16366677D02*
X10207133Y-16376200D01*
X10197609Y-16385724D01*
X10188085Y-16376200D01*
X10197609Y-16366677D01*
X10197609Y-16385724D01*
X10330942Y-16185724D02*
X10349990Y-16185724D01*
X10369038Y-16195248D01*
X10378561Y-16204772D01*
X10388085Y-16223820D01*
X10397609Y-16261915D01*
X10397609Y-16309534D01*
X10388085Y-16347629D01*
X10378561Y-16366677D01*
X10369038Y-16376200D01*
X10349990Y-16385724D01*
X10330942Y-16385724D01*
X10311895Y-16376200D01*
X10302371Y-16366677D01*
X10292847Y-16347629D01*
X10283323Y-16309534D01*
X10283323Y-16261915D01*
X10292847Y-16223820D01*
X10302371Y-16204772D01*
X10311895Y-16195248D01*
X10330942Y-16185724D01*
X10588085Y-16385724D02*
X10473799Y-16385724D01*
X10530942Y-16385724D02*
X10530942Y-16185724D01*
X10511895Y-16214296D01*
X10492847Y-16233343D01*
X10473799Y-16242867D01*
X10778561Y-16385724D02*
X10664276Y-16385724D01*
X10721418Y-16385724D02*
X10721418Y-16185724D01*
X10702371Y-16214296D01*
X10683323Y-16233343D01*
X10664276Y-16242867D01*
X10892847Y-16271439D02*
X10873799Y-16261915D01*
X10864276Y-16252391D01*
X10854752Y-16233343D01*
X10854752Y-16223820D01*
X10864276Y-16204772D01*
X10873799Y-16195248D01*
X10892847Y-16185724D01*
X10930942Y-16185724D01*
X10949990Y-16195248D01*
X10959514Y-16204772D01*
X10969038Y-16223820D01*
X10969038Y-16233343D01*
X10959514Y-16252391D01*
X10949990Y-16261915D01*
X10930942Y-16271439D01*
X10892847Y-16271439D01*
X10873799Y-16280962D01*
X10864276Y-16290486D01*
X10854752Y-16309534D01*
X10854752Y-16347629D01*
X10864276Y-16366677D01*
X10873799Y-16376200D01*
X10892847Y-16385724D01*
X10930942Y-16385724D01*
X10949990Y-16376200D01*
X10959514Y-16366677D01*
X10969038Y-16347629D01*
X10969038Y-16309534D01*
X10959514Y-16290486D01*
X10949990Y-16280962D01*
X10930942Y-16271439D01*
X11045228Y-16185724D02*
X11045228Y-16223820D01*
X11121418Y-16185724D02*
X11121418Y-16223820D01*
X11416656Y-16461915D02*
X11407133Y-16452391D01*
X11388085Y-16423820D01*
X11378561Y-16404772D01*
X11369037Y-16376200D01*
X11359514Y-16328581D01*
X11359514Y-16290486D01*
X11369037Y-16242867D01*
X11378561Y-16214296D01*
X11388085Y-16195248D01*
X11407133Y-16166677D01*
X11416656Y-16157153D01*
X11597609Y-16385724D02*
X11483323Y-16385724D01*
X11540466Y-16385724D02*
X11540466Y-16185724D01*
X11521418Y-16214296D01*
X11502371Y-16233343D01*
X11483323Y-16242867D01*
X11673799Y-16204772D02*
X11683323Y-16195248D01*
X11702371Y-16185724D01*
X11749990Y-16185724D01*
X11769037Y-16195248D01*
X11778561Y-16204772D01*
X11788085Y-16223820D01*
X11788085Y-16242867D01*
X11778561Y-16271439D01*
X11664276Y-16385724D01*
X11788085Y-16385724D01*
X11854752Y-16185724D02*
X11978561Y-16185724D01*
X11911895Y-16261915D01*
X11940466Y-16261915D01*
X11959514Y-16271439D01*
X11969037Y-16280962D01*
X11978561Y-16300010D01*
X11978561Y-16347629D01*
X11969037Y-16366677D01*
X11959514Y-16376200D01*
X11940466Y-16385724D01*
X11883323Y-16385724D01*
X11864276Y-16376200D01*
X11854752Y-16366677D01*
X12216656Y-16385724D02*
X12216656Y-16185724D01*
X12302371Y-16385724D02*
X12302371Y-16280962D01*
X12292847Y-16261915D01*
X12273799Y-16252391D01*
X12245228Y-16252391D01*
X12226180Y-16261915D01*
X12216656Y-16271439D01*
X12426180Y-16385724D02*
X12407133Y-16376200D01*
X12397609Y-16366677D01*
X12388085Y-16347629D01*
X12388085Y-16290486D01*
X12397609Y-16271439D01*
X12407133Y-16261915D01*
X12426180Y-16252391D01*
X12454752Y-16252391D01*
X12473799Y-16261915D01*
X12483323Y-16271439D01*
X12492847Y-16290486D01*
X12492847Y-16347629D01*
X12483323Y-16366677D01*
X12473799Y-16376200D01*
X12454752Y-16385724D01*
X12426180Y-16385724D01*
X12607133Y-16385724D02*
X12588085Y-16376200D01*
X12578561Y-16357153D01*
X12578561Y-16185724D01*
X12759514Y-16376200D02*
X12740466Y-16385724D01*
X12702371Y-16385724D01*
X12683323Y-16376200D01*
X12673799Y-16357153D01*
X12673799Y-16280962D01*
X12683323Y-16261915D01*
X12702371Y-16252391D01*
X12740466Y-16252391D01*
X12759514Y-16261915D01*
X12769037Y-16280962D01*
X12769037Y-16300010D01*
X12673799Y-16319058D01*
X12845228Y-16376200D02*
X12864276Y-16385724D01*
X12902371Y-16385724D01*
X12921418Y-16376200D01*
X12930942Y-16357153D01*
X12930942Y-16347629D01*
X12921418Y-16328581D01*
X12902371Y-16319058D01*
X12873799Y-16319058D01*
X12854752Y-16309534D01*
X12845228Y-16290486D01*
X12845228Y-16280962D01*
X12854752Y-16261915D01*
X12873799Y-16252391D01*
X12902371Y-16252391D01*
X12921418Y-16261915D01*
X12997609Y-16461915D02*
X13007133Y-16452391D01*
X13026180Y-16423820D01*
X13035704Y-16404772D01*
X13045228Y-16376200D01*
X13054752Y-16328581D01*
X13054752Y-16290486D01*
X13045228Y-16242867D01*
X13035704Y-16214296D01*
X13026180Y-16195248D01*
X13007133Y-16166677D01*
X12997609Y-16157153D01*
D13*
X7844752Y-16559248D02*
G75*
G03*
X7844752Y-16559248I-30000J0D01*
G01*
D11*
X8140466Y-16449724D02*
X8159514Y-16449724D01*
X8178561Y-16459248D01*
X8188085Y-16468772D01*
X8197609Y-16487820D01*
X8207133Y-16525915D01*
X8207133Y-16573534D01*
X8197609Y-16611629D01*
X8188085Y-16630677D01*
X8178561Y-16640200D01*
X8159514Y-16649724D01*
X8140466Y-16649724D01*
X8121418Y-16640200D01*
X8111895Y-16630677D01*
X8102371Y-16611629D01*
X8092847Y-16573534D01*
X8092847Y-16525915D01*
X8102371Y-16487820D01*
X8111895Y-16468772D01*
X8121418Y-16459248D01*
X8140466Y-16449724D01*
X8292847Y-16630677D02*
X8302371Y-16640200D01*
X8292847Y-16649724D01*
X8283323Y-16640200D01*
X8292847Y-16630677D01*
X8292847Y-16649724D01*
X8473799Y-16449724D02*
X8435704Y-16449724D01*
X8416657Y-16459248D01*
X8407133Y-16468772D01*
X8388085Y-16497343D01*
X8378561Y-16535439D01*
X8378561Y-16611629D01*
X8388085Y-16630677D01*
X8397609Y-16640200D01*
X8416657Y-16649724D01*
X8454752Y-16649724D01*
X8473799Y-16640200D01*
X8483323Y-16630677D01*
X8492847Y-16611629D01*
X8492847Y-16564010D01*
X8483323Y-16544962D01*
X8473799Y-16535439D01*
X8454752Y-16525915D01*
X8416657Y-16525915D01*
X8397609Y-16535439D01*
X8388085Y-16544962D01*
X8378561Y-16564010D01*
X8616657Y-16449724D02*
X8635704Y-16449724D01*
X8654752Y-16459248D01*
X8664276Y-16468772D01*
X8673799Y-16487820D01*
X8683323Y-16525915D01*
X8683323Y-16573534D01*
X8673799Y-16611629D01*
X8664276Y-16630677D01*
X8654752Y-16640200D01*
X8635704Y-16649724D01*
X8616657Y-16649724D01*
X8597609Y-16640200D01*
X8588085Y-16630677D01*
X8578561Y-16611629D01*
X8569038Y-16573534D01*
X8569038Y-16525915D01*
X8578561Y-16487820D01*
X8588085Y-16468772D01*
X8597609Y-16459248D01*
X8616657Y-16449724D01*
X8807133Y-16449724D02*
X8826180Y-16449724D01*
X8845228Y-16459248D01*
X8854752Y-16468772D01*
X8864276Y-16487820D01*
X8873799Y-16525915D01*
X8873799Y-16573534D01*
X8864276Y-16611629D01*
X8854752Y-16630677D01*
X8845228Y-16640200D01*
X8826180Y-16649724D01*
X8807133Y-16649724D01*
X8788085Y-16640200D01*
X8778561Y-16630677D01*
X8769038Y-16611629D01*
X8759514Y-16573534D01*
X8759514Y-16525915D01*
X8769038Y-16487820D01*
X8778561Y-16468772D01*
X8788085Y-16459248D01*
X8807133Y-16449724D01*
X8959514Y-16649724D02*
X8959514Y-16516391D01*
X8959514Y-16535439D02*
X8969038Y-16525915D01*
X8988085Y-16516391D01*
X9016657Y-16516391D01*
X9035704Y-16525915D01*
X9045228Y-16544962D01*
X9045228Y-16649724D01*
X9045228Y-16544962D02*
X9054752Y-16525915D01*
X9073799Y-16516391D01*
X9102371Y-16516391D01*
X9121418Y-16525915D01*
X9130942Y-16544962D01*
X9130942Y-16649724D01*
X9226180Y-16649724D02*
X9226180Y-16516391D01*
X9226180Y-16535439D02*
X9235704Y-16525915D01*
X9254752Y-16516391D01*
X9283323Y-16516391D01*
X9302371Y-16525915D01*
X9311895Y-16544962D01*
X9311895Y-16649724D01*
X9311895Y-16544962D02*
X9321418Y-16525915D01*
X9340466Y-16516391D01*
X9369038Y-16516391D01*
X9388085Y-16525915D01*
X9397609Y-16544962D01*
X9397609Y-16649724D01*
X9788085Y-16440200D02*
X9616657Y-16697343D01*
X10045228Y-16449724D02*
X10064276Y-16449724D01*
X10083323Y-16459248D01*
X10092847Y-16468772D01*
X10102371Y-16487820D01*
X10111895Y-16525915D01*
X10111895Y-16573534D01*
X10102371Y-16611629D01*
X10092847Y-16630677D01*
X10083323Y-16640200D01*
X10064276Y-16649724D01*
X10045228Y-16649724D01*
X10026180Y-16640200D01*
X10016657Y-16630677D01*
X10007133Y-16611629D01*
X9997609Y-16573534D01*
X9997609Y-16525915D01*
X10007133Y-16487820D01*
X10016657Y-16468772D01*
X10026180Y-16459248D01*
X10045228Y-16449724D01*
X10197609Y-16630677D02*
X10207133Y-16640200D01*
X10197609Y-16649724D01*
X10188085Y-16640200D01*
X10197609Y-16630677D01*
X10197609Y-16649724D01*
X10330942Y-16449724D02*
X10349990Y-16449724D01*
X10369038Y-16459248D01*
X10378561Y-16468772D01*
X10388085Y-16487820D01*
X10397609Y-16525915D01*
X10397609Y-16573534D01*
X10388085Y-16611629D01*
X10378561Y-16630677D01*
X10369038Y-16640200D01*
X10349990Y-16649724D01*
X10330942Y-16649724D01*
X10311895Y-16640200D01*
X10302371Y-16630677D01*
X10292847Y-16611629D01*
X10283323Y-16573534D01*
X10283323Y-16525915D01*
X10292847Y-16487820D01*
X10302371Y-16468772D01*
X10311895Y-16459248D01*
X10330942Y-16449724D01*
X10473799Y-16468772D02*
X10483323Y-16459248D01*
X10502371Y-16449724D01*
X10549990Y-16449724D01*
X10569038Y-16459248D01*
X10578561Y-16468772D01*
X10588085Y-16487820D01*
X10588085Y-16506867D01*
X10578561Y-16535439D01*
X10464276Y-16649724D01*
X10588085Y-16649724D01*
X10654752Y-16449724D02*
X10778561Y-16449724D01*
X10711895Y-16525915D01*
X10740466Y-16525915D01*
X10759514Y-16535439D01*
X10769038Y-16544962D01*
X10778561Y-16564010D01*
X10778561Y-16611629D01*
X10769038Y-16630677D01*
X10759514Y-16640200D01*
X10740466Y-16649724D01*
X10683323Y-16649724D01*
X10664276Y-16640200D01*
X10654752Y-16630677D01*
X10949990Y-16449724D02*
X10911895Y-16449724D01*
X10892847Y-16459248D01*
X10883323Y-16468772D01*
X10864276Y-16497343D01*
X10854752Y-16535439D01*
X10854752Y-16611629D01*
X10864276Y-16630677D01*
X10873799Y-16640200D01*
X10892847Y-16649724D01*
X10930942Y-16649724D01*
X10949990Y-16640200D01*
X10959514Y-16630677D01*
X10969038Y-16611629D01*
X10969038Y-16564010D01*
X10959514Y-16544962D01*
X10949990Y-16535439D01*
X10930942Y-16525915D01*
X10892847Y-16525915D01*
X10873799Y-16535439D01*
X10864276Y-16544962D01*
X10854752Y-16564010D01*
X11045228Y-16449724D02*
X11045228Y-16487820D01*
X11121418Y-16449724D02*
X11121418Y-16487820D01*
X11416656Y-16725915D02*
X11407133Y-16716391D01*
X11388085Y-16687820D01*
X11378561Y-16668772D01*
X11369037Y-16640200D01*
X11359514Y-16592581D01*
X11359514Y-16554486D01*
X11369037Y-16506867D01*
X11378561Y-16478296D01*
X11388085Y-16459248D01*
X11407133Y-16430677D01*
X11416656Y-16421153D01*
X11473799Y-16449724D02*
X11597609Y-16449724D01*
X11530942Y-16525915D01*
X11559514Y-16525915D01*
X11578561Y-16535439D01*
X11588085Y-16544962D01*
X11597609Y-16564010D01*
X11597609Y-16611629D01*
X11588085Y-16630677D01*
X11578561Y-16640200D01*
X11559514Y-16649724D01*
X11502371Y-16649724D01*
X11483323Y-16640200D01*
X11473799Y-16630677D01*
X11673799Y-16468772D02*
X11683323Y-16459248D01*
X11702371Y-16449724D01*
X11749990Y-16449724D01*
X11769037Y-16459248D01*
X11778561Y-16468772D01*
X11788085Y-16487820D01*
X11788085Y-16506867D01*
X11778561Y-16535439D01*
X11664276Y-16649724D01*
X11788085Y-16649724D01*
X12026180Y-16649724D02*
X12026180Y-16449724D01*
X12111895Y-16649724D02*
X12111895Y-16544962D01*
X12102371Y-16525915D01*
X12083323Y-16516391D01*
X12054752Y-16516391D01*
X12035704Y-16525915D01*
X12026180Y-16535439D01*
X12235704Y-16649724D02*
X12216656Y-16640200D01*
X12207133Y-16630677D01*
X12197609Y-16611629D01*
X12197609Y-16554486D01*
X12207133Y-16535439D01*
X12216656Y-16525915D01*
X12235704Y-16516391D01*
X12264276Y-16516391D01*
X12283323Y-16525915D01*
X12292847Y-16535439D01*
X12302371Y-16554486D01*
X12302371Y-16611629D01*
X12292847Y-16630677D01*
X12283323Y-16640200D01*
X12264276Y-16649724D01*
X12235704Y-16649724D01*
X12416656Y-16649724D02*
X12397609Y-16640200D01*
X12388085Y-16621153D01*
X12388085Y-16449724D01*
X12569037Y-16640200D02*
X12549990Y-16649724D01*
X12511895Y-16649724D01*
X12492847Y-16640200D01*
X12483323Y-16621153D01*
X12483323Y-16544962D01*
X12492847Y-16525915D01*
X12511895Y-16516391D01*
X12549990Y-16516391D01*
X12569037Y-16525915D01*
X12578561Y-16544962D01*
X12578561Y-16564010D01*
X12483323Y-16583058D01*
X12654752Y-16640200D02*
X12673799Y-16649724D01*
X12711895Y-16649724D01*
X12730942Y-16640200D01*
X12740466Y-16621153D01*
X12740466Y-16611629D01*
X12730942Y-16592581D01*
X12711895Y-16583058D01*
X12683323Y-16583058D01*
X12664276Y-16573534D01*
X12654752Y-16554486D01*
X12654752Y-16544962D01*
X12664276Y-16525915D01*
X12683323Y-16516391D01*
X12711895Y-16516391D01*
X12730942Y-16525915D01*
X12807133Y-16725915D02*
X12816656Y-16716391D01*
X12835704Y-16687820D01*
X12845228Y-16668772D01*
X12854752Y-16640200D01*
X12864276Y-16592581D01*
X12864276Y-16554486D01*
X12854752Y-16506867D01*
X12845228Y-16478296D01*
X12835704Y-16459248D01*
X12816656Y-16430677D01*
X12807133Y-16421153D01*
D14*
X7809752Y-16788248D02*
X7809752Y-16858248D01*
X7774752Y-16823248D02*
X7844752Y-16823248D01*
D11*
X8140466Y-16713724D02*
X8159514Y-16713724D01*
X8178561Y-16723248D01*
X8188085Y-16732772D01*
X8197609Y-16751820D01*
X8207133Y-16789915D01*
X8207133Y-16837534D01*
X8197609Y-16875629D01*
X8188085Y-16894677D01*
X8178561Y-16904201D01*
X8159514Y-16913724D01*
X8140466Y-16913724D01*
X8121418Y-16904201D01*
X8111895Y-16894677D01*
X8102371Y-16875629D01*
X8092847Y-16837534D01*
X8092847Y-16789915D01*
X8102371Y-16751820D01*
X8111895Y-16732772D01*
X8121418Y-16723248D01*
X8140466Y-16713724D01*
X8292847Y-16894677D02*
X8302371Y-16904201D01*
X8292847Y-16913724D01*
X8283323Y-16904201D01*
X8292847Y-16894677D01*
X8292847Y-16913724D01*
X8369037Y-16713724D02*
X8502371Y-16713724D01*
X8416657Y-16913724D01*
X8616657Y-16713724D02*
X8635704Y-16713724D01*
X8654752Y-16723248D01*
X8664276Y-16732772D01*
X8673799Y-16751820D01*
X8683323Y-16789915D01*
X8683323Y-16837534D01*
X8673799Y-16875629D01*
X8664276Y-16894677D01*
X8654752Y-16904201D01*
X8635704Y-16913724D01*
X8616657Y-16913724D01*
X8597609Y-16904201D01*
X8588085Y-16894677D01*
X8578561Y-16875629D01*
X8569038Y-16837534D01*
X8569038Y-16789915D01*
X8578561Y-16751820D01*
X8588085Y-16732772D01*
X8597609Y-16723248D01*
X8616657Y-16713724D01*
X8807133Y-16713724D02*
X8826180Y-16713724D01*
X8845228Y-16723248D01*
X8854752Y-16732772D01*
X8864276Y-16751820D01*
X8873799Y-16789915D01*
X8873799Y-16837534D01*
X8864276Y-16875629D01*
X8854752Y-16894677D01*
X8845228Y-16904201D01*
X8826180Y-16913724D01*
X8807133Y-16913724D01*
X8788085Y-16904201D01*
X8778561Y-16894677D01*
X8769038Y-16875629D01*
X8759514Y-16837534D01*
X8759514Y-16789915D01*
X8769038Y-16751820D01*
X8778561Y-16732772D01*
X8788085Y-16723248D01*
X8807133Y-16713724D01*
X8959514Y-16913724D02*
X8959514Y-16780391D01*
X8959514Y-16799439D02*
X8969038Y-16789915D01*
X8988085Y-16780391D01*
X9016657Y-16780391D01*
X9035704Y-16789915D01*
X9045228Y-16808962D01*
X9045228Y-16913724D01*
X9045228Y-16808962D02*
X9054752Y-16789915D01*
X9073799Y-16780391D01*
X9102371Y-16780391D01*
X9121418Y-16789915D01*
X9130942Y-16808962D01*
X9130942Y-16913724D01*
X9226180Y-16913724D02*
X9226180Y-16780391D01*
X9226180Y-16799439D02*
X9235704Y-16789915D01*
X9254752Y-16780391D01*
X9283323Y-16780391D01*
X9302371Y-16789915D01*
X9311895Y-16808962D01*
X9311895Y-16913724D01*
X9311895Y-16808962D02*
X9321418Y-16789915D01*
X9340466Y-16780391D01*
X9369038Y-16780391D01*
X9388085Y-16789915D01*
X9397609Y-16808962D01*
X9397609Y-16913724D01*
X9788085Y-16704200D02*
X9616657Y-16961343D01*
X10045228Y-16713724D02*
X10064276Y-16713724D01*
X10083323Y-16723248D01*
X10092847Y-16732772D01*
X10102371Y-16751820D01*
X10111895Y-16789915D01*
X10111895Y-16837534D01*
X10102371Y-16875629D01*
X10092847Y-16894677D01*
X10083323Y-16904201D01*
X10064276Y-16913724D01*
X10045228Y-16913724D01*
X10026180Y-16904201D01*
X10016657Y-16894677D01*
X10007133Y-16875629D01*
X9997609Y-16837534D01*
X9997609Y-16789915D01*
X10007133Y-16751820D01*
X10016657Y-16732772D01*
X10026180Y-16723248D01*
X10045228Y-16713724D01*
X10197609Y-16894677D02*
X10207133Y-16904201D01*
X10197609Y-16913724D01*
X10188085Y-16904201D01*
X10197609Y-16894677D01*
X10197609Y-16913724D01*
X10330942Y-16713724D02*
X10349990Y-16713724D01*
X10369038Y-16723248D01*
X10378561Y-16732772D01*
X10388085Y-16751820D01*
X10397609Y-16789915D01*
X10397609Y-16837534D01*
X10388085Y-16875629D01*
X10378561Y-16894677D01*
X10369038Y-16904201D01*
X10349990Y-16913724D01*
X10330942Y-16913724D01*
X10311895Y-16904201D01*
X10302371Y-16894677D01*
X10292847Y-16875629D01*
X10283323Y-16837534D01*
X10283323Y-16789915D01*
X10292847Y-16751820D01*
X10302371Y-16732772D01*
X10311895Y-16723248D01*
X10330942Y-16713724D01*
X10473799Y-16732772D02*
X10483323Y-16723248D01*
X10502371Y-16713724D01*
X10549990Y-16713724D01*
X10569038Y-16723248D01*
X10578561Y-16732772D01*
X10588085Y-16751820D01*
X10588085Y-16770867D01*
X10578561Y-16799439D01*
X10464276Y-16913724D01*
X10588085Y-16913724D01*
X10654752Y-16713724D02*
X10788085Y-16713724D01*
X10702371Y-16913724D01*
X10949990Y-16713724D02*
X10911895Y-16713724D01*
X10892847Y-16723248D01*
X10883323Y-16732772D01*
X10864276Y-16761343D01*
X10854752Y-16799439D01*
X10854752Y-16875629D01*
X10864276Y-16894677D01*
X10873799Y-16904201D01*
X10892847Y-16913724D01*
X10930942Y-16913724D01*
X10949990Y-16904201D01*
X10959514Y-16894677D01*
X10969038Y-16875629D01*
X10969038Y-16828010D01*
X10959514Y-16808962D01*
X10949990Y-16799439D01*
X10930942Y-16789915D01*
X10892847Y-16789915D01*
X10873799Y-16799439D01*
X10864276Y-16808962D01*
X10854752Y-16828010D01*
X11045228Y-16713724D02*
X11045228Y-16751820D01*
X11121418Y-16713724D02*
X11121418Y-16751820D01*
X11416656Y-16989915D02*
X11407133Y-16980391D01*
X11388085Y-16951820D01*
X11378561Y-16932772D01*
X11369037Y-16904201D01*
X11359514Y-16856582D01*
X11359514Y-16818486D01*
X11369037Y-16770867D01*
X11378561Y-16742296D01*
X11388085Y-16723248D01*
X11407133Y-16694677D01*
X11416656Y-16685153D01*
X11483323Y-16732772D02*
X11492847Y-16723248D01*
X11511895Y-16713724D01*
X11559514Y-16713724D01*
X11578561Y-16723248D01*
X11588085Y-16732772D01*
X11597609Y-16751820D01*
X11597609Y-16770867D01*
X11588085Y-16799439D01*
X11473799Y-16913724D01*
X11597609Y-16913724D01*
X11835704Y-16913724D02*
X11835704Y-16713724D01*
X11921418Y-16913724D02*
X11921418Y-16808962D01*
X11911895Y-16789915D01*
X11892847Y-16780391D01*
X11864276Y-16780391D01*
X11845228Y-16789915D01*
X11835704Y-16799439D01*
X12045228Y-16913724D02*
X12026180Y-16904201D01*
X12016656Y-16894677D01*
X12007133Y-16875629D01*
X12007133Y-16818486D01*
X12016656Y-16799439D01*
X12026180Y-16789915D01*
X12045228Y-16780391D01*
X12073799Y-16780391D01*
X12092847Y-16789915D01*
X12102371Y-16799439D01*
X12111895Y-16818486D01*
X12111895Y-16875629D01*
X12102371Y-16894677D01*
X12092847Y-16904201D01*
X12073799Y-16913724D01*
X12045228Y-16913724D01*
X12226180Y-16913724D02*
X12207133Y-16904201D01*
X12197609Y-16885153D01*
X12197609Y-16713724D01*
X12378561Y-16904201D02*
X12359514Y-16913724D01*
X12321418Y-16913724D01*
X12302371Y-16904201D01*
X12292847Y-16885153D01*
X12292847Y-16808962D01*
X12302371Y-16789915D01*
X12321418Y-16780391D01*
X12359514Y-16780391D01*
X12378561Y-16789915D01*
X12388085Y-16808962D01*
X12388085Y-16828010D01*
X12292847Y-16847058D01*
X12464276Y-16904201D02*
X12483323Y-16913724D01*
X12521418Y-16913724D01*
X12540466Y-16904201D01*
X12549990Y-16885153D01*
X12549990Y-16875629D01*
X12540466Y-16856582D01*
X12521418Y-16847058D01*
X12492847Y-16847058D01*
X12473799Y-16837534D01*
X12464276Y-16818486D01*
X12464276Y-16808962D01*
X12473799Y-16789915D01*
X12492847Y-16780391D01*
X12521418Y-16780391D01*
X12540466Y-16789915D01*
X12616656Y-16989915D02*
X12626180Y-16980391D01*
X12645228Y-16951820D01*
X12654752Y-16932772D01*
X12664276Y-16904201D01*
X12673799Y-16856582D01*
X12673799Y-16818486D01*
X12664276Y-16770867D01*
X12654752Y-16742296D01*
X12645228Y-16723248D01*
X12626180Y-16694677D01*
X12616656Y-16685153D01*
D15*
X7831572Y-17119068D02*
X7831572Y-17055428D01*
X7767932Y-17055428D01*
X7767932Y-17119068D01*
X7831572Y-17119068D01*
D11*
X8140466Y-16977724D02*
X8159514Y-16977724D01*
X8178561Y-16987248D01*
X8188085Y-16996772D01*
X8197609Y-17015820D01*
X8207133Y-17053915D01*
X8207133Y-17101534D01*
X8197609Y-17139629D01*
X8188085Y-17158677D01*
X8178561Y-17168201D01*
X8159514Y-17177724D01*
X8140466Y-17177724D01*
X8121418Y-17168201D01*
X8111895Y-17158677D01*
X8102371Y-17139629D01*
X8092847Y-17101534D01*
X8092847Y-17053915D01*
X8102371Y-17015820D01*
X8111895Y-16996772D01*
X8121418Y-16987248D01*
X8140466Y-16977724D01*
X8292847Y-17158677D02*
X8302371Y-17168201D01*
X8292847Y-17177724D01*
X8283323Y-17168201D01*
X8292847Y-17158677D01*
X8292847Y-17177724D01*
X8397609Y-17177724D02*
X8435704Y-17177724D01*
X8454752Y-17168201D01*
X8464276Y-17158677D01*
X8483323Y-17130105D01*
X8492847Y-17092010D01*
X8492847Y-17015820D01*
X8483323Y-16996772D01*
X8473799Y-16987248D01*
X8454752Y-16977724D01*
X8416657Y-16977724D01*
X8397609Y-16987248D01*
X8388085Y-16996772D01*
X8378561Y-17015820D01*
X8378561Y-17063439D01*
X8388085Y-17082486D01*
X8397609Y-17092010D01*
X8416657Y-17101534D01*
X8454752Y-17101534D01*
X8473799Y-17092010D01*
X8483323Y-17082486D01*
X8492847Y-17063439D01*
X8616657Y-16977724D02*
X8635704Y-16977724D01*
X8654752Y-16987248D01*
X8664276Y-16996772D01*
X8673799Y-17015820D01*
X8683323Y-17053915D01*
X8683323Y-17101534D01*
X8673799Y-17139629D01*
X8664276Y-17158677D01*
X8654752Y-17168201D01*
X8635704Y-17177724D01*
X8616657Y-17177724D01*
X8597609Y-17168201D01*
X8588085Y-17158677D01*
X8578561Y-17139629D01*
X8569038Y-17101534D01*
X8569038Y-17053915D01*
X8578561Y-17015820D01*
X8588085Y-16996772D01*
X8597609Y-16987248D01*
X8616657Y-16977724D01*
X8807133Y-16977724D02*
X8826180Y-16977724D01*
X8845228Y-16987248D01*
X8854752Y-16996772D01*
X8864276Y-17015820D01*
X8873799Y-17053915D01*
X8873799Y-17101534D01*
X8864276Y-17139629D01*
X8854752Y-17158677D01*
X8845228Y-17168201D01*
X8826180Y-17177724D01*
X8807133Y-17177724D01*
X8788085Y-17168201D01*
X8778561Y-17158677D01*
X8769038Y-17139629D01*
X8759514Y-17101534D01*
X8759514Y-17053915D01*
X8769038Y-17015820D01*
X8778561Y-16996772D01*
X8788085Y-16987248D01*
X8807133Y-16977724D01*
X8959514Y-17177724D02*
X8959514Y-17044391D01*
X8959514Y-17063439D02*
X8969038Y-17053915D01*
X8988085Y-17044391D01*
X9016657Y-17044391D01*
X9035704Y-17053915D01*
X9045228Y-17072962D01*
X9045228Y-17177724D01*
X9045228Y-17072962D02*
X9054752Y-17053915D01*
X9073799Y-17044391D01*
X9102371Y-17044391D01*
X9121418Y-17053915D01*
X9130942Y-17072962D01*
X9130942Y-17177724D01*
X9226180Y-17177724D02*
X9226180Y-17044391D01*
X9226180Y-17063439D02*
X9235704Y-17053915D01*
X9254752Y-17044391D01*
X9283323Y-17044391D01*
X9302371Y-17053915D01*
X9311895Y-17072962D01*
X9311895Y-17177724D01*
X9311895Y-17072962D02*
X9321418Y-17053915D01*
X9340466Y-17044391D01*
X9369038Y-17044391D01*
X9388085Y-17053915D01*
X9397609Y-17072962D01*
X9397609Y-17177724D01*
X9788085Y-16968201D02*
X9616657Y-17225343D01*
X10045228Y-16977724D02*
X10064276Y-16977724D01*
X10083323Y-16987248D01*
X10092847Y-16996772D01*
X10102371Y-17015820D01*
X10111895Y-17053915D01*
X10111895Y-17101534D01*
X10102371Y-17139629D01*
X10092847Y-17158677D01*
X10083323Y-17168201D01*
X10064276Y-17177724D01*
X10045228Y-17177724D01*
X10026180Y-17168201D01*
X10016657Y-17158677D01*
X10007133Y-17139629D01*
X9997609Y-17101534D01*
X9997609Y-17053915D01*
X10007133Y-17015820D01*
X10016657Y-16996772D01*
X10026180Y-16987248D01*
X10045228Y-16977724D01*
X10197609Y-17158677D02*
X10207133Y-17168201D01*
X10197609Y-17177724D01*
X10188085Y-17168201D01*
X10197609Y-17158677D01*
X10197609Y-17177724D01*
X10330942Y-16977724D02*
X10349990Y-16977724D01*
X10369038Y-16987248D01*
X10378561Y-16996772D01*
X10388085Y-17015820D01*
X10397609Y-17053915D01*
X10397609Y-17101534D01*
X10388085Y-17139629D01*
X10378561Y-17158677D01*
X10369038Y-17168201D01*
X10349990Y-17177724D01*
X10330942Y-17177724D01*
X10311895Y-17168201D01*
X10302371Y-17158677D01*
X10292847Y-17139629D01*
X10283323Y-17101534D01*
X10283323Y-17053915D01*
X10292847Y-17015820D01*
X10302371Y-16996772D01*
X10311895Y-16987248D01*
X10330942Y-16977724D01*
X10464276Y-16977724D02*
X10588085Y-16977724D01*
X10521418Y-17053915D01*
X10549990Y-17053915D01*
X10569038Y-17063439D01*
X10578561Y-17072962D01*
X10588085Y-17092010D01*
X10588085Y-17139629D01*
X10578561Y-17158677D01*
X10569038Y-17168201D01*
X10549990Y-17177724D01*
X10492847Y-17177724D01*
X10473799Y-17168201D01*
X10464276Y-17158677D01*
X10769038Y-16977724D02*
X10673799Y-16977724D01*
X10664276Y-17072962D01*
X10673799Y-17063439D01*
X10692847Y-17053915D01*
X10740466Y-17053915D01*
X10759514Y-17063439D01*
X10769038Y-17072962D01*
X10778561Y-17092010D01*
X10778561Y-17139629D01*
X10769038Y-17158677D01*
X10759514Y-17168201D01*
X10740466Y-17177724D01*
X10692847Y-17177724D01*
X10673799Y-17168201D01*
X10664276Y-17158677D01*
X10949990Y-17044391D02*
X10949990Y-17177724D01*
X10902371Y-16968201D02*
X10854752Y-17111058D01*
X10978561Y-17111058D01*
X11045228Y-16977724D02*
X11045228Y-17015820D01*
X11121418Y-16977724D02*
X11121418Y-17015820D01*
X11416656Y-17253915D02*
X11407133Y-17244391D01*
X11388085Y-17215820D01*
X11378561Y-17196772D01*
X11369037Y-17168201D01*
X11359514Y-17120582D01*
X11359514Y-17082486D01*
X11369037Y-17034867D01*
X11378561Y-17006296D01*
X11388085Y-16987248D01*
X11407133Y-16958677D01*
X11416656Y-16949153D01*
X11483323Y-16996772D02*
X11492847Y-16987248D01*
X11511895Y-16977724D01*
X11559514Y-16977724D01*
X11578561Y-16987248D01*
X11588085Y-16996772D01*
X11597609Y-17015820D01*
X11597609Y-17034867D01*
X11588085Y-17063439D01*
X11473799Y-17177724D01*
X11597609Y-17177724D01*
X11835704Y-17177724D02*
X11835704Y-16977724D01*
X11921418Y-17177724D02*
X11921418Y-17072962D01*
X11911895Y-17053915D01*
X11892847Y-17044391D01*
X11864276Y-17044391D01*
X11845228Y-17053915D01*
X11835704Y-17063439D01*
X12045228Y-17177724D02*
X12026180Y-17168201D01*
X12016656Y-17158677D01*
X12007133Y-17139629D01*
X12007133Y-17082486D01*
X12016656Y-17063439D01*
X12026180Y-17053915D01*
X12045228Y-17044391D01*
X12073799Y-17044391D01*
X12092847Y-17053915D01*
X12102371Y-17063439D01*
X12111895Y-17082486D01*
X12111895Y-17139629D01*
X12102371Y-17158677D01*
X12092847Y-17168201D01*
X12073799Y-17177724D01*
X12045228Y-17177724D01*
X12226180Y-17177724D02*
X12207133Y-17168201D01*
X12197609Y-17149153D01*
X12197609Y-16977724D01*
X12378561Y-17168201D02*
X12359514Y-17177724D01*
X12321418Y-17177724D01*
X12302371Y-17168201D01*
X12292847Y-17149153D01*
X12292847Y-17072962D01*
X12302371Y-17053915D01*
X12321418Y-17044391D01*
X12359514Y-17044391D01*
X12378561Y-17053915D01*
X12388085Y-17072962D01*
X12388085Y-17092010D01*
X12292847Y-17111058D01*
X12464276Y-17168201D02*
X12483323Y-17177724D01*
X12521418Y-17177724D01*
X12540466Y-17168201D01*
X12549990Y-17149153D01*
X12549990Y-17139629D01*
X12540466Y-17120582D01*
X12521418Y-17111058D01*
X12492847Y-17111058D01*
X12473799Y-17101534D01*
X12464276Y-17082486D01*
X12464276Y-17072962D01*
X12473799Y-17053915D01*
X12492847Y-17044391D01*
X12521418Y-17044391D01*
X12540466Y-17053915D01*
X12616656Y-17253915D02*
X12626180Y-17244391D01*
X12645228Y-17215820D01*
X12654752Y-17196772D01*
X12664276Y-17168201D01*
X12673799Y-17120582D01*
X12673799Y-17082486D01*
X12664276Y-17034867D01*
X12654752Y-17006296D01*
X12645228Y-16987248D01*
X12626180Y-16958677D01*
X12616656Y-16949153D01*
D10*
X7794752Y-17401248D02*
X7844752Y-17351248D01*
X7794752Y-17301248D01*
X7744752Y-17351248D01*
X7794752Y-17401248D01*
D11*
X8207133Y-17441724D02*
X8092847Y-17441724D01*
X8149990Y-17441724D02*
X8149990Y-17241724D01*
X8130942Y-17270296D01*
X8111895Y-17289343D01*
X8092847Y-17298867D01*
X8292847Y-17422677D02*
X8302371Y-17432201D01*
X8292847Y-17441724D01*
X8283323Y-17432201D01*
X8292847Y-17422677D01*
X8292847Y-17441724D01*
X8426180Y-17241724D02*
X8445228Y-17241724D01*
X8464276Y-17251248D01*
X8473799Y-17260772D01*
X8483323Y-17279820D01*
X8492847Y-17317915D01*
X8492847Y-17365534D01*
X8483323Y-17403629D01*
X8473799Y-17422677D01*
X8464276Y-17432201D01*
X8445228Y-17441724D01*
X8426180Y-17441724D01*
X8407133Y-17432201D01*
X8397609Y-17422677D01*
X8388085Y-17403629D01*
X8378561Y-17365534D01*
X8378561Y-17317915D01*
X8388085Y-17279820D01*
X8397609Y-17260772D01*
X8407133Y-17251248D01*
X8426180Y-17241724D01*
X8616657Y-17241724D02*
X8635704Y-17241724D01*
X8654752Y-17251248D01*
X8664276Y-17260772D01*
X8673799Y-17279820D01*
X8683323Y-17317915D01*
X8683323Y-17365534D01*
X8673799Y-17403629D01*
X8664276Y-17422677D01*
X8654752Y-17432201D01*
X8635704Y-17441724D01*
X8616657Y-17441724D01*
X8597609Y-17432201D01*
X8588085Y-17422677D01*
X8578561Y-17403629D01*
X8569038Y-17365534D01*
X8569038Y-17317915D01*
X8578561Y-17279820D01*
X8588085Y-17260772D01*
X8597609Y-17251248D01*
X8616657Y-17241724D01*
X8807133Y-17241724D02*
X8826180Y-17241724D01*
X8845228Y-17251248D01*
X8854752Y-17260772D01*
X8864276Y-17279820D01*
X8873799Y-17317915D01*
X8873799Y-17365534D01*
X8864276Y-17403629D01*
X8854752Y-17422677D01*
X8845228Y-17432201D01*
X8826180Y-17441724D01*
X8807133Y-17441724D01*
X8788085Y-17432201D01*
X8778561Y-17422677D01*
X8769038Y-17403629D01*
X8759514Y-17365534D01*
X8759514Y-17317915D01*
X8769038Y-17279820D01*
X8778561Y-17260772D01*
X8788085Y-17251248D01*
X8807133Y-17241724D01*
X8959514Y-17441724D02*
X8959514Y-17308391D01*
X8959514Y-17327439D02*
X8969038Y-17317915D01*
X8988085Y-17308391D01*
X9016657Y-17308391D01*
X9035704Y-17317915D01*
X9045228Y-17336962D01*
X9045228Y-17441724D01*
X9045228Y-17336962D02*
X9054752Y-17317915D01*
X9073799Y-17308391D01*
X9102371Y-17308391D01*
X9121418Y-17317915D01*
X9130942Y-17336962D01*
X9130942Y-17441724D01*
X9226180Y-17441724D02*
X9226180Y-17308391D01*
X9226180Y-17327439D02*
X9235704Y-17317915D01*
X9254752Y-17308391D01*
X9283323Y-17308391D01*
X9302371Y-17317915D01*
X9311895Y-17336962D01*
X9311895Y-17441724D01*
X9311895Y-17336962D02*
X9321418Y-17317915D01*
X9340466Y-17308391D01*
X9369038Y-17308391D01*
X9388085Y-17317915D01*
X9397609Y-17336962D01*
X9397609Y-17441724D01*
X9788085Y-17232201D02*
X9616657Y-17489343D01*
X10045228Y-17241724D02*
X10064276Y-17241724D01*
X10083323Y-17251248D01*
X10092847Y-17260772D01*
X10102371Y-17279820D01*
X10111895Y-17317915D01*
X10111895Y-17365534D01*
X10102371Y-17403629D01*
X10092847Y-17422677D01*
X10083323Y-17432201D01*
X10064276Y-17441724D01*
X10045228Y-17441724D01*
X10026180Y-17432201D01*
X10016657Y-17422677D01*
X10007133Y-17403629D01*
X9997609Y-17365534D01*
X9997609Y-17317915D01*
X10007133Y-17279820D01*
X10016657Y-17260772D01*
X10026180Y-17251248D01*
X10045228Y-17241724D01*
X10197609Y-17422677D02*
X10207133Y-17432201D01*
X10197609Y-17441724D01*
X10188085Y-17432201D01*
X10197609Y-17422677D01*
X10197609Y-17441724D01*
X10330942Y-17241724D02*
X10349990Y-17241724D01*
X10369038Y-17251248D01*
X10378561Y-17260772D01*
X10388085Y-17279820D01*
X10397609Y-17317915D01*
X10397609Y-17365534D01*
X10388085Y-17403629D01*
X10378561Y-17422677D01*
X10369038Y-17432201D01*
X10349990Y-17441724D01*
X10330942Y-17441724D01*
X10311895Y-17432201D01*
X10302371Y-17422677D01*
X10292847Y-17403629D01*
X10283323Y-17365534D01*
X10283323Y-17317915D01*
X10292847Y-17279820D01*
X10302371Y-17260772D01*
X10311895Y-17251248D01*
X10330942Y-17241724D01*
X10464276Y-17241724D02*
X10588085Y-17241724D01*
X10521418Y-17317915D01*
X10549990Y-17317915D01*
X10569038Y-17327439D01*
X10578561Y-17336962D01*
X10588085Y-17356010D01*
X10588085Y-17403629D01*
X10578561Y-17422677D01*
X10569038Y-17432201D01*
X10549990Y-17441724D01*
X10492847Y-17441724D01*
X10473799Y-17432201D01*
X10464276Y-17422677D01*
X10683323Y-17441724D02*
X10721418Y-17441724D01*
X10740466Y-17432201D01*
X10749990Y-17422677D01*
X10769038Y-17394105D01*
X10778561Y-17356010D01*
X10778561Y-17279820D01*
X10769038Y-17260772D01*
X10759514Y-17251248D01*
X10740466Y-17241724D01*
X10702371Y-17241724D01*
X10683323Y-17251248D01*
X10673799Y-17260772D01*
X10664276Y-17279820D01*
X10664276Y-17327439D01*
X10673799Y-17346486D01*
X10683323Y-17356010D01*
X10702371Y-17365534D01*
X10740466Y-17365534D01*
X10759514Y-17356010D01*
X10769038Y-17346486D01*
X10778561Y-17327439D01*
X10949990Y-17308391D02*
X10949990Y-17441724D01*
X10902371Y-17232201D02*
X10854752Y-17375058D01*
X10978561Y-17375058D01*
X11045228Y-17241724D02*
X11045228Y-17279820D01*
X11121418Y-17241724D02*
X11121418Y-17279820D01*
X11416656Y-17517915D02*
X11407133Y-17508391D01*
X11388085Y-17479820D01*
X11378561Y-17460772D01*
X11369037Y-17432201D01*
X11359514Y-17384582D01*
X11359514Y-17346486D01*
X11369037Y-17298867D01*
X11378561Y-17270296D01*
X11388085Y-17251248D01*
X11407133Y-17222677D01*
X11416656Y-17213153D01*
X11588085Y-17241724D02*
X11492847Y-17241724D01*
X11483323Y-17336962D01*
X11492847Y-17327439D01*
X11511895Y-17317915D01*
X11559514Y-17317915D01*
X11578561Y-17327439D01*
X11588085Y-17336962D01*
X11597609Y-17356010D01*
X11597609Y-17403629D01*
X11588085Y-17422677D01*
X11578561Y-17432201D01*
X11559514Y-17441724D01*
X11511895Y-17441724D01*
X11492847Y-17432201D01*
X11483323Y-17422677D01*
X11769037Y-17241724D02*
X11730942Y-17241724D01*
X11711895Y-17251248D01*
X11702371Y-17260772D01*
X11683323Y-17289343D01*
X11673799Y-17327439D01*
X11673799Y-17403629D01*
X11683323Y-17422677D01*
X11692847Y-17432201D01*
X11711895Y-17441724D01*
X11749990Y-17441724D01*
X11769037Y-17432201D01*
X11778561Y-17422677D01*
X11788085Y-17403629D01*
X11788085Y-17356010D01*
X11778561Y-17336962D01*
X11769037Y-17327439D01*
X11749990Y-17317915D01*
X11711895Y-17317915D01*
X11692847Y-17327439D01*
X11683323Y-17336962D01*
X11673799Y-17356010D01*
X12026180Y-17441724D02*
X12026180Y-17241724D01*
X12111895Y-17441724D02*
X12111895Y-17336962D01*
X12102371Y-17317915D01*
X12083323Y-17308391D01*
X12054752Y-17308391D01*
X12035704Y-17317915D01*
X12026180Y-17327439D01*
X12235704Y-17441724D02*
X12216656Y-17432201D01*
X12207133Y-17422677D01*
X12197609Y-17403629D01*
X12197609Y-17346486D01*
X12207133Y-17327439D01*
X12216656Y-17317915D01*
X12235704Y-17308391D01*
X12264276Y-17308391D01*
X12283323Y-17317915D01*
X12292847Y-17327439D01*
X12302371Y-17346486D01*
X12302371Y-17403629D01*
X12292847Y-17422677D01*
X12283323Y-17432201D01*
X12264276Y-17441724D01*
X12235704Y-17441724D01*
X12416656Y-17441724D02*
X12397609Y-17432201D01*
X12388085Y-17413153D01*
X12388085Y-17241724D01*
X12569037Y-17432201D02*
X12549990Y-17441724D01*
X12511895Y-17441724D01*
X12492847Y-17432201D01*
X12483323Y-17413153D01*
X12483323Y-17336962D01*
X12492847Y-17317915D01*
X12511895Y-17308391D01*
X12549990Y-17308391D01*
X12569037Y-17317915D01*
X12578561Y-17336962D01*
X12578561Y-17356010D01*
X12483323Y-17375058D01*
X12654752Y-17432201D02*
X12673799Y-17441724D01*
X12711895Y-17441724D01*
X12730942Y-17432201D01*
X12740466Y-17413153D01*
X12740466Y-17403629D01*
X12730942Y-17384582D01*
X12711895Y-17375058D01*
X12683323Y-17375058D01*
X12664276Y-17365534D01*
X12654752Y-17346486D01*
X12654752Y-17336962D01*
X12664276Y-17317915D01*
X12683323Y-17308391D01*
X12711895Y-17308391D01*
X12730942Y-17317915D01*
X12807133Y-17517915D02*
X12816656Y-17508391D01*
X12835704Y-17479820D01*
X12845228Y-17460772D01*
X12854752Y-17432201D01*
X12864276Y-17384582D01*
X12864276Y-17346486D01*
X12854752Y-17298867D01*
X12845228Y-17270296D01*
X12835704Y-17251248D01*
X12816656Y-17222677D01*
X12807133Y-17213153D01*
D16*
X7742752Y-17564248D02*
X7844752Y-17666248D01*
X7844752Y-17564248D02*
X7742752Y-17666248D01*
X7844752Y-17615248D02*
G75*
G03*
X7844752Y-17615248I-51000J0D01*
G01*
D11*
X8207133Y-17705724D02*
X8092847Y-17705724D01*
X8149990Y-17705724D02*
X8149990Y-17505724D01*
X8130942Y-17534296D01*
X8111895Y-17553343D01*
X8092847Y-17562867D01*
X8292847Y-17686677D02*
X8302371Y-17696201D01*
X8292847Y-17705724D01*
X8283323Y-17696201D01*
X8292847Y-17686677D01*
X8292847Y-17705724D01*
X8426180Y-17505724D02*
X8445228Y-17505724D01*
X8464276Y-17515248D01*
X8473799Y-17524772D01*
X8483323Y-17543820D01*
X8492847Y-17581915D01*
X8492847Y-17629534D01*
X8483323Y-17667629D01*
X8473799Y-17686677D01*
X8464276Y-17696201D01*
X8445228Y-17705724D01*
X8426180Y-17705724D01*
X8407133Y-17696201D01*
X8397609Y-17686677D01*
X8388085Y-17667629D01*
X8378561Y-17629534D01*
X8378561Y-17581915D01*
X8388085Y-17543820D01*
X8397609Y-17524772D01*
X8407133Y-17515248D01*
X8426180Y-17505724D01*
X8569038Y-17524772D02*
X8578561Y-17515248D01*
X8597609Y-17505724D01*
X8645228Y-17505724D01*
X8664276Y-17515248D01*
X8673799Y-17524772D01*
X8683323Y-17543820D01*
X8683323Y-17562867D01*
X8673799Y-17591439D01*
X8559514Y-17705724D01*
X8683323Y-17705724D01*
X8807133Y-17505724D02*
X8826180Y-17505724D01*
X8845228Y-17515248D01*
X8854752Y-17524772D01*
X8864276Y-17543820D01*
X8873799Y-17581915D01*
X8873799Y-17629534D01*
X8864276Y-17667629D01*
X8854752Y-17686677D01*
X8845228Y-17696201D01*
X8826180Y-17705724D01*
X8807133Y-17705724D01*
X8788085Y-17696201D01*
X8778561Y-17686677D01*
X8769038Y-17667629D01*
X8759514Y-17629534D01*
X8759514Y-17581915D01*
X8769038Y-17543820D01*
X8778561Y-17524772D01*
X8788085Y-17515248D01*
X8807133Y-17505724D01*
X8959514Y-17705724D02*
X8959514Y-17572391D01*
X8959514Y-17591439D02*
X8969038Y-17581915D01*
X8988085Y-17572391D01*
X9016657Y-17572391D01*
X9035704Y-17581915D01*
X9045228Y-17600962D01*
X9045228Y-17705724D01*
X9045228Y-17600962D02*
X9054752Y-17581915D01*
X9073799Y-17572391D01*
X9102371Y-17572391D01*
X9121418Y-17581915D01*
X9130942Y-17600962D01*
X9130942Y-17705724D01*
X9226180Y-17705724D02*
X9226180Y-17572391D01*
X9226180Y-17591439D02*
X9235704Y-17581915D01*
X9254752Y-17572391D01*
X9283323Y-17572391D01*
X9302371Y-17581915D01*
X9311895Y-17600962D01*
X9311895Y-17705724D01*
X9311895Y-17600962D02*
X9321418Y-17581915D01*
X9340466Y-17572391D01*
X9369038Y-17572391D01*
X9388085Y-17581915D01*
X9397609Y-17600962D01*
X9397609Y-17705724D01*
X9788085Y-17496201D02*
X9616657Y-17753343D01*
X10045228Y-17505724D02*
X10064276Y-17505724D01*
X10083323Y-17515248D01*
X10092847Y-17524772D01*
X10102371Y-17543820D01*
X10111895Y-17581915D01*
X10111895Y-17629534D01*
X10102371Y-17667629D01*
X10092847Y-17686677D01*
X10083323Y-17696201D01*
X10064276Y-17705724D01*
X10045228Y-17705724D01*
X10026180Y-17696201D01*
X10016657Y-17686677D01*
X10007133Y-17667629D01*
X9997609Y-17629534D01*
X9997609Y-17581915D01*
X10007133Y-17543820D01*
X10016657Y-17524772D01*
X10026180Y-17515248D01*
X10045228Y-17505724D01*
X10197609Y-17686677D02*
X10207133Y-17696201D01*
X10197609Y-17705724D01*
X10188085Y-17696201D01*
X10197609Y-17686677D01*
X10197609Y-17705724D01*
X10330942Y-17505724D02*
X10349990Y-17505724D01*
X10369038Y-17515248D01*
X10378561Y-17524772D01*
X10388085Y-17543820D01*
X10397609Y-17581915D01*
X10397609Y-17629534D01*
X10388085Y-17667629D01*
X10378561Y-17686677D01*
X10369038Y-17696201D01*
X10349990Y-17705724D01*
X10330942Y-17705724D01*
X10311895Y-17696201D01*
X10302371Y-17686677D01*
X10292847Y-17667629D01*
X10283323Y-17629534D01*
X10283323Y-17581915D01*
X10292847Y-17543820D01*
X10302371Y-17524772D01*
X10311895Y-17515248D01*
X10330942Y-17505724D01*
X10569038Y-17572391D02*
X10569038Y-17705724D01*
X10521418Y-17496201D02*
X10473799Y-17639058D01*
X10597609Y-17639058D01*
X10711895Y-17505724D02*
X10730942Y-17505724D01*
X10749990Y-17515248D01*
X10759514Y-17524772D01*
X10769038Y-17543820D01*
X10778561Y-17581915D01*
X10778561Y-17629534D01*
X10769038Y-17667629D01*
X10759514Y-17686677D01*
X10749990Y-17696201D01*
X10730942Y-17705724D01*
X10711895Y-17705724D01*
X10692847Y-17696201D01*
X10683323Y-17686677D01*
X10673799Y-17667629D01*
X10664276Y-17629534D01*
X10664276Y-17581915D01*
X10673799Y-17543820D01*
X10683323Y-17524772D01*
X10692847Y-17515248D01*
X10711895Y-17505724D01*
X10854752Y-17524772D02*
X10864276Y-17515248D01*
X10883323Y-17505724D01*
X10930942Y-17505724D01*
X10949990Y-17515248D01*
X10959514Y-17524772D01*
X10969038Y-17543820D01*
X10969038Y-17562867D01*
X10959514Y-17591439D01*
X10845228Y-17705724D01*
X10969038Y-17705724D01*
X11045228Y-17505724D02*
X11045228Y-17543820D01*
X11121418Y-17505724D02*
X11121418Y-17543820D01*
X11416656Y-17781915D02*
X11407133Y-17772391D01*
X11388085Y-17743820D01*
X11378561Y-17724772D01*
X11369037Y-17696201D01*
X11359514Y-17648582D01*
X11359514Y-17610486D01*
X11369037Y-17562867D01*
X11378561Y-17534296D01*
X11388085Y-17515248D01*
X11407133Y-17486677D01*
X11416656Y-17477153D01*
X11578561Y-17572391D02*
X11578561Y-17705724D01*
X11530942Y-17496201D02*
X11483323Y-17639058D01*
X11607133Y-17639058D01*
X11721418Y-17505724D02*
X11740466Y-17505724D01*
X11759514Y-17515248D01*
X11769037Y-17524772D01*
X11778561Y-17543820D01*
X11788085Y-17581915D01*
X11788085Y-17629534D01*
X11778561Y-17667629D01*
X11769037Y-17686677D01*
X11759514Y-17696201D01*
X11740466Y-17705724D01*
X11721418Y-17705724D01*
X11702371Y-17696201D01*
X11692847Y-17686677D01*
X11683323Y-17667629D01*
X11673799Y-17629534D01*
X11673799Y-17581915D01*
X11683323Y-17543820D01*
X11692847Y-17524772D01*
X11702371Y-17515248D01*
X11721418Y-17505724D01*
X12026180Y-17705724D02*
X12026180Y-17505724D01*
X12111895Y-17705724D02*
X12111895Y-17600962D01*
X12102371Y-17581915D01*
X12083323Y-17572391D01*
X12054752Y-17572391D01*
X12035704Y-17581915D01*
X12026180Y-17591439D01*
X12235704Y-17705724D02*
X12216656Y-17696201D01*
X12207133Y-17686677D01*
X12197609Y-17667629D01*
X12197609Y-17610486D01*
X12207133Y-17591439D01*
X12216656Y-17581915D01*
X12235704Y-17572391D01*
X12264276Y-17572391D01*
X12283323Y-17581915D01*
X12292847Y-17591439D01*
X12302371Y-17610486D01*
X12302371Y-17667629D01*
X12292847Y-17686677D01*
X12283323Y-17696201D01*
X12264276Y-17705724D01*
X12235704Y-17705724D01*
X12416656Y-17705724D02*
X12397609Y-17696201D01*
X12388085Y-17677153D01*
X12388085Y-17505724D01*
X12569037Y-17696201D02*
X12549990Y-17705724D01*
X12511895Y-17705724D01*
X12492847Y-17696201D01*
X12483323Y-17677153D01*
X12483323Y-17600962D01*
X12492847Y-17581915D01*
X12511895Y-17572391D01*
X12549990Y-17572391D01*
X12569037Y-17581915D01*
X12578561Y-17600962D01*
X12578561Y-17620010D01*
X12483323Y-17639058D01*
X12654752Y-17696201D02*
X12673799Y-17705724D01*
X12711895Y-17705724D01*
X12730942Y-17696201D01*
X12740466Y-17677153D01*
X12740466Y-17667629D01*
X12730942Y-17648582D01*
X12711895Y-17639058D01*
X12683323Y-17639058D01*
X12664276Y-17629534D01*
X12654752Y-17610486D01*
X12654752Y-17600962D01*
X12664276Y-17581915D01*
X12683323Y-17572391D01*
X12711895Y-17572391D01*
X12730942Y-17581915D01*
X12807133Y-17781915D02*
X12816656Y-17772391D01*
X12835704Y-17743820D01*
X12845228Y-17724772D01*
X12854752Y-17696201D01*
X12864276Y-17648582D01*
X12864276Y-17610486D01*
X12854752Y-17562867D01*
X12845228Y-17534296D01*
X12835704Y-17515248D01*
X12816656Y-17486677D01*
X12807133Y-17477153D01*
D17*
X7734752Y-17824248D02*
X7844752Y-17934248D01*
X7844752Y-17824248D02*
X7734752Y-17934248D01*
X7789752Y-17824248D02*
X7789752Y-17934248D01*
X7734752Y-17879248D02*
X7844752Y-17879248D01*
D11*
X8207133Y-17969724D02*
X8092847Y-17969724D01*
X8149990Y-17969724D02*
X8149990Y-17769724D01*
X8130942Y-17798296D01*
X8111895Y-17817343D01*
X8092847Y-17826867D01*
X8292847Y-17950677D02*
X8302371Y-17960201D01*
X8292847Y-17969724D01*
X8283323Y-17960201D01*
X8292847Y-17950677D01*
X8292847Y-17969724D01*
X8492847Y-17969724D02*
X8378561Y-17969724D01*
X8435704Y-17969724D02*
X8435704Y-17769724D01*
X8416657Y-17798296D01*
X8397609Y-17817343D01*
X8378561Y-17826867D01*
X8616657Y-17769724D02*
X8635704Y-17769724D01*
X8654752Y-17779248D01*
X8664276Y-17788772D01*
X8673799Y-17807820D01*
X8683323Y-17845915D01*
X8683323Y-17893534D01*
X8673799Y-17931629D01*
X8664276Y-17950677D01*
X8654752Y-17960201D01*
X8635704Y-17969724D01*
X8616657Y-17969724D01*
X8597609Y-17960201D01*
X8588085Y-17950677D01*
X8578561Y-17931629D01*
X8569038Y-17893534D01*
X8569038Y-17845915D01*
X8578561Y-17807820D01*
X8588085Y-17788772D01*
X8597609Y-17779248D01*
X8616657Y-17769724D01*
X8807133Y-17769724D02*
X8826180Y-17769724D01*
X8845228Y-17779248D01*
X8854752Y-17788772D01*
X8864276Y-17807820D01*
X8873799Y-17845915D01*
X8873799Y-17893534D01*
X8864276Y-17931629D01*
X8854752Y-17950677D01*
X8845228Y-17960201D01*
X8826180Y-17969724D01*
X8807133Y-17969724D01*
X8788085Y-17960201D01*
X8778561Y-17950677D01*
X8769038Y-17931629D01*
X8759514Y-17893534D01*
X8759514Y-17845915D01*
X8769038Y-17807820D01*
X8778561Y-17788772D01*
X8788085Y-17779248D01*
X8807133Y-17769724D01*
X8959514Y-17969724D02*
X8959514Y-17836391D01*
X8959514Y-17855439D02*
X8969038Y-17845915D01*
X8988085Y-17836391D01*
X9016657Y-17836391D01*
X9035704Y-17845915D01*
X9045228Y-17864962D01*
X9045228Y-17969724D01*
X9045228Y-17864962D02*
X9054752Y-17845915D01*
X9073799Y-17836391D01*
X9102371Y-17836391D01*
X9121418Y-17845915D01*
X9130942Y-17864962D01*
X9130942Y-17969724D01*
X9226180Y-17969724D02*
X9226180Y-17836391D01*
X9226180Y-17855439D02*
X9235704Y-17845915D01*
X9254752Y-17836391D01*
X9283323Y-17836391D01*
X9302371Y-17845915D01*
X9311895Y-17864962D01*
X9311895Y-17969724D01*
X9311895Y-17864962D02*
X9321418Y-17845915D01*
X9340466Y-17836391D01*
X9369038Y-17836391D01*
X9388085Y-17845915D01*
X9397609Y-17864962D01*
X9397609Y-17969724D01*
X9788085Y-17760201D02*
X9616657Y-18017343D01*
X10045228Y-17769724D02*
X10064276Y-17769724D01*
X10083323Y-17779248D01*
X10092847Y-17788772D01*
X10102371Y-17807820D01*
X10111895Y-17845915D01*
X10111895Y-17893534D01*
X10102371Y-17931629D01*
X10092847Y-17950677D01*
X10083323Y-17960201D01*
X10064276Y-17969724D01*
X10045228Y-17969724D01*
X10026180Y-17960201D01*
X10016657Y-17950677D01*
X10007133Y-17931629D01*
X9997609Y-17893534D01*
X9997609Y-17845915D01*
X10007133Y-17807820D01*
X10016657Y-17788772D01*
X10026180Y-17779248D01*
X10045228Y-17769724D01*
X10197609Y-17950677D02*
X10207133Y-17960201D01*
X10197609Y-17969724D01*
X10188085Y-17960201D01*
X10197609Y-17950677D01*
X10197609Y-17969724D01*
X10330942Y-17769724D02*
X10349990Y-17769724D01*
X10369038Y-17779248D01*
X10378561Y-17788772D01*
X10388085Y-17807820D01*
X10397609Y-17845915D01*
X10397609Y-17893534D01*
X10388085Y-17931629D01*
X10378561Y-17950677D01*
X10369038Y-17960201D01*
X10349990Y-17969724D01*
X10330942Y-17969724D01*
X10311895Y-17960201D01*
X10302371Y-17950677D01*
X10292847Y-17931629D01*
X10283323Y-17893534D01*
X10283323Y-17845915D01*
X10292847Y-17807820D01*
X10302371Y-17788772D01*
X10311895Y-17779248D01*
X10330942Y-17769724D01*
X10569038Y-17836391D02*
X10569038Y-17969724D01*
X10521418Y-17760201D02*
X10473799Y-17903058D01*
X10597609Y-17903058D01*
X10654752Y-17769724D02*
X10778561Y-17769724D01*
X10711895Y-17845915D01*
X10740466Y-17845915D01*
X10759514Y-17855439D01*
X10769038Y-17864962D01*
X10778561Y-17884010D01*
X10778561Y-17931629D01*
X10769038Y-17950677D01*
X10759514Y-17960201D01*
X10740466Y-17969724D01*
X10683323Y-17969724D01*
X10664276Y-17960201D01*
X10654752Y-17950677D01*
X10845228Y-17769724D02*
X10969038Y-17769724D01*
X10902371Y-17845915D01*
X10930942Y-17845915D01*
X10949990Y-17855439D01*
X10959514Y-17864962D01*
X10969038Y-17884010D01*
X10969038Y-17931629D01*
X10959514Y-17950677D01*
X10949990Y-17960201D01*
X10930942Y-17969724D01*
X10873799Y-17969724D01*
X10854752Y-17960201D01*
X10845228Y-17950677D01*
X11045228Y-17769724D02*
X11045228Y-17807820D01*
X11121418Y-17769724D02*
X11121418Y-17807820D01*
X11416656Y-18045915D02*
X11407133Y-18036391D01*
X11388085Y-18007820D01*
X11378561Y-17988772D01*
X11369037Y-17960201D01*
X11359514Y-17912582D01*
X11359514Y-17874486D01*
X11369037Y-17826867D01*
X11378561Y-17798296D01*
X11388085Y-17779248D01*
X11407133Y-17750677D01*
X11416656Y-17741153D01*
X11588085Y-17769724D02*
X11492847Y-17769724D01*
X11483323Y-17864962D01*
X11492847Y-17855439D01*
X11511895Y-17845915D01*
X11559514Y-17845915D01*
X11578561Y-17855439D01*
X11588085Y-17864962D01*
X11597609Y-17884010D01*
X11597609Y-17931629D01*
X11588085Y-17950677D01*
X11578561Y-17960201D01*
X11559514Y-17969724D01*
X11511895Y-17969724D01*
X11492847Y-17960201D01*
X11483323Y-17950677D01*
X11835704Y-17969724D02*
X11835704Y-17769724D01*
X11921418Y-17969724D02*
X11921418Y-17864962D01*
X11911895Y-17845915D01*
X11892847Y-17836391D01*
X11864276Y-17836391D01*
X11845228Y-17845915D01*
X11835704Y-17855439D01*
X12045228Y-17969724D02*
X12026180Y-17960201D01*
X12016656Y-17950677D01*
X12007133Y-17931629D01*
X12007133Y-17874486D01*
X12016656Y-17855439D01*
X12026180Y-17845915D01*
X12045228Y-17836391D01*
X12073799Y-17836391D01*
X12092847Y-17845915D01*
X12102371Y-17855439D01*
X12111895Y-17874486D01*
X12111895Y-17931629D01*
X12102371Y-17950677D01*
X12092847Y-17960201D01*
X12073799Y-17969724D01*
X12045228Y-17969724D01*
X12226180Y-17969724D02*
X12207133Y-17960201D01*
X12197609Y-17941153D01*
X12197609Y-17769724D01*
X12378561Y-17960201D02*
X12359514Y-17969724D01*
X12321418Y-17969724D01*
X12302371Y-17960201D01*
X12292847Y-17941153D01*
X12292847Y-17864962D01*
X12302371Y-17845915D01*
X12321418Y-17836391D01*
X12359514Y-17836391D01*
X12378561Y-17845915D01*
X12388085Y-17864962D01*
X12388085Y-17884010D01*
X12292847Y-17903058D01*
X12464276Y-17960201D02*
X12483323Y-17969724D01*
X12521418Y-17969724D01*
X12540466Y-17960201D01*
X12549990Y-17941153D01*
X12549990Y-17931629D01*
X12540466Y-17912582D01*
X12521418Y-17903058D01*
X12492847Y-17903058D01*
X12473799Y-17893534D01*
X12464276Y-17874486D01*
X12464276Y-17864962D01*
X12473799Y-17845915D01*
X12492847Y-17836391D01*
X12521418Y-17836391D01*
X12540466Y-17845915D01*
X12616656Y-18045915D02*
X12626180Y-18036391D01*
X12645228Y-18007820D01*
X12654752Y-17988772D01*
X12664276Y-17960201D01*
X12673799Y-17912582D01*
X12673799Y-17874486D01*
X12664276Y-17826867D01*
X12654752Y-17798296D01*
X12645228Y-17779248D01*
X12626180Y-17750677D01*
X12616656Y-17741153D01*
X7644752Y-18043248D02*
X7844752Y-18243248D01*
X7844752Y-18043248D02*
X7644752Y-18243248D01*
X7815463Y-18213960D02*
X7815463Y-18072537D01*
X7674040Y-18072537D01*
X7674040Y-18213960D01*
X7815463Y-18213960D01*
X8092847Y-18052772D02*
X8102371Y-18043248D01*
X8121418Y-18033724D01*
X8169037Y-18033724D01*
X8188085Y-18043248D01*
X8197609Y-18052772D01*
X8207133Y-18071820D01*
X8207133Y-18090867D01*
X8197609Y-18119439D01*
X8083323Y-18233724D01*
X8207133Y-18233724D01*
X8292847Y-18214677D02*
X8302371Y-18224201D01*
X8292847Y-18233724D01*
X8283323Y-18224201D01*
X8292847Y-18214677D01*
X8292847Y-18233724D01*
X8378561Y-18052772D02*
X8388085Y-18043248D01*
X8407133Y-18033724D01*
X8454752Y-18033724D01*
X8473799Y-18043248D01*
X8483323Y-18052772D01*
X8492847Y-18071820D01*
X8492847Y-18090867D01*
X8483323Y-18119439D01*
X8369037Y-18233724D01*
X8492847Y-18233724D01*
X8607133Y-18119439D02*
X8588085Y-18109915D01*
X8578561Y-18100391D01*
X8569038Y-18081343D01*
X8569038Y-18071820D01*
X8578561Y-18052772D01*
X8588085Y-18043248D01*
X8607133Y-18033724D01*
X8645228Y-18033724D01*
X8664276Y-18043248D01*
X8673799Y-18052772D01*
X8683323Y-18071820D01*
X8683323Y-18081343D01*
X8673799Y-18100391D01*
X8664276Y-18109915D01*
X8645228Y-18119439D01*
X8607133Y-18119439D01*
X8588085Y-18128962D01*
X8578561Y-18138486D01*
X8569038Y-18157534D01*
X8569038Y-18195629D01*
X8578561Y-18214677D01*
X8588085Y-18224201D01*
X8607133Y-18233724D01*
X8645228Y-18233724D01*
X8664276Y-18224201D01*
X8673799Y-18214677D01*
X8683323Y-18195629D01*
X8683323Y-18157534D01*
X8673799Y-18138486D01*
X8664276Y-18128962D01*
X8645228Y-18119439D01*
X8854752Y-18033724D02*
X8816657Y-18033724D01*
X8797609Y-18043248D01*
X8788085Y-18052772D01*
X8769038Y-18081343D01*
X8759514Y-18119439D01*
X8759514Y-18195629D01*
X8769038Y-18214677D01*
X8778561Y-18224201D01*
X8797609Y-18233724D01*
X8835704Y-18233724D01*
X8854752Y-18224201D01*
X8864276Y-18214677D01*
X8873799Y-18195629D01*
X8873799Y-18148010D01*
X8864276Y-18128962D01*
X8854752Y-18119439D01*
X8835704Y-18109915D01*
X8797609Y-18109915D01*
X8778561Y-18119439D01*
X8769038Y-18128962D01*
X8759514Y-18148010D01*
X8959514Y-18233724D02*
X8959514Y-18100391D01*
X8959514Y-18119439D02*
X8969038Y-18109915D01*
X8988085Y-18100391D01*
X9016657Y-18100391D01*
X9035704Y-18109915D01*
X9045228Y-18128962D01*
X9045228Y-18233724D01*
X9045228Y-18128962D02*
X9054752Y-18109915D01*
X9073799Y-18100391D01*
X9102371Y-18100391D01*
X9121418Y-18109915D01*
X9130942Y-18128962D01*
X9130942Y-18233724D01*
X9226180Y-18233724D02*
X9226180Y-18100391D01*
X9226180Y-18119439D02*
X9235704Y-18109915D01*
X9254752Y-18100391D01*
X9283323Y-18100391D01*
X9302371Y-18109915D01*
X9311895Y-18128962D01*
X9311895Y-18233724D01*
X9311895Y-18128962D02*
X9321418Y-18109915D01*
X9340466Y-18100391D01*
X9369038Y-18100391D01*
X9388085Y-18109915D01*
X9397609Y-18128962D01*
X9397609Y-18233724D01*
X9788085Y-18024201D02*
X9616657Y-18281343D01*
X10045228Y-18033724D02*
X10064276Y-18033724D01*
X10083323Y-18043248D01*
X10092847Y-18052772D01*
X10102371Y-18071820D01*
X10111895Y-18109915D01*
X10111895Y-18157534D01*
X10102371Y-18195629D01*
X10092847Y-18214677D01*
X10083323Y-18224201D01*
X10064276Y-18233724D01*
X10045228Y-18233724D01*
X10026180Y-18224201D01*
X10016657Y-18214677D01*
X10007133Y-18195629D01*
X9997609Y-18157534D01*
X9997609Y-18109915D01*
X10007133Y-18071820D01*
X10016657Y-18052772D01*
X10026180Y-18043248D01*
X10045228Y-18033724D01*
X10197609Y-18214677D02*
X10207133Y-18224201D01*
X10197609Y-18233724D01*
X10188085Y-18224201D01*
X10197609Y-18214677D01*
X10197609Y-18233724D01*
X10330942Y-18033724D02*
X10349990Y-18033724D01*
X10369038Y-18043248D01*
X10378561Y-18052772D01*
X10388085Y-18071820D01*
X10397609Y-18109915D01*
X10397609Y-18157534D01*
X10388085Y-18195629D01*
X10378561Y-18214677D01*
X10369038Y-18224201D01*
X10349990Y-18233724D01*
X10330942Y-18233724D01*
X10311895Y-18224201D01*
X10302371Y-18214677D01*
X10292847Y-18195629D01*
X10283323Y-18157534D01*
X10283323Y-18109915D01*
X10292847Y-18071820D01*
X10302371Y-18052772D01*
X10311895Y-18043248D01*
X10330942Y-18033724D01*
X10492847Y-18233724D02*
X10530942Y-18233724D01*
X10549990Y-18224201D01*
X10559514Y-18214677D01*
X10578561Y-18186105D01*
X10588085Y-18148010D01*
X10588085Y-18071820D01*
X10578561Y-18052772D01*
X10569038Y-18043248D01*
X10549990Y-18033724D01*
X10511895Y-18033724D01*
X10492847Y-18043248D01*
X10483323Y-18052772D01*
X10473799Y-18071820D01*
X10473799Y-18119439D01*
X10483323Y-18138486D01*
X10492847Y-18148010D01*
X10511895Y-18157534D01*
X10549990Y-18157534D01*
X10569038Y-18148010D01*
X10578561Y-18138486D01*
X10588085Y-18119439D01*
X10711895Y-18033724D02*
X10730942Y-18033724D01*
X10749990Y-18043248D01*
X10759514Y-18052772D01*
X10769038Y-18071820D01*
X10778561Y-18109915D01*
X10778561Y-18157534D01*
X10769038Y-18195629D01*
X10759514Y-18214677D01*
X10749990Y-18224201D01*
X10730942Y-18233724D01*
X10711895Y-18233724D01*
X10692847Y-18224201D01*
X10683323Y-18214677D01*
X10673799Y-18195629D01*
X10664276Y-18157534D01*
X10664276Y-18109915D01*
X10673799Y-18071820D01*
X10683323Y-18052772D01*
X10692847Y-18043248D01*
X10711895Y-18033724D01*
X10902371Y-18033724D02*
X10921418Y-18033724D01*
X10940466Y-18043248D01*
X10949990Y-18052772D01*
X10959514Y-18071820D01*
X10969038Y-18109915D01*
X10969038Y-18157534D01*
X10959514Y-18195629D01*
X10949990Y-18214677D01*
X10940466Y-18224201D01*
X10921418Y-18233724D01*
X10902371Y-18233724D01*
X10883323Y-18224201D01*
X10873799Y-18214677D01*
X10864276Y-18195629D01*
X10854752Y-18157534D01*
X10854752Y-18109915D01*
X10864276Y-18071820D01*
X10873799Y-18052772D01*
X10883323Y-18043248D01*
X10902371Y-18033724D01*
X11045228Y-18033724D02*
X11045228Y-18071820D01*
X11121418Y-18033724D02*
X11121418Y-18071820D01*
X11416656Y-18309915D02*
X11407133Y-18300391D01*
X11388085Y-18271820D01*
X11378561Y-18252772D01*
X11369037Y-18224201D01*
X11359514Y-18176582D01*
X11359514Y-18138486D01*
X11369037Y-18090867D01*
X11378561Y-18062296D01*
X11388085Y-18043248D01*
X11407133Y-18014677D01*
X11416656Y-18005153D01*
X11473799Y-18033724D02*
X11597609Y-18033724D01*
X11530942Y-18109915D01*
X11559514Y-18109915D01*
X11578561Y-18119439D01*
X11588085Y-18128962D01*
X11597609Y-18148010D01*
X11597609Y-18195629D01*
X11588085Y-18214677D01*
X11578561Y-18224201D01*
X11559514Y-18233724D01*
X11502371Y-18233724D01*
X11483323Y-18224201D01*
X11473799Y-18214677D01*
X11835704Y-18233724D02*
X11835704Y-18033724D01*
X11921418Y-18233724D02*
X11921418Y-18128962D01*
X11911895Y-18109915D01*
X11892847Y-18100391D01*
X11864276Y-18100391D01*
X11845228Y-18109915D01*
X11835704Y-18119439D01*
X12045228Y-18233724D02*
X12026180Y-18224201D01*
X12016656Y-18214677D01*
X12007133Y-18195629D01*
X12007133Y-18138486D01*
X12016656Y-18119439D01*
X12026180Y-18109915D01*
X12045228Y-18100391D01*
X12073799Y-18100391D01*
X12092847Y-18109915D01*
X12102371Y-18119439D01*
X12111895Y-18138486D01*
X12111895Y-18195629D01*
X12102371Y-18214677D01*
X12092847Y-18224201D01*
X12073799Y-18233724D01*
X12045228Y-18233724D01*
X12226180Y-18233724D02*
X12207133Y-18224201D01*
X12197609Y-18205153D01*
X12197609Y-18033724D01*
X12378561Y-18224201D02*
X12359514Y-18233724D01*
X12321418Y-18233724D01*
X12302371Y-18224201D01*
X12292847Y-18205153D01*
X12292847Y-18128962D01*
X12302371Y-18109915D01*
X12321418Y-18100391D01*
X12359514Y-18100391D01*
X12378561Y-18109915D01*
X12388085Y-18128962D01*
X12388085Y-18148010D01*
X12292847Y-18167058D01*
X12464276Y-18224201D02*
X12483323Y-18233724D01*
X12521418Y-18233724D01*
X12540466Y-18224201D01*
X12549990Y-18205153D01*
X12549990Y-18195629D01*
X12540466Y-18176582D01*
X12521418Y-18167058D01*
X12492847Y-18167058D01*
X12473799Y-18157534D01*
X12464276Y-18138486D01*
X12464276Y-18128962D01*
X12473799Y-18109915D01*
X12492847Y-18100391D01*
X12521418Y-18100391D01*
X12540466Y-18109915D01*
X12616656Y-18309915D02*
X12626180Y-18300391D01*
X12645228Y-18271820D01*
X12654752Y-18252772D01*
X12664276Y-18224201D01*
X12673799Y-18176582D01*
X12673799Y-18138486D01*
X12664276Y-18090867D01*
X12654752Y-18062296D01*
X12645228Y-18043248D01*
X12626180Y-18014677D01*
X12616656Y-18005153D01*
X7644752Y-18363248D02*
X7844752Y-18563248D01*
X7844752Y-18363248D02*
X7644752Y-18563248D01*
X7744752Y-18563248D02*
X7844752Y-18463248D01*
X7744752Y-18363248D01*
X7644752Y-18463248D01*
X7744752Y-18563248D01*
X8188085Y-18420391D02*
X8188085Y-18553724D01*
X8140466Y-18344201D02*
X8092847Y-18487058D01*
X8216656Y-18487058D01*
X8292847Y-18534677D02*
X8302371Y-18544201D01*
X8292847Y-18553724D01*
X8283323Y-18544201D01*
X8292847Y-18534677D01*
X8292847Y-18553724D01*
X8369037Y-18353724D02*
X8492847Y-18353724D01*
X8426180Y-18429915D01*
X8454752Y-18429915D01*
X8473799Y-18439439D01*
X8483323Y-18448962D01*
X8492847Y-18468010D01*
X8492847Y-18515629D01*
X8483323Y-18534677D01*
X8473799Y-18544201D01*
X8454752Y-18553724D01*
X8397609Y-18553724D01*
X8378561Y-18544201D01*
X8369037Y-18534677D01*
X8616657Y-18353724D02*
X8635704Y-18353724D01*
X8654752Y-18363248D01*
X8664276Y-18372772D01*
X8673799Y-18391820D01*
X8683323Y-18429915D01*
X8683323Y-18477534D01*
X8673799Y-18515629D01*
X8664276Y-18534677D01*
X8654752Y-18544201D01*
X8635704Y-18553724D01*
X8616657Y-18553724D01*
X8597609Y-18544201D01*
X8588085Y-18534677D01*
X8578561Y-18515629D01*
X8569038Y-18477534D01*
X8569038Y-18429915D01*
X8578561Y-18391820D01*
X8588085Y-18372772D01*
X8597609Y-18363248D01*
X8616657Y-18353724D01*
X8807133Y-18353724D02*
X8826180Y-18353724D01*
X8845228Y-18363248D01*
X8854752Y-18372772D01*
X8864276Y-18391820D01*
X8873799Y-18429915D01*
X8873799Y-18477534D01*
X8864276Y-18515629D01*
X8854752Y-18534677D01*
X8845228Y-18544201D01*
X8826180Y-18553724D01*
X8807133Y-18553724D01*
X8788085Y-18544201D01*
X8778561Y-18534677D01*
X8769038Y-18515629D01*
X8759514Y-18477534D01*
X8759514Y-18429915D01*
X8769038Y-18391820D01*
X8778561Y-18372772D01*
X8788085Y-18363248D01*
X8807133Y-18353724D01*
X8959514Y-18553724D02*
X8959514Y-18420391D01*
X8959514Y-18439439D02*
X8969038Y-18429915D01*
X8988085Y-18420391D01*
X9016657Y-18420391D01*
X9035704Y-18429915D01*
X9045228Y-18448962D01*
X9045228Y-18553724D01*
X9045228Y-18448962D02*
X9054752Y-18429915D01*
X9073799Y-18420391D01*
X9102371Y-18420391D01*
X9121418Y-18429915D01*
X9130942Y-18448962D01*
X9130942Y-18553724D01*
X9226180Y-18553724D02*
X9226180Y-18420391D01*
X9226180Y-18439439D02*
X9235704Y-18429915D01*
X9254752Y-18420391D01*
X9283323Y-18420391D01*
X9302371Y-18429915D01*
X9311895Y-18448962D01*
X9311895Y-18553724D01*
X9311895Y-18448962D02*
X9321418Y-18429915D01*
X9340466Y-18420391D01*
X9369038Y-18420391D01*
X9388085Y-18429915D01*
X9397609Y-18448962D01*
X9397609Y-18553724D01*
X9788085Y-18344201D02*
X9616657Y-18601343D01*
X10045228Y-18353724D02*
X10064276Y-18353724D01*
X10083323Y-18363248D01*
X10092847Y-18372772D01*
X10102371Y-18391820D01*
X10111895Y-18429915D01*
X10111895Y-18477534D01*
X10102371Y-18515629D01*
X10092847Y-18534677D01*
X10083323Y-18544201D01*
X10064276Y-18553724D01*
X10045228Y-18553724D01*
X10026180Y-18544201D01*
X10016657Y-18534677D01*
X10007133Y-18515629D01*
X9997609Y-18477534D01*
X9997609Y-18429915D01*
X10007133Y-18391820D01*
X10016657Y-18372772D01*
X10026180Y-18363248D01*
X10045228Y-18353724D01*
X10197609Y-18534677D02*
X10207133Y-18544201D01*
X10197609Y-18553724D01*
X10188085Y-18544201D01*
X10197609Y-18534677D01*
X10197609Y-18553724D01*
X10397609Y-18553724D02*
X10283323Y-18553724D01*
X10340466Y-18553724D02*
X10340466Y-18353724D01*
X10321418Y-18382296D01*
X10302371Y-18401343D01*
X10283323Y-18410867D01*
X10569038Y-18353724D02*
X10530942Y-18353724D01*
X10511895Y-18363248D01*
X10502371Y-18372772D01*
X10483323Y-18401343D01*
X10473799Y-18439439D01*
X10473799Y-18515629D01*
X10483323Y-18534677D01*
X10492847Y-18544201D01*
X10511895Y-18553724D01*
X10549990Y-18553724D01*
X10569038Y-18544201D01*
X10578561Y-18534677D01*
X10588085Y-18515629D01*
X10588085Y-18468010D01*
X10578561Y-18448962D01*
X10569038Y-18439439D01*
X10549990Y-18429915D01*
X10511895Y-18429915D01*
X10492847Y-18439439D01*
X10483323Y-18448962D01*
X10473799Y-18468010D01*
X10683323Y-18553724D02*
X10721418Y-18553724D01*
X10740466Y-18544201D01*
X10749990Y-18534677D01*
X10769038Y-18506105D01*
X10778561Y-18468010D01*
X10778561Y-18391820D01*
X10769038Y-18372772D01*
X10759514Y-18363248D01*
X10740466Y-18353724D01*
X10702371Y-18353724D01*
X10683323Y-18363248D01*
X10673799Y-18372772D01*
X10664276Y-18391820D01*
X10664276Y-18439439D01*
X10673799Y-18458486D01*
X10683323Y-18468010D01*
X10702371Y-18477534D01*
X10740466Y-18477534D01*
X10759514Y-18468010D01*
X10769038Y-18458486D01*
X10778561Y-18439439D01*
X10845228Y-18353724D02*
X10969038Y-18353724D01*
X10902371Y-18429915D01*
X10930942Y-18429915D01*
X10949990Y-18439439D01*
X10959514Y-18448962D01*
X10969038Y-18468010D01*
X10969038Y-18515629D01*
X10959514Y-18534677D01*
X10949990Y-18544201D01*
X10930942Y-18553724D01*
X10873799Y-18553724D01*
X10854752Y-18544201D01*
X10845228Y-18534677D01*
X11045228Y-18353724D02*
X11045228Y-18391820D01*
X11121418Y-18353724D02*
X11121418Y-18391820D01*
X11416656Y-18629915D02*
X11407133Y-18620391D01*
X11388085Y-18591820D01*
X11378561Y-18572772D01*
X11369037Y-18544201D01*
X11359514Y-18496582D01*
X11359514Y-18458486D01*
X11369037Y-18410867D01*
X11378561Y-18382296D01*
X11388085Y-18363248D01*
X11407133Y-18334677D01*
X11416656Y-18325153D01*
X11578561Y-18420391D02*
X11578561Y-18553724D01*
X11530942Y-18344201D02*
X11483323Y-18487058D01*
X11607133Y-18487058D01*
X11835704Y-18553724D02*
X11835704Y-18353724D01*
X11921418Y-18553724D02*
X11921418Y-18448962D01*
X11911895Y-18429915D01*
X11892847Y-18420391D01*
X11864276Y-18420391D01*
X11845228Y-18429915D01*
X11835704Y-18439439D01*
X12045228Y-18553724D02*
X12026180Y-18544201D01*
X12016656Y-18534677D01*
X12007133Y-18515629D01*
X12007133Y-18458486D01*
X12016656Y-18439439D01*
X12026180Y-18429915D01*
X12045228Y-18420391D01*
X12073799Y-18420391D01*
X12092847Y-18429915D01*
X12102371Y-18439439D01*
X12111895Y-18458486D01*
X12111895Y-18515629D01*
X12102371Y-18534677D01*
X12092847Y-18544201D01*
X12073799Y-18553724D01*
X12045228Y-18553724D01*
X12226180Y-18553724D02*
X12207133Y-18544201D01*
X12197609Y-18525153D01*
X12197609Y-18353724D01*
X12378561Y-18544201D02*
X12359514Y-18553724D01*
X12321418Y-18553724D01*
X12302371Y-18544201D01*
X12292847Y-18525153D01*
X12292847Y-18448962D01*
X12302371Y-18429915D01*
X12321418Y-18420391D01*
X12359514Y-18420391D01*
X12378561Y-18429915D01*
X12388085Y-18448962D01*
X12388085Y-18468010D01*
X12292847Y-18487058D01*
X12464276Y-18544201D02*
X12483323Y-18553724D01*
X12521418Y-18553724D01*
X12540466Y-18544201D01*
X12549990Y-18525153D01*
X12549990Y-18515629D01*
X12540466Y-18496582D01*
X12521418Y-18487058D01*
X12492847Y-18487058D01*
X12473799Y-18477534D01*
X12464276Y-18458486D01*
X12464276Y-18448962D01*
X12473799Y-18429915D01*
X12492847Y-18420391D01*
X12521418Y-18420391D01*
X12540466Y-18429915D01*
X12616656Y-18629915D02*
X12626180Y-18620391D01*
X12645228Y-18591820D01*
X12654752Y-18572772D01*
X12664276Y-18544201D01*
X12673799Y-18496582D01*
X12673799Y-18458486D01*
X12664276Y-18410867D01*
X12654752Y-18382296D01*
X12645228Y-18363248D01*
X12626180Y-18334677D01*
X12616656Y-18325153D01*
X7744752Y-18683248D02*
X7744752Y-18883248D01*
X7644752Y-18783248D02*
X7844752Y-18783248D01*
X7844752Y-18783248D02*
G75*
G03*
X7844752Y-18783248I-100000J0D01*
G01*
X8188085Y-18740391D02*
X8188085Y-18873724D01*
X8140466Y-18664201D02*
X8092847Y-18807058D01*
X8216656Y-18807058D01*
X8292847Y-18854677D02*
X8302371Y-18864201D01*
X8292847Y-18873724D01*
X8283323Y-18864201D01*
X8292847Y-18854677D01*
X8292847Y-18873724D01*
X8483323Y-18673724D02*
X8388085Y-18673724D01*
X8378561Y-18768962D01*
X8388085Y-18759439D01*
X8407133Y-18749915D01*
X8454752Y-18749915D01*
X8473799Y-18759439D01*
X8483323Y-18768962D01*
X8492847Y-18788010D01*
X8492847Y-18835629D01*
X8483323Y-18854677D01*
X8473799Y-18864201D01*
X8454752Y-18873724D01*
X8407133Y-18873724D01*
X8388085Y-18864201D01*
X8378561Y-18854677D01*
X8616657Y-18673724D02*
X8635704Y-18673724D01*
X8654752Y-18683248D01*
X8664276Y-18692772D01*
X8673799Y-18711820D01*
X8683323Y-18749915D01*
X8683323Y-18797534D01*
X8673799Y-18835629D01*
X8664276Y-18854677D01*
X8654752Y-18864201D01*
X8635704Y-18873724D01*
X8616657Y-18873724D01*
X8597609Y-18864201D01*
X8588085Y-18854677D01*
X8578561Y-18835629D01*
X8569038Y-18797534D01*
X8569038Y-18749915D01*
X8578561Y-18711820D01*
X8588085Y-18692772D01*
X8597609Y-18683248D01*
X8616657Y-18673724D01*
X8807133Y-18673724D02*
X8826180Y-18673724D01*
X8845228Y-18683248D01*
X8854752Y-18692772D01*
X8864276Y-18711820D01*
X8873799Y-18749915D01*
X8873799Y-18797534D01*
X8864276Y-18835629D01*
X8854752Y-18854677D01*
X8845228Y-18864201D01*
X8826180Y-18873724D01*
X8807133Y-18873724D01*
X8788085Y-18864201D01*
X8778561Y-18854677D01*
X8769038Y-18835629D01*
X8759514Y-18797534D01*
X8759514Y-18749915D01*
X8769038Y-18711820D01*
X8778561Y-18692772D01*
X8788085Y-18683248D01*
X8807133Y-18673724D01*
X8959514Y-18873724D02*
X8959514Y-18740391D01*
X8959514Y-18759439D02*
X8969038Y-18749915D01*
X8988085Y-18740391D01*
X9016657Y-18740391D01*
X9035704Y-18749915D01*
X9045228Y-18768962D01*
X9045228Y-18873724D01*
X9045228Y-18768962D02*
X9054752Y-18749915D01*
X9073799Y-18740391D01*
X9102371Y-18740391D01*
X9121418Y-18749915D01*
X9130942Y-18768962D01*
X9130942Y-18873724D01*
X9226180Y-18873724D02*
X9226180Y-18740391D01*
X9226180Y-18759439D02*
X9235704Y-18749915D01*
X9254752Y-18740391D01*
X9283323Y-18740391D01*
X9302371Y-18749915D01*
X9311895Y-18768962D01*
X9311895Y-18873724D01*
X9311895Y-18768962D02*
X9321418Y-18749915D01*
X9340466Y-18740391D01*
X9369038Y-18740391D01*
X9388085Y-18749915D01*
X9397609Y-18768962D01*
X9397609Y-18873724D01*
X9788085Y-18664201D02*
X9616657Y-18921343D01*
X10045228Y-18673724D02*
X10064276Y-18673724D01*
X10083323Y-18683248D01*
X10092847Y-18692772D01*
X10102371Y-18711820D01*
X10111895Y-18749915D01*
X10111895Y-18797534D01*
X10102371Y-18835629D01*
X10092847Y-18854677D01*
X10083323Y-18864201D01*
X10064276Y-18873724D01*
X10045228Y-18873724D01*
X10026180Y-18864201D01*
X10016657Y-18854677D01*
X10007133Y-18835629D01*
X9997609Y-18797534D01*
X9997609Y-18749915D01*
X10007133Y-18711820D01*
X10016657Y-18692772D01*
X10026180Y-18683248D01*
X10045228Y-18673724D01*
X10197609Y-18854677D02*
X10207133Y-18864201D01*
X10197609Y-18873724D01*
X10188085Y-18864201D01*
X10197609Y-18854677D01*
X10197609Y-18873724D01*
X10397609Y-18873724D02*
X10283323Y-18873724D01*
X10340466Y-18873724D02*
X10340466Y-18673724D01*
X10321418Y-18702296D01*
X10302371Y-18721343D01*
X10283323Y-18730867D01*
X10464276Y-18673724D02*
X10597609Y-18673724D01*
X10511895Y-18873724D01*
X10654752Y-18673724D02*
X10788085Y-18673724D01*
X10702371Y-18873724D01*
X10854752Y-18692772D02*
X10864276Y-18683248D01*
X10883323Y-18673724D01*
X10930942Y-18673724D01*
X10949990Y-18683248D01*
X10959514Y-18692772D01*
X10969038Y-18711820D01*
X10969038Y-18730867D01*
X10959514Y-18759439D01*
X10845228Y-18873724D01*
X10969038Y-18873724D01*
X11045228Y-18673724D02*
X11045228Y-18711820D01*
X11121418Y-18673724D02*
X11121418Y-18711820D01*
X11416656Y-18949915D02*
X11407133Y-18940391D01*
X11388085Y-18911820D01*
X11378561Y-18892772D01*
X11369037Y-18864201D01*
X11359514Y-18816582D01*
X11359514Y-18778486D01*
X11369037Y-18730867D01*
X11378561Y-18702296D01*
X11388085Y-18683248D01*
X11407133Y-18654677D01*
X11416656Y-18645153D01*
X11483323Y-18692772D02*
X11492847Y-18683248D01*
X11511895Y-18673724D01*
X11559514Y-18673724D01*
X11578561Y-18683248D01*
X11588085Y-18692772D01*
X11597609Y-18711820D01*
X11597609Y-18730867D01*
X11588085Y-18759439D01*
X11473799Y-18873724D01*
X11597609Y-18873724D01*
X11835704Y-18873724D02*
X11835704Y-18673724D01*
X11921418Y-18873724D02*
X11921418Y-18768962D01*
X11911895Y-18749915D01*
X11892847Y-18740391D01*
X11864276Y-18740391D01*
X11845228Y-18749915D01*
X11835704Y-18759439D01*
X12045228Y-18873724D02*
X12026180Y-18864201D01*
X12016656Y-18854677D01*
X12007133Y-18835629D01*
X12007133Y-18778486D01*
X12016656Y-18759439D01*
X12026180Y-18749915D01*
X12045228Y-18740391D01*
X12073799Y-18740391D01*
X12092847Y-18749915D01*
X12102371Y-18759439D01*
X12111895Y-18778486D01*
X12111895Y-18835629D01*
X12102371Y-18854677D01*
X12092847Y-18864201D01*
X12073799Y-18873724D01*
X12045228Y-18873724D01*
X12226180Y-18873724D02*
X12207133Y-18864201D01*
X12197609Y-18845153D01*
X12197609Y-18673724D01*
X12378561Y-18864201D02*
X12359514Y-18873724D01*
X12321418Y-18873724D01*
X12302371Y-18864201D01*
X12292847Y-18845153D01*
X12292847Y-18768962D01*
X12302371Y-18749915D01*
X12321418Y-18740391D01*
X12359514Y-18740391D01*
X12378561Y-18749915D01*
X12388085Y-18768962D01*
X12388085Y-18788010D01*
X12292847Y-18807058D01*
X12464276Y-18864201D02*
X12483323Y-18873724D01*
X12521418Y-18873724D01*
X12540466Y-18864201D01*
X12549990Y-18845153D01*
X12549990Y-18835629D01*
X12540466Y-18816582D01*
X12521418Y-18807058D01*
X12492847Y-18807058D01*
X12473799Y-18797534D01*
X12464276Y-18778486D01*
X12464276Y-18768962D01*
X12473799Y-18749915D01*
X12492847Y-18740391D01*
X12521418Y-18740391D01*
X12540466Y-18749915D01*
X12616656Y-18949915D02*
X12626180Y-18940391D01*
X12645228Y-18911820D01*
X12654752Y-18892772D01*
X12664276Y-18864201D01*
X12673799Y-18816582D01*
X12673799Y-18778486D01*
X12664276Y-18730867D01*
X12654752Y-18702296D01*
X12645228Y-18683248D01*
X12626180Y-18654677D01*
X12616656Y-18645153D01*
X7815463Y-19173960D02*
X7815463Y-19032537D01*
X7674040Y-19032537D01*
X7674040Y-19173960D01*
X7815463Y-19173960D01*
X7844752Y-19103248D02*
G75*
G03*
X7844752Y-19103248I-100000J0D01*
G01*
X8197609Y-18993724D02*
X8102371Y-18993724D01*
X8092847Y-19088962D01*
X8102371Y-19079439D01*
X8121418Y-19069915D01*
X8169037Y-19069915D01*
X8188085Y-19079439D01*
X8197609Y-19088962D01*
X8207133Y-19108010D01*
X8207133Y-19155629D01*
X8197609Y-19174677D01*
X8188085Y-19184201D01*
X8169037Y-19193724D01*
X8121418Y-19193724D01*
X8102371Y-19184201D01*
X8092847Y-19174677D01*
X8292847Y-19174677D02*
X8302371Y-19184201D01*
X8292847Y-19193724D01*
X8283323Y-19184201D01*
X8292847Y-19174677D01*
X8292847Y-19193724D01*
X8426180Y-18993724D02*
X8445228Y-18993724D01*
X8464276Y-19003248D01*
X8473799Y-19012772D01*
X8483323Y-19031820D01*
X8492847Y-19069915D01*
X8492847Y-19117534D01*
X8483323Y-19155629D01*
X8473799Y-19174677D01*
X8464276Y-19184201D01*
X8445228Y-19193724D01*
X8426180Y-19193724D01*
X8407133Y-19184201D01*
X8397609Y-19174677D01*
X8388085Y-19155629D01*
X8378561Y-19117534D01*
X8378561Y-19069915D01*
X8388085Y-19031820D01*
X8397609Y-19012772D01*
X8407133Y-19003248D01*
X8426180Y-18993724D01*
X8616657Y-18993724D02*
X8635704Y-18993724D01*
X8654752Y-19003248D01*
X8664276Y-19012772D01*
X8673799Y-19031820D01*
X8683323Y-19069915D01*
X8683323Y-19117534D01*
X8673799Y-19155629D01*
X8664276Y-19174677D01*
X8654752Y-19184201D01*
X8635704Y-19193724D01*
X8616657Y-19193724D01*
X8597609Y-19184201D01*
X8588085Y-19174677D01*
X8578561Y-19155629D01*
X8569038Y-19117534D01*
X8569038Y-19069915D01*
X8578561Y-19031820D01*
X8588085Y-19012772D01*
X8597609Y-19003248D01*
X8616657Y-18993724D01*
X8807133Y-18993724D02*
X8826180Y-18993724D01*
X8845228Y-19003248D01*
X8854752Y-19012772D01*
X8864276Y-19031820D01*
X8873799Y-19069915D01*
X8873799Y-19117534D01*
X8864276Y-19155629D01*
X8854752Y-19174677D01*
X8845228Y-19184201D01*
X8826180Y-19193724D01*
X8807133Y-19193724D01*
X8788085Y-19184201D01*
X8778561Y-19174677D01*
X8769038Y-19155629D01*
X8759514Y-19117534D01*
X8759514Y-19069915D01*
X8769038Y-19031820D01*
X8778561Y-19012772D01*
X8788085Y-19003248D01*
X8807133Y-18993724D01*
X8959514Y-19193724D02*
X8959514Y-19060391D01*
X8959514Y-19079439D02*
X8969038Y-19069915D01*
X8988085Y-19060391D01*
X9016657Y-19060391D01*
X9035704Y-19069915D01*
X9045228Y-19088962D01*
X9045228Y-19193724D01*
X9045228Y-19088962D02*
X9054752Y-19069915D01*
X9073799Y-19060391D01*
X9102371Y-19060391D01*
X9121418Y-19069915D01*
X9130942Y-19088962D01*
X9130942Y-19193724D01*
X9226180Y-19193724D02*
X9226180Y-19060391D01*
X9226180Y-19079439D02*
X9235704Y-19069915D01*
X9254752Y-19060391D01*
X9283323Y-19060391D01*
X9302371Y-19069915D01*
X9311895Y-19088962D01*
X9311895Y-19193724D01*
X9311895Y-19088962D02*
X9321418Y-19069915D01*
X9340466Y-19060391D01*
X9369038Y-19060391D01*
X9388085Y-19069915D01*
X9397609Y-19088962D01*
X9397609Y-19193724D01*
X9788085Y-18984201D02*
X9616657Y-19241343D01*
X10045228Y-18993724D02*
X10064276Y-18993724D01*
X10083323Y-19003248D01*
X10092847Y-19012772D01*
X10102371Y-19031820D01*
X10111895Y-19069915D01*
X10111895Y-19117534D01*
X10102371Y-19155629D01*
X10092847Y-19174677D01*
X10083323Y-19184201D01*
X10064276Y-19193724D01*
X10045228Y-19193724D01*
X10026180Y-19184201D01*
X10016657Y-19174677D01*
X10007133Y-19155629D01*
X9997609Y-19117534D01*
X9997609Y-19069915D01*
X10007133Y-19031820D01*
X10016657Y-19012772D01*
X10026180Y-19003248D01*
X10045228Y-18993724D01*
X10197609Y-19174677D02*
X10207133Y-19184201D01*
X10197609Y-19193724D01*
X10188085Y-19184201D01*
X10197609Y-19174677D01*
X10197609Y-19193724D01*
X10397609Y-19193724D02*
X10283323Y-19193724D01*
X10340466Y-19193724D02*
X10340466Y-18993724D01*
X10321418Y-19022296D01*
X10302371Y-19041343D01*
X10283323Y-19050867D01*
X10492847Y-19193724D02*
X10530942Y-19193724D01*
X10549990Y-19184201D01*
X10559514Y-19174677D01*
X10578561Y-19146105D01*
X10588085Y-19108010D01*
X10588085Y-19031820D01*
X10578561Y-19012772D01*
X10569038Y-19003248D01*
X10549990Y-18993724D01*
X10511895Y-18993724D01*
X10492847Y-19003248D01*
X10483323Y-19012772D01*
X10473799Y-19031820D01*
X10473799Y-19079439D01*
X10483323Y-19098486D01*
X10492847Y-19108010D01*
X10511895Y-19117534D01*
X10549990Y-19117534D01*
X10569038Y-19108010D01*
X10578561Y-19098486D01*
X10588085Y-19079439D01*
X10759514Y-18993724D02*
X10721418Y-18993724D01*
X10702371Y-19003248D01*
X10692847Y-19012772D01*
X10673799Y-19041343D01*
X10664276Y-19079439D01*
X10664276Y-19155629D01*
X10673799Y-19174677D01*
X10683323Y-19184201D01*
X10702371Y-19193724D01*
X10740466Y-19193724D01*
X10759514Y-19184201D01*
X10769038Y-19174677D01*
X10778561Y-19155629D01*
X10778561Y-19108010D01*
X10769038Y-19088962D01*
X10759514Y-19079439D01*
X10740466Y-19069915D01*
X10702371Y-19069915D01*
X10683323Y-19079439D01*
X10673799Y-19088962D01*
X10664276Y-19108010D01*
X10873799Y-19193724D02*
X10911895Y-19193724D01*
X10930942Y-19184201D01*
X10940466Y-19174677D01*
X10959514Y-19146105D01*
X10969038Y-19108010D01*
X10969038Y-19031820D01*
X10959514Y-19012772D01*
X10949990Y-19003248D01*
X10930942Y-18993724D01*
X10892847Y-18993724D01*
X10873799Y-19003248D01*
X10864276Y-19012772D01*
X10854752Y-19031820D01*
X10854752Y-19079439D01*
X10864276Y-19098486D01*
X10873799Y-19108010D01*
X10892847Y-19117534D01*
X10930942Y-19117534D01*
X10949990Y-19108010D01*
X10959514Y-19098486D01*
X10969038Y-19079439D01*
X11045228Y-18993724D02*
X11045228Y-19031820D01*
X11121418Y-18993724D02*
X11121418Y-19031820D01*
X11416656Y-19269915D02*
X11407133Y-19260391D01*
X11388085Y-19231820D01*
X11378561Y-19212772D01*
X11369037Y-19184201D01*
X11359514Y-19136582D01*
X11359514Y-19098486D01*
X11369037Y-19050867D01*
X11378561Y-19022296D01*
X11388085Y-19003248D01*
X11407133Y-18974677D01*
X11416656Y-18965153D01*
X11521418Y-19079439D02*
X11502371Y-19069915D01*
X11492847Y-19060391D01*
X11483323Y-19041343D01*
X11483323Y-19031820D01*
X11492847Y-19012772D01*
X11502371Y-19003248D01*
X11521418Y-18993724D01*
X11559514Y-18993724D01*
X11578561Y-19003248D01*
X11588085Y-19012772D01*
X11597609Y-19031820D01*
X11597609Y-19041343D01*
X11588085Y-19060391D01*
X11578561Y-19069915D01*
X11559514Y-19079439D01*
X11521418Y-19079439D01*
X11502371Y-19088962D01*
X11492847Y-19098486D01*
X11483323Y-19117534D01*
X11483323Y-19155629D01*
X11492847Y-19174677D01*
X11502371Y-19184201D01*
X11521418Y-19193724D01*
X11559514Y-19193724D01*
X11578561Y-19184201D01*
X11588085Y-19174677D01*
X11597609Y-19155629D01*
X11597609Y-19117534D01*
X11588085Y-19098486D01*
X11578561Y-19088962D01*
X11559514Y-19079439D01*
X11835704Y-19193724D02*
X11835704Y-18993724D01*
X11921418Y-19193724D02*
X11921418Y-19088962D01*
X11911895Y-19069915D01*
X11892847Y-19060391D01*
X11864276Y-19060391D01*
X11845228Y-19069915D01*
X11835704Y-19079439D01*
X12045228Y-19193724D02*
X12026180Y-19184201D01*
X12016656Y-19174677D01*
X12007133Y-19155629D01*
X12007133Y-19098486D01*
X12016656Y-19079439D01*
X12026180Y-19069915D01*
X12045228Y-19060391D01*
X12073799Y-19060391D01*
X12092847Y-19069915D01*
X12102371Y-19079439D01*
X12111895Y-19098486D01*
X12111895Y-19155629D01*
X12102371Y-19174677D01*
X12092847Y-19184201D01*
X12073799Y-19193724D01*
X12045228Y-19193724D01*
X12226180Y-19193724D02*
X12207133Y-19184201D01*
X12197609Y-19165153D01*
X12197609Y-18993724D01*
X12378561Y-19184201D02*
X12359514Y-19193724D01*
X12321418Y-19193724D01*
X12302371Y-19184201D01*
X12292847Y-19165153D01*
X12292847Y-19088962D01*
X12302371Y-19069915D01*
X12321418Y-19060391D01*
X12359514Y-19060391D01*
X12378561Y-19069915D01*
X12388085Y-19088962D01*
X12388085Y-19108010D01*
X12292847Y-19127058D01*
X12464276Y-19184201D02*
X12483323Y-19193724D01*
X12521418Y-19193724D01*
X12540466Y-19184201D01*
X12549990Y-19165153D01*
X12549990Y-19155629D01*
X12540466Y-19136582D01*
X12521418Y-19127058D01*
X12492847Y-19127058D01*
X12473799Y-19117534D01*
X12464276Y-19098486D01*
X12464276Y-19088962D01*
X12473799Y-19069915D01*
X12492847Y-19060391D01*
X12521418Y-19060391D01*
X12540466Y-19069915D01*
X12616656Y-19269915D02*
X12626180Y-19260391D01*
X12645228Y-19231820D01*
X12654752Y-19212772D01*
X12664276Y-19184201D01*
X12673799Y-19136582D01*
X12673799Y-19098486D01*
X12664276Y-19050867D01*
X12654752Y-19022296D01*
X12645228Y-19003248D01*
X12626180Y-18974677D01*
X12616656Y-18965153D01*
M02*
