%TF.GenerationSoftware,KiCad,Pcbnew,(6.0.9)*%
%TF.CreationDate,2022-12-10T13:22:31-05:00*%
%TF.ProjectId,Team5_Coaster,5465616d-355f-4436-9f61-737465722e6b,rev?*%
%TF.SameCoordinates,Original*%
%TF.FileFunction,Copper,L2,Bot*%
%TF.FilePolarity,Positive*%
%FSLAX46Y46*%
G04 Gerber Fmt 4.6, Leading zero omitted, Abs format (unit mm)*
G04 Created by KiCad (PCBNEW (6.0.9)) date 2022-12-10 13:22:31*
%MOMM*%
%LPD*%
G01*
G04 APERTURE LIST*
G04 Aperture macros list*
%AMRoundRect*
0 Rectangle with rounded corners*
0 $1 Rounding radius*
0 $2 $3 $4 $5 $6 $7 $8 $9 X,Y pos of 4 corners*
0 Add a 4 corners polygon primitive as box body*
4,1,4,$2,$3,$4,$5,$6,$7,$8,$9,$2,$3,0*
0 Add four circle primitives for the rounded corners*
1,1,$1+$1,$2,$3*
1,1,$1+$1,$4,$5*
1,1,$1+$1,$6,$7*
1,1,$1+$1,$8,$9*
0 Add four rect primitives between the rounded corners*
20,1,$1+$1,$2,$3,$4,$5,0*
20,1,$1+$1,$4,$5,$6,$7,0*
20,1,$1+$1,$6,$7,$8,$9,0*
20,1,$1+$1,$8,$9,$2,$3,0*%
G04 Aperture macros list end*
%TA.AperFunction,ComponentPad*%
%ADD10R,1.700000X1.700000*%
%TD*%
%TA.AperFunction,ComponentPad*%
%ADD11O,1.700000X1.700000*%
%TD*%
%TA.AperFunction,ComponentPad*%
%ADD12C,0.900000*%
%TD*%
%TA.AperFunction,ComponentPad*%
%ADD13C,8.600000*%
%TD*%
%TA.AperFunction,ComponentPad*%
%ADD14R,2.794000X2.794000*%
%TD*%
%TA.AperFunction,ComponentPad*%
%ADD15C,2.794000*%
%TD*%
%TA.AperFunction,ComponentPad*%
%ADD16R,2.000000X2.000000*%
%TD*%
%TA.AperFunction,ComponentPad*%
%ADD17O,2.000000X2.000000*%
%TD*%
%TA.AperFunction,ComponentPad*%
%ADD18C,2.000000*%
%TD*%
%TA.AperFunction,ComponentPad*%
%ADD19C,6.000000*%
%TD*%
%TA.AperFunction,ComponentPad*%
%ADD20O,1.905000X2.000000*%
%TD*%
%TA.AperFunction,ComponentPad*%
%ADD21R,1.905000X2.000000*%
%TD*%
%TA.AperFunction,ComponentPad*%
%ADD22RoundRect,1.500000X-1.500000X-1.500000X1.500000X-1.500000X1.500000X1.500000X-1.500000X1.500000X0*%
%TD*%
%TA.AperFunction,ViaPad*%
%ADD23C,0.650000*%
%TD*%
%TA.AperFunction,Conductor*%
%ADD24C,4.000000*%
%TD*%
%TA.AperFunction,Conductor*%
%ADD25C,2.700000*%
%TD*%
%TA.AperFunction,Conductor*%
%ADD26C,6.000000*%
%TD*%
%TA.AperFunction,Conductor*%
%ADD27C,0.900000*%
%TD*%
%TA.AperFunction,Conductor*%
%ADD28C,0.800000*%
%TD*%
%TA.AperFunction,Conductor*%
%ADD29C,0.600000*%
%TD*%
G04 APERTURE END LIST*
D10*
%TO.P,RF1,1,IN1*%
%TO.N,RF1*%
X147000000Y-67200000D03*
D11*
%TO.P,RF1,2,IN2*%
%TO.N,RF2*%
X147000000Y-69740000D03*
%TO.P,RF1,3,VM*%
%TO.N,+10V*%
X147000000Y-72280000D03*
%TO.P,RF1,4,GND*%
%TO.N,GND*%
X147000000Y-74820000D03*
%TD*%
D12*
%TO.P,H1,1,1*%
%TO.N,GND*%
X124000000Y-100225000D03*
X126280419Y-99280419D03*
X124000000Y-93775000D03*
X121719581Y-99280419D03*
X120775000Y-97000000D03*
X127225000Y-97000000D03*
X121719581Y-94719581D03*
D13*
X124000000Y-97000000D03*
D12*
X126280419Y-94719581D03*
%TD*%
D14*
%TO.P,SW1,1,A*%
%TO.N,VCC*%
X121000000Y-122000000D03*
D15*
%TO.P,SW1,2,B*%
%TO.N,Net-(D1-Pad2)*%
X121000000Y-126699000D03*
%TO.P,SW1,3,C*%
%TO.N,unconnected-(SW1-Pad3)*%
X121000000Y-131398000D03*
%TD*%
D10*
%TO.P,J13,1,Pin_1*%
%TO.N,+3V3*%
X115000000Y-54000000D03*
D11*
%TO.P,J13,2,Pin_2*%
%TO.N,GND*%
X112460000Y-54000000D03*
%TD*%
D10*
%TO.P,J4,1,Pin_1*%
%TO.N,VSYS*%
X137000000Y-54000000D03*
D11*
%TO.P,J4,2,Pin_2*%
%TO.N,GND*%
X134460000Y-54000000D03*
%TD*%
D16*
%TO.P,D1,1,K*%
%TO.N,+10V*%
X131000000Y-121460000D03*
D17*
%TO.P,D1,2,A*%
%TO.N,Net-(D1-Pad2)*%
X131000000Y-126540000D03*
%TD*%
D12*
%TO.P,H2,1,1*%
%TO.N,GND*%
X143775000Y-56000000D03*
X149280419Y-53719581D03*
X149280419Y-58280419D03*
X147000000Y-59225000D03*
X144719581Y-58280419D03*
D13*
X147000000Y-56000000D03*
D12*
X150225000Y-56000000D03*
X144719581Y-53719581D03*
X147000000Y-52775000D03*
%TD*%
D16*
%TO.P,C1,1*%
%TO.N,+10V*%
X142000000Y-113000000D03*
D18*
%TO.P,C1,2*%
%TO.N,GND*%
X147000000Y-113000000D03*
%TD*%
D19*
%TO.P,J5,1,Pin_1*%
%TO.N,GND*%
X124000000Y-74000000D03*
%TD*%
D20*
%TO.P,U2,3,VO*%
%TO.N,+10V*%
X127080000Y-86000000D03*
%TO.P,U2,2,VI*%
%TO.N,VSYS*%
X124540000Y-86000000D03*
D21*
%TO.P,U2,1,GND*%
%TO.N,GND*%
X122000000Y-86000000D03*
%TD*%
D10*
%TO.P,J2,1,Pin_1*%
%TO.N,unconnected-(J2-Pad1)*%
X119675000Y-113975000D03*
D11*
%TO.P,J2,2,Pin_2*%
%TO.N,+3V3*%
X122215000Y-113975000D03*
%TO.P,J2,3,Pin_3*%
%TO.N,GND*%
X124755000Y-113975000D03*
%TO.P,J2,4,Pin_4*%
%TO.N,RX*%
X127295000Y-113975000D03*
%TO.P,J2,5,Pin_5*%
%TO.N,TX*%
X129835000Y-113975000D03*
%TO.P,J2,6,Pin_6*%
%TO.N,unconnected-(J2-Pad6)*%
X132375000Y-113975000D03*
%TD*%
D22*
%TO.P,J1,1,Pin_1*%
%TO.N,GND*%
X103900000Y-130000000D03*
D19*
%TO.P,J1,2,Pin_2*%
%TO.N,VCC*%
X111100000Y-130000000D03*
%TD*%
D12*
%TO.P,H3,1,1*%
%TO.N,GND*%
X105280419Y-53719581D03*
X103000000Y-59225000D03*
X105280419Y-58280419D03*
X100719581Y-53719581D03*
X99775000Y-56000000D03*
D13*
X103000000Y-56000000D03*
D12*
X100719581Y-58280419D03*
X103000000Y-52775000D03*
X106225000Y-56000000D03*
%TD*%
D10*
%TO.P,J6,1,Pin_1*%
%TO.N,GND*%
X102000000Y-120500000D03*
D11*
%TO.P,J6,2,Pin_2*%
%TO.N,VCC*%
X104540000Y-120500000D03*
%TD*%
D10*
%TO.P,LB1,1,IN1*%
%TO.N,LB1*%
X103000000Y-98620000D03*
D11*
%TO.P,LB1,2,IN2*%
%TO.N,LB2*%
X103000000Y-96080000D03*
%TO.P,LB1,3,VM*%
%TO.N,+10V*%
X103000000Y-93540000D03*
%TO.P,LB1,4,GND*%
%TO.N,GND*%
X103000000Y-91000000D03*
%TD*%
D10*
%TO.P,LF1,1,IN1*%
%TO.N,LF1*%
X103000000Y-74800000D03*
D11*
%TO.P,LF1,2,IN2*%
%TO.N,LF2*%
X103000000Y-72260000D03*
%TO.P,LF1,3,VM*%
%TO.N,+10V*%
X103000000Y-69720000D03*
%TO.P,LF1,4,GND*%
%TO.N,GND*%
X103000000Y-67180000D03*
%TD*%
D19*
%TO.P,J3,1,Pin_1*%
%TO.N,+10V*%
X107000000Y-113000000D03*
%TD*%
D10*
%TO.P,RB1,1,IN1*%
%TO.N,RB1*%
X147000000Y-91000000D03*
D11*
%TO.P,RB1,2,IN2*%
%TO.N,RB2*%
X147000000Y-93540000D03*
%TO.P,RB1,3,VM*%
%TO.N,+10V*%
X147000000Y-96080000D03*
%TO.P,RB1,4,GND*%
%TO.N,GND*%
X147000000Y-98620000D03*
%TD*%
%TO.P,U1,40,VBUS*%
%TO.N,unconnected-(U1-Pad40)*%
X133525000Y-58855000D03*
%TO.P,U1,39,VSYS*%
%TO.N,VSYS*%
X133525000Y-61395000D03*
D10*
%TO.P,U1,38,GND*%
%TO.N,GND*%
X133525000Y-63935000D03*
D11*
%TO.P,U1,37,3V3_EN*%
%TO.N,unconnected-(U1-Pad37)*%
X133525000Y-66475000D03*
%TO.P,U1,36,3V3*%
%TO.N,+3V3*%
X133525000Y-69015000D03*
%TO.P,U1,35,ADC_VREF*%
%TO.N,unconnected-(U1-Pad35)*%
X133525000Y-71555000D03*
%TO.P,U1,34,GPIO28_ADC2*%
%TO.N,unconnected-(U1-Pad34)*%
X133525000Y-74095000D03*
D10*
%TO.P,U1,33,AGND*%
%TO.N,unconnected-(U1-Pad33)*%
X133525000Y-76635000D03*
D11*
%TO.P,U1,32,GPIO27_ADC1*%
%TO.N,unconnected-(U1-Pad32)*%
X133525000Y-79175000D03*
%TO.P,U1,31,GPIO26_ADC0*%
%TO.N,unconnected-(U1-Pad31)*%
X133525000Y-81715000D03*
%TO.P,U1,30,RUN*%
%TO.N,unconnected-(U1-Pad30)*%
X133525000Y-84255000D03*
%TO.P,U1,29,GPIO22*%
%TO.N,unconnected-(U1-Pad29)*%
X133525000Y-86795000D03*
D10*
%TO.P,U1,28,GND*%
%TO.N,GND*%
X133525000Y-89335000D03*
D11*
%TO.P,U1,27,GPIO21*%
%TO.N,RF1*%
X133525000Y-91875000D03*
%TO.P,U1,26,GPIO20*%
%TO.N,RF2*%
X133525000Y-94415000D03*
%TO.P,U1,25,GPIO19*%
%TO.N,RB1*%
X133525000Y-96955000D03*
%TO.P,U1,24,GPIO18*%
%TO.N,RB2*%
X133525000Y-99495000D03*
D10*
%TO.P,U1,23,GND*%
%TO.N,GND*%
X133525000Y-102035000D03*
D11*
%TO.P,U1,22,GPIO17*%
%TO.N,RX*%
X133525000Y-104575000D03*
%TO.P,U1,21,GPIO16*%
%TO.N,TX*%
X133525000Y-107115000D03*
%TO.P,U1,20,GPIO15*%
%TO.N,unconnected-(U1-Pad20)*%
X115745000Y-107115000D03*
%TO.P,U1,19,GPIO14*%
%TO.N,unconnected-(U1-Pad19)*%
X115745000Y-104575000D03*
D10*
%TO.P,U1,18,GND*%
%TO.N,GND*%
X115745000Y-102035000D03*
D11*
%TO.P,U1,17,GPIO13*%
%TO.N,LB1*%
X115745000Y-99495000D03*
%TO.P,U1,16,GPIO12*%
%TO.N,LB2*%
X115745000Y-96955000D03*
%TO.P,U1,15,GPIO11*%
%TO.N,LF1*%
X115745000Y-94415000D03*
%TO.P,U1,14,GPIO10*%
%TO.N,LF2*%
X115745000Y-91875000D03*
D10*
%TO.P,U1,13,GND*%
%TO.N,GND*%
X115745000Y-89335000D03*
D11*
%TO.P,U1,12,GPIO9*%
%TO.N,unconnected-(U1-Pad12)*%
X115745000Y-86795000D03*
%TO.P,U1,11,GPIO8*%
%TO.N,unconnected-(U1-Pad11)*%
X115745000Y-84255000D03*
%TO.P,U1,10,GPIO7*%
%TO.N,unconnected-(U1-Pad10)*%
X115745000Y-81715000D03*
%TO.P,U1,9,GPIO6*%
%TO.N,unconnected-(U1-Pad9)*%
X115745000Y-79175000D03*
D10*
%TO.P,U1,8,GND*%
%TO.N,GND*%
X115745000Y-76635000D03*
D11*
%TO.P,U1,7,GPIO5*%
%TO.N,unconnected-(U1-Pad7)*%
X115745000Y-74095000D03*
%TO.P,U1,6,GPIO4*%
%TO.N,unconnected-(U1-Pad6)*%
X115745000Y-71555000D03*
%TO.P,U1,5,GPIO3*%
%TO.N,unconnected-(U1-Pad5)*%
X115745000Y-69015000D03*
%TO.P,U1,4,GPIO2*%
%TO.N,unconnected-(U1-Pad4)*%
X115745000Y-66475000D03*
D10*
%TO.P,U1,3,GND*%
%TO.N,GND*%
X115745000Y-63935000D03*
D11*
%TO.P,U1,2,GPIO1*%
%TO.N,unconnected-(U1-Pad2)*%
X115745000Y-61395000D03*
%TO.P,U1,1,GPIO0*%
%TO.N,unconnected-(U1-Pad1)*%
X115745000Y-58855000D03*
%TD*%
D23*
%TO.N,GND*%
X137500000Y-101500000D03*
X137500000Y-102500000D03*
X137500000Y-103500000D03*
X137500000Y-106500000D03*
X137500000Y-107500000D03*
X137500000Y-105500000D03*
X137500000Y-104500000D03*
X130250000Y-62500000D03*
X130250000Y-63500000D03*
X130250000Y-61500000D03*
X130250000Y-60500000D03*
X130250000Y-66500000D03*
X130250000Y-67500000D03*
X130250000Y-65500000D03*
X130250000Y-64500000D03*
X129250000Y-80500000D03*
X129250000Y-81500000D03*
X129250000Y-79500000D03*
X129250000Y-78500000D03*
X129250000Y-76500000D03*
X129250000Y-77500000D03*
X129250000Y-75500000D03*
X129250000Y-74500000D03*
X129250000Y-72500000D03*
X129250000Y-73500000D03*
X129250000Y-71500000D03*
X129250000Y-70500000D03*
X137500000Y-74000000D03*
X137500000Y-71000000D03*
X137500000Y-69000000D03*
X137500000Y-77000000D03*
X137500000Y-79000000D03*
X137500000Y-80000000D03*
X137500000Y-68000000D03*
X137500000Y-64000000D03*
X137500000Y-76000000D03*
X137500000Y-78000000D03*
X137500000Y-67000000D03*
X137500000Y-81000000D03*
X137500000Y-75000000D03*
X137500000Y-73000000D03*
X137500000Y-72000000D03*
X137500000Y-82000000D03*
X137500000Y-83000000D03*
X137500000Y-65000000D03*
X137500000Y-66000000D03*
X137500000Y-70000000D03*
X118000000Y-88000000D03*
X118000000Y-85000000D03*
X118000000Y-83000000D03*
X118000000Y-91000000D03*
X118000000Y-93000000D03*
X118000000Y-94000000D03*
X118000000Y-82000000D03*
X118000000Y-78000000D03*
X118000000Y-90000000D03*
X118000000Y-92000000D03*
X118000000Y-81000000D03*
X118000000Y-95000000D03*
X118000000Y-89000000D03*
X118000000Y-87000000D03*
X118000000Y-86000000D03*
X118000000Y-96000000D03*
X118000000Y-97000000D03*
X118000000Y-79000000D03*
X118000000Y-80000000D03*
X118000000Y-84000000D03*
X149000000Y-91000000D03*
X101000000Y-100000000D03*
X110000000Y-52000000D03*
X101000000Y-93000000D03*
X116000000Y-52000000D03*
X149000000Y-92000000D03*
X103000000Y-77000000D03*
X118000000Y-64000000D03*
X101000000Y-71000000D03*
X149000000Y-100000000D03*
X149000000Y-71000000D03*
X146000000Y-77000000D03*
X105000000Y-66000000D03*
X102000000Y-77000000D03*
X146000000Y-101000000D03*
X113000000Y-52000000D03*
X135000000Y-52000000D03*
X133000000Y-52000000D03*
X132000000Y-54000000D03*
X110000000Y-53000000D03*
X136000000Y-52000000D03*
X148000000Y-89000000D03*
X145000000Y-101000000D03*
X132000000Y-52000000D03*
X138000000Y-52000000D03*
X149000000Y-67000000D03*
X103000000Y-89000000D03*
X101000000Y-69000000D03*
X104000000Y-101000000D03*
X118000000Y-58000000D03*
X118000000Y-61000000D03*
X139000000Y-52000000D03*
X101000000Y-66000000D03*
X149000000Y-76000000D03*
X146000000Y-89000000D03*
X134000000Y-56000000D03*
X111000000Y-52000000D03*
X149000000Y-95000000D03*
X145000000Y-65000000D03*
X149000000Y-89000000D03*
X115000000Y-52000000D03*
X149000000Y-65000000D03*
X118000000Y-66000000D03*
X135000000Y-56000000D03*
X117000000Y-52000000D03*
X149000000Y-94000000D03*
X101000000Y-65000000D03*
X102000000Y-89000000D03*
X118000000Y-60000000D03*
X118000000Y-70000000D03*
X149000000Y-69000000D03*
X101000000Y-89000000D03*
X139000000Y-56000000D03*
X149000000Y-70000000D03*
X101000000Y-77000000D03*
X111000000Y-56000000D03*
X147000000Y-77000000D03*
X118000000Y-75000000D03*
X110000000Y-56000000D03*
X147000000Y-101000000D03*
X149000000Y-72000000D03*
X113000000Y-56000000D03*
X132000000Y-56000000D03*
X118000000Y-69000000D03*
X145000000Y-75000000D03*
X118000000Y-67000000D03*
X149000000Y-99000000D03*
X101000000Y-91000000D03*
X118000000Y-72000000D03*
X114000000Y-52000000D03*
X133000000Y-56000000D03*
X149000000Y-90000000D03*
X149000000Y-75000000D03*
X118000000Y-59000000D03*
X114000000Y-56000000D03*
X101000000Y-96000000D03*
X104000000Y-77000000D03*
X101000000Y-70000000D03*
X145000000Y-100000000D03*
X149000000Y-98000000D03*
X118000000Y-62000000D03*
X117000000Y-56000000D03*
X148000000Y-77000000D03*
X118000000Y-77000000D03*
X149000000Y-77000000D03*
X118000000Y-76000000D03*
X149000000Y-74000000D03*
X149000000Y-68000000D03*
X110000000Y-54000000D03*
X138000000Y-56000000D03*
X101000000Y-75000000D03*
X105000000Y-67000000D03*
X101000000Y-90000000D03*
X105000000Y-65000000D03*
X101000000Y-72000000D03*
X132000000Y-55000000D03*
X118000000Y-63000000D03*
X146000000Y-65000000D03*
X116000000Y-56000000D03*
X102000000Y-65000000D03*
X101000000Y-94000000D03*
X101000000Y-99000000D03*
X101000000Y-98000000D03*
X101000000Y-67000000D03*
X103000000Y-101000000D03*
X139000000Y-53000000D03*
X149000000Y-96000000D03*
X101000000Y-101000000D03*
X145000000Y-99000000D03*
X118000000Y-74000000D03*
X118000000Y-65000000D03*
X139000000Y-54000000D03*
X102000000Y-101000000D03*
X112000000Y-56000000D03*
X101000000Y-73000000D03*
X101000000Y-76000000D03*
X101000000Y-97000000D03*
X145000000Y-77000000D03*
X115000000Y-56000000D03*
X118000000Y-71000000D03*
X137000000Y-52000000D03*
X112000000Y-52000000D03*
X147000000Y-65000000D03*
X147000000Y-89000000D03*
X101000000Y-95000000D03*
X139000000Y-55000000D03*
X149000000Y-66000000D03*
X101000000Y-92000000D03*
X104000000Y-89000000D03*
X149000000Y-97000000D03*
X118000000Y-73000000D03*
X145000000Y-66000000D03*
X103000000Y-65000000D03*
X132000000Y-53000000D03*
X145000000Y-76000000D03*
X104000000Y-65000000D03*
X101000000Y-74000000D03*
X148000000Y-65000000D03*
X149000000Y-101000000D03*
X149000000Y-73000000D03*
X148000000Y-101000000D03*
X118000000Y-68000000D03*
X134000000Y-52000000D03*
X101000000Y-68000000D03*
X149000000Y-93000000D03*
X110000000Y-55000000D03*
%TD*%
D24*
%TO.N,+10V*%
X142000000Y-96000000D02*
X142000000Y-72000000D01*
X107000000Y-113000000D02*
X107000000Y-94000000D01*
D25*
X103000000Y-93540000D02*
X106540000Y-93540000D01*
X147000000Y-72280000D02*
X142280000Y-72280000D01*
X103000000Y-69720000D02*
X106720000Y-69720000D01*
D24*
X142000000Y-113000000D02*
X142000000Y-96000000D01*
D25*
X147000000Y-96080000D02*
X142080000Y-96080000D01*
X142080000Y-96080000D02*
X142000000Y-96000000D01*
X106540000Y-93540000D02*
X107000000Y-94000000D01*
X142280000Y-72280000D02*
X142000000Y-72000000D01*
D24*
X107000000Y-94000000D02*
X107000000Y-70000000D01*
D25*
X106720000Y-69720000D02*
X107000000Y-70000000D01*
D26*
%TO.N,Net-(D1-Pad2)*%
X130841000Y-126699000D02*
X131000000Y-126540000D01*
X121000000Y-126699000D02*
X130841000Y-126699000D01*
D27*
%TO.N,+3V3*%
X130985000Y-102015000D02*
X130985000Y-69015000D01*
D28*
X122000000Y-54000000D02*
X115000000Y-54000000D01*
X125000000Y-66000000D02*
X125000000Y-57000000D01*
X125000000Y-57000000D02*
X122000000Y-54000000D01*
D27*
X133525000Y-69015000D02*
X130985000Y-69015000D01*
D28*
X130970000Y-69000000D02*
X128000000Y-69000000D01*
D27*
X122215000Y-110785000D02*
X130985000Y-102015000D01*
D28*
X130985000Y-69015000D02*
X130970000Y-69000000D01*
X128000000Y-69000000D02*
X125000000Y-66000000D01*
D27*
X122215000Y-113975000D02*
X122215000Y-110785000D01*
D29*
%TO.N,TX*%
X131885000Y-107115000D02*
X129835000Y-109165000D01*
X133525000Y-107115000D02*
X131885000Y-107115000D01*
X129835000Y-109165000D02*
X129835000Y-113975000D01*
%TO.N,RX*%
X131425000Y-104575000D02*
X133525000Y-104575000D01*
X127295000Y-113975000D02*
X127295000Y-108705000D01*
X127295000Y-108705000D02*
X131425000Y-104575000D01*
%TD*%
%TA.AperFunction,Conductor*%
%TO.N,GND*%
G36*
X144762166Y-51528502D02*
G01*
X144808659Y-51582158D01*
X144818763Y-51652432D01*
X144789269Y-51717012D01*
X144756759Y-51743784D01*
X144423581Y-51934984D01*
X144418848Y-51937987D01*
X144072420Y-52180109D01*
X144067979Y-52183517D01*
X143796476Y-52411739D01*
X143788031Y-52424456D01*
X143794139Y-52434929D01*
X144193493Y-52834283D01*
X144668140Y-53308931D01*
X144719580Y-53360371D01*
X145604878Y-54245668D01*
X149280419Y-57921209D01*
X150165717Y-58806506D01*
X150562145Y-59202934D01*
X150575903Y-59210446D01*
X150585263Y-59203989D01*
X150754244Y-59011303D01*
X150757744Y-59006935D01*
X151007073Y-58665645D01*
X151010168Y-58660987D01*
X151228160Y-58298903D01*
X151230841Y-58293964D01*
X151252204Y-58250067D01*
X151299998Y-58197567D01*
X151368589Y-58179241D01*
X151436199Y-58200907D01*
X151481362Y-58255686D01*
X151491500Y-58305203D01*
X151491500Y-131950633D01*
X151490000Y-131970018D01*
X151487690Y-131984851D01*
X151487690Y-131984855D01*
X151486309Y-131993724D01*
X151488984Y-132014183D01*
X151489928Y-132036007D01*
X151485865Y-132129066D01*
X151474648Y-132385964D01*
X151473690Y-132396913D01*
X151429784Y-132730421D01*
X151423982Y-132774490D01*
X151422074Y-132785307D01*
X151383755Y-132958155D01*
X151339647Y-133157114D01*
X151336802Y-133167731D01*
X151227840Y-133513315D01*
X151222285Y-133530932D01*
X151218529Y-133541254D01*
X151115439Y-133790136D01*
X151072784Y-133893114D01*
X151068138Y-133903076D01*
X150892295Y-134240867D01*
X150886799Y-134250387D01*
X150682180Y-134571574D01*
X150675876Y-134580578D01*
X150444038Y-134882716D01*
X150436972Y-134891137D01*
X150179686Y-135171914D01*
X150171914Y-135179686D01*
X149891137Y-135436972D01*
X149882716Y-135444038D01*
X149580578Y-135675876D01*
X149571574Y-135682180D01*
X149250387Y-135886799D01*
X149240868Y-135892294D01*
X148903067Y-136068142D01*
X148893123Y-136072780D01*
X148541254Y-136218529D01*
X148530939Y-136222282D01*
X148167732Y-136336802D01*
X148157115Y-136339647D01*
X147785307Y-136422074D01*
X147774498Y-136423981D01*
X147396914Y-136473690D01*
X147385965Y-136474648D01*
X147043446Y-136489603D01*
X147018571Y-136488223D01*
X147006276Y-136486309D01*
X146997374Y-136487473D01*
X146997372Y-136487473D01*
X146982323Y-136489441D01*
X146974714Y-136490436D01*
X146958379Y-136491500D01*
X103049367Y-136491500D01*
X103029982Y-136490000D01*
X103015149Y-136487690D01*
X103015145Y-136487690D01*
X103006276Y-136486309D01*
X102985817Y-136488984D01*
X102963993Y-136489928D01*
X102614035Y-136474648D01*
X102603086Y-136473690D01*
X102225502Y-136423981D01*
X102214693Y-136422074D01*
X101842885Y-136339647D01*
X101832268Y-136336802D01*
X101469061Y-136222282D01*
X101458746Y-136218529D01*
X101106877Y-136072780D01*
X101096933Y-136068142D01*
X100759132Y-135892294D01*
X100749613Y-135886799D01*
X100428426Y-135682180D01*
X100419422Y-135675876D01*
X100117284Y-135444038D01*
X100108863Y-135436972D01*
X99828086Y-135179686D01*
X99820314Y-135171914D01*
X99563028Y-134891137D01*
X99555962Y-134882716D01*
X99324124Y-134580578D01*
X99317820Y-134571574D01*
X99113201Y-134250387D01*
X99107705Y-134240867D01*
X98931862Y-133903076D01*
X98927216Y-133893114D01*
X98884562Y-133790136D01*
X98781471Y-133541254D01*
X98777715Y-133530932D01*
X98772161Y-133513315D01*
X98663198Y-133167731D01*
X98660353Y-133157114D01*
X98616245Y-132958155D01*
X98577926Y-132785307D01*
X98576018Y-132774490D01*
X98570217Y-132730421D01*
X98526310Y-132396913D01*
X98525352Y-132385964D01*
X98514135Y-132129066D01*
X98510561Y-132047206D01*
X98512188Y-132020805D01*
X98512769Y-132017352D01*
X98512770Y-132017345D01*
X98513576Y-132012552D01*
X98513729Y-132000000D01*
X98509773Y-131972376D01*
X98508500Y-131954514D01*
X98508500Y-131610915D01*
X100392001Y-131610915D01*
X100392061Y-131613672D01*
X100394601Y-131671855D01*
X100395317Y-131678972D01*
X100437999Y-131948453D01*
X100439978Y-131957023D01*
X100519504Y-132217143D01*
X100522655Y-132225353D01*
X100637613Y-132471882D01*
X100641876Y-132479572D01*
X100790024Y-132707700D01*
X100795314Y-132714719D01*
X100973783Y-132920024D01*
X100979976Y-132926217D01*
X101185281Y-133104686D01*
X101192300Y-133109976D01*
X101420428Y-133258124D01*
X101428118Y-133262387D01*
X101674647Y-133377345D01*
X101682857Y-133380496D01*
X101942977Y-133460022D01*
X101951547Y-133462001D01*
X102221044Y-133504685D01*
X102228128Y-133505399D01*
X102286331Y-133507940D01*
X102289083Y-133508000D01*
X103627885Y-133508000D01*
X103643124Y-133503525D01*
X103644329Y-133502135D01*
X103646000Y-133494452D01*
X103646000Y-133489884D01*
X104154000Y-133489884D01*
X104158475Y-133505123D01*
X104159865Y-133506328D01*
X104167548Y-133507999D01*
X105510915Y-133507999D01*
X105513672Y-133507939D01*
X105571855Y-133505399D01*
X105578972Y-133504683D01*
X105848453Y-133462001D01*
X105857023Y-133460022D01*
X106117143Y-133380496D01*
X106125353Y-133377345D01*
X106371882Y-133262387D01*
X106379572Y-133258124D01*
X106607700Y-133109976D01*
X106614719Y-133104686D01*
X106820024Y-132926217D01*
X106826217Y-132920024D01*
X107004686Y-132714719D01*
X107009976Y-132707700D01*
X107158124Y-132479572D01*
X107162387Y-132471882D01*
X107277345Y-132225353D01*
X107280496Y-132217143D01*
X107360022Y-131957023D01*
X107362001Y-131948453D01*
X107404685Y-131678956D01*
X107405399Y-131671872D01*
X107407940Y-131613669D01*
X107408000Y-131610917D01*
X107408000Y-130718536D01*
X107428002Y-130650415D01*
X107481658Y-130603922D01*
X107551932Y-130593818D01*
X107616512Y-130623312D01*
X107654896Y-130683038D01*
X107658449Y-130698827D01*
X107662941Y-130727193D01*
X107662944Y-130727206D01*
X107663459Y-130730459D01*
X107758639Y-131085674D01*
X107759824Y-131088762D01*
X107759825Y-131088764D01*
X107775204Y-131128827D01*
X107890427Y-131428994D01*
X107891925Y-131431934D01*
X108014180Y-131671872D01*
X108057380Y-131756657D01*
X108059176Y-131759423D01*
X108059178Y-131759426D01*
X108078832Y-131789691D01*
X108257668Y-132065075D01*
X108489098Y-132350867D01*
X108749133Y-132610902D01*
X109034925Y-132842332D01*
X109343342Y-133042620D01*
X109346276Y-133044115D01*
X109346283Y-133044119D01*
X109568049Y-133157114D01*
X109671006Y-133209573D01*
X110014326Y-133341361D01*
X110369541Y-133436541D01*
X110562558Y-133467112D01*
X110729511Y-133493555D01*
X110729519Y-133493556D01*
X110732759Y-133494069D01*
X111100000Y-133513315D01*
X111467241Y-133494069D01*
X111470481Y-133493556D01*
X111470489Y-133493555D01*
X111637442Y-133467112D01*
X111830459Y-133436541D01*
X112185674Y-133341361D01*
X112528994Y-133209573D01*
X112631951Y-133157114D01*
X112853717Y-133044119D01*
X112853724Y-133044115D01*
X112856658Y-133042620D01*
X113165075Y-132842332D01*
X113450867Y-132610902D01*
X113710902Y-132350867D01*
X113942332Y-132065075D01*
X114121168Y-131789691D01*
X114140822Y-131759426D01*
X114140824Y-131759423D01*
X114142620Y-131756657D01*
X114185821Y-131671872D01*
X114308075Y-131431934D01*
X114309573Y-131428994D01*
X114424796Y-131128827D01*
X114440175Y-131088764D01*
X114440176Y-131088762D01*
X114441361Y-131085674D01*
X114536541Y-130730459D01*
X114589937Y-130393332D01*
X114593555Y-130370489D01*
X114593556Y-130370481D01*
X114594069Y-130367241D01*
X114613315Y-130000000D01*
X114594069Y-129632759D01*
X114580415Y-129546547D01*
X114567112Y-129462558D01*
X114536541Y-129269541D01*
X114441361Y-128914326D01*
X114309573Y-128571006D01*
X114244494Y-128443281D01*
X114144119Y-128246284D01*
X114144115Y-128246277D01*
X114142620Y-128243343D01*
X113942332Y-127934925D01*
X113710902Y-127649133D01*
X113450867Y-127389098D01*
X113165075Y-127157668D01*
X112856658Y-126957380D01*
X112853724Y-126955885D01*
X112853717Y-126955881D01*
X112531934Y-126791925D01*
X112530064Y-126790972D01*
X117487724Y-126790972D01*
X117487990Y-126794313D01*
X117487990Y-126794318D01*
X117517072Y-127159754D01*
X117517384Y-127163680D01*
X117518004Y-127166975D01*
X117518004Y-127166978D01*
X117566131Y-127422902D01*
X117586482Y-127531126D01*
X117694234Y-127889149D01*
X117839422Y-128233694D01*
X118020400Y-128560861D01*
X118022321Y-128563599D01*
X118022327Y-128563609D01*
X118233197Y-128864202D01*
X118235120Y-128866943D01*
X118481149Y-129148476D01*
X118755702Y-129402270D01*
X119055670Y-129625452D01*
X119058557Y-129627156D01*
X119374764Y-129813789D01*
X119374769Y-129813792D01*
X119377655Y-129815495D01*
X119380708Y-129816883D01*
X119560424Y-129898595D01*
X119614157Y-129944999D01*
X119634273Y-130013086D01*
X119614384Y-130081240D01*
X119595244Y-130104466D01*
X119587033Y-130112299D01*
X119419973Y-130324214D01*
X119284438Y-130557555D01*
X119282770Y-130561672D01*
X119282767Y-130561679D01*
X119184807Y-130803531D01*
X119183133Y-130807664D01*
X119118080Y-131069552D01*
X119090576Y-131337994D01*
X119090751Y-131342446D01*
X119097772Y-131521135D01*
X119101170Y-131607633D01*
X119149651Y-131873089D01*
X119235051Y-132129066D01*
X119237044Y-132133054D01*
X119314386Y-132287839D01*
X119355667Y-132370456D01*
X119509092Y-132592443D01*
X119692264Y-132790598D01*
X119695718Y-132793410D01*
X119838883Y-132909964D01*
X119901529Y-132960966D01*
X120034170Y-133040822D01*
X120128896Y-133097852D01*
X120128900Y-133097854D01*
X120132712Y-133100149D01*
X120267239Y-133157114D01*
X120377101Y-133203635D01*
X120377105Y-133203636D01*
X120381199Y-133205370D01*
X120385491Y-133206508D01*
X120385494Y-133206509D01*
X120637736Y-133273390D01*
X120637740Y-133273391D01*
X120642033Y-133274529D01*
X120646442Y-133275051D01*
X120646448Y-133275052D01*
X120822105Y-133295842D01*
X120910009Y-133306246D01*
X121179781Y-133299889D01*
X121338984Y-133273390D01*
X121441576Y-133256314D01*
X121441580Y-133256313D01*
X121445966Y-133255583D01*
X121450207Y-133254242D01*
X121450210Y-133254241D01*
X121699007Y-133175557D01*
X121699009Y-133175556D01*
X121703253Y-133174214D01*
X121707264Y-133172288D01*
X121707269Y-133172286D01*
X121942489Y-133059335D01*
X121942490Y-133059334D01*
X121946508Y-133057405D01*
X122095046Y-132958155D01*
X122167169Y-132909964D01*
X122167173Y-132909961D01*
X122170877Y-132907486D01*
X122174194Y-132904515D01*
X122174198Y-132904512D01*
X122368567Y-132730421D01*
X122368568Y-132730420D01*
X122371885Y-132727449D01*
X122545519Y-132520886D01*
X122688317Y-132291918D01*
X122797428Y-132045114D01*
X122870675Y-131785398D01*
X122885926Y-131671855D01*
X122906170Y-131521135D01*
X122906171Y-131521127D01*
X122906597Y-131517953D01*
X122906698Y-131514742D01*
X122910266Y-131401222D01*
X122910266Y-131401217D01*
X122910367Y-131398000D01*
X122891309Y-131128827D01*
X122882019Y-131085674D01*
X122835450Y-130869377D01*
X122834513Y-130865025D01*
X122784870Y-130730459D01*
X122742656Y-130616034D01*
X122741115Y-130611857D01*
X122623205Y-130393331D01*
X122608461Y-130323883D01*
X122633603Y-130257488D01*
X122690651Y-130215226D01*
X122734093Y-130207500D01*
X130718787Y-130207500D01*
X130727247Y-130207784D01*
X130788598Y-130211913D01*
X130788601Y-130211913D01*
X130791944Y-130212138D01*
X130907518Y-130207597D01*
X130912465Y-130207500D01*
X130934461Y-130207500D01*
X131002294Y-130203885D01*
X131003991Y-130203806D01*
X131061194Y-130201559D01*
X131162191Y-130197591D01*
X131162197Y-130197590D01*
X131165542Y-130197459D01*
X131168856Y-130196973D01*
X131168862Y-130196972D01*
X131184066Y-130194740D01*
X131195662Y-130193582D01*
X131196016Y-130193563D01*
X131214357Y-130192586D01*
X131217660Y-130192054D01*
X131217669Y-130192053D01*
X131288369Y-130180665D01*
X131373967Y-130166878D01*
X131375572Y-130166631D01*
X131474399Y-130152126D01*
X131532135Y-130143652D01*
X131532139Y-130143651D01*
X131535465Y-130143163D01*
X131545099Y-130140680D01*
X131553600Y-130138490D01*
X131565001Y-130136109D01*
X131580165Y-130133666D01*
X131580170Y-130133665D01*
X131583485Y-130133131D01*
X131586717Y-130132250D01*
X131586721Y-130132249D01*
X131688609Y-130104471D01*
X131739347Y-130090638D01*
X131740997Y-130090201D01*
X131897524Y-130049866D01*
X131900650Y-130048694D01*
X131900660Y-130048691D01*
X131915066Y-130043290D01*
X131926155Y-130039709D01*
X131940961Y-130035672D01*
X131940966Y-130035671D01*
X131944206Y-130034787D01*
X132094697Y-129975962D01*
X132096252Y-129975367D01*
X132247619Y-129918622D01*
X132250616Y-129917118D01*
X132264358Y-129910222D01*
X132274996Y-129905486D01*
X132289314Y-129899889D01*
X132289320Y-129899886D01*
X132292434Y-129898669D01*
X132295400Y-129897128D01*
X132295405Y-129897126D01*
X132435809Y-129824192D01*
X132437376Y-129823392D01*
X132578781Y-129752427D01*
X132581784Y-129750920D01*
X132597530Y-129740792D01*
X132607602Y-129734953D01*
X132624226Y-129726317D01*
X132758895Y-129637012D01*
X132760349Y-129636063D01*
X132770536Y-129629511D01*
X132896238Y-129548657D01*
X132898846Y-129546556D01*
X132898859Y-129546547D01*
X132910831Y-129536904D01*
X132920231Y-129530024D01*
X132933022Y-129521542D01*
X132933033Y-129521534D01*
X132935824Y-129519683D01*
X132938409Y-129517541D01*
X132938414Y-129517537D01*
X133060142Y-129416655D01*
X133061504Y-129415541D01*
X133185447Y-129315710D01*
X133185448Y-129315709D01*
X133187416Y-129314124D01*
X133191738Y-129310031D01*
X133201785Y-129299984D01*
X133210480Y-129292065D01*
X133221105Y-129283260D01*
X133221120Y-129283246D01*
X133223700Y-129281108D01*
X133231792Y-129272802D01*
X133337709Y-129164074D01*
X133338868Y-129162900D01*
X133546971Y-128954797D01*
X133734342Y-128746335D01*
X133953314Y-128443281D01*
X133985864Y-128386331D01*
X134065907Y-128246284D01*
X134138842Y-128118673D01*
X134288827Y-127776189D01*
X134367282Y-127528118D01*
X134400557Y-127422902D01*
X134400557Y-127422901D01*
X134401568Y-127419705D01*
X134435935Y-127250026D01*
X134475120Y-127056559D01*
X134475120Y-127056556D01*
X134475788Y-127053260D01*
X134484908Y-126955881D01*
X134510335Y-126684354D01*
X134510649Y-126681003D01*
X134508777Y-126537999D01*
X134505800Y-126310497D01*
X134505800Y-126310494D01*
X134505756Y-126307148D01*
X134461162Y-125935930D01*
X134403864Y-125686751D01*
X134378129Y-125574837D01*
X134378129Y-125574836D01*
X134377374Y-125571554D01*
X134255339Y-125218144D01*
X134096442Y-124879702D01*
X133902480Y-124560063D01*
X133675650Y-124262843D01*
X133418520Y-123991412D01*
X133283700Y-123876468D01*
X133136566Y-123751025D01*
X133136564Y-123751024D01*
X133134003Y-123748840D01*
X132825320Y-123537876D01*
X132753825Y-123499460D01*
X132652719Y-123445134D01*
X132495967Y-123360908D01*
X132492859Y-123359643D01*
X132492853Y-123359640D01*
X132322820Y-123290424D01*
X132149674Y-123219941D01*
X132146438Y-123219010D01*
X132146435Y-123219009D01*
X132099718Y-123205568D01*
X132039783Y-123167512D01*
X132009937Y-123103093D01*
X132019657Y-123032765D01*
X132065856Y-122978856D01*
X132104220Y-122962407D01*
X132110316Y-122961745D01*
X132117711Y-122958973D01*
X132117714Y-122958972D01*
X132238297Y-122913767D01*
X132246705Y-122910615D01*
X132363261Y-122823261D01*
X132450615Y-122706705D01*
X132501745Y-122570316D01*
X132508500Y-122508134D01*
X132508500Y-120411866D01*
X132501745Y-120349684D01*
X132450615Y-120213295D01*
X132363261Y-120096739D01*
X132246705Y-120009385D01*
X132110316Y-119958255D01*
X132048134Y-119951500D01*
X129951866Y-119951500D01*
X129889684Y-119958255D01*
X129753295Y-120009385D01*
X129636739Y-120096739D01*
X129549385Y-120213295D01*
X129498255Y-120349684D01*
X129491500Y-120411866D01*
X129491500Y-122508134D01*
X129498255Y-122570316D01*
X129549385Y-122706705D01*
X129636739Y-122823261D01*
X129753295Y-122910615D01*
X129761703Y-122913767D01*
X129849066Y-122946518D01*
X129905830Y-122989160D01*
X129930530Y-123055721D01*
X129915323Y-123125070D01*
X129865037Y-123175188D01*
X129804836Y-123190500D01*
X123031500Y-123190500D01*
X122963379Y-123170498D01*
X122916886Y-123116842D01*
X122905500Y-123064500D01*
X122905500Y-120554866D01*
X122898745Y-120492684D01*
X122847615Y-120356295D01*
X122760261Y-120239739D01*
X122643705Y-120152385D01*
X122507316Y-120101255D01*
X122445134Y-120094500D01*
X119554866Y-120094500D01*
X119492684Y-120101255D01*
X119356295Y-120152385D01*
X119239739Y-120239739D01*
X119152385Y-120356295D01*
X119101255Y-120492684D01*
X119094500Y-120554866D01*
X119094500Y-123445134D01*
X119101255Y-123507316D01*
X119104027Y-123514712D01*
X119104029Y-123514718D01*
X119138423Y-123606463D01*
X119143606Y-123677270D01*
X119109685Y-123739639D01*
X119090077Y-123755701D01*
X118907964Y-123876468D01*
X118905176Y-123878317D01*
X118617300Y-124116892D01*
X118356405Y-124384708D01*
X118125447Y-124678731D01*
X117927041Y-124995631D01*
X117763434Y-125331821D01*
X117636477Y-125683493D01*
X117547610Y-126046664D01*
X117497837Y-126417223D01*
X117487724Y-126790972D01*
X112530064Y-126790972D01*
X112528994Y-126790427D01*
X112252664Y-126684354D01*
X112188764Y-126659825D01*
X112188762Y-126659824D01*
X112185674Y-126658639D01*
X111830459Y-126563459D01*
X111637442Y-126532888D01*
X111470489Y-126506445D01*
X111470481Y-126506444D01*
X111467241Y-126505931D01*
X111100000Y-126486685D01*
X110732759Y-126505931D01*
X110729519Y-126506444D01*
X110729511Y-126506445D01*
X110562558Y-126532888D01*
X110369541Y-126563459D01*
X110014326Y-126658639D01*
X110011238Y-126659824D01*
X110011236Y-126659825D01*
X109947336Y-126684354D01*
X109671006Y-126790427D01*
X109668066Y-126791925D01*
X109346284Y-126955881D01*
X109346277Y-126955885D01*
X109343343Y-126957380D01*
X109340577Y-126959176D01*
X109340574Y-126959178D01*
X109195700Y-127053260D01*
X109034925Y-127157668D01*
X108749133Y-127389098D01*
X108489098Y-127649133D01*
X108257668Y-127934925D01*
X108057380Y-128243343D01*
X108055885Y-128246277D01*
X108055881Y-128246284D01*
X107955506Y-128443281D01*
X107890427Y-128571006D01*
X107758639Y-128914326D01*
X107663459Y-129269541D01*
X107662944Y-129272793D01*
X107662942Y-129272802D01*
X107658448Y-129301178D01*
X107628035Y-129365331D01*
X107567767Y-129402858D01*
X107496777Y-129401844D01*
X107437606Y-129362611D01*
X107409038Y-129297615D01*
X107407999Y-129281467D01*
X107407999Y-128389086D01*
X107407939Y-128386328D01*
X107405399Y-128328145D01*
X107404683Y-128321028D01*
X107362001Y-128051547D01*
X107360022Y-128042977D01*
X107280496Y-127782857D01*
X107277345Y-127774647D01*
X107162387Y-127528118D01*
X107158124Y-127520428D01*
X107009976Y-127292300D01*
X107004686Y-127285281D01*
X106826217Y-127079976D01*
X106820024Y-127073783D01*
X106614719Y-126895314D01*
X106607700Y-126890024D01*
X106379572Y-126741876D01*
X106371882Y-126737613D01*
X106125353Y-126622655D01*
X106117143Y-126619504D01*
X105857023Y-126539978D01*
X105848453Y-126537999D01*
X105578956Y-126495315D01*
X105571872Y-126494601D01*
X105513669Y-126492060D01*
X105510917Y-126492000D01*
X104172115Y-126492000D01*
X104156876Y-126496475D01*
X104155671Y-126497865D01*
X104154000Y-126505548D01*
X104154000Y-133489884D01*
X103646000Y-133489884D01*
X103646000Y-130272115D01*
X103641525Y-130256876D01*
X103640135Y-130255671D01*
X103632452Y-130254000D01*
X100410116Y-130254000D01*
X100394877Y-130258475D01*
X100393672Y-130259865D01*
X100392001Y-130267548D01*
X100392001Y-131610915D01*
X98508500Y-131610915D01*
X98508500Y-129727885D01*
X100392000Y-129727885D01*
X100396475Y-129743124D01*
X100397865Y-129744329D01*
X100405548Y-129746000D01*
X103627885Y-129746000D01*
X103643124Y-129741525D01*
X103644329Y-129740135D01*
X103646000Y-129732452D01*
X103646000Y-126510116D01*
X103641525Y-126494877D01*
X103640135Y-126493672D01*
X103632452Y-126492001D01*
X102289086Y-126492001D01*
X102286328Y-126492061D01*
X102228145Y-126494601D01*
X102221028Y-126495317D01*
X101951547Y-126537999D01*
X101942977Y-126539978D01*
X101682857Y-126619504D01*
X101674647Y-126622655D01*
X101428118Y-126737613D01*
X101420428Y-126741876D01*
X101192300Y-126890024D01*
X101185281Y-126895314D01*
X100979976Y-127073783D01*
X100973783Y-127079976D01*
X100795314Y-127285281D01*
X100790024Y-127292300D01*
X100641876Y-127520428D01*
X100637613Y-127528118D01*
X100522655Y-127774647D01*
X100519504Y-127782857D01*
X100439978Y-128042977D01*
X100437999Y-128051547D01*
X100395315Y-128321044D01*
X100394601Y-128328128D01*
X100392060Y-128386331D01*
X100392000Y-128389083D01*
X100392000Y-129727885D01*
X98508500Y-129727885D01*
X98508500Y-121394669D01*
X100642001Y-121394669D01*
X100642371Y-121401490D01*
X100647895Y-121452352D01*
X100651521Y-121467604D01*
X100696676Y-121588054D01*
X100705214Y-121603649D01*
X100781715Y-121705724D01*
X100794276Y-121718285D01*
X100896351Y-121794786D01*
X100911946Y-121803324D01*
X101032394Y-121848478D01*
X101047649Y-121852105D01*
X101098514Y-121857631D01*
X101105328Y-121858000D01*
X101727885Y-121858000D01*
X101743124Y-121853525D01*
X101744329Y-121852135D01*
X101746000Y-121844452D01*
X101746000Y-121839884D01*
X102254000Y-121839884D01*
X102258475Y-121855123D01*
X102259865Y-121856328D01*
X102267548Y-121857999D01*
X102894669Y-121857999D01*
X102901490Y-121857629D01*
X102952352Y-121852105D01*
X102967604Y-121848479D01*
X103088054Y-121803324D01*
X103103649Y-121794786D01*
X103205724Y-121718285D01*
X103218285Y-121705724D01*
X103294786Y-121603649D01*
X103303324Y-121588054D01*
X103344225Y-121478952D01*
X103386867Y-121422188D01*
X103453428Y-121397488D01*
X103522777Y-121412696D01*
X103557444Y-121440684D01*
X103582865Y-121470031D01*
X103582869Y-121470035D01*
X103586250Y-121473938D01*
X103758126Y-121616632D01*
X103951000Y-121729338D01*
X104159692Y-121809030D01*
X104164760Y-121810061D01*
X104164763Y-121810062D01*
X104272017Y-121831883D01*
X104378597Y-121853567D01*
X104383772Y-121853757D01*
X104383774Y-121853757D01*
X104596673Y-121861564D01*
X104596677Y-121861564D01*
X104601837Y-121861753D01*
X104606957Y-121861097D01*
X104606959Y-121861097D01*
X104818288Y-121834025D01*
X104818289Y-121834025D01*
X104823416Y-121833368D01*
X104828366Y-121831883D01*
X105032429Y-121770661D01*
X105032434Y-121770659D01*
X105037384Y-121769174D01*
X105237994Y-121670896D01*
X105419860Y-121541173D01*
X105578096Y-121383489D01*
X105708453Y-121202077D01*
X105807430Y-121001811D01*
X105872370Y-120788069D01*
X105901529Y-120566590D01*
X105901732Y-120558283D01*
X105903074Y-120503365D01*
X105903074Y-120503361D01*
X105903156Y-120500000D01*
X105884852Y-120277361D01*
X105830431Y-120060702D01*
X105741354Y-119855840D01*
X105620014Y-119668277D01*
X105469670Y-119503051D01*
X105465619Y-119499852D01*
X105465615Y-119499848D01*
X105298414Y-119367800D01*
X105298410Y-119367798D01*
X105294359Y-119364598D01*
X105098789Y-119256638D01*
X105093920Y-119254914D01*
X105093916Y-119254912D01*
X104893087Y-119183795D01*
X104893083Y-119183794D01*
X104888212Y-119182069D01*
X104883119Y-119181162D01*
X104883116Y-119181161D01*
X104673373Y-119143800D01*
X104673367Y-119143799D01*
X104668284Y-119142894D01*
X104594452Y-119141992D01*
X104450081Y-119140228D01*
X104450079Y-119140228D01*
X104444911Y-119140165D01*
X104224091Y-119173955D01*
X104011756Y-119243357D01*
X103813607Y-119346507D01*
X103809474Y-119349610D01*
X103809471Y-119349612D01*
X103726450Y-119411946D01*
X103634965Y-119480635D01*
X103631393Y-119484373D01*
X103553898Y-119565466D01*
X103492374Y-119600895D01*
X103421462Y-119597438D01*
X103363676Y-119556192D01*
X103344823Y-119522644D01*
X103303324Y-119411946D01*
X103294786Y-119396351D01*
X103218285Y-119294276D01*
X103205724Y-119281715D01*
X103103649Y-119205214D01*
X103088054Y-119196676D01*
X102967606Y-119151522D01*
X102952351Y-119147895D01*
X102901486Y-119142369D01*
X102894672Y-119142000D01*
X102272115Y-119142000D01*
X102256876Y-119146475D01*
X102255671Y-119147865D01*
X102254000Y-119155548D01*
X102254000Y-121839884D01*
X101746000Y-121839884D01*
X101746000Y-120772115D01*
X101741525Y-120756876D01*
X101740135Y-120755671D01*
X101732452Y-120754000D01*
X100660116Y-120754000D01*
X100644877Y-120758475D01*
X100643672Y-120759865D01*
X100642001Y-120767548D01*
X100642001Y-121394669D01*
X98508500Y-121394669D01*
X98508500Y-120227885D01*
X100642000Y-120227885D01*
X100646475Y-120243124D01*
X100647865Y-120244329D01*
X100655548Y-120246000D01*
X101727885Y-120246000D01*
X101743124Y-120241525D01*
X101744329Y-120240135D01*
X101746000Y-120232452D01*
X101746000Y-119160116D01*
X101741525Y-119144877D01*
X101740135Y-119143672D01*
X101732452Y-119142001D01*
X101105331Y-119142001D01*
X101098510Y-119142371D01*
X101047648Y-119147895D01*
X101032396Y-119151521D01*
X100911946Y-119196676D01*
X100896351Y-119205214D01*
X100794276Y-119281715D01*
X100781715Y-119294276D01*
X100705214Y-119396351D01*
X100696676Y-119411946D01*
X100651522Y-119532394D01*
X100647895Y-119547649D01*
X100642369Y-119598514D01*
X100642000Y-119605328D01*
X100642000Y-120227885D01*
X98508500Y-120227885D01*
X98508500Y-93582277D01*
X101137009Y-93582277D01*
X101162625Y-93850769D01*
X101163710Y-93855203D01*
X101163711Y-93855209D01*
X101208160Y-94036857D01*
X101226731Y-94112750D01*
X101327985Y-94362733D01*
X101330294Y-94366676D01*
X101439119Y-94552535D01*
X101464265Y-94595482D01*
X101632716Y-94806119D01*
X101636057Y-94809240D01*
X101760551Y-94925536D01*
X101829809Y-94990234D01*
X101892927Y-95034020D01*
X101909853Y-95045762D01*
X101954423Y-95101025D01*
X101962041Y-95171612D01*
X101939318Y-95221244D01*
X101940629Y-95222138D01*
X101814743Y-95406680D01*
X101720688Y-95609305D01*
X101660989Y-95824570D01*
X101637251Y-96046695D01*
X101637548Y-96051848D01*
X101637548Y-96051851D01*
X101641917Y-96127617D01*
X101650110Y-96269715D01*
X101651247Y-96274761D01*
X101651248Y-96274767D01*
X101672275Y-96368069D01*
X101699222Y-96487639D01*
X101783266Y-96694616D01*
X101806396Y-96732361D01*
X101866278Y-96830079D01*
X101899987Y-96885088D01*
X102046250Y-97053938D01*
X102050230Y-97057242D01*
X102054981Y-97061187D01*
X102094616Y-97120090D01*
X102096113Y-97191071D01*
X102058997Y-97251593D01*
X102018725Y-97276112D01*
X101992189Y-97286060D01*
X101903295Y-97319385D01*
X101786739Y-97406739D01*
X101699385Y-97523295D01*
X101648255Y-97659684D01*
X101641500Y-97721866D01*
X101641500Y-99518134D01*
X101648255Y-99580316D01*
X101699385Y-99716705D01*
X101786739Y-99833261D01*
X101903295Y-99920615D01*
X102039684Y-99971745D01*
X102101866Y-99978500D01*
X103898134Y-99978500D01*
X103960316Y-99971745D01*
X104096705Y-99920615D01*
X104213261Y-99833261D01*
X104264674Y-99764661D01*
X104321533Y-99722146D01*
X104392352Y-99717120D01*
X104454645Y-99751180D01*
X104488635Y-99813511D01*
X104491500Y-99840226D01*
X104491500Y-110494541D01*
X104471498Y-110562662D01*
X104454595Y-110583636D01*
X104389098Y-110649133D01*
X104157668Y-110934925D01*
X103957380Y-111243343D01*
X103790427Y-111571006D01*
X103658639Y-111914326D01*
X103563459Y-112269541D01*
X103562943Y-112272802D01*
X103508142Y-112618800D01*
X103505931Y-112632759D01*
X103486685Y-113000000D01*
X103505931Y-113367241D01*
X103506444Y-113370481D01*
X103506445Y-113370489D01*
X103522525Y-113472012D01*
X103563459Y-113730459D01*
X103658639Y-114085674D01*
X103790427Y-114428994D01*
X103791925Y-114431934D01*
X103938999Y-114720582D01*
X103957380Y-114756657D01*
X103959176Y-114759423D01*
X103959178Y-114759426D01*
X104079711Y-114945031D01*
X104157668Y-115065075D01*
X104389098Y-115350867D01*
X104649133Y-115610902D01*
X104934925Y-115842332D01*
X105243342Y-116042620D01*
X105246276Y-116044115D01*
X105246283Y-116044119D01*
X105568066Y-116208075D01*
X105571006Y-116209573D01*
X105914326Y-116341361D01*
X106269541Y-116436541D01*
X106462558Y-116467112D01*
X106629511Y-116493555D01*
X106629519Y-116493556D01*
X106632759Y-116494069D01*
X107000000Y-116513315D01*
X107367241Y-116494069D01*
X107370481Y-116493556D01*
X107370489Y-116493555D01*
X107537442Y-116467112D01*
X107730459Y-116436541D01*
X108085674Y-116341361D01*
X108428994Y-116209573D01*
X108431934Y-116208075D01*
X108753717Y-116044119D01*
X108753724Y-116044115D01*
X108756658Y-116042620D01*
X109065075Y-115842332D01*
X109350867Y-115610902D01*
X109610902Y-115350867D01*
X109842332Y-115065075D01*
X109920289Y-114945031D01*
X110040822Y-114759426D01*
X110040824Y-114759423D01*
X110042620Y-114756657D01*
X110061002Y-114720582D01*
X110208075Y-114431934D01*
X110209573Y-114428994D01*
X110341361Y-114085674D01*
X110436541Y-113730459D01*
X110477475Y-113472012D01*
X110493555Y-113370489D01*
X110493556Y-113370481D01*
X110494069Y-113367241D01*
X110513315Y-113000000D01*
X110494069Y-112632759D01*
X110491859Y-112618800D01*
X110437057Y-112272802D01*
X110436541Y-112269541D01*
X110341361Y-111914326D01*
X110209573Y-111571006D01*
X110042620Y-111243343D01*
X109842332Y-110934925D01*
X109610902Y-110649133D01*
X109545405Y-110583636D01*
X109511379Y-110521324D01*
X109508500Y-110494541D01*
X109508500Y-107081695D01*
X114382251Y-107081695D01*
X114382548Y-107086848D01*
X114382548Y-107086851D01*
X114388011Y-107181590D01*
X114395110Y-107304715D01*
X114396247Y-107309761D01*
X114396248Y-107309767D01*
X114416119Y-107397939D01*
X114444222Y-107522639D01*
X114528266Y-107729616D01*
X114644987Y-107920088D01*
X114791250Y-108088938D01*
X114963126Y-108231632D01*
X115156000Y-108344338D01*
X115160825Y-108346180D01*
X115160826Y-108346181D01*
X115233612Y-108373975D01*
X115364692Y-108424030D01*
X115369760Y-108425061D01*
X115369763Y-108425062D01*
X115451095Y-108441609D01*
X115583597Y-108468567D01*
X115588772Y-108468757D01*
X115588774Y-108468757D01*
X115801673Y-108476564D01*
X115801677Y-108476564D01*
X115806837Y-108476753D01*
X115811957Y-108476097D01*
X115811959Y-108476097D01*
X116023288Y-108449025D01*
X116023289Y-108449025D01*
X116028416Y-108448368D01*
X116050945Y-108441609D01*
X116237429Y-108385661D01*
X116237434Y-108385659D01*
X116242384Y-108384174D01*
X116442994Y-108285896D01*
X116624860Y-108156173D01*
X116783096Y-107998489D01*
X116842594Y-107915689D01*
X116910435Y-107821277D01*
X116913453Y-107817077D01*
X117012430Y-107616811D01*
X117077370Y-107403069D01*
X117106529Y-107181590D01*
X117108156Y-107115000D01*
X117089852Y-106892361D01*
X117035431Y-106675702D01*
X116946354Y-106470840D01*
X116876072Y-106362201D01*
X116827822Y-106287617D01*
X116827820Y-106287614D01*
X116825014Y-106283277D01*
X116674670Y-106118051D01*
X116670619Y-106114852D01*
X116670615Y-106114848D01*
X116503414Y-105982800D01*
X116503410Y-105982798D01*
X116499359Y-105979598D01*
X116458053Y-105956796D01*
X116408084Y-105906364D01*
X116393312Y-105836921D01*
X116418428Y-105770516D01*
X116445780Y-105743909D01*
X116489603Y-105712650D01*
X116624860Y-105616173D01*
X116783096Y-105458489D01*
X116842594Y-105375689D01*
X116910435Y-105281277D01*
X116913453Y-105277077D01*
X117012430Y-105076811D01*
X117077370Y-104863069D01*
X117106529Y-104641590D01*
X117108156Y-104575000D01*
X117089852Y-104352361D01*
X117035431Y-104135702D01*
X116946354Y-103930840D01*
X116876072Y-103822201D01*
X116827822Y-103747617D01*
X116827820Y-103747614D01*
X116825014Y-103743277D01*
X116821540Y-103739459D01*
X116821533Y-103739450D01*
X116677435Y-103581088D01*
X116646383Y-103517242D01*
X116654779Y-103446744D01*
X116699956Y-103391976D01*
X116726400Y-103378307D01*
X116833052Y-103338325D01*
X116848649Y-103329786D01*
X116950724Y-103253285D01*
X116963285Y-103240724D01*
X117039786Y-103138649D01*
X117048324Y-103123054D01*
X117093478Y-103002606D01*
X117097105Y-102987351D01*
X117102631Y-102936486D01*
X117103000Y-102929672D01*
X117103000Y-102307115D01*
X117098525Y-102291876D01*
X117097135Y-102290671D01*
X117089452Y-102289000D01*
X114405116Y-102289000D01*
X114389877Y-102293475D01*
X114388672Y-102294865D01*
X114387001Y-102302548D01*
X114387001Y-102929669D01*
X114387371Y-102936490D01*
X114392895Y-102987352D01*
X114396521Y-103002604D01*
X114441676Y-103123054D01*
X114450214Y-103138649D01*
X114526715Y-103240724D01*
X114539276Y-103253285D01*
X114641351Y-103329786D01*
X114656946Y-103338324D01*
X114765827Y-103379142D01*
X114822591Y-103421784D01*
X114847291Y-103488345D01*
X114832083Y-103557694D01*
X114812691Y-103584175D01*
X114689200Y-103713401D01*
X114685629Y-103717138D01*
X114682715Y-103721410D01*
X114682714Y-103721411D01*
X114646357Y-103774709D01*
X114559743Y-103901680D01*
X114465688Y-104104305D01*
X114405989Y-104319570D01*
X114382251Y-104541695D01*
X114382548Y-104546848D01*
X114382548Y-104546851D01*
X114388011Y-104641590D01*
X114395110Y-104764715D01*
X114396247Y-104769761D01*
X114396248Y-104769767D01*
X114416119Y-104857939D01*
X114444222Y-104982639D01*
X114528266Y-105189616D01*
X114644987Y-105380088D01*
X114791250Y-105548938D01*
X114963126Y-105691632D01*
X115033595Y-105732811D01*
X115036445Y-105734476D01*
X115085169Y-105786114D01*
X115098240Y-105855897D01*
X115071509Y-105921669D01*
X115031055Y-105955027D01*
X115018607Y-105961507D01*
X115014474Y-105964610D01*
X115014471Y-105964612D01*
X114990247Y-105982800D01*
X114839965Y-106095635D01*
X114685629Y-106257138D01*
X114682715Y-106261410D01*
X114682714Y-106261411D01*
X114646357Y-106314709D01*
X114559743Y-106441680D01*
X114465688Y-106644305D01*
X114405989Y-106859570D01*
X114382251Y-107081695D01*
X109508500Y-107081695D01*
X109508500Y-99461695D01*
X114382251Y-99461695D01*
X114382548Y-99466848D01*
X114382548Y-99466851D01*
X114389517Y-99587715D01*
X114395110Y-99684715D01*
X114396247Y-99689761D01*
X114396248Y-99689767D01*
X114410089Y-99751180D01*
X114444222Y-99902639D01*
X114528266Y-100109616D01*
X114644987Y-100300088D01*
X114791250Y-100468938D01*
X114795225Y-100472238D01*
X114795231Y-100472244D01*
X114800425Y-100476556D01*
X114840059Y-100535460D01*
X114841555Y-100606441D01*
X114804439Y-100666962D01*
X114764168Y-100691480D01*
X114656946Y-100731676D01*
X114641351Y-100740214D01*
X114539276Y-100816715D01*
X114526715Y-100829276D01*
X114450214Y-100931351D01*
X114441676Y-100946946D01*
X114396522Y-101067394D01*
X114392895Y-101082649D01*
X114387369Y-101133514D01*
X114387000Y-101140328D01*
X114387000Y-101762885D01*
X114391475Y-101778124D01*
X114392865Y-101779329D01*
X114400548Y-101781000D01*
X117084884Y-101781000D01*
X117100123Y-101776525D01*
X117101328Y-101775135D01*
X117102999Y-101767452D01*
X117102999Y-101140331D01*
X117102629Y-101133510D01*
X117097105Y-101082648D01*
X117093479Y-101067396D01*
X117048324Y-100946946D01*
X117039786Y-100931351D01*
X116963285Y-100829276D01*
X116950724Y-100816715D01*
X116848649Y-100740214D01*
X116833054Y-100731676D01*
X116722813Y-100690348D01*
X116666049Y-100647706D01*
X116641349Y-100581145D01*
X116642386Y-100576418D01*
X120789122Y-100576418D01*
X120789171Y-100577110D01*
X120794617Y-100585274D01*
X120872268Y-100657812D01*
X120876507Y-100661433D01*
X121209802Y-100921363D01*
X121214359Y-100924602D01*
X121569448Y-101153880D01*
X121574250Y-101156686D01*
X121948316Y-101353491D01*
X121953374Y-101355871D01*
X122343435Y-101518638D01*
X122348690Y-101520561D01*
X122751676Y-101648008D01*
X122757075Y-101649455D01*
X123169796Y-101740575D01*
X123175307Y-101741537D01*
X123594501Y-101795610D01*
X123600064Y-101796077D01*
X124022405Y-101812670D01*
X124027997Y-101812641D01*
X124450125Y-101791626D01*
X124455708Y-101791098D01*
X124874305Y-101732640D01*
X124879792Y-101731623D01*
X125291543Y-101636185D01*
X125296929Y-101634681D01*
X125698567Y-101503018D01*
X125703784Y-101501046D01*
X126092126Y-101334202D01*
X126097169Y-101331764D01*
X126469131Y-101131063D01*
X126473935Y-101128188D01*
X126826563Y-100895231D01*
X126831126Y-100891916D01*
X127161658Y-100628529D01*
X127165873Y-100624852D01*
X127203823Y-100588649D01*
X127211763Y-100574890D01*
X127211713Y-100573843D01*
X127206822Y-100566032D01*
X126806507Y-100165717D01*
X125921210Y-99280419D01*
X125395122Y-98754332D01*
X124012812Y-97372022D01*
X123998868Y-97364408D01*
X123997035Y-97364539D01*
X123990420Y-97368790D01*
X122604879Y-98754331D01*
X121719581Y-99639628D01*
X121193494Y-100165716D01*
X120796736Y-100562474D01*
X120789122Y-100576418D01*
X116642386Y-100576418D01*
X116656557Y-100511796D01*
X116678104Y-100483115D01*
X116779430Y-100382144D01*
X116779440Y-100382132D01*
X116783096Y-100378489D01*
X116842594Y-100295689D01*
X116910435Y-100201277D01*
X116913453Y-100197077D01*
X116928953Y-100165716D01*
X117010136Y-100001453D01*
X117010137Y-100001451D01*
X117012430Y-99996811D01*
X117060486Y-99838642D01*
X117075865Y-99788023D01*
X117075865Y-99788021D01*
X117077370Y-99783069D01*
X117106529Y-99561590D01*
X117107674Y-99514717D01*
X117108074Y-99498365D01*
X117108074Y-99498361D01*
X117108156Y-99495000D01*
X117089852Y-99272361D01*
X117035431Y-99055702D01*
X116946354Y-98850840D01*
X116825014Y-98663277D01*
X116674670Y-98498051D01*
X116670619Y-98494852D01*
X116670615Y-98494848D01*
X116503414Y-98362800D01*
X116503410Y-98362798D01*
X116499359Y-98359598D01*
X116458053Y-98336796D01*
X116408084Y-98286364D01*
X116393312Y-98216921D01*
X116418428Y-98150516D01*
X116445780Y-98123909D01*
X116503929Y-98082432D01*
X116624860Y-97996173D01*
X116783096Y-97838489D01*
X116832131Y-97770250D01*
X116910435Y-97661277D01*
X116913453Y-97657077D01*
X116915822Y-97652285D01*
X117010136Y-97461453D01*
X117010137Y-97461451D01*
X117012430Y-97456811D01*
X117077370Y-97243069D01*
X117106529Y-97021590D01*
X117106611Y-97018240D01*
X117108074Y-96958365D01*
X117108074Y-96958361D01*
X117108156Y-96955000D01*
X117101729Y-96876825D01*
X119188855Y-96876825D01*
X119196600Y-97299410D01*
X119196950Y-97304976D01*
X119242231Y-97725208D01*
X119243078Y-97730746D01*
X119325535Y-98145286D01*
X119326864Y-98150698D01*
X119445852Y-98556289D01*
X119447658Y-98561564D01*
X119602219Y-98954948D01*
X119604501Y-98960072D01*
X119793416Y-99338150D01*
X119796140Y-99343043D01*
X120017917Y-99702833D01*
X120021068Y-99707469D01*
X120273955Y-100046127D01*
X120277488Y-100050444D01*
X120413222Y-100201988D01*
X120426717Y-100210351D01*
X120436128Y-100204662D01*
X120834283Y-99806507D01*
X121719581Y-98921210D01*
X121789950Y-98850841D01*
X122245668Y-98395122D01*
X123627978Y-97012812D01*
X123634356Y-97001132D01*
X124364408Y-97001132D01*
X124364539Y-97002965D01*
X124368790Y-97009580D01*
X125754331Y-98395121D01*
X126210049Y-98850840D01*
X126280418Y-98921209D01*
X127165716Y-99806506D01*
X127562142Y-100202932D01*
X127575903Y-100210446D01*
X127585263Y-100203989D01*
X127754244Y-100011303D01*
X127757744Y-100006935D01*
X128007073Y-99665645D01*
X128010168Y-99660987D01*
X128228160Y-99298903D01*
X128230841Y-99293964D01*
X128415779Y-98913946D01*
X128418014Y-98908780D01*
X128568442Y-98513815D01*
X128570201Y-98508496D01*
X128684920Y-98101730D01*
X128686204Y-98096259D01*
X128764315Y-97680883D01*
X128765102Y-97675346D01*
X128806035Y-97254102D01*
X128806308Y-97249665D01*
X128812788Y-97002233D01*
X128812746Y-96997762D01*
X128793917Y-96574973D01*
X128793419Y-96569386D01*
X128737155Y-96150499D01*
X128736162Y-96144976D01*
X128642883Y-95732748D01*
X128641410Y-95727361D01*
X128511847Y-95325025D01*
X128509910Y-95319815D01*
X128345098Y-94930599D01*
X128342683Y-94925536D01*
X128143936Y-94552535D01*
X128141085Y-94547713D01*
X127909974Y-94193865D01*
X127906692Y-94189297D01*
X127645030Y-93857380D01*
X127641382Y-93853155D01*
X127588103Y-93796715D01*
X127574389Y-93788705D01*
X127573517Y-93788742D01*
X127565438Y-93793772D01*
X127165717Y-94193493D01*
X126280419Y-95078790D01*
X125754332Y-95604878D01*
X124372022Y-96987188D01*
X124364408Y-97001132D01*
X123634356Y-97001132D01*
X123635592Y-96998868D01*
X123635461Y-96997035D01*
X123631210Y-96990420D01*
X122245669Y-95604879D01*
X121360372Y-94719581D01*
X120834284Y-94193494D01*
X120435561Y-93794771D01*
X120422253Y-93787504D01*
X120412214Y-93794626D01*
X120168223Y-94087994D01*
X120164828Y-94092467D01*
X119924528Y-94440152D01*
X119921549Y-94444902D01*
X119713106Y-94812575D01*
X119710562Y-94817568D01*
X119535629Y-95202312D01*
X119533538Y-95207511D01*
X119393498Y-95606290D01*
X119391877Y-95611659D01*
X119287840Y-96021303D01*
X119286706Y-96026776D01*
X119219496Y-96444054D01*
X119218851Y-96449632D01*
X119189002Y-96871204D01*
X119188855Y-96876825D01*
X117101729Y-96876825D01*
X117089852Y-96732361D01*
X117035431Y-96515702D01*
X116946354Y-96310840D01*
X116825014Y-96123277D01*
X116674670Y-95958051D01*
X116670619Y-95954852D01*
X116670615Y-95954848D01*
X116503414Y-95822800D01*
X116503410Y-95822798D01*
X116499359Y-95819598D01*
X116458053Y-95796796D01*
X116408084Y-95746364D01*
X116393312Y-95676921D01*
X116418428Y-95610516D01*
X116445780Y-95583909D01*
X116489603Y-95552650D01*
X116624860Y-95456173D01*
X116783096Y-95298489D01*
X116837960Y-95222138D01*
X116910435Y-95121277D01*
X116913453Y-95117077D01*
X116921387Y-95101025D01*
X117010136Y-94921453D01*
X117010137Y-94921451D01*
X117012430Y-94916811D01*
X117077370Y-94703069D01*
X117106529Y-94481590D01*
X117107370Y-94447162D01*
X117108074Y-94418365D01*
X117108074Y-94418361D01*
X117108156Y-94415000D01*
X117089852Y-94192361D01*
X117035431Y-93975702D01*
X116946354Y-93770840D01*
X116906906Y-93709862D01*
X116827822Y-93587617D01*
X116827820Y-93587614D01*
X116825014Y-93583277D01*
X116680498Y-93424456D01*
X120788031Y-93424456D01*
X120794139Y-93434929D01*
X121193493Y-93834283D01*
X121719580Y-94360371D01*
X122604878Y-95245668D01*
X123987188Y-96627978D01*
X124001132Y-96635592D01*
X124002965Y-96635461D01*
X124009580Y-96631210D01*
X125395121Y-95245669D01*
X126280419Y-94360372D01*
X126806506Y-93834284D01*
X127202754Y-93438036D01*
X127210316Y-93424187D01*
X127203987Y-93414962D01*
X127030928Y-93261582D01*
X127026561Y-93258046D01*
X126686600Y-93006948D01*
X126681947Y-93003821D01*
X126320995Y-92783926D01*
X126316094Y-92781232D01*
X125937027Y-92594297D01*
X125931904Y-92592048D01*
X125537707Y-92439545D01*
X125532417Y-92437765D01*
X125126218Y-92320904D01*
X125120794Y-92319602D01*
X124705822Y-92239316D01*
X124700293Y-92238500D01*
X124279828Y-92195420D01*
X124274247Y-92195098D01*
X123851635Y-92189566D01*
X123846024Y-92189742D01*
X123424593Y-92221800D01*
X123419036Y-92222472D01*
X123002128Y-92291864D01*
X122996631Y-92293032D01*
X122587547Y-92399209D01*
X122582181Y-92400861D01*
X122184153Y-92542983D01*
X122178965Y-92545100D01*
X121795133Y-92722050D01*
X121790164Y-92724614D01*
X121423581Y-92934984D01*
X121418848Y-92937987D01*
X121072420Y-93180109D01*
X121067979Y-93183517D01*
X120796476Y-93411739D01*
X120788031Y-93424456D01*
X116680498Y-93424456D01*
X116674670Y-93418051D01*
X116670619Y-93414852D01*
X116670615Y-93414848D01*
X116503414Y-93282800D01*
X116503410Y-93282798D01*
X116499359Y-93279598D01*
X116458053Y-93256796D01*
X116408084Y-93206364D01*
X116393312Y-93136921D01*
X116418428Y-93070516D01*
X116445780Y-93043909D01*
X116501981Y-93003821D01*
X116624860Y-92916173D01*
X116649628Y-92891492D01*
X116779435Y-92762137D01*
X116783096Y-92758489D01*
X116837960Y-92682138D01*
X116910435Y-92581277D01*
X116913453Y-92577077D01*
X116926052Y-92551586D01*
X117010136Y-92381453D01*
X117010137Y-92381451D01*
X117012430Y-92376811D01*
X117060486Y-92218642D01*
X117075865Y-92168023D01*
X117075865Y-92168021D01*
X117077370Y-92163069D01*
X117106529Y-91941590D01*
X117108156Y-91875000D01*
X117089852Y-91652361D01*
X117035431Y-91435702D01*
X116946354Y-91230840D01*
X116825014Y-91043277D01*
X116821540Y-91039459D01*
X116821533Y-91039450D01*
X116677435Y-90881088D01*
X116646383Y-90817242D01*
X116654779Y-90746744D01*
X116699956Y-90691976D01*
X116726400Y-90678307D01*
X116833052Y-90638325D01*
X116848649Y-90629786D01*
X116950724Y-90553285D01*
X116963285Y-90540724D01*
X117039786Y-90438649D01*
X117048324Y-90423054D01*
X117093478Y-90302606D01*
X117097105Y-90287351D01*
X117102631Y-90236486D01*
X117103000Y-90229672D01*
X117103000Y-89607115D01*
X117098525Y-89591876D01*
X117097135Y-89590671D01*
X117089452Y-89589000D01*
X114405116Y-89589000D01*
X114389877Y-89593475D01*
X114388672Y-89594865D01*
X114387001Y-89602548D01*
X114387001Y-90229669D01*
X114387371Y-90236490D01*
X114392895Y-90287352D01*
X114396521Y-90302604D01*
X114441676Y-90423054D01*
X114450214Y-90438649D01*
X114526715Y-90540724D01*
X114539276Y-90553285D01*
X114641351Y-90629786D01*
X114656946Y-90638324D01*
X114765827Y-90679142D01*
X114822591Y-90721784D01*
X114847291Y-90788345D01*
X114832083Y-90857694D01*
X114812691Y-90884175D01*
X114689200Y-91013401D01*
X114685629Y-91017138D01*
X114559743Y-91201680D01*
X114465688Y-91404305D01*
X114405989Y-91619570D01*
X114382251Y-91841695D01*
X114382548Y-91846848D01*
X114382548Y-91846851D01*
X114389517Y-91967715D01*
X114395110Y-92064715D01*
X114396247Y-92069761D01*
X114396248Y-92069767D01*
X114410660Y-92133714D01*
X114444222Y-92282639D01*
X114482461Y-92376811D01*
X114513698Y-92453738D01*
X114528266Y-92489616D01*
X114644987Y-92680088D01*
X114791250Y-92848938D01*
X114963126Y-92991632D01*
X115033595Y-93032811D01*
X115036445Y-93034476D01*
X115085169Y-93086114D01*
X115098240Y-93155897D01*
X115071509Y-93221669D01*
X115031055Y-93255027D01*
X115025256Y-93258046D01*
X115018607Y-93261507D01*
X115014474Y-93264610D01*
X115014471Y-93264612D01*
X114844100Y-93392530D01*
X114839965Y-93395635D01*
X114836393Y-93399373D01*
X114705212Y-93536646D01*
X114685629Y-93557138D01*
X114559743Y-93741680D01*
X114465688Y-93944305D01*
X114405989Y-94159570D01*
X114382251Y-94381695D01*
X114382548Y-94386848D01*
X114382548Y-94386851D01*
X114388011Y-94481590D01*
X114395110Y-94604715D01*
X114396247Y-94609761D01*
X114396248Y-94609767D01*
X114410660Y-94673714D01*
X114444222Y-94822639D01*
X114482461Y-94916811D01*
X114524748Y-95020951D01*
X114528266Y-95029616D01*
X114644987Y-95220088D01*
X114791250Y-95388938D01*
X114963126Y-95531632D01*
X115033595Y-95572811D01*
X115036445Y-95574476D01*
X115085169Y-95626114D01*
X115098240Y-95695897D01*
X115071509Y-95761669D01*
X115031055Y-95795027D01*
X115018607Y-95801507D01*
X115014474Y-95804610D01*
X115014471Y-95804612D01*
X114981048Y-95829707D01*
X114839965Y-95935635D01*
X114685629Y-96097138D01*
X114559743Y-96281680D01*
X114545868Y-96311572D01*
X114481783Y-96449632D01*
X114465688Y-96484305D01*
X114405989Y-96699570D01*
X114382251Y-96921695D01*
X114382548Y-96926848D01*
X114382548Y-96926851D01*
X114392325Y-97096408D01*
X114395110Y-97144715D01*
X114396247Y-97149761D01*
X114396248Y-97149767D01*
X114405557Y-97191071D01*
X114444222Y-97362639D01*
X114528266Y-97569616D01*
X114530965Y-97574020D01*
X114623659Y-97725283D01*
X114644987Y-97760088D01*
X114791250Y-97928938D01*
X114963126Y-98071632D01*
X114981608Y-98082432D01*
X115036445Y-98114476D01*
X115085169Y-98166114D01*
X115098240Y-98235897D01*
X115071509Y-98301669D01*
X115031055Y-98335027D01*
X115018607Y-98341507D01*
X115014474Y-98344610D01*
X115014471Y-98344612D01*
X114947198Y-98395122D01*
X114839965Y-98475635D01*
X114685629Y-98637138D01*
X114559743Y-98821680D01*
X114465688Y-99024305D01*
X114405989Y-99239570D01*
X114382251Y-99461695D01*
X109508500Y-99461695D01*
X109508500Y-86761695D01*
X114382251Y-86761695D01*
X114382548Y-86766848D01*
X114382548Y-86766851D01*
X114392395Y-86937635D01*
X114395110Y-86984715D01*
X114396247Y-86989761D01*
X114396248Y-86989767D01*
X114410660Y-87053714D01*
X114444222Y-87202639D01*
X114528266Y-87409616D01*
X114644987Y-87600088D01*
X114791250Y-87768938D01*
X114795225Y-87772238D01*
X114795231Y-87772244D01*
X114800425Y-87776556D01*
X114840059Y-87835460D01*
X114841555Y-87906441D01*
X114804439Y-87966962D01*
X114764168Y-87991480D01*
X114656946Y-88031676D01*
X114641351Y-88040214D01*
X114539276Y-88116715D01*
X114526715Y-88129276D01*
X114450214Y-88231351D01*
X114441676Y-88246946D01*
X114396522Y-88367394D01*
X114392895Y-88382649D01*
X114387369Y-88433514D01*
X114387000Y-88440328D01*
X114387000Y-89062885D01*
X114391475Y-89078124D01*
X114392865Y-89079329D01*
X114400548Y-89081000D01*
X117084884Y-89081000D01*
X117100123Y-89076525D01*
X117101328Y-89075135D01*
X117102999Y-89067452D01*
X117102999Y-88440331D01*
X117102629Y-88433510D01*
X117097105Y-88382648D01*
X117093479Y-88367396D01*
X117048324Y-88246946D01*
X117039786Y-88231351D01*
X116963285Y-88129276D01*
X116950724Y-88116715D01*
X116848649Y-88040214D01*
X116833054Y-88031676D01*
X116722813Y-87990348D01*
X116666049Y-87947706D01*
X116641349Y-87881145D01*
X116656557Y-87811796D01*
X116678104Y-87783115D01*
X116779430Y-87682144D01*
X116779440Y-87682132D01*
X116783096Y-87678489D01*
X116842594Y-87595689D01*
X116910435Y-87501277D01*
X116913453Y-87497077D01*
X116924672Y-87474378D01*
X117010136Y-87301453D01*
X117010137Y-87301451D01*
X117012430Y-87296811D01*
X117058548Y-87145020D01*
X117075865Y-87088023D01*
X117075865Y-87088021D01*
X117077370Y-87083069D01*
X117082426Y-87044669D01*
X120539501Y-87044669D01*
X120539871Y-87051490D01*
X120545395Y-87102352D01*
X120549021Y-87117604D01*
X120594176Y-87238054D01*
X120602714Y-87253649D01*
X120679215Y-87355724D01*
X120691776Y-87368285D01*
X120793851Y-87444786D01*
X120809446Y-87453324D01*
X120929894Y-87498478D01*
X120945149Y-87502105D01*
X120996014Y-87507631D01*
X121002828Y-87508000D01*
X121727885Y-87508000D01*
X121743124Y-87503525D01*
X121744329Y-87502135D01*
X121746000Y-87494452D01*
X121746000Y-87489884D01*
X122254000Y-87489884D01*
X122258475Y-87505123D01*
X122259865Y-87506328D01*
X122267548Y-87507999D01*
X122997169Y-87507999D01*
X123003990Y-87507629D01*
X123054852Y-87502105D01*
X123070104Y-87498479D01*
X123190554Y-87453324D01*
X123206149Y-87444786D01*
X123308224Y-87368285D01*
X123320785Y-87355724D01*
X123397286Y-87253649D01*
X123405824Y-87238055D01*
X123410160Y-87226487D01*
X123452801Y-87169721D01*
X123519362Y-87145020D01*
X123588711Y-87160226D01*
X123606235Y-87171832D01*
X123724670Y-87265367D01*
X123724675Y-87265370D01*
X123728724Y-87268568D01*
X123733240Y-87271061D01*
X123733243Y-87271063D01*
X123934526Y-87382177D01*
X123934530Y-87382179D01*
X123939050Y-87384674D01*
X123943919Y-87386398D01*
X123943923Y-87386400D01*
X124160640Y-87463144D01*
X124160644Y-87463145D01*
X124165515Y-87464870D01*
X124170608Y-87465777D01*
X124170611Y-87465778D01*
X124396948Y-87506095D01*
X124396954Y-87506096D01*
X124402037Y-87507001D01*
X124483804Y-87508000D01*
X124637093Y-87509873D01*
X124637095Y-87509873D01*
X124642263Y-87509936D01*
X124879744Y-87473596D01*
X124991997Y-87436906D01*
X125103183Y-87400566D01*
X125103189Y-87400563D01*
X125108101Y-87398958D01*
X125112687Y-87396571D01*
X125112691Y-87396569D01*
X125316607Y-87290416D01*
X125321200Y-87288025D01*
X125428549Y-87207425D01*
X125509185Y-87146882D01*
X125509188Y-87146880D01*
X125513320Y-87143777D01*
X125599386Y-87053714D01*
X125675730Y-86973825D01*
X125675731Y-86973824D01*
X125679301Y-86970088D01*
X125704535Y-86933097D01*
X125759444Y-86888096D01*
X125829968Y-86879925D01*
X125893716Y-86911179D01*
X125914411Y-86935660D01*
X125918498Y-86941977D01*
X126080186Y-87119670D01*
X126131539Y-87160226D01*
X126264670Y-87265367D01*
X126264675Y-87265370D01*
X126268724Y-87268568D01*
X126273240Y-87271061D01*
X126273243Y-87271063D01*
X126474526Y-87382177D01*
X126474530Y-87382179D01*
X126479050Y-87384674D01*
X126483919Y-87386398D01*
X126483923Y-87386400D01*
X126700640Y-87463144D01*
X126700644Y-87463145D01*
X126705515Y-87464870D01*
X126710608Y-87465777D01*
X126710611Y-87465778D01*
X126936948Y-87506095D01*
X126936954Y-87506096D01*
X126942037Y-87507001D01*
X127023804Y-87508000D01*
X127177093Y-87509873D01*
X127177095Y-87509873D01*
X127182263Y-87509936D01*
X127419744Y-87473596D01*
X127531997Y-87436906D01*
X127643183Y-87400566D01*
X127643189Y-87400563D01*
X127648101Y-87398958D01*
X127652687Y-87396571D01*
X127652691Y-87396569D01*
X127856607Y-87290416D01*
X127861200Y-87288025D01*
X127968549Y-87207425D01*
X128049185Y-87146882D01*
X128049188Y-87146880D01*
X128053320Y-87143777D01*
X128219301Y-86970088D01*
X128338739Y-86795000D01*
X128351774Y-86775891D01*
X128351775Y-86775890D01*
X128354686Y-86771622D01*
X128369243Y-86740263D01*
X128453658Y-86558405D01*
X128453659Y-86558401D01*
X128455837Y-86553710D01*
X128520040Y-86322202D01*
X128526702Y-86259865D01*
X128540644Y-86129407D01*
X128540644Y-86129399D01*
X128541000Y-86126072D01*
X128541000Y-85891598D01*
X128539548Y-85873928D01*
X128528662Y-85741525D01*
X128526322Y-85713063D01*
X128467794Y-85480056D01*
X128387840Y-85296173D01*
X128374057Y-85264474D01*
X128374055Y-85264471D01*
X128371997Y-85259737D01*
X128261426Y-85088821D01*
X128244310Y-85062363D01*
X128244308Y-85062360D01*
X128241502Y-85058023D01*
X128079814Y-84880330D01*
X127929914Y-84761946D01*
X127895330Y-84734633D01*
X127895325Y-84734630D01*
X127891276Y-84731432D01*
X127886760Y-84728939D01*
X127886757Y-84728937D01*
X127685474Y-84617823D01*
X127685470Y-84617821D01*
X127680950Y-84615326D01*
X127676081Y-84613602D01*
X127676077Y-84613600D01*
X127459360Y-84536856D01*
X127459356Y-84536855D01*
X127454485Y-84535130D01*
X127449392Y-84534223D01*
X127449389Y-84534222D01*
X127223052Y-84493905D01*
X127223046Y-84493904D01*
X127217963Y-84492999D01*
X127130600Y-84491932D01*
X126982907Y-84490127D01*
X126982905Y-84490127D01*
X126977737Y-84490064D01*
X126740256Y-84526404D01*
X126652111Y-84555214D01*
X126516817Y-84599434D01*
X126516811Y-84599437D01*
X126511899Y-84601042D01*
X126507313Y-84603429D01*
X126507309Y-84603431D01*
X126403260Y-84657596D01*
X126298800Y-84711975D01*
X126106680Y-84856223D01*
X125940699Y-85029912D01*
X125915465Y-85066903D01*
X125860556Y-85111904D01*
X125790032Y-85120075D01*
X125726284Y-85088821D01*
X125705589Y-85064340D01*
X125704311Y-85062365D01*
X125701502Y-85058023D01*
X125539814Y-84880330D01*
X125389914Y-84761946D01*
X125355330Y-84734633D01*
X125355325Y-84734630D01*
X125351276Y-84731432D01*
X125346760Y-84728939D01*
X125346757Y-84728937D01*
X125145474Y-84617823D01*
X125145470Y-84617821D01*
X125140950Y-84615326D01*
X125136081Y-84613602D01*
X125136077Y-84613600D01*
X124919360Y-84536856D01*
X124919356Y-84536855D01*
X124914485Y-84535130D01*
X124909392Y-84534223D01*
X124909389Y-84534222D01*
X124683052Y-84493905D01*
X124683046Y-84493904D01*
X124677963Y-84492999D01*
X124590600Y-84491932D01*
X124442907Y-84490127D01*
X124442905Y-84490127D01*
X124437737Y-84490064D01*
X124200256Y-84526404D01*
X124112111Y-84555214D01*
X123976817Y-84599434D01*
X123976811Y-84599437D01*
X123971899Y-84601042D01*
X123967313Y-84603429D01*
X123967309Y-84603431D01*
X123863260Y-84657596D01*
X123758800Y-84711975D01*
X123603300Y-84828728D01*
X123536818Y-84853633D01*
X123467422Y-84838641D01*
X123417148Y-84788511D01*
X123409667Y-84772197D01*
X123405824Y-84761946D01*
X123397286Y-84746351D01*
X123320785Y-84644276D01*
X123308224Y-84631715D01*
X123206149Y-84555214D01*
X123190554Y-84546676D01*
X123070106Y-84501522D01*
X123054851Y-84497895D01*
X123003986Y-84492369D01*
X122997172Y-84492000D01*
X122272115Y-84492000D01*
X122256876Y-84496475D01*
X122255671Y-84497865D01*
X122254000Y-84505548D01*
X122254000Y-87489884D01*
X121746000Y-87489884D01*
X121746000Y-86272115D01*
X121741525Y-86256876D01*
X121740135Y-86255671D01*
X121732452Y-86254000D01*
X120557616Y-86254000D01*
X120542377Y-86258475D01*
X120541172Y-86259865D01*
X120539501Y-86267548D01*
X120539501Y-87044669D01*
X117082426Y-87044669D01*
X117106529Y-86861590D01*
X117108156Y-86795000D01*
X117089852Y-86572361D01*
X117035431Y-86355702D01*
X116946354Y-86150840D01*
X116825014Y-85963277D01*
X116674670Y-85798051D01*
X116670619Y-85794852D01*
X116670615Y-85794848D01*
X116585826Y-85727885D01*
X120539500Y-85727885D01*
X120543975Y-85743124D01*
X120545365Y-85744329D01*
X120553048Y-85746000D01*
X121727885Y-85746000D01*
X121743124Y-85741525D01*
X121744329Y-85740135D01*
X121746000Y-85732452D01*
X121746000Y-84510116D01*
X121741525Y-84494877D01*
X121740135Y-84493672D01*
X121732452Y-84492001D01*
X121002831Y-84492001D01*
X120996010Y-84492371D01*
X120945148Y-84497895D01*
X120929896Y-84501521D01*
X120809446Y-84546676D01*
X120793851Y-84555214D01*
X120691776Y-84631715D01*
X120679215Y-84644276D01*
X120602714Y-84746351D01*
X120594176Y-84761946D01*
X120549022Y-84882394D01*
X120545395Y-84897649D01*
X120539869Y-84948514D01*
X120539500Y-84955328D01*
X120539500Y-85727885D01*
X116585826Y-85727885D01*
X116503414Y-85662800D01*
X116503410Y-85662798D01*
X116499359Y-85659598D01*
X116458053Y-85636796D01*
X116408084Y-85586364D01*
X116393312Y-85516921D01*
X116418428Y-85450516D01*
X116445780Y-85423909D01*
X116489603Y-85392650D01*
X116624860Y-85296173D01*
X116783096Y-85138489D01*
X116842594Y-85055689D01*
X116910435Y-84961277D01*
X116913453Y-84957077D01*
X116950364Y-84882394D01*
X117010136Y-84761453D01*
X117010137Y-84761451D01*
X117012430Y-84756811D01*
X117077370Y-84543069D01*
X117106529Y-84321590D01*
X117108156Y-84255000D01*
X117089852Y-84032361D01*
X117035431Y-83815702D01*
X116946354Y-83610840D01*
X116825014Y-83423277D01*
X116674670Y-83258051D01*
X116670619Y-83254852D01*
X116670615Y-83254848D01*
X116503414Y-83122800D01*
X116503410Y-83122798D01*
X116499359Y-83119598D01*
X116458053Y-83096796D01*
X116408084Y-83046364D01*
X116393312Y-82976921D01*
X116418428Y-82910516D01*
X116445780Y-82883909D01*
X116489603Y-82852650D01*
X116624860Y-82756173D01*
X116783096Y-82598489D01*
X116842594Y-82515689D01*
X116910435Y-82421277D01*
X116913453Y-82417077D01*
X117012430Y-82216811D01*
X117077370Y-82003069D01*
X117106529Y-81781590D01*
X117108156Y-81715000D01*
X117089852Y-81492361D01*
X117035431Y-81275702D01*
X116946354Y-81070840D01*
X116825014Y-80883277D01*
X116674670Y-80718051D01*
X116670619Y-80714852D01*
X116670615Y-80714848D01*
X116503414Y-80582800D01*
X116503410Y-80582798D01*
X116499359Y-80579598D01*
X116458053Y-80556796D01*
X116408084Y-80506364D01*
X116393312Y-80436921D01*
X116418428Y-80370516D01*
X116445780Y-80343909D01*
X116489603Y-80312650D01*
X116624860Y-80216173D01*
X116783096Y-80058489D01*
X116842594Y-79975689D01*
X116910435Y-79881277D01*
X116913453Y-79877077D01*
X117012430Y-79676811D01*
X117077370Y-79463069D01*
X117106529Y-79241590D01*
X117108156Y-79175000D01*
X117089852Y-78952361D01*
X117035431Y-78735702D01*
X116946354Y-78530840D01*
X116825014Y-78343277D01*
X116821540Y-78339459D01*
X116821533Y-78339450D01*
X116677435Y-78181088D01*
X116646383Y-78117242D01*
X116654779Y-78046744D01*
X116699956Y-77991976D01*
X116726400Y-77978307D01*
X116833052Y-77938325D01*
X116848649Y-77929786D01*
X116950724Y-77853285D01*
X116963285Y-77840724D01*
X117039786Y-77738649D01*
X117048324Y-77723054D01*
X117093478Y-77602606D01*
X117097105Y-77587351D01*
X117102631Y-77536486D01*
X117103000Y-77529672D01*
X117103000Y-76907115D01*
X117098525Y-76891876D01*
X117097135Y-76890671D01*
X117089452Y-76889000D01*
X114405116Y-76889000D01*
X114389877Y-76893475D01*
X114388672Y-76894865D01*
X114387001Y-76902548D01*
X114387001Y-77529669D01*
X114387371Y-77536490D01*
X114392895Y-77587352D01*
X114396521Y-77602604D01*
X114441676Y-77723054D01*
X114450214Y-77738649D01*
X114526715Y-77840724D01*
X114539276Y-77853285D01*
X114641351Y-77929786D01*
X114656946Y-77938324D01*
X114765827Y-77979142D01*
X114822591Y-78021784D01*
X114847291Y-78088345D01*
X114832083Y-78157694D01*
X114812691Y-78184175D01*
X114689200Y-78313401D01*
X114685629Y-78317138D01*
X114559743Y-78501680D01*
X114465688Y-78704305D01*
X114405989Y-78919570D01*
X114382251Y-79141695D01*
X114382548Y-79146848D01*
X114382548Y-79146851D01*
X114388011Y-79241590D01*
X114395110Y-79364715D01*
X114396247Y-79369761D01*
X114396248Y-79369767D01*
X114410660Y-79433714D01*
X114444222Y-79582639D01*
X114528266Y-79789616D01*
X114644987Y-79980088D01*
X114791250Y-80148938D01*
X114963126Y-80291632D01*
X115033595Y-80332811D01*
X115036445Y-80334476D01*
X115085169Y-80386114D01*
X115098240Y-80455897D01*
X115071509Y-80521669D01*
X115031055Y-80555027D01*
X115018607Y-80561507D01*
X115014474Y-80564610D01*
X115014471Y-80564612D01*
X114990247Y-80582800D01*
X114839965Y-80695635D01*
X114685629Y-80857138D01*
X114559743Y-81041680D01*
X114465688Y-81244305D01*
X114405989Y-81459570D01*
X114382251Y-81681695D01*
X114382548Y-81686848D01*
X114382548Y-81686851D01*
X114388011Y-81781590D01*
X114395110Y-81904715D01*
X114396247Y-81909761D01*
X114396248Y-81909767D01*
X114410660Y-81973714D01*
X114444222Y-82122639D01*
X114528266Y-82329616D01*
X114644987Y-82520088D01*
X114791250Y-82688938D01*
X114963126Y-82831632D01*
X115033595Y-82872811D01*
X115036445Y-82874476D01*
X115085169Y-82926114D01*
X115098240Y-82995897D01*
X115071509Y-83061669D01*
X115031055Y-83095027D01*
X115018607Y-83101507D01*
X115014474Y-83104610D01*
X115014471Y-83104612D01*
X114990247Y-83122800D01*
X114839965Y-83235635D01*
X114685629Y-83397138D01*
X114559743Y-83581680D01*
X114465688Y-83784305D01*
X114405989Y-83999570D01*
X114382251Y-84221695D01*
X114382548Y-84226848D01*
X114382548Y-84226851D01*
X114388011Y-84321590D01*
X114395110Y-84444715D01*
X114396247Y-84449761D01*
X114396248Y-84449767D01*
X114415486Y-84535130D01*
X114444222Y-84662639D01*
X114482461Y-84756811D01*
X114524346Y-84859961D01*
X114528266Y-84869616D01*
X114537172Y-84884149D01*
X114641381Y-85054203D01*
X114644987Y-85060088D01*
X114791250Y-85228938D01*
X114963126Y-85371632D01*
X115033595Y-85412811D01*
X115036445Y-85414476D01*
X115085169Y-85466114D01*
X115098240Y-85535897D01*
X115071509Y-85601669D01*
X115031055Y-85635027D01*
X115018607Y-85641507D01*
X115014474Y-85644610D01*
X115014471Y-85644612D01*
X114879435Y-85746000D01*
X114839965Y-85775635D01*
X114685629Y-85937138D01*
X114559743Y-86121680D01*
X114544003Y-86155590D01*
X114469049Y-86317065D01*
X114465688Y-86324305D01*
X114405989Y-86539570D01*
X114382251Y-86761695D01*
X109508500Y-86761695D01*
X109508500Y-76655186D01*
X121709960Y-76655186D01*
X121717418Y-76665554D01*
X121932662Y-76839854D01*
X121937984Y-76843721D01*
X122240823Y-77040387D01*
X122246532Y-77043683D01*
X122568275Y-77207620D01*
X122574286Y-77210296D01*
X122911395Y-77339700D01*
X122917672Y-77341740D01*
X123266463Y-77435198D01*
X123272901Y-77436567D01*
X123629560Y-77493055D01*
X123636104Y-77493743D01*
X123996699Y-77512641D01*
X124003301Y-77512641D01*
X124363896Y-77493743D01*
X124370440Y-77493055D01*
X124727099Y-77436567D01*
X124733537Y-77435198D01*
X125082328Y-77341740D01*
X125088605Y-77339700D01*
X125425714Y-77210296D01*
X125431725Y-77207620D01*
X125753468Y-77043683D01*
X125759177Y-77040387D01*
X126062016Y-76843721D01*
X126067338Y-76839854D01*
X126281634Y-76666322D01*
X126290100Y-76654067D01*
X126283766Y-76642976D01*
X124012812Y-74372022D01*
X123998868Y-74364408D01*
X123997035Y-74364539D01*
X123990420Y-74368790D01*
X121717100Y-76642110D01*
X121709960Y-76655186D01*
X109508500Y-76655186D01*
X109508500Y-74061695D01*
X114382251Y-74061695D01*
X114382548Y-74066848D01*
X114382548Y-74066851D01*
X114387833Y-74158502D01*
X114395110Y-74284715D01*
X114396247Y-74289761D01*
X114396248Y-74289767D01*
X114410660Y-74353714D01*
X114444222Y-74502639D01*
X114528266Y-74709616D01*
X114644987Y-74900088D01*
X114791250Y-75068938D01*
X114795225Y-75072238D01*
X114795231Y-75072244D01*
X114800425Y-75076556D01*
X114840059Y-75135460D01*
X114841555Y-75206441D01*
X114804439Y-75266962D01*
X114764168Y-75291480D01*
X114656946Y-75331676D01*
X114641351Y-75340214D01*
X114539276Y-75416715D01*
X114526715Y-75429276D01*
X114450214Y-75531351D01*
X114441676Y-75546946D01*
X114396522Y-75667394D01*
X114392895Y-75682649D01*
X114387369Y-75733514D01*
X114387000Y-75740328D01*
X114387000Y-76362885D01*
X114391475Y-76378124D01*
X114392865Y-76379329D01*
X114400548Y-76381000D01*
X117084884Y-76381000D01*
X117100123Y-76376525D01*
X117101328Y-76375135D01*
X117102999Y-76367452D01*
X117102999Y-75740331D01*
X117102629Y-75733510D01*
X117097105Y-75682648D01*
X117093479Y-75667396D01*
X117048324Y-75546946D01*
X117039786Y-75531351D01*
X116963285Y-75429276D01*
X116950724Y-75416715D01*
X116848649Y-75340214D01*
X116833054Y-75331676D01*
X116722813Y-75290348D01*
X116666049Y-75247706D01*
X116641349Y-75181145D01*
X116656557Y-75111796D01*
X116678104Y-75083115D01*
X116779430Y-74982144D01*
X116779440Y-74982132D01*
X116783096Y-74978489D01*
X116842594Y-74895689D01*
X116910435Y-74801277D01*
X116913453Y-74797077D01*
X117012430Y-74596811D01*
X117077370Y-74383069D01*
X117106529Y-74161590D01*
X117108156Y-74095000D01*
X117100617Y-74003301D01*
X120487359Y-74003301D01*
X120506257Y-74363896D01*
X120506945Y-74370440D01*
X120563433Y-74727099D01*
X120564802Y-74733537D01*
X120658260Y-75082328D01*
X120660300Y-75088605D01*
X120789704Y-75425714D01*
X120792380Y-75431725D01*
X120956317Y-75753468D01*
X120959613Y-75759177D01*
X121156279Y-76062016D01*
X121160146Y-76067338D01*
X121333678Y-76281634D01*
X121345933Y-76290100D01*
X121357024Y-76283766D01*
X123627978Y-74012812D01*
X123634356Y-74001132D01*
X124364408Y-74001132D01*
X124364539Y-74002965D01*
X124368790Y-74009580D01*
X126642110Y-76282900D01*
X126655186Y-76290040D01*
X126665554Y-76282582D01*
X126839854Y-76067338D01*
X126843721Y-76062016D01*
X127040387Y-75759177D01*
X127043683Y-75753468D01*
X127207620Y-75431725D01*
X127210296Y-75425714D01*
X127339700Y-75088605D01*
X127341740Y-75082328D01*
X127435198Y-74733537D01*
X127436567Y-74727099D01*
X127493055Y-74370440D01*
X127493743Y-74363896D01*
X127512641Y-74003301D01*
X127512641Y-73996699D01*
X127493743Y-73636104D01*
X127493055Y-73629560D01*
X127436567Y-73272901D01*
X127435198Y-73266463D01*
X127341740Y-72917672D01*
X127339700Y-72911395D01*
X127210296Y-72574286D01*
X127207620Y-72568275D01*
X127043683Y-72246532D01*
X127040387Y-72240823D01*
X126843721Y-71937984D01*
X126839854Y-71932662D01*
X126666322Y-71718366D01*
X126654067Y-71709900D01*
X126642976Y-71716234D01*
X124372022Y-73987188D01*
X124364408Y-74001132D01*
X123634356Y-74001132D01*
X123635592Y-73998868D01*
X123635461Y-73997035D01*
X123631210Y-73990420D01*
X121357890Y-71717100D01*
X121344814Y-71709960D01*
X121334446Y-71717418D01*
X121160146Y-71932662D01*
X121156279Y-71937984D01*
X120959613Y-72240823D01*
X120956317Y-72246532D01*
X120792380Y-72568275D01*
X120789704Y-72574286D01*
X120660300Y-72911395D01*
X120658260Y-72917672D01*
X120564802Y-73266463D01*
X120563433Y-73272901D01*
X120506945Y-73629560D01*
X120506257Y-73636104D01*
X120487359Y-73996699D01*
X120487359Y-74003301D01*
X117100617Y-74003301D01*
X117089852Y-73872361D01*
X117035431Y-73655702D01*
X116946354Y-73450840D01*
X116849530Y-73301173D01*
X116827822Y-73267617D01*
X116827820Y-73267614D01*
X116825014Y-73263277D01*
X116674670Y-73098051D01*
X116670619Y-73094852D01*
X116670615Y-73094848D01*
X116503414Y-72962800D01*
X116503410Y-72962798D01*
X116499359Y-72959598D01*
X116458053Y-72936796D01*
X116408084Y-72886364D01*
X116393312Y-72816921D01*
X116418428Y-72750516D01*
X116445780Y-72723909D01*
X116489603Y-72692650D01*
X116624860Y-72596173D01*
X116673133Y-72548069D01*
X116766761Y-72454767D01*
X116783096Y-72438489D01*
X116842594Y-72355689D01*
X116910435Y-72261277D01*
X116913453Y-72257077D01*
X116923019Y-72237723D01*
X117010136Y-72061453D01*
X117010137Y-72061451D01*
X117012430Y-72056811D01*
X117077370Y-71843069D01*
X117106529Y-71621590D01*
X117106611Y-71618240D01*
X117108074Y-71558365D01*
X117108074Y-71558361D01*
X117108156Y-71555000D01*
X117090968Y-71345933D01*
X121709900Y-71345933D01*
X121716234Y-71357024D01*
X123987188Y-73627978D01*
X124001132Y-73635592D01*
X124002965Y-73635461D01*
X124009580Y-73631210D01*
X126282900Y-71357890D01*
X126290040Y-71344814D01*
X126282582Y-71334446D01*
X126067338Y-71160146D01*
X126062016Y-71156279D01*
X125759177Y-70959613D01*
X125753468Y-70956317D01*
X125431725Y-70792380D01*
X125425714Y-70789704D01*
X125088605Y-70660300D01*
X125082328Y-70658260D01*
X124733537Y-70564802D01*
X124727099Y-70563433D01*
X124370440Y-70506945D01*
X124363896Y-70506257D01*
X124003301Y-70487359D01*
X123996699Y-70487359D01*
X123636104Y-70506257D01*
X123629560Y-70506945D01*
X123272901Y-70563433D01*
X123266463Y-70564802D01*
X122917672Y-70658260D01*
X122911395Y-70660300D01*
X122574286Y-70789704D01*
X122568275Y-70792380D01*
X122246532Y-70956317D01*
X122240823Y-70959613D01*
X121937984Y-71156279D01*
X121932662Y-71160146D01*
X121718366Y-71333678D01*
X121709900Y-71345933D01*
X117090968Y-71345933D01*
X117089852Y-71332361D01*
X117035431Y-71115702D01*
X116946354Y-70910840D01*
X116825014Y-70723277D01*
X116674670Y-70558051D01*
X116670619Y-70554852D01*
X116670615Y-70554848D01*
X116503414Y-70422800D01*
X116503410Y-70422798D01*
X116499359Y-70419598D01*
X116458053Y-70396796D01*
X116408084Y-70346364D01*
X116393312Y-70276921D01*
X116418428Y-70210516D01*
X116445780Y-70183909D01*
X116503699Y-70142596D01*
X116624860Y-70056173D01*
X116645898Y-70035209D01*
X116756947Y-69924547D01*
X116783096Y-69898489D01*
X116788118Y-69891501D01*
X116910435Y-69721277D01*
X116913453Y-69717077D01*
X116927333Y-69688994D01*
X117010136Y-69521453D01*
X117010137Y-69521451D01*
X117012430Y-69516811D01*
X117054352Y-69378829D01*
X117075865Y-69308023D01*
X117075865Y-69308021D01*
X117077370Y-69303069D01*
X117106529Y-69081590D01*
X117108156Y-69015000D01*
X117089852Y-68792361D01*
X117035431Y-68575702D01*
X116946354Y-68370840D01*
X116889185Y-68282470D01*
X116827822Y-68187617D01*
X116827820Y-68187614D01*
X116825014Y-68183277D01*
X116674670Y-68018051D01*
X116670619Y-68014852D01*
X116670615Y-68014848D01*
X116503414Y-67882800D01*
X116503410Y-67882798D01*
X116499359Y-67879598D01*
X116458053Y-67856796D01*
X116408084Y-67806364D01*
X116393312Y-67736921D01*
X116418428Y-67670516D01*
X116445780Y-67643909D01*
X116495315Y-67608576D01*
X116624860Y-67516173D01*
X116649620Y-67491500D01*
X116779435Y-67362137D01*
X116783096Y-67358489D01*
X116842594Y-67275689D01*
X116910435Y-67181277D01*
X116913453Y-67177077D01*
X117012430Y-66976811D01*
X117077370Y-66763069D01*
X117106529Y-66541590D01*
X117107261Y-66511623D01*
X117108074Y-66478365D01*
X117108074Y-66478361D01*
X117108156Y-66475000D01*
X117089852Y-66252361D01*
X117035431Y-66035702D01*
X116946354Y-65830840D01*
X116825014Y-65643277D01*
X116821540Y-65639459D01*
X116821533Y-65639450D01*
X116677435Y-65481088D01*
X116646383Y-65417242D01*
X116654779Y-65346744D01*
X116699956Y-65291976D01*
X116726400Y-65278307D01*
X116833052Y-65238325D01*
X116848649Y-65229786D01*
X116950724Y-65153285D01*
X116963285Y-65140724D01*
X117039786Y-65038649D01*
X117048324Y-65023054D01*
X117093478Y-64902606D01*
X117097105Y-64887351D01*
X117102631Y-64836486D01*
X117103000Y-64829672D01*
X117103000Y-64207115D01*
X117098525Y-64191876D01*
X117097135Y-64190671D01*
X117089452Y-64189000D01*
X114405116Y-64189000D01*
X114389877Y-64193475D01*
X114388672Y-64194865D01*
X114387001Y-64202548D01*
X114387001Y-64829669D01*
X114387371Y-64836490D01*
X114392895Y-64887352D01*
X114396521Y-64902604D01*
X114441676Y-65023054D01*
X114450214Y-65038649D01*
X114526715Y-65140724D01*
X114539276Y-65153285D01*
X114641351Y-65229786D01*
X114656946Y-65238324D01*
X114765827Y-65279142D01*
X114822591Y-65321784D01*
X114847291Y-65388345D01*
X114832083Y-65457694D01*
X114812691Y-65484175D01*
X114703650Y-65598280D01*
X114685629Y-65617138D01*
X114682715Y-65621410D01*
X114682714Y-65621411D01*
X114670409Y-65639450D01*
X114559743Y-65801680D01*
X114538124Y-65848255D01*
X114476340Y-65981358D01*
X114465688Y-66004305D01*
X114405989Y-66219570D01*
X114382251Y-66441695D01*
X114382548Y-66446848D01*
X114382548Y-66446851D01*
X114392854Y-66625591D01*
X114395110Y-66664715D01*
X114396247Y-66669761D01*
X114396248Y-66669767D01*
X114406323Y-66714470D01*
X114444222Y-66882639D01*
X114528266Y-67089616D01*
X114644987Y-67280088D01*
X114791250Y-67448938D01*
X114963126Y-67591632D01*
X114993801Y-67609557D01*
X115036445Y-67634476D01*
X115085169Y-67686114D01*
X115098240Y-67755897D01*
X115071509Y-67821669D01*
X115031055Y-67855027D01*
X115018607Y-67861507D01*
X115014474Y-67864610D01*
X115014471Y-67864612D01*
X114844100Y-67992530D01*
X114839965Y-67995635D01*
X114685629Y-68157138D01*
X114559743Y-68341680D01*
X114544003Y-68375590D01*
X114476553Y-68520899D01*
X114465688Y-68544305D01*
X114405989Y-68759570D01*
X114382251Y-68981695D01*
X114382548Y-68986848D01*
X114382548Y-68986851D01*
X114387833Y-69078507D01*
X114395110Y-69204715D01*
X114396247Y-69209761D01*
X114396248Y-69209767D01*
X114408608Y-69264610D01*
X114444222Y-69422639D01*
X114484346Y-69521453D01*
X114520810Y-69611253D01*
X114528266Y-69629616D01*
X114555303Y-69673736D01*
X114638749Y-69809908D01*
X114644987Y-69820088D01*
X114648367Y-69823990D01*
X114659262Y-69836568D01*
X114791250Y-69988938D01*
X114963126Y-70131632D01*
X114981889Y-70142596D01*
X115036445Y-70174476D01*
X115085169Y-70226114D01*
X115098240Y-70295897D01*
X115071509Y-70361669D01*
X115031055Y-70395027D01*
X115018607Y-70401507D01*
X115014474Y-70404610D01*
X115014471Y-70404612D01*
X114844100Y-70532530D01*
X114839965Y-70535635D01*
X114685629Y-70697138D01*
X114559743Y-70881680D01*
X114544003Y-70915590D01*
X114470131Y-71074734D01*
X114465688Y-71084305D01*
X114405989Y-71299570D01*
X114382251Y-71521695D01*
X114382548Y-71526848D01*
X114382548Y-71526851D01*
X114388011Y-71621590D01*
X114395110Y-71744715D01*
X114396247Y-71749761D01*
X114396248Y-71749767D01*
X114412417Y-71821511D01*
X114444222Y-71962639D01*
X114528266Y-72169616D01*
X114644987Y-72360088D01*
X114791250Y-72528938D01*
X114963126Y-72671632D01*
X115033595Y-72712811D01*
X115036445Y-72714476D01*
X115085169Y-72766114D01*
X115098240Y-72835897D01*
X115071509Y-72901669D01*
X115031055Y-72935027D01*
X115018607Y-72941507D01*
X115014474Y-72944610D01*
X115014471Y-72944612D01*
X114859871Y-73060689D01*
X114839965Y-73075635D01*
X114836393Y-73079373D01*
X114692421Y-73230031D01*
X114685629Y-73237138D01*
X114559743Y-73421680D01*
X114544295Y-73454960D01*
X114479793Y-73593919D01*
X114465688Y-73624305D01*
X114405989Y-73839570D01*
X114382251Y-74061695D01*
X109508500Y-74061695D01*
X109508500Y-69921162D01*
X109493641Y-69684980D01*
X109434495Y-69374928D01*
X109336956Y-69074734D01*
X109310431Y-69018365D01*
X109204250Y-68792717D01*
X109204246Y-68792710D01*
X109202562Y-68789131D01*
X109033432Y-68522625D01*
X108846534Y-68296705D01*
X108834758Y-68282470D01*
X108834757Y-68282469D01*
X108832233Y-68279418D01*
X108602140Y-68063346D01*
X108587957Y-68053041D01*
X108487960Y-67980390D01*
X108346779Y-67877816D01*
X108322762Y-67864612D01*
X108073648Y-67727660D01*
X108073647Y-67727659D01*
X108070179Y-67725753D01*
X108066510Y-67724300D01*
X108066505Y-67724298D01*
X107780372Y-67611010D01*
X107780371Y-67611010D01*
X107776702Y-67609557D01*
X107470975Y-67531060D01*
X107157821Y-67491500D01*
X106842179Y-67491500D01*
X106529025Y-67531060D01*
X106223298Y-67609557D01*
X106219629Y-67611010D01*
X106219628Y-67611010D01*
X105933495Y-67724298D01*
X105933490Y-67724300D01*
X105929821Y-67725753D01*
X105926353Y-67727659D01*
X105926352Y-67727660D01*
X105891542Y-67746797D01*
X105719284Y-67841498D01*
X105711251Y-67845914D01*
X105650550Y-67861500D01*
X104380694Y-67861500D01*
X104312573Y-67841498D01*
X104266080Y-67787842D01*
X104255976Y-67717568D01*
X104263543Y-67689115D01*
X104268467Y-67676678D01*
X104330377Y-67472910D01*
X104332555Y-67462837D01*
X104333986Y-67451962D01*
X104331775Y-67437778D01*
X104318617Y-67434000D01*
X101683225Y-67434000D01*
X101669694Y-67437973D01*
X101668257Y-67447966D01*
X101698565Y-67582446D01*
X101701645Y-67592275D01*
X101781770Y-67789603D01*
X101786413Y-67798794D01*
X101897695Y-67980390D01*
X101903773Y-67988694D01*
X101935895Y-68025776D01*
X101965378Y-68090361D01*
X101955264Y-68160633D01*
X101917100Y-68208437D01*
X101765227Y-68324343D01*
X101576688Y-68517208D01*
X101417966Y-68735270D01*
X101387929Y-68792361D01*
X101294510Y-68969921D01*
X101294507Y-68969927D01*
X101292385Y-68973961D01*
X101290865Y-68978266D01*
X101290863Y-68978270D01*
X101254377Y-69081590D01*
X101202575Y-69228280D01*
X101188301Y-69300702D01*
X101152061Y-69484570D01*
X101150419Y-69492900D01*
X101150192Y-69497453D01*
X101150192Y-69497456D01*
X101137569Y-69751032D01*
X101137009Y-69762277D01*
X101162625Y-70030769D01*
X101163710Y-70035203D01*
X101163711Y-70035209D01*
X101224216Y-70282471D01*
X101226731Y-70292750D01*
X101327985Y-70542733D01*
X101464265Y-70775482D01*
X101505596Y-70827164D01*
X101611519Y-70959613D01*
X101632716Y-70986119D01*
X101829809Y-71170234D01*
X101908060Y-71224518D01*
X101909853Y-71225762D01*
X101954423Y-71281025D01*
X101962041Y-71351612D01*
X101939318Y-71401244D01*
X101940629Y-71402138D01*
X101814743Y-71586680D01*
X101796998Y-71624908D01*
X101724501Y-71781091D01*
X101720688Y-71789305D01*
X101660989Y-72004570D01*
X101637251Y-72226695D01*
X101637548Y-72231848D01*
X101637548Y-72231851D01*
X101644942Y-72360088D01*
X101650110Y-72449715D01*
X101651247Y-72454761D01*
X101651248Y-72454767D01*
X101663042Y-72507100D01*
X101699222Y-72667639D01*
X101783266Y-72874616D01*
X101833815Y-72957104D01*
X101878534Y-73030079D01*
X101899987Y-73065088D01*
X102046250Y-73233938D01*
X102050230Y-73237242D01*
X102054981Y-73241187D01*
X102094616Y-73300090D01*
X102096113Y-73371071D01*
X102058997Y-73431593D01*
X102018724Y-73456112D01*
X101903295Y-73499385D01*
X101786739Y-73586739D01*
X101699385Y-73703295D01*
X101648255Y-73839684D01*
X101641500Y-73901866D01*
X101641500Y-75698134D01*
X101648255Y-75760316D01*
X101699385Y-75896705D01*
X101786739Y-76013261D01*
X101903295Y-76100615D01*
X102039684Y-76151745D01*
X102101866Y-76158500D01*
X103898134Y-76158500D01*
X103960316Y-76151745D01*
X104096705Y-76100615D01*
X104213261Y-76013261D01*
X104228642Y-75992739D01*
X104264674Y-75944661D01*
X104321533Y-75902146D01*
X104392352Y-75897120D01*
X104454645Y-75931180D01*
X104488635Y-75993511D01*
X104491500Y-76020226D01*
X104491500Y-90418615D01*
X104471498Y-90486736D01*
X104417842Y-90533229D01*
X104347568Y-90543333D01*
X104282988Y-90513839D01*
X104249950Y-90468857D01*
X104202972Y-90360814D01*
X104198105Y-90351739D01*
X104082426Y-90172926D01*
X104076136Y-90164757D01*
X103932806Y-90007240D01*
X103925273Y-90000215D01*
X103758139Y-89868222D01*
X103749552Y-89862517D01*
X103563117Y-89759599D01*
X103553705Y-89755369D01*
X103352959Y-89684280D01*
X103342988Y-89681646D01*
X103271837Y-89668972D01*
X103258540Y-89670432D01*
X103254000Y-89684989D01*
X103254000Y-91128000D01*
X103233998Y-91196121D01*
X103180342Y-91242614D01*
X103128000Y-91254000D01*
X101683225Y-91254000D01*
X101669694Y-91257973D01*
X101668257Y-91267966D01*
X101698565Y-91402446D01*
X101701645Y-91412275D01*
X101781770Y-91609603D01*
X101786413Y-91618794D01*
X101897695Y-91800390D01*
X101903773Y-91808694D01*
X101935895Y-91845776D01*
X101965378Y-91910361D01*
X101955264Y-91980633D01*
X101917100Y-92028437D01*
X101821901Y-92101091D01*
X101765227Y-92144343D01*
X101762034Y-92147609D01*
X101762032Y-92147611D01*
X101689507Y-92221800D01*
X101576688Y-92337208D01*
X101417966Y-92555270D01*
X101415844Y-92559304D01*
X101294510Y-92789921D01*
X101294507Y-92789927D01*
X101292385Y-92793961D01*
X101290865Y-92798266D01*
X101290863Y-92798270D01*
X101204098Y-93043967D01*
X101202575Y-93048280D01*
X101183675Y-93144174D01*
X101156003Y-93284570D01*
X101150419Y-93312900D01*
X101150192Y-93317453D01*
X101150192Y-93317456D01*
X101138048Y-93561411D01*
X101137009Y-93582277D01*
X98508500Y-93582277D01*
X98508500Y-90734183D01*
X101664389Y-90734183D01*
X101665912Y-90742607D01*
X101678292Y-90746000D01*
X102727885Y-90746000D01*
X102743124Y-90741525D01*
X102744329Y-90740135D01*
X102746000Y-90732452D01*
X102746000Y-89683102D01*
X102742082Y-89669758D01*
X102727806Y-89667771D01*
X102689324Y-89673660D01*
X102679288Y-89676051D01*
X102476868Y-89742212D01*
X102467359Y-89746209D01*
X102278463Y-89844542D01*
X102269738Y-89850036D01*
X102099433Y-89977905D01*
X102091726Y-89984748D01*
X101944590Y-90138717D01*
X101938104Y-90146727D01*
X101818098Y-90322649D01*
X101813000Y-90331623D01*
X101723338Y-90524783D01*
X101719775Y-90534470D01*
X101664389Y-90734183D01*
X98508500Y-90734183D01*
X98508500Y-66914183D01*
X101664389Y-66914183D01*
X101665912Y-66922607D01*
X101678292Y-66926000D01*
X102727885Y-66926000D01*
X102743124Y-66921525D01*
X102744329Y-66920135D01*
X102746000Y-66912452D01*
X102746000Y-66907885D01*
X103254000Y-66907885D01*
X103258475Y-66923124D01*
X103259865Y-66924329D01*
X103267548Y-66926000D01*
X104318344Y-66926000D01*
X104331875Y-66922027D01*
X104333180Y-66912947D01*
X104291214Y-66745875D01*
X104287894Y-66736124D01*
X104202972Y-66540814D01*
X104198105Y-66531739D01*
X104082426Y-66352926D01*
X104076136Y-66344757D01*
X103932806Y-66187240D01*
X103925273Y-66180215D01*
X103758139Y-66048222D01*
X103749552Y-66042517D01*
X103563117Y-65939599D01*
X103553705Y-65935369D01*
X103352959Y-65864280D01*
X103342988Y-65861646D01*
X103271837Y-65848972D01*
X103258540Y-65850432D01*
X103254000Y-65864989D01*
X103254000Y-66907885D01*
X102746000Y-66907885D01*
X102746000Y-65863102D01*
X102742082Y-65849758D01*
X102727806Y-65847771D01*
X102689324Y-65853660D01*
X102679288Y-65856051D01*
X102476868Y-65922212D01*
X102467359Y-65926209D01*
X102278463Y-66024542D01*
X102269738Y-66030036D01*
X102099433Y-66157905D01*
X102091726Y-66164748D01*
X101944590Y-66318717D01*
X101938104Y-66326727D01*
X101818098Y-66502649D01*
X101813000Y-66511623D01*
X101723338Y-66704783D01*
X101719775Y-66714470D01*
X101664389Y-66914183D01*
X98508500Y-66914183D01*
X98508500Y-61361695D01*
X114382251Y-61361695D01*
X114382548Y-61366848D01*
X114382548Y-61366851D01*
X114388011Y-61461590D01*
X114395110Y-61584715D01*
X114396247Y-61589761D01*
X114396248Y-61589767D01*
X114416119Y-61677939D01*
X114444222Y-61802639D01*
X114528266Y-62009616D01*
X114644987Y-62200088D01*
X114791250Y-62368938D01*
X114795225Y-62372238D01*
X114795231Y-62372244D01*
X114800425Y-62376556D01*
X114840059Y-62435460D01*
X114841555Y-62506441D01*
X114804439Y-62566962D01*
X114764168Y-62591480D01*
X114656946Y-62631676D01*
X114641351Y-62640214D01*
X114539276Y-62716715D01*
X114526715Y-62729276D01*
X114450214Y-62831351D01*
X114441676Y-62846946D01*
X114396522Y-62967394D01*
X114392895Y-62982649D01*
X114387369Y-63033514D01*
X114387000Y-63040328D01*
X114387000Y-63662885D01*
X114391475Y-63678124D01*
X114392865Y-63679329D01*
X114400548Y-63681000D01*
X117084884Y-63681000D01*
X117100123Y-63676525D01*
X117101328Y-63675135D01*
X117102999Y-63667452D01*
X117102999Y-63040331D01*
X117102629Y-63033510D01*
X117097105Y-62982648D01*
X117093479Y-62967396D01*
X117048324Y-62846946D01*
X117039786Y-62831351D01*
X116963285Y-62729276D01*
X116950724Y-62716715D01*
X116848649Y-62640214D01*
X116833054Y-62631676D01*
X116722813Y-62590348D01*
X116666049Y-62547706D01*
X116641349Y-62481145D01*
X116656557Y-62411796D01*
X116678104Y-62383115D01*
X116779430Y-62282144D01*
X116779440Y-62282132D01*
X116783096Y-62278489D01*
X116842594Y-62195689D01*
X116910435Y-62101277D01*
X116913453Y-62097077D01*
X117012430Y-61896811D01*
X117077370Y-61683069D01*
X117106529Y-61461590D01*
X117108156Y-61395000D01*
X117089852Y-61172361D01*
X117035431Y-60955702D01*
X116946354Y-60750840D01*
X116825014Y-60563277D01*
X116674670Y-60398051D01*
X116670619Y-60394852D01*
X116670615Y-60394848D01*
X116503414Y-60262800D01*
X116503410Y-60262798D01*
X116499359Y-60259598D01*
X116458053Y-60236796D01*
X116408084Y-60186364D01*
X116393312Y-60116921D01*
X116418428Y-60050516D01*
X116445780Y-60023909D01*
X116489603Y-59992650D01*
X116624860Y-59896173D01*
X116783096Y-59738489D01*
X116842594Y-59655689D01*
X116910435Y-59561277D01*
X116913453Y-59557077D01*
X117012430Y-59356811D01*
X117077370Y-59143069D01*
X117106529Y-58921590D01*
X117108156Y-58855000D01*
X117089852Y-58632361D01*
X117035431Y-58415702D01*
X116946354Y-58210840D01*
X116825014Y-58023277D01*
X116674670Y-57858051D01*
X116670619Y-57854852D01*
X116670615Y-57854848D01*
X116503414Y-57722800D01*
X116503410Y-57722798D01*
X116499359Y-57719598D01*
X116303789Y-57611638D01*
X116298920Y-57609914D01*
X116298916Y-57609912D01*
X116098087Y-57538795D01*
X116098083Y-57538794D01*
X116093212Y-57537069D01*
X116088119Y-57536162D01*
X116088116Y-57536161D01*
X115878373Y-57498800D01*
X115878367Y-57498799D01*
X115873284Y-57497894D01*
X115799452Y-57496992D01*
X115655081Y-57495228D01*
X115655079Y-57495228D01*
X115649911Y-57495165D01*
X115429091Y-57528955D01*
X115216756Y-57598357D01*
X115018607Y-57701507D01*
X115014474Y-57704610D01*
X115014471Y-57704612D01*
X114844100Y-57832530D01*
X114839965Y-57835635D01*
X114836393Y-57839373D01*
X114758189Y-57921209D01*
X114685629Y-57997138D01*
X114559743Y-58181680D01*
X114465688Y-58384305D01*
X114405989Y-58599570D01*
X114382251Y-58821695D01*
X114382548Y-58826848D01*
X114382548Y-58826851D01*
X114394812Y-59039547D01*
X114395110Y-59044715D01*
X114396247Y-59049761D01*
X114396248Y-59049767D01*
X114396401Y-59050444D01*
X114444222Y-59262639D01*
X114528266Y-59469616D01*
X114530965Y-59474020D01*
X114625648Y-59628529D01*
X114644987Y-59660088D01*
X114791250Y-59828938D01*
X114963126Y-59971632D01*
X115033595Y-60012811D01*
X115036445Y-60014476D01*
X115085169Y-60066114D01*
X115098240Y-60135897D01*
X115071509Y-60201669D01*
X115031055Y-60235027D01*
X115018607Y-60241507D01*
X115014474Y-60244610D01*
X115014471Y-60244612D01*
X114869458Y-60353491D01*
X114839965Y-60375635D01*
X114685629Y-60537138D01*
X114559743Y-60721680D01*
X114465688Y-60924305D01*
X114405989Y-61139570D01*
X114382251Y-61361695D01*
X98508500Y-61361695D01*
X98508500Y-59576418D01*
X99789122Y-59576418D01*
X99789171Y-59577110D01*
X99794617Y-59585274D01*
X99872268Y-59657812D01*
X99876507Y-59661433D01*
X100209802Y-59921363D01*
X100214359Y-59924602D01*
X100569448Y-60153880D01*
X100574250Y-60156686D01*
X100948316Y-60353491D01*
X100953374Y-60355871D01*
X101343435Y-60518638D01*
X101348690Y-60520561D01*
X101751676Y-60648008D01*
X101757075Y-60649455D01*
X102169796Y-60740575D01*
X102175307Y-60741537D01*
X102594501Y-60795610D01*
X102600064Y-60796077D01*
X103022405Y-60812670D01*
X103027997Y-60812641D01*
X103450125Y-60791626D01*
X103455708Y-60791098D01*
X103874305Y-60732640D01*
X103879792Y-60731623D01*
X104291543Y-60636185D01*
X104296929Y-60634681D01*
X104698567Y-60503018D01*
X104703784Y-60501046D01*
X105092126Y-60334202D01*
X105097169Y-60331764D01*
X105469131Y-60131063D01*
X105473935Y-60128188D01*
X105826563Y-59895231D01*
X105831126Y-59891916D01*
X106161658Y-59628529D01*
X106165873Y-59624852D01*
X106203823Y-59588649D01*
X106211763Y-59574890D01*
X106211713Y-59573843D01*
X106206822Y-59566032D01*
X105806507Y-59165717D01*
X104921210Y-58280419D01*
X104395122Y-57754332D01*
X103012812Y-56372022D01*
X102998868Y-56364408D01*
X102997035Y-56364539D01*
X102990420Y-56368790D01*
X101604879Y-57754331D01*
X100719581Y-58639628D01*
X100193494Y-59165716D01*
X99796736Y-59562474D01*
X99789122Y-59576418D01*
X98508500Y-59576418D01*
X98508500Y-58302002D01*
X98528502Y-58233881D01*
X98582158Y-58187388D01*
X98652432Y-58177284D01*
X98717012Y-58206778D01*
X98747213Y-58245683D01*
X98793416Y-58338150D01*
X98796140Y-58343043D01*
X99017917Y-58702833D01*
X99021068Y-58707469D01*
X99273955Y-59046127D01*
X99277488Y-59050444D01*
X99413222Y-59201988D01*
X99426717Y-59210351D01*
X99436128Y-59204662D01*
X99834283Y-58806507D01*
X100719581Y-57921210D01*
X100782739Y-57858052D01*
X101245668Y-57395122D01*
X102639658Y-56001132D01*
X103364408Y-56001132D01*
X103364539Y-56002965D01*
X103368790Y-56009580D01*
X104754331Y-57395121D01*
X105217260Y-57858051D01*
X105280418Y-57921209D01*
X106165716Y-58806506D01*
X106562142Y-59202932D01*
X106575903Y-59210446D01*
X106585263Y-59203989D01*
X106754244Y-59011303D01*
X106757744Y-59006935D01*
X107007073Y-58665645D01*
X107010168Y-58660987D01*
X107228160Y-58298903D01*
X107230841Y-58293964D01*
X107415779Y-57913946D01*
X107418014Y-57908780D01*
X107568442Y-57513815D01*
X107570201Y-57508496D01*
X107684920Y-57101730D01*
X107686204Y-57096259D01*
X107764315Y-56680883D01*
X107765102Y-56675346D01*
X107806035Y-56254102D01*
X107806308Y-56249665D01*
X107812788Y-56002233D01*
X107812746Y-55997762D01*
X107793917Y-55574973D01*
X107793419Y-55569386D01*
X107737155Y-55150499D01*
X107736162Y-55144976D01*
X107642883Y-54732748D01*
X107641410Y-54727361D01*
X107511847Y-54325025D01*
X107509910Y-54319815D01*
X107487955Y-54267966D01*
X111128257Y-54267966D01*
X111158565Y-54402446D01*
X111161645Y-54412275D01*
X111241770Y-54609603D01*
X111246413Y-54618794D01*
X111357694Y-54800388D01*
X111363777Y-54808699D01*
X111503213Y-54969667D01*
X111510580Y-54976883D01*
X111674434Y-55112916D01*
X111682881Y-55118831D01*
X111866756Y-55226279D01*
X111876042Y-55230729D01*
X112075001Y-55306703D01*
X112084899Y-55309579D01*
X112188250Y-55330606D01*
X112202299Y-55329410D01*
X112206000Y-55319065D01*
X112206000Y-55318517D01*
X112714000Y-55318517D01*
X112718064Y-55332359D01*
X112731478Y-55334393D01*
X112738184Y-55333534D01*
X112748262Y-55331392D01*
X112952255Y-55270191D01*
X112961842Y-55266433D01*
X113153095Y-55172739D01*
X113161945Y-55167464D01*
X113335328Y-55043792D01*
X113343193Y-55037145D01*
X113447897Y-54932805D01*
X113510268Y-54898889D01*
X113581075Y-54904077D01*
X113637837Y-54946723D01*
X113654819Y-54977826D01*
X113699385Y-55096705D01*
X113786739Y-55213261D01*
X113903295Y-55300615D01*
X114039684Y-55351745D01*
X114101866Y-55358500D01*
X115898134Y-55358500D01*
X115960316Y-55351745D01*
X116096705Y-55300615D01*
X116213261Y-55213261D01*
X116300615Y-55096705D01*
X116340516Y-54990270D01*
X116383158Y-54933506D01*
X116449719Y-54908806D01*
X116458498Y-54908500D01*
X121571497Y-54908500D01*
X121639618Y-54928502D01*
X121660592Y-54945405D01*
X124054595Y-57339408D01*
X124088621Y-57401720D01*
X124091500Y-57428503D01*
X124091500Y-65918583D01*
X124089949Y-65938292D01*
X124087748Y-65952190D01*
X124088093Y-65958777D01*
X124088093Y-65958782D01*
X124091327Y-66020480D01*
X124091500Y-66027074D01*
X124091500Y-66047610D01*
X124091844Y-66050882D01*
X124091844Y-66050884D01*
X124093647Y-66068042D01*
X124094164Y-66074616D01*
X124095291Y-66096109D01*
X124097743Y-66142903D01*
X124099453Y-66149284D01*
X124099453Y-66149286D01*
X124101383Y-66156491D01*
X124104985Y-66175925D01*
X124105766Y-66183354D01*
X124105768Y-66183363D01*
X124106458Y-66189928D01*
X124127600Y-66254997D01*
X124129467Y-66261299D01*
X124147171Y-66327370D01*
X124153559Y-66339907D01*
X124161125Y-66358173D01*
X124165473Y-66371556D01*
X124168776Y-66377278D01*
X124168777Y-66377279D01*
X124199667Y-66430782D01*
X124202806Y-66436562D01*
X124233871Y-66497530D01*
X124238024Y-66502658D01*
X124238025Y-66502660D01*
X124242727Y-66508466D01*
X124253927Y-66524763D01*
X124257657Y-66531224D01*
X124257660Y-66531228D01*
X124260960Y-66536944D01*
X124265377Y-66541850D01*
X124265381Y-66541855D01*
X124306722Y-66587769D01*
X124311006Y-66592784D01*
X124323928Y-66608741D01*
X124338443Y-66623256D01*
X124342984Y-66628041D01*
X124388747Y-66678866D01*
X124394086Y-66682745D01*
X124394087Y-66682746D01*
X124400135Y-66687140D01*
X124415168Y-66699981D01*
X127300019Y-69584832D01*
X127312860Y-69599865D01*
X127321134Y-69611253D01*
X127326043Y-69615673D01*
X127371959Y-69657016D01*
X127376744Y-69661557D01*
X127391259Y-69676072D01*
X127393823Y-69678148D01*
X127407216Y-69688994D01*
X127412231Y-69693278D01*
X127458145Y-69734619D01*
X127458150Y-69734623D01*
X127463056Y-69739040D01*
X127468772Y-69742340D01*
X127468776Y-69742343D01*
X127475237Y-69746073D01*
X127491533Y-69757273D01*
X127502470Y-69766129D01*
X127508348Y-69769124D01*
X127508351Y-69769126D01*
X127563426Y-69797188D01*
X127569223Y-69800336D01*
X127603435Y-69820088D01*
X127628444Y-69834527D01*
X127641826Y-69838875D01*
X127660085Y-69846438D01*
X127672630Y-69852830D01*
X127679000Y-69854537D01*
X127679003Y-69854538D01*
X127718074Y-69865007D01*
X127738712Y-69870537D01*
X127745025Y-69872407D01*
X127810072Y-69893542D01*
X127824075Y-69895014D01*
X127843504Y-69898615D01*
X127857097Y-69902257D01*
X127863694Y-69902603D01*
X127863696Y-69902603D01*
X127925384Y-69905836D01*
X127931958Y-69906353D01*
X127949116Y-69908156D01*
X127949118Y-69908156D01*
X127952390Y-69908500D01*
X127972926Y-69908500D01*
X127979520Y-69908673D01*
X128041218Y-69911907D01*
X128041223Y-69911907D01*
X128047810Y-69912252D01*
X128054326Y-69911220D01*
X128054327Y-69911220D01*
X128061707Y-69910051D01*
X128081417Y-69908500D01*
X129900500Y-69908500D01*
X129968621Y-69928502D01*
X130015114Y-69982158D01*
X130026500Y-70034500D01*
X130026500Y-101565786D01*
X130006498Y-101633907D01*
X129989595Y-101654881D01*
X121548252Y-110096224D01*
X121545730Y-110098678D01*
X121485678Y-110155466D01*
X121452624Y-110202672D01*
X121447084Y-110209998D01*
X121410672Y-110254643D01*
X121407715Y-110260300D01*
X121407714Y-110260301D01*
X121398059Y-110278770D01*
X121389609Y-110292668D01*
X121373989Y-110314975D01*
X121371455Y-110320831D01*
X121351117Y-110367828D01*
X121347142Y-110376162D01*
X121320456Y-110427208D01*
X121312948Y-110453394D01*
X121307472Y-110468688D01*
X121296655Y-110493684D01*
X121295350Y-110499929D01*
X121295350Y-110499930D01*
X121284876Y-110550065D01*
X121282661Y-110559015D01*
X121266784Y-110614389D01*
X121266295Y-110620750D01*
X121264695Y-110641541D01*
X121262405Y-110657633D01*
X121256835Y-110684293D01*
X121256500Y-110690685D01*
X121256500Y-110743197D01*
X121256129Y-110752863D01*
X121251845Y-110808539D01*
X121252645Y-110814871D01*
X121255506Y-110837519D01*
X121256500Y-110853311D01*
X121256500Y-112932504D01*
X121236498Y-113000625D01*
X121182842Y-113047118D01*
X121112568Y-113057222D01*
X121047988Y-113027728D01*
X121012518Y-112976733D01*
X120978768Y-112886705D01*
X120978767Y-112886703D01*
X120975615Y-112878295D01*
X120888261Y-112761739D01*
X120771705Y-112674385D01*
X120635316Y-112623255D01*
X120573134Y-112616500D01*
X118776866Y-112616500D01*
X118714684Y-112623255D01*
X118578295Y-112674385D01*
X118461739Y-112761739D01*
X118374385Y-112878295D01*
X118323255Y-113014684D01*
X118316500Y-113076866D01*
X118316500Y-114873134D01*
X118323255Y-114935316D01*
X118374385Y-115071705D01*
X118461739Y-115188261D01*
X118578295Y-115275615D01*
X118714684Y-115326745D01*
X118776866Y-115333500D01*
X120573134Y-115333500D01*
X120635316Y-115326745D01*
X120771705Y-115275615D01*
X120888261Y-115188261D01*
X120975615Y-115071705D01*
X120997799Y-115012529D01*
X121019598Y-114954382D01*
X121062240Y-114897618D01*
X121128802Y-114872918D01*
X121198150Y-114888126D01*
X121232817Y-114916114D01*
X121261250Y-114948938D01*
X121433126Y-115091632D01*
X121626000Y-115204338D01*
X121834692Y-115284030D01*
X121839760Y-115285061D01*
X121839763Y-115285062D01*
X121934862Y-115304410D01*
X122053597Y-115328567D01*
X122058772Y-115328757D01*
X122058774Y-115328757D01*
X122271673Y-115336564D01*
X122271677Y-115336564D01*
X122276837Y-115336753D01*
X122281957Y-115336097D01*
X122281959Y-115336097D01*
X122493288Y-115309025D01*
X122493289Y-115309025D01*
X122498416Y-115308368D01*
X122503366Y-115306883D01*
X122707429Y-115245661D01*
X122707434Y-115245659D01*
X122712384Y-115244174D01*
X122912994Y-115145896D01*
X123094860Y-115016173D01*
X123253096Y-114858489D01*
X123383453Y-114677077D01*
X123384640Y-114677930D01*
X123431960Y-114634362D01*
X123501897Y-114622145D01*
X123567338Y-114649678D01*
X123595166Y-114681511D01*
X123652694Y-114775388D01*
X123658777Y-114783699D01*
X123798213Y-114944667D01*
X123805580Y-114951883D01*
X123969434Y-115087916D01*
X123977881Y-115093831D01*
X124161756Y-115201279D01*
X124171042Y-115205729D01*
X124370001Y-115281703D01*
X124379899Y-115284579D01*
X124483250Y-115305606D01*
X124497299Y-115304410D01*
X124501000Y-115294065D01*
X124501000Y-112658102D01*
X124497082Y-112644758D01*
X124482806Y-112642771D01*
X124444324Y-112648660D01*
X124434288Y-112651051D01*
X124231868Y-112717212D01*
X124222359Y-112721209D01*
X124033463Y-112819542D01*
X124024738Y-112825036D01*
X123854433Y-112952905D01*
X123846726Y-112959748D01*
X123699590Y-113113717D01*
X123693109Y-113121722D01*
X123588498Y-113275074D01*
X123533587Y-113320076D01*
X123463062Y-113328247D01*
X123399315Y-113296993D01*
X123378618Y-113272509D01*
X123297824Y-113147620D01*
X123297822Y-113147617D01*
X123295014Y-113143277D01*
X123206306Y-113045788D01*
X123175254Y-112981943D01*
X123173500Y-112960989D01*
X123173500Y-111234214D01*
X123193502Y-111166093D01*
X123210405Y-111145119D01*
X131651748Y-102703776D01*
X131654270Y-102701322D01*
X131709688Y-102648916D01*
X131714322Y-102644534D01*
X131747376Y-102597328D01*
X131752916Y-102590002D01*
X131789328Y-102545357D01*
X131801941Y-102521230D01*
X131810391Y-102507332D01*
X131822350Y-102490253D01*
X131826011Y-102485025D01*
X131848883Y-102432172D01*
X131852858Y-102423838D01*
X131876589Y-102378444D01*
X131879544Y-102372792D01*
X131887052Y-102346606D01*
X131892528Y-102331312D01*
X131903345Y-102306316D01*
X131906614Y-102290671D01*
X131915124Y-102249935D01*
X131917342Y-102240973D01*
X131919882Y-102232115D01*
X131957886Y-102172146D01*
X132022278Y-102142244D01*
X132092615Y-102151902D01*
X132146565Y-102198053D01*
X132167001Y-102266845D01*
X132167001Y-102929669D01*
X132167371Y-102936490D01*
X132172895Y-102987352D01*
X132176521Y-103002604D01*
X132221676Y-103123054D01*
X132230214Y-103138649D01*
X132306715Y-103240724D01*
X132319276Y-103253285D01*
X132421351Y-103329786D01*
X132436946Y-103338324D01*
X132545827Y-103379142D01*
X132602591Y-103421784D01*
X132627291Y-103488345D01*
X132612083Y-103557694D01*
X132592691Y-103584175D01*
X132538438Y-103640948D01*
X132465629Y-103717138D01*
X132463632Y-103720065D01*
X132405603Y-103760148D01*
X132366102Y-103766500D01*
X131434214Y-103766500D01*
X131432894Y-103766493D01*
X131431819Y-103766482D01*
X131342779Y-103765549D01*
X131300403Y-103774711D01*
X131287837Y-103776769D01*
X131244745Y-103781603D01*
X131238094Y-103783919D01*
X131238090Y-103783920D01*
X131213070Y-103792633D01*
X131198257Y-103796796D01*
X131165490Y-103803881D01*
X131126187Y-103822208D01*
X131114411Y-103826990D01*
X131073448Y-103841255D01*
X131067473Y-103844989D01*
X131067470Y-103844990D01*
X131045005Y-103859027D01*
X131031488Y-103866366D01*
X131007486Y-103877559D01*
X131001098Y-103880538D01*
X130995533Y-103884855D01*
X130995531Y-103884856D01*
X130966847Y-103907106D01*
X130956388Y-103914402D01*
X130925596Y-103933642D01*
X130925593Y-103933644D01*
X130919624Y-103937374D01*
X130914629Y-103942334D01*
X130914628Y-103942335D01*
X130890821Y-103965976D01*
X130890196Y-103966561D01*
X130889530Y-103967078D01*
X130863540Y-103993068D01*
X130790918Y-104065185D01*
X130790260Y-104066222D01*
X130789157Y-104067451D01*
X126729842Y-108126766D01*
X126728905Y-108127694D01*
X126664493Y-108190771D01*
X126641002Y-108227221D01*
X126633583Y-108237546D01*
X126606524Y-108271443D01*
X126603459Y-108277784D01*
X126603458Y-108277785D01*
X126591928Y-108301637D01*
X126584399Y-108315054D01*
X126566235Y-108343238D01*
X126563827Y-108349855D01*
X126563824Y-108349860D01*
X126551408Y-108383973D01*
X126546447Y-108395716D01*
X126530646Y-108428403D01*
X126530644Y-108428408D01*
X126527579Y-108434749D01*
X126525996Y-108441607D01*
X126525995Y-108441609D01*
X126520035Y-108467426D01*
X126515668Y-108482169D01*
X126504197Y-108513685D01*
X126503314Y-108520675D01*
X126503312Y-108520683D01*
X126498762Y-108556701D01*
X126496526Y-108569253D01*
X126492269Y-108587694D01*
X126486776Y-108611485D01*
X126486751Y-108618531D01*
X126486751Y-108618534D01*
X126486634Y-108652056D01*
X126486605Y-108652938D01*
X126486500Y-108653769D01*
X126486500Y-108690419D01*
X126486499Y-108690859D01*
X126486377Y-108725942D01*
X126486143Y-108792870D01*
X126486411Y-108794070D01*
X126486500Y-108795707D01*
X126486500Y-112820195D01*
X126466498Y-112888316D01*
X126436153Y-112920955D01*
X126394106Y-112952525D01*
X126394100Y-112952531D01*
X126389965Y-112955635D01*
X126386393Y-112959373D01*
X126386391Y-112959375D01*
X126346972Y-113000625D01*
X126235629Y-113117138D01*
X126232720Y-113121403D01*
X126232714Y-113121411D01*
X126214627Y-113147926D01*
X126128204Y-113274618D01*
X126127898Y-113275066D01*
X126072987Y-113320069D01*
X126002462Y-113328240D01*
X125938715Y-113296986D01*
X125918018Y-113272502D01*
X125837426Y-113147926D01*
X125831136Y-113139757D01*
X125687806Y-112982240D01*
X125680273Y-112975215D01*
X125513139Y-112843222D01*
X125504552Y-112837517D01*
X125318117Y-112734599D01*
X125308705Y-112730369D01*
X125107959Y-112659280D01*
X125097988Y-112656646D01*
X125026837Y-112643972D01*
X125013540Y-112645432D01*
X125009000Y-112659989D01*
X125009000Y-115293517D01*
X125013064Y-115307359D01*
X125026478Y-115309393D01*
X125033184Y-115308534D01*
X125043262Y-115306392D01*
X125247255Y-115245191D01*
X125256842Y-115241433D01*
X125448095Y-115147739D01*
X125456945Y-115142464D01*
X125630328Y-115018792D01*
X125638200Y-115012139D01*
X125789052Y-114861812D01*
X125795730Y-114853965D01*
X125923022Y-114676819D01*
X125924279Y-114677722D01*
X125971373Y-114634362D01*
X126041311Y-114622145D01*
X126106751Y-114649678D01*
X126134579Y-114681511D01*
X126194987Y-114780088D01*
X126341250Y-114948938D01*
X126513126Y-115091632D01*
X126706000Y-115204338D01*
X126914692Y-115284030D01*
X126919760Y-115285061D01*
X126919763Y-115285062D01*
X127014862Y-115304410D01*
X127133597Y-115328567D01*
X127138772Y-115328757D01*
X127138774Y-115328757D01*
X127351673Y-115336564D01*
X127351677Y-115336564D01*
X127356837Y-115336753D01*
X127361957Y-115336097D01*
X127361959Y-115336097D01*
X127573288Y-115309025D01*
X127573289Y-115309025D01*
X127578416Y-115308368D01*
X127583366Y-115306883D01*
X127787429Y-115245661D01*
X127787434Y-115245659D01*
X127792384Y-115244174D01*
X127992994Y-115145896D01*
X128174860Y-115016173D01*
X128333096Y-114858489D01*
X128463453Y-114677077D01*
X128464776Y-114678028D01*
X128511645Y-114634857D01*
X128581580Y-114622625D01*
X128647026Y-114650144D01*
X128674875Y-114681994D01*
X128734987Y-114780088D01*
X128881250Y-114948938D01*
X129053126Y-115091632D01*
X129246000Y-115204338D01*
X129454692Y-115284030D01*
X129459760Y-115285061D01*
X129459763Y-115285062D01*
X129554862Y-115304410D01*
X129673597Y-115328567D01*
X129678772Y-115328757D01*
X129678774Y-115328757D01*
X129891673Y-115336564D01*
X129891677Y-115336564D01*
X129896837Y-115336753D01*
X129901957Y-115336097D01*
X129901959Y-115336097D01*
X130113288Y-115309025D01*
X130113289Y-115309025D01*
X130118416Y-115308368D01*
X130123366Y-115306883D01*
X130327429Y-115245661D01*
X130327434Y-115245659D01*
X130332384Y-115244174D01*
X130532994Y-115145896D01*
X130714860Y-115016173D01*
X130873096Y-114858489D01*
X131003453Y-114677077D01*
X131004776Y-114678028D01*
X131051645Y-114634857D01*
X131121580Y-114622625D01*
X131187026Y-114650144D01*
X131214875Y-114681994D01*
X131274987Y-114780088D01*
X131421250Y-114948938D01*
X131593126Y-115091632D01*
X131786000Y-115204338D01*
X131994692Y-115284030D01*
X131999760Y-115285061D01*
X131999763Y-115285062D01*
X132094862Y-115304410D01*
X132213597Y-115328567D01*
X132218772Y-115328757D01*
X132218774Y-115328757D01*
X132431673Y-115336564D01*
X132431677Y-115336564D01*
X132436837Y-115336753D01*
X132441957Y-115336097D01*
X132441959Y-115336097D01*
X132653288Y-115309025D01*
X132653289Y-115309025D01*
X132658416Y-115308368D01*
X132663366Y-115306883D01*
X132867429Y-115245661D01*
X132867434Y-115245659D01*
X132872384Y-115244174D01*
X133072994Y-115145896D01*
X133254860Y-115016173D01*
X133413096Y-114858489D01*
X133543453Y-114677077D01*
X133556995Y-114649678D01*
X133640136Y-114481453D01*
X133640137Y-114481451D01*
X133642430Y-114476811D01*
X133707370Y-114263069D01*
X133736529Y-114041590D01*
X133738156Y-113975000D01*
X133719852Y-113752361D01*
X133665431Y-113535702D01*
X133576354Y-113330840D01*
X133455014Y-113143277D01*
X133396379Y-113078838D01*
X139491500Y-113078838D01*
X139506359Y-113315020D01*
X139565505Y-113625072D01*
X139566732Y-113628848D01*
X139641333Y-113858445D01*
X139663044Y-113925266D01*
X139664731Y-113928852D01*
X139664733Y-113928856D01*
X139795750Y-114207283D01*
X139795754Y-114207290D01*
X139797438Y-114210869D01*
X139799562Y-114214215D01*
X139799562Y-114214216D01*
X139810918Y-114232110D01*
X139966568Y-114477375D01*
X139969093Y-114480427D01*
X140135445Y-114681511D01*
X140167767Y-114720582D01*
X140397860Y-114936654D01*
X140401062Y-114938981D01*
X140401064Y-114938982D01*
X140453631Y-114977174D01*
X140653221Y-115122184D01*
X140656690Y-115124091D01*
X140656693Y-115124093D01*
X140922512Y-115270229D01*
X140929821Y-115274247D01*
X140933490Y-115275700D01*
X140933495Y-115275702D01*
X141129261Y-115353211D01*
X141223298Y-115390443D01*
X141529025Y-115468940D01*
X141842179Y-115508500D01*
X142157821Y-115508500D01*
X142470975Y-115468940D01*
X142776702Y-115390443D01*
X142870739Y-115353211D01*
X143066505Y-115275702D01*
X143066510Y-115275700D01*
X143070179Y-115274247D01*
X143077488Y-115270229D01*
X143343307Y-115124093D01*
X143343310Y-115124091D01*
X143346779Y-115122184D01*
X143546369Y-114977174D01*
X143598936Y-114938982D01*
X143598938Y-114938981D01*
X143602140Y-114936654D01*
X143832233Y-114720582D01*
X143864556Y-114681511D01*
X144030907Y-114480427D01*
X144033432Y-114477375D01*
X144188727Y-114232670D01*
X146132160Y-114232670D01*
X146137887Y-114240320D01*
X146309042Y-114345205D01*
X146317837Y-114349687D01*
X146527988Y-114436734D01*
X146537373Y-114439783D01*
X146758554Y-114492885D01*
X146768301Y-114494428D01*
X146995070Y-114512275D01*
X147004930Y-114512275D01*
X147231699Y-114494428D01*
X147241446Y-114492885D01*
X147462627Y-114439783D01*
X147472012Y-114436734D01*
X147682163Y-114349687D01*
X147690958Y-114345205D01*
X147858445Y-114242568D01*
X147867907Y-114232110D01*
X147864124Y-114223334D01*
X147012812Y-113372022D01*
X146998868Y-113364408D01*
X146997035Y-113364539D01*
X146990420Y-113368790D01*
X146138920Y-114220290D01*
X146132160Y-114232670D01*
X144188727Y-114232670D01*
X144189082Y-114232110D01*
X144200438Y-114214216D01*
X144200438Y-114214215D01*
X144202562Y-114210869D01*
X144204246Y-114207290D01*
X144204250Y-114207283D01*
X144335267Y-113928856D01*
X144335269Y-113928852D01*
X144336956Y-113925266D01*
X144358668Y-113858445D01*
X144433268Y-113628848D01*
X144434495Y-113625072D01*
X144493641Y-113315020D01*
X144508500Y-113078838D01*
X144508500Y-113004930D01*
X145487725Y-113004930D01*
X145505572Y-113231699D01*
X145507115Y-113241446D01*
X145560217Y-113462627D01*
X145563266Y-113472012D01*
X145650313Y-113682163D01*
X145654795Y-113690958D01*
X145757432Y-113858445D01*
X145767890Y-113867907D01*
X145776666Y-113864124D01*
X146627978Y-113012812D01*
X146634356Y-113001132D01*
X147364408Y-113001132D01*
X147364539Y-113002965D01*
X147368790Y-113009580D01*
X148220290Y-113861080D01*
X148232670Y-113867840D01*
X148240320Y-113862113D01*
X148345205Y-113690958D01*
X148349687Y-113682163D01*
X148436734Y-113472012D01*
X148439783Y-113462627D01*
X148492885Y-113241446D01*
X148494428Y-113231699D01*
X148512275Y-113004930D01*
X148512275Y-112995070D01*
X148494428Y-112768301D01*
X148492885Y-112758554D01*
X148439783Y-112537373D01*
X148436734Y-112527988D01*
X148349687Y-112317837D01*
X148345205Y-112309042D01*
X148242568Y-112141555D01*
X148232110Y-112132093D01*
X148223334Y-112135876D01*
X147372022Y-112987188D01*
X147364408Y-113001132D01*
X146634356Y-113001132D01*
X146635592Y-112998868D01*
X146635461Y-112997035D01*
X146631210Y-112990420D01*
X145779710Y-112138920D01*
X145767330Y-112132160D01*
X145759680Y-112137887D01*
X145654795Y-112309042D01*
X145650313Y-112317837D01*
X145563266Y-112527988D01*
X145560217Y-112537373D01*
X145507115Y-112758554D01*
X145505572Y-112768301D01*
X145487725Y-112995070D01*
X145487725Y-113004930D01*
X144508500Y-113004930D01*
X144508500Y-111767890D01*
X146132093Y-111767890D01*
X146135876Y-111776666D01*
X146987188Y-112627978D01*
X147001132Y-112635592D01*
X147002965Y-112635461D01*
X147009580Y-112631210D01*
X147861080Y-111779710D01*
X147867840Y-111767330D01*
X147862113Y-111759680D01*
X147690958Y-111654795D01*
X147682163Y-111650313D01*
X147472012Y-111563266D01*
X147462627Y-111560217D01*
X147241446Y-111507115D01*
X147231699Y-111505572D01*
X147004930Y-111487725D01*
X146995070Y-111487725D01*
X146768301Y-111505572D01*
X146758554Y-111507115D01*
X146537373Y-111560217D01*
X146527988Y-111563266D01*
X146317837Y-111650313D01*
X146309042Y-111654795D01*
X146141555Y-111757432D01*
X146132093Y-111767890D01*
X144508500Y-111767890D01*
X144508500Y-98887966D01*
X145668257Y-98887966D01*
X145698565Y-99022446D01*
X145701645Y-99032275D01*
X145781770Y-99229603D01*
X145786413Y-99238794D01*
X145897694Y-99420388D01*
X145903777Y-99428699D01*
X146043213Y-99589667D01*
X146050580Y-99596883D01*
X146214434Y-99732916D01*
X146222881Y-99738831D01*
X146406756Y-99846279D01*
X146416042Y-99850729D01*
X146615001Y-99926703D01*
X146624899Y-99929579D01*
X146728250Y-99950606D01*
X146742299Y-99949410D01*
X146746000Y-99939065D01*
X146746000Y-99938517D01*
X147254000Y-99938517D01*
X147258064Y-99952359D01*
X147271478Y-99954393D01*
X147278184Y-99953534D01*
X147288262Y-99951392D01*
X147492255Y-99890191D01*
X147501842Y-99886433D01*
X147693095Y-99792739D01*
X147701945Y-99787464D01*
X147875328Y-99663792D01*
X147883200Y-99657139D01*
X148034052Y-99506812D01*
X148040730Y-99498965D01*
X148165003Y-99326020D01*
X148170313Y-99317183D01*
X148264670Y-99126267D01*
X148268469Y-99116672D01*
X148330377Y-98912910D01*
X148332555Y-98902837D01*
X148333986Y-98891962D01*
X148331775Y-98877778D01*
X148318617Y-98874000D01*
X147272115Y-98874000D01*
X147256876Y-98878475D01*
X147255671Y-98879865D01*
X147254000Y-98887548D01*
X147254000Y-99938517D01*
X146746000Y-99938517D01*
X146746000Y-98892115D01*
X146741525Y-98876876D01*
X146740135Y-98875671D01*
X146732452Y-98874000D01*
X145683225Y-98874000D01*
X145669694Y-98877973D01*
X145668257Y-98887966D01*
X144508500Y-98887966D01*
X144508500Y-98064500D01*
X144528502Y-97996379D01*
X144582158Y-97949886D01*
X144634500Y-97938500D01*
X145621691Y-97938500D01*
X145689812Y-97958502D01*
X145736305Y-98012158D01*
X145746409Y-98082432D01*
X145735979Y-98117549D01*
X145723340Y-98144777D01*
X145719775Y-98154470D01*
X145664389Y-98354183D01*
X145665912Y-98362607D01*
X145678292Y-98366000D01*
X148318344Y-98366000D01*
X148331875Y-98362027D01*
X148333180Y-98352947D01*
X148291214Y-98185875D01*
X148287894Y-98176124D01*
X148202972Y-97980814D01*
X148198105Y-97971739D01*
X148082426Y-97792926D01*
X148076136Y-97784757D01*
X148067620Y-97775398D01*
X148036570Y-97711551D01*
X148044967Y-97641053D01*
X148084374Y-97590438D01*
X148231141Y-97478429D01*
X148231142Y-97478428D01*
X148234773Y-97475657D01*
X148248659Y-97461453D01*
X148350186Y-97357596D01*
X148423312Y-97282792D01*
X148582034Y-97064730D01*
X148641530Y-96951646D01*
X148705490Y-96830079D01*
X148705493Y-96830073D01*
X148707615Y-96826039D01*
X148740697Y-96732361D01*
X148795902Y-96576033D01*
X148795902Y-96576032D01*
X148797425Y-96571720D01*
X148849581Y-96307100D01*
X148850613Y-96286375D01*
X148862764Y-96042292D01*
X148862764Y-96042286D01*
X148862991Y-96037723D01*
X148837375Y-95769231D01*
X148823283Y-95711638D01*
X148774355Y-95511688D01*
X148773269Y-95507250D01*
X148672015Y-95257267D01*
X148535735Y-95024518D01*
X148423623Y-94884329D01*
X148370136Y-94817447D01*
X148370135Y-94817445D01*
X148367284Y-94813881D01*
X148248661Y-94703069D01*
X148173527Y-94632882D01*
X148173524Y-94632880D01*
X148170191Y-94629766D01*
X148147447Y-94613988D01*
X148088381Y-94573012D01*
X148043811Y-94517749D01*
X148036194Y-94447162D01*
X148057878Y-94395959D01*
X148083451Y-94360371D01*
X148168453Y-94242077D01*
X148188509Y-94201498D01*
X148265136Y-94046453D01*
X148265137Y-94046451D01*
X148267430Y-94041811D01*
X148332370Y-93828069D01*
X148361529Y-93606590D01*
X148363156Y-93540000D01*
X148344852Y-93317361D01*
X148290431Y-93100702D01*
X148201354Y-92895840D01*
X148138233Y-92798270D01*
X148082822Y-92712617D01*
X148082820Y-92712614D01*
X148080014Y-92708277D01*
X148076532Y-92704450D01*
X147932798Y-92546488D01*
X147901746Y-92482642D01*
X147910141Y-92412143D01*
X147955317Y-92357375D01*
X147981761Y-92343706D01*
X148088297Y-92303767D01*
X148096705Y-92300615D01*
X148213261Y-92213261D01*
X148300615Y-92096705D01*
X148351745Y-91960316D01*
X148358500Y-91898134D01*
X148358500Y-90101866D01*
X148351745Y-90039684D01*
X148300615Y-89903295D01*
X148213261Y-89786739D01*
X148096705Y-89699385D01*
X147960316Y-89648255D01*
X147898134Y-89641500D01*
X146101866Y-89641500D01*
X146039684Y-89648255D01*
X145903295Y-89699385D01*
X145786739Y-89786739D01*
X145699385Y-89903295D01*
X145648255Y-90039684D01*
X145641500Y-90101866D01*
X145641500Y-91898134D01*
X145648255Y-91960316D01*
X145699385Y-92096705D01*
X145786739Y-92213261D01*
X145903295Y-92300615D01*
X145911704Y-92303767D01*
X145911705Y-92303768D01*
X146020451Y-92344535D01*
X146077216Y-92387176D01*
X146101916Y-92453738D01*
X146086709Y-92523087D01*
X146067316Y-92549568D01*
X145940629Y-92682138D01*
X145814743Y-92866680D01*
X145781644Y-92937987D01*
X145751085Y-93003821D01*
X145720688Y-93069305D01*
X145660989Y-93284570D01*
X145637251Y-93506695D01*
X145637548Y-93511848D01*
X145637548Y-93511851D01*
X145643011Y-93606590D01*
X145650110Y-93729715D01*
X145651247Y-93734761D01*
X145651248Y-93734767D01*
X145664771Y-93794771D01*
X145699222Y-93947639D01*
X145712655Y-93980720D01*
X145740013Y-94048096D01*
X145747109Y-94118737D01*
X145714887Y-94182001D01*
X145653577Y-94217801D01*
X145623270Y-94221500D01*
X144634500Y-94221500D01*
X144566379Y-94201498D01*
X144519886Y-94147842D01*
X144508500Y-94095500D01*
X144508500Y-75087966D01*
X145668257Y-75087966D01*
X145698565Y-75222446D01*
X145701645Y-75232275D01*
X145781770Y-75429603D01*
X145786413Y-75438794D01*
X145897694Y-75620388D01*
X145903777Y-75628699D01*
X146043213Y-75789667D01*
X146050580Y-75796883D01*
X146214434Y-75932916D01*
X146222881Y-75938831D01*
X146406756Y-76046279D01*
X146416042Y-76050729D01*
X146615001Y-76126703D01*
X146624899Y-76129579D01*
X146728250Y-76150606D01*
X146742299Y-76149410D01*
X146746000Y-76139065D01*
X146746000Y-76138517D01*
X147254000Y-76138517D01*
X147258064Y-76152359D01*
X147271478Y-76154393D01*
X147278184Y-76153534D01*
X147288262Y-76151392D01*
X147492255Y-76090191D01*
X147501842Y-76086433D01*
X147693095Y-75992739D01*
X147701945Y-75987464D01*
X147875328Y-75863792D01*
X147883200Y-75857139D01*
X148034052Y-75706812D01*
X148040730Y-75698965D01*
X148165003Y-75526020D01*
X148170313Y-75517183D01*
X148264670Y-75326267D01*
X148268469Y-75316672D01*
X148330377Y-75112910D01*
X148332555Y-75102837D01*
X148333986Y-75091962D01*
X148331775Y-75077778D01*
X148318617Y-75074000D01*
X147272115Y-75074000D01*
X147256876Y-75078475D01*
X147255671Y-75079865D01*
X147254000Y-75087548D01*
X147254000Y-76138517D01*
X146746000Y-76138517D01*
X146746000Y-75092115D01*
X146741525Y-75076876D01*
X146740135Y-75075671D01*
X146732452Y-75074000D01*
X145683225Y-75074000D01*
X145669694Y-75077973D01*
X145668257Y-75087966D01*
X144508500Y-75087966D01*
X144508500Y-74264500D01*
X144528502Y-74196379D01*
X144582158Y-74149886D01*
X144634500Y-74138500D01*
X145621691Y-74138500D01*
X145689812Y-74158502D01*
X145736305Y-74212158D01*
X145746409Y-74282432D01*
X145735979Y-74317549D01*
X145723340Y-74344777D01*
X145719775Y-74354470D01*
X145664389Y-74554183D01*
X145665912Y-74562607D01*
X145678292Y-74566000D01*
X148318344Y-74566000D01*
X148331875Y-74562027D01*
X148333180Y-74552947D01*
X148291214Y-74385875D01*
X148287894Y-74376124D01*
X148202972Y-74180814D01*
X148198105Y-74171739D01*
X148082426Y-73992926D01*
X148076136Y-73984757D01*
X148067620Y-73975398D01*
X148036570Y-73911551D01*
X148044967Y-73841053D01*
X148084374Y-73790438D01*
X148231141Y-73678429D01*
X148231142Y-73678428D01*
X148234773Y-73675657D01*
X148254281Y-73655702D01*
X148420117Y-73486060D01*
X148423312Y-73482792D01*
X148582034Y-73264730D01*
X148634521Y-73164969D01*
X148705490Y-73030079D01*
X148705493Y-73030073D01*
X148707615Y-73026039D01*
X148728720Y-72966277D01*
X148795902Y-72776033D01*
X148795902Y-72776032D01*
X148797425Y-72771720D01*
X148849581Y-72507100D01*
X148852997Y-72438489D01*
X148862764Y-72242292D01*
X148862764Y-72242286D01*
X148862991Y-72237723D01*
X148837375Y-71969231D01*
X148801229Y-71821511D01*
X148774355Y-71711688D01*
X148773269Y-71707250D01*
X148672015Y-71457267D01*
X148535735Y-71224518D01*
X148415949Y-71074734D01*
X148370136Y-71017447D01*
X148370135Y-71017445D01*
X148367284Y-71013881D01*
X148309191Y-70959613D01*
X148173527Y-70832882D01*
X148173524Y-70832880D01*
X148170191Y-70829766D01*
X148116785Y-70792717D01*
X148088381Y-70773012D01*
X148043811Y-70717749D01*
X148036194Y-70647162D01*
X148057878Y-70595959D01*
X148080267Y-70564802D01*
X148168453Y-70442077D01*
X148180796Y-70417104D01*
X148265136Y-70246453D01*
X148265137Y-70246451D01*
X148267430Y-70241811D01*
X148322359Y-70061018D01*
X148330865Y-70033023D01*
X148330865Y-70033021D01*
X148332370Y-70028069D01*
X148361529Y-69806590D01*
X148361759Y-69797188D01*
X148363074Y-69743365D01*
X148363074Y-69743361D01*
X148363156Y-69740000D01*
X148344852Y-69517361D01*
X148290431Y-69300702D01*
X148201354Y-69095840D01*
X148080014Y-68908277D01*
X148076532Y-68904450D01*
X147932798Y-68746488D01*
X147901746Y-68682642D01*
X147910141Y-68612143D01*
X147955317Y-68557375D01*
X147981761Y-68543706D01*
X148088297Y-68503767D01*
X148096705Y-68500615D01*
X148213261Y-68413261D01*
X148300615Y-68296705D01*
X148351745Y-68160316D01*
X148358500Y-68098134D01*
X148358500Y-66301866D01*
X148351745Y-66239684D01*
X148300615Y-66103295D01*
X148213261Y-65986739D01*
X148096705Y-65899385D01*
X147960316Y-65848255D01*
X147898134Y-65841500D01*
X146101866Y-65841500D01*
X146039684Y-65848255D01*
X145903295Y-65899385D01*
X145786739Y-65986739D01*
X145699385Y-66103295D01*
X145648255Y-66239684D01*
X145641500Y-66301866D01*
X145641500Y-68098134D01*
X145648255Y-68160316D01*
X145699385Y-68296705D01*
X145786739Y-68413261D01*
X145903295Y-68500615D01*
X145911704Y-68503767D01*
X145911705Y-68503768D01*
X146020451Y-68544535D01*
X146077216Y-68587176D01*
X146101916Y-68653738D01*
X146086709Y-68723087D01*
X146067316Y-68749568D01*
X145940629Y-68882138D01*
X145937715Y-68886410D01*
X145937714Y-68886411D01*
X145877992Y-68973961D01*
X145814743Y-69066680D01*
X145799003Y-69100590D01*
X145737651Y-69232762D01*
X145720688Y-69269305D01*
X145660989Y-69484570D01*
X145637251Y-69706695D01*
X145637548Y-69711848D01*
X145637548Y-69711851D01*
X145647118Y-69877816D01*
X145650110Y-69929715D01*
X145651247Y-69934761D01*
X145651248Y-69934767D01*
X145671119Y-70022939D01*
X145699222Y-70147639D01*
X145724754Y-70210516D01*
X145740013Y-70248096D01*
X145747109Y-70318737D01*
X145714887Y-70382001D01*
X145653577Y-70417801D01*
X145623270Y-70421500D01*
X144009065Y-70421500D01*
X143940944Y-70401498D01*
X143911981Y-70375816D01*
X143887616Y-70346364D01*
X143832233Y-70279418D01*
X143602140Y-70063346D01*
X143557302Y-70030769D01*
X143518469Y-70002556D01*
X143346779Y-69877816D01*
X143281520Y-69841939D01*
X143073648Y-69727660D01*
X143073647Y-69727659D01*
X143070179Y-69725753D01*
X143066510Y-69724300D01*
X143066505Y-69724298D01*
X142780372Y-69611010D01*
X142780371Y-69611010D01*
X142776702Y-69609557D01*
X142470975Y-69531060D01*
X142157821Y-69491500D01*
X141842179Y-69491500D01*
X141529025Y-69531060D01*
X141223298Y-69609557D01*
X141219629Y-69611010D01*
X141219628Y-69611010D01*
X140933495Y-69724298D01*
X140933490Y-69724300D01*
X140929821Y-69725753D01*
X140926353Y-69727659D01*
X140926352Y-69727660D01*
X140718481Y-69841939D01*
X140653221Y-69877816D01*
X140481531Y-70002556D01*
X140442699Y-70030769D01*
X140397860Y-70063346D01*
X140167767Y-70279418D01*
X140165243Y-70282469D01*
X140165242Y-70282470D01*
X140152099Y-70298357D01*
X139966568Y-70522625D01*
X139841655Y-70719457D01*
X139808604Y-70771537D01*
X139797438Y-70789131D01*
X139795754Y-70792710D01*
X139795750Y-70792717D01*
X139691679Y-71013881D01*
X139663044Y-71074734D01*
X139565505Y-71374928D01*
X139506359Y-71684980D01*
X139491500Y-71921162D01*
X139491500Y-113078838D01*
X133396379Y-113078838D01*
X133304670Y-112978051D01*
X133300619Y-112974852D01*
X133300615Y-112974848D01*
X133133414Y-112842800D01*
X133133410Y-112842798D01*
X133129359Y-112839598D01*
X133096229Y-112821309D01*
X133077136Y-112810769D01*
X132933789Y-112731638D01*
X132928920Y-112729914D01*
X132928916Y-112729912D01*
X132728087Y-112658795D01*
X132728083Y-112658794D01*
X132723212Y-112657069D01*
X132718119Y-112656162D01*
X132718116Y-112656161D01*
X132508373Y-112618800D01*
X132508367Y-112618799D01*
X132503284Y-112617894D01*
X132429452Y-112616992D01*
X132285081Y-112615228D01*
X132285079Y-112615228D01*
X132279911Y-112615165D01*
X132059091Y-112648955D01*
X131846756Y-112718357D01*
X131648607Y-112821507D01*
X131644474Y-112824610D01*
X131644471Y-112824612D01*
X131474107Y-112952525D01*
X131469965Y-112955635D01*
X131315629Y-113117138D01*
X131208201Y-113274621D01*
X131153293Y-113319621D01*
X131082768Y-113327792D01*
X131019021Y-113296538D01*
X130998324Y-113272054D01*
X130917822Y-113147617D01*
X130917820Y-113147614D01*
X130915014Y-113143277D01*
X130764670Y-112978051D01*
X130760625Y-112974857D01*
X130760616Y-112974848D01*
X130691408Y-112920191D01*
X130650345Y-112862274D01*
X130643500Y-112821309D01*
X130643500Y-109552082D01*
X130663502Y-109483961D01*
X130680405Y-109462987D01*
X132182987Y-107960405D01*
X132245299Y-107926379D01*
X132272082Y-107923500D01*
X132370389Y-107923500D01*
X132438510Y-107943502D01*
X132465625Y-107967001D01*
X132571250Y-108088938D01*
X132743126Y-108231632D01*
X132936000Y-108344338D01*
X132940825Y-108346180D01*
X132940826Y-108346181D01*
X133013612Y-108373975D01*
X133144692Y-108424030D01*
X133149760Y-108425061D01*
X133149763Y-108425062D01*
X133231095Y-108441609D01*
X133363597Y-108468567D01*
X133368772Y-108468757D01*
X133368774Y-108468757D01*
X133581673Y-108476564D01*
X133581677Y-108476564D01*
X133586837Y-108476753D01*
X133591957Y-108476097D01*
X133591959Y-108476097D01*
X133803288Y-108449025D01*
X133803289Y-108449025D01*
X133808416Y-108448368D01*
X133830945Y-108441609D01*
X134017429Y-108385661D01*
X134017434Y-108385659D01*
X134022384Y-108384174D01*
X134222994Y-108285896D01*
X134404860Y-108156173D01*
X134563096Y-107998489D01*
X134622594Y-107915689D01*
X134690435Y-107821277D01*
X134693453Y-107817077D01*
X134792430Y-107616811D01*
X134857370Y-107403069D01*
X134886529Y-107181590D01*
X134888156Y-107115000D01*
X134869852Y-106892361D01*
X134815431Y-106675702D01*
X134726354Y-106470840D01*
X134656072Y-106362201D01*
X134607822Y-106287617D01*
X134607820Y-106287614D01*
X134605014Y-106283277D01*
X134454670Y-106118051D01*
X134450619Y-106114852D01*
X134450615Y-106114848D01*
X134283414Y-105982800D01*
X134283410Y-105982798D01*
X134279359Y-105979598D01*
X134238053Y-105956796D01*
X134188084Y-105906364D01*
X134173312Y-105836921D01*
X134198428Y-105770516D01*
X134225780Y-105743909D01*
X134269603Y-105712650D01*
X134404860Y-105616173D01*
X134563096Y-105458489D01*
X134622594Y-105375689D01*
X134690435Y-105281277D01*
X134693453Y-105277077D01*
X134792430Y-105076811D01*
X134857370Y-104863069D01*
X134886529Y-104641590D01*
X134888156Y-104575000D01*
X134869852Y-104352361D01*
X134815431Y-104135702D01*
X134726354Y-103930840D01*
X134656072Y-103822201D01*
X134607822Y-103747617D01*
X134607820Y-103747614D01*
X134605014Y-103743277D01*
X134601540Y-103739459D01*
X134601533Y-103739450D01*
X134457435Y-103581088D01*
X134426383Y-103517242D01*
X134434779Y-103446744D01*
X134479956Y-103391976D01*
X134506400Y-103378307D01*
X134613052Y-103338325D01*
X134628649Y-103329786D01*
X134730724Y-103253285D01*
X134743285Y-103240724D01*
X134819786Y-103138649D01*
X134828324Y-103123054D01*
X134873478Y-103002606D01*
X134877105Y-102987351D01*
X134882631Y-102936486D01*
X134883000Y-102929672D01*
X134883000Y-102307115D01*
X134878525Y-102291876D01*
X134877135Y-102290671D01*
X134869452Y-102289000D01*
X133397000Y-102289000D01*
X133328879Y-102268998D01*
X133282386Y-102215342D01*
X133271000Y-102163000D01*
X133271000Y-101907000D01*
X133291002Y-101838879D01*
X133344658Y-101792386D01*
X133397000Y-101781000D01*
X134864884Y-101781000D01*
X134880123Y-101776525D01*
X134881328Y-101775135D01*
X134882999Y-101767452D01*
X134882999Y-101140331D01*
X134882629Y-101133510D01*
X134877105Y-101082648D01*
X134873479Y-101067396D01*
X134828324Y-100946946D01*
X134819786Y-100931351D01*
X134743285Y-100829276D01*
X134730724Y-100816715D01*
X134628649Y-100740214D01*
X134613054Y-100731676D01*
X134502813Y-100690348D01*
X134446049Y-100647706D01*
X134421349Y-100581145D01*
X134436557Y-100511796D01*
X134458104Y-100483115D01*
X134559430Y-100382144D01*
X134559440Y-100382132D01*
X134563096Y-100378489D01*
X134622594Y-100295689D01*
X134690435Y-100201277D01*
X134693453Y-100197077D01*
X134708953Y-100165716D01*
X134790136Y-100001453D01*
X134790137Y-100001451D01*
X134792430Y-99996811D01*
X134840486Y-99838642D01*
X134855865Y-99788023D01*
X134855865Y-99788021D01*
X134857370Y-99783069D01*
X134886529Y-99561590D01*
X134887674Y-99514717D01*
X134888074Y-99498365D01*
X134888074Y-99498361D01*
X134888156Y-99495000D01*
X134869852Y-99272361D01*
X134815431Y-99055702D01*
X134726354Y-98850840D01*
X134605014Y-98663277D01*
X134454670Y-98498051D01*
X134450619Y-98494852D01*
X134450615Y-98494848D01*
X134283414Y-98362800D01*
X134283410Y-98362798D01*
X134279359Y-98359598D01*
X134238053Y-98336796D01*
X134188084Y-98286364D01*
X134173312Y-98216921D01*
X134198428Y-98150516D01*
X134225780Y-98123909D01*
X134283929Y-98082432D01*
X134404860Y-97996173D01*
X134563096Y-97838489D01*
X134612131Y-97770250D01*
X134690435Y-97661277D01*
X134693453Y-97657077D01*
X134695822Y-97652285D01*
X134790136Y-97461453D01*
X134790137Y-97461451D01*
X134792430Y-97456811D01*
X134857370Y-97243069D01*
X134886529Y-97021590D01*
X134886611Y-97018240D01*
X134888074Y-96958365D01*
X134888074Y-96958361D01*
X134888156Y-96955000D01*
X134869852Y-96732361D01*
X134815431Y-96515702D01*
X134726354Y-96310840D01*
X134605014Y-96123277D01*
X134454670Y-95958051D01*
X134450619Y-95954852D01*
X134450615Y-95954848D01*
X134283414Y-95822800D01*
X134283410Y-95822798D01*
X134279359Y-95819598D01*
X134238053Y-95796796D01*
X134188084Y-95746364D01*
X134173312Y-95676921D01*
X134198428Y-95610516D01*
X134225780Y-95583909D01*
X134269603Y-95552650D01*
X134404860Y-95456173D01*
X134563096Y-95298489D01*
X134617960Y-95222138D01*
X134690435Y-95121277D01*
X134693453Y-95117077D01*
X134701387Y-95101025D01*
X134790136Y-94921453D01*
X134790137Y-94921451D01*
X134792430Y-94916811D01*
X134857370Y-94703069D01*
X134886529Y-94481590D01*
X134887370Y-94447162D01*
X134888074Y-94418365D01*
X134888074Y-94418361D01*
X134888156Y-94415000D01*
X134869852Y-94192361D01*
X134815431Y-93975702D01*
X134726354Y-93770840D01*
X134686906Y-93709862D01*
X134607822Y-93587617D01*
X134607820Y-93587614D01*
X134605014Y-93583277D01*
X134454670Y-93418051D01*
X134450619Y-93414852D01*
X134450615Y-93414848D01*
X134283414Y-93282800D01*
X134283410Y-93282798D01*
X134279359Y-93279598D01*
X134238053Y-93256796D01*
X134188084Y-93206364D01*
X134173312Y-93136921D01*
X134198428Y-93070516D01*
X134225780Y-93043909D01*
X134281981Y-93003821D01*
X134404860Y-92916173D01*
X134429628Y-92891492D01*
X134559435Y-92762137D01*
X134563096Y-92758489D01*
X134617960Y-92682138D01*
X134690435Y-92581277D01*
X134693453Y-92577077D01*
X134706052Y-92551586D01*
X134790136Y-92381453D01*
X134790137Y-92381451D01*
X134792430Y-92376811D01*
X134840486Y-92218642D01*
X134855865Y-92168023D01*
X134855865Y-92168021D01*
X134857370Y-92163069D01*
X134886529Y-91941590D01*
X134888156Y-91875000D01*
X134869852Y-91652361D01*
X134815431Y-91435702D01*
X134726354Y-91230840D01*
X134605014Y-91043277D01*
X134601540Y-91039459D01*
X134601533Y-91039450D01*
X134457435Y-90881088D01*
X134426383Y-90817242D01*
X134434779Y-90746744D01*
X134479956Y-90691976D01*
X134506400Y-90678307D01*
X134613052Y-90638325D01*
X134628649Y-90629786D01*
X134730724Y-90553285D01*
X134743285Y-90540724D01*
X134819786Y-90438649D01*
X134828324Y-90423054D01*
X134873478Y-90302606D01*
X134877105Y-90287351D01*
X134882631Y-90236486D01*
X134883000Y-90229672D01*
X134883000Y-89607115D01*
X134878525Y-89591876D01*
X134877135Y-89590671D01*
X134869452Y-89589000D01*
X133397000Y-89589000D01*
X133328879Y-89568998D01*
X133282386Y-89515342D01*
X133271000Y-89463000D01*
X133271000Y-89207000D01*
X133291002Y-89138879D01*
X133344658Y-89092386D01*
X133397000Y-89081000D01*
X134864884Y-89081000D01*
X134880123Y-89076525D01*
X134881328Y-89075135D01*
X134882999Y-89067452D01*
X134882999Y-88440331D01*
X134882629Y-88433510D01*
X134877105Y-88382648D01*
X134873479Y-88367396D01*
X134828324Y-88246946D01*
X134819786Y-88231351D01*
X134743285Y-88129276D01*
X134730724Y-88116715D01*
X134628649Y-88040214D01*
X134613054Y-88031676D01*
X134502813Y-87990348D01*
X134446049Y-87947706D01*
X134421349Y-87881145D01*
X134436557Y-87811796D01*
X134458104Y-87783115D01*
X134559430Y-87682144D01*
X134559440Y-87682132D01*
X134563096Y-87678489D01*
X134622594Y-87595689D01*
X134690435Y-87501277D01*
X134693453Y-87497077D01*
X134704672Y-87474378D01*
X134790136Y-87301453D01*
X134790137Y-87301451D01*
X134792430Y-87296811D01*
X134838548Y-87145020D01*
X134855865Y-87088023D01*
X134855865Y-87088021D01*
X134857370Y-87083069D01*
X134886529Y-86861590D01*
X134888156Y-86795000D01*
X134869852Y-86572361D01*
X134815431Y-86355702D01*
X134726354Y-86150840D01*
X134605014Y-85963277D01*
X134454670Y-85798051D01*
X134450619Y-85794852D01*
X134450615Y-85794848D01*
X134283414Y-85662800D01*
X134283410Y-85662798D01*
X134279359Y-85659598D01*
X134238053Y-85636796D01*
X134188084Y-85586364D01*
X134173312Y-85516921D01*
X134198428Y-85450516D01*
X134225780Y-85423909D01*
X134269603Y-85392650D01*
X134404860Y-85296173D01*
X134563096Y-85138489D01*
X134622594Y-85055689D01*
X134690435Y-84961277D01*
X134693453Y-84957077D01*
X134730364Y-84882394D01*
X134790136Y-84761453D01*
X134790137Y-84761451D01*
X134792430Y-84756811D01*
X134857370Y-84543069D01*
X134886529Y-84321590D01*
X134888156Y-84255000D01*
X134869852Y-84032361D01*
X134815431Y-83815702D01*
X134726354Y-83610840D01*
X134605014Y-83423277D01*
X134454670Y-83258051D01*
X134450619Y-83254852D01*
X134450615Y-83254848D01*
X134283414Y-83122800D01*
X134283410Y-83122798D01*
X134279359Y-83119598D01*
X134238053Y-83096796D01*
X134188084Y-83046364D01*
X134173312Y-82976921D01*
X134198428Y-82910516D01*
X134225780Y-82883909D01*
X134269603Y-82852650D01*
X134404860Y-82756173D01*
X134563096Y-82598489D01*
X134622594Y-82515689D01*
X134690435Y-82421277D01*
X134693453Y-82417077D01*
X134792430Y-82216811D01*
X134857370Y-82003069D01*
X134886529Y-81781590D01*
X134888156Y-81715000D01*
X134869852Y-81492361D01*
X134815431Y-81275702D01*
X134726354Y-81070840D01*
X134605014Y-80883277D01*
X134454670Y-80718051D01*
X134450619Y-80714852D01*
X134450615Y-80714848D01*
X134283414Y-80582800D01*
X134283410Y-80582798D01*
X134279359Y-80579598D01*
X134238053Y-80556796D01*
X134188084Y-80506364D01*
X134173312Y-80436921D01*
X134198428Y-80370516D01*
X134225780Y-80343909D01*
X134269603Y-80312650D01*
X134404860Y-80216173D01*
X134563096Y-80058489D01*
X134622594Y-79975689D01*
X134690435Y-79881277D01*
X134693453Y-79877077D01*
X134792430Y-79676811D01*
X134857370Y-79463069D01*
X134886529Y-79241590D01*
X134888156Y-79175000D01*
X134869852Y-78952361D01*
X134815431Y-78735702D01*
X134726354Y-78530840D01*
X134605014Y-78343277D01*
X134601532Y-78339450D01*
X134457798Y-78181488D01*
X134426746Y-78117642D01*
X134435141Y-78047143D01*
X134480317Y-77992375D01*
X134506761Y-77978706D01*
X134613297Y-77938767D01*
X134621705Y-77935615D01*
X134738261Y-77848261D01*
X134825615Y-77731705D01*
X134876745Y-77595316D01*
X134883500Y-77533134D01*
X134883500Y-75736866D01*
X134876745Y-75674684D01*
X134825615Y-75538295D01*
X134738261Y-75421739D01*
X134621705Y-75334385D01*
X134574456Y-75316672D01*
X134503203Y-75289960D01*
X134446439Y-75247318D01*
X134421739Y-75180756D01*
X134436947Y-75111408D01*
X134458493Y-75082727D01*
X134463459Y-75077778D01*
X134563096Y-74978489D01*
X134622594Y-74895689D01*
X134690435Y-74801277D01*
X134693453Y-74797077D01*
X134792430Y-74596811D01*
X134857370Y-74383069D01*
X134886529Y-74161590D01*
X134888156Y-74095000D01*
X134869852Y-73872361D01*
X134815431Y-73655702D01*
X134726354Y-73450840D01*
X134629530Y-73301173D01*
X134607822Y-73267617D01*
X134607820Y-73267614D01*
X134605014Y-73263277D01*
X134454670Y-73098051D01*
X134450619Y-73094852D01*
X134450615Y-73094848D01*
X134283414Y-72962800D01*
X134283410Y-72962798D01*
X134279359Y-72959598D01*
X134238053Y-72936796D01*
X134188084Y-72886364D01*
X134173312Y-72816921D01*
X134198428Y-72750516D01*
X134225780Y-72723909D01*
X134269603Y-72692650D01*
X134404860Y-72596173D01*
X134453133Y-72548069D01*
X134546761Y-72454767D01*
X134563096Y-72438489D01*
X134622594Y-72355689D01*
X134690435Y-72261277D01*
X134693453Y-72257077D01*
X134703019Y-72237723D01*
X134790136Y-72061453D01*
X134790137Y-72061451D01*
X134792430Y-72056811D01*
X134857370Y-71843069D01*
X134886529Y-71621590D01*
X134886611Y-71618240D01*
X134888074Y-71558365D01*
X134888074Y-71558361D01*
X134888156Y-71555000D01*
X134869852Y-71332361D01*
X134815431Y-71115702D01*
X134726354Y-70910840D01*
X134605014Y-70723277D01*
X134454670Y-70558051D01*
X134450619Y-70554852D01*
X134450615Y-70554848D01*
X134283414Y-70422800D01*
X134283410Y-70422798D01*
X134279359Y-70419598D01*
X134238053Y-70396796D01*
X134188084Y-70346364D01*
X134173312Y-70276921D01*
X134198428Y-70210516D01*
X134225780Y-70183909D01*
X134283699Y-70142596D01*
X134404860Y-70056173D01*
X134425898Y-70035209D01*
X134536947Y-69924547D01*
X134563096Y-69898489D01*
X134568118Y-69891501D01*
X134690435Y-69721277D01*
X134693453Y-69717077D01*
X134707333Y-69688994D01*
X134790136Y-69521453D01*
X134790137Y-69521451D01*
X134792430Y-69516811D01*
X134834352Y-69378829D01*
X134855865Y-69308023D01*
X134855865Y-69308021D01*
X134857370Y-69303069D01*
X134886529Y-69081590D01*
X134888156Y-69015000D01*
X134869852Y-68792361D01*
X134815431Y-68575702D01*
X134726354Y-68370840D01*
X134669185Y-68282470D01*
X134607822Y-68187617D01*
X134607820Y-68187614D01*
X134605014Y-68183277D01*
X134454670Y-68018051D01*
X134450619Y-68014852D01*
X134450615Y-68014848D01*
X134283414Y-67882800D01*
X134283410Y-67882798D01*
X134279359Y-67879598D01*
X134238053Y-67856796D01*
X134188084Y-67806364D01*
X134173312Y-67736921D01*
X134198428Y-67670516D01*
X134225780Y-67643909D01*
X134275315Y-67608576D01*
X134404860Y-67516173D01*
X134429620Y-67491500D01*
X134559435Y-67362137D01*
X134563096Y-67358489D01*
X134622594Y-67275689D01*
X134690435Y-67181277D01*
X134693453Y-67177077D01*
X134792430Y-66976811D01*
X134857370Y-66763069D01*
X134886529Y-66541590D01*
X134887261Y-66511623D01*
X134888074Y-66478365D01*
X134888074Y-66478361D01*
X134888156Y-66475000D01*
X134869852Y-66252361D01*
X134815431Y-66035702D01*
X134726354Y-65830840D01*
X134605014Y-65643277D01*
X134601540Y-65639459D01*
X134601533Y-65639450D01*
X134457435Y-65481088D01*
X134426383Y-65417242D01*
X134434779Y-65346744D01*
X134479956Y-65291976D01*
X134506400Y-65278307D01*
X134613052Y-65238325D01*
X134628649Y-65229786D01*
X134730724Y-65153285D01*
X134743285Y-65140724D01*
X134819786Y-65038649D01*
X134828324Y-65023054D01*
X134873478Y-64902606D01*
X134877105Y-64887351D01*
X134882631Y-64836486D01*
X134883000Y-64829672D01*
X134883000Y-64207115D01*
X134878525Y-64191876D01*
X134877135Y-64190671D01*
X134869452Y-64189000D01*
X132185116Y-64189000D01*
X132169877Y-64193475D01*
X132168672Y-64194865D01*
X132167001Y-64202548D01*
X132167001Y-64829669D01*
X132167371Y-64836490D01*
X132172895Y-64887352D01*
X132176521Y-64902604D01*
X132221676Y-65023054D01*
X132230214Y-65038649D01*
X132306715Y-65140724D01*
X132319276Y-65153285D01*
X132421351Y-65229786D01*
X132436946Y-65238324D01*
X132545827Y-65279142D01*
X132602591Y-65321784D01*
X132627291Y-65388345D01*
X132612083Y-65457694D01*
X132592691Y-65484175D01*
X132483650Y-65598280D01*
X132465629Y-65617138D01*
X132462715Y-65621410D01*
X132462714Y-65621411D01*
X132450409Y-65639450D01*
X132339743Y-65801680D01*
X132318124Y-65848255D01*
X132256340Y-65981358D01*
X132245688Y-66004305D01*
X132185989Y-66219570D01*
X132162251Y-66441695D01*
X132162548Y-66446848D01*
X132162548Y-66446851D01*
X132172854Y-66625591D01*
X132175110Y-66664715D01*
X132176247Y-66669761D01*
X132176248Y-66669767D01*
X132186323Y-66714470D01*
X132224222Y-66882639D01*
X132308266Y-67089616D01*
X132424987Y-67280088D01*
X132571250Y-67448938D01*
X132743126Y-67591632D01*
X132773801Y-67609557D01*
X132816445Y-67634476D01*
X132865169Y-67686114D01*
X132878240Y-67755897D01*
X132851509Y-67821669D01*
X132811055Y-67855027D01*
X132798607Y-67861507D01*
X132794474Y-67864610D01*
X132794471Y-67864612D01*
X132624100Y-67992530D01*
X132619965Y-67995635D01*
X132616394Y-67999372D01*
X132599023Y-68017550D01*
X132537499Y-68052981D01*
X132507928Y-68056500D01*
X131013604Y-68056500D01*
X131007010Y-68056327D01*
X130944317Y-68053041D01*
X130944313Y-68053041D01*
X130937936Y-68052707D01*
X130931623Y-68053662D01*
X130931618Y-68053662D01*
X130889928Y-68059968D01*
X130867865Y-68063304D01*
X130861774Y-68064074D01*
X130791273Y-68071235D01*
X130785183Y-68073143D01*
X130785175Y-68073145D01*
X130777992Y-68075396D01*
X130759167Y-68079742D01*
X130751720Y-68080869D01*
X130751718Y-68080870D01*
X130745401Y-68081825D01*
X130739406Y-68084031D01*
X130733232Y-68085616D01*
X130733077Y-68085013D01*
X130696662Y-68091500D01*
X128428503Y-68091500D01*
X128360382Y-68071498D01*
X128339408Y-68054595D01*
X125945405Y-65660592D01*
X125911379Y-65598280D01*
X125908500Y-65571497D01*
X125908500Y-61361695D01*
X132162251Y-61361695D01*
X132162548Y-61366848D01*
X132162548Y-61366851D01*
X132168011Y-61461590D01*
X132175110Y-61584715D01*
X132176247Y-61589761D01*
X132176248Y-61589767D01*
X132196119Y-61677939D01*
X132224222Y-61802639D01*
X132308266Y-62009616D01*
X132424987Y-62200088D01*
X132571250Y-62368938D01*
X132575225Y-62372238D01*
X132575231Y-62372244D01*
X132580425Y-62376556D01*
X132620059Y-62435460D01*
X132621555Y-62506441D01*
X132584439Y-62566962D01*
X132544168Y-62591480D01*
X132436946Y-62631676D01*
X132421351Y-62640214D01*
X132319276Y-62716715D01*
X132306715Y-62729276D01*
X132230214Y-62831351D01*
X132221676Y-62846946D01*
X132176522Y-62967394D01*
X132172895Y-62982649D01*
X132167369Y-63033514D01*
X132167000Y-63040328D01*
X132167000Y-63662885D01*
X132171475Y-63678124D01*
X132172865Y-63679329D01*
X132180548Y-63681000D01*
X134864884Y-63681000D01*
X134880123Y-63676525D01*
X134881328Y-63675135D01*
X134882999Y-63667452D01*
X134882999Y-63040331D01*
X134882629Y-63033510D01*
X134877105Y-62982648D01*
X134873479Y-62967396D01*
X134828324Y-62846946D01*
X134819786Y-62831351D01*
X134743285Y-62729276D01*
X134730724Y-62716715D01*
X134628649Y-62640214D01*
X134613054Y-62631676D01*
X134502813Y-62590348D01*
X134446049Y-62547706D01*
X134421349Y-62481145D01*
X134436557Y-62411796D01*
X134458104Y-62383115D01*
X134559430Y-62282144D01*
X134559440Y-62282132D01*
X134563096Y-62278489D01*
X134622594Y-62195689D01*
X134690435Y-62101277D01*
X134693453Y-62097077D01*
X134792430Y-61896811D01*
X134857370Y-61683069D01*
X134886529Y-61461590D01*
X134888156Y-61395000D01*
X134869852Y-61172361D01*
X134815431Y-60955702D01*
X134726354Y-60750840D01*
X134605014Y-60563277D01*
X134454670Y-60398051D01*
X134450619Y-60394852D01*
X134450615Y-60394848D01*
X134283414Y-60262800D01*
X134283410Y-60262798D01*
X134279359Y-60259598D01*
X134238053Y-60236796D01*
X134188084Y-60186364D01*
X134173312Y-60116921D01*
X134198428Y-60050516D01*
X134225780Y-60023909D01*
X134269603Y-59992650D01*
X134404860Y-59896173D01*
X134563096Y-59738489D01*
X134622594Y-59655689D01*
X134679555Y-59576418D01*
X143789122Y-59576418D01*
X143789171Y-59577110D01*
X143794617Y-59585274D01*
X143872268Y-59657812D01*
X143876507Y-59661433D01*
X144209802Y-59921363D01*
X144214359Y-59924602D01*
X144569448Y-60153880D01*
X144574250Y-60156686D01*
X144948316Y-60353491D01*
X144953374Y-60355871D01*
X145343435Y-60518638D01*
X145348690Y-60520561D01*
X145751676Y-60648008D01*
X145757075Y-60649455D01*
X146169796Y-60740575D01*
X146175307Y-60741537D01*
X146594501Y-60795610D01*
X146600064Y-60796077D01*
X147022405Y-60812670D01*
X147027997Y-60812641D01*
X147450125Y-60791626D01*
X147455708Y-60791098D01*
X147874305Y-60732640D01*
X147879792Y-60731623D01*
X148291543Y-60636185D01*
X148296929Y-60634681D01*
X148698567Y-60503018D01*
X148703784Y-60501046D01*
X149092126Y-60334202D01*
X149097169Y-60331764D01*
X149469131Y-60131063D01*
X149473935Y-60128188D01*
X149826563Y-59895231D01*
X149831126Y-59891916D01*
X150161658Y-59628529D01*
X150165873Y-59624852D01*
X150203823Y-59588649D01*
X150211763Y-59574890D01*
X150211713Y-59573843D01*
X150206822Y-59566032D01*
X149806507Y-59165717D01*
X148921210Y-58280419D01*
X148395122Y-57754332D01*
X147012812Y-56372022D01*
X146998868Y-56364408D01*
X146997035Y-56364539D01*
X146990420Y-56368790D01*
X145604879Y-57754331D01*
X144719581Y-58639628D01*
X144193494Y-59165716D01*
X143796736Y-59562474D01*
X143789122Y-59576418D01*
X134679555Y-59576418D01*
X134690435Y-59561277D01*
X134693453Y-59557077D01*
X134792430Y-59356811D01*
X134857370Y-59143069D01*
X134886529Y-58921590D01*
X134888156Y-58855000D01*
X134869852Y-58632361D01*
X134815431Y-58415702D01*
X134726354Y-58210840D01*
X134605014Y-58023277D01*
X134454670Y-57858051D01*
X134450619Y-57854852D01*
X134450615Y-57854848D01*
X134283414Y-57722800D01*
X134283410Y-57722798D01*
X134279359Y-57719598D01*
X134083789Y-57611638D01*
X134078920Y-57609914D01*
X134078916Y-57609912D01*
X133878087Y-57538795D01*
X133878083Y-57538794D01*
X133873212Y-57537069D01*
X133868119Y-57536162D01*
X133868116Y-57536161D01*
X133658373Y-57498800D01*
X133658367Y-57498799D01*
X133653284Y-57497894D01*
X133579452Y-57496992D01*
X133435081Y-57495228D01*
X133435079Y-57495228D01*
X133429911Y-57495165D01*
X133209091Y-57528955D01*
X132996756Y-57598357D01*
X132798607Y-57701507D01*
X132794474Y-57704610D01*
X132794471Y-57704612D01*
X132624100Y-57832530D01*
X132619965Y-57835635D01*
X132616393Y-57839373D01*
X132538189Y-57921209D01*
X132465629Y-57997138D01*
X132339743Y-58181680D01*
X132245688Y-58384305D01*
X132185989Y-58599570D01*
X132162251Y-58821695D01*
X132162548Y-58826848D01*
X132162548Y-58826851D01*
X132174812Y-59039547D01*
X132175110Y-59044715D01*
X132176247Y-59049761D01*
X132176248Y-59049767D01*
X132176401Y-59050444D01*
X132224222Y-59262639D01*
X132308266Y-59469616D01*
X132310965Y-59474020D01*
X132405648Y-59628529D01*
X132424987Y-59660088D01*
X132571250Y-59828938D01*
X132743126Y-59971632D01*
X132813595Y-60012811D01*
X132816445Y-60014476D01*
X132865169Y-60066114D01*
X132878240Y-60135897D01*
X132851509Y-60201669D01*
X132811055Y-60235027D01*
X132798607Y-60241507D01*
X132794474Y-60244610D01*
X132794471Y-60244612D01*
X132649458Y-60353491D01*
X132619965Y-60375635D01*
X132465629Y-60537138D01*
X132339743Y-60721680D01*
X132245688Y-60924305D01*
X132185989Y-61139570D01*
X132162251Y-61361695D01*
X125908500Y-61361695D01*
X125908500Y-57081417D01*
X125910051Y-57061707D01*
X125911220Y-57054327D01*
X125911220Y-57054326D01*
X125912252Y-57047810D01*
X125908673Y-56979520D01*
X125908500Y-56972926D01*
X125908500Y-56952390D01*
X125908156Y-56949116D01*
X125906353Y-56931958D01*
X125905836Y-56925384D01*
X125902603Y-56863696D01*
X125902603Y-56863694D01*
X125902257Y-56857097D01*
X125898615Y-56843504D01*
X125895014Y-56824075D01*
X125894232Y-56816639D01*
X125893542Y-56810072D01*
X125872407Y-56745025D01*
X125870535Y-56738706D01*
X125854538Y-56679003D01*
X125854537Y-56679000D01*
X125852830Y-56672630D01*
X125846438Y-56660085D01*
X125838874Y-56641823D01*
X125836568Y-56634726D01*
X125834527Y-56628444D01*
X125800336Y-56569223D01*
X125797188Y-56563426D01*
X125769126Y-56508351D01*
X125769124Y-56508348D01*
X125766129Y-56502470D01*
X125757273Y-56491533D01*
X125746073Y-56475237D01*
X125742343Y-56468776D01*
X125742340Y-56468772D01*
X125739040Y-56463056D01*
X125734623Y-56458150D01*
X125734619Y-56458145D01*
X125693278Y-56412231D01*
X125688994Y-56407216D01*
X125678148Y-56393823D01*
X125676072Y-56391259D01*
X125661557Y-56376744D01*
X125657016Y-56371959D01*
X125615673Y-56326043D01*
X125611253Y-56321134D01*
X125599865Y-56312860D01*
X125584832Y-56300019D01*
X125161638Y-55876825D01*
X142188855Y-55876825D01*
X142196600Y-56299410D01*
X142196950Y-56304976D01*
X142242231Y-56725208D01*
X142243078Y-56730746D01*
X142325535Y-57145286D01*
X142326864Y-57150698D01*
X142445852Y-57556289D01*
X142447658Y-57561564D01*
X142602219Y-57954948D01*
X142604501Y-57960072D01*
X142793416Y-58338150D01*
X142796140Y-58343043D01*
X143017917Y-58702833D01*
X143021068Y-58707469D01*
X143273955Y-59046127D01*
X143277488Y-59050444D01*
X143413222Y-59201988D01*
X143426717Y-59210351D01*
X143436128Y-59204662D01*
X143834283Y-58806507D01*
X144719581Y-57921210D01*
X144782739Y-57858052D01*
X145245668Y-57395122D01*
X146627978Y-56012812D01*
X146635592Y-55998868D01*
X146635461Y-55997035D01*
X146631210Y-55990420D01*
X145245669Y-54604879D01*
X144360372Y-53719581D01*
X143834284Y-53193494D01*
X143435561Y-52794771D01*
X143422253Y-52787504D01*
X143412214Y-52794626D01*
X143168223Y-53087994D01*
X143164828Y-53092467D01*
X142924528Y-53440152D01*
X142921549Y-53444902D01*
X142713106Y-53812575D01*
X142710562Y-53817568D01*
X142535629Y-54202312D01*
X142533538Y-54207511D01*
X142393498Y-54606290D01*
X142391877Y-54611659D01*
X142287840Y-55021303D01*
X142286706Y-55026776D01*
X142219496Y-55444054D01*
X142218851Y-55449632D01*
X142189002Y-55871204D01*
X142188855Y-55876825D01*
X125161638Y-55876825D01*
X123552779Y-54267966D01*
X133128257Y-54267966D01*
X133158565Y-54402446D01*
X133161645Y-54412275D01*
X133241770Y-54609603D01*
X133246413Y-54618794D01*
X133357694Y-54800388D01*
X133363777Y-54808699D01*
X133503213Y-54969667D01*
X133510580Y-54976883D01*
X133674434Y-55112916D01*
X133682881Y-55118831D01*
X133866756Y-55226279D01*
X133876042Y-55230729D01*
X134075001Y-55306703D01*
X134084899Y-55309579D01*
X134188250Y-55330606D01*
X134202299Y-55329410D01*
X134206000Y-55319065D01*
X134206000Y-55318517D01*
X134714000Y-55318517D01*
X134718064Y-55332359D01*
X134731478Y-55334393D01*
X134738184Y-55333534D01*
X134748262Y-55331392D01*
X134952255Y-55270191D01*
X134961842Y-55266433D01*
X135153095Y-55172739D01*
X135161945Y-55167464D01*
X135335328Y-55043792D01*
X135343193Y-55037145D01*
X135447897Y-54932805D01*
X135510268Y-54898889D01*
X135581075Y-54904077D01*
X135637837Y-54946723D01*
X135654819Y-54977826D01*
X135699385Y-55096705D01*
X135786739Y-55213261D01*
X135903295Y-55300615D01*
X136039684Y-55351745D01*
X136101866Y-55358500D01*
X137898134Y-55358500D01*
X137960316Y-55351745D01*
X138096705Y-55300615D01*
X138213261Y-55213261D01*
X138300615Y-55096705D01*
X138351745Y-54960316D01*
X138358500Y-54898134D01*
X138358500Y-53101866D01*
X138351745Y-53039684D01*
X138300615Y-52903295D01*
X138213261Y-52786739D01*
X138096705Y-52699385D01*
X137960316Y-52648255D01*
X137898134Y-52641500D01*
X136101866Y-52641500D01*
X136039684Y-52648255D01*
X135903295Y-52699385D01*
X135786739Y-52786739D01*
X135699385Y-52903295D01*
X135696233Y-52911703D01*
X135696232Y-52911705D01*
X135654722Y-53022433D01*
X135612081Y-53079198D01*
X135545519Y-53103898D01*
X135476170Y-53088691D01*
X135443546Y-53063004D01*
X135392799Y-53007234D01*
X135385273Y-53000215D01*
X135218139Y-52868222D01*
X135209552Y-52862517D01*
X135023117Y-52759599D01*
X135013705Y-52755369D01*
X134812959Y-52684280D01*
X134802988Y-52681646D01*
X134731837Y-52668972D01*
X134718540Y-52670432D01*
X134714000Y-52684989D01*
X134714000Y-55318517D01*
X134206000Y-55318517D01*
X134206000Y-54272115D01*
X134201525Y-54256876D01*
X134200135Y-54255671D01*
X134192452Y-54254000D01*
X133143225Y-54254000D01*
X133129694Y-54257973D01*
X133128257Y-54267966D01*
X123552779Y-54267966D01*
X123018996Y-53734183D01*
X133124389Y-53734183D01*
X133125912Y-53742607D01*
X133138292Y-53746000D01*
X134187885Y-53746000D01*
X134203124Y-53741525D01*
X134204329Y-53740135D01*
X134206000Y-53732452D01*
X134206000Y-52683102D01*
X134202082Y-52669758D01*
X134187806Y-52667771D01*
X134149324Y-52673660D01*
X134139288Y-52676051D01*
X133936868Y-52742212D01*
X133927359Y-52746209D01*
X133738463Y-52844542D01*
X133729738Y-52850036D01*
X133559433Y-52977905D01*
X133551726Y-52984748D01*
X133404590Y-53138717D01*
X133398104Y-53146727D01*
X133278098Y-53322649D01*
X133273000Y-53331623D01*
X133183338Y-53524783D01*
X133179775Y-53534470D01*
X133124389Y-53734183D01*
X123018996Y-53734183D01*
X122699981Y-53415168D01*
X122687140Y-53400135D01*
X122682746Y-53394087D01*
X122682745Y-53394086D01*
X122678866Y-53388747D01*
X122628041Y-53342984D01*
X122623256Y-53338443D01*
X122608741Y-53323928D01*
X122601282Y-53317888D01*
X122592784Y-53311006D01*
X122587769Y-53306722D01*
X122541855Y-53265381D01*
X122541850Y-53265377D01*
X122536944Y-53260960D01*
X122531228Y-53257660D01*
X122531224Y-53257657D01*
X122524763Y-53253927D01*
X122508466Y-53242727D01*
X122502660Y-53238025D01*
X122502658Y-53238024D01*
X122497530Y-53233871D01*
X122436577Y-53202814D01*
X122430782Y-53199667D01*
X122377279Y-53168777D01*
X122377278Y-53168776D01*
X122371556Y-53165473D01*
X122365274Y-53163432D01*
X122365272Y-53163431D01*
X122358174Y-53161125D01*
X122339907Y-53153559D01*
X122327370Y-53147171D01*
X122261299Y-53129467D01*
X122254997Y-53127600D01*
X122189928Y-53106458D01*
X122183363Y-53105768D01*
X122183354Y-53105766D01*
X122175925Y-53104985D01*
X122156491Y-53101383D01*
X122149286Y-53099453D01*
X122149284Y-53099453D01*
X122142903Y-53097743D01*
X122136312Y-53097398D01*
X122136308Y-53097397D01*
X122074616Y-53094164D01*
X122068042Y-53093647D01*
X122050884Y-53091844D01*
X122050882Y-53091844D01*
X122047610Y-53091500D01*
X122027074Y-53091500D01*
X122020480Y-53091327D01*
X121958782Y-53088093D01*
X121958777Y-53088093D01*
X121952190Y-53087748D01*
X121938292Y-53089949D01*
X121918583Y-53091500D01*
X116458498Y-53091500D01*
X116390377Y-53071498D01*
X116343884Y-53017842D01*
X116340516Y-53009730D01*
X116303767Y-52911703D01*
X116300615Y-52903295D01*
X116213261Y-52786739D01*
X116096705Y-52699385D01*
X115960316Y-52648255D01*
X115898134Y-52641500D01*
X114101866Y-52641500D01*
X114039684Y-52648255D01*
X113903295Y-52699385D01*
X113786739Y-52786739D01*
X113699385Y-52903295D01*
X113696233Y-52911703D01*
X113696232Y-52911705D01*
X113654722Y-53022433D01*
X113612081Y-53079198D01*
X113545519Y-53103898D01*
X113476170Y-53088691D01*
X113443546Y-53063004D01*
X113392799Y-53007234D01*
X113385273Y-53000215D01*
X113218139Y-52868222D01*
X113209552Y-52862517D01*
X113023117Y-52759599D01*
X113013705Y-52755369D01*
X112812959Y-52684280D01*
X112802988Y-52681646D01*
X112731837Y-52668972D01*
X112718540Y-52670432D01*
X112714000Y-52684989D01*
X112714000Y-55318517D01*
X112206000Y-55318517D01*
X112206000Y-54272115D01*
X112201525Y-54256876D01*
X112200135Y-54255671D01*
X112192452Y-54254000D01*
X111143225Y-54254000D01*
X111129694Y-54257973D01*
X111128257Y-54267966D01*
X107487955Y-54267966D01*
X107345098Y-53930599D01*
X107342683Y-53925536D01*
X107240724Y-53734183D01*
X111124389Y-53734183D01*
X111125912Y-53742607D01*
X111138292Y-53746000D01*
X112187885Y-53746000D01*
X112203124Y-53741525D01*
X112204329Y-53740135D01*
X112206000Y-53732452D01*
X112206000Y-52683102D01*
X112202082Y-52669758D01*
X112187806Y-52667771D01*
X112149324Y-52673660D01*
X112139288Y-52676051D01*
X111936868Y-52742212D01*
X111927359Y-52746209D01*
X111738463Y-52844542D01*
X111729738Y-52850036D01*
X111559433Y-52977905D01*
X111551726Y-52984748D01*
X111404590Y-53138717D01*
X111398104Y-53146727D01*
X111278098Y-53322649D01*
X111273000Y-53331623D01*
X111183338Y-53524783D01*
X111179775Y-53534470D01*
X111124389Y-53734183D01*
X107240724Y-53734183D01*
X107143936Y-53552535D01*
X107141085Y-53547713D01*
X106909974Y-53193865D01*
X106906692Y-53189297D01*
X106645030Y-52857380D01*
X106641382Y-52853155D01*
X106588103Y-52796715D01*
X106574389Y-52788705D01*
X106573517Y-52788742D01*
X106565438Y-52793772D01*
X106165717Y-53193493D01*
X105280419Y-54078790D01*
X104754332Y-54604878D01*
X103372022Y-55987188D01*
X103364408Y-56001132D01*
X102639658Y-56001132D01*
X104395121Y-54245669D01*
X105280419Y-53360372D01*
X105331859Y-53308932D01*
X105806506Y-52834284D01*
X106202754Y-52438036D01*
X106210316Y-52424187D01*
X106203987Y-52414962D01*
X106030928Y-52261582D01*
X106026561Y-52258046D01*
X105686600Y-52006948D01*
X105681947Y-52003821D01*
X105320995Y-51783926D01*
X105316094Y-51781232D01*
X105247704Y-51747506D01*
X105195455Y-51699438D01*
X105177488Y-51630752D01*
X105199507Y-51563256D01*
X105254522Y-51518380D01*
X105303432Y-51508500D01*
X144694045Y-51508500D01*
X144762166Y-51528502D01*
G37*
%TD.AperFunction*%
%TA.AperFunction,Conductor*%
G36*
X100237527Y-52894419D02*
G01*
X100282590Y-52923379D01*
X100719581Y-53360371D01*
X101515784Y-54156573D01*
X101549809Y-54218885D01*
X101544744Y-54289701D01*
X101515784Y-54334763D01*
X101425274Y-54425274D01*
X101425273Y-54425275D01*
X101334763Y-54515784D01*
X101272451Y-54549809D01*
X101201635Y-54544743D01*
X101156572Y-54515783D01*
X100360371Y-53719581D01*
X99923378Y-53282589D01*
X99889353Y-53220277D01*
X99894418Y-53149461D01*
X99923378Y-53104399D01*
X100013888Y-53013888D01*
X100013889Y-53013887D01*
X100104399Y-52923378D01*
X100166711Y-52889353D01*
X100237527Y-52894419D01*
G37*
%TD.AperFunction*%
%TA.AperFunction,Conductor*%
G36*
X149850539Y-52894418D02*
G01*
X149895601Y-52923378D01*
X149986112Y-53013888D01*
X149986113Y-53013889D01*
X150076622Y-53104399D01*
X150110647Y-53166711D01*
X150105581Y-53237527D01*
X150076621Y-53282590D01*
X149280419Y-54078791D01*
X148843427Y-54515784D01*
X148781115Y-54549809D01*
X148710299Y-54544744D01*
X148665237Y-54515784D01*
X148574726Y-54425274D01*
X148574725Y-54425273D01*
X148484216Y-54334763D01*
X148450191Y-54272451D01*
X148455257Y-54201635D01*
X148484217Y-54156572D01*
X149280419Y-53360371D01*
X149717411Y-52923378D01*
X149779723Y-52889353D01*
X149850539Y-52894418D01*
G37*
%TD.AperFunction*%
%TD*%
M02*
