%TF.GenerationSoftware,KiCad,Pcbnew,(6.0.9)*%
%TF.CreationDate,2022-12-10T13:22:27-05:00*%
%TF.ProjectId,Team5_Coaster,5465616d-355f-4436-9f61-737465722e6b,rev?*%
%TF.SameCoordinates,Original*%
%TF.FileFunction,Drillmap*%
%TF.FilePolarity,Positive*%
%FSLAX45Y45*%
G04 Gerber Fmt 4.5, Leading zero omitted, Abs format (unit mm)*
G04 Created by KiCad (PCBNEW (6.0.9)) date 2022-12-10 13:22:27*
%MOMM*%
%LPD*%
G01*
G04 APERTURE LIST*
%ADD10C,0.100000*%
%ADD11C,0.200000*%
%ADD12C,0.030000*%
%ADD13C,0.060000*%
%ADD14C,0.102000*%
%ADD15C,0.110000*%
%ADD16C,0.228600*%
%ADD17C,0.430000*%
%ADD18C,0.450000*%
%ADD19C,0.500000*%
G04 APERTURE END LIST*
D10*
X10300000Y-5100000D02*
G75*
G03*
X9800000Y-5600000I0J-500000D01*
G01*
X14700000Y-13700000D02*
G75*
G03*
X15200000Y-13200000I0J500000D01*
G01*
X9800000Y-13200000D02*
G75*
G03*
X10300000Y-13700000I500000J0D01*
G01*
X14700000Y-5100000D02*
X10300000Y-5100000D01*
X15200000Y-13200000D02*
X15200000Y-5600000D01*
X9800000Y-5600000D02*
X9800000Y-13200000D01*
X10300000Y-13700000D02*
X14700000Y-13700000D01*
X15200000Y-5600000D02*
G75*
G03*
X14700000Y-5100000I-500000J0D01*
G01*
D11*
D12*
X10085000Y-6485000D02*
X10115000Y-6515000D01*
X10115000Y-6485000D02*
X10085000Y-6515000D01*
X10085000Y-6585000D02*
X10115000Y-6615000D01*
X10115000Y-6585000D02*
X10085000Y-6615000D01*
X10085000Y-6685000D02*
X10115000Y-6715000D01*
X10115000Y-6685000D02*
X10085000Y-6715000D01*
X10085000Y-6785000D02*
X10115000Y-6815000D01*
X10115000Y-6785000D02*
X10085000Y-6815000D01*
X10085000Y-6885000D02*
X10115000Y-6915000D01*
X10115000Y-6885000D02*
X10085000Y-6915000D01*
X10085000Y-6985000D02*
X10115000Y-7015000D01*
X10115000Y-6985000D02*
X10085000Y-7015000D01*
X10085000Y-7085000D02*
X10115000Y-7115000D01*
X10115000Y-7085000D02*
X10085000Y-7115000D01*
X10085000Y-7185000D02*
X10115000Y-7215000D01*
X10115000Y-7185000D02*
X10085000Y-7215000D01*
X10085000Y-7285000D02*
X10115000Y-7315000D01*
X10115000Y-7285000D02*
X10085000Y-7315000D01*
X10085000Y-7385000D02*
X10115000Y-7415000D01*
X10115000Y-7385000D02*
X10085000Y-7415000D01*
X10085000Y-7485000D02*
X10115000Y-7515000D01*
X10115000Y-7485000D02*
X10085000Y-7515000D01*
X10085000Y-7585000D02*
X10115000Y-7615000D01*
X10115000Y-7585000D02*
X10085000Y-7615000D01*
X10085000Y-7685000D02*
X10115000Y-7715000D01*
X10115000Y-7685000D02*
X10085000Y-7715000D01*
X10085000Y-8885000D02*
X10115000Y-8915000D01*
X10115000Y-8885000D02*
X10085000Y-8915000D01*
X10085000Y-8985000D02*
X10115000Y-9015000D01*
X10115000Y-8985000D02*
X10085000Y-9015000D01*
X10085000Y-9085000D02*
X10115000Y-9115000D01*
X10115000Y-9085000D02*
X10085000Y-9115000D01*
X10085000Y-9185000D02*
X10115000Y-9215000D01*
X10115000Y-9185000D02*
X10085000Y-9215000D01*
X10085000Y-9285000D02*
X10115000Y-9315000D01*
X10115000Y-9285000D02*
X10085000Y-9315000D01*
X10085000Y-9385000D02*
X10115000Y-9415000D01*
X10115000Y-9385000D02*
X10085000Y-9415000D01*
X10085000Y-9485000D02*
X10115000Y-9515000D01*
X10115000Y-9485000D02*
X10085000Y-9515000D01*
X10085000Y-9585000D02*
X10115000Y-9615000D01*
X10115000Y-9585000D02*
X10085000Y-9615000D01*
X10085000Y-9685000D02*
X10115000Y-9715000D01*
X10115000Y-9685000D02*
X10085000Y-9715000D01*
X10085000Y-9785000D02*
X10115000Y-9815000D01*
X10115000Y-9785000D02*
X10085000Y-9815000D01*
X10085000Y-9885000D02*
X10115000Y-9915000D01*
X10115000Y-9885000D02*
X10085000Y-9915000D01*
X10085000Y-9985000D02*
X10115000Y-10015000D01*
X10115000Y-9985000D02*
X10085000Y-10015000D01*
X10085000Y-10085000D02*
X10115000Y-10115000D01*
X10115000Y-10085000D02*
X10085000Y-10115000D01*
X10185000Y-6485000D02*
X10215000Y-6515000D01*
X10215000Y-6485000D02*
X10185000Y-6515000D01*
X10185000Y-7685000D02*
X10215000Y-7715000D01*
X10215000Y-7685000D02*
X10185000Y-7715000D01*
X10185000Y-8885000D02*
X10215000Y-8915000D01*
X10215000Y-8885000D02*
X10185000Y-8915000D01*
X10185000Y-10085000D02*
X10215000Y-10115000D01*
X10215000Y-10085000D02*
X10185000Y-10115000D01*
X10285000Y-6485000D02*
X10315000Y-6515000D01*
X10315000Y-6485000D02*
X10285000Y-6515000D01*
X10285000Y-7685000D02*
X10315000Y-7715000D01*
X10315000Y-7685000D02*
X10285000Y-7715000D01*
X10285000Y-8885000D02*
X10315000Y-8915000D01*
X10315000Y-8885000D02*
X10285000Y-8915000D01*
X10285000Y-10085000D02*
X10315000Y-10115000D01*
X10315000Y-10085000D02*
X10285000Y-10115000D01*
X10385000Y-6485000D02*
X10415000Y-6515000D01*
X10415000Y-6485000D02*
X10385000Y-6515000D01*
X10385000Y-7685000D02*
X10415000Y-7715000D01*
X10415000Y-7685000D02*
X10385000Y-7715000D01*
X10385000Y-8885000D02*
X10415000Y-8915000D01*
X10415000Y-8885000D02*
X10385000Y-8915000D01*
X10385000Y-10085000D02*
X10415000Y-10115000D01*
X10415000Y-10085000D02*
X10385000Y-10115000D01*
X10485000Y-6485000D02*
X10515000Y-6515000D01*
X10515000Y-6485000D02*
X10485000Y-6515000D01*
X10485000Y-6585000D02*
X10515000Y-6615000D01*
X10515000Y-6585000D02*
X10485000Y-6615000D01*
X10485000Y-6685000D02*
X10515000Y-6715000D01*
X10515000Y-6685000D02*
X10485000Y-6715000D01*
X10985000Y-5185000D02*
X11015000Y-5215000D01*
X11015000Y-5185000D02*
X10985000Y-5215000D01*
X10985000Y-5285000D02*
X11015000Y-5315000D01*
X11015000Y-5285000D02*
X10985000Y-5315000D01*
X10985000Y-5385000D02*
X11015000Y-5415000D01*
X11015000Y-5385000D02*
X10985000Y-5415000D01*
X10985000Y-5485000D02*
X11015000Y-5515000D01*
X11015000Y-5485000D02*
X10985000Y-5515000D01*
X10985000Y-5585000D02*
X11015000Y-5615000D01*
X11015000Y-5585000D02*
X10985000Y-5615000D01*
X11085000Y-5185000D02*
X11115000Y-5215000D01*
X11115000Y-5185000D02*
X11085000Y-5215000D01*
X11085000Y-5585000D02*
X11115000Y-5615000D01*
X11115000Y-5585000D02*
X11085000Y-5615000D01*
X11185000Y-5185000D02*
X11215000Y-5215000D01*
X11215000Y-5185000D02*
X11185000Y-5215000D01*
X11185000Y-5585000D02*
X11215000Y-5615000D01*
X11215000Y-5585000D02*
X11185000Y-5615000D01*
X11285000Y-5185000D02*
X11315000Y-5215000D01*
X11315000Y-5185000D02*
X11285000Y-5215000D01*
X11285000Y-5585000D02*
X11315000Y-5615000D01*
X11315000Y-5585000D02*
X11285000Y-5615000D01*
X11385000Y-5185000D02*
X11415000Y-5215000D01*
X11415000Y-5185000D02*
X11385000Y-5215000D01*
X11385000Y-5585000D02*
X11415000Y-5615000D01*
X11415000Y-5585000D02*
X11385000Y-5615000D01*
X11485000Y-5185000D02*
X11515000Y-5215000D01*
X11515000Y-5185000D02*
X11485000Y-5215000D01*
X11485000Y-5585000D02*
X11515000Y-5615000D01*
X11515000Y-5585000D02*
X11485000Y-5615000D01*
X11585000Y-5185000D02*
X11615000Y-5215000D01*
X11615000Y-5185000D02*
X11585000Y-5215000D01*
X11585000Y-5585000D02*
X11615000Y-5615000D01*
X11615000Y-5585000D02*
X11585000Y-5615000D01*
X11685000Y-5185000D02*
X11715000Y-5215000D01*
X11715000Y-5185000D02*
X11685000Y-5215000D01*
X11685000Y-5585000D02*
X11715000Y-5615000D01*
X11715000Y-5585000D02*
X11685000Y-5615000D01*
X11785000Y-5785000D02*
X11815000Y-5815000D01*
X11815000Y-5785000D02*
X11785000Y-5815000D01*
X11785000Y-5885000D02*
X11815000Y-5915000D01*
X11815000Y-5885000D02*
X11785000Y-5915000D01*
X11785000Y-5985000D02*
X11815000Y-6015000D01*
X11815000Y-5985000D02*
X11785000Y-6015000D01*
X11785000Y-6085000D02*
X11815000Y-6115000D01*
X11815000Y-6085000D02*
X11785000Y-6115000D01*
X11785000Y-6185000D02*
X11815000Y-6215000D01*
X11815000Y-6185000D02*
X11785000Y-6215000D01*
X11785000Y-6285000D02*
X11815000Y-6315000D01*
X11815000Y-6285000D02*
X11785000Y-6315000D01*
X11785000Y-6385000D02*
X11815000Y-6415000D01*
X11815000Y-6385000D02*
X11785000Y-6415000D01*
X11785000Y-6485000D02*
X11815000Y-6515000D01*
X11815000Y-6485000D02*
X11785000Y-6515000D01*
X11785000Y-6585000D02*
X11815000Y-6615000D01*
X11815000Y-6585000D02*
X11785000Y-6615000D01*
X11785000Y-6685000D02*
X11815000Y-6715000D01*
X11815000Y-6685000D02*
X11785000Y-6715000D01*
X11785000Y-6785000D02*
X11815000Y-6815000D01*
X11815000Y-6785000D02*
X11785000Y-6815000D01*
X11785000Y-6885000D02*
X11815000Y-6915000D01*
X11815000Y-6885000D02*
X11785000Y-6915000D01*
X11785000Y-6985000D02*
X11815000Y-7015000D01*
X11815000Y-6985000D02*
X11785000Y-7015000D01*
X11785000Y-7085000D02*
X11815000Y-7115000D01*
X11815000Y-7085000D02*
X11785000Y-7115000D01*
X11785000Y-7185000D02*
X11815000Y-7215000D01*
X11815000Y-7185000D02*
X11785000Y-7215000D01*
X11785000Y-7285000D02*
X11815000Y-7315000D01*
X11815000Y-7285000D02*
X11785000Y-7315000D01*
X11785000Y-7385000D02*
X11815000Y-7415000D01*
X11815000Y-7385000D02*
X11785000Y-7415000D01*
X11785000Y-7485000D02*
X11815000Y-7515000D01*
X11815000Y-7485000D02*
X11785000Y-7515000D01*
X11785000Y-7585000D02*
X11815000Y-7615000D01*
X11815000Y-7585000D02*
X11785000Y-7615000D01*
X11785000Y-7685000D02*
X11815000Y-7715000D01*
X11815000Y-7685000D02*
X11785000Y-7715000D01*
X11785000Y-7785000D02*
X11815000Y-7815000D01*
X11815000Y-7785000D02*
X11785000Y-7815000D01*
X11785000Y-7885000D02*
X11815000Y-7915000D01*
X11815000Y-7885000D02*
X11785000Y-7915000D01*
X11785000Y-7985000D02*
X11815000Y-8015000D01*
X11815000Y-7985000D02*
X11785000Y-8015000D01*
X11785000Y-8085000D02*
X11815000Y-8115000D01*
X11815000Y-8085000D02*
X11785000Y-8115000D01*
X11785000Y-8185000D02*
X11815000Y-8215000D01*
X11815000Y-8185000D02*
X11785000Y-8215000D01*
X11785000Y-8285000D02*
X11815000Y-8315000D01*
X11815000Y-8285000D02*
X11785000Y-8315000D01*
X11785000Y-8385000D02*
X11815000Y-8415000D01*
X11815000Y-8385000D02*
X11785000Y-8415000D01*
X11785000Y-8485000D02*
X11815000Y-8515000D01*
X11815000Y-8485000D02*
X11785000Y-8515000D01*
X11785000Y-8585000D02*
X11815000Y-8615000D01*
X11815000Y-8585000D02*
X11785000Y-8615000D01*
X11785000Y-8685000D02*
X11815000Y-8715000D01*
X11815000Y-8685000D02*
X11785000Y-8715000D01*
X11785000Y-8785000D02*
X11815000Y-8815000D01*
X11815000Y-8785000D02*
X11785000Y-8815000D01*
X11785000Y-8885000D02*
X11815000Y-8915000D01*
X11815000Y-8885000D02*
X11785000Y-8915000D01*
X11785000Y-8985000D02*
X11815000Y-9015000D01*
X11815000Y-8985000D02*
X11785000Y-9015000D01*
X11785000Y-9085000D02*
X11815000Y-9115000D01*
X11815000Y-9085000D02*
X11785000Y-9115000D01*
X11785000Y-9185000D02*
X11815000Y-9215000D01*
X11815000Y-9185000D02*
X11785000Y-9215000D01*
X11785000Y-9285000D02*
X11815000Y-9315000D01*
X11815000Y-9285000D02*
X11785000Y-9315000D01*
X11785000Y-9385000D02*
X11815000Y-9415000D01*
X11815000Y-9385000D02*
X11785000Y-9415000D01*
X11785000Y-9485000D02*
X11815000Y-9515000D01*
X11815000Y-9485000D02*
X11785000Y-9515000D01*
X11785000Y-9585000D02*
X11815000Y-9615000D01*
X11815000Y-9585000D02*
X11785000Y-9615000D01*
X11785000Y-9685000D02*
X11815000Y-9715000D01*
X11815000Y-9685000D02*
X11785000Y-9715000D01*
X12910000Y-7035000D02*
X12940000Y-7065000D01*
X12940000Y-7035000D02*
X12910000Y-7065000D01*
X12910000Y-7135000D02*
X12940000Y-7165000D01*
X12940000Y-7135000D02*
X12910000Y-7165000D01*
X12910000Y-7235000D02*
X12940000Y-7265000D01*
X12940000Y-7235000D02*
X12910000Y-7265000D01*
X12910000Y-7335000D02*
X12940000Y-7365000D01*
X12940000Y-7335000D02*
X12910000Y-7365000D01*
X12910000Y-7435000D02*
X12940000Y-7465000D01*
X12940000Y-7435000D02*
X12910000Y-7465000D01*
X12910000Y-7535000D02*
X12940000Y-7565000D01*
X12940000Y-7535000D02*
X12910000Y-7565000D01*
X12910000Y-7635000D02*
X12940000Y-7665000D01*
X12940000Y-7635000D02*
X12910000Y-7665000D01*
X12910000Y-7735000D02*
X12940000Y-7765000D01*
X12940000Y-7735000D02*
X12910000Y-7765000D01*
X12910000Y-7835000D02*
X12940000Y-7865000D01*
X12940000Y-7835000D02*
X12910000Y-7865000D01*
X12910000Y-7935000D02*
X12940000Y-7965000D01*
X12940000Y-7935000D02*
X12910000Y-7965000D01*
X12910000Y-8035000D02*
X12940000Y-8065000D01*
X12940000Y-8035000D02*
X12910000Y-8065000D01*
X12910000Y-8135000D02*
X12940000Y-8165000D01*
X12940000Y-8135000D02*
X12910000Y-8165000D01*
X13010000Y-6035000D02*
X13040000Y-6065000D01*
X13040000Y-6035000D02*
X13010000Y-6065000D01*
X13010000Y-6135000D02*
X13040000Y-6165000D01*
X13040000Y-6135000D02*
X13010000Y-6165000D01*
X13010000Y-6235000D02*
X13040000Y-6265000D01*
X13040000Y-6235000D02*
X13010000Y-6265000D01*
X13010000Y-6335000D02*
X13040000Y-6365000D01*
X13040000Y-6335000D02*
X13010000Y-6365000D01*
X13010000Y-6435000D02*
X13040000Y-6465000D01*
X13040000Y-6435000D02*
X13010000Y-6465000D01*
X13010000Y-6535000D02*
X13040000Y-6565000D01*
X13040000Y-6535000D02*
X13010000Y-6565000D01*
X13010000Y-6635000D02*
X13040000Y-6665000D01*
X13040000Y-6635000D02*
X13010000Y-6665000D01*
X13010000Y-6735000D02*
X13040000Y-6765000D01*
X13040000Y-6735000D02*
X13010000Y-6765000D01*
X13185000Y-5185000D02*
X13215000Y-5215000D01*
X13215000Y-5185000D02*
X13185000Y-5215000D01*
X13185000Y-5285000D02*
X13215000Y-5315000D01*
X13215000Y-5285000D02*
X13185000Y-5315000D01*
X13185000Y-5385000D02*
X13215000Y-5415000D01*
X13215000Y-5385000D02*
X13185000Y-5415000D01*
X13185000Y-5485000D02*
X13215000Y-5515000D01*
X13215000Y-5485000D02*
X13185000Y-5515000D01*
X13185000Y-5585000D02*
X13215000Y-5615000D01*
X13215000Y-5585000D02*
X13185000Y-5615000D01*
X13285000Y-5185000D02*
X13315000Y-5215000D01*
X13315000Y-5185000D02*
X13285000Y-5215000D01*
X13285000Y-5585000D02*
X13315000Y-5615000D01*
X13315000Y-5585000D02*
X13285000Y-5615000D01*
X13385000Y-5185000D02*
X13415000Y-5215000D01*
X13415000Y-5185000D02*
X13385000Y-5215000D01*
X13385000Y-5585000D02*
X13415000Y-5615000D01*
X13415000Y-5585000D02*
X13385000Y-5615000D01*
X13485000Y-5185000D02*
X13515000Y-5215000D01*
X13515000Y-5185000D02*
X13485000Y-5215000D01*
X13485000Y-5585000D02*
X13515000Y-5615000D01*
X13515000Y-5585000D02*
X13485000Y-5615000D01*
X13585000Y-5185000D02*
X13615000Y-5215000D01*
X13615000Y-5185000D02*
X13585000Y-5215000D01*
X13685000Y-5185000D02*
X13715000Y-5215000D01*
X13715000Y-5185000D02*
X13685000Y-5215000D01*
X13735000Y-6385000D02*
X13765000Y-6415000D01*
X13765000Y-6385000D02*
X13735000Y-6415000D01*
X13735000Y-6485000D02*
X13765000Y-6515000D01*
X13765000Y-6485000D02*
X13735000Y-6515000D01*
X13735000Y-6585000D02*
X13765000Y-6615000D01*
X13765000Y-6585000D02*
X13735000Y-6615000D01*
X13735000Y-6685000D02*
X13765000Y-6715000D01*
X13765000Y-6685000D02*
X13735000Y-6715000D01*
X13735000Y-6785000D02*
X13765000Y-6815000D01*
X13765000Y-6785000D02*
X13735000Y-6815000D01*
X13735000Y-6885000D02*
X13765000Y-6915000D01*
X13765000Y-6885000D02*
X13735000Y-6915000D01*
X13735000Y-6985000D02*
X13765000Y-7015000D01*
X13765000Y-6985000D02*
X13735000Y-7015000D01*
X13735000Y-7085000D02*
X13765000Y-7115000D01*
X13765000Y-7085000D02*
X13735000Y-7115000D01*
X13735000Y-7185000D02*
X13765000Y-7215000D01*
X13765000Y-7185000D02*
X13735000Y-7215000D01*
X13735000Y-7285000D02*
X13765000Y-7315000D01*
X13765000Y-7285000D02*
X13735000Y-7315000D01*
X13735000Y-7385000D02*
X13765000Y-7415000D01*
X13765000Y-7385000D02*
X13735000Y-7415000D01*
X13735000Y-7485000D02*
X13765000Y-7515000D01*
X13765000Y-7485000D02*
X13735000Y-7515000D01*
X13735000Y-7585000D02*
X13765000Y-7615000D01*
X13765000Y-7585000D02*
X13735000Y-7615000D01*
X13735000Y-7685000D02*
X13765000Y-7715000D01*
X13765000Y-7685000D02*
X13735000Y-7715000D01*
X13735000Y-7785000D02*
X13765000Y-7815000D01*
X13765000Y-7785000D02*
X13735000Y-7815000D01*
X13735000Y-7885000D02*
X13765000Y-7915000D01*
X13765000Y-7885000D02*
X13735000Y-7915000D01*
X13735000Y-7985000D02*
X13765000Y-8015000D01*
X13765000Y-7985000D02*
X13735000Y-8015000D01*
X13735000Y-8085000D02*
X13765000Y-8115000D01*
X13765000Y-8085000D02*
X13735000Y-8115000D01*
X13735000Y-8185000D02*
X13765000Y-8215000D01*
X13765000Y-8185000D02*
X13735000Y-8215000D01*
X13735000Y-8285000D02*
X13765000Y-8315000D01*
X13765000Y-8285000D02*
X13735000Y-8315000D01*
X13735000Y-10135000D02*
X13765000Y-10165000D01*
X13765000Y-10135000D02*
X13735000Y-10165000D01*
X13735000Y-10235000D02*
X13765000Y-10265000D01*
X13765000Y-10235000D02*
X13735000Y-10265000D01*
X13735000Y-10335000D02*
X13765000Y-10365000D01*
X13765000Y-10335000D02*
X13735000Y-10365000D01*
X13735000Y-10435000D02*
X13765000Y-10465000D01*
X13765000Y-10435000D02*
X13735000Y-10465000D01*
X13735000Y-10535000D02*
X13765000Y-10565000D01*
X13765000Y-10535000D02*
X13735000Y-10565000D01*
X13735000Y-10635000D02*
X13765000Y-10665000D01*
X13765000Y-10635000D02*
X13735000Y-10665000D01*
X13735000Y-10735000D02*
X13765000Y-10765000D01*
X13765000Y-10735000D02*
X13735000Y-10765000D01*
X13785000Y-5185000D02*
X13815000Y-5215000D01*
X13815000Y-5185000D02*
X13785000Y-5215000D01*
X13785000Y-5585000D02*
X13815000Y-5615000D01*
X13815000Y-5585000D02*
X13785000Y-5615000D01*
X13885000Y-5185000D02*
X13915000Y-5215000D01*
X13915000Y-5185000D02*
X13885000Y-5215000D01*
X13885000Y-5285000D02*
X13915000Y-5315000D01*
X13915000Y-5285000D02*
X13885000Y-5315000D01*
X13885000Y-5385000D02*
X13915000Y-5415000D01*
X13915000Y-5385000D02*
X13885000Y-5415000D01*
X13885000Y-5485000D02*
X13915000Y-5515000D01*
X13915000Y-5485000D02*
X13885000Y-5515000D01*
X13885000Y-5585000D02*
X13915000Y-5615000D01*
X13915000Y-5585000D02*
X13885000Y-5615000D01*
X14485000Y-6485000D02*
X14515000Y-6515000D01*
X14515000Y-6485000D02*
X14485000Y-6515000D01*
X14485000Y-6585000D02*
X14515000Y-6615000D01*
X14515000Y-6585000D02*
X14485000Y-6615000D01*
X14485000Y-7485000D02*
X14515000Y-7515000D01*
X14515000Y-7485000D02*
X14485000Y-7515000D01*
X14485000Y-7585000D02*
X14515000Y-7615000D01*
X14515000Y-7585000D02*
X14485000Y-7615000D01*
X14485000Y-7685000D02*
X14515000Y-7715000D01*
X14515000Y-7685000D02*
X14485000Y-7715000D01*
X14485000Y-9885000D02*
X14515000Y-9915000D01*
X14515000Y-9885000D02*
X14485000Y-9915000D01*
X14485000Y-9985000D02*
X14515000Y-10015000D01*
X14515000Y-9985000D02*
X14485000Y-10015000D01*
X14485000Y-10085000D02*
X14515000Y-10115000D01*
X14515000Y-10085000D02*
X14485000Y-10115000D01*
X14585000Y-6485000D02*
X14615000Y-6515000D01*
X14615000Y-6485000D02*
X14585000Y-6515000D01*
X14585000Y-7685000D02*
X14615000Y-7715000D01*
X14615000Y-7685000D02*
X14585000Y-7715000D01*
X14585000Y-8885000D02*
X14615000Y-8915000D01*
X14615000Y-8885000D02*
X14585000Y-8915000D01*
X14585000Y-10085000D02*
X14615000Y-10115000D01*
X14615000Y-10085000D02*
X14585000Y-10115000D01*
X14685000Y-6485000D02*
X14715000Y-6515000D01*
X14715000Y-6485000D02*
X14685000Y-6515000D01*
X14685000Y-7685000D02*
X14715000Y-7715000D01*
X14715000Y-7685000D02*
X14685000Y-7715000D01*
X14685000Y-8885000D02*
X14715000Y-8915000D01*
X14715000Y-8885000D02*
X14685000Y-8915000D01*
X14685000Y-10085000D02*
X14715000Y-10115000D01*
X14715000Y-10085000D02*
X14685000Y-10115000D01*
X14785000Y-6485000D02*
X14815000Y-6515000D01*
X14815000Y-6485000D02*
X14785000Y-6515000D01*
X14785000Y-7685000D02*
X14815000Y-7715000D01*
X14815000Y-7685000D02*
X14785000Y-7715000D01*
X14785000Y-8885000D02*
X14815000Y-8915000D01*
X14815000Y-8885000D02*
X14785000Y-8915000D01*
X14785000Y-10085000D02*
X14815000Y-10115000D01*
X14815000Y-10085000D02*
X14785000Y-10115000D01*
X14885000Y-6485000D02*
X14915000Y-6515000D01*
X14915000Y-6485000D02*
X14885000Y-6515000D01*
X14885000Y-6585000D02*
X14915000Y-6615000D01*
X14915000Y-6585000D02*
X14885000Y-6615000D01*
X14885000Y-6685000D02*
X14915000Y-6715000D01*
X14915000Y-6685000D02*
X14885000Y-6715000D01*
X14885000Y-6785000D02*
X14915000Y-6815000D01*
X14915000Y-6785000D02*
X14885000Y-6815000D01*
X14885000Y-6885000D02*
X14915000Y-6915000D01*
X14915000Y-6885000D02*
X14885000Y-6915000D01*
X14885000Y-6985000D02*
X14915000Y-7015000D01*
X14915000Y-6985000D02*
X14885000Y-7015000D01*
X14885000Y-7085000D02*
X14915000Y-7115000D01*
X14915000Y-7085000D02*
X14885000Y-7115000D01*
X14885000Y-7185000D02*
X14915000Y-7215000D01*
X14915000Y-7185000D02*
X14885000Y-7215000D01*
X14885000Y-7285000D02*
X14915000Y-7315000D01*
X14915000Y-7285000D02*
X14885000Y-7315000D01*
X14885000Y-7385000D02*
X14915000Y-7415000D01*
X14915000Y-7385000D02*
X14885000Y-7415000D01*
X14885000Y-7485000D02*
X14915000Y-7515000D01*
X14915000Y-7485000D02*
X14885000Y-7515000D01*
X14885000Y-7585000D02*
X14915000Y-7615000D01*
X14915000Y-7585000D02*
X14885000Y-7615000D01*
X14885000Y-7685000D02*
X14915000Y-7715000D01*
X14915000Y-7685000D02*
X14885000Y-7715000D01*
X14885000Y-8885000D02*
X14915000Y-8915000D01*
X14915000Y-8885000D02*
X14885000Y-8915000D01*
X14885000Y-8985000D02*
X14915000Y-9015000D01*
X14915000Y-8985000D02*
X14885000Y-9015000D01*
X14885000Y-9085000D02*
X14915000Y-9115000D01*
X14915000Y-9085000D02*
X14885000Y-9115000D01*
X14885000Y-9185000D02*
X14915000Y-9215000D01*
X14915000Y-9185000D02*
X14885000Y-9215000D01*
X14885000Y-9285000D02*
X14915000Y-9315000D01*
X14915000Y-9285000D02*
X14885000Y-9315000D01*
X14885000Y-9385000D02*
X14915000Y-9415000D01*
X14915000Y-9385000D02*
X14885000Y-9415000D01*
X14885000Y-9485000D02*
X14915000Y-9515000D01*
X14915000Y-9485000D02*
X14885000Y-9515000D01*
X14885000Y-9585000D02*
X14915000Y-9615000D01*
X14915000Y-9585000D02*
X14885000Y-9615000D01*
X14885000Y-9685000D02*
X14915000Y-9715000D01*
X14915000Y-9685000D02*
X14885000Y-9715000D01*
X14885000Y-9785000D02*
X14915000Y-9815000D01*
X14915000Y-9785000D02*
X14885000Y-9815000D01*
X14885000Y-9885000D02*
X14915000Y-9915000D01*
X14915000Y-9885000D02*
X14885000Y-9915000D01*
X14885000Y-9985000D02*
X14915000Y-10015000D01*
X14915000Y-9985000D02*
X14885000Y-10015000D01*
X14885000Y-10085000D02*
X14915000Y-10115000D01*
X14915000Y-10085000D02*
X14885000Y-10115000D01*
D13*
X10007500Y-5600000D02*
G75*
G03*
X10007500Y-5600000I-30000J0D01*
G01*
X10101958Y-5371958D02*
G75*
G03*
X10101958Y-5371958I-30000J0D01*
G01*
X10101958Y-5828042D02*
G75*
G03*
X10101958Y-5828042I-30000J0D01*
G01*
X10330000Y-5277500D02*
G75*
G03*
X10330000Y-5277500I-30000J0D01*
G01*
X10330000Y-5922500D02*
G75*
G03*
X10330000Y-5922500I-30000J0D01*
G01*
X10558042Y-5371958D02*
G75*
G03*
X10558042Y-5371958I-30000J0D01*
G01*
X10558042Y-5828042D02*
G75*
G03*
X10558042Y-5828042I-30000J0D01*
G01*
X10652500Y-5600000D02*
G75*
G03*
X10652500Y-5600000I-30000J0D01*
G01*
X12107500Y-9700000D02*
G75*
G03*
X12107500Y-9700000I-30000J0D01*
G01*
X12201958Y-9471958D02*
G75*
G03*
X12201958Y-9471958I-30000J0D01*
G01*
X12201958Y-9928042D02*
G75*
G03*
X12201958Y-9928042I-30000J0D01*
G01*
X12430000Y-9377500D02*
G75*
G03*
X12430000Y-9377500I-30000J0D01*
G01*
X12430000Y-10022500D02*
G75*
G03*
X12430000Y-10022500I-30000J0D01*
G01*
X12658042Y-9471958D02*
G75*
G03*
X12658042Y-9471958I-30000J0D01*
G01*
X12658042Y-9928042D02*
G75*
G03*
X12658042Y-9928042I-30000J0D01*
G01*
X12752500Y-9700000D02*
G75*
G03*
X12752500Y-9700000I-30000J0D01*
G01*
X14407500Y-5600000D02*
G75*
G03*
X14407500Y-5600000I-30000J0D01*
G01*
X14501958Y-5371958D02*
G75*
G03*
X14501958Y-5371958I-30000J0D01*
G01*
X14501958Y-5828042D02*
G75*
G03*
X14501958Y-5828042I-30000J0D01*
G01*
X14730000Y-5277500D02*
G75*
G03*
X14730000Y-5277500I-30000J0D01*
G01*
X14730000Y-5922500D02*
G75*
G03*
X14730000Y-5922500I-30000J0D01*
G01*
X14958042Y-5371958D02*
G75*
G03*
X14958042Y-5371958I-30000J0D01*
G01*
X14958042Y-5828042D02*
G75*
G03*
X14958042Y-5828042I-30000J0D01*
G01*
X15052500Y-5600000D02*
G75*
G03*
X15052500Y-5600000I-30000J0D01*
G01*
D10*
X10200000Y-12000000D02*
X10200000Y-12100000D01*
X10150000Y-12050000D02*
X10250000Y-12050000D01*
X10300000Y-6668000D02*
X10300000Y-6768000D01*
X10250000Y-6718000D02*
X10350000Y-6718000D01*
X10300000Y-6922000D02*
X10300000Y-7022000D01*
X10250000Y-6972000D02*
X10350000Y-6972000D01*
X10300000Y-7176000D02*
X10300000Y-7276000D01*
X10250000Y-7226000D02*
X10350000Y-7226000D01*
X10300000Y-7430000D02*
X10300000Y-7530000D01*
X10250000Y-7480000D02*
X10350000Y-7480000D01*
X10300000Y-9050000D02*
X10300000Y-9150000D01*
X10250000Y-9100000D02*
X10350000Y-9100000D01*
X10300000Y-9304000D02*
X10300000Y-9404000D01*
X10250000Y-9354000D02*
X10350000Y-9354000D01*
X10300000Y-9558000D02*
X10300000Y-9658000D01*
X10250000Y-9608000D02*
X10350000Y-9608000D01*
X10300000Y-9812000D02*
X10300000Y-9912000D01*
X10250000Y-9862000D02*
X10350000Y-9862000D01*
X10454000Y-12000000D02*
X10454000Y-12100000D01*
X10404000Y-12050000D02*
X10504000Y-12050000D01*
X11246000Y-5350000D02*
X11246000Y-5450000D01*
X11196000Y-5400000D02*
X11296000Y-5400000D01*
X11500000Y-5350000D02*
X11500000Y-5450000D01*
X11450000Y-5400000D02*
X11550000Y-5400000D01*
X11967500Y-11347500D02*
X11967500Y-11447500D01*
X11917500Y-11397500D02*
X12017500Y-11397500D01*
X12221500Y-11347500D02*
X12221500Y-11447500D01*
X12171500Y-11397500D02*
X12271500Y-11397500D01*
X12475500Y-11347500D02*
X12475500Y-11447500D01*
X12425500Y-11397500D02*
X12525500Y-11397500D01*
X12729500Y-11347500D02*
X12729500Y-11447500D01*
X12679500Y-11397500D02*
X12779500Y-11397500D01*
X12983500Y-11347500D02*
X12983500Y-11447500D01*
X12933500Y-11397500D02*
X13033500Y-11397500D01*
X13237500Y-11347500D02*
X13237500Y-11447500D01*
X13187500Y-11397500D02*
X13287500Y-11397500D01*
X13446000Y-5350000D02*
X13446000Y-5450000D01*
X13396000Y-5400000D02*
X13496000Y-5400000D01*
X13700000Y-5350000D02*
X13700000Y-5450000D01*
X13650000Y-5400000D02*
X13750000Y-5400000D01*
X14200000Y-11250000D02*
X14200000Y-11350000D01*
X14150000Y-11300000D02*
X14250000Y-11300000D01*
X14700000Y-6670000D02*
X14700000Y-6770000D01*
X14650000Y-6720000D02*
X14750000Y-6720000D01*
X14700000Y-6924000D02*
X14700000Y-7024000D01*
X14650000Y-6974000D02*
X14750000Y-6974000D01*
X14700000Y-7178000D02*
X14700000Y-7278000D01*
X14650000Y-7228000D02*
X14750000Y-7228000D01*
X14700000Y-7432000D02*
X14700000Y-7532000D01*
X14650000Y-7482000D02*
X14750000Y-7482000D01*
X14700000Y-9050000D02*
X14700000Y-9150000D01*
X14650000Y-9100000D02*
X14750000Y-9100000D01*
X14700000Y-9304000D02*
X14700000Y-9404000D01*
X14650000Y-9354000D02*
X14750000Y-9354000D01*
X14700000Y-9558000D02*
X14700000Y-9658000D01*
X14650000Y-9608000D02*
X14750000Y-9608000D01*
X14700000Y-9812000D02*
X14700000Y-9912000D01*
X14650000Y-9862000D02*
X14750000Y-9862000D01*
X14700000Y-11250000D02*
X14700000Y-11350000D01*
X14650000Y-11300000D02*
X14750000Y-11300000D01*
D14*
X11610563Y-5921563D02*
X11610563Y-5849437D01*
X11538437Y-5849437D01*
X11538437Y-5921563D01*
X11610563Y-5921563D01*
X11610563Y-6175563D02*
X11610563Y-6103437D01*
X11538437Y-6103437D01*
X11538437Y-6175563D01*
X11610563Y-6175563D01*
X11610563Y-6429563D02*
X11610563Y-6357437D01*
X11538437Y-6357437D01*
X11538437Y-6429563D01*
X11610563Y-6429563D01*
X11610563Y-6683563D02*
X11610563Y-6611437D01*
X11538437Y-6611437D01*
X11538437Y-6683563D01*
X11610563Y-6683563D01*
X11610563Y-6937563D02*
X11610563Y-6865437D01*
X11538437Y-6865437D01*
X11538437Y-6937563D01*
X11610563Y-6937563D01*
X11610563Y-7191563D02*
X11610563Y-7119437D01*
X11538437Y-7119437D01*
X11538437Y-7191563D01*
X11610563Y-7191563D01*
X11610563Y-7445563D02*
X11610563Y-7373437D01*
X11538437Y-7373437D01*
X11538437Y-7445563D01*
X11610563Y-7445563D01*
X11610563Y-7699563D02*
X11610563Y-7627437D01*
X11538437Y-7627437D01*
X11538437Y-7699563D01*
X11610563Y-7699563D01*
X11610563Y-7953563D02*
X11610563Y-7881437D01*
X11538437Y-7881437D01*
X11538437Y-7953563D01*
X11610563Y-7953563D01*
X11610563Y-8207563D02*
X11610563Y-8135437D01*
X11538437Y-8135437D01*
X11538437Y-8207563D01*
X11610563Y-8207563D01*
X11610563Y-8461563D02*
X11610563Y-8389437D01*
X11538437Y-8389437D01*
X11538437Y-8461563D01*
X11610563Y-8461563D01*
X11610563Y-8715563D02*
X11610563Y-8643437D01*
X11538437Y-8643437D01*
X11538437Y-8715563D01*
X11610563Y-8715563D01*
X11610563Y-8969563D02*
X11610563Y-8897437D01*
X11538437Y-8897437D01*
X11538437Y-8969563D01*
X11610563Y-8969563D01*
X11610563Y-9223563D02*
X11610563Y-9151437D01*
X11538437Y-9151437D01*
X11538437Y-9223563D01*
X11610563Y-9223563D01*
X11610563Y-9477563D02*
X11610563Y-9405437D01*
X11538437Y-9405437D01*
X11538437Y-9477563D01*
X11610563Y-9477563D01*
X11610563Y-9731563D02*
X11610563Y-9659437D01*
X11538437Y-9659437D01*
X11538437Y-9731563D01*
X11610563Y-9731563D01*
X11610563Y-9985563D02*
X11610563Y-9913437D01*
X11538437Y-9913437D01*
X11538437Y-9985563D01*
X11610563Y-9985563D01*
X11610563Y-10239563D02*
X11610563Y-10167437D01*
X11538437Y-10167437D01*
X11538437Y-10239563D01*
X11610563Y-10239563D01*
X11610563Y-10493563D02*
X11610563Y-10421437D01*
X11538437Y-10421437D01*
X11538437Y-10493563D01*
X11610563Y-10493563D01*
X11610563Y-10747563D02*
X11610563Y-10675437D01*
X11538437Y-10675437D01*
X11538437Y-10747563D01*
X11610563Y-10747563D01*
X13388563Y-5921563D02*
X13388563Y-5849437D01*
X13316437Y-5849437D01*
X13316437Y-5921563D01*
X13388563Y-5921563D01*
X13388563Y-6175563D02*
X13388563Y-6103437D01*
X13316437Y-6103437D01*
X13316437Y-6175563D01*
X13388563Y-6175563D01*
X13388563Y-6429563D02*
X13388563Y-6357437D01*
X13316437Y-6357437D01*
X13316437Y-6429563D01*
X13388563Y-6429563D01*
X13388563Y-6683563D02*
X13388563Y-6611437D01*
X13316437Y-6611437D01*
X13316437Y-6683563D01*
X13388563Y-6683563D01*
X13388563Y-6937563D02*
X13388563Y-6865437D01*
X13316437Y-6865437D01*
X13316437Y-6937563D01*
X13388563Y-6937563D01*
X13388563Y-7191563D02*
X13388563Y-7119437D01*
X13316437Y-7119437D01*
X13316437Y-7191563D01*
X13388563Y-7191563D01*
X13388563Y-7445563D02*
X13388563Y-7373437D01*
X13316437Y-7373437D01*
X13316437Y-7445563D01*
X13388563Y-7445563D01*
X13388563Y-7699563D02*
X13388563Y-7627437D01*
X13316437Y-7627437D01*
X13316437Y-7699563D01*
X13388563Y-7699563D01*
X13388563Y-7953563D02*
X13388563Y-7881437D01*
X13316437Y-7881437D01*
X13316437Y-7953563D01*
X13388563Y-7953563D01*
X13388563Y-8207563D02*
X13388563Y-8135437D01*
X13316437Y-8135437D01*
X13316437Y-8207563D01*
X13388563Y-8207563D01*
X13388563Y-8461563D02*
X13388563Y-8389437D01*
X13316437Y-8389437D01*
X13316437Y-8461563D01*
X13388563Y-8461563D01*
X13388563Y-8715563D02*
X13388563Y-8643437D01*
X13316437Y-8643437D01*
X13316437Y-8715563D01*
X13388563Y-8715563D01*
X13388563Y-8969563D02*
X13388563Y-8897437D01*
X13316437Y-8897437D01*
X13316437Y-8969563D01*
X13388563Y-8969563D01*
X13388563Y-9223563D02*
X13388563Y-9151437D01*
X13316437Y-9151437D01*
X13316437Y-9223563D01*
X13388563Y-9223563D01*
X13388563Y-9477563D02*
X13388563Y-9405437D01*
X13316437Y-9405437D01*
X13316437Y-9477563D01*
X13388563Y-9477563D01*
X13388563Y-9731563D02*
X13388563Y-9659437D01*
X13316437Y-9659437D01*
X13316437Y-9731563D01*
X13388563Y-9731563D01*
X13388563Y-9985563D02*
X13388563Y-9913437D01*
X13316437Y-9913437D01*
X13316437Y-9985563D01*
X13388563Y-9985563D01*
X13388563Y-10239563D02*
X13388563Y-10167437D01*
X13316437Y-10167437D01*
X13316437Y-10239563D01*
X13388563Y-10239563D01*
X13388563Y-10493563D02*
X13388563Y-10421437D01*
X13316437Y-10421437D01*
X13316437Y-10493563D01*
X13388563Y-10493563D01*
X13388563Y-10747563D02*
X13388563Y-10675437D01*
X13316437Y-10675437D01*
X13316437Y-10747563D01*
X13388563Y-10747563D01*
D15*
X12200000Y-8655000D02*
X12255000Y-8600000D01*
X12200000Y-8545000D01*
X12145000Y-8600000D01*
X12200000Y-8655000D01*
X12454000Y-8655000D02*
X12509000Y-8600000D01*
X12454000Y-8545000D01*
X12399000Y-8600000D01*
X12454000Y-8655000D01*
X12708000Y-8655000D02*
X12763000Y-8600000D01*
X12708000Y-8545000D01*
X12653000Y-8600000D01*
X12708000Y-8655000D01*
X13100000Y-12201000D02*
X13155000Y-12146000D01*
X13100000Y-12091000D01*
X13045000Y-12146000D01*
X13100000Y-12201000D01*
X13100000Y-12709000D02*
X13155000Y-12654000D01*
X13100000Y-12599000D01*
X13045000Y-12654000D01*
X13100000Y-12709000D01*
D16*
X11985700Y-12085700D02*
X12214300Y-12314300D01*
X12214300Y-12085700D02*
X11985700Y-12314300D01*
X12214300Y-12200000D02*
G75*
G03*
X12214300Y-12200000I-114300J0D01*
G01*
X11985700Y-12555600D02*
X12214300Y-12784200D01*
X12214300Y-12555600D02*
X11985700Y-12784200D01*
X12214300Y-12669900D02*
G75*
G03*
X12214300Y-12669900I-114300J0D01*
G01*
X11985700Y-13025500D02*
X12214300Y-13254100D01*
X12214300Y-13025500D02*
X11985700Y-13254100D01*
X12214300Y-13139800D02*
G75*
G03*
X12214300Y-13139800I-114300J0D01*
G01*
D17*
X10085000Y-5385000D02*
X10515000Y-5815000D01*
X10515000Y-5385000D02*
X10085000Y-5815000D01*
X10300000Y-5385000D02*
X10300000Y-5815000D01*
X10085000Y-5600000D02*
X10515000Y-5600000D01*
X12185000Y-9485000D02*
X12615000Y-9915000D01*
X12615000Y-9485000D02*
X12185000Y-9915000D01*
X12400000Y-9485000D02*
X12400000Y-9915000D01*
X12185000Y-9700000D02*
X12615000Y-9700000D01*
X14485000Y-5385000D02*
X14915000Y-5815000D01*
X14915000Y-5385000D02*
X14485000Y-5815000D01*
X14700000Y-5385000D02*
X14700000Y-5815000D01*
X14485000Y-5600000D02*
X14915000Y-5600000D01*
D18*
X10165000Y-12775000D02*
X10615000Y-13225000D01*
X10615000Y-12775000D02*
X10165000Y-13225000D01*
X10549101Y-13159101D02*
X10549101Y-12840899D01*
X10230899Y-12840899D01*
X10230899Y-13159101D01*
X10549101Y-13159101D01*
X10885000Y-12775000D02*
X11335000Y-13225000D01*
X11335000Y-12775000D02*
X10885000Y-13225000D01*
X11269101Y-13159101D02*
X11269101Y-12840899D01*
X10950899Y-12840899D01*
X10950899Y-13159101D01*
X11269101Y-13159101D01*
D19*
X10450000Y-11050000D02*
X10950000Y-11550000D01*
X10950000Y-11050000D02*
X10450000Y-11550000D01*
X10700000Y-11550000D02*
X10950000Y-11300000D01*
X10700000Y-11050000D01*
X10450000Y-11300000D01*
X10700000Y-11550000D01*
X12150000Y-7150000D02*
X12650000Y-7650000D01*
X12650000Y-7150000D02*
X12150000Y-7650000D01*
X12400000Y-7650000D02*
X12650000Y-7400000D01*
X12400000Y-7150000D01*
X12150000Y-7400000D01*
X12400000Y-7650000D01*
D11*
X10052619Y-14015476D02*
X10052619Y-13815476D01*
X10100238Y-13815476D01*
X10128810Y-13825000D01*
X10147857Y-13844048D01*
X10157381Y-13863095D01*
X10166905Y-13901190D01*
X10166905Y-13929762D01*
X10157381Y-13967857D01*
X10147857Y-13986905D01*
X10128810Y-14005952D01*
X10100238Y-14015476D01*
X10052619Y-14015476D01*
X10252619Y-14015476D02*
X10252619Y-13882143D01*
X10252619Y-13920238D02*
X10262143Y-13901190D01*
X10271667Y-13891667D01*
X10290714Y-13882143D01*
X10309762Y-13882143D01*
X10376429Y-14015476D02*
X10376429Y-13882143D01*
X10376429Y-13815476D02*
X10366905Y-13825000D01*
X10376429Y-13834524D01*
X10385952Y-13825000D01*
X10376429Y-13815476D01*
X10376429Y-13834524D01*
X10500238Y-14015476D02*
X10481190Y-14005952D01*
X10471667Y-13986905D01*
X10471667Y-13815476D01*
X10605000Y-14015476D02*
X10585952Y-14005952D01*
X10576429Y-13986905D01*
X10576429Y-13815476D01*
X10833571Y-14015476D02*
X10833571Y-13815476D01*
X10900238Y-13958333D01*
X10966905Y-13815476D01*
X10966905Y-14015476D01*
X11147857Y-14015476D02*
X11147857Y-13910714D01*
X11138333Y-13891667D01*
X11119286Y-13882143D01*
X11081190Y-13882143D01*
X11062143Y-13891667D01*
X11147857Y-14005952D02*
X11128810Y-14015476D01*
X11081190Y-14015476D01*
X11062143Y-14005952D01*
X11052619Y-13986905D01*
X11052619Y-13967857D01*
X11062143Y-13948809D01*
X11081190Y-13939286D01*
X11128810Y-13939286D01*
X11147857Y-13929762D01*
X11243095Y-13882143D02*
X11243095Y-14082143D01*
X11243095Y-13891667D02*
X11262143Y-13882143D01*
X11300238Y-13882143D01*
X11319286Y-13891667D01*
X11328809Y-13901190D01*
X11338333Y-13920238D01*
X11338333Y-13977381D01*
X11328809Y-13996428D01*
X11319286Y-14005952D01*
X11300238Y-14015476D01*
X11262143Y-14015476D01*
X11243095Y-14005952D01*
X11424048Y-13996428D02*
X11433571Y-14005952D01*
X11424048Y-14015476D01*
X11414524Y-14005952D01*
X11424048Y-13996428D01*
X11424048Y-14015476D01*
X11424048Y-13891667D02*
X11433571Y-13901190D01*
X11424048Y-13910714D01*
X11414524Y-13901190D01*
X11424048Y-13891667D01*
X11424048Y-13910714D01*
D12*
X9765000Y-14330000D02*
X9795000Y-14360000D01*
X9795000Y-14330000D02*
X9765000Y-14360000D01*
D11*
X10090714Y-14235476D02*
X10109762Y-14235476D01*
X10128810Y-14245000D01*
X10138333Y-14254524D01*
X10147857Y-14273571D01*
X10157381Y-14311667D01*
X10157381Y-14359286D01*
X10147857Y-14397381D01*
X10138333Y-14416428D01*
X10128810Y-14425952D01*
X10109762Y-14435476D01*
X10090714Y-14435476D01*
X10071667Y-14425952D01*
X10062143Y-14416428D01*
X10052619Y-14397381D01*
X10043095Y-14359286D01*
X10043095Y-14311667D01*
X10052619Y-14273571D01*
X10062143Y-14254524D01*
X10071667Y-14245000D01*
X10090714Y-14235476D01*
X10243095Y-14416428D02*
X10252619Y-14425952D01*
X10243095Y-14435476D01*
X10233571Y-14425952D01*
X10243095Y-14416428D01*
X10243095Y-14435476D01*
X10319286Y-14235476D02*
X10443095Y-14235476D01*
X10376429Y-14311667D01*
X10405000Y-14311667D01*
X10424048Y-14321190D01*
X10433571Y-14330714D01*
X10443095Y-14349762D01*
X10443095Y-14397381D01*
X10433571Y-14416428D01*
X10424048Y-14425952D01*
X10405000Y-14435476D01*
X10347857Y-14435476D01*
X10328810Y-14425952D01*
X10319286Y-14416428D01*
X10566905Y-14235476D02*
X10585952Y-14235476D01*
X10605000Y-14245000D01*
X10614524Y-14254524D01*
X10624048Y-14273571D01*
X10633571Y-14311667D01*
X10633571Y-14359286D01*
X10624048Y-14397381D01*
X10614524Y-14416428D01*
X10605000Y-14425952D01*
X10585952Y-14435476D01*
X10566905Y-14435476D01*
X10547857Y-14425952D01*
X10538333Y-14416428D01*
X10528810Y-14397381D01*
X10519286Y-14359286D01*
X10519286Y-14311667D01*
X10528810Y-14273571D01*
X10538333Y-14254524D01*
X10547857Y-14245000D01*
X10566905Y-14235476D01*
X10757381Y-14235476D02*
X10776429Y-14235476D01*
X10795476Y-14245000D01*
X10805000Y-14254524D01*
X10814524Y-14273571D01*
X10824048Y-14311667D01*
X10824048Y-14359286D01*
X10814524Y-14397381D01*
X10805000Y-14416428D01*
X10795476Y-14425952D01*
X10776429Y-14435476D01*
X10757381Y-14435476D01*
X10738333Y-14425952D01*
X10728810Y-14416428D01*
X10719286Y-14397381D01*
X10709762Y-14359286D01*
X10709762Y-14311667D01*
X10719286Y-14273571D01*
X10728810Y-14254524D01*
X10738333Y-14245000D01*
X10757381Y-14235476D01*
X10909762Y-14435476D02*
X10909762Y-14302143D01*
X10909762Y-14321190D02*
X10919286Y-14311667D01*
X10938333Y-14302143D01*
X10966905Y-14302143D01*
X10985952Y-14311667D01*
X10995476Y-14330714D01*
X10995476Y-14435476D01*
X10995476Y-14330714D02*
X11005000Y-14311667D01*
X11024048Y-14302143D01*
X11052619Y-14302143D01*
X11071667Y-14311667D01*
X11081190Y-14330714D01*
X11081190Y-14435476D01*
X11176429Y-14435476D02*
X11176429Y-14302143D01*
X11176429Y-14321190D02*
X11185952Y-14311667D01*
X11205000Y-14302143D01*
X11233571Y-14302143D01*
X11252619Y-14311667D01*
X11262143Y-14330714D01*
X11262143Y-14435476D01*
X11262143Y-14330714D02*
X11271667Y-14311667D01*
X11290714Y-14302143D01*
X11319286Y-14302143D01*
X11338333Y-14311667D01*
X11347857Y-14330714D01*
X11347857Y-14435476D01*
X11738333Y-14225952D02*
X11566905Y-14483095D01*
X11995476Y-14235476D02*
X12014524Y-14235476D01*
X12033571Y-14245000D01*
X12043095Y-14254524D01*
X12052619Y-14273571D01*
X12062143Y-14311667D01*
X12062143Y-14359286D01*
X12052619Y-14397381D01*
X12043095Y-14416428D01*
X12033571Y-14425952D01*
X12014524Y-14435476D01*
X11995476Y-14435476D01*
X11976428Y-14425952D01*
X11966905Y-14416428D01*
X11957381Y-14397381D01*
X11947857Y-14359286D01*
X11947857Y-14311667D01*
X11957381Y-14273571D01*
X11966905Y-14254524D01*
X11976428Y-14245000D01*
X11995476Y-14235476D01*
X12147857Y-14416428D02*
X12157381Y-14425952D01*
X12147857Y-14435476D01*
X12138333Y-14425952D01*
X12147857Y-14416428D01*
X12147857Y-14435476D01*
X12281190Y-14235476D02*
X12300238Y-14235476D01*
X12319286Y-14245000D01*
X12328809Y-14254524D01*
X12338333Y-14273571D01*
X12347857Y-14311667D01*
X12347857Y-14359286D01*
X12338333Y-14397381D01*
X12328809Y-14416428D01*
X12319286Y-14425952D01*
X12300238Y-14435476D01*
X12281190Y-14435476D01*
X12262143Y-14425952D01*
X12252619Y-14416428D01*
X12243095Y-14397381D01*
X12233571Y-14359286D01*
X12233571Y-14311667D01*
X12243095Y-14273571D01*
X12252619Y-14254524D01*
X12262143Y-14245000D01*
X12281190Y-14235476D01*
X12538333Y-14435476D02*
X12424048Y-14435476D01*
X12481190Y-14435476D02*
X12481190Y-14235476D01*
X12462143Y-14264048D01*
X12443095Y-14283095D01*
X12424048Y-14292619D01*
X12728809Y-14435476D02*
X12614524Y-14435476D01*
X12671667Y-14435476D02*
X12671667Y-14235476D01*
X12652619Y-14264048D01*
X12633571Y-14283095D01*
X12614524Y-14292619D01*
X12843095Y-14321190D02*
X12824048Y-14311667D01*
X12814524Y-14302143D01*
X12805000Y-14283095D01*
X12805000Y-14273571D01*
X12814524Y-14254524D01*
X12824048Y-14245000D01*
X12843095Y-14235476D01*
X12881190Y-14235476D01*
X12900238Y-14245000D01*
X12909762Y-14254524D01*
X12919286Y-14273571D01*
X12919286Y-14283095D01*
X12909762Y-14302143D01*
X12900238Y-14311667D01*
X12881190Y-14321190D01*
X12843095Y-14321190D01*
X12824048Y-14330714D01*
X12814524Y-14340238D01*
X12805000Y-14359286D01*
X12805000Y-14397381D01*
X12814524Y-14416428D01*
X12824048Y-14425952D01*
X12843095Y-14435476D01*
X12881190Y-14435476D01*
X12900238Y-14425952D01*
X12909762Y-14416428D01*
X12919286Y-14397381D01*
X12919286Y-14359286D01*
X12909762Y-14340238D01*
X12900238Y-14330714D01*
X12881190Y-14321190D01*
X12995476Y-14235476D02*
X12995476Y-14273571D01*
X13071667Y-14235476D02*
X13071667Y-14273571D01*
X13366905Y-14511667D02*
X13357381Y-14502143D01*
X13338333Y-14473571D01*
X13328809Y-14454524D01*
X13319286Y-14425952D01*
X13309762Y-14378333D01*
X13309762Y-14340238D01*
X13319286Y-14292619D01*
X13328809Y-14264048D01*
X13338333Y-14245000D01*
X13357381Y-14216428D01*
X13366905Y-14206905D01*
X13433571Y-14254524D02*
X13443095Y-14245000D01*
X13462143Y-14235476D01*
X13509762Y-14235476D01*
X13528809Y-14245000D01*
X13538333Y-14254524D01*
X13547857Y-14273571D01*
X13547857Y-14292619D01*
X13538333Y-14321190D01*
X13424048Y-14435476D01*
X13547857Y-14435476D01*
X13738333Y-14435476D02*
X13624048Y-14435476D01*
X13681190Y-14435476D02*
X13681190Y-14235476D01*
X13662143Y-14264048D01*
X13643095Y-14283095D01*
X13624048Y-14292619D01*
X13805000Y-14235476D02*
X13928809Y-14235476D01*
X13862143Y-14311667D01*
X13890714Y-14311667D01*
X13909762Y-14321190D01*
X13919286Y-14330714D01*
X13928809Y-14349762D01*
X13928809Y-14397381D01*
X13919286Y-14416428D01*
X13909762Y-14425952D01*
X13890714Y-14435476D01*
X13833571Y-14435476D01*
X13814524Y-14425952D01*
X13805000Y-14416428D01*
X14166905Y-14435476D02*
X14166905Y-14235476D01*
X14252619Y-14435476D02*
X14252619Y-14330714D01*
X14243095Y-14311667D01*
X14224048Y-14302143D01*
X14195476Y-14302143D01*
X14176428Y-14311667D01*
X14166905Y-14321190D01*
X14376428Y-14435476D02*
X14357381Y-14425952D01*
X14347857Y-14416428D01*
X14338333Y-14397381D01*
X14338333Y-14340238D01*
X14347857Y-14321190D01*
X14357381Y-14311667D01*
X14376428Y-14302143D01*
X14405000Y-14302143D01*
X14424048Y-14311667D01*
X14433571Y-14321190D01*
X14443095Y-14340238D01*
X14443095Y-14397381D01*
X14433571Y-14416428D01*
X14424048Y-14425952D01*
X14405000Y-14435476D01*
X14376428Y-14435476D01*
X14557381Y-14435476D02*
X14538333Y-14425952D01*
X14528809Y-14406905D01*
X14528809Y-14235476D01*
X14709762Y-14425952D02*
X14690714Y-14435476D01*
X14652619Y-14435476D01*
X14633571Y-14425952D01*
X14624048Y-14406905D01*
X14624048Y-14330714D01*
X14633571Y-14311667D01*
X14652619Y-14302143D01*
X14690714Y-14302143D01*
X14709762Y-14311667D01*
X14719286Y-14330714D01*
X14719286Y-14349762D01*
X14624048Y-14368809D01*
X14795476Y-14425952D02*
X14814524Y-14435476D01*
X14852619Y-14435476D01*
X14871667Y-14425952D01*
X14881190Y-14406905D01*
X14881190Y-14397381D01*
X14871667Y-14378333D01*
X14852619Y-14368809D01*
X14824048Y-14368809D01*
X14805000Y-14359286D01*
X14795476Y-14340238D01*
X14795476Y-14330714D01*
X14805000Y-14311667D01*
X14824048Y-14302143D01*
X14852619Y-14302143D01*
X14871667Y-14311667D01*
X14947857Y-14511667D02*
X14957381Y-14502143D01*
X14976428Y-14473571D01*
X14985952Y-14454524D01*
X14995476Y-14425952D01*
X15005000Y-14378333D01*
X15005000Y-14340238D01*
X14995476Y-14292619D01*
X14985952Y-14264048D01*
X14976428Y-14245000D01*
X14957381Y-14216428D01*
X14947857Y-14206905D01*
D13*
X9795000Y-14609000D02*
G75*
G03*
X9795000Y-14609000I-30000J0D01*
G01*
D11*
X10090714Y-14499476D02*
X10109762Y-14499476D01*
X10128810Y-14509000D01*
X10138333Y-14518524D01*
X10147857Y-14537571D01*
X10157381Y-14575667D01*
X10157381Y-14623286D01*
X10147857Y-14661381D01*
X10138333Y-14680428D01*
X10128810Y-14689952D01*
X10109762Y-14699476D01*
X10090714Y-14699476D01*
X10071667Y-14689952D01*
X10062143Y-14680428D01*
X10052619Y-14661381D01*
X10043095Y-14623286D01*
X10043095Y-14575667D01*
X10052619Y-14537571D01*
X10062143Y-14518524D01*
X10071667Y-14509000D01*
X10090714Y-14499476D01*
X10243095Y-14680428D02*
X10252619Y-14689952D01*
X10243095Y-14699476D01*
X10233571Y-14689952D01*
X10243095Y-14680428D01*
X10243095Y-14699476D01*
X10424048Y-14499476D02*
X10385952Y-14499476D01*
X10366905Y-14509000D01*
X10357381Y-14518524D01*
X10338333Y-14547095D01*
X10328810Y-14585190D01*
X10328810Y-14661381D01*
X10338333Y-14680428D01*
X10347857Y-14689952D01*
X10366905Y-14699476D01*
X10405000Y-14699476D01*
X10424048Y-14689952D01*
X10433571Y-14680428D01*
X10443095Y-14661381D01*
X10443095Y-14613762D01*
X10433571Y-14594714D01*
X10424048Y-14585190D01*
X10405000Y-14575667D01*
X10366905Y-14575667D01*
X10347857Y-14585190D01*
X10338333Y-14594714D01*
X10328810Y-14613762D01*
X10566905Y-14499476D02*
X10585952Y-14499476D01*
X10605000Y-14509000D01*
X10614524Y-14518524D01*
X10624048Y-14537571D01*
X10633571Y-14575667D01*
X10633571Y-14623286D01*
X10624048Y-14661381D01*
X10614524Y-14680428D01*
X10605000Y-14689952D01*
X10585952Y-14699476D01*
X10566905Y-14699476D01*
X10547857Y-14689952D01*
X10538333Y-14680428D01*
X10528810Y-14661381D01*
X10519286Y-14623286D01*
X10519286Y-14575667D01*
X10528810Y-14537571D01*
X10538333Y-14518524D01*
X10547857Y-14509000D01*
X10566905Y-14499476D01*
X10757381Y-14499476D02*
X10776429Y-14499476D01*
X10795476Y-14509000D01*
X10805000Y-14518524D01*
X10814524Y-14537571D01*
X10824048Y-14575667D01*
X10824048Y-14623286D01*
X10814524Y-14661381D01*
X10805000Y-14680428D01*
X10795476Y-14689952D01*
X10776429Y-14699476D01*
X10757381Y-14699476D01*
X10738333Y-14689952D01*
X10728810Y-14680428D01*
X10719286Y-14661381D01*
X10709762Y-14623286D01*
X10709762Y-14575667D01*
X10719286Y-14537571D01*
X10728810Y-14518524D01*
X10738333Y-14509000D01*
X10757381Y-14499476D01*
X10909762Y-14699476D02*
X10909762Y-14566143D01*
X10909762Y-14585190D02*
X10919286Y-14575667D01*
X10938333Y-14566143D01*
X10966905Y-14566143D01*
X10985952Y-14575667D01*
X10995476Y-14594714D01*
X10995476Y-14699476D01*
X10995476Y-14594714D02*
X11005000Y-14575667D01*
X11024048Y-14566143D01*
X11052619Y-14566143D01*
X11071667Y-14575667D01*
X11081190Y-14594714D01*
X11081190Y-14699476D01*
X11176429Y-14699476D02*
X11176429Y-14566143D01*
X11176429Y-14585190D02*
X11185952Y-14575667D01*
X11205000Y-14566143D01*
X11233571Y-14566143D01*
X11252619Y-14575667D01*
X11262143Y-14594714D01*
X11262143Y-14699476D01*
X11262143Y-14594714D02*
X11271667Y-14575667D01*
X11290714Y-14566143D01*
X11319286Y-14566143D01*
X11338333Y-14575667D01*
X11347857Y-14594714D01*
X11347857Y-14699476D01*
X11738333Y-14489952D02*
X11566905Y-14747095D01*
X11995476Y-14499476D02*
X12014524Y-14499476D01*
X12033571Y-14509000D01*
X12043095Y-14518524D01*
X12052619Y-14537571D01*
X12062143Y-14575667D01*
X12062143Y-14623286D01*
X12052619Y-14661381D01*
X12043095Y-14680428D01*
X12033571Y-14689952D01*
X12014524Y-14699476D01*
X11995476Y-14699476D01*
X11976428Y-14689952D01*
X11966905Y-14680428D01*
X11957381Y-14661381D01*
X11947857Y-14623286D01*
X11947857Y-14575667D01*
X11957381Y-14537571D01*
X11966905Y-14518524D01*
X11976428Y-14509000D01*
X11995476Y-14499476D01*
X12147857Y-14680428D02*
X12157381Y-14689952D01*
X12147857Y-14699476D01*
X12138333Y-14689952D01*
X12147857Y-14680428D01*
X12147857Y-14699476D01*
X12281190Y-14499476D02*
X12300238Y-14499476D01*
X12319286Y-14509000D01*
X12328809Y-14518524D01*
X12338333Y-14537571D01*
X12347857Y-14575667D01*
X12347857Y-14623286D01*
X12338333Y-14661381D01*
X12328809Y-14680428D01*
X12319286Y-14689952D01*
X12300238Y-14699476D01*
X12281190Y-14699476D01*
X12262143Y-14689952D01*
X12252619Y-14680428D01*
X12243095Y-14661381D01*
X12233571Y-14623286D01*
X12233571Y-14575667D01*
X12243095Y-14537571D01*
X12252619Y-14518524D01*
X12262143Y-14509000D01*
X12281190Y-14499476D01*
X12424048Y-14518524D02*
X12433571Y-14509000D01*
X12452619Y-14499476D01*
X12500238Y-14499476D01*
X12519286Y-14509000D01*
X12528809Y-14518524D01*
X12538333Y-14537571D01*
X12538333Y-14556619D01*
X12528809Y-14585190D01*
X12414524Y-14699476D01*
X12538333Y-14699476D01*
X12605000Y-14499476D02*
X12728809Y-14499476D01*
X12662143Y-14575667D01*
X12690714Y-14575667D01*
X12709762Y-14585190D01*
X12719286Y-14594714D01*
X12728809Y-14613762D01*
X12728809Y-14661381D01*
X12719286Y-14680428D01*
X12709762Y-14689952D01*
X12690714Y-14699476D01*
X12633571Y-14699476D01*
X12614524Y-14689952D01*
X12605000Y-14680428D01*
X12900238Y-14499476D02*
X12862143Y-14499476D01*
X12843095Y-14509000D01*
X12833571Y-14518524D01*
X12814524Y-14547095D01*
X12805000Y-14585190D01*
X12805000Y-14661381D01*
X12814524Y-14680428D01*
X12824048Y-14689952D01*
X12843095Y-14699476D01*
X12881190Y-14699476D01*
X12900238Y-14689952D01*
X12909762Y-14680428D01*
X12919286Y-14661381D01*
X12919286Y-14613762D01*
X12909762Y-14594714D01*
X12900238Y-14585190D01*
X12881190Y-14575667D01*
X12843095Y-14575667D01*
X12824048Y-14585190D01*
X12814524Y-14594714D01*
X12805000Y-14613762D01*
X12995476Y-14499476D02*
X12995476Y-14537571D01*
X13071667Y-14499476D02*
X13071667Y-14537571D01*
X13366905Y-14775667D02*
X13357381Y-14766143D01*
X13338333Y-14737571D01*
X13328809Y-14718524D01*
X13319286Y-14689952D01*
X13309762Y-14642333D01*
X13309762Y-14604238D01*
X13319286Y-14556619D01*
X13328809Y-14528048D01*
X13338333Y-14509000D01*
X13357381Y-14480428D01*
X13366905Y-14470905D01*
X13433571Y-14518524D02*
X13443095Y-14509000D01*
X13462143Y-14499476D01*
X13509762Y-14499476D01*
X13528809Y-14509000D01*
X13538333Y-14518524D01*
X13547857Y-14537571D01*
X13547857Y-14556619D01*
X13538333Y-14585190D01*
X13424048Y-14699476D01*
X13547857Y-14699476D01*
X13719286Y-14566143D02*
X13719286Y-14699476D01*
X13671667Y-14489952D02*
X13624048Y-14632809D01*
X13747857Y-14632809D01*
X13976428Y-14699476D02*
X13976428Y-14499476D01*
X14062143Y-14699476D02*
X14062143Y-14594714D01*
X14052619Y-14575667D01*
X14033571Y-14566143D01*
X14005000Y-14566143D01*
X13985952Y-14575667D01*
X13976428Y-14585190D01*
X14185952Y-14699476D02*
X14166905Y-14689952D01*
X14157381Y-14680428D01*
X14147857Y-14661381D01*
X14147857Y-14604238D01*
X14157381Y-14585190D01*
X14166905Y-14575667D01*
X14185952Y-14566143D01*
X14214524Y-14566143D01*
X14233571Y-14575667D01*
X14243095Y-14585190D01*
X14252619Y-14604238D01*
X14252619Y-14661381D01*
X14243095Y-14680428D01*
X14233571Y-14689952D01*
X14214524Y-14699476D01*
X14185952Y-14699476D01*
X14366905Y-14699476D02*
X14347857Y-14689952D01*
X14338333Y-14670905D01*
X14338333Y-14499476D01*
X14519286Y-14689952D02*
X14500238Y-14699476D01*
X14462143Y-14699476D01*
X14443095Y-14689952D01*
X14433571Y-14670905D01*
X14433571Y-14594714D01*
X14443095Y-14575667D01*
X14462143Y-14566143D01*
X14500238Y-14566143D01*
X14519286Y-14575667D01*
X14528809Y-14594714D01*
X14528809Y-14613762D01*
X14433571Y-14632809D01*
X14605000Y-14689952D02*
X14624048Y-14699476D01*
X14662143Y-14699476D01*
X14681190Y-14689952D01*
X14690714Y-14670905D01*
X14690714Y-14661381D01*
X14681190Y-14642333D01*
X14662143Y-14632809D01*
X14633571Y-14632809D01*
X14614524Y-14623286D01*
X14605000Y-14604238D01*
X14605000Y-14594714D01*
X14614524Y-14575667D01*
X14633571Y-14566143D01*
X14662143Y-14566143D01*
X14681190Y-14575667D01*
X14757381Y-14775667D02*
X14766905Y-14766143D01*
X14785952Y-14737571D01*
X14795476Y-14718524D01*
X14805000Y-14689952D01*
X14814524Y-14642333D01*
X14814524Y-14604238D01*
X14805000Y-14556619D01*
X14795476Y-14528048D01*
X14785952Y-14509000D01*
X14766905Y-14480428D01*
X14757381Y-14470905D01*
D10*
X9745000Y-14823000D02*
X9745000Y-14923000D01*
X9695000Y-14873000D02*
X9795000Y-14873000D01*
D11*
X10157381Y-14963476D02*
X10043095Y-14963476D01*
X10100238Y-14963476D02*
X10100238Y-14763476D01*
X10081190Y-14792048D01*
X10062143Y-14811095D01*
X10043095Y-14820619D01*
X10243095Y-14944428D02*
X10252619Y-14953952D01*
X10243095Y-14963476D01*
X10233571Y-14953952D01*
X10243095Y-14944428D01*
X10243095Y-14963476D01*
X10376429Y-14763476D02*
X10395476Y-14763476D01*
X10414524Y-14773000D01*
X10424048Y-14782524D01*
X10433571Y-14801571D01*
X10443095Y-14839667D01*
X10443095Y-14887286D01*
X10433571Y-14925381D01*
X10424048Y-14944428D01*
X10414524Y-14953952D01*
X10395476Y-14963476D01*
X10376429Y-14963476D01*
X10357381Y-14953952D01*
X10347857Y-14944428D01*
X10338333Y-14925381D01*
X10328810Y-14887286D01*
X10328810Y-14839667D01*
X10338333Y-14801571D01*
X10347857Y-14782524D01*
X10357381Y-14773000D01*
X10376429Y-14763476D01*
X10566905Y-14763476D02*
X10585952Y-14763476D01*
X10605000Y-14773000D01*
X10614524Y-14782524D01*
X10624048Y-14801571D01*
X10633571Y-14839667D01*
X10633571Y-14887286D01*
X10624048Y-14925381D01*
X10614524Y-14944428D01*
X10605000Y-14953952D01*
X10585952Y-14963476D01*
X10566905Y-14963476D01*
X10547857Y-14953952D01*
X10538333Y-14944428D01*
X10528810Y-14925381D01*
X10519286Y-14887286D01*
X10519286Y-14839667D01*
X10528810Y-14801571D01*
X10538333Y-14782524D01*
X10547857Y-14773000D01*
X10566905Y-14763476D01*
X10757381Y-14763476D02*
X10776429Y-14763476D01*
X10795476Y-14773000D01*
X10805000Y-14782524D01*
X10814524Y-14801571D01*
X10824048Y-14839667D01*
X10824048Y-14887286D01*
X10814524Y-14925381D01*
X10805000Y-14944428D01*
X10795476Y-14953952D01*
X10776429Y-14963476D01*
X10757381Y-14963476D01*
X10738333Y-14953952D01*
X10728810Y-14944428D01*
X10719286Y-14925381D01*
X10709762Y-14887286D01*
X10709762Y-14839667D01*
X10719286Y-14801571D01*
X10728810Y-14782524D01*
X10738333Y-14773000D01*
X10757381Y-14763476D01*
X10909762Y-14963476D02*
X10909762Y-14830143D01*
X10909762Y-14849190D02*
X10919286Y-14839667D01*
X10938333Y-14830143D01*
X10966905Y-14830143D01*
X10985952Y-14839667D01*
X10995476Y-14858714D01*
X10995476Y-14963476D01*
X10995476Y-14858714D02*
X11005000Y-14839667D01*
X11024048Y-14830143D01*
X11052619Y-14830143D01*
X11071667Y-14839667D01*
X11081190Y-14858714D01*
X11081190Y-14963476D01*
X11176429Y-14963476D02*
X11176429Y-14830143D01*
X11176429Y-14849190D02*
X11185952Y-14839667D01*
X11205000Y-14830143D01*
X11233571Y-14830143D01*
X11252619Y-14839667D01*
X11262143Y-14858714D01*
X11262143Y-14963476D01*
X11262143Y-14858714D02*
X11271667Y-14839667D01*
X11290714Y-14830143D01*
X11319286Y-14830143D01*
X11338333Y-14839667D01*
X11347857Y-14858714D01*
X11347857Y-14963476D01*
X11738333Y-14753952D02*
X11566905Y-15011095D01*
X11995476Y-14763476D02*
X12014524Y-14763476D01*
X12033571Y-14773000D01*
X12043095Y-14782524D01*
X12052619Y-14801571D01*
X12062143Y-14839667D01*
X12062143Y-14887286D01*
X12052619Y-14925381D01*
X12043095Y-14944428D01*
X12033571Y-14953952D01*
X12014524Y-14963476D01*
X11995476Y-14963476D01*
X11976428Y-14953952D01*
X11966905Y-14944428D01*
X11957381Y-14925381D01*
X11947857Y-14887286D01*
X11947857Y-14839667D01*
X11957381Y-14801571D01*
X11966905Y-14782524D01*
X11976428Y-14773000D01*
X11995476Y-14763476D01*
X12147857Y-14944428D02*
X12157381Y-14953952D01*
X12147857Y-14963476D01*
X12138333Y-14953952D01*
X12147857Y-14944428D01*
X12147857Y-14963476D01*
X12281190Y-14763476D02*
X12300238Y-14763476D01*
X12319286Y-14773000D01*
X12328809Y-14782524D01*
X12338333Y-14801571D01*
X12347857Y-14839667D01*
X12347857Y-14887286D01*
X12338333Y-14925381D01*
X12328809Y-14944428D01*
X12319286Y-14953952D01*
X12300238Y-14963476D01*
X12281190Y-14963476D01*
X12262143Y-14953952D01*
X12252619Y-14944428D01*
X12243095Y-14925381D01*
X12233571Y-14887286D01*
X12233571Y-14839667D01*
X12243095Y-14801571D01*
X12252619Y-14782524D01*
X12262143Y-14773000D01*
X12281190Y-14763476D01*
X12414524Y-14763476D02*
X12538333Y-14763476D01*
X12471667Y-14839667D01*
X12500238Y-14839667D01*
X12519286Y-14849190D01*
X12528809Y-14858714D01*
X12538333Y-14877762D01*
X12538333Y-14925381D01*
X12528809Y-14944428D01*
X12519286Y-14953952D01*
X12500238Y-14963476D01*
X12443095Y-14963476D01*
X12424048Y-14953952D01*
X12414524Y-14944428D01*
X12633571Y-14963476D02*
X12671667Y-14963476D01*
X12690714Y-14953952D01*
X12700238Y-14944428D01*
X12719286Y-14915857D01*
X12728809Y-14877762D01*
X12728809Y-14801571D01*
X12719286Y-14782524D01*
X12709762Y-14773000D01*
X12690714Y-14763476D01*
X12652619Y-14763476D01*
X12633571Y-14773000D01*
X12624048Y-14782524D01*
X12614524Y-14801571D01*
X12614524Y-14849190D01*
X12624048Y-14868238D01*
X12633571Y-14877762D01*
X12652619Y-14887286D01*
X12690714Y-14887286D01*
X12709762Y-14877762D01*
X12719286Y-14868238D01*
X12728809Y-14849190D01*
X12900238Y-14830143D02*
X12900238Y-14963476D01*
X12852619Y-14753952D02*
X12805000Y-14896809D01*
X12928809Y-14896809D01*
X12995476Y-14763476D02*
X12995476Y-14801571D01*
X13071667Y-14763476D02*
X13071667Y-14801571D01*
X13366905Y-15039667D02*
X13357381Y-15030143D01*
X13338333Y-15001571D01*
X13328809Y-14982524D01*
X13319286Y-14953952D01*
X13309762Y-14906333D01*
X13309762Y-14868238D01*
X13319286Y-14820619D01*
X13328809Y-14792048D01*
X13338333Y-14773000D01*
X13357381Y-14744428D01*
X13366905Y-14734905D01*
X13424048Y-14763476D02*
X13547857Y-14763476D01*
X13481190Y-14839667D01*
X13509762Y-14839667D01*
X13528809Y-14849190D01*
X13538333Y-14858714D01*
X13547857Y-14877762D01*
X13547857Y-14925381D01*
X13538333Y-14944428D01*
X13528809Y-14953952D01*
X13509762Y-14963476D01*
X13452619Y-14963476D01*
X13433571Y-14953952D01*
X13424048Y-14944428D01*
X13671667Y-14763476D02*
X13690714Y-14763476D01*
X13709762Y-14773000D01*
X13719286Y-14782524D01*
X13728809Y-14801571D01*
X13738333Y-14839667D01*
X13738333Y-14887286D01*
X13728809Y-14925381D01*
X13719286Y-14944428D01*
X13709762Y-14953952D01*
X13690714Y-14963476D01*
X13671667Y-14963476D01*
X13652619Y-14953952D01*
X13643095Y-14944428D01*
X13633571Y-14925381D01*
X13624048Y-14887286D01*
X13624048Y-14839667D01*
X13633571Y-14801571D01*
X13643095Y-14782524D01*
X13652619Y-14773000D01*
X13671667Y-14763476D01*
X13976428Y-14963476D02*
X13976428Y-14763476D01*
X14062143Y-14963476D02*
X14062143Y-14858714D01*
X14052619Y-14839667D01*
X14033571Y-14830143D01*
X14005000Y-14830143D01*
X13985952Y-14839667D01*
X13976428Y-14849190D01*
X14185952Y-14963476D02*
X14166905Y-14953952D01*
X14157381Y-14944428D01*
X14147857Y-14925381D01*
X14147857Y-14868238D01*
X14157381Y-14849190D01*
X14166905Y-14839667D01*
X14185952Y-14830143D01*
X14214524Y-14830143D01*
X14233571Y-14839667D01*
X14243095Y-14849190D01*
X14252619Y-14868238D01*
X14252619Y-14925381D01*
X14243095Y-14944428D01*
X14233571Y-14953952D01*
X14214524Y-14963476D01*
X14185952Y-14963476D01*
X14366905Y-14963476D02*
X14347857Y-14953952D01*
X14338333Y-14934905D01*
X14338333Y-14763476D01*
X14519286Y-14953952D02*
X14500238Y-14963476D01*
X14462143Y-14963476D01*
X14443095Y-14953952D01*
X14433571Y-14934905D01*
X14433571Y-14858714D01*
X14443095Y-14839667D01*
X14462143Y-14830143D01*
X14500238Y-14830143D01*
X14519286Y-14839667D01*
X14528809Y-14858714D01*
X14528809Y-14877762D01*
X14433571Y-14896809D01*
X14605000Y-14953952D02*
X14624048Y-14963476D01*
X14662143Y-14963476D01*
X14681190Y-14953952D01*
X14690714Y-14934905D01*
X14690714Y-14925381D01*
X14681190Y-14906333D01*
X14662143Y-14896809D01*
X14633571Y-14896809D01*
X14614524Y-14887286D01*
X14605000Y-14868238D01*
X14605000Y-14858714D01*
X14614524Y-14839667D01*
X14633571Y-14830143D01*
X14662143Y-14830143D01*
X14681190Y-14839667D01*
X14757381Y-15039667D02*
X14766905Y-15030143D01*
X14785952Y-15001571D01*
X14795476Y-14982524D01*
X14805000Y-14953952D01*
X14814524Y-14906333D01*
X14814524Y-14868238D01*
X14805000Y-14820619D01*
X14795476Y-14792048D01*
X14785952Y-14773000D01*
X14766905Y-14744428D01*
X14757381Y-14734905D01*
D14*
X9780063Y-15173063D02*
X9780063Y-15100937D01*
X9707937Y-15100937D01*
X9707937Y-15173063D01*
X9780063Y-15173063D01*
D11*
X10157381Y-15227476D02*
X10043095Y-15227476D01*
X10100238Y-15227476D02*
X10100238Y-15027476D01*
X10081190Y-15056048D01*
X10062143Y-15075095D01*
X10043095Y-15084619D01*
X10243095Y-15208428D02*
X10252619Y-15217952D01*
X10243095Y-15227476D01*
X10233571Y-15217952D01*
X10243095Y-15208428D01*
X10243095Y-15227476D01*
X10376429Y-15027476D02*
X10395476Y-15027476D01*
X10414524Y-15037000D01*
X10424048Y-15046524D01*
X10433571Y-15065571D01*
X10443095Y-15103667D01*
X10443095Y-15151286D01*
X10433571Y-15189381D01*
X10424048Y-15208428D01*
X10414524Y-15217952D01*
X10395476Y-15227476D01*
X10376429Y-15227476D01*
X10357381Y-15217952D01*
X10347857Y-15208428D01*
X10338333Y-15189381D01*
X10328810Y-15151286D01*
X10328810Y-15103667D01*
X10338333Y-15065571D01*
X10347857Y-15046524D01*
X10357381Y-15037000D01*
X10376429Y-15027476D01*
X10519286Y-15046524D02*
X10528810Y-15037000D01*
X10547857Y-15027476D01*
X10595476Y-15027476D01*
X10614524Y-15037000D01*
X10624048Y-15046524D01*
X10633571Y-15065571D01*
X10633571Y-15084619D01*
X10624048Y-15113190D01*
X10509762Y-15227476D01*
X10633571Y-15227476D01*
X10757381Y-15027476D02*
X10776429Y-15027476D01*
X10795476Y-15037000D01*
X10805000Y-15046524D01*
X10814524Y-15065571D01*
X10824048Y-15103667D01*
X10824048Y-15151286D01*
X10814524Y-15189381D01*
X10805000Y-15208428D01*
X10795476Y-15217952D01*
X10776429Y-15227476D01*
X10757381Y-15227476D01*
X10738333Y-15217952D01*
X10728810Y-15208428D01*
X10719286Y-15189381D01*
X10709762Y-15151286D01*
X10709762Y-15103667D01*
X10719286Y-15065571D01*
X10728810Y-15046524D01*
X10738333Y-15037000D01*
X10757381Y-15027476D01*
X10909762Y-15227476D02*
X10909762Y-15094143D01*
X10909762Y-15113190D02*
X10919286Y-15103667D01*
X10938333Y-15094143D01*
X10966905Y-15094143D01*
X10985952Y-15103667D01*
X10995476Y-15122714D01*
X10995476Y-15227476D01*
X10995476Y-15122714D02*
X11005000Y-15103667D01*
X11024048Y-15094143D01*
X11052619Y-15094143D01*
X11071667Y-15103667D01*
X11081190Y-15122714D01*
X11081190Y-15227476D01*
X11176429Y-15227476D02*
X11176429Y-15094143D01*
X11176429Y-15113190D02*
X11185952Y-15103667D01*
X11205000Y-15094143D01*
X11233571Y-15094143D01*
X11252619Y-15103667D01*
X11262143Y-15122714D01*
X11262143Y-15227476D01*
X11262143Y-15122714D02*
X11271667Y-15103667D01*
X11290714Y-15094143D01*
X11319286Y-15094143D01*
X11338333Y-15103667D01*
X11347857Y-15122714D01*
X11347857Y-15227476D01*
X11738333Y-15017952D02*
X11566905Y-15275095D01*
X11995476Y-15027476D02*
X12014524Y-15027476D01*
X12033571Y-15037000D01*
X12043095Y-15046524D01*
X12052619Y-15065571D01*
X12062143Y-15103667D01*
X12062143Y-15151286D01*
X12052619Y-15189381D01*
X12043095Y-15208428D01*
X12033571Y-15217952D01*
X12014524Y-15227476D01*
X11995476Y-15227476D01*
X11976428Y-15217952D01*
X11966905Y-15208428D01*
X11957381Y-15189381D01*
X11947857Y-15151286D01*
X11947857Y-15103667D01*
X11957381Y-15065571D01*
X11966905Y-15046524D01*
X11976428Y-15037000D01*
X11995476Y-15027476D01*
X12147857Y-15208428D02*
X12157381Y-15217952D01*
X12147857Y-15227476D01*
X12138333Y-15217952D01*
X12147857Y-15208428D01*
X12147857Y-15227476D01*
X12281190Y-15027476D02*
X12300238Y-15027476D01*
X12319286Y-15037000D01*
X12328809Y-15046524D01*
X12338333Y-15065571D01*
X12347857Y-15103667D01*
X12347857Y-15151286D01*
X12338333Y-15189381D01*
X12328809Y-15208428D01*
X12319286Y-15217952D01*
X12300238Y-15227476D01*
X12281190Y-15227476D01*
X12262143Y-15217952D01*
X12252619Y-15208428D01*
X12243095Y-15189381D01*
X12233571Y-15151286D01*
X12233571Y-15103667D01*
X12243095Y-15065571D01*
X12252619Y-15046524D01*
X12262143Y-15037000D01*
X12281190Y-15027476D01*
X12519286Y-15094143D02*
X12519286Y-15227476D01*
X12471667Y-15017952D02*
X12424048Y-15160809D01*
X12547857Y-15160809D01*
X12662143Y-15027476D02*
X12681190Y-15027476D01*
X12700238Y-15037000D01*
X12709762Y-15046524D01*
X12719286Y-15065571D01*
X12728809Y-15103667D01*
X12728809Y-15151286D01*
X12719286Y-15189381D01*
X12709762Y-15208428D01*
X12700238Y-15217952D01*
X12681190Y-15227476D01*
X12662143Y-15227476D01*
X12643095Y-15217952D01*
X12633571Y-15208428D01*
X12624048Y-15189381D01*
X12614524Y-15151286D01*
X12614524Y-15103667D01*
X12624048Y-15065571D01*
X12633571Y-15046524D01*
X12643095Y-15037000D01*
X12662143Y-15027476D01*
X12805000Y-15046524D02*
X12814524Y-15037000D01*
X12833571Y-15027476D01*
X12881190Y-15027476D01*
X12900238Y-15037000D01*
X12909762Y-15046524D01*
X12919286Y-15065571D01*
X12919286Y-15084619D01*
X12909762Y-15113190D01*
X12795476Y-15227476D01*
X12919286Y-15227476D01*
X12995476Y-15027476D02*
X12995476Y-15065571D01*
X13071667Y-15027476D02*
X13071667Y-15065571D01*
X13366905Y-15303667D02*
X13357381Y-15294143D01*
X13338333Y-15265571D01*
X13328809Y-15246524D01*
X13319286Y-15217952D01*
X13309762Y-15170333D01*
X13309762Y-15132238D01*
X13319286Y-15084619D01*
X13328809Y-15056048D01*
X13338333Y-15037000D01*
X13357381Y-15008428D01*
X13366905Y-14998905D01*
X13528809Y-15094143D02*
X13528809Y-15227476D01*
X13481190Y-15017952D02*
X13433571Y-15160809D01*
X13557381Y-15160809D01*
X13671667Y-15027476D02*
X13690714Y-15027476D01*
X13709762Y-15037000D01*
X13719286Y-15046524D01*
X13728809Y-15065571D01*
X13738333Y-15103667D01*
X13738333Y-15151286D01*
X13728809Y-15189381D01*
X13719286Y-15208428D01*
X13709762Y-15217952D01*
X13690714Y-15227476D01*
X13671667Y-15227476D01*
X13652619Y-15217952D01*
X13643095Y-15208428D01*
X13633571Y-15189381D01*
X13624048Y-15151286D01*
X13624048Y-15103667D01*
X13633571Y-15065571D01*
X13643095Y-15046524D01*
X13652619Y-15037000D01*
X13671667Y-15027476D01*
X13976428Y-15227476D02*
X13976428Y-15027476D01*
X14062143Y-15227476D02*
X14062143Y-15122714D01*
X14052619Y-15103667D01*
X14033571Y-15094143D01*
X14005000Y-15094143D01*
X13985952Y-15103667D01*
X13976428Y-15113190D01*
X14185952Y-15227476D02*
X14166905Y-15217952D01*
X14157381Y-15208428D01*
X14147857Y-15189381D01*
X14147857Y-15132238D01*
X14157381Y-15113190D01*
X14166905Y-15103667D01*
X14185952Y-15094143D01*
X14214524Y-15094143D01*
X14233571Y-15103667D01*
X14243095Y-15113190D01*
X14252619Y-15132238D01*
X14252619Y-15189381D01*
X14243095Y-15208428D01*
X14233571Y-15217952D01*
X14214524Y-15227476D01*
X14185952Y-15227476D01*
X14366905Y-15227476D02*
X14347857Y-15217952D01*
X14338333Y-15198905D01*
X14338333Y-15027476D01*
X14519286Y-15217952D02*
X14500238Y-15227476D01*
X14462143Y-15227476D01*
X14443095Y-15217952D01*
X14433571Y-15198905D01*
X14433571Y-15122714D01*
X14443095Y-15103667D01*
X14462143Y-15094143D01*
X14500238Y-15094143D01*
X14519286Y-15103667D01*
X14528809Y-15122714D01*
X14528809Y-15141762D01*
X14433571Y-15160809D01*
X14605000Y-15217952D02*
X14624048Y-15227476D01*
X14662143Y-15227476D01*
X14681190Y-15217952D01*
X14690714Y-15198905D01*
X14690714Y-15189381D01*
X14681190Y-15170333D01*
X14662143Y-15160809D01*
X14633571Y-15160809D01*
X14614524Y-15151286D01*
X14605000Y-15132238D01*
X14605000Y-15122714D01*
X14614524Y-15103667D01*
X14633571Y-15094143D01*
X14662143Y-15094143D01*
X14681190Y-15103667D01*
X14757381Y-15303667D02*
X14766905Y-15294143D01*
X14785952Y-15265571D01*
X14795476Y-15246524D01*
X14805000Y-15217952D01*
X14814524Y-15170333D01*
X14814524Y-15132238D01*
X14805000Y-15084619D01*
X14795476Y-15056048D01*
X14785952Y-15037000D01*
X14766905Y-15008428D01*
X14757381Y-14998905D01*
D15*
X9740000Y-15456000D02*
X9795000Y-15401000D01*
X9740000Y-15346000D01*
X9685000Y-15401000D01*
X9740000Y-15456000D01*
D11*
X10157381Y-15491476D02*
X10043095Y-15491476D01*
X10100238Y-15491476D02*
X10100238Y-15291476D01*
X10081190Y-15320048D01*
X10062143Y-15339095D01*
X10043095Y-15348619D01*
X10243095Y-15472428D02*
X10252619Y-15481952D01*
X10243095Y-15491476D01*
X10233571Y-15481952D01*
X10243095Y-15472428D01*
X10243095Y-15491476D01*
X10443095Y-15491476D02*
X10328810Y-15491476D01*
X10385952Y-15491476D02*
X10385952Y-15291476D01*
X10366905Y-15320048D01*
X10347857Y-15339095D01*
X10328810Y-15348619D01*
X10566905Y-15291476D02*
X10585952Y-15291476D01*
X10605000Y-15301000D01*
X10614524Y-15310524D01*
X10624048Y-15329571D01*
X10633571Y-15367667D01*
X10633571Y-15415286D01*
X10624048Y-15453381D01*
X10614524Y-15472428D01*
X10605000Y-15481952D01*
X10585952Y-15491476D01*
X10566905Y-15491476D01*
X10547857Y-15481952D01*
X10538333Y-15472428D01*
X10528810Y-15453381D01*
X10519286Y-15415286D01*
X10519286Y-15367667D01*
X10528810Y-15329571D01*
X10538333Y-15310524D01*
X10547857Y-15301000D01*
X10566905Y-15291476D01*
X10757381Y-15291476D02*
X10776429Y-15291476D01*
X10795476Y-15301000D01*
X10805000Y-15310524D01*
X10814524Y-15329571D01*
X10824048Y-15367667D01*
X10824048Y-15415286D01*
X10814524Y-15453381D01*
X10805000Y-15472428D01*
X10795476Y-15481952D01*
X10776429Y-15491476D01*
X10757381Y-15491476D01*
X10738333Y-15481952D01*
X10728810Y-15472428D01*
X10719286Y-15453381D01*
X10709762Y-15415286D01*
X10709762Y-15367667D01*
X10719286Y-15329571D01*
X10728810Y-15310524D01*
X10738333Y-15301000D01*
X10757381Y-15291476D01*
X10909762Y-15491476D02*
X10909762Y-15358143D01*
X10909762Y-15377190D02*
X10919286Y-15367667D01*
X10938333Y-15358143D01*
X10966905Y-15358143D01*
X10985952Y-15367667D01*
X10995476Y-15386714D01*
X10995476Y-15491476D01*
X10995476Y-15386714D02*
X11005000Y-15367667D01*
X11024048Y-15358143D01*
X11052619Y-15358143D01*
X11071667Y-15367667D01*
X11081190Y-15386714D01*
X11081190Y-15491476D01*
X11176429Y-15491476D02*
X11176429Y-15358143D01*
X11176429Y-15377190D02*
X11185952Y-15367667D01*
X11205000Y-15358143D01*
X11233571Y-15358143D01*
X11252619Y-15367667D01*
X11262143Y-15386714D01*
X11262143Y-15491476D01*
X11262143Y-15386714D02*
X11271667Y-15367667D01*
X11290714Y-15358143D01*
X11319286Y-15358143D01*
X11338333Y-15367667D01*
X11347857Y-15386714D01*
X11347857Y-15491476D01*
X11738333Y-15281952D02*
X11566905Y-15539095D01*
X11995476Y-15291476D02*
X12014524Y-15291476D01*
X12033571Y-15301000D01*
X12043095Y-15310524D01*
X12052619Y-15329571D01*
X12062143Y-15367667D01*
X12062143Y-15415286D01*
X12052619Y-15453381D01*
X12043095Y-15472428D01*
X12033571Y-15481952D01*
X12014524Y-15491476D01*
X11995476Y-15491476D01*
X11976428Y-15481952D01*
X11966905Y-15472428D01*
X11957381Y-15453381D01*
X11947857Y-15415286D01*
X11947857Y-15367667D01*
X11957381Y-15329571D01*
X11966905Y-15310524D01*
X11976428Y-15301000D01*
X11995476Y-15291476D01*
X12147857Y-15472428D02*
X12157381Y-15481952D01*
X12147857Y-15491476D01*
X12138333Y-15481952D01*
X12147857Y-15472428D01*
X12147857Y-15491476D01*
X12281190Y-15291476D02*
X12300238Y-15291476D01*
X12319286Y-15301000D01*
X12328809Y-15310524D01*
X12338333Y-15329571D01*
X12347857Y-15367667D01*
X12347857Y-15415286D01*
X12338333Y-15453381D01*
X12328809Y-15472428D01*
X12319286Y-15481952D01*
X12300238Y-15491476D01*
X12281190Y-15491476D01*
X12262143Y-15481952D01*
X12252619Y-15472428D01*
X12243095Y-15453381D01*
X12233571Y-15415286D01*
X12233571Y-15367667D01*
X12243095Y-15329571D01*
X12252619Y-15310524D01*
X12262143Y-15301000D01*
X12281190Y-15291476D01*
X12519286Y-15358143D02*
X12519286Y-15491476D01*
X12471667Y-15281952D02*
X12424048Y-15424809D01*
X12547857Y-15424809D01*
X12605000Y-15291476D02*
X12728809Y-15291476D01*
X12662143Y-15367667D01*
X12690714Y-15367667D01*
X12709762Y-15377190D01*
X12719286Y-15386714D01*
X12728809Y-15405762D01*
X12728809Y-15453381D01*
X12719286Y-15472428D01*
X12709762Y-15481952D01*
X12690714Y-15491476D01*
X12633571Y-15491476D01*
X12614524Y-15481952D01*
X12605000Y-15472428D01*
X12795476Y-15291476D02*
X12919286Y-15291476D01*
X12852619Y-15367667D01*
X12881190Y-15367667D01*
X12900238Y-15377190D01*
X12909762Y-15386714D01*
X12919286Y-15405762D01*
X12919286Y-15453381D01*
X12909762Y-15472428D01*
X12900238Y-15481952D01*
X12881190Y-15491476D01*
X12824048Y-15491476D01*
X12805000Y-15481952D01*
X12795476Y-15472428D01*
X12995476Y-15291476D02*
X12995476Y-15329571D01*
X13071667Y-15291476D02*
X13071667Y-15329571D01*
X13366905Y-15567667D02*
X13357381Y-15558143D01*
X13338333Y-15529571D01*
X13328809Y-15510524D01*
X13319286Y-15481952D01*
X13309762Y-15434333D01*
X13309762Y-15396238D01*
X13319286Y-15348619D01*
X13328809Y-15320048D01*
X13338333Y-15301000D01*
X13357381Y-15272428D01*
X13366905Y-15262905D01*
X13538333Y-15291476D02*
X13443095Y-15291476D01*
X13433571Y-15386714D01*
X13443095Y-15377190D01*
X13462143Y-15367667D01*
X13509762Y-15367667D01*
X13528809Y-15377190D01*
X13538333Y-15386714D01*
X13547857Y-15405762D01*
X13547857Y-15453381D01*
X13538333Y-15472428D01*
X13528809Y-15481952D01*
X13509762Y-15491476D01*
X13462143Y-15491476D01*
X13443095Y-15481952D01*
X13433571Y-15472428D01*
X13785952Y-15491476D02*
X13785952Y-15291476D01*
X13871667Y-15491476D02*
X13871667Y-15386714D01*
X13862143Y-15367667D01*
X13843095Y-15358143D01*
X13814524Y-15358143D01*
X13795476Y-15367667D01*
X13785952Y-15377190D01*
X13995476Y-15491476D02*
X13976428Y-15481952D01*
X13966905Y-15472428D01*
X13957381Y-15453381D01*
X13957381Y-15396238D01*
X13966905Y-15377190D01*
X13976428Y-15367667D01*
X13995476Y-15358143D01*
X14024048Y-15358143D01*
X14043095Y-15367667D01*
X14052619Y-15377190D01*
X14062143Y-15396238D01*
X14062143Y-15453381D01*
X14052619Y-15472428D01*
X14043095Y-15481952D01*
X14024048Y-15491476D01*
X13995476Y-15491476D01*
X14176428Y-15491476D02*
X14157381Y-15481952D01*
X14147857Y-15462905D01*
X14147857Y-15291476D01*
X14328809Y-15481952D02*
X14309762Y-15491476D01*
X14271667Y-15491476D01*
X14252619Y-15481952D01*
X14243095Y-15462905D01*
X14243095Y-15386714D01*
X14252619Y-15367667D01*
X14271667Y-15358143D01*
X14309762Y-15358143D01*
X14328809Y-15367667D01*
X14338333Y-15386714D01*
X14338333Y-15405762D01*
X14243095Y-15424809D01*
X14414524Y-15481952D02*
X14433571Y-15491476D01*
X14471667Y-15491476D01*
X14490714Y-15481952D01*
X14500238Y-15462905D01*
X14500238Y-15453381D01*
X14490714Y-15434333D01*
X14471667Y-15424809D01*
X14443095Y-15424809D01*
X14424048Y-15415286D01*
X14414524Y-15396238D01*
X14414524Y-15386714D01*
X14424048Y-15367667D01*
X14443095Y-15358143D01*
X14471667Y-15358143D01*
X14490714Y-15367667D01*
X14566905Y-15567667D02*
X14576428Y-15558143D01*
X14595476Y-15529571D01*
X14605000Y-15510524D01*
X14614524Y-15481952D01*
X14624048Y-15434333D01*
X14624048Y-15396238D01*
X14614524Y-15348619D01*
X14605000Y-15320048D01*
X14595476Y-15301000D01*
X14576428Y-15272428D01*
X14566905Y-15262905D01*
X9595000Y-15565000D02*
X9795000Y-15765000D01*
X9795000Y-15565000D02*
X9595000Y-15765000D01*
X9795000Y-15665000D02*
G75*
G03*
X9795000Y-15665000I-100000J0D01*
G01*
X10043095Y-15574524D02*
X10052619Y-15565000D01*
X10071667Y-15555476D01*
X10119286Y-15555476D01*
X10138333Y-15565000D01*
X10147857Y-15574524D01*
X10157381Y-15593571D01*
X10157381Y-15612619D01*
X10147857Y-15641190D01*
X10033571Y-15755476D01*
X10157381Y-15755476D01*
X10243095Y-15736428D02*
X10252619Y-15745952D01*
X10243095Y-15755476D01*
X10233571Y-15745952D01*
X10243095Y-15736428D01*
X10243095Y-15755476D01*
X10328810Y-15574524D02*
X10338333Y-15565000D01*
X10357381Y-15555476D01*
X10405000Y-15555476D01*
X10424048Y-15565000D01*
X10433571Y-15574524D01*
X10443095Y-15593571D01*
X10443095Y-15612619D01*
X10433571Y-15641190D01*
X10319286Y-15755476D01*
X10443095Y-15755476D01*
X10557381Y-15641190D02*
X10538333Y-15631667D01*
X10528810Y-15622143D01*
X10519286Y-15603095D01*
X10519286Y-15593571D01*
X10528810Y-15574524D01*
X10538333Y-15565000D01*
X10557381Y-15555476D01*
X10595476Y-15555476D01*
X10614524Y-15565000D01*
X10624048Y-15574524D01*
X10633571Y-15593571D01*
X10633571Y-15603095D01*
X10624048Y-15622143D01*
X10614524Y-15631667D01*
X10595476Y-15641190D01*
X10557381Y-15641190D01*
X10538333Y-15650714D01*
X10528810Y-15660238D01*
X10519286Y-15679286D01*
X10519286Y-15717381D01*
X10528810Y-15736428D01*
X10538333Y-15745952D01*
X10557381Y-15755476D01*
X10595476Y-15755476D01*
X10614524Y-15745952D01*
X10624048Y-15736428D01*
X10633571Y-15717381D01*
X10633571Y-15679286D01*
X10624048Y-15660238D01*
X10614524Y-15650714D01*
X10595476Y-15641190D01*
X10805000Y-15555476D02*
X10766905Y-15555476D01*
X10747857Y-15565000D01*
X10738333Y-15574524D01*
X10719286Y-15603095D01*
X10709762Y-15641190D01*
X10709762Y-15717381D01*
X10719286Y-15736428D01*
X10728810Y-15745952D01*
X10747857Y-15755476D01*
X10785952Y-15755476D01*
X10805000Y-15745952D01*
X10814524Y-15736428D01*
X10824048Y-15717381D01*
X10824048Y-15669762D01*
X10814524Y-15650714D01*
X10805000Y-15641190D01*
X10785952Y-15631667D01*
X10747857Y-15631667D01*
X10728810Y-15641190D01*
X10719286Y-15650714D01*
X10709762Y-15669762D01*
X10909762Y-15755476D02*
X10909762Y-15622143D01*
X10909762Y-15641190D02*
X10919286Y-15631667D01*
X10938333Y-15622143D01*
X10966905Y-15622143D01*
X10985952Y-15631667D01*
X10995476Y-15650714D01*
X10995476Y-15755476D01*
X10995476Y-15650714D02*
X11005000Y-15631667D01*
X11024048Y-15622143D01*
X11052619Y-15622143D01*
X11071667Y-15631667D01*
X11081190Y-15650714D01*
X11081190Y-15755476D01*
X11176429Y-15755476D02*
X11176429Y-15622143D01*
X11176429Y-15641190D02*
X11185952Y-15631667D01*
X11205000Y-15622143D01*
X11233571Y-15622143D01*
X11252619Y-15631667D01*
X11262143Y-15650714D01*
X11262143Y-15755476D01*
X11262143Y-15650714D02*
X11271667Y-15631667D01*
X11290714Y-15622143D01*
X11319286Y-15622143D01*
X11338333Y-15631667D01*
X11347857Y-15650714D01*
X11347857Y-15755476D01*
X11738333Y-15545952D02*
X11566905Y-15803095D01*
X11995476Y-15555476D02*
X12014524Y-15555476D01*
X12033571Y-15565000D01*
X12043095Y-15574524D01*
X12052619Y-15593571D01*
X12062143Y-15631667D01*
X12062143Y-15679286D01*
X12052619Y-15717381D01*
X12043095Y-15736428D01*
X12033571Y-15745952D01*
X12014524Y-15755476D01*
X11995476Y-15755476D01*
X11976428Y-15745952D01*
X11966905Y-15736428D01*
X11957381Y-15717381D01*
X11947857Y-15679286D01*
X11947857Y-15631667D01*
X11957381Y-15593571D01*
X11966905Y-15574524D01*
X11976428Y-15565000D01*
X11995476Y-15555476D01*
X12147857Y-15736428D02*
X12157381Y-15745952D01*
X12147857Y-15755476D01*
X12138333Y-15745952D01*
X12147857Y-15736428D01*
X12147857Y-15755476D01*
X12281190Y-15555476D02*
X12300238Y-15555476D01*
X12319286Y-15565000D01*
X12328809Y-15574524D01*
X12338333Y-15593571D01*
X12347857Y-15631667D01*
X12347857Y-15679286D01*
X12338333Y-15717381D01*
X12328809Y-15736428D01*
X12319286Y-15745952D01*
X12300238Y-15755476D01*
X12281190Y-15755476D01*
X12262143Y-15745952D01*
X12252619Y-15736428D01*
X12243095Y-15717381D01*
X12233571Y-15679286D01*
X12233571Y-15631667D01*
X12243095Y-15593571D01*
X12252619Y-15574524D01*
X12262143Y-15565000D01*
X12281190Y-15555476D01*
X12443095Y-15755476D02*
X12481190Y-15755476D01*
X12500238Y-15745952D01*
X12509762Y-15736428D01*
X12528809Y-15707857D01*
X12538333Y-15669762D01*
X12538333Y-15593571D01*
X12528809Y-15574524D01*
X12519286Y-15565000D01*
X12500238Y-15555476D01*
X12462143Y-15555476D01*
X12443095Y-15565000D01*
X12433571Y-15574524D01*
X12424048Y-15593571D01*
X12424048Y-15641190D01*
X12433571Y-15660238D01*
X12443095Y-15669762D01*
X12462143Y-15679286D01*
X12500238Y-15679286D01*
X12519286Y-15669762D01*
X12528809Y-15660238D01*
X12538333Y-15641190D01*
X12662143Y-15555476D02*
X12681190Y-15555476D01*
X12700238Y-15565000D01*
X12709762Y-15574524D01*
X12719286Y-15593571D01*
X12728809Y-15631667D01*
X12728809Y-15679286D01*
X12719286Y-15717381D01*
X12709762Y-15736428D01*
X12700238Y-15745952D01*
X12681190Y-15755476D01*
X12662143Y-15755476D01*
X12643095Y-15745952D01*
X12633571Y-15736428D01*
X12624048Y-15717381D01*
X12614524Y-15679286D01*
X12614524Y-15631667D01*
X12624048Y-15593571D01*
X12633571Y-15574524D01*
X12643095Y-15565000D01*
X12662143Y-15555476D01*
X12852619Y-15555476D02*
X12871667Y-15555476D01*
X12890714Y-15565000D01*
X12900238Y-15574524D01*
X12909762Y-15593571D01*
X12919286Y-15631667D01*
X12919286Y-15679286D01*
X12909762Y-15717381D01*
X12900238Y-15736428D01*
X12890714Y-15745952D01*
X12871667Y-15755476D01*
X12852619Y-15755476D01*
X12833571Y-15745952D01*
X12824048Y-15736428D01*
X12814524Y-15717381D01*
X12805000Y-15679286D01*
X12805000Y-15631667D01*
X12814524Y-15593571D01*
X12824048Y-15574524D01*
X12833571Y-15565000D01*
X12852619Y-15555476D01*
X12995476Y-15555476D02*
X12995476Y-15593571D01*
X13071667Y-15555476D02*
X13071667Y-15593571D01*
X13366905Y-15831667D02*
X13357381Y-15822143D01*
X13338333Y-15793571D01*
X13328809Y-15774524D01*
X13319286Y-15745952D01*
X13309762Y-15698333D01*
X13309762Y-15660238D01*
X13319286Y-15612619D01*
X13328809Y-15584048D01*
X13338333Y-15565000D01*
X13357381Y-15536428D01*
X13366905Y-15526905D01*
X13424048Y-15555476D02*
X13547857Y-15555476D01*
X13481190Y-15631667D01*
X13509762Y-15631667D01*
X13528809Y-15641190D01*
X13538333Y-15650714D01*
X13547857Y-15669762D01*
X13547857Y-15717381D01*
X13538333Y-15736428D01*
X13528809Y-15745952D01*
X13509762Y-15755476D01*
X13452619Y-15755476D01*
X13433571Y-15745952D01*
X13424048Y-15736428D01*
X13785952Y-15755476D02*
X13785952Y-15555476D01*
X13871667Y-15755476D02*
X13871667Y-15650714D01*
X13862143Y-15631667D01*
X13843095Y-15622143D01*
X13814524Y-15622143D01*
X13795476Y-15631667D01*
X13785952Y-15641190D01*
X13995476Y-15755476D02*
X13976428Y-15745952D01*
X13966905Y-15736428D01*
X13957381Y-15717381D01*
X13957381Y-15660238D01*
X13966905Y-15641190D01*
X13976428Y-15631667D01*
X13995476Y-15622143D01*
X14024048Y-15622143D01*
X14043095Y-15631667D01*
X14052619Y-15641190D01*
X14062143Y-15660238D01*
X14062143Y-15717381D01*
X14052619Y-15736428D01*
X14043095Y-15745952D01*
X14024048Y-15755476D01*
X13995476Y-15755476D01*
X14176428Y-15755476D02*
X14157381Y-15745952D01*
X14147857Y-15726905D01*
X14147857Y-15555476D01*
X14328809Y-15745952D02*
X14309762Y-15755476D01*
X14271667Y-15755476D01*
X14252619Y-15745952D01*
X14243095Y-15726905D01*
X14243095Y-15650714D01*
X14252619Y-15631667D01*
X14271667Y-15622143D01*
X14309762Y-15622143D01*
X14328809Y-15631667D01*
X14338333Y-15650714D01*
X14338333Y-15669762D01*
X14243095Y-15688809D01*
X14414524Y-15745952D02*
X14433571Y-15755476D01*
X14471667Y-15755476D01*
X14490714Y-15745952D01*
X14500238Y-15726905D01*
X14500238Y-15717381D01*
X14490714Y-15698333D01*
X14471667Y-15688809D01*
X14443095Y-15688809D01*
X14424048Y-15679286D01*
X14414524Y-15660238D01*
X14414524Y-15650714D01*
X14424048Y-15631667D01*
X14443095Y-15622143D01*
X14471667Y-15622143D01*
X14490714Y-15631667D01*
X14566905Y-15831667D02*
X14576428Y-15822143D01*
X14595476Y-15793571D01*
X14605000Y-15774524D01*
X14614524Y-15745952D01*
X14624048Y-15698333D01*
X14624048Y-15660238D01*
X14614524Y-15612619D01*
X14605000Y-15584048D01*
X14595476Y-15565000D01*
X14576428Y-15536428D01*
X14566905Y-15526905D01*
X9595000Y-15885000D02*
X9795000Y-16085000D01*
X9795000Y-15885000D02*
X9595000Y-16085000D01*
X9695000Y-15885000D02*
X9695000Y-16085000D01*
X9595000Y-15985000D02*
X9795000Y-15985000D01*
X10138333Y-15942143D02*
X10138333Y-16075476D01*
X10090714Y-15865952D02*
X10043095Y-16008809D01*
X10166905Y-16008809D01*
X10243095Y-16056428D02*
X10252619Y-16065952D01*
X10243095Y-16075476D01*
X10233571Y-16065952D01*
X10243095Y-16056428D01*
X10243095Y-16075476D01*
X10319286Y-15875476D02*
X10443095Y-15875476D01*
X10376429Y-15951667D01*
X10405000Y-15951667D01*
X10424048Y-15961190D01*
X10433571Y-15970714D01*
X10443095Y-15989762D01*
X10443095Y-16037381D01*
X10433571Y-16056428D01*
X10424048Y-16065952D01*
X10405000Y-16075476D01*
X10347857Y-16075476D01*
X10328810Y-16065952D01*
X10319286Y-16056428D01*
X10566905Y-15875476D02*
X10585952Y-15875476D01*
X10605000Y-15885000D01*
X10614524Y-15894524D01*
X10624048Y-15913571D01*
X10633571Y-15951667D01*
X10633571Y-15999286D01*
X10624048Y-16037381D01*
X10614524Y-16056428D01*
X10605000Y-16065952D01*
X10585952Y-16075476D01*
X10566905Y-16075476D01*
X10547857Y-16065952D01*
X10538333Y-16056428D01*
X10528810Y-16037381D01*
X10519286Y-15999286D01*
X10519286Y-15951667D01*
X10528810Y-15913571D01*
X10538333Y-15894524D01*
X10547857Y-15885000D01*
X10566905Y-15875476D01*
X10757381Y-15875476D02*
X10776429Y-15875476D01*
X10795476Y-15885000D01*
X10805000Y-15894524D01*
X10814524Y-15913571D01*
X10824048Y-15951667D01*
X10824048Y-15999286D01*
X10814524Y-16037381D01*
X10805000Y-16056428D01*
X10795476Y-16065952D01*
X10776429Y-16075476D01*
X10757381Y-16075476D01*
X10738333Y-16065952D01*
X10728810Y-16056428D01*
X10719286Y-16037381D01*
X10709762Y-15999286D01*
X10709762Y-15951667D01*
X10719286Y-15913571D01*
X10728810Y-15894524D01*
X10738333Y-15885000D01*
X10757381Y-15875476D01*
X10909762Y-16075476D02*
X10909762Y-15942143D01*
X10909762Y-15961190D02*
X10919286Y-15951667D01*
X10938333Y-15942143D01*
X10966905Y-15942143D01*
X10985952Y-15951667D01*
X10995476Y-15970714D01*
X10995476Y-16075476D01*
X10995476Y-15970714D02*
X11005000Y-15951667D01*
X11024048Y-15942143D01*
X11052619Y-15942143D01*
X11071667Y-15951667D01*
X11081190Y-15970714D01*
X11081190Y-16075476D01*
X11176429Y-16075476D02*
X11176429Y-15942143D01*
X11176429Y-15961190D02*
X11185952Y-15951667D01*
X11205000Y-15942143D01*
X11233571Y-15942143D01*
X11252619Y-15951667D01*
X11262143Y-15970714D01*
X11262143Y-16075476D01*
X11262143Y-15970714D02*
X11271667Y-15951667D01*
X11290714Y-15942143D01*
X11319286Y-15942143D01*
X11338333Y-15951667D01*
X11347857Y-15970714D01*
X11347857Y-16075476D01*
X11738333Y-15865952D02*
X11566905Y-16123095D01*
X11995476Y-15875476D02*
X12014524Y-15875476D01*
X12033571Y-15885000D01*
X12043095Y-15894524D01*
X12052619Y-15913571D01*
X12062143Y-15951667D01*
X12062143Y-15999286D01*
X12052619Y-16037381D01*
X12043095Y-16056428D01*
X12033571Y-16065952D01*
X12014524Y-16075476D01*
X11995476Y-16075476D01*
X11976428Y-16065952D01*
X11966905Y-16056428D01*
X11957381Y-16037381D01*
X11947857Y-15999286D01*
X11947857Y-15951667D01*
X11957381Y-15913571D01*
X11966905Y-15894524D01*
X11976428Y-15885000D01*
X11995476Y-15875476D01*
X12147857Y-16056428D02*
X12157381Y-16065952D01*
X12147857Y-16075476D01*
X12138333Y-16065952D01*
X12147857Y-16056428D01*
X12147857Y-16075476D01*
X12347857Y-16075476D02*
X12233571Y-16075476D01*
X12290714Y-16075476D02*
X12290714Y-15875476D01*
X12271667Y-15904048D01*
X12252619Y-15923095D01*
X12233571Y-15932619D01*
X12519286Y-15875476D02*
X12481190Y-15875476D01*
X12462143Y-15885000D01*
X12452619Y-15894524D01*
X12433571Y-15923095D01*
X12424048Y-15961190D01*
X12424048Y-16037381D01*
X12433571Y-16056428D01*
X12443095Y-16065952D01*
X12462143Y-16075476D01*
X12500238Y-16075476D01*
X12519286Y-16065952D01*
X12528809Y-16056428D01*
X12538333Y-16037381D01*
X12538333Y-15989762D01*
X12528809Y-15970714D01*
X12519286Y-15961190D01*
X12500238Y-15951667D01*
X12462143Y-15951667D01*
X12443095Y-15961190D01*
X12433571Y-15970714D01*
X12424048Y-15989762D01*
X12633571Y-16075476D02*
X12671667Y-16075476D01*
X12690714Y-16065952D01*
X12700238Y-16056428D01*
X12719286Y-16027857D01*
X12728809Y-15989762D01*
X12728809Y-15913571D01*
X12719286Y-15894524D01*
X12709762Y-15885000D01*
X12690714Y-15875476D01*
X12652619Y-15875476D01*
X12633571Y-15885000D01*
X12624048Y-15894524D01*
X12614524Y-15913571D01*
X12614524Y-15961190D01*
X12624048Y-15980238D01*
X12633571Y-15989762D01*
X12652619Y-15999286D01*
X12690714Y-15999286D01*
X12709762Y-15989762D01*
X12719286Y-15980238D01*
X12728809Y-15961190D01*
X12795476Y-15875476D02*
X12919286Y-15875476D01*
X12852619Y-15951667D01*
X12881190Y-15951667D01*
X12900238Y-15961190D01*
X12909762Y-15970714D01*
X12919286Y-15989762D01*
X12919286Y-16037381D01*
X12909762Y-16056428D01*
X12900238Y-16065952D01*
X12881190Y-16075476D01*
X12824048Y-16075476D01*
X12805000Y-16065952D01*
X12795476Y-16056428D01*
X12995476Y-15875476D02*
X12995476Y-15913571D01*
X13071667Y-15875476D02*
X13071667Y-15913571D01*
X13366905Y-16151667D02*
X13357381Y-16142143D01*
X13338333Y-16113571D01*
X13328809Y-16094524D01*
X13319286Y-16065952D01*
X13309762Y-16018333D01*
X13309762Y-15980238D01*
X13319286Y-15932619D01*
X13328809Y-15904048D01*
X13338333Y-15885000D01*
X13357381Y-15856428D01*
X13366905Y-15846905D01*
X13424048Y-15875476D02*
X13547857Y-15875476D01*
X13481190Y-15951667D01*
X13509762Y-15951667D01*
X13528809Y-15961190D01*
X13538333Y-15970714D01*
X13547857Y-15989762D01*
X13547857Y-16037381D01*
X13538333Y-16056428D01*
X13528809Y-16065952D01*
X13509762Y-16075476D01*
X13452619Y-16075476D01*
X13433571Y-16065952D01*
X13424048Y-16056428D01*
X13785952Y-16075476D02*
X13785952Y-15875476D01*
X13871667Y-16075476D02*
X13871667Y-15970714D01*
X13862143Y-15951667D01*
X13843095Y-15942143D01*
X13814524Y-15942143D01*
X13795476Y-15951667D01*
X13785952Y-15961190D01*
X13995476Y-16075476D02*
X13976428Y-16065952D01*
X13966905Y-16056428D01*
X13957381Y-16037381D01*
X13957381Y-15980238D01*
X13966905Y-15961190D01*
X13976428Y-15951667D01*
X13995476Y-15942143D01*
X14024048Y-15942143D01*
X14043095Y-15951667D01*
X14052619Y-15961190D01*
X14062143Y-15980238D01*
X14062143Y-16037381D01*
X14052619Y-16056428D01*
X14043095Y-16065952D01*
X14024048Y-16075476D01*
X13995476Y-16075476D01*
X14176428Y-16075476D02*
X14157381Y-16065952D01*
X14147857Y-16046905D01*
X14147857Y-15875476D01*
X14328809Y-16065952D02*
X14309762Y-16075476D01*
X14271667Y-16075476D01*
X14252619Y-16065952D01*
X14243095Y-16046905D01*
X14243095Y-15970714D01*
X14252619Y-15951667D01*
X14271667Y-15942143D01*
X14309762Y-15942143D01*
X14328809Y-15951667D01*
X14338333Y-15970714D01*
X14338333Y-15989762D01*
X14243095Y-16008809D01*
X14414524Y-16065952D02*
X14433571Y-16075476D01*
X14471667Y-16075476D01*
X14490714Y-16065952D01*
X14500238Y-16046905D01*
X14500238Y-16037381D01*
X14490714Y-16018333D01*
X14471667Y-16008809D01*
X14443095Y-16008809D01*
X14424048Y-15999286D01*
X14414524Y-15980238D01*
X14414524Y-15970714D01*
X14424048Y-15951667D01*
X14443095Y-15942143D01*
X14471667Y-15942143D01*
X14490714Y-15951667D01*
X14566905Y-16151667D02*
X14576428Y-16142143D01*
X14595476Y-16113571D01*
X14605000Y-16094524D01*
X14614524Y-16065952D01*
X14624048Y-16018333D01*
X14624048Y-15980238D01*
X14614524Y-15932619D01*
X14605000Y-15904048D01*
X14595476Y-15885000D01*
X14576428Y-15856428D01*
X14566905Y-15846905D01*
X9595000Y-16205000D02*
X9795000Y-16405000D01*
X9795000Y-16205000D02*
X9595000Y-16405000D01*
X9765711Y-16375711D02*
X9765711Y-16234289D01*
X9624289Y-16234289D01*
X9624289Y-16375711D01*
X9765711Y-16375711D01*
X10138333Y-16262143D02*
X10138333Y-16395476D01*
X10090714Y-16185952D02*
X10043095Y-16328809D01*
X10166905Y-16328809D01*
X10243095Y-16376428D02*
X10252619Y-16385952D01*
X10243095Y-16395476D01*
X10233571Y-16385952D01*
X10243095Y-16376428D01*
X10243095Y-16395476D01*
X10433571Y-16195476D02*
X10338333Y-16195476D01*
X10328810Y-16290714D01*
X10338333Y-16281190D01*
X10357381Y-16271667D01*
X10405000Y-16271667D01*
X10424048Y-16281190D01*
X10433571Y-16290714D01*
X10443095Y-16309762D01*
X10443095Y-16357381D01*
X10433571Y-16376428D01*
X10424048Y-16385952D01*
X10405000Y-16395476D01*
X10357381Y-16395476D01*
X10338333Y-16385952D01*
X10328810Y-16376428D01*
X10566905Y-16195476D02*
X10585952Y-16195476D01*
X10605000Y-16205000D01*
X10614524Y-16214524D01*
X10624048Y-16233571D01*
X10633571Y-16271667D01*
X10633571Y-16319286D01*
X10624048Y-16357381D01*
X10614524Y-16376428D01*
X10605000Y-16385952D01*
X10585952Y-16395476D01*
X10566905Y-16395476D01*
X10547857Y-16385952D01*
X10538333Y-16376428D01*
X10528810Y-16357381D01*
X10519286Y-16319286D01*
X10519286Y-16271667D01*
X10528810Y-16233571D01*
X10538333Y-16214524D01*
X10547857Y-16205000D01*
X10566905Y-16195476D01*
X10757381Y-16195476D02*
X10776429Y-16195476D01*
X10795476Y-16205000D01*
X10805000Y-16214524D01*
X10814524Y-16233571D01*
X10824048Y-16271667D01*
X10824048Y-16319286D01*
X10814524Y-16357381D01*
X10805000Y-16376428D01*
X10795476Y-16385952D01*
X10776429Y-16395476D01*
X10757381Y-16395476D01*
X10738333Y-16385952D01*
X10728810Y-16376428D01*
X10719286Y-16357381D01*
X10709762Y-16319286D01*
X10709762Y-16271667D01*
X10719286Y-16233571D01*
X10728810Y-16214524D01*
X10738333Y-16205000D01*
X10757381Y-16195476D01*
X10909762Y-16395476D02*
X10909762Y-16262143D01*
X10909762Y-16281190D02*
X10919286Y-16271667D01*
X10938333Y-16262143D01*
X10966905Y-16262143D01*
X10985952Y-16271667D01*
X10995476Y-16290714D01*
X10995476Y-16395476D01*
X10995476Y-16290714D02*
X11005000Y-16271667D01*
X11024048Y-16262143D01*
X11052619Y-16262143D01*
X11071667Y-16271667D01*
X11081190Y-16290714D01*
X11081190Y-16395476D01*
X11176429Y-16395476D02*
X11176429Y-16262143D01*
X11176429Y-16281190D02*
X11185952Y-16271667D01*
X11205000Y-16262143D01*
X11233571Y-16262143D01*
X11252619Y-16271667D01*
X11262143Y-16290714D01*
X11262143Y-16395476D01*
X11262143Y-16290714D02*
X11271667Y-16271667D01*
X11290714Y-16262143D01*
X11319286Y-16262143D01*
X11338333Y-16271667D01*
X11347857Y-16290714D01*
X11347857Y-16395476D01*
X11738333Y-16185952D02*
X11566905Y-16443095D01*
X11995476Y-16195476D02*
X12014524Y-16195476D01*
X12033571Y-16205000D01*
X12043095Y-16214524D01*
X12052619Y-16233571D01*
X12062143Y-16271667D01*
X12062143Y-16319286D01*
X12052619Y-16357381D01*
X12043095Y-16376428D01*
X12033571Y-16385952D01*
X12014524Y-16395476D01*
X11995476Y-16395476D01*
X11976428Y-16385952D01*
X11966905Y-16376428D01*
X11957381Y-16357381D01*
X11947857Y-16319286D01*
X11947857Y-16271667D01*
X11957381Y-16233571D01*
X11966905Y-16214524D01*
X11976428Y-16205000D01*
X11995476Y-16195476D01*
X12147857Y-16376428D02*
X12157381Y-16385952D01*
X12147857Y-16395476D01*
X12138333Y-16385952D01*
X12147857Y-16376428D01*
X12147857Y-16395476D01*
X12347857Y-16395476D02*
X12233571Y-16395476D01*
X12290714Y-16395476D02*
X12290714Y-16195476D01*
X12271667Y-16224048D01*
X12252619Y-16243095D01*
X12233571Y-16252619D01*
X12414524Y-16195476D02*
X12547857Y-16195476D01*
X12462143Y-16395476D01*
X12605000Y-16195476D02*
X12738333Y-16195476D01*
X12652619Y-16395476D01*
X12805000Y-16214524D02*
X12814524Y-16205000D01*
X12833571Y-16195476D01*
X12881190Y-16195476D01*
X12900238Y-16205000D01*
X12909762Y-16214524D01*
X12919286Y-16233571D01*
X12919286Y-16252619D01*
X12909762Y-16281190D01*
X12795476Y-16395476D01*
X12919286Y-16395476D01*
X12995476Y-16195476D02*
X12995476Y-16233571D01*
X13071667Y-16195476D02*
X13071667Y-16233571D01*
X13366905Y-16471667D02*
X13357381Y-16462143D01*
X13338333Y-16433571D01*
X13328809Y-16414524D01*
X13319286Y-16385952D01*
X13309762Y-16338333D01*
X13309762Y-16300238D01*
X13319286Y-16252619D01*
X13328809Y-16224048D01*
X13338333Y-16205000D01*
X13357381Y-16176428D01*
X13366905Y-16166905D01*
X13433571Y-16214524D02*
X13443095Y-16205000D01*
X13462143Y-16195476D01*
X13509762Y-16195476D01*
X13528809Y-16205000D01*
X13538333Y-16214524D01*
X13547857Y-16233571D01*
X13547857Y-16252619D01*
X13538333Y-16281190D01*
X13424048Y-16395476D01*
X13547857Y-16395476D01*
X13785952Y-16395476D02*
X13785952Y-16195476D01*
X13871667Y-16395476D02*
X13871667Y-16290714D01*
X13862143Y-16271667D01*
X13843095Y-16262143D01*
X13814524Y-16262143D01*
X13795476Y-16271667D01*
X13785952Y-16281190D01*
X13995476Y-16395476D02*
X13976428Y-16385952D01*
X13966905Y-16376428D01*
X13957381Y-16357381D01*
X13957381Y-16300238D01*
X13966905Y-16281190D01*
X13976428Y-16271667D01*
X13995476Y-16262143D01*
X14024048Y-16262143D01*
X14043095Y-16271667D01*
X14052619Y-16281190D01*
X14062143Y-16300238D01*
X14062143Y-16357381D01*
X14052619Y-16376428D01*
X14043095Y-16385952D01*
X14024048Y-16395476D01*
X13995476Y-16395476D01*
X14176428Y-16395476D02*
X14157381Y-16385952D01*
X14147857Y-16366905D01*
X14147857Y-16195476D01*
X14328809Y-16385952D02*
X14309762Y-16395476D01*
X14271667Y-16395476D01*
X14252619Y-16385952D01*
X14243095Y-16366905D01*
X14243095Y-16290714D01*
X14252619Y-16271667D01*
X14271667Y-16262143D01*
X14309762Y-16262143D01*
X14328809Y-16271667D01*
X14338333Y-16290714D01*
X14338333Y-16309762D01*
X14243095Y-16328809D01*
X14414524Y-16385952D02*
X14433571Y-16395476D01*
X14471667Y-16395476D01*
X14490714Y-16385952D01*
X14500238Y-16366905D01*
X14500238Y-16357381D01*
X14490714Y-16338333D01*
X14471667Y-16328809D01*
X14443095Y-16328809D01*
X14424048Y-16319286D01*
X14414524Y-16300238D01*
X14414524Y-16290714D01*
X14424048Y-16271667D01*
X14443095Y-16262143D01*
X14471667Y-16262143D01*
X14490714Y-16271667D01*
X14566905Y-16471667D02*
X14576428Y-16462143D01*
X14595476Y-16433571D01*
X14605000Y-16414524D01*
X14614524Y-16385952D01*
X14624048Y-16338333D01*
X14624048Y-16300238D01*
X14614524Y-16252619D01*
X14605000Y-16224048D01*
X14595476Y-16205000D01*
X14576428Y-16176428D01*
X14566905Y-16166905D01*
X9595000Y-16525000D02*
X9795000Y-16725000D01*
X9795000Y-16525000D02*
X9595000Y-16725000D01*
X9695000Y-16725000D02*
X9795000Y-16625000D01*
X9695000Y-16525000D01*
X9595000Y-16625000D01*
X9695000Y-16725000D01*
X10147857Y-16515476D02*
X10052619Y-16515476D01*
X10043095Y-16610714D01*
X10052619Y-16601190D01*
X10071667Y-16591667D01*
X10119286Y-16591667D01*
X10138333Y-16601190D01*
X10147857Y-16610714D01*
X10157381Y-16629762D01*
X10157381Y-16677381D01*
X10147857Y-16696428D01*
X10138333Y-16705952D01*
X10119286Y-16715476D01*
X10071667Y-16715476D01*
X10052619Y-16705952D01*
X10043095Y-16696428D01*
X10243095Y-16696428D02*
X10252619Y-16705952D01*
X10243095Y-16715476D01*
X10233571Y-16705952D01*
X10243095Y-16696428D01*
X10243095Y-16715476D01*
X10376429Y-16515476D02*
X10395476Y-16515476D01*
X10414524Y-16525000D01*
X10424048Y-16534524D01*
X10433571Y-16553571D01*
X10443095Y-16591667D01*
X10443095Y-16639286D01*
X10433571Y-16677381D01*
X10424048Y-16696428D01*
X10414524Y-16705952D01*
X10395476Y-16715476D01*
X10376429Y-16715476D01*
X10357381Y-16705952D01*
X10347857Y-16696428D01*
X10338333Y-16677381D01*
X10328810Y-16639286D01*
X10328810Y-16591667D01*
X10338333Y-16553571D01*
X10347857Y-16534524D01*
X10357381Y-16525000D01*
X10376429Y-16515476D01*
X10566905Y-16515476D02*
X10585952Y-16515476D01*
X10605000Y-16525000D01*
X10614524Y-16534524D01*
X10624048Y-16553571D01*
X10633571Y-16591667D01*
X10633571Y-16639286D01*
X10624048Y-16677381D01*
X10614524Y-16696428D01*
X10605000Y-16705952D01*
X10585952Y-16715476D01*
X10566905Y-16715476D01*
X10547857Y-16705952D01*
X10538333Y-16696428D01*
X10528810Y-16677381D01*
X10519286Y-16639286D01*
X10519286Y-16591667D01*
X10528810Y-16553571D01*
X10538333Y-16534524D01*
X10547857Y-16525000D01*
X10566905Y-16515476D01*
X10757381Y-16515476D02*
X10776429Y-16515476D01*
X10795476Y-16525000D01*
X10805000Y-16534524D01*
X10814524Y-16553571D01*
X10824048Y-16591667D01*
X10824048Y-16639286D01*
X10814524Y-16677381D01*
X10805000Y-16696428D01*
X10795476Y-16705952D01*
X10776429Y-16715476D01*
X10757381Y-16715476D01*
X10738333Y-16705952D01*
X10728810Y-16696428D01*
X10719286Y-16677381D01*
X10709762Y-16639286D01*
X10709762Y-16591667D01*
X10719286Y-16553571D01*
X10728810Y-16534524D01*
X10738333Y-16525000D01*
X10757381Y-16515476D01*
X10909762Y-16715476D02*
X10909762Y-16582143D01*
X10909762Y-16601190D02*
X10919286Y-16591667D01*
X10938333Y-16582143D01*
X10966905Y-16582143D01*
X10985952Y-16591667D01*
X10995476Y-16610714D01*
X10995476Y-16715476D01*
X10995476Y-16610714D02*
X11005000Y-16591667D01*
X11024048Y-16582143D01*
X11052619Y-16582143D01*
X11071667Y-16591667D01*
X11081190Y-16610714D01*
X11081190Y-16715476D01*
X11176429Y-16715476D02*
X11176429Y-16582143D01*
X11176429Y-16601190D02*
X11185952Y-16591667D01*
X11205000Y-16582143D01*
X11233571Y-16582143D01*
X11252619Y-16591667D01*
X11262143Y-16610714D01*
X11262143Y-16715476D01*
X11262143Y-16610714D02*
X11271667Y-16591667D01*
X11290714Y-16582143D01*
X11319286Y-16582143D01*
X11338333Y-16591667D01*
X11347857Y-16610714D01*
X11347857Y-16715476D01*
X11738333Y-16505952D02*
X11566905Y-16763095D01*
X11995476Y-16515476D02*
X12014524Y-16515476D01*
X12033571Y-16525000D01*
X12043095Y-16534524D01*
X12052619Y-16553571D01*
X12062143Y-16591667D01*
X12062143Y-16639286D01*
X12052619Y-16677381D01*
X12043095Y-16696428D01*
X12033571Y-16705952D01*
X12014524Y-16715476D01*
X11995476Y-16715476D01*
X11976428Y-16705952D01*
X11966905Y-16696428D01*
X11957381Y-16677381D01*
X11947857Y-16639286D01*
X11947857Y-16591667D01*
X11957381Y-16553571D01*
X11966905Y-16534524D01*
X11976428Y-16525000D01*
X11995476Y-16515476D01*
X12147857Y-16696428D02*
X12157381Y-16705952D01*
X12147857Y-16715476D01*
X12138333Y-16705952D01*
X12147857Y-16696428D01*
X12147857Y-16715476D01*
X12347857Y-16715476D02*
X12233571Y-16715476D01*
X12290714Y-16715476D02*
X12290714Y-16515476D01*
X12271667Y-16544048D01*
X12252619Y-16563095D01*
X12233571Y-16572619D01*
X12443095Y-16715476D02*
X12481190Y-16715476D01*
X12500238Y-16705952D01*
X12509762Y-16696428D01*
X12528809Y-16667857D01*
X12538333Y-16629762D01*
X12538333Y-16553571D01*
X12528809Y-16534524D01*
X12519286Y-16525000D01*
X12500238Y-16515476D01*
X12462143Y-16515476D01*
X12443095Y-16525000D01*
X12433571Y-16534524D01*
X12424048Y-16553571D01*
X12424048Y-16601190D01*
X12433571Y-16620238D01*
X12443095Y-16629762D01*
X12462143Y-16639286D01*
X12500238Y-16639286D01*
X12519286Y-16629762D01*
X12528809Y-16620238D01*
X12538333Y-16601190D01*
X12709762Y-16515476D02*
X12671667Y-16515476D01*
X12652619Y-16525000D01*
X12643095Y-16534524D01*
X12624048Y-16563095D01*
X12614524Y-16601190D01*
X12614524Y-16677381D01*
X12624048Y-16696428D01*
X12633571Y-16705952D01*
X12652619Y-16715476D01*
X12690714Y-16715476D01*
X12709762Y-16705952D01*
X12719286Y-16696428D01*
X12728809Y-16677381D01*
X12728809Y-16629762D01*
X12719286Y-16610714D01*
X12709762Y-16601190D01*
X12690714Y-16591667D01*
X12652619Y-16591667D01*
X12633571Y-16601190D01*
X12624048Y-16610714D01*
X12614524Y-16629762D01*
X12824048Y-16715476D02*
X12862143Y-16715476D01*
X12881190Y-16705952D01*
X12890714Y-16696428D01*
X12909762Y-16667857D01*
X12919286Y-16629762D01*
X12919286Y-16553571D01*
X12909762Y-16534524D01*
X12900238Y-16525000D01*
X12881190Y-16515476D01*
X12843095Y-16515476D01*
X12824048Y-16525000D01*
X12814524Y-16534524D01*
X12805000Y-16553571D01*
X12805000Y-16601190D01*
X12814524Y-16620238D01*
X12824048Y-16629762D01*
X12843095Y-16639286D01*
X12881190Y-16639286D01*
X12900238Y-16629762D01*
X12909762Y-16620238D01*
X12919286Y-16601190D01*
X12995476Y-16515476D02*
X12995476Y-16553571D01*
X13071667Y-16515476D02*
X13071667Y-16553571D01*
X13366905Y-16791667D02*
X13357381Y-16782143D01*
X13338333Y-16753571D01*
X13328809Y-16734524D01*
X13319286Y-16705952D01*
X13309762Y-16658333D01*
X13309762Y-16620238D01*
X13319286Y-16572619D01*
X13328809Y-16544048D01*
X13338333Y-16525000D01*
X13357381Y-16496428D01*
X13366905Y-16486905D01*
X13433571Y-16534524D02*
X13443095Y-16525000D01*
X13462143Y-16515476D01*
X13509762Y-16515476D01*
X13528809Y-16525000D01*
X13538333Y-16534524D01*
X13547857Y-16553571D01*
X13547857Y-16572619D01*
X13538333Y-16601190D01*
X13424048Y-16715476D01*
X13547857Y-16715476D01*
X13785952Y-16715476D02*
X13785952Y-16515476D01*
X13871667Y-16715476D02*
X13871667Y-16610714D01*
X13862143Y-16591667D01*
X13843095Y-16582143D01*
X13814524Y-16582143D01*
X13795476Y-16591667D01*
X13785952Y-16601190D01*
X13995476Y-16715476D02*
X13976428Y-16705952D01*
X13966905Y-16696428D01*
X13957381Y-16677381D01*
X13957381Y-16620238D01*
X13966905Y-16601190D01*
X13976428Y-16591667D01*
X13995476Y-16582143D01*
X14024048Y-16582143D01*
X14043095Y-16591667D01*
X14052619Y-16601190D01*
X14062143Y-16620238D01*
X14062143Y-16677381D01*
X14052619Y-16696428D01*
X14043095Y-16705952D01*
X14024048Y-16715476D01*
X13995476Y-16715476D01*
X14176428Y-16715476D02*
X14157381Y-16705952D01*
X14147857Y-16686905D01*
X14147857Y-16515476D01*
X14328809Y-16705952D02*
X14309762Y-16715476D01*
X14271667Y-16715476D01*
X14252619Y-16705952D01*
X14243095Y-16686905D01*
X14243095Y-16610714D01*
X14252619Y-16591667D01*
X14271667Y-16582143D01*
X14309762Y-16582143D01*
X14328809Y-16591667D01*
X14338333Y-16610714D01*
X14338333Y-16629762D01*
X14243095Y-16648809D01*
X14414524Y-16705952D02*
X14433571Y-16715476D01*
X14471667Y-16715476D01*
X14490714Y-16705952D01*
X14500238Y-16686905D01*
X14500238Y-16677381D01*
X14490714Y-16658333D01*
X14471667Y-16648809D01*
X14443095Y-16648809D01*
X14424048Y-16639286D01*
X14414524Y-16620238D01*
X14414524Y-16610714D01*
X14424048Y-16591667D01*
X14443095Y-16582143D01*
X14471667Y-16582143D01*
X14490714Y-16591667D01*
X14566905Y-16791667D02*
X14576428Y-16782143D01*
X14595476Y-16753571D01*
X14605000Y-16734524D01*
X14614524Y-16705952D01*
X14624048Y-16658333D01*
X14624048Y-16620238D01*
X14614524Y-16572619D01*
X14605000Y-16544048D01*
X14595476Y-16525000D01*
X14576428Y-16496428D01*
X14566905Y-16486905D01*
M02*
