%TF.GenerationSoftware,KiCad,Pcbnew,(6.0.9)*%
%TF.CreationDate,2022-12-10T13:22:27-05:00*%
%TF.ProjectId,Team5_Coaster,5465616d-355f-4436-9f61-737465722e6b,rev?*%
%TF.SameCoordinates,Original*%
%TF.FileFunction,Drillmap*%
%TF.FilePolarity,Positive*%
%FSLAX45Y45*%
G04 Gerber Fmt 4.5, Leading zero omitted, Abs format (unit mm)*
G04 Created by KiCad (PCBNEW (6.0.9)) date 2022-12-10 13:22:27*
%MOMM*%
%LPD*%
G01*
G04 APERTURE LIST*
%ADD10C,0.100000*%
%ADD11C,0.200000*%
G04 APERTURE END LIST*
D10*
X10300000Y-5100000D02*
G75*
G03*
X9800000Y-5600000I0J-500000D01*
G01*
X14700000Y-13700000D02*
G75*
G03*
X15200000Y-13200000I0J500000D01*
G01*
X9800000Y-13200000D02*
G75*
G03*
X10300000Y-13700000I500000J0D01*
G01*
X14700000Y-5100000D02*
X10300000Y-5100000D01*
X15200000Y-13200000D02*
X15200000Y-5600000D01*
X9800000Y-5600000D02*
X9800000Y-13200000D01*
X10300000Y-13700000D02*
X14700000Y-13700000D01*
X15200000Y-5600000D02*
G75*
G03*
X14700000Y-5100000I-500000J0D01*
G01*
D11*
X10052619Y-14015476D02*
X10052619Y-13815476D01*
X10100238Y-13815476D01*
X10128810Y-13825000D01*
X10147857Y-13844048D01*
X10157381Y-13863095D01*
X10166905Y-13901190D01*
X10166905Y-13929762D01*
X10157381Y-13967857D01*
X10147857Y-13986905D01*
X10128810Y-14005952D01*
X10100238Y-14015476D01*
X10052619Y-14015476D01*
X10252619Y-14015476D02*
X10252619Y-13882143D01*
X10252619Y-13920238D02*
X10262143Y-13901190D01*
X10271667Y-13891667D01*
X10290714Y-13882143D01*
X10309762Y-13882143D01*
X10376429Y-14015476D02*
X10376429Y-13882143D01*
X10376429Y-13815476D02*
X10366905Y-13825000D01*
X10376429Y-13834524D01*
X10385952Y-13825000D01*
X10376429Y-13815476D01*
X10376429Y-13834524D01*
X10500238Y-14015476D02*
X10481190Y-14005952D01*
X10471667Y-13986905D01*
X10471667Y-13815476D01*
X10605000Y-14015476D02*
X10585952Y-14005952D01*
X10576429Y-13986905D01*
X10576429Y-13815476D01*
X10833571Y-14015476D02*
X10833571Y-13815476D01*
X10900238Y-13958333D01*
X10966905Y-13815476D01*
X10966905Y-14015476D01*
X11147857Y-14015476D02*
X11147857Y-13910714D01*
X11138333Y-13891667D01*
X11119286Y-13882143D01*
X11081190Y-13882143D01*
X11062143Y-13891667D01*
X11147857Y-14005952D02*
X11128810Y-14015476D01*
X11081190Y-14015476D01*
X11062143Y-14005952D01*
X11052619Y-13986905D01*
X11052619Y-13967857D01*
X11062143Y-13948809D01*
X11081190Y-13939286D01*
X11128810Y-13939286D01*
X11147857Y-13929762D01*
X11243095Y-13882143D02*
X11243095Y-14082143D01*
X11243095Y-13891667D02*
X11262143Y-13882143D01*
X11300238Y-13882143D01*
X11319286Y-13891667D01*
X11328809Y-13901190D01*
X11338333Y-13920238D01*
X11338333Y-13977381D01*
X11328809Y-13996428D01*
X11319286Y-14005952D01*
X11300238Y-14015476D01*
X11262143Y-14015476D01*
X11243095Y-14005952D01*
X11424048Y-13996428D02*
X11433571Y-14005952D01*
X11424048Y-14015476D01*
X11414524Y-14005952D01*
X11424048Y-13996428D01*
X11424048Y-14015476D01*
X11424048Y-13891667D02*
X11433571Y-13901190D01*
X11424048Y-13910714D01*
X11414524Y-13901190D01*
X11424048Y-13891667D01*
X11424048Y-13910714D01*
M02*
