%TF.GenerationSoftware,KiCad,Pcbnew,(6.0.9)*%
%TF.CreationDate,2022-12-10T13:22:31-05:00*%
%TF.ProjectId,Team5_Coaster,5465616d-355f-4436-9f61-737465722e6b,rev?*%
%TF.SameCoordinates,Original*%
%TF.FileFunction,Legend,Top*%
%TF.FilePolarity,Positive*%
%FSLAX46Y46*%
G04 Gerber Fmt 4.6, Leading zero omitted, Abs format (unit mm)*
G04 Created by KiCad (PCBNEW (6.0.9)) date 2022-12-10 13:22:31*
%MOMM*%
%LPD*%
G01*
G04 APERTURE LIST*
%ADD10C,0.250000*%
%ADD11C,0.150000*%
%ADD12C,0.120000*%
%ADD13C,0.100000*%
G04 APERTURE END LIST*
D10*
X127523809Y-133452380D02*
X127714285Y-133452380D01*
X127809523Y-133500000D01*
X127904761Y-133595238D01*
X127952380Y-133785714D01*
X127952380Y-134119047D01*
X127904761Y-134309523D01*
X127809523Y-134404761D01*
X127714285Y-134452380D01*
X127523809Y-134452380D01*
X127428571Y-134404761D01*
X127333333Y-134309523D01*
X127285714Y-134119047D01*
X127285714Y-133785714D01*
X127333333Y-133595238D01*
X127428571Y-133500000D01*
X127523809Y-133452380D01*
X128380952Y-134452380D02*
X128380952Y-133785714D01*
X128380952Y-133880952D02*
X128428571Y-133833333D01*
X128523809Y-133785714D01*
X128666666Y-133785714D01*
X128761904Y-133833333D01*
X128809523Y-133928571D01*
X128809523Y-134452380D01*
X128809523Y-133928571D02*
X128857142Y-133833333D01*
X128952380Y-133785714D01*
X129095238Y-133785714D01*
X129190476Y-133833333D01*
X129238095Y-133928571D01*
X129238095Y-134452380D01*
X130142857Y-134452380D02*
X130142857Y-133928571D01*
X130095238Y-133833333D01*
X130000000Y-133785714D01*
X129809523Y-133785714D01*
X129714285Y-133833333D01*
X130142857Y-134404761D02*
X130047619Y-134452380D01*
X129809523Y-134452380D01*
X129714285Y-134404761D01*
X129666666Y-134309523D01*
X129666666Y-134214285D01*
X129714285Y-134119047D01*
X129809523Y-134071428D01*
X130047619Y-134071428D01*
X130142857Y-134023809D01*
X130619047Y-134452380D02*
X130619047Y-133785714D01*
X130619047Y-133976190D02*
X130666666Y-133880952D01*
X130714285Y-133833333D01*
X130809523Y-133785714D01*
X130904761Y-133785714D01*
X131952380Y-134166666D02*
X132428571Y-134166666D01*
X131857142Y-134452380D02*
X132190476Y-133452380D01*
X132523809Y-134452380D01*
X132857142Y-134452380D02*
X132857142Y-133785714D01*
X132857142Y-133976190D02*
X132904761Y-133880952D01*
X132952380Y-133833333D01*
X133047619Y-133785714D01*
X133142857Y-133785714D01*
X133857142Y-134404761D02*
X133761904Y-134452380D01*
X133571428Y-134452380D01*
X133476190Y-134404761D01*
X133428571Y-134309523D01*
X133428571Y-133928571D01*
X133476190Y-133833333D01*
X133571428Y-133785714D01*
X133761904Y-133785714D01*
X133857142Y-133833333D01*
X133904761Y-133928571D01*
X133904761Y-134023809D01*
X133428571Y-134119047D01*
X134333333Y-134452380D02*
X134333333Y-133785714D01*
X134333333Y-133452380D02*
X134285714Y-133500000D01*
X134333333Y-133547619D01*
X134380952Y-133500000D01*
X134333333Y-133452380D01*
X134333333Y-133547619D01*
X135238095Y-133785714D02*
X135238095Y-134785714D01*
X135238095Y-134404761D02*
X135142857Y-134452380D01*
X134952380Y-134452380D01*
X134857142Y-134404761D01*
X134809523Y-134357142D01*
X134761904Y-134261904D01*
X134761904Y-133976190D01*
X134809523Y-133880952D01*
X134857142Y-133833333D01*
X134952380Y-133785714D01*
X135142857Y-133785714D01*
X135238095Y-133833333D01*
X136142857Y-134452380D02*
X136142857Y-133928571D01*
X136095238Y-133833333D01*
X136000000Y-133785714D01*
X135809523Y-133785714D01*
X135714285Y-133833333D01*
X136142857Y-134404761D02*
X136047619Y-134452380D01*
X135809523Y-134452380D01*
X135714285Y-134404761D01*
X135666666Y-134309523D01*
X135666666Y-134214285D01*
X135714285Y-134119047D01*
X135809523Y-134071428D01*
X136047619Y-134071428D01*
X136142857Y-134023809D01*
X136476190Y-133785714D02*
X136857142Y-133785714D01*
X136619047Y-133452380D02*
X136619047Y-134309523D01*
X136666666Y-134404761D01*
X136761904Y-134452380D01*
X136857142Y-134452380D01*
X137904761Y-134404761D02*
X138047619Y-134452380D01*
X138285714Y-134452380D01*
X138380952Y-134404761D01*
X138428571Y-134357142D01*
X138476190Y-134261904D01*
X138476190Y-134166666D01*
X138428571Y-134071428D01*
X138380952Y-134023809D01*
X138285714Y-133976190D01*
X138095238Y-133928571D01*
X138000000Y-133880952D01*
X137952380Y-133833333D01*
X137904761Y-133738095D01*
X137904761Y-133642857D01*
X137952380Y-133547619D01*
X138000000Y-133500000D01*
X138095238Y-133452380D01*
X138333333Y-133452380D01*
X138476190Y-133500000D01*
X138904761Y-134452380D02*
X138904761Y-133452380D01*
X139142857Y-133452380D01*
X139285714Y-133500000D01*
X139380952Y-133595238D01*
X139428571Y-133690476D01*
X139476190Y-133880952D01*
X139476190Y-134023809D01*
X139428571Y-134214285D01*
X139380952Y-134309523D01*
X139285714Y-134404761D01*
X139142857Y-134452380D01*
X138904761Y-134452380D01*
X139904761Y-134452380D02*
X139904761Y-133452380D01*
X140285714Y-133452380D01*
X140380952Y-133500000D01*
X140428571Y-133547619D01*
X140476190Y-133642857D01*
X140476190Y-133785714D01*
X140428571Y-133880952D01*
X140380952Y-133928571D01*
X140285714Y-133976190D01*
X139904761Y-133976190D01*
X140857142Y-133547619D02*
X140904761Y-133500000D01*
X141000000Y-133452380D01*
X141238095Y-133452380D01*
X141333333Y-133500000D01*
X141380952Y-133547619D01*
X141428571Y-133642857D01*
X141428571Y-133738095D01*
X141380952Y-133880952D01*
X140809523Y-134452380D01*
X141428571Y-134452380D01*
X141761904Y-133452380D02*
X142380952Y-133452380D01*
X142047619Y-133833333D01*
X142190476Y-133833333D01*
X142285714Y-133880952D01*
X142333333Y-133928571D01*
X142380952Y-134023809D01*
X142380952Y-134261904D01*
X142333333Y-134357142D01*
X142285714Y-134404761D01*
X142190476Y-134452380D01*
X141904761Y-134452380D01*
X141809523Y-134404761D01*
X141761904Y-134357142D01*
X143428571Y-133452380D02*
X144000000Y-133452380D01*
X143714285Y-134452380D02*
X143714285Y-133452380D01*
X144714285Y-134404761D02*
X144619047Y-134452380D01*
X144428571Y-134452380D01*
X144333333Y-134404761D01*
X144285714Y-134309523D01*
X144285714Y-133928571D01*
X144333333Y-133833333D01*
X144428571Y-133785714D01*
X144619047Y-133785714D01*
X144714285Y-133833333D01*
X144761904Y-133928571D01*
X144761904Y-134023809D01*
X144285714Y-134119047D01*
X145619047Y-134452380D02*
X145619047Y-133928571D01*
X145571428Y-133833333D01*
X145476190Y-133785714D01*
X145285714Y-133785714D01*
X145190476Y-133833333D01*
X145619047Y-134404761D02*
X145523809Y-134452380D01*
X145285714Y-134452380D01*
X145190476Y-134404761D01*
X145142857Y-134309523D01*
X145142857Y-134214285D01*
X145190476Y-134119047D01*
X145285714Y-134071428D01*
X145523809Y-134071428D01*
X145619047Y-134023809D01*
X146095238Y-134452380D02*
X146095238Y-133785714D01*
X146095238Y-133880952D02*
X146142857Y-133833333D01*
X146238095Y-133785714D01*
X146380952Y-133785714D01*
X146476190Y-133833333D01*
X146523809Y-133928571D01*
X146523809Y-134452380D01*
X146523809Y-133928571D02*
X146571428Y-133833333D01*
X146666666Y-133785714D01*
X146809523Y-133785714D01*
X146904761Y-133833333D01*
X146952380Y-133928571D01*
X146952380Y-134452380D01*
X148666666Y-133452380D02*
X148190476Y-133452380D01*
X148142857Y-133928571D01*
X148190476Y-133880952D01*
X148285714Y-133833333D01*
X148523809Y-133833333D01*
X148619047Y-133880952D01*
X148666666Y-133928571D01*
X148714285Y-134023809D01*
X148714285Y-134261904D01*
X148666666Y-134357142D01*
X148619047Y-134404761D01*
X148523809Y-134452380D01*
X148285714Y-134452380D01*
X148190476Y-134404761D01*
X148142857Y-134357142D01*
D11*
%TO.C,RF1*%
X146404761Y-64882380D02*
X146071428Y-64406190D01*
X145833333Y-64882380D02*
X145833333Y-63882380D01*
X146214285Y-63882380D01*
X146309523Y-63930000D01*
X146357142Y-63977619D01*
X146404761Y-64072857D01*
X146404761Y-64215714D01*
X146357142Y-64310952D01*
X146309523Y-64358571D01*
X146214285Y-64406190D01*
X145833333Y-64406190D01*
X147166666Y-64358571D02*
X146833333Y-64358571D01*
X146833333Y-64882380D02*
X146833333Y-63882380D01*
X147309523Y-63882380D01*
X148214285Y-64882380D02*
X147642857Y-64882380D01*
X147928571Y-64882380D02*
X147928571Y-63882380D01*
X147833333Y-64025238D01*
X147738095Y-64120476D01*
X147642857Y-64168095D01*
X143904761Y-78042380D02*
X143904761Y-77042380D01*
X144142857Y-77042380D01*
X144285714Y-77090000D01*
X144380952Y-77185238D01*
X144428571Y-77280476D01*
X144476190Y-77470952D01*
X144476190Y-77613809D01*
X144428571Y-77804285D01*
X144380952Y-77899523D01*
X144285714Y-77994761D01*
X144142857Y-78042380D01*
X143904761Y-78042380D01*
X145476190Y-78042380D02*
X145142857Y-77566190D01*
X144904761Y-78042380D02*
X144904761Y-77042380D01*
X145285714Y-77042380D01*
X145380952Y-77090000D01*
X145428571Y-77137619D01*
X145476190Y-77232857D01*
X145476190Y-77375714D01*
X145428571Y-77470952D01*
X145380952Y-77518571D01*
X145285714Y-77566190D01*
X144904761Y-77566190D01*
X145761904Y-77042380D02*
X146095238Y-78042380D01*
X146428571Y-77042380D01*
X146904761Y-77470952D02*
X146809523Y-77423333D01*
X146761904Y-77375714D01*
X146714285Y-77280476D01*
X146714285Y-77232857D01*
X146761904Y-77137619D01*
X146809523Y-77090000D01*
X146904761Y-77042380D01*
X147095238Y-77042380D01*
X147190476Y-77090000D01*
X147238095Y-77137619D01*
X147285714Y-77232857D01*
X147285714Y-77280476D01*
X147238095Y-77375714D01*
X147190476Y-77423333D01*
X147095238Y-77470952D01*
X146904761Y-77470952D01*
X146809523Y-77518571D01*
X146761904Y-77566190D01*
X146714285Y-77661428D01*
X146714285Y-77851904D01*
X146761904Y-77947142D01*
X146809523Y-77994761D01*
X146904761Y-78042380D01*
X147095238Y-78042380D01*
X147190476Y-77994761D01*
X147238095Y-77947142D01*
X147285714Y-77851904D01*
X147285714Y-77661428D01*
X147238095Y-77566190D01*
X147190476Y-77518571D01*
X147095238Y-77470952D01*
X147857142Y-77470952D02*
X147761904Y-77423333D01*
X147714285Y-77375714D01*
X147666666Y-77280476D01*
X147666666Y-77232857D01*
X147714285Y-77137619D01*
X147761904Y-77090000D01*
X147857142Y-77042380D01*
X148047619Y-77042380D01*
X148142857Y-77090000D01*
X148190476Y-77137619D01*
X148238095Y-77232857D01*
X148238095Y-77280476D01*
X148190476Y-77375714D01*
X148142857Y-77423333D01*
X148047619Y-77470952D01*
X147857142Y-77470952D01*
X147761904Y-77518571D01*
X147714285Y-77566190D01*
X147666666Y-77661428D01*
X147666666Y-77851904D01*
X147714285Y-77947142D01*
X147761904Y-77994761D01*
X147857142Y-78042380D01*
X148047619Y-78042380D01*
X148142857Y-77994761D01*
X148190476Y-77947142D01*
X148238095Y-77851904D01*
X148238095Y-77661428D01*
X148190476Y-77566190D01*
X148142857Y-77518571D01*
X148047619Y-77470952D01*
X148571428Y-77042380D02*
X149238095Y-77042380D01*
X148809523Y-78042380D01*
X150142857Y-78042380D02*
X149571428Y-78042380D01*
X149857142Y-78042380D02*
X149857142Y-77042380D01*
X149761904Y-77185238D01*
X149666666Y-77280476D01*
X149571428Y-77328095D01*
%TO.C,H1*%
X123238095Y-92152380D02*
X123238095Y-91152380D01*
X123238095Y-91628571D02*
X123809523Y-91628571D01*
X123809523Y-92152380D02*
X123809523Y-91152380D01*
X124809523Y-92152380D02*
X124238095Y-92152380D01*
X124523809Y-92152380D02*
X124523809Y-91152380D01*
X124428571Y-91295238D01*
X124333333Y-91390476D01*
X124238095Y-91438095D01*
%TO.C,SW1*%
X126404761Y-124333333D02*
X126452380Y-124190476D01*
X126452380Y-123952380D01*
X126404761Y-123857142D01*
X126357142Y-123809523D01*
X126261904Y-123761904D01*
X126166666Y-123761904D01*
X126071428Y-123809523D01*
X126023809Y-123857142D01*
X125976190Y-123952380D01*
X125928571Y-124142857D01*
X125880952Y-124238095D01*
X125833333Y-124285714D01*
X125738095Y-124333333D01*
X125642857Y-124333333D01*
X125547619Y-124285714D01*
X125500000Y-124238095D01*
X125452380Y-124142857D01*
X125452380Y-123904761D01*
X125500000Y-123761904D01*
X125452380Y-123428571D02*
X126452380Y-123190476D01*
X125738095Y-123000000D01*
X126452380Y-122809523D01*
X125452380Y-122571428D01*
X126452380Y-121666666D02*
X126452380Y-122238095D01*
X126452380Y-121952380D02*
X125452380Y-121952380D01*
X125595238Y-122047619D01*
X125690476Y-122142857D01*
X125738095Y-122238095D01*
X116904761Y-129345238D02*
X116952380Y-129202380D01*
X116952380Y-128964285D01*
X116904761Y-128869047D01*
X116857142Y-128821428D01*
X116761904Y-128773809D01*
X116666666Y-128773809D01*
X116571428Y-128821428D01*
X116523809Y-128869047D01*
X116476190Y-128964285D01*
X116428571Y-129154761D01*
X116380952Y-129250000D01*
X116333333Y-129297619D01*
X116238095Y-129345238D01*
X116142857Y-129345238D01*
X116047619Y-129297619D01*
X116000000Y-129250000D01*
X115952380Y-129154761D01*
X115952380Y-128916666D01*
X116000000Y-128773809D01*
X115952380Y-128440476D02*
X116952380Y-128202380D01*
X116238095Y-128011904D01*
X116952380Y-127821428D01*
X115952380Y-127583333D01*
X117047619Y-127440476D02*
X117047619Y-126678571D01*
X116904761Y-126488095D02*
X116952380Y-126345238D01*
X116952380Y-126107142D01*
X116904761Y-126011904D01*
X116857142Y-125964285D01*
X116761904Y-125916666D01*
X116666666Y-125916666D01*
X116571428Y-125964285D01*
X116523809Y-126011904D01*
X116476190Y-126107142D01*
X116428571Y-126297619D01*
X116380952Y-126392857D01*
X116333333Y-126440476D01*
X116238095Y-126488095D01*
X116142857Y-126488095D01*
X116047619Y-126440476D01*
X116000000Y-126392857D01*
X115952380Y-126297619D01*
X115952380Y-126059523D01*
X116000000Y-125916666D01*
X116952380Y-125488095D02*
X115952380Y-125488095D01*
X115952380Y-125107142D01*
X116000000Y-125011904D01*
X116047619Y-124964285D01*
X116142857Y-124916666D01*
X116285714Y-124916666D01*
X116380952Y-124964285D01*
X116428571Y-125011904D01*
X116476190Y-125107142D01*
X116476190Y-125488095D01*
X116952380Y-124488095D02*
X115952380Y-124488095D01*
X115952380Y-124250000D01*
X116000000Y-124107142D01*
X116095238Y-124011904D01*
X116190476Y-123964285D01*
X116380952Y-123916666D01*
X116523809Y-123916666D01*
X116714285Y-123964285D01*
X116809523Y-124011904D01*
X116904761Y-124107142D01*
X116952380Y-124250000D01*
X116952380Y-124488095D01*
X115952380Y-123630952D02*
X115952380Y-123059523D01*
X116952380Y-123345238D02*
X115952380Y-123345238D01*
%TO.C,J13*%
X117222380Y-54809523D02*
X117936666Y-54809523D01*
X118079523Y-54857142D01*
X118174761Y-54952380D01*
X118222380Y-55095238D01*
X118222380Y-55190476D01*
X118222380Y-53809523D02*
X118222380Y-54380952D01*
X118222380Y-54095238D02*
X117222380Y-54095238D01*
X117365238Y-54190476D01*
X117460476Y-54285714D01*
X117508095Y-54380952D01*
X117222380Y-53476190D02*
X117222380Y-52857142D01*
X117603333Y-53190476D01*
X117603333Y-53047619D01*
X117650952Y-52952380D01*
X117698571Y-52904761D01*
X117793809Y-52857142D01*
X118031904Y-52857142D01*
X118127142Y-52904761D01*
X118174761Y-52952380D01*
X118222380Y-53047619D01*
X118222380Y-53333333D01*
X118174761Y-53428571D01*
X118127142Y-53476190D01*
X109142380Y-55190476D02*
X109142380Y-54571428D01*
X109523333Y-54904761D01*
X109523333Y-54761904D01*
X109570952Y-54666666D01*
X109618571Y-54619047D01*
X109713809Y-54571428D01*
X109951904Y-54571428D01*
X110047142Y-54619047D01*
X110094761Y-54666666D01*
X110142380Y-54761904D01*
X110142380Y-55047619D01*
X110094761Y-55142857D01*
X110047142Y-55190476D01*
X109475714Y-54238095D02*
X110142380Y-54000000D01*
X109475714Y-53761904D01*
X109142380Y-53476190D02*
X109142380Y-52857142D01*
X109523333Y-53190476D01*
X109523333Y-53047619D01*
X109570952Y-52952380D01*
X109618571Y-52904761D01*
X109713809Y-52857142D01*
X109951904Y-52857142D01*
X110047142Y-52904761D01*
X110094761Y-52952380D01*
X110142380Y-53047619D01*
X110142380Y-53333333D01*
X110094761Y-53428571D01*
X110047142Y-53476190D01*
%TO.C,J4*%
X139222380Y-54333333D02*
X139936666Y-54333333D01*
X140079523Y-54380952D01*
X140174761Y-54476190D01*
X140222380Y-54619047D01*
X140222380Y-54714285D01*
X139555714Y-53428571D02*
X140222380Y-53428571D01*
X139174761Y-53666666D02*
X139889047Y-53904761D01*
X139889047Y-53285714D01*
X131618571Y-54952380D02*
X131666190Y-54809523D01*
X131713809Y-54761904D01*
X131809047Y-54714285D01*
X131951904Y-54714285D01*
X132047142Y-54761904D01*
X132094761Y-54809523D01*
X132142380Y-54904761D01*
X132142380Y-55285714D01*
X131142380Y-55285714D01*
X131142380Y-54952380D01*
X131190000Y-54857142D01*
X131237619Y-54809523D01*
X131332857Y-54761904D01*
X131428095Y-54761904D01*
X131523333Y-54809523D01*
X131570952Y-54857142D01*
X131618571Y-54952380D01*
X131618571Y-55285714D01*
X132142380Y-53857142D02*
X131618571Y-53857142D01*
X131523333Y-53904761D01*
X131475714Y-54000000D01*
X131475714Y-54190476D01*
X131523333Y-54285714D01*
X132094761Y-53857142D02*
X132142380Y-53952380D01*
X132142380Y-54190476D01*
X132094761Y-54285714D01*
X131999523Y-54333333D01*
X131904285Y-54333333D01*
X131809047Y-54285714D01*
X131761428Y-54190476D01*
X131761428Y-53952380D01*
X131713809Y-53857142D01*
X131475714Y-53523809D02*
X131475714Y-53142857D01*
X131142380Y-53380952D02*
X131999523Y-53380952D01*
X132094761Y-53333333D01*
X132142380Y-53238095D01*
X132142380Y-53142857D01*
X131475714Y-52952380D02*
X131475714Y-52571428D01*
X131142380Y-52809523D02*
X131999523Y-52809523D01*
X132094761Y-52761904D01*
X132142380Y-52666666D01*
X132142380Y-52571428D01*
%TO.C,Z1*%
X142190476Y-119852380D02*
X142857142Y-119852380D01*
X142190476Y-120852380D01*
X142857142Y-120852380D01*
X143761904Y-120852380D02*
X143190476Y-120852380D01*
X143476190Y-120852380D02*
X143476190Y-119852380D01*
X143380952Y-119995238D01*
X143285714Y-120090476D01*
X143190476Y-120138095D01*
%TO.C,D3*%
X149272380Y-129138095D02*
X148272380Y-129138095D01*
X148272380Y-128900000D01*
X148320000Y-128757142D01*
X148415238Y-128661904D01*
X148510476Y-128614285D01*
X148700952Y-128566666D01*
X148843809Y-128566666D01*
X149034285Y-128614285D01*
X149129523Y-128661904D01*
X149224761Y-128757142D01*
X149272380Y-128900000D01*
X149272380Y-129138095D01*
X148272380Y-128233333D02*
X148272380Y-127614285D01*
X148653333Y-127947619D01*
X148653333Y-127804761D01*
X148700952Y-127709523D01*
X148748571Y-127661904D01*
X148843809Y-127614285D01*
X149081904Y-127614285D01*
X149177142Y-127661904D01*
X149224761Y-127709523D01*
X149272380Y-127804761D01*
X149272380Y-128090476D01*
X149224761Y-128185714D01*
X149177142Y-128233333D01*
X145632380Y-129042857D02*
X145632380Y-129519047D01*
X144632380Y-129519047D01*
X145108571Y-128709523D02*
X145108571Y-128376190D01*
X145632380Y-128233333D02*
X145632380Y-128709523D01*
X144632380Y-128709523D01*
X144632380Y-128233333D01*
X145632380Y-127804761D02*
X144632380Y-127804761D01*
X144632380Y-127566666D01*
X144680000Y-127423809D01*
X144775238Y-127328571D01*
X144870476Y-127280952D01*
X145060952Y-127233333D01*
X145203809Y-127233333D01*
X145394285Y-127280952D01*
X145489523Y-127328571D01*
X145584761Y-127423809D01*
X145632380Y-127566666D01*
X145632380Y-127804761D01*
%TO.C,D1*%
X135722380Y-124738095D02*
X134722380Y-124738095D01*
X134722380Y-124500000D01*
X134770000Y-124357142D01*
X134865238Y-124261904D01*
X134960476Y-124214285D01*
X135150952Y-124166666D01*
X135293809Y-124166666D01*
X135484285Y-124214285D01*
X135579523Y-124261904D01*
X135674761Y-124357142D01*
X135722380Y-124500000D01*
X135722380Y-124738095D01*
X135722380Y-123214285D02*
X135722380Y-123785714D01*
X135722380Y-123500000D02*
X134722380Y-123500000D01*
X134865238Y-123595238D01*
X134960476Y-123690476D01*
X135008095Y-123785714D01*
X128952380Y-127809523D02*
X127952380Y-127809523D01*
X127952380Y-127571428D01*
X128000000Y-127428571D01*
X128095238Y-127333333D01*
X128190476Y-127285714D01*
X128380952Y-127238095D01*
X128523809Y-127238095D01*
X128714285Y-127285714D01*
X128809523Y-127333333D01*
X128904761Y-127428571D01*
X128952380Y-127571428D01*
X128952380Y-127809523D01*
X129047619Y-127047619D02*
X129047619Y-126285714D01*
X128904761Y-126095238D02*
X128952380Y-125952380D01*
X128952380Y-125714285D01*
X128904761Y-125619047D01*
X128857142Y-125571428D01*
X128761904Y-125523809D01*
X128666666Y-125523809D01*
X128571428Y-125571428D01*
X128523809Y-125619047D01*
X128476190Y-125714285D01*
X128428571Y-125904761D01*
X128380952Y-126000000D01*
X128333333Y-126047619D01*
X128238095Y-126095238D01*
X128142857Y-126095238D01*
X128047619Y-126047619D01*
X128000000Y-126000000D01*
X127952380Y-125904761D01*
X127952380Y-125666666D01*
X128000000Y-125523809D01*
X128904761Y-124666666D02*
X128952380Y-124761904D01*
X128952380Y-124952380D01*
X128904761Y-125047619D01*
X128857142Y-125095238D01*
X128761904Y-125142857D01*
X128476190Y-125142857D01*
X128380952Y-125095238D01*
X128333333Y-125047619D01*
X128285714Y-124952380D01*
X128285714Y-124761904D01*
X128333333Y-124666666D01*
X128952380Y-124238095D02*
X127952380Y-124238095D01*
X128952380Y-123809523D02*
X128428571Y-123809523D01*
X128333333Y-123857142D01*
X128285714Y-123952380D01*
X128285714Y-124095238D01*
X128333333Y-124190476D01*
X128380952Y-124238095D01*
X128952380Y-123190476D02*
X128904761Y-123285714D01*
X128857142Y-123333333D01*
X128761904Y-123380952D01*
X128476190Y-123380952D01*
X128380952Y-123333333D01*
X128333333Y-123285714D01*
X128285714Y-123190476D01*
X128285714Y-123047619D01*
X128333333Y-122952380D01*
X128380952Y-122904761D01*
X128476190Y-122857142D01*
X128761904Y-122857142D01*
X128857142Y-122904761D01*
X128904761Y-122952380D01*
X128952380Y-123047619D01*
X128952380Y-123190476D01*
X128285714Y-122571428D02*
X128285714Y-122190476D01*
X127952380Y-122428571D02*
X128809523Y-122428571D01*
X128904761Y-122380952D01*
X128952380Y-122285714D01*
X128952380Y-122190476D01*
X128285714Y-122000000D02*
X128285714Y-121619047D01*
X127952380Y-121857142D02*
X128809523Y-121857142D01*
X128904761Y-121809523D01*
X128952380Y-121714285D01*
X128952380Y-121619047D01*
X128952380Y-121285714D02*
X127952380Y-121285714D01*
X128571428Y-121190476D02*
X128952380Y-120904761D01*
X128285714Y-120904761D02*
X128666666Y-121285714D01*
X128285714Y-120571428D02*
X128952380Y-120333333D01*
X128285714Y-120095238D02*
X128952380Y-120333333D01*
X129190476Y-120428571D01*
X129238095Y-120476190D01*
X129285714Y-120571428D01*
%TO.C,H2*%
X146238095Y-62452380D02*
X146238095Y-61452380D01*
X146238095Y-61928571D02*
X146809523Y-61928571D01*
X146809523Y-62452380D02*
X146809523Y-61452380D01*
X147238095Y-61547619D02*
X147285714Y-61500000D01*
X147380952Y-61452380D01*
X147619047Y-61452380D01*
X147714285Y-61500000D01*
X147761904Y-61547619D01*
X147809523Y-61642857D01*
X147809523Y-61738095D01*
X147761904Y-61880952D01*
X147190476Y-62452380D01*
X147809523Y-62452380D01*
%TO.C,C1*%
X144333333Y-107107142D02*
X144285714Y-107154761D01*
X144142857Y-107202380D01*
X144047619Y-107202380D01*
X143904761Y-107154761D01*
X143809523Y-107059523D01*
X143761904Y-106964285D01*
X143714285Y-106773809D01*
X143714285Y-106630952D01*
X143761904Y-106440476D01*
X143809523Y-106345238D01*
X143904761Y-106250000D01*
X144047619Y-106202380D01*
X144142857Y-106202380D01*
X144285714Y-106250000D01*
X144333333Y-106297619D01*
X145285714Y-107202380D02*
X144714285Y-107202380D01*
X145000000Y-107202380D02*
X145000000Y-106202380D01*
X144904761Y-106345238D01*
X144809523Y-106440476D01*
X144714285Y-106488095D01*
%TO.C,J5*%
X123666666Y-69504380D02*
X123666666Y-70218666D01*
X123619047Y-70361523D01*
X123523809Y-70456761D01*
X123380952Y-70504380D01*
X123285714Y-70504380D01*
X124619047Y-69504380D02*
X124142857Y-69504380D01*
X124095238Y-69980571D01*
X124142857Y-69932952D01*
X124238095Y-69885333D01*
X124476190Y-69885333D01*
X124571428Y-69932952D01*
X124619047Y-69980571D01*
X124666666Y-70075809D01*
X124666666Y-70313904D01*
X124619047Y-70409142D01*
X124571428Y-70456761D01*
X124476190Y-70504380D01*
X124238095Y-70504380D01*
X124142857Y-70456761D01*
X124095238Y-70409142D01*
%TO.C,U2*%
X123778095Y-81182380D02*
X123778095Y-81991904D01*
X123825714Y-82087142D01*
X123873333Y-82134761D01*
X123968571Y-82182380D01*
X124159047Y-82182380D01*
X124254285Y-82134761D01*
X124301904Y-82087142D01*
X124349523Y-81991904D01*
X124349523Y-81182380D01*
X124778095Y-81277619D02*
X124825714Y-81230000D01*
X124920952Y-81182380D01*
X125159047Y-81182380D01*
X125254285Y-81230000D01*
X125301904Y-81277619D01*
X125349523Y-81372857D01*
X125349523Y-81468095D01*
X125301904Y-81610952D01*
X124730476Y-82182380D01*
X125349523Y-82182380D01*
%TO.C,J2*%
X116357380Y-114308333D02*
X117071666Y-114308333D01*
X117214523Y-114355952D01*
X117309761Y-114451190D01*
X117357380Y-114594047D01*
X117357380Y-114689285D01*
X116452619Y-113879761D02*
X116405000Y-113832142D01*
X116357380Y-113736904D01*
X116357380Y-113498809D01*
X116405000Y-113403571D01*
X116452619Y-113355952D01*
X116547857Y-113308333D01*
X116643095Y-113308333D01*
X116785952Y-113355952D01*
X117357380Y-113927380D01*
X117357380Y-113308333D01*
X123642857Y-117452380D02*
X123642857Y-116452380D01*
X123642857Y-116928571D02*
X124214285Y-116928571D01*
X124214285Y-117452380D02*
X124214285Y-116452380D01*
X125261904Y-117357142D02*
X125214285Y-117404761D01*
X125071428Y-117452380D01*
X124976190Y-117452380D01*
X124833333Y-117404761D01*
X124738095Y-117309523D01*
X124690476Y-117214285D01*
X124642857Y-117023809D01*
X124642857Y-116880952D01*
X124690476Y-116690476D01*
X124738095Y-116595238D01*
X124833333Y-116500000D01*
X124976190Y-116452380D01*
X125071428Y-116452380D01*
X125214285Y-116500000D01*
X125261904Y-116547619D01*
X125690476Y-117071428D02*
X126452380Y-117071428D01*
X127119047Y-116452380D02*
X127214285Y-116452380D01*
X127309523Y-116500000D01*
X127357142Y-116547619D01*
X127404761Y-116642857D01*
X127452380Y-116833333D01*
X127452380Y-117071428D01*
X127404761Y-117261904D01*
X127357142Y-117357142D01*
X127309523Y-117404761D01*
X127214285Y-117452380D01*
X127119047Y-117452380D01*
X127023809Y-117404761D01*
X126976190Y-117357142D01*
X126928571Y-117261904D01*
X126880952Y-117071428D01*
X126880952Y-116833333D01*
X126928571Y-116642857D01*
X126976190Y-116547619D01*
X127023809Y-116500000D01*
X127119047Y-116452380D01*
X128357142Y-116452380D02*
X127880952Y-116452380D01*
X127833333Y-116928571D01*
X127880952Y-116880952D01*
X127976190Y-116833333D01*
X128214285Y-116833333D01*
X128309523Y-116880952D01*
X128357142Y-116928571D01*
X128404761Y-117023809D01*
X128404761Y-117261904D01*
X128357142Y-117357142D01*
X128309523Y-117404761D01*
X128214285Y-117452380D01*
X127976190Y-117452380D01*
X127880952Y-117404761D01*
X127833333Y-117357142D01*
%TO.C,J1*%
X107166666Y-124152380D02*
X107166666Y-124866666D01*
X107119047Y-125009523D01*
X107023809Y-125104761D01*
X106880952Y-125152380D01*
X106785714Y-125152380D01*
X108166666Y-125152380D02*
X107595238Y-125152380D01*
X107880952Y-125152380D02*
X107880952Y-124152380D01*
X107785714Y-124295238D01*
X107690476Y-124390476D01*
X107595238Y-124438095D01*
%TO.C,H3*%
X102238095Y-62452380D02*
X102238095Y-61452380D01*
X102238095Y-61928571D02*
X102809523Y-61928571D01*
X102809523Y-62452380D02*
X102809523Y-61452380D01*
X103190476Y-61452380D02*
X103809523Y-61452380D01*
X103476190Y-61833333D01*
X103619047Y-61833333D01*
X103714285Y-61880952D01*
X103761904Y-61928571D01*
X103809523Y-62023809D01*
X103809523Y-62261904D01*
X103761904Y-62357142D01*
X103714285Y-62404761D01*
X103619047Y-62452380D01*
X103333333Y-62452380D01*
X103238095Y-62404761D01*
X103190476Y-62357142D01*
%TO.C,J6*%
X98682380Y-120833333D02*
X99396666Y-120833333D01*
X99539523Y-120880952D01*
X99634761Y-120976190D01*
X99682380Y-121119047D01*
X99682380Y-121214285D01*
X98682380Y-119928571D02*
X98682380Y-120119047D01*
X98730000Y-120214285D01*
X98777619Y-120261904D01*
X98920476Y-120357142D01*
X99110952Y-120404761D01*
X99491904Y-120404761D01*
X99587142Y-120357142D01*
X99634761Y-120309523D01*
X99682380Y-120214285D01*
X99682380Y-120023809D01*
X99634761Y-119928571D01*
X99587142Y-119880952D01*
X99491904Y-119833333D01*
X99253809Y-119833333D01*
X99158571Y-119880952D01*
X99110952Y-119928571D01*
X99063333Y-120023809D01*
X99063333Y-120214285D01*
X99110952Y-120309523D01*
X99158571Y-120357142D01*
X99253809Y-120404761D01*
%TO.C,R1*%
X139632380Y-128629166D02*
X139156190Y-128962500D01*
X139632380Y-129200595D02*
X138632380Y-129200595D01*
X138632380Y-128819642D01*
X138680000Y-128724404D01*
X138727619Y-128676785D01*
X138822857Y-128629166D01*
X138965714Y-128629166D01*
X139060952Y-128676785D01*
X139108571Y-128724404D01*
X139156190Y-128819642D01*
X139156190Y-129200595D01*
X139632380Y-127676785D02*
X139632380Y-128248214D01*
X139632380Y-127962500D02*
X138632380Y-127962500D01*
X138775238Y-128057738D01*
X138870476Y-128152976D01*
X138918095Y-128248214D01*
%TO.C,LB1*%
X102333333Y-88452380D02*
X101857142Y-88452380D01*
X101857142Y-87452380D01*
X103000000Y-87928571D02*
X103142857Y-87976190D01*
X103190476Y-88023809D01*
X103238095Y-88119047D01*
X103238095Y-88261904D01*
X103190476Y-88357142D01*
X103142857Y-88404761D01*
X103047619Y-88452380D01*
X102666666Y-88452380D01*
X102666666Y-87452380D01*
X103000000Y-87452380D01*
X103095238Y-87500000D01*
X103142857Y-87547619D01*
X103190476Y-87642857D01*
X103190476Y-87738095D01*
X103142857Y-87833333D01*
X103095238Y-87880952D01*
X103000000Y-87928571D01*
X102666666Y-87928571D01*
X104190476Y-88452380D02*
X103619047Y-88452380D01*
X103904761Y-88452380D02*
X103904761Y-87452380D01*
X103809523Y-87595238D01*
X103714285Y-87690476D01*
X103619047Y-87738095D01*
X99904761Y-102452380D02*
X99904761Y-101452380D01*
X100142857Y-101452380D01*
X100285714Y-101500000D01*
X100380952Y-101595238D01*
X100428571Y-101690476D01*
X100476190Y-101880952D01*
X100476190Y-102023809D01*
X100428571Y-102214285D01*
X100380952Y-102309523D01*
X100285714Y-102404761D01*
X100142857Y-102452380D01*
X99904761Y-102452380D01*
X101476190Y-102452380D02*
X101142857Y-101976190D01*
X100904761Y-102452380D02*
X100904761Y-101452380D01*
X101285714Y-101452380D01*
X101380952Y-101500000D01*
X101428571Y-101547619D01*
X101476190Y-101642857D01*
X101476190Y-101785714D01*
X101428571Y-101880952D01*
X101380952Y-101928571D01*
X101285714Y-101976190D01*
X100904761Y-101976190D01*
X101761904Y-101452380D02*
X102095238Y-102452380D01*
X102428571Y-101452380D01*
X102904761Y-101880952D02*
X102809523Y-101833333D01*
X102761904Y-101785714D01*
X102714285Y-101690476D01*
X102714285Y-101642857D01*
X102761904Y-101547619D01*
X102809523Y-101500000D01*
X102904761Y-101452380D01*
X103095238Y-101452380D01*
X103190476Y-101500000D01*
X103238095Y-101547619D01*
X103285714Y-101642857D01*
X103285714Y-101690476D01*
X103238095Y-101785714D01*
X103190476Y-101833333D01*
X103095238Y-101880952D01*
X102904761Y-101880952D01*
X102809523Y-101928571D01*
X102761904Y-101976190D01*
X102714285Y-102071428D01*
X102714285Y-102261904D01*
X102761904Y-102357142D01*
X102809523Y-102404761D01*
X102904761Y-102452380D01*
X103095238Y-102452380D01*
X103190476Y-102404761D01*
X103238095Y-102357142D01*
X103285714Y-102261904D01*
X103285714Y-102071428D01*
X103238095Y-101976190D01*
X103190476Y-101928571D01*
X103095238Y-101880952D01*
X103857142Y-101880952D02*
X103761904Y-101833333D01*
X103714285Y-101785714D01*
X103666666Y-101690476D01*
X103666666Y-101642857D01*
X103714285Y-101547619D01*
X103761904Y-101500000D01*
X103857142Y-101452380D01*
X104047619Y-101452380D01*
X104142857Y-101500000D01*
X104190476Y-101547619D01*
X104238095Y-101642857D01*
X104238095Y-101690476D01*
X104190476Y-101785714D01*
X104142857Y-101833333D01*
X104047619Y-101880952D01*
X103857142Y-101880952D01*
X103761904Y-101928571D01*
X103714285Y-101976190D01*
X103666666Y-102071428D01*
X103666666Y-102261904D01*
X103714285Y-102357142D01*
X103761904Y-102404761D01*
X103857142Y-102452380D01*
X104047619Y-102452380D01*
X104142857Y-102404761D01*
X104190476Y-102357142D01*
X104238095Y-102261904D01*
X104238095Y-102071428D01*
X104190476Y-101976190D01*
X104142857Y-101928571D01*
X104047619Y-101880952D01*
X104571428Y-101452380D02*
X105238095Y-101452380D01*
X104809523Y-102452380D01*
X106142857Y-102452380D02*
X105571428Y-102452380D01*
X105857142Y-102452380D02*
X105857142Y-101452380D01*
X105761904Y-101595238D01*
X105666666Y-101690476D01*
X105571428Y-101738095D01*
%TO.C,LF1*%
X102404761Y-64452380D02*
X101928571Y-64452380D01*
X101928571Y-63452380D01*
X103071428Y-63928571D02*
X102738095Y-63928571D01*
X102738095Y-64452380D02*
X102738095Y-63452380D01*
X103214285Y-63452380D01*
X104119047Y-64452380D02*
X103547619Y-64452380D01*
X103833333Y-64452380D02*
X103833333Y-63452380D01*
X103738095Y-63595238D01*
X103642857Y-63690476D01*
X103547619Y-63738095D01*
X99904761Y-78452380D02*
X99904761Y-77452380D01*
X100142857Y-77452380D01*
X100285714Y-77500000D01*
X100380952Y-77595238D01*
X100428571Y-77690476D01*
X100476190Y-77880952D01*
X100476190Y-78023809D01*
X100428571Y-78214285D01*
X100380952Y-78309523D01*
X100285714Y-78404761D01*
X100142857Y-78452380D01*
X99904761Y-78452380D01*
X101476190Y-78452380D02*
X101142857Y-77976190D01*
X100904761Y-78452380D02*
X100904761Y-77452380D01*
X101285714Y-77452380D01*
X101380952Y-77500000D01*
X101428571Y-77547619D01*
X101476190Y-77642857D01*
X101476190Y-77785714D01*
X101428571Y-77880952D01*
X101380952Y-77928571D01*
X101285714Y-77976190D01*
X100904761Y-77976190D01*
X101761904Y-77452380D02*
X102095238Y-78452380D01*
X102428571Y-77452380D01*
X102904761Y-77880952D02*
X102809523Y-77833333D01*
X102761904Y-77785714D01*
X102714285Y-77690476D01*
X102714285Y-77642857D01*
X102761904Y-77547619D01*
X102809523Y-77500000D01*
X102904761Y-77452380D01*
X103095238Y-77452380D01*
X103190476Y-77500000D01*
X103238095Y-77547619D01*
X103285714Y-77642857D01*
X103285714Y-77690476D01*
X103238095Y-77785714D01*
X103190476Y-77833333D01*
X103095238Y-77880952D01*
X102904761Y-77880952D01*
X102809523Y-77928571D01*
X102761904Y-77976190D01*
X102714285Y-78071428D01*
X102714285Y-78261904D01*
X102761904Y-78357142D01*
X102809523Y-78404761D01*
X102904761Y-78452380D01*
X103095238Y-78452380D01*
X103190476Y-78404761D01*
X103238095Y-78357142D01*
X103285714Y-78261904D01*
X103285714Y-78071428D01*
X103238095Y-77976190D01*
X103190476Y-77928571D01*
X103095238Y-77880952D01*
X103857142Y-77880952D02*
X103761904Y-77833333D01*
X103714285Y-77785714D01*
X103666666Y-77690476D01*
X103666666Y-77642857D01*
X103714285Y-77547619D01*
X103761904Y-77500000D01*
X103857142Y-77452380D01*
X104047619Y-77452380D01*
X104142857Y-77500000D01*
X104190476Y-77547619D01*
X104238095Y-77642857D01*
X104238095Y-77690476D01*
X104190476Y-77785714D01*
X104142857Y-77833333D01*
X104047619Y-77880952D01*
X103857142Y-77880952D01*
X103761904Y-77928571D01*
X103714285Y-77976190D01*
X103666666Y-78071428D01*
X103666666Y-78261904D01*
X103714285Y-78357142D01*
X103761904Y-78404761D01*
X103857142Y-78452380D01*
X104047619Y-78452380D01*
X104142857Y-78404761D01*
X104190476Y-78357142D01*
X104238095Y-78261904D01*
X104238095Y-78071428D01*
X104190476Y-77976190D01*
X104142857Y-77928571D01*
X104047619Y-77880952D01*
X104571428Y-77452380D02*
X105238095Y-77452380D01*
X104809523Y-78452380D01*
X106142857Y-78452380D02*
X105571428Y-78452380D01*
X105857142Y-78452380D02*
X105857142Y-77452380D01*
X105761904Y-77595238D01*
X105666666Y-77690476D01*
X105571428Y-77738095D01*
%TO.C,J3*%
X106666666Y-108504380D02*
X106666666Y-109218666D01*
X106619047Y-109361523D01*
X106523809Y-109456761D01*
X106380952Y-109504380D01*
X106285714Y-109504380D01*
X107047619Y-108504380D02*
X107666666Y-108504380D01*
X107333333Y-108885333D01*
X107476190Y-108885333D01*
X107571428Y-108932952D01*
X107619047Y-108980571D01*
X107666666Y-109075809D01*
X107666666Y-109313904D01*
X107619047Y-109409142D01*
X107571428Y-109456761D01*
X107476190Y-109504380D01*
X107190476Y-109504380D01*
X107095238Y-109456761D01*
X107047619Y-109409142D01*
X101380952Y-113452380D02*
X100809523Y-113452380D01*
X101095238Y-113452380D02*
X101095238Y-112452380D01*
X101000000Y-112595238D01*
X100904761Y-112690476D01*
X100809523Y-112738095D01*
X102000000Y-112452380D02*
X102095238Y-112452380D01*
X102190476Y-112500000D01*
X102238095Y-112547619D01*
X102285714Y-112642857D01*
X102333333Y-112833333D01*
X102333333Y-113071428D01*
X102285714Y-113261904D01*
X102238095Y-113357142D01*
X102190476Y-113404761D01*
X102095238Y-113452380D01*
X102000000Y-113452380D01*
X101904761Y-113404761D01*
X101857142Y-113357142D01*
X101809523Y-113261904D01*
X101761904Y-113071428D01*
X101761904Y-112833333D01*
X101809523Y-112642857D01*
X101857142Y-112547619D01*
X101904761Y-112500000D01*
X102000000Y-112452380D01*
X102619047Y-112452380D02*
X102952380Y-113452380D01*
X103285714Y-112452380D01*
%TO.C,RB1*%
X146333333Y-88682380D02*
X146000000Y-88206190D01*
X145761904Y-88682380D02*
X145761904Y-87682380D01*
X146142857Y-87682380D01*
X146238095Y-87730000D01*
X146285714Y-87777619D01*
X146333333Y-87872857D01*
X146333333Y-88015714D01*
X146285714Y-88110952D01*
X146238095Y-88158571D01*
X146142857Y-88206190D01*
X145761904Y-88206190D01*
X147095238Y-88158571D02*
X147238095Y-88206190D01*
X147285714Y-88253809D01*
X147333333Y-88349047D01*
X147333333Y-88491904D01*
X147285714Y-88587142D01*
X147238095Y-88634761D01*
X147142857Y-88682380D01*
X146761904Y-88682380D01*
X146761904Y-87682380D01*
X147095238Y-87682380D01*
X147190476Y-87730000D01*
X147238095Y-87777619D01*
X147285714Y-87872857D01*
X147285714Y-87968095D01*
X147238095Y-88063333D01*
X147190476Y-88110952D01*
X147095238Y-88158571D01*
X146761904Y-88158571D01*
X148285714Y-88682380D02*
X147714285Y-88682380D01*
X148000000Y-88682380D02*
X148000000Y-87682380D01*
X147904761Y-87825238D01*
X147809523Y-87920476D01*
X147714285Y-87968095D01*
X143904761Y-101842380D02*
X143904761Y-100842380D01*
X144142857Y-100842380D01*
X144285714Y-100890000D01*
X144380952Y-100985238D01*
X144428571Y-101080476D01*
X144476190Y-101270952D01*
X144476190Y-101413809D01*
X144428571Y-101604285D01*
X144380952Y-101699523D01*
X144285714Y-101794761D01*
X144142857Y-101842380D01*
X143904761Y-101842380D01*
X145476190Y-101842380D02*
X145142857Y-101366190D01*
X144904761Y-101842380D02*
X144904761Y-100842380D01*
X145285714Y-100842380D01*
X145380952Y-100890000D01*
X145428571Y-100937619D01*
X145476190Y-101032857D01*
X145476190Y-101175714D01*
X145428571Y-101270952D01*
X145380952Y-101318571D01*
X145285714Y-101366190D01*
X144904761Y-101366190D01*
X145761904Y-100842380D02*
X146095238Y-101842380D01*
X146428571Y-100842380D01*
X146904761Y-101270952D02*
X146809523Y-101223333D01*
X146761904Y-101175714D01*
X146714285Y-101080476D01*
X146714285Y-101032857D01*
X146761904Y-100937619D01*
X146809523Y-100890000D01*
X146904761Y-100842380D01*
X147095238Y-100842380D01*
X147190476Y-100890000D01*
X147238095Y-100937619D01*
X147285714Y-101032857D01*
X147285714Y-101080476D01*
X147238095Y-101175714D01*
X147190476Y-101223333D01*
X147095238Y-101270952D01*
X146904761Y-101270952D01*
X146809523Y-101318571D01*
X146761904Y-101366190D01*
X146714285Y-101461428D01*
X146714285Y-101651904D01*
X146761904Y-101747142D01*
X146809523Y-101794761D01*
X146904761Y-101842380D01*
X147095238Y-101842380D01*
X147190476Y-101794761D01*
X147238095Y-101747142D01*
X147285714Y-101651904D01*
X147285714Y-101461428D01*
X147238095Y-101366190D01*
X147190476Y-101318571D01*
X147095238Y-101270952D01*
X147857142Y-101270952D02*
X147761904Y-101223333D01*
X147714285Y-101175714D01*
X147666666Y-101080476D01*
X147666666Y-101032857D01*
X147714285Y-100937619D01*
X147761904Y-100890000D01*
X147857142Y-100842380D01*
X148047619Y-100842380D01*
X148142857Y-100890000D01*
X148190476Y-100937619D01*
X148238095Y-101032857D01*
X148238095Y-101080476D01*
X148190476Y-101175714D01*
X148142857Y-101223333D01*
X148047619Y-101270952D01*
X147857142Y-101270952D01*
X147761904Y-101318571D01*
X147714285Y-101366190D01*
X147666666Y-101461428D01*
X147666666Y-101651904D01*
X147714285Y-101747142D01*
X147761904Y-101794761D01*
X147857142Y-101842380D01*
X148047619Y-101842380D01*
X148142857Y-101794761D01*
X148190476Y-101747142D01*
X148238095Y-101651904D01*
X148238095Y-101461428D01*
X148190476Y-101366190D01*
X148142857Y-101318571D01*
X148047619Y-101270952D01*
X148571428Y-100842380D02*
X149238095Y-100842380D01*
X148809523Y-101842380D01*
X150142857Y-101842380D02*
X149571428Y-101842380D01*
X149857142Y-101842380D02*
X149857142Y-100842380D01*
X149761904Y-100985238D01*
X149666666Y-101080476D01*
X149571428Y-101128095D01*
%TO.C,U1*%
X123873095Y-82437380D02*
X123873095Y-83246904D01*
X123920714Y-83342142D01*
X123968333Y-83389761D01*
X124063571Y-83437380D01*
X124254047Y-83437380D01*
X124349285Y-83389761D01*
X124396904Y-83342142D01*
X124444523Y-83246904D01*
X124444523Y-82437380D01*
X125444523Y-83437380D02*
X124873095Y-83437380D01*
X125158809Y-83437380D02*
X125158809Y-82437380D01*
X125063571Y-82580238D01*
X124968333Y-82675476D01*
X124873095Y-82723095D01*
X111121158Y-76783155D02*
X111040346Y-76810093D01*
X110959534Y-76890905D01*
X110905659Y-76998654D01*
X110905659Y-77106404D01*
X110932597Y-77187216D01*
X111013409Y-77321903D01*
X111094221Y-77402715D01*
X111228908Y-77483528D01*
X111309720Y-77510465D01*
X111417470Y-77510465D01*
X111525219Y-77456590D01*
X111579094Y-77402715D01*
X111632969Y-77294966D01*
X111632969Y-77241091D01*
X111444407Y-77052529D01*
X111336658Y-77160279D01*
X111929280Y-77052529D02*
X111363595Y-76486844D01*
X112252529Y-76729280D01*
X111686844Y-76163595D01*
X112521903Y-76459906D02*
X111956218Y-75894221D01*
X112090905Y-75759534D01*
X112198654Y-75705659D01*
X112306404Y-75705659D01*
X112387216Y-75732597D01*
X112521903Y-75813409D01*
X112602715Y-75894221D01*
X112683528Y-76028908D01*
X112710465Y-76109720D01*
X112710465Y-76217470D01*
X112656590Y-76325219D01*
X112521903Y-76459906D01*
X136588129Y-59512309D02*
X137342377Y-59889433D01*
X136965253Y-59135186D01*
X137611751Y-59027436D02*
X137719500Y-58973561D01*
X137773375Y-58973561D01*
X137854187Y-59000499D01*
X137935000Y-59081311D01*
X137961937Y-59162123D01*
X137961937Y-59215998D01*
X137935000Y-59296810D01*
X137719500Y-59512309D01*
X137153815Y-58946624D01*
X137342377Y-58758062D01*
X137423189Y-58731125D01*
X137477064Y-58731125D01*
X137557876Y-58758062D01*
X137611751Y-58811937D01*
X137638688Y-58892749D01*
X137638688Y-58946624D01*
X137611751Y-59027436D01*
X137423189Y-59215998D01*
X137719500Y-58380938D02*
X138177436Y-58838874D01*
X138258248Y-58865812D01*
X138312123Y-58865812D01*
X138392935Y-58838874D01*
X138500685Y-58731125D01*
X138527622Y-58650312D01*
X138527622Y-58596438D01*
X138500685Y-58515625D01*
X138042749Y-58057690D01*
X138823934Y-58354001D02*
X138931683Y-58300126D01*
X139066370Y-58165439D01*
X139093308Y-58084627D01*
X139093308Y-58030752D01*
X139066370Y-57949940D01*
X139012496Y-57896065D01*
X138931683Y-57869128D01*
X138877809Y-57869128D01*
X138796996Y-57896065D01*
X138662309Y-57976877D01*
X138581497Y-58003815D01*
X138527622Y-58003815D01*
X138446810Y-57976877D01*
X138392935Y-57923003D01*
X138365998Y-57842190D01*
X138365998Y-57788316D01*
X138392935Y-57707503D01*
X138527622Y-57572816D01*
X138635372Y-57518942D01*
X110624722Y-107505592D02*
X110543910Y-107532529D01*
X110463097Y-107613341D01*
X110409223Y-107721091D01*
X110409223Y-107828841D01*
X110436160Y-107909653D01*
X110516972Y-108044340D01*
X110597784Y-108125152D01*
X110732471Y-108205964D01*
X110813284Y-108232902D01*
X110921033Y-108232902D01*
X111028783Y-108179027D01*
X111082658Y-108125152D01*
X111136532Y-108017402D01*
X111136532Y-107963528D01*
X110947971Y-107774966D01*
X110840221Y-107882715D01*
X111432844Y-107774966D02*
X110867158Y-107209280D01*
X111082658Y-106993781D01*
X111163470Y-106966844D01*
X111217345Y-106966844D01*
X111298157Y-106993781D01*
X111378969Y-107074593D01*
X111405906Y-107155406D01*
X111405906Y-107209280D01*
X111378969Y-107290093D01*
X111163470Y-107505592D01*
X112294841Y-106912969D02*
X111971592Y-107236218D01*
X112133216Y-107074593D02*
X111567531Y-106508908D01*
X111594468Y-106643595D01*
X111594468Y-106751345D01*
X111567531Y-106832157D01*
X112240966Y-105835473D02*
X111971592Y-106104847D01*
X112214028Y-106401158D01*
X112214028Y-106347284D01*
X112240966Y-106266471D01*
X112375653Y-106131784D01*
X112456465Y-106104847D01*
X112510340Y-106104847D01*
X112591152Y-106131784D01*
X112725839Y-106266471D01*
X112752776Y-106347284D01*
X112752776Y-106401158D01*
X112725839Y-106481971D01*
X112591152Y-106616658D01*
X112510340Y-106643595D01*
X112456465Y-106643595D01*
X136721158Y-89483155D02*
X136640346Y-89510093D01*
X136559534Y-89590905D01*
X136505659Y-89698654D01*
X136505659Y-89806404D01*
X136532597Y-89887216D01*
X136613409Y-90021903D01*
X136694221Y-90102715D01*
X136828908Y-90183528D01*
X136909720Y-90210465D01*
X137017470Y-90210465D01*
X137125219Y-90156590D01*
X137179094Y-90102715D01*
X137232969Y-89994966D01*
X137232969Y-89941091D01*
X137044407Y-89752529D01*
X136936658Y-89860279D01*
X137529280Y-89752529D02*
X136963595Y-89186844D01*
X137852529Y-89429280D01*
X137286844Y-88863595D01*
X138121903Y-89159906D02*
X137556218Y-88594221D01*
X137690905Y-88459534D01*
X137798654Y-88405659D01*
X137906404Y-88405659D01*
X137987216Y-88432597D01*
X138121903Y-88513409D01*
X138202715Y-88594221D01*
X138283528Y-88728908D01*
X138310465Y-88809720D01*
X138310465Y-88917470D01*
X138256590Y-89025219D01*
X138121903Y-89159906D01*
X111148096Y-69136218D02*
X111067284Y-69163155D01*
X110986471Y-69243967D01*
X110932597Y-69351717D01*
X110932597Y-69459467D01*
X110959534Y-69540279D01*
X111040346Y-69674966D01*
X111121158Y-69755778D01*
X111255845Y-69836590D01*
X111336658Y-69863528D01*
X111444407Y-69863528D01*
X111552157Y-69809653D01*
X111606032Y-69755778D01*
X111659906Y-69648028D01*
X111659906Y-69594154D01*
X111471345Y-69405592D01*
X111363595Y-69513341D01*
X111956218Y-69405592D02*
X111390532Y-68839906D01*
X111606032Y-68624407D01*
X111686844Y-68597470D01*
X111740719Y-68597470D01*
X111821531Y-68624407D01*
X111902343Y-68705219D01*
X111929280Y-68786032D01*
X111929280Y-68839906D01*
X111902343Y-68920719D01*
X111686844Y-69136218D01*
X111902343Y-68328096D02*
X112252529Y-67977910D01*
X112279467Y-68381971D01*
X112360279Y-68301158D01*
X112441091Y-68274221D01*
X112494966Y-68274221D01*
X112575778Y-68301158D01*
X112710465Y-68435845D01*
X112737402Y-68516658D01*
X112737402Y-68570532D01*
X112710465Y-68651345D01*
X112548841Y-68812969D01*
X112468028Y-68839906D01*
X112414154Y-68839906D01*
X110578722Y-104965592D02*
X110497910Y-104992529D01*
X110417097Y-105073341D01*
X110363223Y-105181091D01*
X110363223Y-105288841D01*
X110390160Y-105369653D01*
X110470972Y-105504340D01*
X110551784Y-105585152D01*
X110686471Y-105665964D01*
X110767284Y-105692902D01*
X110875033Y-105692902D01*
X110982783Y-105639027D01*
X111036658Y-105585152D01*
X111090532Y-105477402D01*
X111090532Y-105423528D01*
X110901971Y-105234966D01*
X110794221Y-105342715D01*
X111386844Y-105234966D02*
X110821158Y-104669280D01*
X111036658Y-104453781D01*
X111117470Y-104426844D01*
X111171345Y-104426844D01*
X111252157Y-104453781D01*
X111332969Y-104534593D01*
X111359906Y-104615406D01*
X111359906Y-104669280D01*
X111332969Y-104750093D01*
X111117470Y-104965592D01*
X112248841Y-104372969D02*
X111925592Y-104696218D01*
X112087216Y-104534593D02*
X111521531Y-103968908D01*
X111548468Y-104103595D01*
X111548468Y-104211345D01*
X111521531Y-104292157D01*
X112356590Y-103510972D02*
X112733714Y-103888096D01*
X112006404Y-103430160D02*
X112275778Y-103968908D01*
X112625964Y-103618722D01*
X111048096Y-61506218D02*
X110967284Y-61533155D01*
X110886471Y-61613967D01*
X110832597Y-61721717D01*
X110832597Y-61829467D01*
X110859534Y-61910279D01*
X110940346Y-62044966D01*
X111021158Y-62125778D01*
X111155845Y-62206590D01*
X111236658Y-62233528D01*
X111344407Y-62233528D01*
X111452157Y-62179653D01*
X111506032Y-62125778D01*
X111559906Y-62018028D01*
X111559906Y-61964154D01*
X111371345Y-61775592D01*
X111263595Y-61883341D01*
X111856218Y-61775592D02*
X111290532Y-61209906D01*
X111506032Y-60994407D01*
X111586844Y-60967470D01*
X111640719Y-60967470D01*
X111721531Y-60994407D01*
X111802343Y-61075219D01*
X111829280Y-61156032D01*
X111829280Y-61209906D01*
X111802343Y-61290719D01*
X111586844Y-61506218D01*
X112718215Y-60913595D02*
X112394966Y-61236844D01*
X112556590Y-61075219D02*
X111990905Y-60509534D01*
X112017842Y-60644221D01*
X112017842Y-60751971D01*
X111990905Y-60832783D01*
X136524847Y-69475592D02*
X136875033Y-69125406D01*
X136901971Y-69529467D01*
X136982783Y-69448654D01*
X137063595Y-69421717D01*
X137117470Y-69421717D01*
X137198282Y-69448654D01*
X137332969Y-69583341D01*
X137359906Y-69664154D01*
X137359906Y-69718028D01*
X137332969Y-69798841D01*
X137171345Y-69960465D01*
X137090532Y-69987402D01*
X137036658Y-69987402D01*
X137036658Y-68963781D02*
X137790905Y-69340905D01*
X137413781Y-68586658D01*
X137548468Y-68451971D02*
X137898654Y-68101784D01*
X137925592Y-68505845D01*
X138006404Y-68425033D01*
X138087216Y-68398096D01*
X138141091Y-68398096D01*
X138221903Y-68425033D01*
X138356590Y-68559720D01*
X138383528Y-68640532D01*
X138383528Y-68694407D01*
X138356590Y-68775219D01*
X138194966Y-68936844D01*
X138114154Y-68963781D01*
X138060279Y-68963781D01*
X136732722Y-79575592D02*
X136651910Y-79602529D01*
X136571097Y-79683341D01*
X136517223Y-79791091D01*
X136517223Y-79898841D01*
X136544160Y-79979653D01*
X136624972Y-80114340D01*
X136705784Y-80195152D01*
X136840471Y-80275964D01*
X136921284Y-80302902D01*
X137029033Y-80302902D01*
X137136783Y-80249027D01*
X137190658Y-80195152D01*
X137244532Y-80087402D01*
X137244532Y-80033528D01*
X137055971Y-79844966D01*
X136948221Y-79952715D01*
X137540844Y-79844966D02*
X136975158Y-79279280D01*
X137190658Y-79063781D01*
X137271470Y-79036844D01*
X137325345Y-79036844D01*
X137406157Y-79063781D01*
X137486969Y-79144593D01*
X137513906Y-79225406D01*
X137513906Y-79279280D01*
X137486969Y-79360093D01*
X137271470Y-79575592D01*
X137567781Y-78794407D02*
X137567781Y-78740532D01*
X137594719Y-78659720D01*
X137729406Y-78525033D01*
X137810218Y-78498096D01*
X137864093Y-78498096D01*
X137944905Y-78525033D01*
X137998780Y-78578908D01*
X138052654Y-78686658D01*
X138052654Y-79333155D01*
X138402841Y-78982969D01*
X138025717Y-78228722D02*
X138402841Y-77851598D01*
X138726089Y-78659720D01*
X136557131Y-66943308D02*
X136907317Y-66593122D01*
X136934255Y-66997183D01*
X137015067Y-66916370D01*
X137095879Y-66889433D01*
X137149754Y-66889433D01*
X137230566Y-66916370D01*
X137365253Y-67051057D01*
X137392190Y-67131870D01*
X137392190Y-67185744D01*
X137365253Y-67266557D01*
X137203629Y-67428181D01*
X137122816Y-67455118D01*
X137068942Y-67455118D01*
X137068942Y-66431497D02*
X137823189Y-66808621D01*
X137446065Y-66054374D01*
X137580752Y-65919687D02*
X137930938Y-65569500D01*
X137957876Y-65973561D01*
X138038688Y-65892749D01*
X138119500Y-65865812D01*
X138173375Y-65865812D01*
X138254187Y-65892749D01*
X138388874Y-66027436D01*
X138415812Y-66108248D01*
X138415812Y-66162123D01*
X138388874Y-66242935D01*
X138227250Y-66404560D01*
X138146438Y-66431497D01*
X138092563Y-66431497D01*
X138658248Y-66081311D02*
X139089247Y-65650312D01*
X138873748Y-65165439D02*
X139062309Y-64976877D01*
X139439433Y-65192377D02*
X139170059Y-65461751D01*
X138604374Y-64896065D01*
X138873748Y-64626691D01*
X139681870Y-64949940D02*
X139116184Y-64384255D01*
X140005118Y-64626691D01*
X139439433Y-64061006D01*
X136732722Y-92275592D02*
X136651910Y-92302529D01*
X136571097Y-92383341D01*
X136517223Y-92491091D01*
X136517223Y-92598841D01*
X136544160Y-92679653D01*
X136624972Y-92814340D01*
X136705784Y-92895152D01*
X136840471Y-92975964D01*
X136921284Y-93002902D01*
X137029033Y-93002902D01*
X137136783Y-92949027D01*
X137190658Y-92895152D01*
X137244532Y-92787402D01*
X137244532Y-92733528D01*
X137055971Y-92544966D01*
X136948221Y-92652715D01*
X137540844Y-92544966D02*
X136975158Y-91979280D01*
X137190658Y-91763781D01*
X137271470Y-91736844D01*
X137325345Y-91736844D01*
X137406157Y-91763781D01*
X137486969Y-91844593D01*
X137513906Y-91925406D01*
X137513906Y-91979280D01*
X137486969Y-92060093D01*
X137271470Y-92275592D01*
X137567781Y-91494407D02*
X137567781Y-91440532D01*
X137594719Y-91359720D01*
X137729406Y-91225033D01*
X137810218Y-91198096D01*
X137864093Y-91198096D01*
X137944905Y-91225033D01*
X137998780Y-91278908D01*
X138052654Y-91386658D01*
X138052654Y-92033155D01*
X138402841Y-91682969D01*
X138941589Y-91144221D02*
X138618340Y-91467470D01*
X138779964Y-91305845D02*
X138214279Y-90740160D01*
X138241216Y-90874847D01*
X138241216Y-90982597D01*
X138214279Y-91063409D01*
X136422973Y-71902466D02*
X137177220Y-72279589D01*
X136800097Y-71525342D01*
X137877593Y-71579217D02*
X137419657Y-71498405D01*
X137554344Y-71902466D02*
X136988658Y-71336780D01*
X137204158Y-71121281D01*
X137284970Y-71094344D01*
X137338845Y-71094344D01*
X137419657Y-71121281D01*
X137500469Y-71202093D01*
X137527406Y-71282906D01*
X137527406Y-71336780D01*
X137500469Y-71417593D01*
X137284970Y-71633092D01*
X137823718Y-71040469D02*
X138012280Y-70851907D01*
X138389403Y-71067406D02*
X138120029Y-71336780D01*
X137554344Y-70771095D01*
X137823718Y-70501721D01*
X138524090Y-70340097D02*
X138335528Y-70528658D01*
X138631840Y-70824970D02*
X138066154Y-70259284D01*
X138335528Y-69989910D01*
X136732722Y-99885592D02*
X136651910Y-99912529D01*
X136571097Y-99993341D01*
X136517223Y-100101091D01*
X136517223Y-100208841D01*
X136544160Y-100289653D01*
X136624972Y-100424340D01*
X136705784Y-100505152D01*
X136840471Y-100585964D01*
X136921284Y-100612902D01*
X137029033Y-100612902D01*
X137136783Y-100559027D01*
X137190658Y-100505152D01*
X137244532Y-100397402D01*
X137244532Y-100343528D01*
X137055971Y-100154966D01*
X136948221Y-100262715D01*
X137540844Y-100154966D02*
X136975158Y-99589280D01*
X137190658Y-99373781D01*
X137271470Y-99346844D01*
X137325345Y-99346844D01*
X137406157Y-99373781D01*
X137486969Y-99454593D01*
X137513906Y-99535406D01*
X137513906Y-99589280D01*
X137486969Y-99670093D01*
X137271470Y-99885592D01*
X138402841Y-99292969D02*
X138079592Y-99616218D01*
X138241216Y-99454593D02*
X137675531Y-98888908D01*
X137702468Y-99023595D01*
X137702468Y-99131345D01*
X137675531Y-99212157D01*
X138402841Y-98646471D02*
X138322028Y-98673409D01*
X138268154Y-98673409D01*
X138187341Y-98646471D01*
X138160404Y-98619534D01*
X138133467Y-98538722D01*
X138133467Y-98484847D01*
X138160404Y-98404035D01*
X138268154Y-98296285D01*
X138348966Y-98269348D01*
X138402841Y-98269348D01*
X138483653Y-98296285D01*
X138510590Y-98323223D01*
X138537528Y-98404035D01*
X138537528Y-98457910D01*
X138510590Y-98538722D01*
X138402841Y-98646471D01*
X138375903Y-98727284D01*
X138375903Y-98781158D01*
X138402841Y-98861971D01*
X138510590Y-98969720D01*
X138591402Y-98996658D01*
X138645277Y-98996658D01*
X138726089Y-98969720D01*
X138833839Y-98861971D01*
X138860776Y-98781158D01*
X138860776Y-98727284D01*
X138833839Y-98646471D01*
X138726089Y-98538722D01*
X138645277Y-98511784D01*
X138591402Y-98511784D01*
X138510590Y-98538722D01*
X111148096Y-86916218D02*
X111067284Y-86943155D01*
X110986471Y-87023967D01*
X110932597Y-87131717D01*
X110932597Y-87239467D01*
X110959534Y-87320279D01*
X111040346Y-87454966D01*
X111121158Y-87535778D01*
X111255845Y-87616590D01*
X111336658Y-87643528D01*
X111444407Y-87643528D01*
X111552157Y-87589653D01*
X111606032Y-87535778D01*
X111659906Y-87428028D01*
X111659906Y-87374154D01*
X111471345Y-87185592D01*
X111363595Y-87293341D01*
X111956218Y-87185592D02*
X111390532Y-86619906D01*
X111606032Y-86404407D01*
X111686844Y-86377470D01*
X111740719Y-86377470D01*
X111821531Y-86404407D01*
X111902343Y-86485219D01*
X111929280Y-86566032D01*
X111929280Y-86619906D01*
X111902343Y-86700719D01*
X111686844Y-86916218D01*
X112548841Y-86592969D02*
X112656590Y-86485219D01*
X112683528Y-86404407D01*
X112683528Y-86350532D01*
X112656590Y-86215845D01*
X112575778Y-86081158D01*
X112360279Y-85865659D01*
X112279467Y-85838722D01*
X112225592Y-85838722D01*
X112144780Y-85865659D01*
X112037030Y-85973409D01*
X112010093Y-86054221D01*
X112010093Y-86108096D01*
X112037030Y-86188908D01*
X112171717Y-86323595D01*
X112252529Y-86350532D01*
X112306404Y-86350532D01*
X112387216Y-86323595D01*
X112494966Y-86215845D01*
X112521903Y-86135033D01*
X112521903Y-86081158D01*
X112494966Y-86000346D01*
X110624722Y-92265592D02*
X110543910Y-92292529D01*
X110463097Y-92373341D01*
X110409223Y-92481091D01*
X110409223Y-92588841D01*
X110436160Y-92669653D01*
X110516972Y-92804340D01*
X110597784Y-92885152D01*
X110732471Y-92965964D01*
X110813284Y-92992902D01*
X110921033Y-92992902D01*
X111028783Y-92939027D01*
X111082658Y-92885152D01*
X111136532Y-92777402D01*
X111136532Y-92723528D01*
X110947971Y-92534966D01*
X110840221Y-92642715D01*
X111432844Y-92534966D02*
X110867158Y-91969280D01*
X111082658Y-91753781D01*
X111163470Y-91726844D01*
X111217345Y-91726844D01*
X111298157Y-91753781D01*
X111378969Y-91834593D01*
X111405906Y-91915406D01*
X111405906Y-91969280D01*
X111378969Y-92050093D01*
X111163470Y-92265592D01*
X112294841Y-91672969D02*
X111971592Y-91996218D01*
X112133216Y-91834593D02*
X111567531Y-91268908D01*
X111594468Y-91403595D01*
X111594468Y-91511345D01*
X111567531Y-91592157D01*
X112079341Y-90757097D02*
X112133216Y-90703223D01*
X112214028Y-90676285D01*
X112267903Y-90676285D01*
X112348715Y-90703223D01*
X112483402Y-90784035D01*
X112618089Y-90918722D01*
X112698902Y-91053409D01*
X112725839Y-91134221D01*
X112725839Y-91188096D01*
X112698902Y-91268908D01*
X112645027Y-91322783D01*
X112564215Y-91349720D01*
X112510340Y-91349720D01*
X112429528Y-91322783D01*
X112294841Y-91241971D01*
X112160154Y-91107284D01*
X112079341Y-90972597D01*
X112052404Y-90891784D01*
X112052404Y-90837910D01*
X112079341Y-90757097D01*
X136732722Y-104965592D02*
X136651910Y-104992529D01*
X136571097Y-105073341D01*
X136517223Y-105181091D01*
X136517223Y-105288841D01*
X136544160Y-105369653D01*
X136624972Y-105504340D01*
X136705784Y-105585152D01*
X136840471Y-105665964D01*
X136921284Y-105692902D01*
X137029033Y-105692902D01*
X137136783Y-105639027D01*
X137190658Y-105585152D01*
X137244532Y-105477402D01*
X137244532Y-105423528D01*
X137055971Y-105234966D01*
X136948221Y-105342715D01*
X137540844Y-105234966D02*
X136975158Y-104669280D01*
X137190658Y-104453781D01*
X137271470Y-104426844D01*
X137325345Y-104426844D01*
X137406157Y-104453781D01*
X137486969Y-104534593D01*
X137513906Y-104615406D01*
X137513906Y-104669280D01*
X137486969Y-104750093D01*
X137271470Y-104965592D01*
X138402841Y-104372969D02*
X138079592Y-104696218D01*
X138241216Y-104534593D02*
X137675531Y-103968908D01*
X137702468Y-104103595D01*
X137702468Y-104211345D01*
X137675531Y-104292157D01*
X138025717Y-103618722D02*
X138402841Y-103241598D01*
X138726089Y-104049720D01*
X111248096Y-81806218D02*
X111167284Y-81833155D01*
X111086471Y-81913967D01*
X111032597Y-82021717D01*
X111032597Y-82129467D01*
X111059534Y-82210279D01*
X111140346Y-82344966D01*
X111221158Y-82425778D01*
X111355845Y-82506590D01*
X111436658Y-82533528D01*
X111544407Y-82533528D01*
X111652157Y-82479653D01*
X111706032Y-82425778D01*
X111759906Y-82318028D01*
X111759906Y-82264154D01*
X111571345Y-82075592D01*
X111463595Y-82183341D01*
X112056218Y-82075592D02*
X111490532Y-81509906D01*
X111706032Y-81294407D01*
X111786844Y-81267470D01*
X111840719Y-81267470D01*
X111921531Y-81294407D01*
X112002343Y-81375219D01*
X112029280Y-81456032D01*
X112029280Y-81509906D01*
X112002343Y-81590719D01*
X111786844Y-81806218D01*
X112002343Y-80998096D02*
X112379467Y-80620972D01*
X112702715Y-81429094D01*
X136721158Y-102183155D02*
X136640346Y-102210093D01*
X136559534Y-102290905D01*
X136505659Y-102398654D01*
X136505659Y-102506404D01*
X136532597Y-102587216D01*
X136613409Y-102721903D01*
X136694221Y-102802715D01*
X136828908Y-102883528D01*
X136909720Y-102910465D01*
X137017470Y-102910465D01*
X137125219Y-102856590D01*
X137179094Y-102802715D01*
X137232969Y-102694966D01*
X137232969Y-102641091D01*
X137044407Y-102452529D01*
X136936658Y-102560279D01*
X137529280Y-102452529D02*
X136963595Y-101886844D01*
X137852529Y-102129280D01*
X137286844Y-101563595D01*
X138121903Y-101859906D02*
X137556218Y-101294221D01*
X137690905Y-101159534D01*
X137798654Y-101105659D01*
X137906404Y-101105659D01*
X137987216Y-101132597D01*
X138121903Y-101213409D01*
X138202715Y-101294221D01*
X138283528Y-101428908D01*
X138310465Y-101509720D01*
X138310465Y-101617470D01*
X138256590Y-101725219D01*
X138121903Y-101859906D01*
X136555473Y-62054966D02*
X137309720Y-62432089D01*
X136932597Y-61677842D01*
X137632969Y-62054966D02*
X137740719Y-62001091D01*
X137875406Y-61866404D01*
X137902343Y-61785592D01*
X137902343Y-61731717D01*
X137875406Y-61650905D01*
X137821531Y-61597030D01*
X137740719Y-61570093D01*
X137686844Y-61570093D01*
X137606032Y-61597030D01*
X137471345Y-61677842D01*
X137390532Y-61704780D01*
X137336658Y-61704780D01*
X137255845Y-61677842D01*
X137201971Y-61623967D01*
X137175033Y-61543155D01*
X137175033Y-61489280D01*
X137201971Y-61408468D01*
X137336658Y-61273781D01*
X137444407Y-61219906D01*
X138063967Y-61139094D02*
X138333341Y-61408468D01*
X137579094Y-61031345D02*
X138063967Y-61139094D01*
X137956218Y-60654221D01*
X138656590Y-61031345D02*
X138764340Y-60977470D01*
X138899027Y-60842783D01*
X138925964Y-60761971D01*
X138925964Y-60708096D01*
X138899027Y-60627284D01*
X138845152Y-60573409D01*
X138764340Y-60546471D01*
X138710465Y-60546471D01*
X138629653Y-60573409D01*
X138494966Y-60654221D01*
X138414154Y-60681158D01*
X138360279Y-60681158D01*
X138279467Y-60654221D01*
X138225592Y-60600346D01*
X138198654Y-60519534D01*
X138198654Y-60465659D01*
X138225592Y-60384847D01*
X138360279Y-60250160D01*
X138468028Y-60196285D01*
X136732722Y-94805592D02*
X136651910Y-94832529D01*
X136571097Y-94913341D01*
X136517223Y-95021091D01*
X136517223Y-95128841D01*
X136544160Y-95209653D01*
X136624972Y-95344340D01*
X136705784Y-95425152D01*
X136840471Y-95505964D01*
X136921284Y-95532902D01*
X137029033Y-95532902D01*
X137136783Y-95479027D01*
X137190658Y-95425152D01*
X137244532Y-95317402D01*
X137244532Y-95263528D01*
X137055971Y-95074966D01*
X136948221Y-95182715D01*
X137540844Y-95074966D02*
X136975158Y-94509280D01*
X137190658Y-94293781D01*
X137271470Y-94266844D01*
X137325345Y-94266844D01*
X137406157Y-94293781D01*
X137486969Y-94374593D01*
X137513906Y-94455406D01*
X137513906Y-94509280D01*
X137486969Y-94590093D01*
X137271470Y-94805592D01*
X137567781Y-94024407D02*
X137567781Y-93970532D01*
X137594719Y-93889720D01*
X137729406Y-93755033D01*
X137810218Y-93728096D01*
X137864093Y-93728096D01*
X137944905Y-93755033D01*
X137998780Y-93808908D01*
X138052654Y-93916658D01*
X138052654Y-94563155D01*
X138402841Y-94212969D01*
X138187341Y-93297097D02*
X138241216Y-93243223D01*
X138322028Y-93216285D01*
X138375903Y-93216285D01*
X138456715Y-93243223D01*
X138591402Y-93324035D01*
X138726089Y-93458722D01*
X138806902Y-93593409D01*
X138833839Y-93674221D01*
X138833839Y-93728096D01*
X138806902Y-93808908D01*
X138753027Y-93862783D01*
X138672215Y-93889720D01*
X138618340Y-93889720D01*
X138537528Y-93862783D01*
X138402841Y-93781971D01*
X138268154Y-93647284D01*
X138187341Y-93512597D01*
X138160404Y-93431784D01*
X138160404Y-93377910D01*
X138187341Y-93297097D01*
X136732722Y-97345592D02*
X136651910Y-97372529D01*
X136571097Y-97453341D01*
X136517223Y-97561091D01*
X136517223Y-97668841D01*
X136544160Y-97749653D01*
X136624972Y-97884340D01*
X136705784Y-97965152D01*
X136840471Y-98045964D01*
X136921284Y-98072902D01*
X137029033Y-98072902D01*
X137136783Y-98019027D01*
X137190658Y-97965152D01*
X137244532Y-97857402D01*
X137244532Y-97803528D01*
X137055971Y-97614966D01*
X136948221Y-97722715D01*
X137540844Y-97614966D02*
X136975158Y-97049280D01*
X137190658Y-96833781D01*
X137271470Y-96806844D01*
X137325345Y-96806844D01*
X137406157Y-96833781D01*
X137486969Y-96914593D01*
X137513906Y-96995406D01*
X137513906Y-97049280D01*
X137486969Y-97130093D01*
X137271470Y-97345592D01*
X138402841Y-96752969D02*
X138079592Y-97076218D01*
X138241216Y-96914593D02*
X137675531Y-96348908D01*
X137702468Y-96483595D01*
X137702468Y-96591345D01*
X137675531Y-96672157D01*
X138672215Y-96483595D02*
X138779964Y-96375845D01*
X138806902Y-96295033D01*
X138806902Y-96241158D01*
X138779964Y-96106471D01*
X138699152Y-95971784D01*
X138483653Y-95756285D01*
X138402841Y-95729348D01*
X138348966Y-95729348D01*
X138268154Y-95756285D01*
X138160404Y-95864035D01*
X138133467Y-95944847D01*
X138133467Y-95998722D01*
X138160404Y-96079534D01*
X138295091Y-96214221D01*
X138375903Y-96241158D01*
X138429778Y-96241158D01*
X138510590Y-96214221D01*
X138618340Y-96106471D01*
X138645277Y-96025659D01*
X138645277Y-95971784D01*
X138618340Y-95890972D01*
X111121158Y-102183155D02*
X111040346Y-102210093D01*
X110959534Y-102290905D01*
X110905659Y-102398654D01*
X110905659Y-102506404D01*
X110932597Y-102587216D01*
X111013409Y-102721903D01*
X111094221Y-102802715D01*
X111228908Y-102883528D01*
X111309720Y-102910465D01*
X111417470Y-102910465D01*
X111525219Y-102856590D01*
X111579094Y-102802715D01*
X111632969Y-102694966D01*
X111632969Y-102641091D01*
X111444407Y-102452529D01*
X111336658Y-102560279D01*
X111929280Y-102452529D02*
X111363595Y-101886844D01*
X112252529Y-102129280D01*
X111686844Y-101563595D01*
X112521903Y-101859906D02*
X111956218Y-101294221D01*
X112090905Y-101159534D01*
X112198654Y-101105659D01*
X112306404Y-101105659D01*
X112387216Y-101132597D01*
X112521903Y-101213409D01*
X112602715Y-101294221D01*
X112683528Y-101428908D01*
X112710465Y-101509720D01*
X112710465Y-101617470D01*
X112656590Y-101725219D01*
X112521903Y-101859906D01*
X110624722Y-100208092D02*
X110543910Y-100235029D01*
X110463097Y-100315841D01*
X110409223Y-100423591D01*
X110409223Y-100531341D01*
X110436160Y-100612153D01*
X110516972Y-100746840D01*
X110597784Y-100827652D01*
X110732471Y-100908464D01*
X110813284Y-100935402D01*
X110921033Y-100935402D01*
X111028783Y-100881527D01*
X111082658Y-100827652D01*
X111136532Y-100719902D01*
X111136532Y-100666028D01*
X110947971Y-100477466D01*
X110840221Y-100585215D01*
X111432844Y-100477466D02*
X110867158Y-99911780D01*
X111082658Y-99696281D01*
X111163470Y-99669344D01*
X111217345Y-99669344D01*
X111298157Y-99696281D01*
X111378969Y-99777093D01*
X111405906Y-99857906D01*
X111405906Y-99911780D01*
X111378969Y-99992593D01*
X111163470Y-100208092D01*
X112294841Y-99615469D02*
X111971592Y-99938718D01*
X112133216Y-99777093D02*
X111567531Y-99211408D01*
X111594468Y-99346095D01*
X111594468Y-99453845D01*
X111567531Y-99534657D01*
X111917717Y-98861222D02*
X112267903Y-98511036D01*
X112294841Y-98915097D01*
X112375653Y-98834284D01*
X112456465Y-98807347D01*
X112510340Y-98807347D01*
X112591152Y-98834284D01*
X112725839Y-98968971D01*
X112752776Y-99049784D01*
X112752776Y-99103658D01*
X112725839Y-99184471D01*
X112564215Y-99346095D01*
X112483402Y-99373032D01*
X112429528Y-99373032D01*
X136732722Y-74231592D02*
X136651910Y-74258529D01*
X136571097Y-74339341D01*
X136517223Y-74447091D01*
X136517223Y-74554841D01*
X136544160Y-74635653D01*
X136624972Y-74770340D01*
X136705784Y-74851152D01*
X136840471Y-74931964D01*
X136921284Y-74958902D01*
X137029033Y-74958902D01*
X137136783Y-74905027D01*
X137190658Y-74851152D01*
X137244532Y-74743402D01*
X137244532Y-74689528D01*
X137055971Y-74500966D01*
X136948221Y-74608715D01*
X137540844Y-74500966D02*
X136975158Y-73935280D01*
X137190658Y-73719781D01*
X137271470Y-73692844D01*
X137325345Y-73692844D01*
X137406157Y-73719781D01*
X137486969Y-73800593D01*
X137513906Y-73881406D01*
X137513906Y-73935280D01*
X137486969Y-74016093D01*
X137271470Y-74231592D01*
X137567781Y-73450407D02*
X137567781Y-73396532D01*
X137594719Y-73315720D01*
X137729406Y-73181033D01*
X137810218Y-73154096D01*
X137864093Y-73154096D01*
X137944905Y-73181033D01*
X137998780Y-73234908D01*
X138052654Y-73342658D01*
X138052654Y-73989155D01*
X138402841Y-73638969D01*
X138402841Y-72992471D02*
X138322028Y-73019409D01*
X138268154Y-73019409D01*
X138187341Y-72992471D01*
X138160404Y-72965534D01*
X138133467Y-72884722D01*
X138133467Y-72830847D01*
X138160404Y-72750035D01*
X138268154Y-72642285D01*
X138348966Y-72615348D01*
X138402841Y-72615348D01*
X138483653Y-72642285D01*
X138510590Y-72669223D01*
X138537528Y-72750035D01*
X138537528Y-72803910D01*
X138510590Y-72884722D01*
X138402841Y-72992471D01*
X138375903Y-73073284D01*
X138375903Y-73127158D01*
X138402841Y-73207971D01*
X138510590Y-73315720D01*
X138591402Y-73342658D01*
X138645277Y-73342658D01*
X138726089Y-73315720D01*
X138833839Y-73207971D01*
X138860776Y-73127158D01*
X138860776Y-73073284D01*
X138833839Y-72992471D01*
X138726089Y-72884722D01*
X138645277Y-72857784D01*
X138591402Y-72857784D01*
X138510590Y-72884722D01*
X111148096Y-58976218D02*
X111067284Y-59003155D01*
X110986471Y-59083967D01*
X110932597Y-59191717D01*
X110932597Y-59299467D01*
X110959534Y-59380279D01*
X111040346Y-59514966D01*
X111121158Y-59595778D01*
X111255845Y-59676590D01*
X111336658Y-59703528D01*
X111444407Y-59703528D01*
X111552157Y-59649653D01*
X111606032Y-59595778D01*
X111659906Y-59488028D01*
X111659906Y-59434154D01*
X111471345Y-59245592D01*
X111363595Y-59353341D01*
X111956218Y-59245592D02*
X111390532Y-58679906D01*
X111606032Y-58464407D01*
X111686844Y-58437470D01*
X111740719Y-58437470D01*
X111821531Y-58464407D01*
X111902343Y-58545219D01*
X111929280Y-58626032D01*
X111929280Y-58679906D01*
X111902343Y-58760719D01*
X111686844Y-58976218D01*
X112063967Y-58006471D02*
X112117842Y-57952597D01*
X112198654Y-57925659D01*
X112252529Y-57925659D01*
X112333341Y-57952597D01*
X112468028Y-58033409D01*
X112602715Y-58168096D01*
X112683528Y-58302783D01*
X112710465Y-58383595D01*
X112710465Y-58437470D01*
X112683528Y-58518282D01*
X112629653Y-58572157D01*
X112548841Y-58599094D01*
X112494966Y-58599094D01*
X112414154Y-58572157D01*
X112279467Y-58491345D01*
X112144780Y-58356658D01*
X112063967Y-58221971D01*
X112037030Y-58141158D01*
X112037030Y-58087284D01*
X112063967Y-58006471D01*
X111048096Y-66596218D02*
X110967284Y-66623155D01*
X110886471Y-66703967D01*
X110832597Y-66811717D01*
X110832597Y-66919467D01*
X110859534Y-67000279D01*
X110940346Y-67134966D01*
X111021158Y-67215778D01*
X111155845Y-67296590D01*
X111236658Y-67323528D01*
X111344407Y-67323528D01*
X111452157Y-67269653D01*
X111506032Y-67215778D01*
X111559906Y-67108028D01*
X111559906Y-67054154D01*
X111371345Y-66865592D01*
X111263595Y-66973341D01*
X111856218Y-66865592D02*
X111290532Y-66299906D01*
X111506032Y-66084407D01*
X111586844Y-66057470D01*
X111640719Y-66057470D01*
X111721531Y-66084407D01*
X111802343Y-66165219D01*
X111829280Y-66246032D01*
X111829280Y-66299906D01*
X111802343Y-66380719D01*
X111586844Y-66596218D01*
X111883155Y-65815033D02*
X111883155Y-65761158D01*
X111910093Y-65680346D01*
X112044780Y-65545659D01*
X112125592Y-65518722D01*
X112179467Y-65518722D01*
X112260279Y-65545659D01*
X112314154Y-65599534D01*
X112368028Y-65707284D01*
X112368028Y-66353781D01*
X112718215Y-66003595D01*
X136732722Y-82105592D02*
X136651910Y-82132529D01*
X136571097Y-82213341D01*
X136517223Y-82321091D01*
X136517223Y-82428841D01*
X136544160Y-82509653D01*
X136624972Y-82644340D01*
X136705784Y-82725152D01*
X136840471Y-82805964D01*
X136921284Y-82832902D01*
X137029033Y-82832902D01*
X137136783Y-82779027D01*
X137190658Y-82725152D01*
X137244532Y-82617402D01*
X137244532Y-82563528D01*
X137055971Y-82374966D01*
X136948221Y-82482715D01*
X137540844Y-82374966D02*
X136975158Y-81809280D01*
X137190658Y-81593781D01*
X137271470Y-81566844D01*
X137325345Y-81566844D01*
X137406157Y-81593781D01*
X137486969Y-81674593D01*
X137513906Y-81755406D01*
X137513906Y-81809280D01*
X137486969Y-81890093D01*
X137271470Y-82105592D01*
X137567781Y-81324407D02*
X137567781Y-81270532D01*
X137594719Y-81189720D01*
X137729406Y-81055033D01*
X137810218Y-81028096D01*
X137864093Y-81028096D01*
X137944905Y-81055033D01*
X137998780Y-81108908D01*
X138052654Y-81216658D01*
X138052654Y-81863155D01*
X138402841Y-81512969D01*
X138322028Y-80462410D02*
X138214279Y-80570160D01*
X138187341Y-80650972D01*
X138187341Y-80704847D01*
X138214279Y-80839534D01*
X138295091Y-80974221D01*
X138510590Y-81189720D01*
X138591402Y-81216658D01*
X138645277Y-81216658D01*
X138726089Y-81189720D01*
X138833839Y-81081971D01*
X138860776Y-81001158D01*
X138860776Y-80947284D01*
X138833839Y-80866471D01*
X138699152Y-80731784D01*
X138618340Y-80704847D01*
X138564465Y-80704847D01*
X138483653Y-80731784D01*
X138375903Y-80839534D01*
X138348966Y-80920346D01*
X138348966Y-80974221D01*
X138375903Y-81055033D01*
X121825476Y-90808809D02*
X121939761Y-90846904D01*
X122130238Y-90846904D01*
X122206428Y-90808809D01*
X122244523Y-90770714D01*
X122282619Y-90694523D01*
X122282619Y-90618333D01*
X122244523Y-90542142D01*
X122206428Y-90504047D01*
X122130238Y-90465952D01*
X121977857Y-90427857D01*
X121901666Y-90389761D01*
X121863571Y-90351666D01*
X121825476Y-90275476D01*
X121825476Y-90199285D01*
X121863571Y-90123095D01*
X121901666Y-90085000D01*
X121977857Y-90046904D01*
X122168333Y-90046904D01*
X122282619Y-90085000D01*
X122549285Y-90046904D02*
X122739761Y-90846904D01*
X122892142Y-90275476D01*
X123044523Y-90846904D01*
X123235000Y-90046904D01*
X123996904Y-90770714D02*
X123958809Y-90808809D01*
X123844523Y-90846904D01*
X123768333Y-90846904D01*
X123654047Y-90808809D01*
X123577857Y-90732619D01*
X123539761Y-90656428D01*
X123501666Y-90504047D01*
X123501666Y-90389761D01*
X123539761Y-90237380D01*
X123577857Y-90161190D01*
X123654047Y-90085000D01*
X123768333Y-90046904D01*
X123844523Y-90046904D01*
X123958809Y-90085000D01*
X123996904Y-90123095D01*
X124720714Y-90846904D02*
X124339761Y-90846904D01*
X124339761Y-90046904D01*
X124987380Y-90846904D02*
X124987380Y-90046904D01*
X125444523Y-90846904D02*
X125101666Y-90389761D01*
X125444523Y-90046904D02*
X124987380Y-90504047D01*
X110478722Y-95128092D02*
X110397910Y-95155029D01*
X110317097Y-95235841D01*
X110263223Y-95343591D01*
X110263223Y-95451341D01*
X110290160Y-95532153D01*
X110370972Y-95666840D01*
X110451784Y-95747652D01*
X110586471Y-95828464D01*
X110667284Y-95855402D01*
X110775033Y-95855402D01*
X110882783Y-95801527D01*
X110936658Y-95747652D01*
X110990532Y-95639902D01*
X110990532Y-95586028D01*
X110801971Y-95397466D01*
X110694221Y-95505215D01*
X111286844Y-95397466D02*
X110721158Y-94831780D01*
X110936658Y-94616281D01*
X111017470Y-94589344D01*
X111071345Y-94589344D01*
X111152157Y-94616281D01*
X111232969Y-94697093D01*
X111259906Y-94777906D01*
X111259906Y-94831780D01*
X111232969Y-94912593D01*
X111017470Y-95128092D01*
X112148841Y-94535469D02*
X111825592Y-94858718D01*
X111987216Y-94697093D02*
X111421531Y-94131408D01*
X111448468Y-94266095D01*
X111448468Y-94373845D01*
X111421531Y-94454657D01*
X112687589Y-93996721D02*
X112364340Y-94319970D01*
X112525964Y-94158345D02*
X111960279Y-93592660D01*
X111987216Y-93727347D01*
X111987216Y-93835097D01*
X111960279Y-93915909D01*
X136786597Y-77725964D02*
X137055971Y-77456590D01*
X136894346Y-77941463D02*
X136517223Y-77187216D01*
X137271470Y-77564340D01*
X137217595Y-76540719D02*
X137136783Y-76567656D01*
X137055971Y-76648468D01*
X137002096Y-76756218D01*
X137002096Y-76863967D01*
X137029033Y-76944780D01*
X137109845Y-77079467D01*
X137190658Y-77160279D01*
X137325345Y-77241091D01*
X137406157Y-77268028D01*
X137513906Y-77268028D01*
X137621656Y-77214154D01*
X137675531Y-77160279D01*
X137729406Y-77052529D01*
X137729406Y-76998654D01*
X137540844Y-76810093D01*
X137433094Y-76917842D01*
X138025717Y-76810093D02*
X137460032Y-76244407D01*
X138348966Y-76486844D01*
X137783280Y-75921158D01*
X138618340Y-76217470D02*
X138052654Y-75651784D01*
X138187341Y-75517097D01*
X138295091Y-75463223D01*
X138402841Y-75463223D01*
X138483653Y-75490160D01*
X138618340Y-75570972D01*
X138699152Y-75651784D01*
X138779964Y-75786471D01*
X138806902Y-75867284D01*
X138806902Y-75975033D01*
X138753027Y-76082783D01*
X138618340Y-76217470D01*
X110478722Y-97668092D02*
X110397910Y-97695029D01*
X110317097Y-97775841D01*
X110263223Y-97883591D01*
X110263223Y-97991341D01*
X110290160Y-98072153D01*
X110370972Y-98206840D01*
X110451784Y-98287652D01*
X110586471Y-98368464D01*
X110667284Y-98395402D01*
X110775033Y-98395402D01*
X110882783Y-98341527D01*
X110936658Y-98287652D01*
X110990532Y-98179902D01*
X110990532Y-98126028D01*
X110801971Y-97937466D01*
X110694221Y-98045215D01*
X111286844Y-97937466D02*
X110721158Y-97371780D01*
X110936658Y-97156281D01*
X111017470Y-97129344D01*
X111071345Y-97129344D01*
X111152157Y-97156281D01*
X111232969Y-97237093D01*
X111259906Y-97317906D01*
X111259906Y-97371780D01*
X111232969Y-97452593D01*
X111017470Y-97668092D01*
X112148841Y-97075469D02*
X111825592Y-97398718D01*
X111987216Y-97237093D02*
X111421531Y-96671408D01*
X111448468Y-96806095D01*
X111448468Y-96913845D01*
X111421531Y-96994657D01*
X111852529Y-96348159D02*
X111852529Y-96294284D01*
X111879467Y-96213472D01*
X112014154Y-96078785D01*
X112094966Y-96051848D01*
X112148841Y-96051848D01*
X112229653Y-96078785D01*
X112283528Y-96132660D01*
X112337402Y-96240410D01*
X112337402Y-96886907D01*
X112687589Y-96536721D01*
X111148096Y-71676218D02*
X111067284Y-71703155D01*
X110986471Y-71783967D01*
X110932597Y-71891717D01*
X110932597Y-71999467D01*
X110959534Y-72080279D01*
X111040346Y-72214966D01*
X111121158Y-72295778D01*
X111255845Y-72376590D01*
X111336658Y-72403528D01*
X111444407Y-72403528D01*
X111552157Y-72349653D01*
X111606032Y-72295778D01*
X111659906Y-72188028D01*
X111659906Y-72134154D01*
X111471345Y-71945592D01*
X111363595Y-72053341D01*
X111956218Y-71945592D02*
X111390532Y-71379906D01*
X111606032Y-71164407D01*
X111686844Y-71137470D01*
X111740719Y-71137470D01*
X111821531Y-71164407D01*
X111902343Y-71245219D01*
X111929280Y-71326032D01*
X111929280Y-71379906D01*
X111902343Y-71460719D01*
X111686844Y-71676218D01*
X112387216Y-70760346D02*
X112764340Y-71137470D01*
X112037030Y-70679534D02*
X112306404Y-71218282D01*
X112656590Y-70868096D01*
X128439761Y-91308809D02*
X128554047Y-91346904D01*
X128744523Y-91346904D01*
X128820714Y-91308809D01*
X128858809Y-91270714D01*
X128896904Y-91194523D01*
X128896904Y-91118333D01*
X128858809Y-91042142D01*
X128820714Y-91004047D01*
X128744523Y-90965952D01*
X128592142Y-90927857D01*
X128515952Y-90889761D01*
X128477857Y-90851666D01*
X128439761Y-90775476D01*
X128439761Y-90699285D01*
X128477857Y-90623095D01*
X128515952Y-90585000D01*
X128592142Y-90546904D01*
X128782619Y-90546904D01*
X128896904Y-90585000D01*
X129163571Y-90546904D02*
X129354047Y-91346904D01*
X129506428Y-90775476D01*
X129658809Y-91346904D01*
X129849285Y-90546904D01*
X130154047Y-91346904D02*
X130154047Y-90546904D01*
X130344523Y-90546904D01*
X130458809Y-90585000D01*
X130535000Y-90661190D01*
X130573095Y-90737380D01*
X130611190Y-90889761D01*
X130611190Y-91004047D01*
X130573095Y-91156428D01*
X130535000Y-91232619D01*
X130458809Y-91308809D01*
X130344523Y-91346904D01*
X130154047Y-91346904D01*
X130954047Y-91346904D02*
X130954047Y-90546904D01*
X131487380Y-90546904D02*
X131639761Y-90546904D01*
X131715952Y-90585000D01*
X131792142Y-90661190D01*
X131830238Y-90813571D01*
X131830238Y-91080238D01*
X131792142Y-91232619D01*
X131715952Y-91308809D01*
X131639761Y-91346904D01*
X131487380Y-91346904D01*
X131411190Y-91308809D01*
X131335000Y-91232619D01*
X131296904Y-91080238D01*
X131296904Y-90813571D01*
X131335000Y-90661190D01*
X131411190Y-90585000D01*
X131487380Y-90546904D01*
X111148096Y-74216218D02*
X111067284Y-74243155D01*
X110986471Y-74323967D01*
X110932597Y-74431717D01*
X110932597Y-74539467D01*
X110959534Y-74620279D01*
X111040346Y-74754966D01*
X111121158Y-74835778D01*
X111255845Y-74916590D01*
X111336658Y-74943528D01*
X111444407Y-74943528D01*
X111552157Y-74889653D01*
X111606032Y-74835778D01*
X111659906Y-74728028D01*
X111659906Y-74674154D01*
X111471345Y-74485592D01*
X111363595Y-74593341D01*
X111956218Y-74485592D02*
X111390532Y-73919906D01*
X111606032Y-73704407D01*
X111686844Y-73677470D01*
X111740719Y-73677470D01*
X111821531Y-73704407D01*
X111902343Y-73785219D01*
X111929280Y-73866032D01*
X111929280Y-73919906D01*
X111902343Y-74000719D01*
X111686844Y-74216218D01*
X112225592Y-73084847D02*
X111956218Y-73354221D01*
X112198654Y-73650532D01*
X112198654Y-73596658D01*
X112225592Y-73515845D01*
X112360279Y-73381158D01*
X112441091Y-73354221D01*
X112494966Y-73354221D01*
X112575778Y-73381158D01*
X112710465Y-73515845D01*
X112737402Y-73596658D01*
X112737402Y-73650532D01*
X112710465Y-73731345D01*
X112575778Y-73866032D01*
X112494966Y-73892969D01*
X112441091Y-73892969D01*
X111148096Y-79296218D02*
X111067284Y-79323155D01*
X110986471Y-79403967D01*
X110932597Y-79511717D01*
X110932597Y-79619467D01*
X110959534Y-79700279D01*
X111040346Y-79834966D01*
X111121158Y-79915778D01*
X111255845Y-79996590D01*
X111336658Y-80023528D01*
X111444407Y-80023528D01*
X111552157Y-79969653D01*
X111606032Y-79915778D01*
X111659906Y-79808028D01*
X111659906Y-79754154D01*
X111471345Y-79565592D01*
X111363595Y-79673341D01*
X111956218Y-79565592D02*
X111390532Y-78999906D01*
X111606032Y-78784407D01*
X111686844Y-78757470D01*
X111740719Y-78757470D01*
X111821531Y-78784407D01*
X111902343Y-78865219D01*
X111929280Y-78946032D01*
X111929280Y-78999906D01*
X111902343Y-79080719D01*
X111686844Y-79296218D01*
X112198654Y-78191784D02*
X112090905Y-78299534D01*
X112063967Y-78380346D01*
X112063967Y-78434221D01*
X112090905Y-78568908D01*
X112171717Y-78703595D01*
X112387216Y-78919094D01*
X112468028Y-78946032D01*
X112521903Y-78946032D01*
X112602715Y-78919094D01*
X112710465Y-78811345D01*
X112737402Y-78730532D01*
X112737402Y-78676658D01*
X112710465Y-78595845D01*
X112575778Y-78461158D01*
X112494966Y-78434221D01*
X112441091Y-78434221D01*
X112360279Y-78461158D01*
X112252529Y-78568908D01*
X112225592Y-78649720D01*
X112225592Y-78703595D01*
X112252529Y-78784407D01*
X137473375Y-84928435D02*
X137015439Y-84847622D01*
X137150126Y-85251683D02*
X136584441Y-84685998D01*
X136799940Y-84470499D01*
X136880752Y-84443561D01*
X136934627Y-84443561D01*
X137015439Y-84470499D01*
X137096251Y-84551311D01*
X137123189Y-84632123D01*
X137123189Y-84685998D01*
X137096251Y-84766810D01*
X136880752Y-84982309D01*
X137150126Y-84120312D02*
X137608062Y-84578248D01*
X137688874Y-84605186D01*
X137742749Y-84605186D01*
X137823561Y-84578248D01*
X137931311Y-84470499D01*
X137958248Y-84389687D01*
X137958248Y-84335812D01*
X137931311Y-84254999D01*
X137473375Y-83797064D01*
X138308435Y-84093375D02*
X137742749Y-83527690D01*
X138631683Y-83770126D01*
X138065998Y-83204441D01*
X111121158Y-64083155D02*
X111040346Y-64110093D01*
X110959534Y-64190905D01*
X110905659Y-64298654D01*
X110905659Y-64406404D01*
X110932597Y-64487216D01*
X111013409Y-64621903D01*
X111094221Y-64702715D01*
X111228908Y-64783528D01*
X111309720Y-64810465D01*
X111417470Y-64810465D01*
X111525219Y-64756590D01*
X111579094Y-64702715D01*
X111632969Y-64594966D01*
X111632969Y-64541091D01*
X111444407Y-64352529D01*
X111336658Y-64460279D01*
X111929280Y-64352529D02*
X111363595Y-63786844D01*
X112252529Y-64029280D01*
X111686844Y-63463595D01*
X112521903Y-63759906D02*
X111956218Y-63194221D01*
X112090905Y-63059534D01*
X112198654Y-63005659D01*
X112306404Y-63005659D01*
X112387216Y-63032597D01*
X112521903Y-63113409D01*
X112602715Y-63194221D01*
X112683528Y-63328908D01*
X112710465Y-63409720D01*
X112710465Y-63517470D01*
X112656590Y-63625219D01*
X112521903Y-63759906D01*
X136721158Y-64083155D02*
X136640346Y-64110093D01*
X136559534Y-64190905D01*
X136505659Y-64298654D01*
X136505659Y-64406404D01*
X136532597Y-64487216D01*
X136613409Y-64621903D01*
X136694221Y-64702715D01*
X136828908Y-64783528D01*
X136909720Y-64810465D01*
X137017470Y-64810465D01*
X137125219Y-64756590D01*
X137179094Y-64702715D01*
X137232969Y-64594966D01*
X137232969Y-64541091D01*
X137044407Y-64352529D01*
X136936658Y-64460279D01*
X137529280Y-64352529D02*
X136963595Y-63786844D01*
X137852529Y-64029280D01*
X137286844Y-63463595D01*
X138121903Y-63759906D02*
X137556218Y-63194221D01*
X137690905Y-63059534D01*
X137798654Y-63005659D01*
X137906404Y-63005659D01*
X137987216Y-63032597D01*
X138121903Y-63113409D01*
X138202715Y-63194221D01*
X138283528Y-63328908D01*
X138310465Y-63409720D01*
X138310465Y-63517470D01*
X138256590Y-63625219D01*
X138121903Y-63759906D01*
X136732722Y-87185592D02*
X136651910Y-87212529D01*
X136571097Y-87293341D01*
X136517223Y-87401091D01*
X136517223Y-87508841D01*
X136544160Y-87589653D01*
X136624972Y-87724340D01*
X136705784Y-87805152D01*
X136840471Y-87885964D01*
X136921284Y-87912902D01*
X137029033Y-87912902D01*
X137136783Y-87859027D01*
X137190658Y-87805152D01*
X137244532Y-87697402D01*
X137244532Y-87643528D01*
X137055971Y-87454966D01*
X136948221Y-87562715D01*
X137540844Y-87454966D02*
X136975158Y-86889280D01*
X137190658Y-86673781D01*
X137271470Y-86646844D01*
X137325345Y-86646844D01*
X137406157Y-86673781D01*
X137486969Y-86754593D01*
X137513906Y-86835406D01*
X137513906Y-86889280D01*
X137486969Y-86970093D01*
X137271470Y-87185592D01*
X137567781Y-86404407D02*
X137567781Y-86350532D01*
X137594719Y-86269720D01*
X137729406Y-86135033D01*
X137810218Y-86108096D01*
X137864093Y-86108096D01*
X137944905Y-86135033D01*
X137998780Y-86188908D01*
X138052654Y-86296658D01*
X138052654Y-86943155D01*
X138402841Y-86592969D01*
X138106529Y-85865659D02*
X138106529Y-85811784D01*
X138133467Y-85730972D01*
X138268154Y-85596285D01*
X138348966Y-85569348D01*
X138402841Y-85569348D01*
X138483653Y-85596285D01*
X138537528Y-85650160D01*
X138591402Y-85757910D01*
X138591402Y-86404407D01*
X138941589Y-86054221D01*
X111148096Y-84376218D02*
X111067284Y-84403155D01*
X110986471Y-84483967D01*
X110932597Y-84591717D01*
X110932597Y-84699467D01*
X110959534Y-84780279D01*
X111040346Y-84914966D01*
X111121158Y-84995778D01*
X111255845Y-85076590D01*
X111336658Y-85103528D01*
X111444407Y-85103528D01*
X111552157Y-85049653D01*
X111606032Y-84995778D01*
X111659906Y-84888028D01*
X111659906Y-84834154D01*
X111471345Y-84645592D01*
X111363595Y-84753341D01*
X111956218Y-84645592D02*
X111390532Y-84079906D01*
X111606032Y-83864407D01*
X111686844Y-83837470D01*
X111740719Y-83837470D01*
X111821531Y-83864407D01*
X111902343Y-83945219D01*
X111929280Y-84026032D01*
X111929280Y-84079906D01*
X111902343Y-84160719D01*
X111686844Y-84376218D01*
X112279467Y-83675845D02*
X112198654Y-83702783D01*
X112144780Y-83702783D01*
X112063967Y-83675845D01*
X112037030Y-83648908D01*
X112010093Y-83568096D01*
X112010093Y-83514221D01*
X112037030Y-83433409D01*
X112144780Y-83325659D01*
X112225592Y-83298722D01*
X112279467Y-83298722D01*
X112360279Y-83325659D01*
X112387216Y-83352597D01*
X112414154Y-83433409D01*
X112414154Y-83487284D01*
X112387216Y-83568096D01*
X112279467Y-83675845D01*
X112252529Y-83756658D01*
X112252529Y-83810532D01*
X112279467Y-83891345D01*
X112387216Y-83999094D01*
X112468028Y-84026032D01*
X112521903Y-84026032D01*
X112602715Y-83999094D01*
X112710465Y-83891345D01*
X112737402Y-83810532D01*
X112737402Y-83756658D01*
X112710465Y-83675845D01*
X112602715Y-83568096D01*
X112521903Y-83541158D01*
X112468028Y-83541158D01*
X112387216Y-83568096D01*
X111121158Y-89483155D02*
X111040346Y-89510093D01*
X110959534Y-89590905D01*
X110905659Y-89698654D01*
X110905659Y-89806404D01*
X110932597Y-89887216D01*
X111013409Y-90021903D01*
X111094221Y-90102715D01*
X111228908Y-90183528D01*
X111309720Y-90210465D01*
X111417470Y-90210465D01*
X111525219Y-90156590D01*
X111579094Y-90102715D01*
X111632969Y-89994966D01*
X111632969Y-89941091D01*
X111444407Y-89752529D01*
X111336658Y-89860279D01*
X111929280Y-89752529D02*
X111363595Y-89186844D01*
X112252529Y-89429280D01*
X111686844Y-88863595D01*
X112521903Y-89159906D02*
X111956218Y-88594221D01*
X112090905Y-88459534D01*
X112198654Y-88405659D01*
X112306404Y-88405659D01*
X112387216Y-88432597D01*
X112521903Y-88513409D01*
X112602715Y-88594221D01*
X112683528Y-88728908D01*
X112710465Y-88809720D01*
X112710465Y-88917470D01*
X112656590Y-89025219D01*
X112521903Y-89159906D01*
X136732722Y-107505592D02*
X136651910Y-107532529D01*
X136571097Y-107613341D01*
X136517223Y-107721091D01*
X136517223Y-107828841D01*
X136544160Y-107909653D01*
X136624972Y-108044340D01*
X136705784Y-108125152D01*
X136840471Y-108205964D01*
X136921284Y-108232902D01*
X137029033Y-108232902D01*
X137136783Y-108179027D01*
X137190658Y-108125152D01*
X137244532Y-108017402D01*
X137244532Y-107963528D01*
X137055971Y-107774966D01*
X136948221Y-107882715D01*
X137540844Y-107774966D02*
X136975158Y-107209280D01*
X137190658Y-106993781D01*
X137271470Y-106966844D01*
X137325345Y-106966844D01*
X137406157Y-106993781D01*
X137486969Y-107074593D01*
X137513906Y-107155406D01*
X137513906Y-107209280D01*
X137486969Y-107290093D01*
X137271470Y-107505592D01*
X138402841Y-106912969D02*
X138079592Y-107236218D01*
X138241216Y-107074593D02*
X137675531Y-106508908D01*
X137702468Y-106643595D01*
X137702468Y-106751345D01*
X137675531Y-106832157D01*
X138322028Y-105862410D02*
X138214279Y-105970160D01*
X138187341Y-106050972D01*
X138187341Y-106104847D01*
X138214279Y-106239534D01*
X138295091Y-106374221D01*
X138510590Y-106589720D01*
X138591402Y-106616658D01*
X138645277Y-106616658D01*
X138726089Y-106589720D01*
X138833839Y-106481971D01*
X138860776Y-106401158D01*
X138860776Y-106347284D01*
X138833839Y-106266471D01*
X138699152Y-106131784D01*
X138618340Y-106104847D01*
X138564465Y-106104847D01*
X138483653Y-106131784D01*
X138375903Y-106239534D01*
X138348966Y-106320346D01*
X138348966Y-106374221D01*
X138375903Y-106455033D01*
D12*
%TO.C,RF1*%
X145670000Y-68470000D02*
X148330000Y-68470000D01*
X145670000Y-68470000D02*
X145670000Y-76150000D01*
X147000000Y-65870000D02*
X148330000Y-65870000D01*
X148330000Y-65870000D02*
X148330000Y-67200000D01*
X148330000Y-68470000D02*
X148330000Y-76150000D01*
X145670000Y-76150000D02*
X148330000Y-76150000D01*
%TO.C,SW1*%
X124429000Y-133176000D02*
X124429000Y-120222000D01*
X124429000Y-120222000D02*
X117571000Y-120222000D01*
X117571000Y-120222000D02*
X117571000Y-133176000D01*
X117571000Y-133176000D02*
X124429000Y-133176000D01*
%TO.C,J13*%
X113730000Y-52670000D02*
X111130000Y-52670000D01*
X113730000Y-55330000D02*
X111130000Y-55330000D01*
X116330000Y-55330000D02*
X115000000Y-55330000D01*
X113730000Y-52670000D02*
X113730000Y-55330000D01*
X111130000Y-52670000D02*
X111130000Y-55330000D01*
X116330000Y-54000000D02*
X116330000Y-55330000D01*
%TO.C,J4*%
X135730000Y-52670000D02*
X135730000Y-55330000D01*
X138330000Y-55330000D02*
X137000000Y-55330000D01*
X138330000Y-54000000D02*
X138330000Y-55330000D01*
X133130000Y-52670000D02*
X133130000Y-55330000D01*
X135730000Y-55330000D02*
X133130000Y-55330000D01*
X135730000Y-52670000D02*
X133130000Y-52670000D01*
D13*
%TO.C,Z1*%
X140750000Y-124400000D02*
X140750000Y-124000000D01*
X141636020Y-124402080D02*
X141559820Y-124402080D01*
X145250000Y-121600000D02*
X145250000Y-122000000D01*
X140750000Y-121600000D02*
X140750000Y-122000000D01*
X141559820Y-124402080D02*
X141559820Y-123942340D01*
X145250000Y-124400000D02*
X145250000Y-124000000D01*
X141559820Y-123942340D02*
X141636020Y-123942340D01*
X145250000Y-121600000D02*
X144850000Y-121600000D01*
X141636020Y-121600460D02*
X141559820Y-121600460D01*
X141636020Y-122065280D02*
X141636020Y-121600460D01*
X141559820Y-122065280D02*
X141636020Y-122065280D01*
X145250000Y-124400000D02*
X144850000Y-124400000D01*
X141636020Y-123942340D02*
X141636020Y-124402080D01*
X140750000Y-124400000D02*
X141150000Y-124400000D01*
X140750000Y-121600000D02*
X141150000Y-121600000D01*
X141559820Y-121600460D02*
X141559820Y-122065280D01*
D12*
%TO.C,D3*%
X148135000Y-130000000D02*
X148135000Y-126115000D01*
X148135000Y-126115000D02*
X145865000Y-126115000D01*
X145865000Y-126115000D02*
X145865000Y-130000000D01*
%TO.C,D1*%
X134270000Y-118880000D02*
X134270000Y-129120000D01*
X134270000Y-118880000D02*
X129629000Y-118880000D01*
X134270000Y-125851000D02*
X132760000Y-125851000D01*
X129629000Y-118880000D02*
X129629000Y-129120000D01*
X134270000Y-129120000D02*
X129629000Y-129120000D01*
X132760000Y-118880000D02*
X132760000Y-129120000D01*
X134270000Y-122150000D02*
X132760000Y-122150000D01*
%TO.C,C1*%
X146741000Y-114241000D02*
X146741000Y-117564000D01*
X149301000Y-111258000D02*
X149301000Y-114742000D01*
X147341000Y-114241000D02*
X147341000Y-117221000D01*
X147741000Y-109075000D02*
X147741000Y-111759000D01*
X144700000Y-107923000D02*
X144700000Y-118077000D01*
X146501000Y-114241000D02*
X146501000Y-117674000D01*
X146261000Y-108232000D02*
X146261000Y-111759000D01*
X145341000Y-107989000D02*
X145341000Y-118011000D01*
X147461000Y-114241000D02*
X147461000Y-117138000D01*
X144980000Y-107942000D02*
X144980000Y-118058000D01*
X147821000Y-109142000D02*
X147821000Y-111759000D01*
X147421000Y-114241000D02*
X147421000Y-117166000D01*
X147901000Y-109211000D02*
X147901000Y-111759000D01*
X145861000Y-108103000D02*
X145861000Y-111759000D01*
X148701000Y-110111000D02*
X148701000Y-115889000D01*
X145701000Y-108062000D02*
X145701000Y-117938000D01*
X147381000Y-108806000D02*
X147381000Y-111759000D01*
X148501000Y-109844000D02*
X148501000Y-116156000D01*
X148181000Y-109480000D02*
X148181000Y-111759000D01*
X147861000Y-114241000D02*
X147861000Y-116824000D01*
X148941000Y-110490000D02*
X148941000Y-115510000D01*
X145301000Y-107982000D02*
X145301000Y-118018000D01*
X146341000Y-114241000D02*
X146341000Y-117738000D01*
X148581000Y-109946000D02*
X148581000Y-116054000D01*
X148621000Y-110000000D02*
X148621000Y-116000000D01*
X149181000Y-110963000D02*
X149181000Y-115037000D01*
X139520354Y-109625000D02*
X139520354Y-110625000D01*
X149101000Y-110791000D02*
X149101000Y-115209000D01*
X148781000Y-110230000D02*
X148781000Y-115770000D01*
X147501000Y-114241000D02*
X147501000Y-117110000D01*
X148421000Y-109746000D02*
X148421000Y-116254000D01*
X146541000Y-114241000D02*
X146541000Y-117657000D01*
X147901000Y-114241000D02*
X147901000Y-116789000D01*
X146661000Y-114241000D02*
X146661000Y-117603000D01*
X145981000Y-114241000D02*
X145981000Y-117862000D01*
X145901000Y-114241000D02*
X145901000Y-117885000D01*
X146781000Y-114241000D02*
X146781000Y-117545000D01*
X145541000Y-108026000D02*
X145541000Y-117974000D01*
X139020354Y-110125000D02*
X140020354Y-110125000D01*
X147861000Y-109176000D02*
X147861000Y-111759000D01*
X146181000Y-114241000D02*
X146181000Y-117797000D01*
X147021000Y-108583000D02*
X147021000Y-111759000D01*
X147661000Y-114241000D02*
X147661000Y-116989000D01*
X145621000Y-108044000D02*
X145621000Y-117956000D01*
X146101000Y-108176000D02*
X146101000Y-111759000D01*
X146461000Y-108310000D02*
X146461000Y-111759000D01*
X144820000Y-107930000D02*
X144820000Y-118070000D01*
X147701000Y-114241000D02*
X147701000Y-116957000D01*
X147101000Y-108629000D02*
X147101000Y-111759000D01*
X148741000Y-110170000D02*
X148741000Y-115830000D01*
X146701000Y-108416000D02*
X146701000Y-111759000D01*
X147221000Y-108702000D02*
X147221000Y-111759000D01*
X145861000Y-114241000D02*
X145861000Y-117897000D01*
X146141000Y-114241000D02*
X146141000Y-117811000D01*
X147621000Y-108980000D02*
X147621000Y-111759000D01*
X145781000Y-108082000D02*
X145781000Y-111759000D01*
X146341000Y-108262000D02*
X146341000Y-111759000D01*
X145981000Y-108138000D02*
X145981000Y-111759000D01*
X148901000Y-110421000D02*
X148901000Y-115579000D01*
X145581000Y-108035000D02*
X145581000Y-117965000D01*
X144740000Y-107925000D02*
X144740000Y-118075000D01*
X148461000Y-109794000D02*
X148461000Y-116206000D01*
X147621000Y-114241000D02*
X147621000Y-117020000D01*
X146781000Y-108455000D02*
X146781000Y-111759000D01*
X146461000Y-114241000D02*
X146461000Y-117690000D01*
X146581000Y-114241000D02*
X146581000Y-117639000D01*
X148861000Y-110355000D02*
X148861000Y-115645000D01*
X145020000Y-107946000D02*
X145020000Y-118054000D01*
X145140000Y-107960000D02*
X145140000Y-118040000D01*
X148261000Y-109564000D02*
X148261000Y-116436000D01*
X146261000Y-114241000D02*
X146261000Y-117768000D01*
X148061000Y-114241000D02*
X148061000Y-116640000D01*
X147541000Y-114241000D02*
X147541000Y-117080000D01*
X147421000Y-108834000D02*
X147421000Y-111759000D01*
X145901000Y-108115000D02*
X145901000Y-111759000D01*
X146901000Y-108517000D02*
X146901000Y-111759000D01*
X149421000Y-111622000D02*
X149421000Y-114378000D01*
X147461000Y-108862000D02*
X147461000Y-111759000D01*
X148981000Y-110561000D02*
X148981000Y-115439000D01*
X147021000Y-114241000D02*
X147021000Y-117417000D01*
X146501000Y-108326000D02*
X146501000Y-111759000D01*
X145180000Y-107965000D02*
X145180000Y-118035000D01*
X147741000Y-114241000D02*
X147741000Y-116925000D01*
X146581000Y-108361000D02*
X146581000Y-111759000D01*
X147661000Y-109011000D02*
X147661000Y-111759000D01*
X148021000Y-114241000D02*
X148021000Y-116679000D01*
X146301000Y-108246000D02*
X146301000Y-111759000D01*
X148101000Y-114241000D02*
X148101000Y-116601000D01*
X144540000Y-107920000D02*
X144540000Y-118080000D01*
X148541000Y-109894000D02*
X148541000Y-116106000D01*
X145821000Y-114241000D02*
X145821000Y-117907000D01*
X147341000Y-108779000D02*
X147341000Y-111759000D01*
X146821000Y-108475000D02*
X146821000Y-111759000D01*
X145661000Y-108053000D02*
X145661000Y-117947000D01*
X146421000Y-108293000D02*
X146421000Y-111759000D01*
X147781000Y-114241000D02*
X147781000Y-116892000D01*
X146101000Y-114241000D02*
X146101000Y-117824000D01*
X146941000Y-108538000D02*
X146941000Y-111759000D01*
X146821000Y-114241000D02*
X146821000Y-117525000D01*
X148301000Y-109608000D02*
X148301000Y-116392000D01*
X148221000Y-114241000D02*
X148221000Y-116478000D01*
X145100000Y-107955000D02*
X145100000Y-118045000D01*
X147261000Y-108727000D02*
X147261000Y-111759000D01*
X145461000Y-108010000D02*
X145461000Y-117990000D01*
X146221000Y-114241000D02*
X146221000Y-117783000D01*
X147981000Y-109284000D02*
X147981000Y-111759000D01*
X149061000Y-110711000D02*
X149061000Y-115289000D01*
X147781000Y-109108000D02*
X147781000Y-111759000D01*
X147141000Y-114241000D02*
X147141000Y-117347000D01*
X148141000Y-109439000D02*
X148141000Y-111759000D01*
X146981000Y-108560000D02*
X146981000Y-111759000D01*
X145421000Y-108003000D02*
X145421000Y-117997000D01*
X147701000Y-109043000D02*
X147701000Y-111759000D01*
X144780000Y-107927000D02*
X144780000Y-118073000D01*
X144660000Y-107922000D02*
X144660000Y-118078000D01*
X145221000Y-107970000D02*
X145221000Y-118030000D01*
X147941000Y-114241000D02*
X147941000Y-116753000D01*
X146901000Y-114241000D02*
X146901000Y-117483000D01*
X146021000Y-114241000D02*
X146021000Y-117850000D01*
X146021000Y-108150000D02*
X146021000Y-111759000D01*
X145741000Y-108072000D02*
X145741000Y-117928000D01*
X144900000Y-107935000D02*
X144900000Y-118065000D01*
X148061000Y-109360000D02*
X148061000Y-111759000D01*
X144500000Y-107920000D02*
X144500000Y-118080000D01*
X147181000Y-108677000D02*
X147181000Y-111759000D01*
X146381000Y-114241000D02*
X146381000Y-117723000D01*
X146661000Y-108397000D02*
X146661000Y-111759000D01*
X145941000Y-114241000D02*
X145941000Y-117874000D01*
X148381000Y-109699000D02*
X148381000Y-116301000D01*
X146061000Y-114241000D02*
X146061000Y-117837000D01*
X146301000Y-114241000D02*
X146301000Y-117754000D01*
X149341000Y-111370000D02*
X149341000Y-114630000D01*
X145381000Y-107996000D02*
X145381000Y-118004000D01*
X149461000Y-111770000D02*
X149461000Y-114230000D01*
X144860000Y-107932000D02*
X144860000Y-118068000D01*
X144940000Y-107938000D02*
X144940000Y-118062000D01*
X146541000Y-108343000D02*
X146541000Y-111759000D01*
X145781000Y-114241000D02*
X145781000Y-117918000D01*
X148221000Y-109522000D02*
X148221000Y-111759000D01*
X148141000Y-114241000D02*
X148141000Y-116561000D01*
X145821000Y-108093000D02*
X145821000Y-111759000D01*
X146741000Y-108436000D02*
X146741000Y-111759000D01*
X146141000Y-108189000D02*
X146141000Y-111759000D01*
X146941000Y-114241000D02*
X146941000Y-117462000D01*
X149021000Y-110635000D02*
X149021000Y-115365000D01*
X147301000Y-114241000D02*
X147301000Y-117247000D01*
X147061000Y-108605000D02*
X147061000Y-111759000D01*
X145941000Y-108126000D02*
X145941000Y-111759000D01*
X146621000Y-114241000D02*
X146621000Y-117621000D01*
X144620000Y-107921000D02*
X144620000Y-118079000D01*
X146181000Y-108203000D02*
X146181000Y-111759000D01*
X148181000Y-114241000D02*
X148181000Y-116520000D01*
X147261000Y-114241000D02*
X147261000Y-117273000D01*
X146861000Y-114241000D02*
X146861000Y-117504000D01*
X146421000Y-114241000D02*
X146421000Y-117707000D01*
X149141000Y-110875000D02*
X149141000Y-115125000D01*
X145261000Y-107976000D02*
X145261000Y-118024000D01*
X149581000Y-112401000D02*
X149581000Y-113599000D01*
X148341000Y-109653000D02*
X148341000Y-116347000D01*
X149541000Y-112138000D02*
X149541000Y-113862000D01*
X147181000Y-114241000D02*
X147181000Y-117323000D01*
X147981000Y-114241000D02*
X147981000Y-116716000D01*
X146981000Y-114241000D02*
X146981000Y-117440000D01*
X147821000Y-114241000D02*
X147821000Y-116858000D01*
X149221000Y-111056000D02*
X149221000Y-114944000D01*
X148821000Y-110291000D02*
X148821000Y-115709000D01*
X148101000Y-109399000D02*
X148101000Y-111759000D01*
X146221000Y-108217000D02*
X146221000Y-111759000D01*
X147141000Y-108653000D02*
X147141000Y-111759000D01*
X148021000Y-109321000D02*
X148021000Y-111759000D01*
X147581000Y-108950000D02*
X147581000Y-111759000D01*
X146061000Y-108163000D02*
X146061000Y-111759000D01*
X145501000Y-108018000D02*
X145501000Y-117982000D01*
X149381000Y-111490000D02*
X149381000Y-114510000D01*
X145060000Y-107950000D02*
X145060000Y-118050000D01*
X147581000Y-114241000D02*
X147581000Y-117050000D01*
X148661000Y-110055000D02*
X148661000Y-115945000D01*
X146381000Y-108277000D02*
X146381000Y-111759000D01*
X147101000Y-114241000D02*
X147101000Y-117371000D01*
X146861000Y-108496000D02*
X146861000Y-111759000D01*
X146701000Y-114241000D02*
X146701000Y-117584000D01*
X147221000Y-114241000D02*
X147221000Y-117298000D01*
X147941000Y-109247000D02*
X147941000Y-111759000D01*
X149501000Y-111938000D02*
X149501000Y-114062000D01*
X147061000Y-114241000D02*
X147061000Y-117395000D01*
X149261000Y-111154000D02*
X149261000Y-114846000D01*
X147301000Y-108753000D02*
X147301000Y-111759000D01*
X146621000Y-108379000D02*
X146621000Y-111759000D01*
X147541000Y-108920000D02*
X147541000Y-111759000D01*
X144580000Y-107920000D02*
X144580000Y-118080000D01*
X147381000Y-114241000D02*
X147381000Y-117194000D01*
X147501000Y-108890000D02*
X147501000Y-111759000D01*
X149620000Y-113000000D02*
G75*
G03*
X149620000Y-113000000I-5120000J0D01*
G01*
%TO.C,J5*%
X127250000Y-74000000D02*
G75*
G03*
X127250000Y-74000000I-3250000J0D01*
G01*
%TO.C,U2*%
X119420000Y-84240000D02*
X129660000Y-84240000D01*
X126391000Y-82730000D02*
X126391000Y-84240000D01*
X119420000Y-82730000D02*
X119420000Y-87371000D01*
X122690000Y-82730000D02*
X122690000Y-84240000D01*
X119420000Y-87371000D02*
X129660000Y-87371000D01*
X119420000Y-82730000D02*
X129660000Y-82730000D01*
X129660000Y-82730000D02*
X129660000Y-87371000D01*
%TO.C,J2*%
X118345000Y-112645000D02*
X119675000Y-112645000D01*
X120945000Y-115305000D02*
X133705000Y-115305000D01*
X120945000Y-112645000D02*
X133705000Y-112645000D01*
X118345000Y-113975000D02*
X118345000Y-112645000D01*
X120945000Y-115305000D02*
X120945000Y-112645000D01*
X133705000Y-115305000D02*
X133705000Y-112645000D01*
%TO.C,J1*%
X102500000Y-134150000D02*
X115350000Y-134150000D01*
X99650000Y-128400000D02*
X99650000Y-131550000D01*
X102500000Y-125850000D02*
X99650000Y-128400000D01*
X115350000Y-134150000D02*
X115350000Y-125850000D01*
X115350000Y-125850000D02*
X102500000Y-125850000D01*
X99650000Y-131550000D02*
X102500000Y-134150000D01*
%TO.C,J6*%
X103270000Y-121830000D02*
X103270000Y-119170000D01*
X100670000Y-119170000D02*
X102000000Y-119170000D01*
X103270000Y-121830000D02*
X105870000Y-121830000D01*
X105870000Y-121830000D02*
X105870000Y-119170000D01*
X100670000Y-120500000D02*
X100670000Y-119170000D01*
X103270000Y-119170000D02*
X105870000Y-119170000D01*
%TO.C,R1*%
X141910000Y-129189564D02*
X141910000Y-127735436D01*
X140090000Y-129189564D02*
X140090000Y-127735436D01*
%TO.C,LB1*%
X104330000Y-97350000D02*
X101670000Y-97350000D01*
X104330000Y-89670000D02*
X101670000Y-89670000D01*
X104330000Y-97350000D02*
X104330000Y-89670000D01*
X101670000Y-97350000D02*
X101670000Y-89670000D01*
X101670000Y-99950000D02*
X101670000Y-98620000D01*
X103000000Y-99950000D02*
X101670000Y-99950000D01*
%TO.C,LF1*%
X101670000Y-76130000D02*
X101670000Y-74800000D01*
X103000000Y-76130000D02*
X101670000Y-76130000D01*
X104330000Y-65850000D02*
X101670000Y-65850000D01*
X104330000Y-73530000D02*
X101670000Y-73530000D01*
X101670000Y-73530000D02*
X101670000Y-65850000D01*
X104330000Y-73530000D02*
X104330000Y-65850000D01*
%TO.C,J3*%
X110250000Y-113000000D02*
G75*
G03*
X110250000Y-113000000I-3250000J0D01*
G01*
%TO.C,RB1*%
X148330000Y-89670000D02*
X148330000Y-91000000D01*
X148330000Y-92270000D02*
X148330000Y-99950000D01*
X145670000Y-92270000D02*
X145670000Y-99950000D01*
X145670000Y-92270000D02*
X148330000Y-92270000D01*
X145670000Y-99950000D02*
X148330000Y-99950000D01*
X147000000Y-89670000D02*
X148330000Y-89670000D01*
%TO.C,U1*%
X119555000Y-62665000D02*
X129715000Y-62665000D01*
X129715000Y-62665000D02*
X129715000Y-57585000D01*
X129715000Y-57585000D02*
X119555000Y-57585000D01*
X119555000Y-57585000D02*
X119555000Y-62665000D01*
X114135000Y-105685000D02*
X114135000Y-106085000D01*
X114135000Y-85285000D02*
X114135000Y-85685000D01*
X120935000Y-108485000D02*
X114135000Y-108485000D01*
X135135000Y-77685000D02*
X135135000Y-78085000D01*
X117142000Y-60152000D02*
X117142000Y-57485000D01*
X114135000Y-59885000D02*
X114135000Y-60285000D01*
X135135000Y-98085000D02*
X135135000Y-98485000D01*
X123135000Y-108485000D02*
X123535000Y-108485000D01*
X114135000Y-67585000D02*
X114135000Y-67985000D01*
X114135000Y-87885000D02*
X114135000Y-88285000D01*
X114135000Y-57485000D02*
X135135000Y-57485000D01*
X114135000Y-103085000D02*
X114135000Y-103485000D01*
X114135000Y-98085000D02*
X114135000Y-98485000D01*
X135135000Y-108485000D02*
X128335000Y-108485000D01*
X114135000Y-64985000D02*
X114135000Y-65385000D01*
X125735000Y-108485000D02*
X126135000Y-108485000D01*
X135135000Y-75185000D02*
X135135000Y-75585000D01*
X135135000Y-87885000D02*
X135135000Y-88285000D01*
X114135000Y-70085000D02*
X114135000Y-70485000D01*
X114135000Y-82785000D02*
X114135000Y-83185000D01*
X114135000Y-57485000D02*
X114135000Y-57785000D01*
X135135000Y-100585000D02*
X135135000Y-100985000D01*
X114135000Y-62485000D02*
X114135000Y-62885000D01*
X114135000Y-60152000D02*
X117142000Y-60152000D01*
X114135000Y-95485000D02*
X114135000Y-95885000D01*
X135135000Y-105685000D02*
X135135000Y-106085000D01*
X135135000Y-90385000D02*
X135135000Y-90785000D01*
X135135000Y-72585000D02*
X135135000Y-72985000D01*
X135135000Y-103085000D02*
X135135000Y-103485000D01*
X135135000Y-62485000D02*
X135135000Y-62885000D01*
X114135000Y-92985000D02*
X114135000Y-93385000D01*
X135135000Y-67585000D02*
X135135000Y-67985000D01*
X135135000Y-82785000D02*
X135135000Y-83185000D01*
X135135000Y-70085000D02*
X135135000Y-70485000D01*
X114135000Y-80285000D02*
X114135000Y-80685000D01*
X135135000Y-95485000D02*
X135135000Y-95885000D01*
X135135000Y-57485000D02*
X135135000Y-57785000D01*
X114135000Y-72585000D02*
X114135000Y-72985000D01*
X114135000Y-90385000D02*
X114135000Y-90785000D01*
X114135000Y-100585000D02*
X114135000Y-100985000D01*
X135135000Y-85285000D02*
X135135000Y-85685000D01*
X135135000Y-80285000D02*
X135135000Y-80685000D01*
X114135000Y-77685000D02*
X114135000Y-78085000D01*
X114135000Y-75185000D02*
X114135000Y-75585000D01*
X135135000Y-59885000D02*
X135135000Y-60285000D01*
X135135000Y-64985000D02*
X135135000Y-65385000D01*
X135135000Y-92985000D02*
X135135000Y-93385000D01*
%TD*%
M02*
