M48
; DRILL file {KiCad (6.0.9)} date Sat Dec 10 13:22:28 2022
; FORMAT={-:-/ absolute / inch / decimal}
; #@! TF.CreationDate,2022-12-10T13:22:28-05:00
; #@! TF.GenerationSoftware,Kicad,Pcbnew,(6.0.9)
; #@! TF.FileFunction,Plated,1,2,PTH
FMAT,2
INCH
; #@! TA.AperFunction,Plated,PTH,ViaDrill
T1C0.0118
; #@! TA.AperFunction,Plated,PTH,ComponentDrill
T2C0.0236
; #@! TA.AperFunction,Plated,PTH,ComponentDrill
T3C0.0394
; #@! TA.AperFunction,Plated,PTH,ComponentDrill
T4C0.0402
; #@! TA.AperFunction,Plated,PTH,ComponentDrill
T5C0.0433
; #@! TA.AperFunction,Plated,PTH,ComponentDrill
T6C0.0900
; #@! TA.AperFunction,Plated,PTH,ComponentDrill
T7C0.1693
; #@! TA.AperFunction,Plated,PTH,ComponentDrill
T8C0.1772
; #@! TA.AperFunction,Plated,PTH,ComponentDrill
T9C0.1969
%
G90
G05
T1
X3.9764Y-2.5591
X3.9764Y-2.5984
X3.9764Y-2.6378
X3.9764Y-2.6772
X3.9764Y-2.7165
X3.9764Y-2.7559
X3.9764Y-2.7953
X3.9764Y-2.8346
X3.9764Y-2.874
X3.9764Y-2.9134
X3.9764Y-2.9528
X3.9764Y-2.9921
X3.9764Y-3.0315
X3.9764Y-3.5039
X3.9764Y-3.5433
X3.9764Y-3.5827
X3.9764Y-3.622
X3.9764Y-3.6614
X3.9764Y-3.7008
X3.9764Y-3.7402
X3.9764Y-3.7795
X3.9764Y-3.8189
X3.9764Y-3.8583
X3.9764Y-3.8976
X3.9764Y-3.937
X3.9764Y-3.9764
X4.0157Y-2.5591
X4.0157Y-3.0315
X4.0157Y-3.5039
X4.0157Y-3.9764
X4.0551Y-2.5591
X4.0551Y-3.0315
X4.0551Y-3.5039
X4.0551Y-3.9764
X4.0945Y-2.5591
X4.0945Y-3.0315
X4.0945Y-3.5039
X4.0945Y-3.9764
X4.1339Y-2.5591
X4.1339Y-2.5984
X4.1339Y-2.6378
X4.3307Y-2.0472
X4.3307Y-2.0866
X4.3307Y-2.126
X4.3307Y-2.1654
X4.3307Y-2.2047
X4.3701Y-2.0472
X4.3701Y-2.2047
X4.4094Y-2.0472
X4.4094Y-2.2047
X4.4488Y-2.0472
X4.4488Y-2.2047
X4.4882Y-2.0472
X4.4882Y-2.2047
X4.5276Y-2.0472
X4.5276Y-2.2047
X4.5669Y-2.0472
X4.5669Y-2.2047
X4.6063Y-2.0472
X4.6063Y-2.2047
X4.6457Y-2.2835
X4.6457Y-2.3228
X4.6457Y-2.3622
X4.6457Y-2.4016
X4.6457Y-2.4409
X4.6457Y-2.4803
X4.6457Y-2.5197
X4.6457Y-2.5591
X4.6457Y-2.5984
X4.6457Y-2.6378
X4.6457Y-2.6772
X4.6457Y-2.7165
X4.6457Y-2.7559
X4.6457Y-2.7953
X4.6457Y-2.8346
X4.6457Y-2.874
X4.6457Y-2.9134
X4.6457Y-2.9528
X4.6457Y-2.9921
X4.6457Y-3.0315
X4.6457Y-3.0709
X4.6457Y-3.1102
X4.6457Y-3.1496
X4.6457Y-3.189
X4.6457Y-3.2283
X4.6457Y-3.2677
X4.6457Y-3.3071
X4.6457Y-3.3465
X4.6457Y-3.3858
X4.6457Y-3.4252
X4.6457Y-3.4646
X4.6457Y-3.5039
X4.6457Y-3.5433
X4.6457Y-3.5827
X4.6457Y-3.622
X4.6457Y-3.6614
X4.6457Y-3.7008
X4.6457Y-3.7402
X4.6457Y-3.7795
X4.6457Y-3.8189
X5.0886Y-2.7756
X5.0886Y-2.815
X5.0886Y-2.8543
X5.0886Y-2.8937
X5.0886Y-2.9331
X5.0886Y-2.9724
X5.0886Y-3.0118
X5.0886Y-3.0512
X5.0886Y-3.0906
X5.0886Y-3.1299
X5.0886Y-3.1693
X5.0886Y-3.2087
X5.128Y-2.3819
X5.128Y-2.4213
X5.128Y-2.4606
X5.128Y-2.5
X5.128Y-2.5394
X5.128Y-2.5787
X5.128Y-2.6181
X5.128Y-2.6575
X5.1969Y-2.0472
X5.1969Y-2.0866
X5.1969Y-2.126
X5.1969Y-2.1654
X5.1969Y-2.2047
X5.2362Y-2.0472
X5.2362Y-2.2047
X5.2756Y-2.0472
X5.2756Y-2.2047
X5.315Y-2.0472
X5.315Y-2.2047
X5.3543Y-2.0472
X5.3937Y-2.0472
X5.4134Y-2.5197
X5.4134Y-2.5591
X5.4134Y-2.5984
X5.4134Y-2.6378
X5.4134Y-2.6772
X5.4134Y-2.7165
X5.4134Y-2.7559
X5.4134Y-2.7953
X5.4134Y-2.8346
X5.4134Y-2.874
X5.4134Y-2.9134
X5.4134Y-2.9528
X5.4134Y-2.9921
X5.4134Y-3.0315
X5.4134Y-3.0709
X5.4134Y-3.1102
X5.4134Y-3.1496
X5.4134Y-3.189
X5.4134Y-3.2283
X5.4134Y-3.2677
X5.4134Y-3.9961
X5.4134Y-4.0354
X5.4134Y-4.0748
X5.4134Y-4.1142
X5.4134Y-4.1535
X5.4134Y-4.1929
X5.4134Y-4.2323
X5.4331Y-2.0472
X5.4331Y-2.2047
X5.4724Y-2.0472
X5.4724Y-2.0866
X5.4724Y-2.126
X5.4724Y-2.1654
X5.4724Y-2.2047
X5.7087Y-2.5591
X5.7087Y-2.5984
X5.7087Y-2.9528
X5.7087Y-2.9921
X5.7087Y-3.0315
X5.7087Y-3.8976
X5.7087Y-3.937
X5.7087Y-3.9764
X5.748Y-2.5591
X5.748Y-3.0315
X5.748Y-3.5039
X5.748Y-3.9764
X5.7874Y-2.5591
X5.7874Y-3.0315
X5.7874Y-3.5039
X5.7874Y-3.9764
X5.8268Y-2.5591
X5.8268Y-3.0315
X5.8268Y-3.5039
X5.8268Y-3.9764
X5.8661Y-2.5591
X5.8661Y-2.5984
X5.8661Y-2.6378
X5.8661Y-2.6772
X5.8661Y-2.7165
X5.8661Y-2.7559
X5.8661Y-2.7953
X5.8661Y-2.8346
X5.8661Y-2.874
X5.8661Y-2.9134
X5.8661Y-2.9528
X5.8661Y-2.9921
X5.8661Y-3.0315
X5.8661Y-3.5039
X5.8661Y-3.5433
X5.8661Y-3.5827
X5.8661Y-3.622
X5.8661Y-3.6614
X5.8661Y-3.7008
X5.8661Y-3.7402
X5.8661Y-3.7795
X5.8661Y-3.8189
X5.8661Y-3.8583
X5.8661Y-3.8976
X5.8661Y-3.937
X5.8661Y-3.9764
T2
X3.9281Y-2.2047
X3.9653Y-2.1149
X3.9653Y-2.2945
X4.0551Y-2.0778
X4.0551Y-2.3317
X4.1449Y-2.1149
X4.1449Y-2.2945
X4.1821Y-2.2047
X4.7549Y-3.8189
X4.7921Y-3.7291
X4.7921Y-3.9087
X4.8819Y-3.6919
X4.8819Y-3.9459
X4.9717Y-3.7291
X4.9717Y-3.9087
X5.0089Y-3.8189
X5.6604Y-2.2047
X5.6976Y-2.1149
X5.6976Y-2.2945
X5.7874Y-2.0778
X5.7874Y-2.3317
X5.8772Y-2.1149
X5.8772Y-2.2945
X5.9144Y-2.2047
T3
X4.0157Y-4.7441
X4.0551Y-2.6449
X4.0551Y-2.7449
X4.0551Y-2.8449
X4.0551Y-2.9449
X4.0551Y-3.5827
X4.0551Y-3.6827
X4.0551Y-3.7827
X4.0551Y-3.8827
X4.1157Y-4.7441
X4.4276Y-2.126
X4.5276Y-2.126
X4.7116Y-4.4872
X4.8116Y-4.4872
X4.9116Y-4.4872
X5.0116Y-4.4872
X5.1116Y-4.4872
X5.2116Y-4.4872
X5.2937Y-2.126
X5.3937Y-2.126
X5.5906Y-4.4488
X5.7874Y-2.6457
X5.7874Y-2.7457
X5.7874Y-2.8457
X5.7874Y-2.9457
X5.7874Y-3.5827
X5.7874Y-3.6827
X5.7874Y-3.7827
X5.7874Y-3.8827
X5.7874Y-4.4488
T4
X4.5569Y-2.3171
X4.5569Y-2.4171
X4.5569Y-2.5171
X4.5569Y-2.6171
X4.5569Y-2.7171
X4.5569Y-2.8171
X4.5569Y-2.9171
X4.5569Y-3.0171
X4.5569Y-3.1171
X4.5569Y-3.2171
X4.5569Y-3.3171
X4.5569Y-3.4171
X4.5569Y-3.5171
X4.5569Y-3.6171
X4.5569Y-3.7171
X4.5569Y-3.8171
X4.5569Y-3.9171
X4.5569Y-4.0171
X4.5569Y-4.1171
X4.5569Y-4.2171
X5.2569Y-2.3171
X5.2569Y-2.4171
X5.2569Y-2.5171
X5.2569Y-2.6171
X5.2569Y-2.7171
X5.2569Y-2.8171
X5.2569Y-2.9171
X5.2569Y-3.0171
X5.2569Y-3.1171
X5.2569Y-3.2171
X5.2569Y-3.3171
X5.2569Y-3.4171
X5.2569Y-3.5171
X5.2569Y-3.6171
X5.2569Y-3.7171
X5.2569Y-3.8171
X5.2569Y-3.9171
X5.2569Y-4.0171
X5.2569Y-4.1171
X5.2569Y-4.2171
T5
X4.8031Y-3.3858
X4.9031Y-3.3858
X5.0031Y-3.3858
X5.1575Y-4.7819
X5.1575Y-4.9819
T6
X4.7638Y-4.8031
X4.7638Y-4.9881
X4.7638Y-5.1731
T7
X4.0551Y-2.2047
X4.8819Y-3.8189
X5.7874Y-2.2047
T8
X4.0906Y-5.1181
X4.374Y-5.1181
T9
X4.2126Y-4.4488
X4.8819Y-2.9134
T0
M30
